G04 #@! TF.GenerationSoftware,KiCad,Pcbnew,7.0.7-7.0.7~ubuntu22.04.1*
G04 #@! TF.CreationDate,2023-10-22T18:43:05+02:00*
G04 #@! TF.ProjectId,bitaxeUltra,62697461-7865-4556-9c74-72612e6b6963,rev?*
G04 #@! TF.SameCoordinates,Original*
G04 #@! TF.FileFunction,Copper,L3,Inr*
G04 #@! TF.FilePolarity,Positive*
%FSLAX46Y46*%
G04 Gerber Fmt 4.6, Leading zero omitted, Abs format (unit mm)*
G04 Created by KiCad (PCBNEW 7.0.7-7.0.7~ubuntu22.04.1) date 2023-10-22 18:43:05*
%MOMM*%
%LPD*%
G01*
G04 APERTURE LIST*
G04 #@! TA.AperFunction,ComponentPad*
%ADD10R,1.700000X1.700000*%
G04 #@! TD*
G04 #@! TA.AperFunction,ComponentPad*
%ADD11O,1.700000X1.700000*%
G04 #@! TD*
G04 #@! TA.AperFunction,ComponentPad*
%ADD12R,2.030000X1.730000*%
G04 #@! TD*
G04 #@! TA.AperFunction,ComponentPad*
%ADD13O,2.030000X1.730000*%
G04 #@! TD*
G04 #@! TA.AperFunction,ComponentPad*
%ADD14R,2.600000X2.600000*%
G04 #@! TD*
G04 #@! TA.AperFunction,ComponentPad*
%ADD15C,2.600000*%
G04 #@! TD*
G04 #@! TA.AperFunction,ComponentPad*
%ADD16C,0.600000*%
G04 #@! TD*
G04 #@! TA.AperFunction,ViaPad*
%ADD17C,0.800000*%
G04 #@! TD*
G04 #@! TA.AperFunction,Conductor*
%ADD18C,0.508000*%
G04 #@! TD*
G04 APERTURE END LIST*
D10*
X208280000Y-79248000D03*
D11*
X208280000Y-76708000D03*
X208280000Y-74168000D03*
X208280000Y-71628000D03*
X208280000Y-69088000D03*
D12*
X192994000Y-76952000D03*
D13*
X192994000Y-74412000D03*
X192994000Y-71872000D03*
X192994000Y-69332000D03*
D10*
X181737000Y-60568000D03*
D11*
X181737000Y-58028000D03*
X184277000Y-60568000D03*
X184277000Y-58028000D03*
X186817000Y-60568000D03*
X186817000Y-58028000D03*
X189357000Y-60568000D03*
X189357000Y-58028000D03*
X191897000Y-60568000D03*
X191897000Y-58028000D03*
X194437000Y-60568000D03*
X194437000Y-58028000D03*
X196977000Y-60568000D03*
X196977000Y-58028000D03*
X199517000Y-60568000D03*
X199517000Y-58028000D03*
X202057000Y-60568000D03*
X202057000Y-58028000D03*
X204597000Y-60568000D03*
X204597000Y-58028000D03*
X207137000Y-60568000D03*
X207137000Y-58028000D03*
X209677000Y-60568000D03*
X209677000Y-58028000D03*
X212217000Y-60568000D03*
X212217000Y-58028000D03*
X214757000Y-60568000D03*
X214757000Y-58028000D03*
X217297000Y-60568000D03*
X217297000Y-58028000D03*
X219837000Y-60568000D03*
X219837000Y-58028000D03*
X222377000Y-60568000D03*
X222377000Y-58028000D03*
X224917000Y-60568000D03*
X224917000Y-58028000D03*
X227457000Y-60568000D03*
X227457000Y-58028000D03*
X229997000Y-60568000D03*
X229997000Y-58028000D03*
D10*
X208280000Y-86868000D03*
D11*
X208280000Y-84328000D03*
X208280000Y-81788000D03*
D14*
X199898000Y-96616000D03*
D15*
X199898000Y-102616000D03*
X204598000Y-99616000D03*
D16*
X183561714Y-74254537D03*
X181841714Y-74254537D03*
X182701714Y-74734537D03*
X183561714Y-75214537D03*
X181841714Y-75214537D03*
D17*
X177200000Y-84300000D03*
X184700000Y-73259537D03*
X191200000Y-81500000D03*
X184900000Y-101900000D03*
X186005200Y-89762800D03*
X236205209Y-77901612D03*
X186005200Y-92762800D03*
X233934000Y-83362800D03*
X231902000Y-83362800D03*
X181755200Y-89762800D03*
X230886000Y-83362800D03*
X186005200Y-93762800D03*
X240792000Y-84201000D03*
X231902000Y-80568800D03*
X181039970Y-79135647D03*
X232918000Y-80568800D03*
X231902000Y-81889600D03*
X232918000Y-83362800D03*
X181755200Y-90762800D03*
X232308400Y-78892400D03*
X178308000Y-66548000D03*
X203962000Y-66360000D03*
X226517200Y-96316800D03*
X230886000Y-81889600D03*
X244348000Y-82484000D03*
X230886000Y-80568800D03*
X182118000Y-109728000D03*
X228854000Y-96316800D03*
X186005200Y-90762800D03*
X178436000Y-71126800D03*
X201525500Y-83058000D03*
X186005200Y-91762800D03*
X233934000Y-80568800D03*
X233578400Y-96316800D03*
X233934000Y-81889600D03*
X193548000Y-103124000D03*
X177267600Y-76105200D03*
X232918000Y-81889600D03*
X203557500Y-86614000D03*
X228472036Y-77890343D03*
X199239500Y-86614000D03*
X181755200Y-91762800D03*
X181755200Y-93762800D03*
X201525500Y-86614000D03*
X231241600Y-96316800D03*
X203811500Y-83058000D03*
X181755200Y-92762800D03*
X185970921Y-79351268D03*
X199268711Y-83028789D03*
X205843500Y-74168000D03*
X206031502Y-82107998D03*
X243332000Y-79502000D03*
X203811500Y-64516000D03*
X241808000Y-79502000D03*
X205843500Y-79756000D03*
X230073200Y-77978000D03*
X234600000Y-78100000D03*
X237236000Y-85852000D03*
X240919000Y-86106000D03*
X237236000Y-88011000D03*
X236474000Y-89027000D03*
X233629200Y-93319600D03*
X228904800Y-93319600D03*
X230886000Y-87833200D03*
X231902000Y-87833200D03*
X226517200Y-93268800D03*
X232918000Y-86868000D03*
X233934000Y-86868000D03*
X233934000Y-87833200D03*
X231241600Y-93319600D03*
X230886000Y-86868000D03*
X231902000Y-86868000D03*
X232918000Y-87833200D03*
X228727000Y-88138000D03*
X227584000Y-88138000D03*
X224028000Y-86106000D03*
X227711000Y-86106000D03*
X196699500Y-85852000D03*
X197207500Y-82108000D03*
X199493500Y-88138004D03*
X201271500Y-84074000D03*
X228193600Y-80060844D03*
X236982000Y-80060800D03*
X224993200Y-82245200D03*
X238316028Y-82813879D03*
X237295975Y-84186015D03*
X197104000Y-66294000D03*
X198374000Y-70358000D03*
X198374000Y-75946000D03*
X198882000Y-66294000D03*
X237032800Y-81026000D03*
X227914061Y-81123655D03*
X183337536Y-71318611D03*
X175768000Y-69850000D03*
X183389000Y-77248200D03*
X188519800Y-88322600D03*
X181966600Y-77248200D03*
X178461400Y-82074200D03*
X183551503Y-72246155D03*
X178334400Y-73108000D03*
X185674000Y-67545637D03*
X189484000Y-90354600D03*
X199307706Y-62655706D03*
X227888800Y-82600800D03*
D18*
X197207500Y-82108000D02*
X197207500Y-70007500D01*
X197207500Y-70007500D02*
X189811000Y-62611000D01*
X189811000Y-62611000D02*
X185500000Y-62611000D01*
X185547000Y-62611000D02*
X185500000Y-62611000D01*
X185500000Y-62611000D02*
X184277000Y-62611000D01*
X182993400Y-61327400D02*
X182993400Y-59284400D01*
X182993400Y-59284400D02*
X181737000Y-58028000D01*
X199173500Y-84074000D02*
X197207500Y-82108000D01*
X201271500Y-84074000D02*
X199173500Y-84074000D01*
X185533400Y-59284400D02*
X185533400Y-61354600D01*
X184277000Y-58028000D02*
X185533400Y-59284400D01*
X184277000Y-62611000D02*
X182993400Y-61327400D01*
X185533400Y-61354600D02*
X184277000Y-62611000D01*
X199493500Y-88138004D02*
X198985504Y-88138004D01*
X198985504Y-88138004D02*
X196699500Y-85852000D01*
X197207500Y-82108000D02*
X197207500Y-85344000D01*
X197207500Y-85344000D02*
X196699500Y-85852000D01*
G04 #@! TA.AperFunction,Conductor*
G36*
X248863039Y-63519685D02*
G01*
X248908794Y-63572489D01*
X248920000Y-63624000D01*
X248919999Y-66479666D01*
X248900314Y-66546705D01*
X248847510Y-66592460D01*
X248778352Y-66602404D01*
X248763905Y-66599441D01*
X248672091Y-66574839D01*
X248665831Y-66571023D01*
X248659740Y-66570544D01*
X248653080Y-66569655D01*
X248651941Y-66569439D01*
X248590995Y-66562573D01*
X248590966Y-66562569D01*
X248583429Y-66561245D01*
X248583185Y-66561186D01*
X248580124Y-66561347D01*
X248427855Y-66544190D01*
X248420658Y-66541166D01*
X248392821Y-66543357D01*
X248343192Y-66545214D01*
X248337115Y-66545088D01*
X248335035Y-66545519D01*
X248181746Y-66551255D01*
X248173738Y-66549225D01*
X248129072Y-66559949D01*
X248126124Y-66560581D01*
X248095353Y-66566403D01*
X248091638Y-66566899D01*
X248090501Y-66567321D01*
X247939531Y-66595886D01*
X247930889Y-66595031D01*
X247875612Y-66617927D01*
X247872366Y-66619167D01*
X247853378Y-66625812D01*
X247852517Y-66626065D01*
X247852291Y-66626191D01*
X247707353Y-66676908D01*
X247706646Y-66674888D01*
X247701010Y-66675587D01*
X247637968Y-66714219D01*
X247634544Y-66716170D01*
X247499648Y-66787465D01*
X247499645Y-66787467D01*
X247306644Y-66929907D01*
X247221900Y-67014652D01*
X247221490Y-67014875D01*
X247221581Y-67014966D01*
X247221862Y-67014689D01*
X247221509Y-67015042D01*
X246509274Y-67727276D01*
X246509262Y-67727290D01*
X246429910Y-67806645D01*
X246287466Y-67999650D01*
X246216197Y-68134498D01*
X246214245Y-68137923D01*
X246178146Y-68196832D01*
X246175763Y-68206953D01*
X246176909Y-68207354D01*
X246126142Y-68352437D01*
X246126049Y-68352565D01*
X246125799Y-68353418D01*
X246119193Y-68372300D01*
X246117952Y-68375550D01*
X246096405Y-68427567D01*
X246095893Y-68439504D01*
X246067303Y-68590607D01*
X246066942Y-68591311D01*
X246066397Y-68595397D01*
X246060597Y-68626049D01*
X246059965Y-68628994D01*
X246050024Y-68670400D01*
X246051258Y-68681714D01*
X246045518Y-68835116D01*
X246045075Y-68836438D01*
X246045215Y-68843221D01*
X246043361Y-68892761D01*
X246041420Y-68917421D01*
X246044189Y-68927828D01*
X246061358Y-69080205D01*
X246060982Y-69082350D01*
X246061253Y-69083479D01*
X246062577Y-69091016D01*
X246069442Y-69151949D01*
X246069653Y-69153062D01*
X246070540Y-69159713D01*
X246070781Y-69162778D01*
X246074832Y-69172058D01*
X246114488Y-69320058D01*
X246114417Y-69323019D01*
X246115309Y-69325172D01*
X246117918Y-69332859D01*
X246131528Y-69383649D01*
X246133059Y-69388025D01*
X246132922Y-69388072D01*
X246136860Y-69399820D01*
X246142438Y-69408657D01*
X246203677Y-69549017D01*
X246204142Y-69552696D01*
X246205853Y-69555488D01*
X246209816Y-69563088D01*
X246227452Y-69603509D01*
X246227455Y-69603516D01*
X246231124Y-69609355D01*
X246239124Y-69624842D01*
X246245406Y-69632084D01*
X246326852Y-69761704D01*
X246328080Y-69766050D01*
X246338421Y-69780117D01*
X246355079Y-69806627D01*
X246364784Y-69817905D01*
X246374670Y-69831458D01*
X246381299Y-69837096D01*
X246481133Y-69953104D01*
X246483238Y-69957755D01*
X246496535Y-69971002D01*
X246511550Y-69988449D01*
X246528996Y-70003463D01*
X246540257Y-70014766D01*
X246546895Y-70018867D01*
X246662903Y-70118700D01*
X246665992Y-70123471D01*
X246665998Y-70123475D01*
X246682094Y-70135215D01*
X246693373Y-70144922D01*
X246719885Y-70161580D01*
X246731957Y-70170454D01*
X246738295Y-70173148D01*
X246867914Y-70254593D01*
X246872061Y-70259282D01*
X246872126Y-70259309D01*
X246890646Y-70268877D01*
X246896487Y-70272547D01*
X246936918Y-70290187D01*
X246944515Y-70294148D01*
X246945974Y-70295042D01*
X246950980Y-70296322D01*
X247091339Y-70357560D01*
X247096556Y-70361928D01*
X247096590Y-70361936D01*
X247111928Y-70367078D01*
X247111976Y-70366942D01*
X247116345Y-70368470D01*
X247116354Y-70368474D01*
X247167143Y-70382082D01*
X247174831Y-70384692D01*
X247175823Y-70385103D01*
X247179941Y-70385511D01*
X247327940Y-70425167D01*
X247334191Y-70428978D01*
X247340278Y-70429457D01*
X247346951Y-70430349D01*
X247348053Y-70430557D01*
X247348061Y-70430559D01*
X247408993Y-70437424D01*
X247416530Y-70438749D01*
X247416751Y-70438802D01*
X247419794Y-70438642D01*
X247572169Y-70455811D01*
X247579361Y-70458833D01*
X247607228Y-70456640D01*
X247614981Y-70456349D01*
X247656795Y-70454785D01*
X247662820Y-70454909D01*
X247664881Y-70454482D01*
X247818282Y-70448742D01*
X247826284Y-70450770D01*
X247870982Y-70440039D01*
X247873916Y-70439409D01*
X247904629Y-70433598D01*
X247908275Y-70433111D01*
X247909390Y-70432697D01*
X248060490Y-70404108D01*
X248069127Y-70404962D01*
X248124422Y-70382059D01*
X248127670Y-70380819D01*
X248146619Y-70374188D01*
X248147358Y-70373971D01*
X248147559Y-70373859D01*
X248288268Y-70324624D01*
X248288270Y-70324622D01*
X248292648Y-70323091D01*
X248293392Y-70325218D01*
X248298816Y-70324520D01*
X248362060Y-70285764D01*
X248365472Y-70283820D01*
X248453619Y-70237232D01*
X248500348Y-70212536D01*
X248500348Y-70212535D01*
X248500351Y-70212534D01*
X248693359Y-70070088D01*
X248708317Y-70055129D01*
X248769639Y-70021644D01*
X248839330Y-70026626D01*
X248895265Y-70068496D01*
X248919684Y-70133960D01*
X248920000Y-70142809D01*
X248920000Y-86490000D01*
X248900315Y-86557039D01*
X248847511Y-86602794D01*
X248796000Y-86614000D01*
X241764097Y-86614000D01*
X241697058Y-86594315D01*
X241651303Y-86541511D01*
X241641359Y-86472353D01*
X241647056Y-86449045D01*
X241704366Y-86285262D01*
X241704369Y-86285249D01*
X241724565Y-86106003D01*
X241724565Y-86105996D01*
X241704369Y-85926750D01*
X241704368Y-85926745D01*
X241678215Y-85852003D01*
X241644789Y-85756478D01*
X241548816Y-85603738D01*
X241421262Y-85476184D01*
X241420735Y-85475853D01*
X241268523Y-85380211D01*
X241098254Y-85320631D01*
X241098249Y-85320630D01*
X240919004Y-85300435D01*
X240918996Y-85300435D01*
X240739750Y-85320630D01*
X240739745Y-85320631D01*
X240569476Y-85380211D01*
X240416737Y-85476184D01*
X240289184Y-85603737D01*
X240193211Y-85756476D01*
X240133631Y-85926745D01*
X240133630Y-85926750D01*
X240113435Y-86105996D01*
X240113435Y-86106003D01*
X240133630Y-86285249D01*
X240133633Y-86285262D01*
X240190944Y-86449045D01*
X240194506Y-86518824D01*
X240159778Y-86579451D01*
X240097784Y-86611679D01*
X240073903Y-86614000D01*
X237905440Y-86614000D01*
X237838401Y-86594315D01*
X237792646Y-86541511D01*
X237782702Y-86472353D01*
X237811727Y-86408797D01*
X237817759Y-86402319D01*
X237865816Y-86354262D01*
X237961789Y-86201522D01*
X238021368Y-86031255D01*
X238026413Y-85986481D01*
X238041565Y-85852003D01*
X238041565Y-85851996D01*
X238021369Y-85672750D01*
X238021368Y-85672745D01*
X237990062Y-85583277D01*
X237961789Y-85502478D01*
X237945267Y-85476184D01*
X237865815Y-85349737D01*
X237738262Y-85222184D01*
X237605823Y-85138967D01*
X237559533Y-85086633D01*
X237548885Y-85017580D01*
X237577260Y-84953731D01*
X237630843Y-84916932D01*
X237635668Y-84915243D01*
X237645497Y-84911804D01*
X237798237Y-84815831D01*
X237925791Y-84688277D01*
X238021764Y-84535537D01*
X238081343Y-84365270D01*
X238085542Y-84328002D01*
X238099852Y-84201003D01*
X239986435Y-84201003D01*
X240006630Y-84380249D01*
X240006631Y-84380254D01*
X240066211Y-84550523D01*
X240152768Y-84688277D01*
X240162184Y-84703262D01*
X240289738Y-84830816D01*
X240380080Y-84887582D01*
X240426790Y-84916932D01*
X240442478Y-84926789D01*
X240612744Y-84986368D01*
X240612745Y-84986368D01*
X240612750Y-84986369D01*
X240791996Y-85006565D01*
X240792000Y-85006565D01*
X240792004Y-85006565D01*
X240971249Y-84986369D01*
X240971252Y-84986368D01*
X240971255Y-84986368D01*
X241141522Y-84926789D01*
X241294262Y-84830816D01*
X241421816Y-84703262D01*
X241517789Y-84550522D01*
X241577368Y-84380255D01*
X241577369Y-84380249D01*
X241597565Y-84201003D01*
X241597565Y-84200996D01*
X241577369Y-84021750D01*
X241577368Y-84021745D01*
X241572126Y-84006765D01*
X241517789Y-83851478D01*
X241512797Y-83843534D01*
X241475257Y-83783789D01*
X241421816Y-83698738D01*
X241294262Y-83571184D01*
X241244103Y-83539667D01*
X241141523Y-83475211D01*
X240971254Y-83415631D01*
X240971249Y-83415630D01*
X240792004Y-83395435D01*
X240791996Y-83395435D01*
X240612750Y-83415630D01*
X240612745Y-83415631D01*
X240442476Y-83475211D01*
X240289737Y-83571184D01*
X240162184Y-83698737D01*
X240066211Y-83851476D01*
X240006631Y-84021745D01*
X240006630Y-84021750D01*
X239986435Y-84200996D01*
X239986435Y-84201003D01*
X238099852Y-84201003D01*
X238101540Y-84186018D01*
X238101540Y-84186011D01*
X238081344Y-84006765D01*
X238081343Y-84006760D01*
X238021763Y-83836490D01*
X237986804Y-83780855D01*
X237967803Y-83713619D01*
X237988170Y-83646783D01*
X238041437Y-83601569D01*
X238110694Y-83592330D01*
X238132752Y-83597840D01*
X238136773Y-83599247D01*
X238136778Y-83599248D01*
X238316024Y-83619444D01*
X238316028Y-83619444D01*
X238316032Y-83619444D01*
X238495277Y-83599248D01*
X238495280Y-83599247D01*
X238495283Y-83599247D01*
X238665550Y-83539668D01*
X238818290Y-83443695D01*
X238945844Y-83316141D01*
X239041817Y-83163401D01*
X239101396Y-82993134D01*
X239101397Y-82993128D01*
X239121593Y-82813882D01*
X239121593Y-82813875D01*
X239101397Y-82634629D01*
X239101396Y-82634624D01*
X239092714Y-82609811D01*
X239048691Y-82484003D01*
X243542435Y-82484003D01*
X243562630Y-82663249D01*
X243562631Y-82663254D01*
X243622211Y-82833523D01*
X243695601Y-82950322D01*
X243718184Y-82986262D01*
X243845738Y-83113816D01*
X243998478Y-83209789D01*
X244168745Y-83269368D01*
X244168750Y-83269369D01*
X244347996Y-83289565D01*
X244348000Y-83289565D01*
X244348004Y-83289565D01*
X244527249Y-83269369D01*
X244527252Y-83269368D01*
X244527255Y-83269368D01*
X244697522Y-83209789D01*
X244850262Y-83113816D01*
X244977816Y-82986262D01*
X245073789Y-82833522D01*
X245133368Y-82663255D01*
X245136325Y-82637011D01*
X245153565Y-82484003D01*
X245153565Y-82483996D01*
X245133369Y-82304750D01*
X245133368Y-82304745D01*
X245110406Y-82239123D01*
X245073789Y-82134478D01*
X245044641Y-82088090D01*
X244994515Y-82008314D01*
X244977816Y-81981738D01*
X244850262Y-81854184D01*
X244787069Y-81814477D01*
X244697523Y-81758211D01*
X244527254Y-81698631D01*
X244527249Y-81698630D01*
X244348004Y-81678435D01*
X244347996Y-81678435D01*
X244168750Y-81698630D01*
X244168745Y-81698631D01*
X243998476Y-81758211D01*
X243845737Y-81854184D01*
X243718184Y-81981737D01*
X243622211Y-82134476D01*
X243562631Y-82304745D01*
X243562630Y-82304750D01*
X243542435Y-82483996D01*
X243542435Y-82484003D01*
X239048691Y-82484003D01*
X239041817Y-82464357D01*
X238945844Y-82311617D01*
X238818290Y-82184063D01*
X238818290Y-82184062D01*
X238665551Y-82088090D01*
X238495282Y-82028510D01*
X238495277Y-82028509D01*
X238316032Y-82008314D01*
X238316024Y-82008314D01*
X238136778Y-82028509D01*
X238136773Y-82028510D01*
X237966504Y-82088090D01*
X237813765Y-82184063D01*
X237686212Y-82311616D01*
X237590239Y-82464355D01*
X237530659Y-82634624D01*
X237530658Y-82634629D01*
X237510463Y-82813875D01*
X237510463Y-82813882D01*
X237530658Y-82993128D01*
X237530659Y-82993133D01*
X237590239Y-83163403D01*
X237625198Y-83219038D01*
X237644199Y-83286275D01*
X237623832Y-83353110D01*
X237570564Y-83398325D01*
X237501308Y-83407563D01*
X237479257Y-83402055D01*
X237475236Y-83400648D01*
X237475224Y-83400645D01*
X237295979Y-83380450D01*
X237295971Y-83380450D01*
X237116725Y-83400645D01*
X237116720Y-83400646D01*
X236946451Y-83460226D01*
X236793712Y-83556199D01*
X236666159Y-83683752D01*
X236570186Y-83836491D01*
X236510606Y-84006760D01*
X236510605Y-84006765D01*
X236490410Y-84186011D01*
X236490410Y-84186018D01*
X236510605Y-84365264D01*
X236510606Y-84365269D01*
X236570186Y-84535538D01*
X236579602Y-84550523D01*
X236666159Y-84688277D01*
X236793713Y-84815831D01*
X236926151Y-84899047D01*
X236972441Y-84951381D01*
X236983090Y-85020434D01*
X236954714Y-85084282D01*
X236901138Y-85121080D01*
X236886479Y-85126210D01*
X236733737Y-85222184D01*
X236606184Y-85349737D01*
X236510211Y-85502476D01*
X236450631Y-85672745D01*
X236450630Y-85672750D01*
X236430435Y-85851996D01*
X236430435Y-85852003D01*
X236450630Y-86031249D01*
X236450631Y-86031254D01*
X236510211Y-86201523D01*
X236606184Y-86354262D01*
X236654241Y-86402319D01*
X236687726Y-86463642D01*
X236682742Y-86533334D01*
X236640870Y-86589267D01*
X236575406Y-86613684D01*
X236566560Y-86614000D01*
X234781196Y-86614000D01*
X234714157Y-86594315D01*
X234668402Y-86541511D01*
X234664155Y-86530955D01*
X234659789Y-86518479D01*
X234659787Y-86518475D01*
X234616161Y-86449045D01*
X234563816Y-86365738D01*
X234436262Y-86238184D01*
X234406266Y-86219336D01*
X234283523Y-86142211D01*
X234113254Y-86082631D01*
X234113249Y-86082630D01*
X233934004Y-86062435D01*
X233933996Y-86062435D01*
X233754750Y-86082630D01*
X233754745Y-86082631D01*
X233584476Y-86142211D01*
X233491972Y-86200336D01*
X233424735Y-86219336D01*
X233360028Y-86200336D01*
X233267523Y-86142211D01*
X233097254Y-86082631D01*
X233097249Y-86082630D01*
X232918004Y-86062435D01*
X232917996Y-86062435D01*
X232738750Y-86082630D01*
X232738745Y-86082631D01*
X232568476Y-86142211D01*
X232475972Y-86200336D01*
X232408735Y-86219336D01*
X232344028Y-86200336D01*
X232251523Y-86142211D01*
X232081254Y-86082631D01*
X232081249Y-86082630D01*
X231902004Y-86062435D01*
X231901996Y-86062435D01*
X231722750Y-86082630D01*
X231722745Y-86082631D01*
X231552476Y-86142211D01*
X231459972Y-86200336D01*
X231392735Y-86219336D01*
X231328028Y-86200336D01*
X231235523Y-86142211D01*
X231065254Y-86082631D01*
X231065249Y-86082630D01*
X230886004Y-86062435D01*
X230885996Y-86062435D01*
X230706750Y-86082630D01*
X230706745Y-86082631D01*
X230536476Y-86142211D01*
X230383737Y-86238184D01*
X230256184Y-86365737D01*
X230160212Y-86518475D01*
X230160210Y-86518479D01*
X230155845Y-86530955D01*
X230115123Y-86587731D01*
X230050171Y-86613478D01*
X230038804Y-86614000D01*
X228556097Y-86614000D01*
X228489058Y-86594315D01*
X228443303Y-86541511D01*
X228433359Y-86472353D01*
X228439056Y-86449045D01*
X228496366Y-86285262D01*
X228496369Y-86285249D01*
X228516565Y-86106003D01*
X228516565Y-86105996D01*
X228496369Y-85926750D01*
X228496368Y-85926745D01*
X228470215Y-85852003D01*
X228436789Y-85756478D01*
X228340816Y-85603738D01*
X228213262Y-85476184D01*
X228212735Y-85475853D01*
X228060523Y-85380211D01*
X227890254Y-85320631D01*
X227890249Y-85320630D01*
X227711004Y-85300435D01*
X227710996Y-85300435D01*
X227531750Y-85320630D01*
X227531745Y-85320631D01*
X227361476Y-85380211D01*
X227208737Y-85476184D01*
X227081184Y-85603737D01*
X226985211Y-85756476D01*
X226925631Y-85926745D01*
X226925630Y-85926750D01*
X226905435Y-86105996D01*
X226905435Y-86106003D01*
X226925630Y-86285249D01*
X226925633Y-86285262D01*
X226982944Y-86449045D01*
X226986506Y-86518824D01*
X226951778Y-86579451D01*
X226889784Y-86611679D01*
X226865903Y-86614000D01*
X224873097Y-86614000D01*
X224806058Y-86594315D01*
X224760303Y-86541511D01*
X224750359Y-86472353D01*
X224756056Y-86449045D01*
X224813366Y-86285262D01*
X224813369Y-86285249D01*
X224833565Y-86106003D01*
X224833565Y-86105996D01*
X224813369Y-85926750D01*
X224813368Y-85926745D01*
X224787215Y-85852003D01*
X224753789Y-85756478D01*
X224657816Y-85603738D01*
X224530262Y-85476184D01*
X224529735Y-85475853D01*
X224377523Y-85380211D01*
X224207254Y-85320631D01*
X224207249Y-85320630D01*
X224028004Y-85300435D01*
X224027996Y-85300435D01*
X223848750Y-85320630D01*
X223848745Y-85320631D01*
X223678476Y-85380211D01*
X223525737Y-85476184D01*
X223398184Y-85603737D01*
X223302211Y-85756476D01*
X223242631Y-85926745D01*
X223242630Y-85926750D01*
X223222435Y-86105996D01*
X223222435Y-86106003D01*
X223242630Y-86285249D01*
X223242633Y-86285262D01*
X223299944Y-86449045D01*
X223303506Y-86518824D01*
X223268778Y-86579451D01*
X223206784Y-86611679D01*
X223182903Y-86614000D01*
X209654499Y-86614000D01*
X209587460Y-86594315D01*
X209541705Y-86541511D01*
X209530499Y-86490000D01*
X209530499Y-85986482D01*
X209530135Y-85984184D01*
X209515646Y-85892696D01*
X209458050Y-85779658D01*
X209458046Y-85779654D01*
X209458045Y-85779652D01*
X209368347Y-85689954D01*
X209368344Y-85689952D01*
X209368342Y-85689950D01*
X209291517Y-85650805D01*
X209255301Y-85632352D01*
X209161524Y-85617500D01*
X209011862Y-85617500D01*
X208944823Y-85597815D01*
X208899068Y-85545011D01*
X208889124Y-85475853D01*
X208918149Y-85412297D01*
X208940734Y-85391928D01*
X209086877Y-85289598D01*
X209241598Y-85134877D01*
X209367102Y-84955639D01*
X209459575Y-84757330D01*
X209516207Y-84545977D01*
X209535277Y-84328000D01*
X209516207Y-84110023D01*
X209459575Y-83898670D01*
X209367102Y-83700362D01*
X209367100Y-83700359D01*
X209367099Y-83700357D01*
X209241599Y-83521124D01*
X209180701Y-83460226D01*
X209086877Y-83366402D01*
X208907639Y-83240898D01*
X208756414Y-83170381D01*
X208703977Y-83124210D01*
X208684825Y-83057016D01*
X208705041Y-82990135D01*
X208756414Y-82945618D01*
X208907639Y-82875102D01*
X209086877Y-82749598D01*
X209241598Y-82594877D01*
X209367102Y-82415639D01*
X209446578Y-82245203D01*
X224187635Y-82245203D01*
X224207830Y-82424449D01*
X224207831Y-82424454D01*
X224267411Y-82594723D01*
X224338887Y-82708476D01*
X224363384Y-82747462D01*
X224490938Y-82875016D01*
X224491075Y-82875102D01*
X224638244Y-82967575D01*
X224643678Y-82970989D01*
X224764533Y-83013278D01*
X224813945Y-83030568D01*
X224813950Y-83030569D01*
X224993196Y-83050765D01*
X224993200Y-83050765D01*
X224993204Y-83050765D01*
X225172449Y-83030569D01*
X225172452Y-83030568D01*
X225172455Y-83030568D01*
X225342722Y-82970989D01*
X225495462Y-82875016D01*
X225623016Y-82747462D01*
X225715168Y-82600803D01*
X227083235Y-82600803D01*
X227103430Y-82780049D01*
X227103431Y-82780054D01*
X227163011Y-82950323D01*
X227231288Y-83058984D01*
X227258984Y-83103062D01*
X227386538Y-83230616D01*
X227539278Y-83326589D01*
X227615071Y-83353110D01*
X227709545Y-83386168D01*
X227709550Y-83386169D01*
X227888796Y-83406365D01*
X227888800Y-83406365D01*
X227888804Y-83406365D01*
X228068049Y-83386169D01*
X228068052Y-83386168D01*
X228068055Y-83386168D01*
X228134828Y-83362803D01*
X230080435Y-83362803D01*
X230100630Y-83542049D01*
X230100631Y-83542054D01*
X230160211Y-83712323D01*
X230238231Y-83836490D01*
X230256184Y-83865062D01*
X230383738Y-83992616D01*
X230536478Y-84088589D01*
X230597733Y-84110023D01*
X230706745Y-84148168D01*
X230706750Y-84148169D01*
X230885996Y-84168365D01*
X230886000Y-84168365D01*
X230886004Y-84168365D01*
X231065249Y-84148169D01*
X231065252Y-84148168D01*
X231065255Y-84148168D01*
X231235522Y-84088589D01*
X231328027Y-84030463D01*
X231395264Y-84011463D01*
X231459973Y-84030464D01*
X231552475Y-84088588D01*
X231722745Y-84148168D01*
X231722750Y-84148169D01*
X231901996Y-84168365D01*
X231902000Y-84168365D01*
X231902004Y-84168365D01*
X232081249Y-84148169D01*
X232081252Y-84148168D01*
X232081255Y-84148168D01*
X232251522Y-84088589D01*
X232344027Y-84030463D01*
X232411264Y-84011463D01*
X232475973Y-84030464D01*
X232568475Y-84088588D01*
X232738745Y-84148168D01*
X232738750Y-84148169D01*
X232917996Y-84168365D01*
X232918000Y-84168365D01*
X232918004Y-84168365D01*
X233097249Y-84148169D01*
X233097252Y-84148168D01*
X233097255Y-84148168D01*
X233267522Y-84088589D01*
X233360028Y-84030463D01*
X233427262Y-84011463D01*
X233491971Y-84030463D01*
X233584478Y-84088589D01*
X233645733Y-84110023D01*
X233754745Y-84148168D01*
X233754750Y-84148169D01*
X233933996Y-84168365D01*
X233934000Y-84168365D01*
X233934004Y-84168365D01*
X234113249Y-84148169D01*
X234113252Y-84148168D01*
X234113255Y-84148168D01*
X234283522Y-84088589D01*
X234436262Y-83992616D01*
X234563816Y-83865062D01*
X234659789Y-83712322D01*
X234719368Y-83542055D01*
X234719637Y-83539667D01*
X234739565Y-83362803D01*
X234739565Y-83362796D01*
X234719369Y-83183550D01*
X234719368Y-83183545D01*
X234691206Y-83103062D01*
X234659789Y-83013278D01*
X234563816Y-82860538D01*
X234436262Y-82732984D01*
X234436261Y-82732983D01*
X234433416Y-82731196D01*
X234431969Y-82729561D01*
X234430816Y-82728641D01*
X234430977Y-82728438D01*
X234387123Y-82678864D01*
X234376472Y-82609811D01*
X234404845Y-82545961D01*
X234433416Y-82521204D01*
X234436262Y-82519416D01*
X234563816Y-82391862D01*
X234659789Y-82239122D01*
X234719368Y-82068855D01*
X234719369Y-82068849D01*
X234739565Y-81889603D01*
X234739565Y-81889596D01*
X234719369Y-81710350D01*
X234719368Y-81710345D01*
X234686140Y-81615384D01*
X234659789Y-81540078D01*
X234563816Y-81387338D01*
X234493359Y-81316881D01*
X234459874Y-81255558D01*
X234464858Y-81185866D01*
X234493359Y-81141519D01*
X234511227Y-81123651D01*
X234563816Y-81071062D01*
X234659789Y-80918322D01*
X234719368Y-80748055D01*
X234724681Y-80700900D01*
X234739565Y-80568803D01*
X234739565Y-80568796D01*
X234719369Y-80389550D01*
X234719368Y-80389545D01*
X234708211Y-80357659D01*
X234659789Y-80219278D01*
X234563816Y-80066538D01*
X234558081Y-80060803D01*
X236176435Y-80060803D01*
X236196630Y-80240049D01*
X236196631Y-80240054D01*
X236256211Y-80410323D01*
X236323776Y-80517851D01*
X236342776Y-80585088D01*
X236323777Y-80649793D01*
X236307012Y-80676474D01*
X236307009Y-80676481D01*
X236247433Y-80846737D01*
X236247430Y-80846750D01*
X236227235Y-81025996D01*
X236227235Y-81026003D01*
X236247430Y-81205249D01*
X236247431Y-81205254D01*
X236307011Y-81375523D01*
X236368372Y-81473177D01*
X236402984Y-81528262D01*
X236530538Y-81655816D01*
X236566536Y-81678435D01*
X236669191Y-81742938D01*
X236683278Y-81751789D01*
X236786755Y-81787997D01*
X236853545Y-81811368D01*
X236853550Y-81811369D01*
X237032796Y-81831565D01*
X237032800Y-81831565D01*
X237032804Y-81831565D01*
X237212049Y-81811369D01*
X237212052Y-81811368D01*
X237212055Y-81811368D01*
X237382322Y-81751789D01*
X237535062Y-81655816D01*
X237662616Y-81528262D01*
X237758589Y-81375522D01*
X237818168Y-81205255D01*
X237820353Y-81185866D01*
X237838365Y-81026003D01*
X237838365Y-81025996D01*
X237818169Y-80846750D01*
X237818168Y-80846745D01*
X237783635Y-80748055D01*
X237758589Y-80676478D01*
X237758588Y-80676476D01*
X237691023Y-80568947D01*
X237672023Y-80501710D01*
X237691024Y-80437002D01*
X237707789Y-80410322D01*
X237767368Y-80240055D01*
X237769709Y-80219278D01*
X237787565Y-80060803D01*
X237787565Y-80060796D01*
X237767369Y-79881550D01*
X237767368Y-79881545D01*
X237730234Y-79775422D01*
X237707789Y-79711278D01*
X237611816Y-79558538D01*
X237484262Y-79430984D01*
X237426456Y-79394662D01*
X237331523Y-79335011D01*
X237161254Y-79275431D01*
X237161249Y-79275430D01*
X236982004Y-79255235D01*
X236981996Y-79255235D01*
X236802750Y-79275430D01*
X236802745Y-79275431D01*
X236632476Y-79335011D01*
X236479737Y-79430984D01*
X236352184Y-79558537D01*
X236256211Y-79711276D01*
X236196631Y-79881545D01*
X236196630Y-79881550D01*
X236176435Y-80060796D01*
X236176435Y-80060803D01*
X234558081Y-80060803D01*
X234436262Y-79938984D01*
X234406266Y-79920136D01*
X234283523Y-79843011D01*
X234113254Y-79783431D01*
X234113249Y-79783430D01*
X233934004Y-79763235D01*
X233933996Y-79763235D01*
X233754750Y-79783430D01*
X233754745Y-79783431D01*
X233584476Y-79843011D01*
X233491972Y-79901136D01*
X233424735Y-79920136D01*
X233360028Y-79901136D01*
X233267523Y-79843011D01*
X233097254Y-79783431D01*
X233097249Y-79783430D01*
X232918004Y-79763235D01*
X232917996Y-79763235D01*
X232859681Y-79769805D01*
X232790859Y-79757750D01*
X232739480Y-79710401D01*
X232721856Y-79642790D01*
X232743583Y-79576385D01*
X232779827Y-79541591D01*
X232810659Y-79522218D01*
X232810659Y-79522217D01*
X232810662Y-79522216D01*
X232938216Y-79394662D01*
X233034189Y-79241922D01*
X233093768Y-79071655D01*
X233113965Y-78892400D01*
X233093768Y-78713145D01*
X233034189Y-78542878D01*
X233026994Y-78531428D01*
X232938215Y-78390137D01*
X232810662Y-78262584D01*
X232657923Y-78166611D01*
X232487654Y-78107031D01*
X232487649Y-78107030D01*
X232308404Y-78086835D01*
X232308396Y-78086835D01*
X232129150Y-78107030D01*
X232129145Y-78107031D01*
X231958876Y-78166611D01*
X231806137Y-78262584D01*
X231678584Y-78390137D01*
X231582611Y-78542876D01*
X231523031Y-78713145D01*
X231523030Y-78713150D01*
X231502835Y-78892396D01*
X231502835Y-78892403D01*
X231523030Y-79071649D01*
X231523031Y-79071654D01*
X231582611Y-79241923D01*
X231603694Y-79275476D01*
X231678584Y-79394662D01*
X231806138Y-79522216D01*
X231845913Y-79547208D01*
X231892204Y-79599543D01*
X231902852Y-79668596D01*
X231874477Y-79732445D01*
X231816088Y-79770817D01*
X231793826Y-79775422D01*
X231722748Y-79783431D01*
X231722745Y-79783431D01*
X231552476Y-79843011D01*
X231459972Y-79901136D01*
X231392735Y-79920136D01*
X231328028Y-79901136D01*
X231235523Y-79843011D01*
X231065254Y-79783431D01*
X231065249Y-79783430D01*
X230886004Y-79763235D01*
X230885996Y-79763235D01*
X230706750Y-79783430D01*
X230706745Y-79783431D01*
X230536476Y-79843011D01*
X230383737Y-79938984D01*
X230256184Y-80066537D01*
X230160211Y-80219276D01*
X230100631Y-80389545D01*
X230100630Y-80389550D01*
X230080435Y-80568796D01*
X230080435Y-80568803D01*
X230100630Y-80748049D01*
X230100631Y-80748054D01*
X230160211Y-80918323D01*
X230256184Y-81071062D01*
X230326640Y-81141518D01*
X230360125Y-81202841D01*
X230355141Y-81272533D01*
X230326641Y-81316879D01*
X230256185Y-81387336D01*
X230256184Y-81387337D01*
X230160211Y-81540076D01*
X230100631Y-81710345D01*
X230100630Y-81710350D01*
X230080435Y-81889596D01*
X230080435Y-81889603D01*
X230100630Y-82068849D01*
X230100631Y-82068854D01*
X230160211Y-82239123D01*
X230256184Y-82391862D01*
X230383737Y-82519415D01*
X230383740Y-82519417D01*
X230386588Y-82521207D01*
X230388034Y-82522842D01*
X230389184Y-82523759D01*
X230389023Y-82523960D01*
X230432879Y-82573542D01*
X230443526Y-82642596D01*
X230415150Y-82706444D01*
X230386588Y-82731193D01*
X230383740Y-82732982D01*
X230383737Y-82732984D01*
X230256184Y-82860537D01*
X230160211Y-83013276D01*
X230100631Y-83183545D01*
X230100630Y-83183550D01*
X230080435Y-83362796D01*
X230080435Y-83362803D01*
X228134828Y-83362803D01*
X228238322Y-83326589D01*
X228391062Y-83230616D01*
X228518616Y-83103062D01*
X228614589Y-82950322D01*
X228674168Y-82780055D01*
X228677600Y-82749598D01*
X228694365Y-82600803D01*
X228694365Y-82600796D01*
X228674169Y-82421550D01*
X228674168Y-82421545D01*
X228639623Y-82322821D01*
X228614589Y-82251278D01*
X228610767Y-82245196D01*
X228572355Y-82184063D01*
X228518616Y-82098538D01*
X228391062Y-81970984D01*
X228391060Y-81970983D01*
X228386273Y-81967165D01*
X228346133Y-81909976D01*
X228343284Y-81840164D01*
X228378631Y-81779895D01*
X228397611Y-81765228D01*
X228416323Y-81753471D01*
X228543877Y-81625917D01*
X228639850Y-81473177D01*
X228699429Y-81302910D01*
X228704288Y-81259784D01*
X228719626Y-81123658D01*
X228719626Y-81123651D01*
X228699430Y-80944405D01*
X228699427Y-80944392D01*
X228658293Y-80826839D01*
X228654731Y-80757060D01*
X228689459Y-80696433D01*
X228694512Y-80692009D01*
X228695859Y-80690661D01*
X228695862Y-80690660D01*
X228823416Y-80563106D01*
X228919389Y-80410366D01*
X228978968Y-80240099D01*
X228981314Y-80219276D01*
X228999165Y-80060847D01*
X228999165Y-80060840D01*
X228978969Y-79881594D01*
X228978968Y-79881589D01*
X228944621Y-79783430D01*
X228919389Y-79711322D01*
X228919361Y-79711278D01*
X228876327Y-79642790D01*
X228823416Y-79558582D01*
X228695862Y-79431028D01*
X228637986Y-79394662D01*
X228543123Y-79335055D01*
X228372854Y-79275475D01*
X228372849Y-79275474D01*
X228193604Y-79255279D01*
X228193596Y-79255279D01*
X228014350Y-79275474D01*
X228014345Y-79275475D01*
X227844076Y-79335055D01*
X227691337Y-79431028D01*
X227563784Y-79558581D01*
X227467811Y-79711320D01*
X227408231Y-79881589D01*
X227408230Y-79881594D01*
X227388035Y-80060840D01*
X227388035Y-80060847D01*
X227408230Y-80240093D01*
X227408231Y-80240098D01*
X227449368Y-80357659D01*
X227452929Y-80427438D01*
X227418200Y-80488066D01*
X227413149Y-80492488D01*
X227284245Y-80621392D01*
X227188272Y-80774131D01*
X227128692Y-80944400D01*
X227128691Y-80944405D01*
X227108496Y-81123651D01*
X227108496Y-81123658D01*
X227128691Y-81302904D01*
X227128692Y-81302909D01*
X227188272Y-81473178D01*
X227249124Y-81570023D01*
X227284245Y-81625917D01*
X227411799Y-81753471D01*
X227411802Y-81753473D01*
X227416586Y-81757288D01*
X227456726Y-81814477D01*
X227459576Y-81884288D01*
X227424230Y-81944558D01*
X227405248Y-81959227D01*
X227386539Y-81970983D01*
X227386537Y-81970984D01*
X227258984Y-82098537D01*
X227163011Y-82251276D01*
X227103431Y-82421545D01*
X227103430Y-82421550D01*
X227083235Y-82600796D01*
X227083235Y-82600803D01*
X225715168Y-82600803D01*
X225718989Y-82594722D01*
X225778568Y-82424455D01*
X225778569Y-82424449D01*
X225798765Y-82245203D01*
X225798765Y-82245196D01*
X225778569Y-82065950D01*
X225778568Y-82065945D01*
X225757584Y-82005977D01*
X225718989Y-81895678D01*
X225715167Y-81889596D01*
X225666013Y-81811368D01*
X225623016Y-81742938D01*
X225495462Y-81615384D01*
X225342723Y-81519411D01*
X225172454Y-81459831D01*
X225172449Y-81459830D01*
X224993204Y-81439635D01*
X224993196Y-81439635D01*
X224813950Y-81459830D01*
X224813945Y-81459831D01*
X224643676Y-81519411D01*
X224490937Y-81615384D01*
X224363384Y-81742937D01*
X224267411Y-81895676D01*
X224207831Y-82065945D01*
X224207830Y-82065950D01*
X224187635Y-82245196D01*
X224187635Y-82245203D01*
X209446578Y-82245203D01*
X209459575Y-82217330D01*
X209516207Y-82005977D01*
X209535277Y-81788000D01*
X209533284Y-81765224D01*
X209531335Y-81742937D01*
X209516207Y-81570023D01*
X209464091Y-81375523D01*
X209459577Y-81358677D01*
X209459576Y-81358676D01*
X209459575Y-81358670D01*
X209367102Y-81160362D01*
X209367100Y-81160359D01*
X209367099Y-81160357D01*
X209241599Y-80981124D01*
X209178797Y-80918322D01*
X209086877Y-80826402D01*
X208907639Y-80700898D01*
X208907640Y-80700898D01*
X208907638Y-80700897D01*
X208798044Y-80649793D01*
X208709330Y-80608425D01*
X208709326Y-80608424D01*
X208709322Y-80608422D01*
X208497977Y-80551793D01*
X208280002Y-80532723D01*
X208279998Y-80532723D01*
X208134681Y-80545436D01*
X208062023Y-80551793D01*
X208062020Y-80551793D01*
X207850677Y-80608422D01*
X207850668Y-80608426D01*
X207652361Y-80700898D01*
X207652357Y-80700900D01*
X207473121Y-80826402D01*
X207318402Y-80981121D01*
X207192900Y-81160357D01*
X207192898Y-81160361D01*
X207100426Y-81358668D01*
X207100422Y-81358677D01*
X207043793Y-81570020D01*
X207043793Y-81570024D01*
X207024723Y-81787997D01*
X207024723Y-81788002D01*
X207032335Y-81875011D01*
X207041672Y-81981738D01*
X207043793Y-82005975D01*
X207043793Y-82005979D01*
X207100422Y-82217322D01*
X207100424Y-82217326D01*
X207100425Y-82217330D01*
X207126213Y-82272632D01*
X207192897Y-82415638D01*
X207192898Y-82415639D01*
X207318402Y-82594877D01*
X207473123Y-82749598D01*
X207652237Y-82875015D01*
X207652361Y-82875102D01*
X207803583Y-82945618D01*
X207856022Y-82991790D01*
X207875174Y-83058984D01*
X207854958Y-83125865D01*
X207803583Y-83170382D01*
X207652361Y-83240898D01*
X207652357Y-83240900D01*
X207473121Y-83366402D01*
X207318402Y-83521121D01*
X207192900Y-83700357D01*
X207192898Y-83700361D01*
X207100426Y-83898668D01*
X207100422Y-83898677D01*
X207043793Y-84110020D01*
X207043793Y-84110024D01*
X207024723Y-84327997D01*
X207024723Y-84328002D01*
X207043793Y-84545975D01*
X207043793Y-84545979D01*
X207100422Y-84757322D01*
X207100424Y-84757326D01*
X207100425Y-84757330D01*
X207134692Y-84830815D01*
X207192897Y-84955638D01*
X207192898Y-84955639D01*
X207318402Y-85134877D01*
X207473123Y-85289598D01*
X207619263Y-85391926D01*
X207662887Y-85446502D01*
X207670081Y-85516000D01*
X207638558Y-85578355D01*
X207578328Y-85613769D01*
X207548140Y-85617500D01*
X207398482Y-85617500D01*
X207317519Y-85630323D01*
X207304696Y-85632354D01*
X207191658Y-85689950D01*
X207191657Y-85689950D01*
X207191657Y-85689951D01*
X207191652Y-85689954D01*
X207101954Y-85779652D01*
X207101951Y-85779657D01*
X207044352Y-85892698D01*
X207029500Y-85986475D01*
X207029500Y-86490000D01*
X207009815Y-86557039D01*
X206957011Y-86602794D01*
X206905500Y-86614000D01*
X204473878Y-86614000D01*
X204406839Y-86594315D01*
X204361084Y-86541511D01*
X204350658Y-86503883D01*
X204342869Y-86434749D01*
X204342868Y-86434745D01*
X204314706Y-86354262D01*
X204283289Y-86264478D01*
X204266767Y-86238184D01*
X204187315Y-86111737D01*
X204059762Y-85984184D01*
X203907023Y-85888211D01*
X203736754Y-85828631D01*
X203736749Y-85828630D01*
X203557504Y-85808435D01*
X203557496Y-85808435D01*
X203378250Y-85828630D01*
X203378240Y-85828633D01*
X203364950Y-85833283D01*
X203295171Y-85836842D01*
X203234545Y-85802112D01*
X203202320Y-85740117D01*
X203200000Y-85716250D01*
X203200000Y-83843534D01*
X203219684Y-83776499D01*
X203272488Y-83730744D01*
X203341646Y-83720800D01*
X203389971Y-83738544D01*
X203457308Y-83780855D01*
X203461978Y-83783789D01*
X203612589Y-83836490D01*
X203632245Y-83843368D01*
X203632250Y-83843369D01*
X203811496Y-83863565D01*
X203811500Y-83863565D01*
X203811504Y-83863565D01*
X203990749Y-83843369D01*
X203990752Y-83843368D01*
X203990755Y-83843368D01*
X204161022Y-83783789D01*
X204313762Y-83687816D01*
X204441316Y-83560262D01*
X204537289Y-83407522D01*
X204596868Y-83237255D01*
X204605189Y-83163402D01*
X204617065Y-83058003D01*
X204617065Y-83057996D01*
X204596869Y-82878750D01*
X204596868Y-82878745D01*
X204562335Y-82780055D01*
X204537289Y-82708478D01*
X204508873Y-82663255D01*
X204465911Y-82594881D01*
X204441316Y-82555738D01*
X204313762Y-82428184D01*
X204293795Y-82415638D01*
X204161023Y-82332211D01*
X203990754Y-82272631D01*
X203990749Y-82272630D01*
X203811504Y-82252435D01*
X203811496Y-82252435D01*
X203632250Y-82272630D01*
X203632245Y-82272631D01*
X203461976Y-82332211D01*
X203389971Y-82377456D01*
X203322735Y-82396456D01*
X203255899Y-82376088D01*
X203210685Y-82322821D01*
X203200000Y-82272466D01*
X203200000Y-76708002D01*
X207024723Y-76708002D01*
X207043793Y-76925975D01*
X207043793Y-76925979D01*
X207100422Y-77137322D01*
X207100424Y-77137326D01*
X207100425Y-77137330D01*
X207113120Y-77164554D01*
X207192897Y-77335638D01*
X207192898Y-77335639D01*
X207318402Y-77514877D01*
X207473123Y-77669598D01*
X207652361Y-77795102D01*
X207850670Y-77887575D01*
X208062023Y-77944207D01*
X208244926Y-77960208D01*
X208279998Y-77963277D01*
X208280000Y-77963277D01*
X208280002Y-77963277D01*
X208308254Y-77960805D01*
X208497977Y-77944207D01*
X208698989Y-77890346D01*
X227666471Y-77890346D01*
X227686666Y-78069592D01*
X227686667Y-78069597D01*
X227746247Y-78239866D01*
X227753328Y-78251135D01*
X227842220Y-78392605D01*
X227969774Y-78520159D01*
X228122514Y-78616132D01*
X228292781Y-78675711D01*
X228292786Y-78675712D01*
X228472032Y-78695908D01*
X228472036Y-78695908D01*
X228472040Y-78695908D01*
X228651285Y-78675712D01*
X228651288Y-78675711D01*
X228651291Y-78675711D01*
X228821558Y-78616132D01*
X228974298Y-78520159D01*
X229101852Y-78392605D01*
X229197825Y-78239865D01*
X229257404Y-78069598D01*
X229257405Y-78069592D01*
X229276331Y-77901615D01*
X235399644Y-77901615D01*
X235419839Y-78080861D01*
X235419840Y-78080866D01*
X235479420Y-78251135D01*
X235566761Y-78390137D01*
X235575393Y-78403874D01*
X235702947Y-78531428D01*
X235721170Y-78542878D01*
X235837752Y-78616132D01*
X235855687Y-78627401D01*
X235993749Y-78675711D01*
X236025954Y-78686980D01*
X236025959Y-78686981D01*
X236205205Y-78707177D01*
X236205209Y-78707177D01*
X236205213Y-78707177D01*
X236384458Y-78686981D01*
X236384461Y-78686980D01*
X236384464Y-78686980D01*
X236554731Y-78627401D01*
X236707471Y-78531428D01*
X236835025Y-78403874D01*
X236930998Y-78251134D01*
X236990577Y-78080867D01*
X236991847Y-78069597D01*
X237010774Y-77901615D01*
X237010774Y-77901608D01*
X236990578Y-77722362D01*
X236990577Y-77722357D01*
X236930997Y-77552088D01*
X236835024Y-77399349D01*
X236707471Y-77271796D01*
X236554732Y-77175823D01*
X236384463Y-77116243D01*
X236384458Y-77116242D01*
X236205213Y-77096047D01*
X236205205Y-77096047D01*
X236025959Y-77116242D01*
X236025954Y-77116243D01*
X235855685Y-77175823D01*
X235702946Y-77271796D01*
X235575393Y-77399349D01*
X235479420Y-77552088D01*
X235419840Y-77722357D01*
X235419839Y-77722362D01*
X235399644Y-77901608D01*
X235399644Y-77901615D01*
X229276331Y-77901615D01*
X229277601Y-77890346D01*
X229277601Y-77890339D01*
X229257405Y-77711093D01*
X229257404Y-77711088D01*
X229197824Y-77540819D01*
X229158618Y-77478423D01*
X229101852Y-77388081D01*
X228974298Y-77260527D01*
X228974297Y-77260527D01*
X228821559Y-77164554D01*
X228651290Y-77104974D01*
X228651285Y-77104973D01*
X228472040Y-77084778D01*
X228472032Y-77084778D01*
X228292786Y-77104973D01*
X228292781Y-77104974D01*
X228122512Y-77164554D01*
X227969773Y-77260527D01*
X227842220Y-77388080D01*
X227746247Y-77540819D01*
X227686667Y-77711088D01*
X227686666Y-77711093D01*
X227666471Y-77890339D01*
X227666471Y-77890346D01*
X208698989Y-77890346D01*
X208709330Y-77887575D01*
X208907639Y-77795102D01*
X209086877Y-77669598D01*
X209241598Y-77514877D01*
X209367102Y-77335639D01*
X209459575Y-77137330D01*
X209516207Y-76925977D01*
X209535277Y-76708000D01*
X209516207Y-76490023D01*
X209459575Y-76278670D01*
X209367102Y-76080362D01*
X209367100Y-76080359D01*
X209367099Y-76080357D01*
X209241599Y-75901124D01*
X209241596Y-75901121D01*
X209086877Y-75746402D01*
X208907639Y-75620898D01*
X208756414Y-75550381D01*
X208703977Y-75504210D01*
X208684825Y-75437016D01*
X208705041Y-75370135D01*
X208756414Y-75325618D01*
X208907639Y-75255102D01*
X209086877Y-75129598D01*
X209241598Y-74974877D01*
X209367102Y-74795639D01*
X209459575Y-74597330D01*
X209516207Y-74385977D01*
X209535277Y-74168000D01*
X209516207Y-73950023D01*
X209459575Y-73738670D01*
X209367102Y-73540362D01*
X209367100Y-73540359D01*
X209367099Y-73540357D01*
X209241599Y-73361124D01*
X209241596Y-73361121D01*
X209086877Y-73206402D01*
X208907639Y-73080898D01*
X208756414Y-73010381D01*
X208703977Y-72964210D01*
X208684825Y-72897016D01*
X208705041Y-72830135D01*
X208756414Y-72785618D01*
X208907639Y-72715102D01*
X209086877Y-72589598D01*
X209241598Y-72434877D01*
X209367102Y-72255639D01*
X209459575Y-72057330D01*
X209516207Y-71845977D01*
X209535277Y-71628000D01*
X209516207Y-71410023D01*
X209459575Y-71198670D01*
X209367102Y-71000362D01*
X209367100Y-71000359D01*
X209367099Y-71000357D01*
X209241599Y-70821124D01*
X209241596Y-70821121D01*
X209086877Y-70666402D01*
X208907639Y-70540898D01*
X208756414Y-70470381D01*
X208703977Y-70424210D01*
X208684825Y-70357016D01*
X208705041Y-70290135D01*
X208756414Y-70245618D01*
X208907639Y-70175102D01*
X209086877Y-70049598D01*
X209241598Y-69894877D01*
X209367102Y-69715639D01*
X209459575Y-69517330D01*
X209516207Y-69305977D01*
X209535277Y-69088000D01*
X209534881Y-69083479D01*
X209527609Y-69000351D01*
X209516207Y-68870023D01*
X209459575Y-68658670D01*
X209367102Y-68460362D01*
X209367100Y-68460359D01*
X209367099Y-68460357D01*
X209241599Y-68281124D01*
X209166729Y-68206254D01*
X209086877Y-68126402D01*
X209019688Y-68079356D01*
X214041165Y-68079356D01*
X214043360Y-68107236D01*
X214045214Y-68156792D01*
X214045089Y-68162845D01*
X214045518Y-68164917D01*
X214051256Y-68318269D01*
X214049227Y-68326272D01*
X214059955Y-68370954D01*
X214060588Y-68373904D01*
X214066400Y-68404630D01*
X214066892Y-68408316D01*
X214067310Y-68409439D01*
X214095886Y-68560471D01*
X214095031Y-68569109D01*
X214117927Y-68624386D01*
X214119167Y-68627635D01*
X214125809Y-68646615D01*
X214126047Y-68647427D01*
X214126170Y-68647647D01*
X214176908Y-68792647D01*
X214174846Y-68793368D01*
X214175545Y-68798922D01*
X214214225Y-68862041D01*
X214216176Y-68865466D01*
X214287466Y-69000352D01*
X214287466Y-69000353D01*
X214429911Y-69193358D01*
X214507578Y-69271025D01*
X214507591Y-69271040D01*
X214514651Y-69278100D01*
X214514652Y-69278101D01*
X215221475Y-69984924D01*
X215221476Y-69984924D01*
X215221829Y-69985278D01*
X215221829Y-69985277D01*
X215276700Y-70040305D01*
X215276725Y-70040318D01*
X215280372Y-70043819D01*
X215306641Y-70070088D01*
X215493352Y-70207888D01*
X215499649Y-70212535D01*
X215634541Y-70283827D01*
X215637953Y-70285772D01*
X215696903Y-70321897D01*
X215706940Y-70324267D01*
X215707352Y-70323091D01*
X215711729Y-70324622D01*
X215711732Y-70324624D01*
X215852362Y-70373832D01*
X215852494Y-70373927D01*
X215853359Y-70374181D01*
X215872371Y-70380834D01*
X215875597Y-70382066D01*
X215927581Y-70403598D01*
X215939520Y-70404111D01*
X216090557Y-70432689D01*
X216091264Y-70433050D01*
X216095363Y-70433598D01*
X216126120Y-70439417D01*
X216129043Y-70440045D01*
X216170412Y-70449977D01*
X216181734Y-70448744D01*
X216214686Y-70449977D01*
X216335083Y-70454482D01*
X216336405Y-70454924D01*
X216343182Y-70454785D01*
X216392800Y-70456641D01*
X216417429Y-70458580D01*
X216427839Y-70455811D01*
X216503523Y-70447282D01*
X216580165Y-70438647D01*
X216582313Y-70439023D01*
X216583439Y-70438753D01*
X216590972Y-70437429D01*
X216651939Y-70430560D01*
X216651954Y-70430555D01*
X216653051Y-70430349D01*
X216659732Y-70429455D01*
X216662797Y-70429213D01*
X216672073Y-70425165D01*
X216820021Y-70385523D01*
X216822992Y-70385593D01*
X216825164Y-70384694D01*
X216832844Y-70382087D01*
X216883647Y-70368475D01*
X216883655Y-70368471D01*
X216888025Y-70366943D01*
X216888073Y-70367080D01*
X216899829Y-70363137D01*
X216908673Y-70357555D01*
X217048983Y-70296339D01*
X217052670Y-70295873D01*
X217055478Y-70294153D01*
X217063074Y-70290191D01*
X217103514Y-70272548D01*
X217109378Y-70268863D01*
X217124862Y-70260863D01*
X217132105Y-70254582D01*
X217261686Y-70173161D01*
X217266031Y-70171934D01*
X217280086Y-70161600D01*
X217306628Y-70144923D01*
X217317931Y-70135195D01*
X217331474Y-70125318D01*
X217337113Y-70118687D01*
X217453091Y-70018880D01*
X217457745Y-70016774D01*
X217471000Y-70003469D01*
X217488451Y-69988451D01*
X217503469Y-69971000D01*
X217514772Y-69959739D01*
X217518879Y-69953093D01*
X217618686Y-69837115D01*
X217623456Y-69834026D01*
X217623459Y-69834023D01*
X217635195Y-69817931D01*
X217644923Y-69806628D01*
X217661600Y-69780086D01*
X217670465Y-69768027D01*
X217673159Y-69761689D01*
X217754580Y-69632108D01*
X217759271Y-69627959D01*
X217759300Y-69627890D01*
X217768863Y-69609378D01*
X217772548Y-69603514D01*
X217790191Y-69563074D01*
X217794153Y-69555478D01*
X217795052Y-69554010D01*
X217796338Y-69548985D01*
X217857554Y-69408676D01*
X217861924Y-69403457D01*
X217861934Y-69403416D01*
X217867080Y-69388073D01*
X217866943Y-69388025D01*
X217868474Y-69383649D01*
X217868475Y-69383647D01*
X217882087Y-69332844D01*
X217884694Y-69325164D01*
X217885112Y-69324153D01*
X217885523Y-69320021D01*
X217925164Y-69172074D01*
X217928975Y-69165822D01*
X217929455Y-69159732D01*
X217930349Y-69153051D01*
X217930557Y-69151949D01*
X217930560Y-69151939D01*
X217937429Y-69090972D01*
X217938753Y-69083439D01*
X217938807Y-69083213D01*
X217938647Y-69080165D01*
X217955811Y-68927839D01*
X217958833Y-68920645D01*
X217956641Y-68892788D01*
X217956640Y-68892761D01*
X217954785Y-68843182D01*
X217954909Y-68837151D01*
X217954482Y-68835083D01*
X217948744Y-68681734D01*
X217950773Y-68673726D01*
X217940045Y-68629043D01*
X217939417Y-68626120D01*
X217933598Y-68595363D01*
X217933106Y-68591682D01*
X217932689Y-68590557D01*
X217904111Y-68439520D01*
X217904965Y-68430881D01*
X217882066Y-68375597D01*
X217880834Y-68372371D01*
X217874181Y-68353359D01*
X217873952Y-68352578D01*
X217873833Y-68352364D01*
X217824624Y-68211732D01*
X217824622Y-68211729D01*
X217823091Y-68207352D01*
X217825175Y-68206622D01*
X217824475Y-68201111D01*
X217785772Y-68137953D01*
X217783827Y-68134541D01*
X217712535Y-67999649D01*
X217651372Y-67916777D01*
X217570088Y-67806641D01*
X217543819Y-67780372D01*
X217543617Y-67780002D01*
X217485277Y-67721829D01*
X217485278Y-67721829D01*
X217484924Y-67721476D01*
X216778101Y-67014652D01*
X216778100Y-67014651D01*
X216771040Y-67007591D01*
X216771025Y-67007578D01*
X216693358Y-66929911D01*
X216500353Y-66787466D01*
X216365466Y-66716176D01*
X216362041Y-66714225D01*
X216303128Y-66678123D01*
X216293053Y-66675747D01*
X216292647Y-66676908D01*
X216147647Y-66626170D01*
X216147511Y-66626072D01*
X216146615Y-66625809D01*
X216127635Y-66619167D01*
X216124386Y-66617927D01*
X216072411Y-66596399D01*
X216060471Y-66595886D01*
X215909439Y-66567310D01*
X215908731Y-66566948D01*
X215904630Y-66566400D01*
X215878794Y-66561513D01*
X215873894Y-66560585D01*
X215870954Y-66559955D01*
X215829587Y-66550023D01*
X215818269Y-66551256D01*
X215664917Y-66545518D01*
X215663590Y-66545073D01*
X215656792Y-66545214D01*
X215607236Y-66543360D01*
X215582576Y-66541419D01*
X215572162Y-66544189D01*
X215419834Y-66561353D01*
X215417680Y-66560975D01*
X215416542Y-66561249D01*
X215409007Y-66562573D01*
X215348047Y-66569442D01*
X215346922Y-66569655D01*
X215340271Y-66570542D01*
X215337213Y-66570782D01*
X215327925Y-66574836D01*
X215179977Y-66614478D01*
X215177002Y-66614407D01*
X215174823Y-66615310D01*
X215167137Y-66617919D01*
X215136267Y-66626191D01*
X215116353Y-66631527D01*
X215116351Y-66631527D01*
X215116350Y-66631528D01*
X215111975Y-66633059D01*
X215111927Y-66632922D01*
X215100170Y-66636864D01*
X215091322Y-66642447D01*
X214951003Y-66703667D01*
X214947316Y-66704133D01*
X214944507Y-66705855D01*
X214936898Y-66709821D01*
X214896490Y-66727451D01*
X214896481Y-66727456D01*
X214890631Y-66731132D01*
X214875141Y-66739134D01*
X214867894Y-66745419D01*
X214738313Y-66826839D01*
X214733967Y-66828067D01*
X214719889Y-66838416D01*
X214693372Y-66855078D01*
X214682082Y-66864794D01*
X214668534Y-66874675D01*
X214662890Y-66881310D01*
X214546908Y-66981120D01*
X214542258Y-66983224D01*
X214528999Y-66996532D01*
X214511550Y-67011548D01*
X214511548Y-67011550D01*
X214496532Y-67028999D01*
X214485224Y-67040265D01*
X214481120Y-67046908D01*
X214381310Y-67162890D01*
X214376536Y-67165980D01*
X214376529Y-67165993D01*
X214364794Y-67182082D01*
X214355078Y-67193372D01*
X214338416Y-67219889D01*
X214329534Y-67231970D01*
X214326839Y-67238313D01*
X214245419Y-67367894D01*
X214240725Y-67372045D01*
X214240694Y-67372122D01*
X214231132Y-67390631D01*
X214227456Y-67396481D01*
X214227451Y-67396490D01*
X214209821Y-67436898D01*
X214205855Y-67444507D01*
X214204951Y-67445981D01*
X214203667Y-67451003D01*
X214142447Y-67591322D01*
X214138075Y-67596544D01*
X214138063Y-67596595D01*
X214132922Y-67611927D01*
X214133059Y-67611975D01*
X214131528Y-67616350D01*
X214117919Y-67667137D01*
X214115310Y-67674823D01*
X214114889Y-67675838D01*
X214114478Y-67679977D01*
X214074836Y-67827925D01*
X214071021Y-67834183D01*
X214070542Y-67840271D01*
X214069655Y-67846922D01*
X214069442Y-67848047D01*
X214062573Y-67909007D01*
X214061249Y-67916542D01*
X214061192Y-67916777D01*
X214061353Y-67919834D01*
X214044189Y-68072162D01*
X214041165Y-68079356D01*
X209019688Y-68079356D01*
X208907639Y-68000898D01*
X208907640Y-68000898D01*
X208907638Y-68000897D01*
X208808484Y-67954661D01*
X208709330Y-67908425D01*
X208709326Y-67908424D01*
X208709322Y-67908422D01*
X208497977Y-67851793D01*
X208280002Y-67832723D01*
X208279998Y-67832723D01*
X208134682Y-67845436D01*
X208062023Y-67851793D01*
X208062020Y-67851793D01*
X207850677Y-67908422D01*
X207850668Y-67908426D01*
X207652361Y-68000898D01*
X207652357Y-68000900D01*
X207473121Y-68126402D01*
X207318402Y-68281121D01*
X207192900Y-68460357D01*
X207192898Y-68460361D01*
X207100426Y-68658668D01*
X207100422Y-68658677D01*
X207043793Y-68870020D01*
X207043793Y-68870024D01*
X207025119Y-69083479D01*
X207024723Y-69088000D01*
X207041298Y-69277463D01*
X207043793Y-69305975D01*
X207043793Y-69305979D01*
X207100422Y-69517322D01*
X207100424Y-69517326D01*
X207100425Y-69517330D01*
X207140611Y-69603509D01*
X207192897Y-69715638D01*
X207192898Y-69715639D01*
X207318402Y-69894877D01*
X207473123Y-70049598D01*
X207633050Y-70161580D01*
X207652361Y-70175102D01*
X207803583Y-70245618D01*
X207856022Y-70291790D01*
X207875174Y-70358984D01*
X207854958Y-70425865D01*
X207803583Y-70470382D01*
X207652361Y-70540898D01*
X207652357Y-70540900D01*
X207473121Y-70666402D01*
X207318402Y-70821121D01*
X207192900Y-71000357D01*
X207192898Y-71000361D01*
X207100426Y-71198668D01*
X207100422Y-71198677D01*
X207043793Y-71410020D01*
X207043793Y-71410024D01*
X207024723Y-71627997D01*
X207024723Y-71628002D01*
X207043793Y-71845975D01*
X207043793Y-71845979D01*
X207100422Y-72057322D01*
X207100424Y-72057326D01*
X207100425Y-72057330D01*
X207146661Y-72156484D01*
X207192897Y-72255638D01*
X207192898Y-72255639D01*
X207318402Y-72434877D01*
X207473123Y-72589598D01*
X207652360Y-72715101D01*
X207652361Y-72715102D01*
X207803583Y-72785618D01*
X207856022Y-72831790D01*
X207875174Y-72898984D01*
X207854958Y-72965865D01*
X207803583Y-73010382D01*
X207652361Y-73080898D01*
X207652357Y-73080900D01*
X207473121Y-73206402D01*
X207318402Y-73361121D01*
X207192900Y-73540357D01*
X207192898Y-73540361D01*
X207100426Y-73738668D01*
X207100422Y-73738677D01*
X207043793Y-73950020D01*
X207043793Y-73950024D01*
X207024723Y-74167997D01*
X207024723Y-74168002D01*
X207043793Y-74385975D01*
X207043793Y-74385979D01*
X207100422Y-74597322D01*
X207100424Y-74597326D01*
X207100425Y-74597330D01*
X207146661Y-74696484D01*
X207192897Y-74795638D01*
X207192898Y-74795639D01*
X207318402Y-74974877D01*
X207473123Y-75129598D01*
X207652360Y-75255101D01*
X207652361Y-75255102D01*
X207803583Y-75325618D01*
X207856022Y-75371790D01*
X207875174Y-75438984D01*
X207854958Y-75505865D01*
X207803583Y-75550382D01*
X207652361Y-75620898D01*
X207652357Y-75620900D01*
X207473121Y-75746402D01*
X207318402Y-75901121D01*
X207192900Y-76080357D01*
X207192898Y-76080361D01*
X207100426Y-76278668D01*
X207100422Y-76278677D01*
X207043793Y-76490020D01*
X207043793Y-76490024D01*
X207024723Y-76707997D01*
X207024723Y-76708002D01*
X203200000Y-76708002D01*
X203200000Y-67029435D01*
X203219684Y-66962400D01*
X203272488Y-66916645D01*
X203341646Y-66906701D01*
X203405202Y-66935726D01*
X203411680Y-66941757D01*
X203459738Y-66989816D01*
X203612478Y-67085789D01*
X203782745Y-67145368D01*
X203782750Y-67145369D01*
X203961996Y-67165565D01*
X203962000Y-67165565D01*
X203962004Y-67165565D01*
X204141249Y-67145369D01*
X204141252Y-67145368D01*
X204141255Y-67145368D01*
X204311522Y-67085789D01*
X204464262Y-66989816D01*
X204591816Y-66862262D01*
X204687789Y-66709522D01*
X204747368Y-66539255D01*
X204767565Y-66360000D01*
X204747368Y-66180745D01*
X204687789Y-66010478D01*
X204591816Y-65857738D01*
X204464262Y-65730184D01*
X204415276Y-65699404D01*
X204311523Y-65634211D01*
X204141254Y-65574631D01*
X204141249Y-65574630D01*
X203962004Y-65554435D01*
X203961996Y-65554435D01*
X203782750Y-65574630D01*
X203782745Y-65574631D01*
X203612476Y-65634211D01*
X203459737Y-65730184D01*
X203411680Y-65778241D01*
X203350357Y-65811725D01*
X203280665Y-65806740D01*
X203224732Y-65764868D01*
X203200316Y-65699404D01*
X203200000Y-65690559D01*
X203200000Y-63624000D01*
X203219685Y-63556961D01*
X203272489Y-63511206D01*
X203324000Y-63500000D01*
X248796000Y-63500000D01*
X248863039Y-63519685D01*
G37*
G04 #@! TD.AperFunction*
M02*
