G04 #@! TF.GenerationSoftware,KiCad,Pcbnew,7.0.7-7.0.7~ubuntu22.04.1*
G04 #@! TF.CreationDate,2023-10-23T09:56:03+02:00*
G04 #@! TF.ProjectId,bitaxeUltra,62697461-7865-4556-9c74-72612e6b6963,rev?*
G04 #@! TF.SameCoordinates,Original*
G04 #@! TF.FileFunction,Copper,L1,Top*
G04 #@! TF.FilePolarity,Positive*
%FSLAX46Y46*%
G04 Gerber Fmt 4.6, Leading zero omitted, Abs format (unit mm)*
G04 Created by KiCad (PCBNEW 7.0.7-7.0.7~ubuntu22.04.1) date 2023-10-23 09:56:03*
%MOMM*%
%LPD*%
G01*
G04 APERTURE LIST*
G04 Aperture macros list*
%AMRoundRect*
0 Rectangle with rounded corners*
0 $1 Rounding radius*
0 $2 $3 $4 $5 $6 $7 $8 $9 X,Y pos of 4 corners*
0 Add a 4 corners polygon primitive as box body*
4,1,4,$2,$3,$4,$5,$6,$7,$8,$9,$2,$3,0*
0 Add four circle primitives for the rounded corners*
1,1,$1+$1,$2,$3*
1,1,$1+$1,$4,$5*
1,1,$1+$1,$6,$7*
1,1,$1+$1,$8,$9*
0 Add four rect primitives between the rounded corners*
20,1,$1+$1,$2,$3,$4,$5,0*
20,1,$1+$1,$4,$5,$6,$7,0*
20,1,$1+$1,$6,$7,$8,$9,0*
20,1,$1+$1,$8,$9,$2,$3,0*%
%AMFreePoly0*
4,1,5,0.500000,-2.250000,-0.500000,-2.250000,-0.500000,2.250000,0.500000,2.250000,0.500000,-2.250000,0.500000,-2.250000,$1*%
%AMFreePoly1*
4,1,19,0.550000,-0.750000,0.000000,-0.750000,0.000000,-0.744911,-0.071157,-0.744911,-0.207708,-0.704816,-0.327430,-0.627875,-0.420627,-0.520320,-0.479746,-0.390866,-0.500000,-0.250000,-0.500000,0.250000,-0.479746,0.390866,-0.420627,0.520320,-0.327430,0.627875,-0.207708,0.704816,-0.071157,0.744911,0.000000,0.744911,0.000000,0.750000,0.550000,0.750000,0.550000,-0.750000,0.550000,-0.750000,
$1*%
%AMFreePoly2*
4,1,19,0.000000,0.744911,0.071157,0.744911,0.207708,0.704816,0.327430,0.627875,0.420627,0.520320,0.479746,0.390866,0.500000,0.250000,0.500000,-0.250000,0.479746,-0.390866,0.420627,-0.520320,0.327430,-0.627875,0.207708,-0.704816,0.071157,-0.744911,0.000000,-0.744911,0.000000,-0.750000,-0.550000,-0.750000,-0.550000,0.750000,0.000000,0.750000,0.000000,0.744911,0.000000,0.744911,
$1*%
G04 Aperture macros list end*
G04 #@! TA.AperFunction,SMDPad,CuDef*
%ADD10RoundRect,0.250000X-0.450000X0.262500X-0.450000X-0.262500X0.450000X-0.262500X0.450000X0.262500X0*%
G04 #@! TD*
G04 #@! TA.AperFunction,SMDPad,CuDef*
%ADD11RoundRect,0.150000X0.150000X-0.587500X0.150000X0.587500X-0.150000X0.587500X-0.150000X-0.587500X0*%
G04 #@! TD*
G04 #@! TA.AperFunction,ComponentPad*
%ADD12R,1.700000X1.700000*%
G04 #@! TD*
G04 #@! TA.AperFunction,ComponentPad*
%ADD13O,1.700000X1.700000*%
G04 #@! TD*
G04 #@! TA.AperFunction,SMDPad,CuDef*
%ADD14RoundRect,0.150000X-0.512500X-0.150000X0.512500X-0.150000X0.512500X0.150000X-0.512500X0.150000X0*%
G04 #@! TD*
G04 #@! TA.AperFunction,SMDPad,CuDef*
%ADD15RoundRect,0.250000X0.262500X0.450000X-0.262500X0.450000X-0.262500X-0.450000X0.262500X-0.450000X0*%
G04 #@! TD*
G04 #@! TA.AperFunction,SMDPad,CuDef*
%ADD16RoundRect,0.250000X-0.475000X0.250000X-0.475000X-0.250000X0.475000X-0.250000X0.475000X0.250000X0*%
G04 #@! TD*
G04 #@! TA.AperFunction,SMDPad,CuDef*
%ADD17RoundRect,0.250000X0.450000X-0.262500X0.450000X0.262500X-0.450000X0.262500X-0.450000X-0.262500X0*%
G04 #@! TD*
G04 #@! TA.AperFunction,SMDPad,CuDef*
%ADD18RoundRect,0.250000X0.250000X0.475000X-0.250000X0.475000X-0.250000X-0.475000X0.250000X-0.475000X0*%
G04 #@! TD*
G04 #@! TA.AperFunction,SMDPad,CuDef*
%ADD19RoundRect,0.250000X1.250000X0.550000X-1.250000X0.550000X-1.250000X-0.550000X1.250000X-0.550000X0*%
G04 #@! TD*
G04 #@! TA.AperFunction,SMDPad,CuDef*
%ADD20FreePoly0,0.000000*%
G04 #@! TD*
G04 #@! TA.AperFunction,SMDPad,CuDef*
%ADD21R,3.500000X2.950000*%
G04 #@! TD*
G04 #@! TA.AperFunction,SMDPad,CuDef*
%ADD22RoundRect,0.250000X-0.325000X-0.650000X0.325000X-0.650000X0.325000X0.650000X-0.325000X0.650000X0*%
G04 #@! TD*
G04 #@! TA.AperFunction,SMDPad,CuDef*
%ADD23RoundRect,0.250000X-1.000000X-0.900000X1.000000X-0.900000X1.000000X0.900000X-1.000000X0.900000X0*%
G04 #@! TD*
G04 #@! TA.AperFunction,SMDPad,CuDef*
%ADD24RoundRect,0.250000X-0.625000X0.312500X-0.625000X-0.312500X0.625000X-0.312500X0.625000X0.312500X0*%
G04 #@! TD*
G04 #@! TA.AperFunction,SMDPad,CuDef*
%ADD25RoundRect,0.250000X0.325000X0.650000X-0.325000X0.650000X-0.325000X-0.650000X0.325000X-0.650000X0*%
G04 #@! TD*
G04 #@! TA.AperFunction,ComponentPad*
%ADD26R,2.030000X1.730000*%
G04 #@! TD*
G04 #@! TA.AperFunction,ComponentPad*
%ADD27O,2.030000X1.730000*%
G04 #@! TD*
G04 #@! TA.AperFunction,SMDPad,CuDef*
%ADD28RoundRect,0.150000X0.587500X0.150000X-0.587500X0.150000X-0.587500X-0.150000X0.587500X-0.150000X0*%
G04 #@! TD*
G04 #@! TA.AperFunction,SMDPad,CuDef*
%ADD29R,0.700000X0.700000*%
G04 #@! TD*
G04 #@! TA.AperFunction,SMDPad,CuDef*
%ADD30R,4.510000X4.350000*%
G04 #@! TD*
G04 #@! TA.AperFunction,SMDPad,CuDef*
%ADD31RoundRect,0.250000X-0.250000X-0.475000X0.250000X-0.475000X0.250000X0.475000X-0.250000X0.475000X0*%
G04 #@! TD*
G04 #@! TA.AperFunction,SMDPad,CuDef*
%ADD32C,2.000000*%
G04 #@! TD*
G04 #@! TA.AperFunction,SMDPad,CuDef*
%ADD33R,0.792000X0.221000*%
G04 #@! TD*
G04 #@! TA.AperFunction,SMDPad,CuDef*
%ADD34R,4.277000X1.810000*%
G04 #@! TD*
G04 #@! TA.AperFunction,SMDPad,CuDef*
%ADD35R,4.277000X4.530000*%
G04 #@! TD*
G04 #@! TA.AperFunction,SMDPad,CuDef*
%ADD36RoundRect,0.250000X-0.262500X-0.450000X0.262500X-0.450000X0.262500X0.450000X-0.262500X0.450000X0*%
G04 #@! TD*
G04 #@! TA.AperFunction,SMDPad,CuDef*
%ADD37RoundRect,0.250000X-1.500000X-1.000000X1.500000X-1.000000X1.500000X1.000000X-1.500000X1.000000X0*%
G04 #@! TD*
G04 #@! TA.AperFunction,SMDPad,CuDef*
%ADD38RoundRect,0.250000X-0.650000X0.325000X-0.650000X-0.325000X0.650000X-0.325000X0.650000X0.325000X0*%
G04 #@! TD*
G04 #@! TA.AperFunction,SMDPad,CuDef*
%ADD39RoundRect,0.250000X0.475000X-0.250000X0.475000X0.250000X-0.475000X0.250000X-0.475000X-0.250000X0*%
G04 #@! TD*
G04 #@! TA.AperFunction,SMDPad,CuDef*
%ADD40FreePoly1,180.000000*%
G04 #@! TD*
G04 #@! TA.AperFunction,SMDPad,CuDef*
%ADD41R,1.000000X1.500000*%
G04 #@! TD*
G04 #@! TA.AperFunction,SMDPad,CuDef*
%ADD42FreePoly2,180.000000*%
G04 #@! TD*
G04 #@! TA.AperFunction,ComponentPad*
%ADD43R,2.600000X2.600000*%
G04 #@! TD*
G04 #@! TA.AperFunction,ComponentPad*
%ADD44C,2.600000*%
G04 #@! TD*
G04 #@! TA.AperFunction,SMDPad,CuDef*
%ADD45R,4.245000X3.810000*%
G04 #@! TD*
G04 #@! TA.AperFunction,SMDPad,CuDef*
%ADD46R,0.280000X0.850000*%
G04 #@! TD*
G04 #@! TA.AperFunction,ComponentPad*
%ADD47C,0.600000*%
G04 #@! TD*
G04 #@! TA.AperFunction,SMDPad,CuDef*
%ADD48R,0.700000X0.280000*%
G04 #@! TD*
G04 #@! TA.AperFunction,SMDPad,CuDef*
%ADD49R,2.400000X1.650000*%
G04 #@! TD*
G04 #@! TA.AperFunction,ViaPad*
%ADD50C,0.800000*%
G04 #@! TD*
G04 #@! TA.AperFunction,Conductor*
%ADD51C,0.508000*%
G04 #@! TD*
G04 #@! TA.AperFunction,Conductor*
%ADD52C,0.254000*%
G04 #@! TD*
G04 APERTURE END LIST*
D10*
X204724000Y-72239500D03*
X204724000Y-74064500D03*
D11*
X175708000Y-75010700D03*
X177608000Y-75010700D03*
X176658000Y-73135700D03*
D12*
X208280000Y-79248000D03*
D13*
X208280000Y-76708000D03*
X208280000Y-74168000D03*
X208280000Y-71628000D03*
X208280000Y-69088000D03*
D14*
X200255500Y-85730000D03*
X200255500Y-86680000D03*
X200255500Y-87630000D03*
X202530500Y-87630000D03*
X202530500Y-85730000D03*
D15*
X183592200Y-78873800D03*
X181767200Y-78873800D03*
D16*
X185949314Y-76636937D03*
X185949314Y-78536937D03*
D15*
X177519700Y-71126800D03*
X175694700Y-71126800D03*
D17*
X198882000Y-65325000D03*
X198882000Y-63500000D03*
D18*
X186360800Y-71201337D03*
X184460800Y-71201337D03*
D19*
X191222200Y-97572300D03*
X186822200Y-97572300D03*
D20*
X197582000Y-91440000D03*
X198882000Y-91440000D03*
D10*
X184648800Y-67545637D03*
X184648800Y-69370637D03*
D21*
X192331700Y-85325400D03*
X192331700Y-90775400D03*
D10*
X186630000Y-67545637D03*
X186630000Y-69370637D03*
D22*
X180034500Y-90354600D03*
X182984500Y-90354600D03*
D23*
X187334000Y-103124000D03*
X191634000Y-103124000D03*
D24*
X179294514Y-77104837D03*
X179294514Y-80029837D03*
D10*
X178075314Y-67545637D03*
X178075314Y-69370637D03*
D25*
X187814100Y-92742200D03*
X184864100Y-92742200D03*
D15*
X201094250Y-70358000D03*
X199269250Y-70358000D03*
D10*
X180005714Y-67545637D03*
X180005714Y-69370637D03*
D15*
X201094250Y-75946000D03*
X199269250Y-75946000D03*
D16*
X204827500Y-82108000D03*
X204827500Y-84008000D03*
D26*
X192994000Y-76952000D03*
D27*
X192994000Y-74412000D03*
X192994000Y-71872000D03*
X192994000Y-69332000D03*
D12*
X181737000Y-60568000D03*
D13*
X181737000Y-58028000D03*
X184277000Y-60568000D03*
X184277000Y-58028000D03*
X186817000Y-60568000D03*
X186817000Y-58028000D03*
X189357000Y-60568000D03*
X189357000Y-58028000D03*
X191897000Y-60568000D03*
X191897000Y-58028000D03*
X194437000Y-60568000D03*
X194437000Y-58028000D03*
X196977000Y-60568000D03*
X196977000Y-58028000D03*
X199517000Y-60568000D03*
X199517000Y-58028000D03*
X202057000Y-60568000D03*
X202057000Y-58028000D03*
X204597000Y-60568000D03*
X204597000Y-58028000D03*
X207137000Y-60568000D03*
X207137000Y-58028000D03*
X209677000Y-60568000D03*
X209677000Y-58028000D03*
X212217000Y-60568000D03*
X212217000Y-58028000D03*
X214757000Y-60568000D03*
X214757000Y-58028000D03*
X217297000Y-60568000D03*
X217297000Y-58028000D03*
X219837000Y-60568000D03*
X219837000Y-58028000D03*
X222377000Y-60568000D03*
X222377000Y-58028000D03*
X224917000Y-60568000D03*
X224917000Y-58028000D03*
X227457000Y-60568000D03*
X227457000Y-58028000D03*
X229997000Y-60568000D03*
X229997000Y-58028000D03*
D28*
X202692000Y-79756000D03*
X202692000Y-77856000D03*
X200817000Y-78806000D03*
D29*
X182322200Y-82804800D03*
X181052200Y-82804800D03*
X179782200Y-82804800D03*
X178512200Y-82804800D03*
D30*
X180417200Y-85934800D03*
D29*
X182322200Y-88404800D03*
X181052200Y-88404800D03*
X179782200Y-88404800D03*
X178512200Y-88404800D03*
X184100200Y-88404800D03*
X185370200Y-88404800D03*
X186640200Y-88404800D03*
X187910200Y-88404800D03*
D30*
X186005200Y-85274800D03*
D29*
X184100200Y-82804800D03*
X185370200Y-82804800D03*
X186640200Y-82804800D03*
X187910200Y-82804800D03*
D31*
X181729700Y-80905800D03*
X183629700Y-80905800D03*
D16*
X179452000Y-73123200D03*
X179452000Y-75023200D03*
X198091000Y-85730000D03*
X198091000Y-87630000D03*
D10*
X182118000Y-104497500D03*
X182118000Y-106322500D03*
D16*
X198223500Y-82108000D03*
X198223500Y-84008000D03*
D32*
X192786000Y-94488000D03*
D33*
X235263000Y-86997000D03*
X235263000Y-86495000D03*
X235263000Y-85993000D03*
X235263000Y-85491000D03*
X235263000Y-84989000D03*
X235263000Y-84487000D03*
X235263000Y-83985000D03*
X235263000Y-83483000D03*
X235263000Y-82981000D03*
X235263000Y-82479000D03*
X235263000Y-81977000D03*
X235263000Y-81475000D03*
X235263000Y-80973000D03*
X235263000Y-80471000D03*
X229431000Y-80484000D03*
X229431000Y-80984000D03*
X229431000Y-81484000D03*
X229431000Y-81984000D03*
X229431000Y-82484000D03*
X229431000Y-82981000D03*
X229431000Y-83484000D03*
X229431000Y-83985000D03*
X229431000Y-84487000D03*
X229431000Y-84989000D03*
X229431000Y-85491000D03*
X229431000Y-85984000D03*
X229431000Y-86495000D03*
X229431000Y-86984000D03*
D34*
X232347000Y-86202000D03*
D35*
X232347000Y-82626000D03*
D36*
X201017500Y-64516000D03*
X202842500Y-64516000D03*
D37*
X176374200Y-98552000D03*
X182874200Y-98552000D03*
D17*
X196850000Y-65278000D03*
X196850000Y-63453000D03*
D38*
X182372000Y-107999000D03*
X182372000Y-110949000D03*
D16*
X204695000Y-85730000D03*
X204695000Y-87630000D03*
D39*
X181936114Y-69408137D03*
X181936114Y-67508137D03*
D40*
X194200000Y-80500000D03*
D41*
X192900000Y-80500000D03*
D42*
X191600000Y-80500000D03*
D22*
X180034500Y-92742200D03*
X182984500Y-92742200D03*
D25*
X187814100Y-90354600D03*
X184864100Y-90354600D03*
D12*
X208280000Y-86868000D03*
D13*
X208280000Y-84328000D03*
X208280000Y-81788000D03*
D43*
X199898000Y-96616000D03*
D44*
X199898000Y-102616000D03*
X204598000Y-99616000D03*
D45*
X186157000Y-108204000D03*
X192532000Y-108204000D03*
D28*
X202789000Y-74102000D03*
X202789000Y-72202000D03*
X200914000Y-73152000D03*
D14*
X200388000Y-82108000D03*
X200388000Y-83058000D03*
X200388000Y-84008000D03*
X202663000Y-84008000D03*
X202663000Y-82108000D03*
D46*
X183701714Y-73259537D03*
X183201714Y-73259537D03*
X182701714Y-73259537D03*
X182201714Y-73259537D03*
X181701714Y-73259537D03*
X181701714Y-76209537D03*
X182201714Y-76209537D03*
X182701714Y-76209537D03*
X183201714Y-76209537D03*
X183701714Y-76209537D03*
D47*
X183561714Y-74254537D03*
X181841714Y-74254537D03*
D48*
X184251714Y-74484537D03*
X181151714Y-74484537D03*
D47*
X182701714Y-74734537D03*
D49*
X182701714Y-74734537D03*
D48*
X184251714Y-74984537D03*
X181151714Y-74984537D03*
D47*
X183561714Y-75214537D03*
X181841714Y-75214537D03*
D28*
X202867500Y-68260000D03*
X202867500Y-66360000D03*
X200992500Y-67310000D03*
D18*
X182190114Y-71201337D03*
X180290114Y-71201337D03*
D10*
X204724000Y-77827500D03*
X204724000Y-79652500D03*
D16*
X185949314Y-73146937D03*
X185949314Y-75046937D03*
D10*
X204978000Y-66397500D03*
X204978000Y-68222500D03*
D50*
X242000000Y-99000000D03*
X186005200Y-89762800D03*
X240000000Y-71000000D03*
X236205209Y-77901612D03*
X224000000Y-109000000D03*
X214000000Y-87000000D03*
X220000000Y-107000000D03*
X186005200Y-92762800D03*
X233934000Y-83362800D03*
X252000000Y-109000000D03*
X240000000Y-95000000D03*
X190000000Y-67000000D03*
X231902000Y-83362800D03*
X218000000Y-103000000D03*
X246000000Y-73000000D03*
X181755200Y-89762800D03*
X230886000Y-83362800D03*
X186005200Y-93762800D03*
X184000000Y-95000000D03*
X206000000Y-103000000D03*
X246000000Y-79000000D03*
X240792000Y-84201000D03*
X231902000Y-80568800D03*
X181039970Y-79135647D03*
X242000000Y-89000000D03*
X218000000Y-77000000D03*
X210000000Y-101000000D03*
X250000000Y-93000000D03*
X232918000Y-80568800D03*
X208000000Y-67000000D03*
X228000000Y-105000000D03*
X232000000Y-59000000D03*
X240000000Y-65000000D03*
X256000000Y-101000000D03*
X238000000Y-103000000D03*
X228000000Y-63000000D03*
X224000000Y-71000000D03*
X228000000Y-69000000D03*
X231902000Y-81889600D03*
X232918000Y-83362800D03*
X181755200Y-90762800D03*
X252000000Y-81000000D03*
X242000000Y-61000000D03*
X242000000Y-105000000D03*
X242000000Y-75000000D03*
X232308400Y-78892400D03*
X256000000Y-95000000D03*
X224000000Y-103000000D03*
X178308000Y-66548000D03*
X236000000Y-63000000D03*
X250000000Y-77000000D03*
X203962000Y-66360000D03*
X232000000Y-71000000D03*
X216000000Y-65000000D03*
X244000000Y-85000000D03*
X224000000Y-65000000D03*
X226517200Y-96316800D03*
X230886000Y-81889600D03*
X244348000Y-82484000D03*
X244000000Y-93000000D03*
X212000000Y-83000000D03*
X230886000Y-80568800D03*
X232000000Y-65000000D03*
X182118000Y-109728000D03*
X236000000Y-69000000D03*
X236000000Y-93000000D03*
X256000000Y-79000000D03*
X194000000Y-105000000D03*
X220000000Y-63000000D03*
X230000000Y-109000000D03*
X180000000Y-107000000D03*
X228854000Y-96316800D03*
X186005200Y-90762800D03*
X178436000Y-71126800D03*
X200000000Y-105000000D03*
X252000000Y-97000000D03*
X254000000Y-91000000D03*
X176000000Y-79000000D03*
X254000000Y-75000000D03*
X201525500Y-83058000D03*
X186005200Y-91762800D03*
X233934000Y-80568800D03*
X252000000Y-65000000D03*
X233578400Y-96316800D03*
X233934000Y-81889600D03*
X212000000Y-105000000D03*
X212000000Y-63000000D03*
X254000000Y-69000000D03*
X244000000Y-67000000D03*
X244000000Y-109000000D03*
X232000000Y-101000000D03*
X248000000Y-83000000D03*
X220000000Y-95000000D03*
X248000000Y-89000000D03*
X180000000Y-65000000D03*
X193548000Y-103124000D03*
X177267600Y-76105200D03*
X176000000Y-63000000D03*
X234000000Y-105000000D03*
X252000000Y-59000000D03*
X188000000Y-73000000D03*
X248000000Y-107000000D03*
X232918000Y-81889600D03*
X248000000Y-63000000D03*
X256000000Y-85000000D03*
X203557500Y-86614000D03*
X220000000Y-87000000D03*
X256000000Y-107000000D03*
X228472036Y-77890343D03*
X218000000Y-83000000D03*
X214000000Y-109000000D03*
X199239500Y-86614000D03*
X202000000Y-101000000D03*
X181755200Y-91762800D03*
X206000000Y-63000000D03*
X208000000Y-97000000D03*
X202000000Y-109000000D03*
X181755200Y-93762800D03*
X201525500Y-86614000D03*
X222000000Y-99000000D03*
X238000000Y-109000000D03*
X231241600Y-96316800D03*
X252000000Y-103000000D03*
X212000000Y-95000000D03*
X246000000Y-59000000D03*
X203811500Y-83058000D03*
X216000000Y-97000000D03*
X204000000Y-95000000D03*
X252000000Y-87000000D03*
X181755200Y-92762800D03*
X220000000Y-69000000D03*
X228000000Y-99000000D03*
X246000000Y-103000000D03*
X185970921Y-79351268D03*
X238000000Y-59000000D03*
X246000000Y-97000000D03*
X199268711Y-83028789D03*
X188000000Y-79000000D03*
X236000000Y-99000000D03*
X212000000Y-69000000D03*
X250000000Y-71000000D03*
X206000000Y-74168000D03*
X206031502Y-82107998D03*
X243332000Y-79502000D03*
X203811500Y-64516000D03*
X224028000Y-84201000D03*
X241808000Y-79502000D03*
X205843500Y-79756000D03*
X230073200Y-77978000D03*
X234600000Y-78100000D03*
X237236000Y-85852000D03*
X240919000Y-86106000D03*
X237236000Y-88011000D03*
X236474000Y-89027000D03*
X233629200Y-93319600D03*
X228904800Y-93319600D03*
X230886000Y-87833200D03*
X231902000Y-87833200D03*
X226517200Y-93268800D03*
X232918000Y-86868000D03*
X233934000Y-86868000D03*
X233934000Y-87833200D03*
X231241600Y-93319600D03*
X230886000Y-86868000D03*
X231902000Y-86868000D03*
X232918000Y-87833200D03*
X228727000Y-88138000D03*
X227584000Y-88138000D03*
X224028000Y-86106000D03*
X227711000Y-86106000D03*
X196699500Y-85852000D03*
X197207500Y-82108000D03*
X199493500Y-88138004D03*
X201271500Y-84074000D03*
X228193600Y-80060844D03*
X236982000Y-80060800D03*
X238316028Y-82813879D03*
X237295975Y-84186015D03*
X197104000Y-66294000D03*
X198397142Y-70363153D03*
X198374000Y-75946000D03*
X195326000Y-70358000D03*
X198882000Y-66294000D03*
X237032800Y-81026000D03*
X227914061Y-81123655D03*
X227711000Y-84074000D03*
X183337536Y-71318611D03*
X175768000Y-69850000D03*
X183389000Y-77248200D03*
X188519800Y-88322600D03*
X181966600Y-77248200D03*
X178461400Y-82074200D03*
X183551503Y-72246155D03*
X178334400Y-73108000D03*
X177200000Y-84300000D03*
X184900000Y-101900000D03*
X184700000Y-73259537D03*
X191200000Y-81500000D03*
X185674000Y-67545637D03*
X189484000Y-90354600D03*
X199307706Y-62655706D03*
X227888800Y-82600800D03*
D51*
X199239500Y-86614000D02*
X199173500Y-86680000D01*
X200255500Y-86680000D02*
X199305500Y-86680000D01*
X201525500Y-83058000D02*
X203811500Y-83058000D01*
X200388000Y-83058000D02*
X201525500Y-83058000D01*
X199202711Y-83028789D02*
X199268711Y-83028789D01*
X182984500Y-92742200D02*
X184864100Y-92742200D01*
X179452000Y-75023200D02*
X181113051Y-75023200D01*
X203557500Y-86614000D02*
X203623500Y-86680000D01*
X178075314Y-66780686D02*
X178308000Y-66548000D01*
X177519700Y-71126800D02*
X178436000Y-71126800D01*
X203491500Y-86680000D02*
X203557500Y-86614000D01*
X199297922Y-83058000D02*
X199268711Y-83028789D01*
X182372000Y-109982000D02*
X182118000Y-109728000D01*
X181301817Y-78873800D02*
X181039970Y-79135647D01*
X199041000Y-86680000D02*
X198091000Y-87630000D01*
X199305500Y-86680000D02*
X199239500Y-86614000D01*
X185949314Y-79329661D02*
X185970921Y-79351268D01*
X203623500Y-86680000D02*
X203745000Y-86680000D01*
D52*
X204940500Y-66360000D02*
X204978000Y-66397500D01*
D51*
X185172600Y-88392000D02*
X186436000Y-88392000D01*
X203745000Y-86680000D02*
X204695000Y-87630000D01*
X183874300Y-88392000D02*
X185172600Y-88392000D01*
X200388000Y-83058000D02*
X199297922Y-83058000D01*
X201591500Y-86680000D02*
X203491500Y-86680000D01*
X200255500Y-86680000D02*
X201459500Y-86680000D01*
X183729314Y-75046937D02*
X183561714Y-75214537D01*
X181767200Y-78873800D02*
X181301817Y-78873800D01*
X199173500Y-86680000D02*
X199041000Y-86680000D01*
X184864100Y-88700500D02*
X185172600Y-88392000D01*
X178075314Y-67545637D02*
X178075314Y-66780686D01*
X182372000Y-110695000D02*
X182372000Y-109982000D01*
X203811500Y-83058000D02*
X203877500Y-83058000D01*
X185949314Y-75046937D02*
X183729314Y-75046937D01*
X181113051Y-75023200D02*
X181151714Y-74984537D01*
X177608000Y-75010700D02*
X177608000Y-75764800D01*
X177608000Y-75764800D02*
X177267600Y-76105200D01*
X185949314Y-78536937D02*
X185949314Y-79329661D01*
X182984500Y-90354600D02*
X184864100Y-90354600D01*
X184864100Y-90354600D02*
X184864100Y-88700500D01*
X184864100Y-92742200D02*
X184864100Y-90354600D01*
X198223500Y-84008000D02*
X199202711Y-83028789D01*
X203877500Y-83058000D02*
X204827500Y-84008000D01*
X201525500Y-86614000D02*
X201591500Y-86680000D01*
D52*
X202867500Y-66360000D02*
X204940500Y-66360000D01*
D51*
X201459500Y-86680000D02*
X201525500Y-86614000D01*
X204827500Y-82108000D02*
X206031500Y-82108000D01*
D52*
X202692000Y-79756000D02*
X204620500Y-79756000D01*
X204724000Y-74064500D02*
X205896500Y-74064500D01*
X205896500Y-74064500D02*
X206000000Y-74168000D01*
X204686500Y-74102000D02*
X204724000Y-74064500D01*
X204620500Y-79756000D02*
X204724000Y-79652500D01*
X229431000Y-80484000D02*
X229431000Y-78620200D01*
X205740000Y-79652500D02*
X205843500Y-79756000D01*
D51*
X202842500Y-64516000D02*
X203811500Y-64516000D01*
D52*
X229431000Y-78620200D02*
X230073200Y-77978000D01*
X235263000Y-80471000D02*
X235263000Y-78763000D01*
D51*
X206031500Y-82108000D02*
X206031502Y-82107998D01*
X202663000Y-82108000D02*
X204827500Y-82108000D01*
D52*
X202789000Y-74102000D02*
X204686500Y-74102000D01*
X204724000Y-79652500D02*
X205740000Y-79652500D01*
X235263000Y-78763000D02*
X234600000Y-78100000D01*
X236875000Y-85491000D02*
X237236000Y-85852000D01*
X235263000Y-85491000D02*
X236875000Y-85491000D01*
X240493600Y-86531400D02*
X240919000Y-86106000D01*
X236954583Y-86531400D02*
X240493600Y-86531400D01*
X235263000Y-85993000D02*
X236416183Y-85993000D01*
X236416183Y-85993000D02*
X236954583Y-86531400D01*
X237236000Y-87818000D02*
X237236000Y-88011000D01*
X235263000Y-86495000D02*
X235913000Y-86495000D01*
X235913000Y-86495000D02*
X237236000Y-87818000D01*
X235263000Y-87816000D02*
X236474000Y-89027000D01*
X235263000Y-86997000D02*
X235263000Y-87816000D01*
X229431000Y-87434000D02*
X228727000Y-88138000D01*
X229431000Y-86984000D02*
X229431000Y-87434000D01*
X228973000Y-86495000D02*
X227584000Y-87884000D01*
X227584000Y-87884000D02*
X227584000Y-88138000D01*
X229431000Y-86495000D02*
X228973000Y-86495000D01*
X229431000Y-85984000D02*
X228909264Y-85984000D01*
X228909264Y-85984000D02*
X228025264Y-86868000D01*
X224790000Y-86868000D02*
X224028000Y-86106000D01*
X228025264Y-86868000D02*
X224790000Y-86868000D01*
X229431000Y-85491000D02*
X228326000Y-85491000D01*
X228326000Y-85491000D02*
X227711000Y-86106000D01*
D51*
X195599500Y-80500000D02*
X197207500Y-82108000D01*
X194200000Y-80500000D02*
X195599500Y-80500000D01*
X198091000Y-85730000D02*
X196821500Y-85730000D01*
X198091000Y-85730000D02*
X200255500Y-85730000D01*
X201205500Y-84008000D02*
X201271500Y-84074000D01*
X200388000Y-84008000D02*
X201205500Y-84008000D01*
X196821500Y-85730000D02*
X196699500Y-85852000D01*
X199747496Y-88138004D02*
X199493500Y-88138004D01*
X200255500Y-87630000D02*
X199747496Y-88138004D01*
X198223500Y-82108000D02*
X200388000Y-82108000D01*
X202530500Y-85730000D02*
X204695000Y-85730000D01*
D52*
X229431000Y-80984000D02*
X228781000Y-80984000D01*
D51*
X206502000Y-86868000D02*
X206502000Y-87602800D01*
D52*
X236069800Y-80973000D02*
X236982000Y-80060800D01*
D51*
X204695000Y-85730000D02*
X205364000Y-85730000D01*
X237337600Y-79705200D02*
X236982000Y-80060800D01*
X206502000Y-87602800D02*
X207291200Y-88392000D01*
D52*
X228193600Y-80396600D02*
X228193600Y-80060844D01*
D51*
X205364000Y-85730000D02*
X206502000Y-86868000D01*
X227584000Y-76301600D02*
X236169200Y-76301600D01*
X221691200Y-76301600D02*
X227584000Y-76301600D01*
X236169200Y-76301600D02*
X237337600Y-77470000D01*
X227584000Y-76301600D02*
X227584000Y-79451244D01*
X237337600Y-77470000D02*
X237337600Y-79705200D01*
X207291200Y-88392000D02*
X209600800Y-88392000D01*
D52*
X228781000Y-80984000D02*
X228193600Y-80396600D01*
D51*
X227584000Y-79451244D02*
X228193600Y-80060844D01*
D52*
X235263000Y-80973000D02*
X236069800Y-80973000D01*
D51*
X209600800Y-88392000D02*
X221691200Y-76301600D01*
D52*
X239572800Y-80240689D02*
X239572800Y-77657264D01*
X204695500Y-77856000D02*
X204724000Y-77827500D01*
X202692000Y-77856000D02*
X204695500Y-77856000D01*
X237088808Y-82694200D02*
X237264808Y-82518200D01*
X238525000Y-81288489D02*
X239572800Y-80240689D01*
X236870935Y-74955399D02*
X210032601Y-74955399D01*
X236296999Y-82981000D02*
X236583801Y-82694200D01*
X239572800Y-77657264D02*
X236870935Y-74955399D01*
X236583801Y-82694200D02*
X237088808Y-82694200D01*
X238525000Y-81644089D02*
X238525000Y-81288489D01*
X204724000Y-77827500D02*
X205843500Y-76708000D01*
X237264808Y-82518200D02*
X237650889Y-82518200D01*
X235263000Y-82981000D02*
X236296999Y-82981000D01*
X210032601Y-74955399D02*
X208280000Y-76708000D01*
X205843500Y-76708000D02*
X208280000Y-76708000D01*
X237650889Y-82518200D02*
X238525000Y-81644089D01*
X238482123Y-83507000D02*
X238495844Y-83493279D01*
X238495844Y-83493279D02*
X238597445Y-83493279D01*
X236778800Y-74168000D02*
X208280000Y-74168000D01*
X206351500Y-72239500D02*
X204724000Y-72239500D01*
X236920473Y-83507000D02*
X238482123Y-83507000D01*
X239979200Y-77368400D02*
X236778800Y-74168000D01*
X204686500Y-72202000D02*
X204724000Y-72239500D01*
X236442472Y-83985000D02*
X236920473Y-83507000D01*
X208280000Y-74168000D02*
X206351500Y-72239500D01*
X202789000Y-72202000D02*
X204686500Y-72202000D01*
X238597445Y-83493279D02*
X239979200Y-82111524D01*
X235263000Y-83985000D02*
X236442472Y-83985000D01*
X239979200Y-82111524D02*
X239979200Y-77368400D01*
X209152000Y-72500000D02*
X208280000Y-71628000D01*
X240385600Y-82279860D02*
X240385600Y-77165200D01*
X235720400Y-72500000D02*
X209152000Y-72500000D01*
X207150600Y-68617100D02*
X207150600Y-70498600D01*
X240385600Y-77165200D02*
X235720400Y-72500000D01*
X235263000Y-84989000D02*
X237676460Y-84989000D01*
X205843500Y-67310000D02*
X207150600Y-68617100D01*
X201017500Y-67285000D02*
X200992500Y-67310000D01*
X205843500Y-67310000D02*
X200992500Y-67310000D01*
X201017500Y-64516000D02*
X201017500Y-67285000D01*
X207150600Y-70498600D02*
X208280000Y-71628000D01*
X237676460Y-84989000D02*
X240385600Y-82279860D01*
X237929946Y-82813879D02*
X238316028Y-82813879D01*
X236369736Y-83483000D02*
X236752137Y-83100600D01*
X237819225Y-82924600D02*
X237929946Y-82813879D01*
X237433144Y-82924600D02*
X237819225Y-82924600D01*
X237257144Y-83100600D02*
X237433144Y-82924600D01*
X235263000Y-83483000D02*
X236369736Y-83483000D01*
X236752137Y-83100600D02*
X237257144Y-83100600D01*
X235263000Y-84487000D02*
X236994990Y-84487000D01*
X236994990Y-84487000D02*
X237295975Y-84186015D01*
X236920472Y-82287800D02*
X237096472Y-82111800D01*
X214706201Y-75361799D02*
X208280000Y-81788000D01*
X237096472Y-82111800D02*
X237482553Y-82111800D01*
X236224266Y-82479000D02*
X236415466Y-82287800D01*
X236415466Y-82287800D02*
X236920472Y-82287800D01*
X238118600Y-81475753D02*
X238118600Y-81069353D01*
X236702599Y-75361799D02*
X214706201Y-75361799D01*
X239064800Y-77724000D02*
X236702599Y-75361799D01*
X237482553Y-82111800D02*
X238118600Y-81475753D01*
X239064800Y-80123153D02*
X239064800Y-77724000D01*
X238118600Y-81069353D02*
X239064800Y-80123153D01*
X235263000Y-82479000D02*
X236224266Y-82479000D01*
X236928136Y-81705400D02*
X237314217Y-81705400D01*
X237712200Y-81307417D02*
X237712200Y-80850217D01*
X235263000Y-81977000D02*
X235358600Y-81881400D01*
X238607600Y-79954817D02*
X238607600Y-77841536D01*
X216839801Y-75768199D02*
X208280000Y-84328000D01*
X238607600Y-77841536D02*
X236534263Y-75768199D01*
X236534263Y-75768199D02*
X216839801Y-75768199D01*
X235263000Y-81977000D02*
X235777000Y-81977000D01*
X237314217Y-81705400D02*
X237712200Y-81307417D01*
X236752136Y-81881400D02*
X236928136Y-81705400D01*
X237712200Y-80850217D02*
X238607600Y-79954817D01*
X235358600Y-81881400D02*
X236752136Y-81881400D01*
D51*
X198402295Y-70358000D02*
X198397142Y-70363153D01*
D52*
X198882000Y-65325000D02*
X198882000Y-66294000D01*
D51*
X197104000Y-66294000D02*
X197104000Y-65278000D01*
X199269250Y-70358000D02*
X198402295Y-70358000D01*
X199269250Y-75946000D02*
X198374000Y-75946000D01*
D52*
X236583800Y-81475000D02*
X237032800Y-81026000D01*
X235263000Y-81475000D02*
X236583800Y-81475000D01*
X229431000Y-81484000D02*
X228274406Y-81484000D01*
X228274406Y-81484000D02*
X227914061Y-81123655D01*
X229431000Y-83985000D02*
X227800000Y-83985000D01*
X227800000Y-83985000D02*
X227711000Y-84074000D01*
X202867500Y-68260000D02*
X200597737Y-68260000D01*
X204940500Y-68260000D02*
X204978000Y-68222500D01*
X200367000Y-62777000D02*
X200367000Y-61418000D01*
X200367000Y-61418000D02*
X199517000Y-60568000D01*
X200152000Y-66805737D02*
X200152000Y-62992000D01*
X200597737Y-68260000D02*
X199975600Y-67637863D01*
X202867500Y-68260000D02*
X204940500Y-68260000D01*
X199975600Y-67637863D02*
X199975600Y-66982137D01*
X199975600Y-66982137D02*
X200152000Y-66805737D01*
X200152000Y-62992000D02*
X200367000Y-62777000D01*
X196977000Y-63326000D02*
X197104000Y-63453000D01*
X182969514Y-71895622D02*
X182701714Y-72163422D01*
X182969514Y-71686633D02*
X182969514Y-71895622D01*
X183337536Y-71318611D02*
X182969514Y-71686633D01*
X182701714Y-72163422D02*
X182701714Y-73259537D01*
X196977000Y-60568000D02*
X196977000Y-63326000D01*
D51*
X175708000Y-75010700D02*
X175708000Y-71140100D01*
X175694700Y-69923300D02*
X175768000Y-69850000D01*
X175694700Y-71126800D02*
X175694700Y-69923300D01*
X175708000Y-71140100D02*
X175694700Y-71126800D01*
D52*
X193307600Y-65994522D02*
X196401078Y-69088000D01*
X200914000Y-70461500D02*
X200914000Y-73152000D01*
X191897000Y-58028000D02*
X193307600Y-59438600D01*
X201017500Y-70358000D02*
X200914000Y-70461500D01*
X199824250Y-69088000D02*
X201094250Y-70358000D01*
X193307600Y-59438600D02*
X193307600Y-65994522D01*
X196401078Y-69088000D02*
X199824250Y-69088000D01*
X190767600Y-64029258D02*
X198907400Y-72169058D01*
X201017500Y-78605500D02*
X200817000Y-78806000D01*
X198907401Y-73759151D02*
X201094250Y-75946000D01*
X201017500Y-75946000D02*
X201017500Y-78605500D01*
X190767600Y-59438600D02*
X190767600Y-64029258D01*
X200668065Y-78806000D02*
X200817000Y-78806000D01*
X198907400Y-72169058D02*
X198907401Y-73759151D01*
X189357000Y-58028000D02*
X190767600Y-59438600D01*
D51*
X182679700Y-80778800D02*
X182679700Y-79602090D01*
X179766687Y-82887000D02*
X181030087Y-82887000D01*
X181030087Y-82887000D02*
X182328387Y-82887000D01*
X182806700Y-80905800D02*
X182679700Y-80778800D01*
X183629700Y-80905800D02*
X182806700Y-80905800D01*
D52*
X182701714Y-76209537D02*
X182701714Y-79580076D01*
D51*
X182328387Y-82887000D02*
X182679700Y-82535687D01*
D52*
X182701714Y-79580076D02*
X182679700Y-79602090D01*
D51*
X182679700Y-82535687D02*
X182679700Y-80778800D01*
X183465200Y-78746800D02*
X183465200Y-77324400D01*
D52*
X183201714Y-76209537D02*
X183201714Y-77197400D01*
D51*
X183592200Y-78873800D02*
X183465200Y-78746800D01*
X183465200Y-77324400D02*
X183389000Y-77248200D01*
D52*
X187803700Y-88322600D02*
X187734300Y-88392000D01*
X183338200Y-77197400D02*
X183389000Y-77248200D01*
X188519800Y-88322600D02*
X187803700Y-88322600D01*
X183201714Y-77197400D02*
X183338200Y-77197400D01*
X178461400Y-82074200D02*
X178461400Y-82880013D01*
X178461400Y-82880013D02*
X178468387Y-82887000D01*
X182201714Y-76209537D02*
X182201714Y-77013086D01*
X182201714Y-77013086D02*
X181966600Y-77248200D01*
X183201714Y-72580537D02*
X183536096Y-72246155D01*
X183536096Y-72246155D02*
X183551503Y-72246155D01*
D51*
X176658000Y-73135700D02*
X178306700Y-73135700D01*
D52*
X178334400Y-73108000D02*
X179436800Y-73108000D01*
D51*
X178306700Y-73135700D02*
X178334400Y-73108000D01*
D52*
X179436800Y-73108000D02*
X179452000Y-73123200D01*
X183201714Y-73259537D02*
X183201714Y-72580537D01*
X182201714Y-71212937D02*
X182190114Y-71201337D01*
D51*
X182190114Y-71201337D02*
X182190114Y-69662137D01*
D52*
X182201714Y-73259537D02*
X182201714Y-71212937D01*
D51*
X182190114Y-69662137D02*
X181936114Y-69408137D01*
X180005714Y-69370637D02*
X180874614Y-68501737D01*
X180290114Y-71201337D02*
X180290114Y-69655037D01*
X184460800Y-71201337D02*
X184460800Y-69558637D01*
X180290114Y-69655037D02*
X180005714Y-69370637D01*
X178075314Y-69370637D02*
X180005714Y-69370637D01*
X184460800Y-69558637D02*
X184648800Y-69370637D01*
X183779901Y-68501737D02*
X184648800Y-69370637D01*
D52*
X181701714Y-72612937D02*
X180290114Y-71201337D01*
X181701714Y-73259537D02*
X181701714Y-72612937D01*
D51*
X180874614Y-68501737D02*
X183779901Y-68501737D01*
X181898614Y-67545637D02*
X181936114Y-67508137D01*
X180005714Y-67545637D02*
X181898614Y-67545637D01*
X186360800Y-71201337D02*
X186360800Y-69639837D01*
X186360800Y-69639837D02*
X186630000Y-69370637D01*
X179294514Y-80029837D02*
X179276100Y-80048251D01*
X180170477Y-80905800D02*
X179294514Y-80029837D01*
X181729700Y-80905800D02*
X180170477Y-80905800D01*
D52*
X183701714Y-73259537D02*
X184700000Y-73259537D01*
D51*
X180417200Y-85934800D02*
X178834800Y-85934800D01*
X191600000Y-81100000D02*
X191200000Y-81500000D01*
X191600000Y-80500000D02*
X191600000Y-81100000D01*
X178834800Y-85934800D02*
X177200000Y-84300000D01*
X180034500Y-92742200D02*
X180034500Y-90354600D01*
D52*
X184700000Y-73259537D02*
X185836714Y-73259537D01*
X185836714Y-73259537D02*
X185949314Y-73146937D01*
D51*
X184648800Y-67545637D02*
X185674000Y-67545637D01*
X187814100Y-92742200D02*
X187814100Y-90354600D01*
X185674000Y-67545637D02*
X186630000Y-67545637D01*
X191910900Y-90354600D02*
X192331700Y-90775400D01*
X187814100Y-90354600D02*
X191910900Y-90354600D01*
X182118000Y-106068500D02*
X182118000Y-107491000D01*
X182118000Y-107491000D02*
X182372000Y-107745000D01*
D52*
X198882000Y-63081412D02*
X199307706Y-62655706D01*
X198882000Y-63500000D02*
X198882000Y-63081412D01*
X228505600Y-81984000D02*
X227888800Y-82600800D01*
X229431000Y-81984000D02*
X228505600Y-81984000D01*
D51*
X192900000Y-79550800D02*
X191300000Y-77950800D01*
X192788000Y-74412000D02*
X192994000Y-74412000D01*
X192900000Y-80500000D02*
X192900000Y-79550800D01*
X191300000Y-77950800D02*
X191300000Y-75900000D01*
X191300000Y-75900000D02*
X192788000Y-74412000D01*
G04 #@! TA.AperFunction,Conductor*
G36*
X178654247Y-73938067D02*
G01*
X178716602Y-73974944D01*
X178742097Y-73982351D01*
X178874426Y-74020797D01*
X178874429Y-74020797D01*
X178874431Y-74020798D01*
X178886722Y-74021765D01*
X178911304Y-74023700D01*
X178911306Y-74023700D01*
X179992696Y-74023700D01*
X180011131Y-74022249D01*
X180029569Y-74020798D01*
X180029571Y-74020797D01*
X180029573Y-74020797D01*
X180071191Y-74008705D01*
X180187398Y-73974944D01*
X180249752Y-73938067D01*
X180312873Y-73920800D01*
X181180223Y-73920800D01*
X181247262Y-73940485D01*
X181267899Y-73957114D01*
X181323372Y-74012587D01*
X181391769Y-74047437D01*
X181436412Y-74070184D01*
X181530189Y-74085036D01*
X181530195Y-74085037D01*
X181873232Y-74085036D01*
X181873234Y-74085036D01*
X181890379Y-74082320D01*
X181932317Y-74075678D01*
X181971108Y-74075678D01*
X182030195Y-74085037D01*
X182373232Y-74085036D01*
X182373234Y-74085036D01*
X182390379Y-74082320D01*
X182432317Y-74075678D01*
X182471108Y-74075678D01*
X182530195Y-74085037D01*
X182873232Y-74085036D01*
X182873234Y-74085036D01*
X182890379Y-74082320D01*
X182932317Y-74075678D01*
X182971108Y-74075678D01*
X183030195Y-74085037D01*
X183373232Y-74085036D01*
X183373234Y-74085036D01*
X183390379Y-74082320D01*
X183432317Y-74075678D01*
X183471108Y-74075678D01*
X183530195Y-74085037D01*
X183873232Y-74085036D01*
X183967018Y-74070183D01*
X184080056Y-74012587D01*
X184131222Y-73961420D01*
X184192546Y-73927934D01*
X184262238Y-73932918D01*
X184284877Y-73944107D01*
X184350473Y-73985324D01*
X184350477Y-73985325D01*
X184350478Y-73985326D01*
X184451851Y-74020798D01*
X184520745Y-74044905D01*
X184520750Y-74044906D01*
X184699996Y-74065102D01*
X184700000Y-74065102D01*
X184700004Y-74065102D01*
X184879249Y-74044906D01*
X184879252Y-74044905D01*
X184879255Y-74044905D01*
X185049522Y-73985326D01*
X185054258Y-73982349D01*
X185121489Y-73963345D01*
X185183355Y-73980607D01*
X185213916Y-73998681D01*
X185239225Y-74006034D01*
X185371740Y-74044534D01*
X185371743Y-74044534D01*
X185371745Y-74044535D01*
X185384036Y-74045502D01*
X185408618Y-74047437D01*
X185408620Y-74047437D01*
X186490010Y-74047437D01*
X186508445Y-74045986D01*
X186526883Y-74044535D01*
X186526885Y-74044534D01*
X186526887Y-74044534D01*
X186659405Y-74006034D01*
X186729274Y-74006233D01*
X186787944Y-74044175D01*
X186816788Y-74107813D01*
X186818000Y-74125110D01*
X186818000Y-75376630D01*
X186798315Y-75443669D01*
X186745511Y-75489424D01*
X186693650Y-75500630D01*
X186660561Y-75500536D01*
X186660560Y-75500536D01*
X186634521Y-75504204D01*
X186546271Y-75516635D01*
X186546269Y-75516636D01*
X186476132Y-75537013D01*
X186441537Y-75541937D01*
X185457092Y-75541937D01*
X185422497Y-75537013D01*
X185391285Y-75527945D01*
X185362760Y-75515601D01*
X185292598Y-75474107D01*
X185283341Y-75468633D01*
X185283339Y-75468632D01*
X185183933Y-75426540D01*
X185183929Y-75426539D01*
X185183927Y-75426538D01*
X185183926Y-75426538D01*
X185120806Y-75409271D01*
X185120803Y-75409270D01*
X185120801Y-75409270D01*
X185013815Y-75394900D01*
X185013809Y-75394900D01*
X184267745Y-75394900D01*
X184246055Y-75396063D01*
X184246050Y-75396063D01*
X184208898Y-75400058D01*
X184177397Y-75404701D01*
X184110709Y-75428495D01*
X184040954Y-75432483D01*
X184012747Y-75422191D01*
X183967015Y-75398889D01*
X183873238Y-75384037D01*
X183530195Y-75384037D01*
X183471108Y-75393395D01*
X183432315Y-75393394D01*
X183373238Y-75384037D01*
X183030195Y-75384037D01*
X182971108Y-75393395D01*
X182932315Y-75393394D01*
X182873238Y-75384037D01*
X182530195Y-75384037D01*
X182471108Y-75393395D01*
X182432315Y-75393394D01*
X182373238Y-75384037D01*
X182030195Y-75384037D01*
X181971108Y-75393395D01*
X181932315Y-75393394D01*
X181873238Y-75384037D01*
X181530196Y-75384037D01*
X181436407Y-75398891D01*
X181392706Y-75421159D01*
X181324036Y-75434055D01*
X181301481Y-75429652D01*
X181239069Y-75411326D01*
X181239066Y-75411325D01*
X181239062Y-75411324D01*
X181124823Y-75394900D01*
X180347368Y-75394900D01*
X180347363Y-75394900D01*
X180240365Y-75409272D01*
X180177261Y-75426535D01*
X180177252Y-75426538D01*
X180077830Y-75468637D01*
X180077827Y-75468639D01*
X180038554Y-75491864D01*
X180010034Y-75504205D01*
X179978818Y-75513275D01*
X179944220Y-75518200D01*
X178959780Y-75518200D01*
X178925181Y-75513275D01*
X178893962Y-75504204D01*
X178865442Y-75491862D01*
X178826176Y-75468641D01*
X178826175Y-75468640D01*
X178826166Y-75468636D01*
X178726754Y-75426540D01*
X178709485Y-75421815D01*
X178663632Y-75409271D01*
X178556637Y-75394900D01*
X178556632Y-75394900D01*
X178509200Y-75394900D01*
X178509191Y-75394900D01*
X178423002Y-75404167D01*
X178371493Y-75415373D01*
X178371490Y-75415374D01*
X178299840Y-75438090D01*
X178299838Y-75438091D01*
X178299837Y-75438091D01*
X178192140Y-75505151D01*
X178192140Y-75505152D01*
X178139344Y-75550899D01*
X178139336Y-75550906D01*
X178089728Y-75606533D01*
X178030417Y-75643464D01*
X177997185Y-75648000D01*
X177290000Y-75648000D01*
X177222961Y-75628315D01*
X177177206Y-75575511D01*
X177166000Y-75524000D01*
X177166000Y-74202406D01*
X177185685Y-74135367D01*
X177196591Y-74121833D01*
X177207223Y-74107813D01*
X177292361Y-73995542D01*
X177292362Y-73995538D01*
X177296519Y-73988148D01*
X177298634Y-73989337D01*
X177333783Y-73944165D01*
X177399692Y-73920972D01*
X177406230Y-73920800D01*
X178591127Y-73920800D01*
X178654247Y-73938067D01*
G37*
G04 #@! TD.AperFunction*
G04 #@! TA.AperFunction,Conductor*
G36*
X180594000Y-101092000D02*
G01*
X188852000Y-101092000D01*
X188919039Y-101111685D01*
X188964794Y-101164489D01*
X188976000Y-101216000D01*
X188976000Y-110620000D01*
X188956315Y-110687039D01*
X188903511Y-110732794D01*
X188852000Y-110744000D01*
X183796500Y-110744000D01*
X183729461Y-110724315D01*
X183683706Y-110671511D01*
X183672500Y-110620000D01*
X183672500Y-110558304D01*
X183669598Y-110521432D01*
X183669597Y-110521426D01*
X183623745Y-110363606D01*
X183623744Y-110363603D01*
X183623744Y-110363602D01*
X183540081Y-110222135D01*
X183540079Y-110222133D01*
X183540076Y-110222129D01*
X183423870Y-110105923D01*
X183423862Y-110105917D01*
X183282396Y-110022255D01*
X183282393Y-110022254D01*
X183124567Y-109976401D01*
X183122925Y-109976101D01*
X183122093Y-109975682D01*
X183118485Y-109974634D01*
X183118679Y-109973963D01*
X183060516Y-109944685D01*
X183026007Y-109886221D01*
X183025758Y-109886294D01*
X183025474Y-109885319D01*
X183025000Y-109884515D01*
X183024421Y-109881693D01*
X183017606Y-109858238D01*
X183013658Y-109839177D01*
X183010976Y-109817939D01*
X182992976Y-109772476D01*
X182991083Y-109766946D01*
X182977444Y-109720001D01*
X182966544Y-109701571D01*
X182957986Y-109684104D01*
X182950101Y-109664186D01*
X182929422Y-109635725D01*
X182906520Y-109576722D01*
X182903368Y-109548745D01*
X182843789Y-109378478D01*
X182747816Y-109225738D01*
X182708259Y-109186181D01*
X182674774Y-109124858D01*
X182679758Y-109055166D01*
X182721630Y-108999233D01*
X182787094Y-108974816D01*
X182795940Y-108974500D01*
X183087696Y-108974500D01*
X183106131Y-108973049D01*
X183124569Y-108971598D01*
X183124571Y-108971597D01*
X183124573Y-108971597D01*
X183230692Y-108940766D01*
X183282398Y-108925744D01*
X183423865Y-108842081D01*
X183540081Y-108725865D01*
X183623744Y-108584398D01*
X183669598Y-108426569D01*
X183672500Y-108389694D01*
X183672500Y-107608306D01*
X183669598Y-107571431D01*
X183649502Y-107502262D01*
X183623745Y-107413606D01*
X183623744Y-107413603D01*
X183623744Y-107413602D01*
X183540081Y-107272135D01*
X183540079Y-107272133D01*
X183540076Y-107272129D01*
X183423870Y-107155923D01*
X183423862Y-107155917D01*
X183282396Y-107072255D01*
X183282395Y-107072254D01*
X183225281Y-107055661D01*
X183166396Y-107018054D01*
X183137190Y-106954581D01*
X183146936Y-106885395D01*
X183153146Y-106873463D01*
X183169744Y-106845398D01*
X183215598Y-106687569D01*
X183218500Y-106650694D01*
X183218500Y-105994306D01*
X183215598Y-105957431D01*
X183169744Y-105799602D01*
X183086081Y-105658135D01*
X183086079Y-105658133D01*
X183086076Y-105658129D01*
X182969870Y-105541923D01*
X182969862Y-105541917D01*
X182891681Y-105495681D01*
X182828398Y-105458256D01*
X182828397Y-105458255D01*
X182828396Y-105458255D01*
X182828393Y-105458254D01*
X182670573Y-105412402D01*
X182670567Y-105412401D01*
X182633696Y-105409500D01*
X182633694Y-105409500D01*
X181602306Y-105409500D01*
X181602304Y-105409500D01*
X181565432Y-105412401D01*
X181565426Y-105412402D01*
X181407606Y-105458254D01*
X181407603Y-105458255D01*
X181289121Y-105528325D01*
X181221397Y-105545508D01*
X181155134Y-105523348D01*
X181111371Y-105468882D01*
X181102000Y-105421593D01*
X181102000Y-104140000D01*
X174876000Y-104140000D01*
X174808961Y-104120315D01*
X174763206Y-104067511D01*
X174752000Y-104016000D01*
X174752000Y-99391761D01*
X174771685Y-99324722D01*
X174778400Y-99316388D01*
X174778400Y-99314000D01*
X180594000Y-99314000D01*
X180594000Y-101092000D01*
G37*
G04 #@! TD.AperFunction*
G04 #@! TA.AperFunction,Conductor*
G36*
X182900239Y-83744885D02*
G01*
X182945994Y-83797689D01*
X182957200Y-83849200D01*
X182957200Y-88732000D01*
X182937515Y-88799039D01*
X182884711Y-88844794D01*
X182833200Y-88856000D01*
X180772800Y-88856000D01*
X180772800Y-97272770D01*
X180767876Y-97307365D01*
X180726602Y-97449426D01*
X180726601Y-97449432D01*
X180723700Y-97486304D01*
X180723700Y-99617696D01*
X180726601Y-99654567D01*
X180726602Y-99654570D01*
X180767876Y-99796632D01*
X180772800Y-99831228D01*
X180772800Y-100103200D01*
X180753115Y-100170239D01*
X180700311Y-100215994D01*
X180648800Y-100227200D01*
X180594000Y-100227200D01*
X180594000Y-99314000D01*
X174778400Y-99314000D01*
X174778400Y-83849200D01*
X174798085Y-83782161D01*
X174850889Y-83736406D01*
X174902400Y-83725200D01*
X182833200Y-83725200D01*
X182900239Y-83744885D01*
G37*
G04 #@! TD.AperFunction*
G04 #@! TA.AperFunction,Conductor*
G36*
X234409539Y-85311184D02*
G01*
X234455294Y-85363988D01*
X234466500Y-85415498D01*
X234466500Y-85633017D01*
X234480689Y-85722602D01*
X234480688Y-85761397D01*
X234466500Y-85850975D01*
X234466500Y-86135017D01*
X234480689Y-86224602D01*
X234480688Y-86263397D01*
X234466500Y-86352975D01*
X234466500Y-86637017D01*
X234480689Y-86726602D01*
X234480688Y-86765397D01*
X234466500Y-86854975D01*
X234466500Y-87139017D01*
X234481354Y-87232806D01*
X234481356Y-87232810D01*
X234484757Y-87239485D01*
X234498271Y-87295882D01*
X234492905Y-93652119D01*
X234473164Y-93719142D01*
X234420321Y-93764852D01*
X234368122Y-93776012D01*
X230251000Y-93750000D01*
X198611492Y-93750000D01*
X198544453Y-93730315D01*
X198498698Y-93677511D01*
X198487492Y-93626000D01*
X198487492Y-89278000D01*
X198507177Y-89210961D01*
X198559981Y-89165206D01*
X198611492Y-89154000D01*
X230250000Y-89154000D01*
X230250000Y-85415499D01*
X230269685Y-85348460D01*
X230322489Y-85302705D01*
X230374000Y-85291499D01*
X234342500Y-85291499D01*
X234409539Y-85311184D01*
G37*
G04 #@! TD.AperFunction*
G04 #@! TA.AperFunction,Conductor*
G36*
X201365039Y-95015685D02*
G01*
X201410794Y-95068489D01*
X201422000Y-95120000D01*
X201422000Y-98174000D01*
X201402315Y-98241039D01*
X201349511Y-98286794D01*
X201298000Y-98298000D01*
X198120000Y-98298000D01*
X198120000Y-110620000D01*
X198100315Y-110687039D01*
X198047511Y-110732794D01*
X197996000Y-110744000D01*
X190116000Y-110744000D01*
X190048961Y-110724315D01*
X190003206Y-110671511D01*
X189992000Y-110620000D01*
X189992000Y-106042000D01*
X190011685Y-105974961D01*
X190064489Y-105929206D01*
X190116000Y-105918000D01*
X195072000Y-105918000D01*
X195072000Y-95120000D01*
X195091685Y-95052961D01*
X195144489Y-95007206D01*
X195196000Y-94996000D01*
X201298000Y-94996000D01*
X201365039Y-95015685D01*
G37*
G04 #@! TD.AperFunction*
G04 #@! TA.AperFunction,Conductor*
G36*
X185076929Y-75817667D02*
G01*
X185213916Y-75898681D01*
X185239225Y-75906034D01*
X185371740Y-75944534D01*
X185371743Y-75944534D01*
X185371745Y-75944535D01*
X185379979Y-75945183D01*
X185408618Y-75947437D01*
X185408620Y-75947437D01*
X186490010Y-75947437D01*
X186508445Y-75945986D01*
X186526883Y-75944535D01*
X186526885Y-75944534D01*
X186526887Y-75944534D01*
X186659405Y-75906034D01*
X186729274Y-75906233D01*
X186787944Y-75944175D01*
X186816788Y-76007813D01*
X186818000Y-76025110D01*
X186818000Y-77302000D01*
X186798315Y-77369039D01*
X186745511Y-77414794D01*
X186694000Y-77426000D01*
X184313288Y-77426000D01*
X184246249Y-77406315D01*
X184200494Y-77353511D01*
X184190068Y-77288117D01*
X184194565Y-77248203D01*
X184194565Y-77248196D01*
X184174369Y-77068950D01*
X184174368Y-77068945D01*
X184114788Y-76898676D01*
X184075581Y-76836280D01*
X184018816Y-76745938D01*
X183891262Y-76618384D01*
X183891262Y-76618383D01*
X183891260Y-76618382D01*
X183800240Y-76561190D01*
X183753950Y-76508855D01*
X183742213Y-76456197D01*
X183742213Y-76084036D01*
X183761898Y-76016997D01*
X183814702Y-75971242D01*
X183866213Y-75960036D01*
X183933231Y-75960036D01*
X183933232Y-75960036D01*
X184027018Y-75945183D01*
X184140056Y-75887587D01*
X184190923Y-75836719D01*
X184252246Y-75803234D01*
X184278605Y-75800400D01*
X185013809Y-75800400D01*
X185076929Y-75817667D01*
G37*
G04 #@! TD.AperFunction*
G04 #@! TA.AperFunction,Conductor*
G36*
X194381039Y-82373285D02*
G01*
X194426794Y-82426089D01*
X194438000Y-82477600D01*
X194438000Y-87411200D01*
X194418315Y-87478239D01*
X194365511Y-87523994D01*
X194314000Y-87535200D01*
X188684501Y-87535200D01*
X188677564Y-87534810D01*
X188559460Y-87521503D01*
X188519802Y-87517035D01*
X188519798Y-87517035D01*
X188480139Y-87521503D01*
X188362035Y-87534810D01*
X188355099Y-87535200D01*
X183487600Y-87535200D01*
X183420561Y-87515515D01*
X183374806Y-87462711D01*
X183363600Y-87411200D01*
X183363600Y-83369600D01*
X183071476Y-83369600D01*
X183018357Y-83357646D01*
X183014489Y-83355812D01*
X182947447Y-83336126D01*
X182947439Y-83336124D01*
X182833200Y-83319700D01*
X179423600Y-83319700D01*
X179356561Y-83300015D01*
X179310806Y-83247211D01*
X179299600Y-83195700D01*
X179299600Y-82477600D01*
X179319285Y-82410561D01*
X179372089Y-82364806D01*
X179423600Y-82353600D01*
X194314000Y-82353600D01*
X194381039Y-82373285D01*
G37*
G04 #@! TD.AperFunction*
G04 #@! TA.AperFunction,Conductor*
G36*
X194507039Y-101111685D02*
G01*
X194552794Y-101164489D01*
X194564000Y-101216000D01*
X194564000Y-105286000D01*
X194544315Y-105353039D01*
X194491511Y-105398794D01*
X194440000Y-105410000D01*
X189862000Y-105410000D01*
X189794961Y-105390315D01*
X189749206Y-105337511D01*
X189738000Y-105286000D01*
X189738000Y-101216000D01*
X189757685Y-101148961D01*
X189810489Y-101103206D01*
X189862000Y-101092000D01*
X194440000Y-101092000D01*
X194507039Y-101111685D01*
G37*
G04 #@! TD.AperFunction*
G04 #@! TA.AperFunction,Conductor*
G36*
X186761039Y-72822885D02*
G01*
X186806794Y-72875689D01*
X186818000Y-72927200D01*
X186818000Y-73476630D01*
X186798315Y-73543669D01*
X186745511Y-73589424D01*
X186693650Y-73600630D01*
X186660561Y-73600536D01*
X186660560Y-73600536D01*
X186646043Y-73602581D01*
X186546271Y-73616635D01*
X186546269Y-73616636D01*
X186476132Y-73637013D01*
X186441537Y-73641937D01*
X185457094Y-73641937D01*
X185422498Y-73637013D01*
X185399725Y-73630396D01*
X185363405Y-73619844D01*
X185356379Y-73617335D01*
X185297291Y-73592139D01*
X185292336Y-73590026D01*
X185292334Y-73590025D01*
X185292333Y-73590025D01*
X185230471Y-73572764D01*
X185230458Y-73572762D01*
X185137170Y-73558147D01*
X185011185Y-73573135D01*
X184957628Y-73588274D01*
X184956512Y-73588262D01*
X184953437Y-73589339D01*
X184949831Y-73590478D01*
X184943969Y-73592135D01*
X184943955Y-73592140D01*
X184940806Y-73593540D01*
X184936099Y-73595406D01*
X184801634Y-73642456D01*
X184774564Y-73648634D01*
X184713887Y-73655471D01*
X184686123Y-73655471D01*
X184625426Y-73648633D01*
X184598360Y-73642455D01*
X184540716Y-73622284D01*
X184515701Y-73610238D01*
X184499145Y-73599836D01*
X184491868Y-73595263D01*
X184473816Y-73585165D01*
X184473812Y-73585163D01*
X184441905Y-73569393D01*
X184414735Y-73557185D01*
X184414734Y-73557184D01*
X184291161Y-73528450D01*
X184291153Y-73528449D01*
X184221474Y-73523467D01*
X184221472Y-73523467D01*
X184221471Y-73523467D01*
X184126143Y-73528919D01*
X184117698Y-73529402D01*
X184109005Y-73531164D01*
X184108550Y-73528919D01*
X184051284Y-73532181D01*
X184036358Y-73526734D01*
X184036302Y-73526907D01*
X184027016Y-73523890D01*
X183933238Y-73509037D01*
X183933233Y-73509037D01*
X183866213Y-73509037D01*
X183799174Y-73489352D01*
X183753419Y-73436548D01*
X183742213Y-73385037D01*
X183742213Y-73115497D01*
X183761898Y-73048458D01*
X183814702Y-73002703D01*
X183825252Y-72998457D01*
X183901025Y-72971944D01*
X184053765Y-72875971D01*
X184090216Y-72839519D01*
X184151540Y-72806034D01*
X184177898Y-72803200D01*
X186694000Y-72803200D01*
X186761039Y-72822885D01*
G37*
G04 #@! TD.AperFunction*
G04 #@! TA.AperFunction,Conductor*
G36*
X187401666Y-89123514D02*
G01*
X187434892Y-89140444D01*
X187434898Y-89140447D01*
X187528675Y-89155299D01*
X187528681Y-89155300D01*
X188291718Y-89155299D01*
X188385504Y-89140446D01*
X188396380Y-89134903D01*
X188465048Y-89122004D01*
X188466487Y-89122157D01*
X188509033Y-89126951D01*
X188519799Y-89128165D01*
X188519800Y-89128165D01*
X188519801Y-89128165D01*
X188561070Y-89123515D01*
X188677563Y-89110389D01*
X188684501Y-89110000D01*
X194342638Y-89110000D01*
X194409677Y-89129685D01*
X194430319Y-89146319D01*
X194438000Y-89154000D01*
X194056000Y-89154000D01*
X194056000Y-93726000D01*
X194438000Y-93726000D01*
X194438000Y-100103200D01*
X194418315Y-100170239D01*
X194365511Y-100215994D01*
X194314000Y-100227200D01*
X189536713Y-100227200D01*
X189469674Y-100207515D01*
X189423919Y-100154711D01*
X189413975Y-100085554D01*
X189418087Y-100056945D01*
X189427700Y-99990091D01*
X189427700Y-96680300D01*
X189418432Y-96594101D01*
X189407226Y-96542590D01*
X189384510Y-96470940D01*
X189317450Y-96363243D01*
X189317449Y-96363242D01*
X189317448Y-96363240D01*
X189306486Y-96350589D01*
X189291354Y-96317454D01*
X189262220Y-96288320D01*
X189242791Y-96282615D01*
X189227298Y-96270844D01*
X189194124Y-96241259D01*
X189194120Y-96241256D01*
X189079487Y-96186911D01*
X189012447Y-96167226D01*
X189012439Y-96167224D01*
X188898200Y-96150800D01*
X187267608Y-96150800D01*
X187200569Y-96131115D01*
X187154814Y-96078311D01*
X187143609Y-96026354D01*
X187168053Y-89233554D01*
X187187978Y-89166586D01*
X187240947Y-89121021D01*
X187292052Y-89110000D01*
X187345373Y-89110000D01*
X187401666Y-89123514D01*
G37*
G04 #@! TD.AperFunction*
G04 #@! TA.AperFunction,Conductor*
G36*
X197919547Y-89173685D02*
G01*
X197965302Y-89226489D01*
X197976508Y-89278000D01*
X197976508Y-93602000D01*
X197956823Y-93669039D01*
X197904019Y-93714794D01*
X197852508Y-93726000D01*
X194056000Y-93726000D01*
X194056000Y-89154000D01*
X194438000Y-89154000D01*
X197852508Y-89154000D01*
X197919547Y-89173685D01*
G37*
G04 #@! TD.AperFunction*
G04 #@! TA.AperFunction,Conductor*
G36*
X178619753Y-75817668D02*
G01*
X178716602Y-75874944D01*
X178758224Y-75887036D01*
X178874426Y-75920797D01*
X178874429Y-75920797D01*
X178874431Y-75920798D01*
X178886722Y-75921765D01*
X178911304Y-75923700D01*
X178911306Y-75923700D01*
X179992696Y-75923700D01*
X180011131Y-75922249D01*
X180029569Y-75920798D01*
X180029571Y-75920797D01*
X180029573Y-75920797D01*
X180071191Y-75908705D01*
X180187398Y-75874944D01*
X180284246Y-75817668D01*
X180347368Y-75800400D01*
X181124823Y-75800400D01*
X181191862Y-75820085D01*
X181212505Y-75836720D01*
X181263372Y-75887587D01*
X181376410Y-75945183D01*
X181376412Y-75945184D01*
X181470189Y-75960036D01*
X181470195Y-75960037D01*
X181537214Y-75960036D01*
X181604252Y-75979720D01*
X181650008Y-76032523D01*
X181661214Y-76084036D01*
X181661214Y-76426146D01*
X181641529Y-76493185D01*
X181603186Y-76531140D01*
X181464337Y-76618384D01*
X181336784Y-76745937D01*
X181240811Y-76898676D01*
X181181231Y-77068945D01*
X181181230Y-77068950D01*
X181161035Y-77248196D01*
X181161035Y-77248203D01*
X181181230Y-77427449D01*
X181181233Y-77427462D01*
X181229656Y-77565845D01*
X181233218Y-77635624D01*
X181198490Y-77696251D01*
X181136496Y-77728479D01*
X181112615Y-77730800D01*
X178509200Y-77730800D01*
X178442161Y-77711115D01*
X178396406Y-77658311D01*
X178385200Y-77606800D01*
X178385200Y-75924400D01*
X178404885Y-75857361D01*
X178457689Y-75811606D01*
X178509200Y-75800400D01*
X178556632Y-75800400D01*
X178619753Y-75817668D01*
G37*
G04 #@! TD.AperFunction*
G04 #@! TA.AperFunction,Conductor*
G36*
X186709792Y-87961285D02*
G01*
X186755547Y-88014089D01*
X186766752Y-88066046D01*
X186762847Y-89151248D01*
X186736200Y-96556300D01*
X188898200Y-96556300D01*
X188965239Y-96575985D01*
X189010994Y-96628789D01*
X189022200Y-96680300D01*
X189022200Y-99990091D01*
X189002515Y-100057130D01*
X188949711Y-100102885D01*
X188900005Y-100114078D01*
X181304105Y-100224641D01*
X181236786Y-100205934D01*
X181190267Y-100153802D01*
X181178300Y-100100654D01*
X181178300Y-99816891D01*
X181176275Y-99788284D01*
X181176275Y-99788285D01*
X181167311Y-99725304D01*
X181167311Y-99725303D01*
X181161276Y-99697275D01*
X181161275Y-99697274D01*
X181161274Y-99697266D01*
X181134124Y-99603816D01*
X181129200Y-99569221D01*
X181129200Y-97534776D01*
X181134124Y-97500180D01*
X181161272Y-97406739D01*
X181161272Y-97406740D01*
X181167310Y-97378698D01*
X181176273Y-97315724D01*
X181178300Y-97287108D01*
X181178300Y-89385500D01*
X181197985Y-89318461D01*
X181250789Y-89272706D01*
X181302300Y-89261500D01*
X182833191Y-89261500D01*
X182833200Y-89261500D01*
X182919399Y-89252232D01*
X182970910Y-89241026D01*
X183042560Y-89218310D01*
X183150257Y-89151250D01*
X183153513Y-89148428D01*
X183162911Y-89140286D01*
X183226467Y-89111262D01*
X183244112Y-89110000D01*
X183312800Y-89110000D01*
X183312800Y-88970275D01*
X183324756Y-88917151D01*
X183326589Y-88913285D01*
X183346274Y-88846246D01*
X183362700Y-88732000D01*
X183362700Y-88065600D01*
X183382385Y-87998561D01*
X183435189Y-87952806D01*
X183486700Y-87941600D01*
X186642753Y-87941600D01*
X186709792Y-87961285D01*
G37*
G04 #@! TD.AperFunction*
M02*
