M48
; DRILL file {KiCad 7.0.7-7.0.7~ubuntu22.04.1} date So 22 Okt 2023 18:36:17 CEST
; FORMAT={-:-/ absolute / metric / decimal}
; #@! TF.CreationDate,2023-10-22T18:36:17+02:00
; #@! TF.GenerationSoftware,Kicad,Pcbnew,7.0.7-7.0.7~ubuntu22.04.1
; #@! TF.FileFunction,Plated,1,4,PTH
FMAT,2
METRIC
; #@! TA.AperFunction,Plated,PTH,ComponentDrill
T1C0.300
; #@! TA.AperFunction,Plated,PTH,ViaDrill
T2C0.400
; #@! TA.AperFunction,Plated,PTH,ComponentDrill
T3C1.000
; #@! TA.AperFunction,Plated,PTH,ComponentDrill
T4C1.020
; #@! TA.AperFunction,Plated,PTH,ComponentDrill
T5C1.600
%
G90
G05
T1
X181.842Y-74.255
X181.842Y-75.215
X182.702Y-74.735
X183.562Y-74.255
X183.562Y-75.215
T2
X175.768Y-69.85
X177.2Y-84.3
X177.268Y-76.105
X178.308Y-66.548
X178.334Y-73.108
X178.436Y-71.127
X178.461Y-82.074
X181.04Y-79.136
X181.755Y-89.763
X181.755Y-90.763
X181.755Y-91.763
X181.755Y-92.763
X181.755Y-93.763
X181.967Y-77.248
X182.118Y-109.728
X183.338Y-71.319
X183.389Y-77.248
X183.552Y-72.246
X184.7Y-73.26
X184.9Y-101.9
X185.674Y-67.546
X185.971Y-79.351
X186.005Y-89.763
X186.005Y-90.763
X186.005Y-91.763
X186.005Y-92.763
X186.005Y-93.763
X188.52Y-88.323
X189.484Y-90.355
X191.2Y-81.5
X193.548Y-103.124
X196.7Y-85.852
X197.104Y-66.294
X197.207Y-82.108
X198.374Y-70.358
X198.374Y-75.946
X198.882Y-66.294
X199.239Y-86.614
X199.269Y-83.029
X199.308Y-62.656
X199.493Y-88.138
X201.272Y-84.074
X201.525Y-83.058
X201.525Y-86.614
X203.558Y-86.614
X203.811Y-64.516
X203.811Y-83.058
X203.962Y-66.36
X205.843Y-74.168
X205.843Y-79.756
X206.032Y-82.108
X224.028Y-86.106
X224.993Y-82.245
X226.517Y-93.269
X226.517Y-96.317
X227.584Y-88.138
X227.711Y-86.106
X227.889Y-82.601
X227.914Y-81.124
X228.194Y-80.061
X228.472Y-77.89
X228.727Y-88.138
X228.854Y-96.317
X228.905Y-93.32
X230.073Y-77.978
X230.886Y-80.569
X230.886Y-81.89
X230.886Y-83.363
X230.886Y-86.868
X230.886Y-87.833
X231.242Y-93.32
X231.242Y-96.317
X231.902Y-80.569
X231.902Y-81.89
X231.902Y-83.363
X231.902Y-86.868
X231.902Y-87.833
X232.308Y-78.892
X232.918Y-80.569
X232.918Y-81.89
X232.918Y-83.363
X232.918Y-86.868
X232.918Y-87.833
X233.578Y-96.317
X233.629Y-93.32
X233.934Y-80.569
X233.934Y-81.89
X233.934Y-83.363
X233.934Y-86.868
X233.934Y-87.833
X234.6Y-78.1
X236.205Y-77.902
X236.474Y-89.027
X236.982Y-80.061
X237.033Y-81.026
X237.236Y-85.852
X237.236Y-88.011
X237.296Y-84.186
X238.316Y-82.814
X240.792Y-84.201
X240.919Y-86.106
X241.808Y-79.502
X243.332Y-79.502
X244.348Y-82.484
T3
X181.737Y-58.028
X181.737Y-60.568
X184.277Y-58.028
X184.277Y-60.568
X186.817Y-58.028
X186.817Y-60.568
X189.357Y-58.028
X189.357Y-60.568
X191.897Y-58.028
X191.897Y-60.568
X194.437Y-58.028
X194.437Y-60.568
X196.977Y-58.028
X196.977Y-60.568
X199.517Y-58.028
X199.517Y-60.568
X202.057Y-58.028
X202.057Y-60.568
X204.597Y-58.028
X204.597Y-60.568
X207.137Y-58.028
X207.137Y-60.568
X208.28Y-69.088
X208.28Y-71.628
X208.28Y-74.168
X208.28Y-76.708
X208.28Y-79.248
X208.28Y-81.788
X208.28Y-84.328
X208.28Y-86.868
X209.677Y-58.028
X209.677Y-60.568
X212.217Y-58.028
X212.217Y-60.568
X214.757Y-58.028
X214.757Y-60.568
X217.297Y-58.028
X217.297Y-60.568
X219.837Y-58.028
X219.837Y-60.568
X222.377Y-58.028
X222.377Y-60.568
X224.917Y-58.028
X224.917Y-60.568
X227.457Y-58.028
X227.457Y-60.568
X229.997Y-58.028
X229.997Y-60.568
T4
X192.994Y-69.332
X192.994Y-71.872
X192.994Y-74.412
X192.994Y-76.952
T5
X199.898Y-96.616
X199.898Y-102.616
X204.598Y-99.616
T0
M30
