G04 #@! TF.GenerationSoftware,KiCad,Pcbnew,7.0.7-7.0.7~ubuntu22.04.1*
G04 #@! TF.CreationDate,2023-10-23T09:56:04+02:00*
G04 #@! TF.ProjectId,bitaxeUltra,62697461-7865-4556-9c74-72612e6b6963,rev?*
G04 #@! TF.SameCoordinates,Original*
G04 #@! TF.FileFunction,Paste,Bot*
G04 #@! TF.FilePolarity,Positive*
%FSLAX46Y46*%
G04 Gerber Fmt 4.6, Leading zero omitted, Abs format (unit mm)*
G04 Created by KiCad (PCBNEW 7.0.7-7.0.7~ubuntu22.04.1) date 2023-10-23 09:56:04*
%MOMM*%
%LPD*%
G01*
G04 APERTURE LIST*
G04 Aperture macros list*
%AMRoundRect*
0 Rectangle with rounded corners*
0 $1 Rounding radius*
0 $2 $3 $4 $5 $6 $7 $8 $9 X,Y pos of 4 corners*
0 Add a 4 corners polygon primitive as box body*
4,1,4,$2,$3,$4,$5,$6,$7,$8,$9,$2,$3,0*
0 Add four circle primitives for the rounded corners*
1,1,$1+$1,$2,$3*
1,1,$1+$1,$4,$5*
1,1,$1+$1,$6,$7*
1,1,$1+$1,$8,$9*
0 Add four rect primitives between the rounded corners*
20,1,$1+$1,$2,$3,$4,$5,0*
20,1,$1+$1,$4,$5,$6,$7,0*
20,1,$1+$1,$6,$7,$8,$9,0*
20,1,$1+$1,$8,$9,$2,$3,0*%
G04 Aperture macros list end*
%ADD10RoundRect,0.150000X0.430000X-0.250000X0.430000X0.250000X-0.430000X0.250000X-0.430000X-0.250000X0*%
%ADD11RoundRect,0.150000X0.250000X0.430000X-0.250000X0.430000X-0.250000X-0.430000X0.250000X-0.430000X0*%
%ADD12RoundRect,0.150000X-0.250000X-0.430000X0.250000X-0.430000X0.250000X0.430000X-0.250000X0.430000X0*%
%ADD13RoundRect,0.135000X-0.585000X0.325000X-0.585000X-0.325000X0.585000X-0.325000X0.585000X0.325000X0*%
%ADD14RoundRect,0.150000X-0.430000X0.250000X-0.430000X-0.250000X0.430000X-0.250000X0.430000X0.250000X0*%
%ADD15R,0.720000X0.800000*%
%ADD16RoundRect,0.147500X0.262500X0.412500X-0.262500X0.412500X-0.262500X-0.412500X0.262500X-0.412500X0*%
G04 APERTURE END LIST*
D10*
X227584000Y-79248000D03*
X227584000Y-77348000D03*
D11*
X226959200Y-81026000D03*
X225059200Y-81026000D03*
D10*
X239100000Y-79250000D03*
X239100000Y-77350000D03*
D12*
X224922000Y-86106000D03*
X226822000Y-86106000D03*
X229350000Y-76900000D03*
X231250000Y-76900000D03*
D10*
X233426000Y-86040000D03*
X233426000Y-84140000D03*
X229362000Y-86040000D03*
X229362000Y-84140000D03*
D11*
X239999600Y-81229200D03*
X238099600Y-81229200D03*
D13*
X226517200Y-92096800D03*
X226517200Y-95046800D03*
D11*
X226822000Y-88138000D03*
X224922000Y-88138000D03*
X230378000Y-90170000D03*
X228478000Y-90170000D03*
X240030000Y-90170000D03*
X238130000Y-90170000D03*
D10*
X237134400Y-79283600D03*
X237134400Y-77383600D03*
D14*
X245364000Y-80584000D03*
X245364000Y-82484000D03*
D10*
X225600000Y-79250000D03*
X225600000Y-77350000D03*
D11*
X235350000Y-76900000D03*
X233450000Y-76900000D03*
X240030000Y-88138000D03*
X238130000Y-88138000D03*
D13*
X233629200Y-92096800D03*
X233629200Y-95046800D03*
D10*
X235458000Y-86040000D03*
X235458000Y-84140000D03*
D15*
X243345000Y-80459000D03*
X243345000Y-82609000D03*
X241795000Y-82609000D03*
X241795000Y-80459000D03*
D13*
X228904800Y-92096800D03*
X228904800Y-95046800D03*
D10*
X231394000Y-86040000D03*
X231394000Y-84140000D03*
D11*
X235341200Y-78892400D03*
X233441200Y-78892400D03*
D13*
X231292400Y-92096800D03*
X231292400Y-95046800D03*
D11*
X226822000Y-90170000D03*
X224922000Y-90170000D03*
D12*
X229326400Y-78892400D03*
X231226400Y-78892400D03*
D16*
X239926500Y-84074000D03*
X238101500Y-84074000D03*
D12*
X238130000Y-86106000D03*
X240030000Y-86106000D03*
D16*
X226795000Y-84140000D03*
X224970000Y-84140000D03*
D11*
X236540000Y-90170000D03*
X234640000Y-90170000D03*
M02*
