G04 #@! TF.GenerationSoftware,KiCad,Pcbnew,7.0.7-7.0.7~ubuntu22.04.1*
G04 #@! TF.CreationDate,2023-12-22T20:45:00+01:00*
G04 #@! TF.ProjectId,piaxe,70696178-652e-46b6-9963-61645f706362,rev?*
G04 #@! TF.SameCoordinates,Original*
G04 #@! TF.FileFunction,Copper,L4,Bot*
G04 #@! TF.FilePolarity,Positive*
%FSLAX46Y46*%
G04 Gerber Fmt 4.6, Leading zero omitted, Abs format (unit mm)*
G04 Created by KiCad (PCBNEW 7.0.7-7.0.7~ubuntu22.04.1) date 2023-12-22 20:45:00*
%MOMM*%
%LPD*%
G01*
G04 APERTURE LIST*
G04 Aperture macros list*
%AMRoundRect*
0 Rectangle with rounded corners*
0 $1 Rounding radius*
0 $2 $3 $4 $5 $6 $7 $8 $9 X,Y pos of 4 corners*
0 Add a 4 corners polygon primitive as box body*
4,1,4,$2,$3,$4,$5,$6,$7,$8,$9,$2,$3,0*
0 Add four circle primitives for the rounded corners*
1,1,$1+$1,$2,$3*
1,1,$1+$1,$4,$5*
1,1,$1+$1,$6,$7*
1,1,$1+$1,$8,$9*
0 Add four rect primitives between the rounded corners*
20,1,$1+$1,$2,$3,$4,$5,0*
20,1,$1+$1,$4,$5,$6,$7,0*
20,1,$1+$1,$6,$7,$8,$9,0*
20,1,$1+$1,$8,$9,$2,$3,0*%
G04 Aperture macros list end*
G04 #@! TA.AperFunction,SMDPad,CuDef*
%ADD10RoundRect,0.150000X0.150000X-0.587500X0.150000X0.587500X-0.150000X0.587500X-0.150000X-0.587500X0*%
G04 #@! TD*
G04 #@! TA.AperFunction,ComponentPad*
%ADD11C,0.800000*%
G04 #@! TD*
G04 #@! TA.AperFunction,ComponentPad*
%ADD12C,6.400000*%
G04 #@! TD*
G04 #@! TA.AperFunction,ComponentPad*
%ADD13O,1.350000X1.700000*%
G04 #@! TD*
G04 #@! TA.AperFunction,ComponentPad*
%ADD14O,1.100000X1.500000*%
G04 #@! TD*
G04 #@! TA.AperFunction,ComponentPad*
%ADD15R,1.000000X1.000000*%
G04 #@! TD*
G04 #@! TA.AperFunction,ComponentPad*
%ADD16O,1.000000X1.000000*%
G04 #@! TD*
G04 #@! TA.AperFunction,ComponentPad*
%ADD17R,1.730000X2.030000*%
G04 #@! TD*
G04 #@! TA.AperFunction,ComponentPad*
%ADD18O,1.730000X2.030000*%
G04 #@! TD*
G04 #@! TA.AperFunction,ComponentPad*
%ADD19R,2.600000X2.600000*%
G04 #@! TD*
G04 #@! TA.AperFunction,ComponentPad*
%ADD20C,2.600000*%
G04 #@! TD*
G04 #@! TA.AperFunction,ComponentPad*
%ADD21C,0.500000*%
G04 #@! TD*
G04 #@! TA.AperFunction,SMDPad,CuDef*
%ADD22R,2.500000X2.500000*%
G04 #@! TD*
G04 #@! TA.AperFunction,SMDPad,CuDef*
%ADD23RoundRect,0.250000X0.250000X0.475000X-0.250000X0.475000X-0.250000X-0.475000X0.250000X-0.475000X0*%
G04 #@! TD*
G04 #@! TA.AperFunction,SMDPad,CuDef*
%ADD24RoundRect,0.250000X0.475000X-0.250000X0.475000X0.250000X-0.475000X0.250000X-0.475000X-0.250000X0*%
G04 #@! TD*
G04 #@! TA.AperFunction,SMDPad,CuDef*
%ADD25C,1.500000*%
G04 #@! TD*
G04 #@! TA.AperFunction,SMDPad,CuDef*
%ADD26RoundRect,0.250000X1.025000X-0.787500X1.025000X0.787500X-1.025000X0.787500X-1.025000X-0.787500X0*%
G04 #@! TD*
G04 #@! TA.AperFunction,SMDPad,CuDef*
%ADD27RoundRect,0.250000X-0.475000X0.250000X-0.475000X-0.250000X0.475000X-0.250000X0.475000X0.250000X0*%
G04 #@! TD*
G04 #@! TA.AperFunction,SMDPad,CuDef*
%ADD28RoundRect,0.250000X0.262500X0.450000X-0.262500X0.450000X-0.262500X-0.450000X0.262500X-0.450000X0*%
G04 #@! TD*
G04 #@! TA.AperFunction,SMDPad,CuDef*
%ADD29RoundRect,0.250000X-0.262500X-0.450000X0.262500X-0.450000X0.262500X0.450000X-0.262500X0.450000X0*%
G04 #@! TD*
G04 #@! TA.AperFunction,SMDPad,CuDef*
%ADD30RoundRect,0.250000X-0.250000X-0.475000X0.250000X-0.475000X0.250000X0.475000X-0.250000X0.475000X0*%
G04 #@! TD*
G04 #@! TA.AperFunction,SMDPad,CuDef*
%ADD31RoundRect,0.250000X-1.025000X0.787500X-1.025000X-0.787500X1.025000X-0.787500X1.025000X0.787500X0*%
G04 #@! TD*
G04 #@! TA.AperFunction,SMDPad,CuDef*
%ADD32C,0.500000*%
G04 #@! TD*
G04 #@! TA.AperFunction,SMDPad,CuDef*
%ADD33RoundRect,0.250000X-0.450000X0.262500X-0.450000X-0.262500X0.450000X-0.262500X0.450000X0.262500X0*%
G04 #@! TD*
G04 #@! TA.AperFunction,SMDPad,CuDef*
%ADD34R,1.000000X0.900000*%
G04 #@! TD*
G04 #@! TA.AperFunction,SMDPad,CuDef*
%ADD35RoundRect,0.250000X0.450000X-0.262500X0.450000X0.262500X-0.450000X0.262500X-0.450000X-0.262500X0*%
G04 #@! TD*
G04 #@! TA.AperFunction,SMDPad,CuDef*
%ADD36RoundRect,0.250000X-0.787500X-1.025000X0.787500X-1.025000X0.787500X1.025000X-0.787500X1.025000X0*%
G04 #@! TD*
G04 #@! TA.AperFunction,ViaPad*
%ADD37C,0.800000*%
G04 #@! TD*
G04 #@! TA.AperFunction,Conductor*
%ADD38C,0.400000*%
G04 #@! TD*
G04 #@! TA.AperFunction,Conductor*
%ADD39C,0.254000*%
G04 #@! TD*
G04 #@! TA.AperFunction,Conductor*
%ADD40C,0.508000*%
G04 #@! TD*
G04 #@! TA.AperFunction,Conductor*
%ADD41C,1.000000*%
G04 #@! TD*
G04 #@! TA.AperFunction,Conductor*
%ADD42C,0.200000*%
G04 #@! TD*
G04 APERTURE END LIST*
G04 #@! TA.AperFunction,EtchedComponent*
G36*
X153350000Y-101700000D02*
G01*
X152850000Y-101700000D01*
X152850000Y-100700000D01*
X153350000Y-100700000D01*
X153350000Y-101700000D01*
G37*
G04 #@! TD.AperFunction*
G04 #@! TA.AperFunction,EtchedComponent*
G36*
X152550000Y-101700000D02*
G01*
X152050000Y-101700000D01*
X152050000Y-100700000D01*
X152550000Y-100700000D01*
X152550000Y-101700000D01*
G37*
G04 #@! TD.AperFunction*
D10*
X169930000Y-77657500D03*
X168030000Y-77657500D03*
X168980000Y-75782500D03*
D11*
X92600000Y-73000000D03*
X93302944Y-71302944D03*
X93302944Y-74697056D03*
X95000000Y-70600000D03*
D12*
X95000000Y-73000000D03*
D11*
X95000000Y-75400000D03*
X96697056Y-71302944D03*
X96697056Y-74697056D03*
X97400000Y-73000000D03*
D13*
X139342500Y-70797500D03*
D14*
X139032500Y-73797500D03*
X134192500Y-73797500D03*
D13*
X133882500Y-70797500D03*
D15*
X169875000Y-101100000D03*
D16*
X168605000Y-101100000D03*
X167335000Y-101100000D03*
X166065000Y-101100000D03*
X164795000Y-101100000D03*
X163525000Y-101100000D03*
D17*
X161300000Y-73400000D03*
D18*
X163840000Y-73400000D03*
X166380000Y-73400000D03*
X168920000Y-73400000D03*
D11*
X173600000Y-73000000D03*
X174302944Y-71302944D03*
X174302944Y-74697056D03*
X176000000Y-70600000D03*
D12*
X176000000Y-73000000D03*
D11*
X176000000Y-75400000D03*
X177697056Y-71302944D03*
X177697056Y-74697056D03*
X178400000Y-73000000D03*
X173600000Y-199000000D03*
X174302944Y-197302944D03*
X174302944Y-200697056D03*
X176000000Y-196600000D03*
D12*
X176000000Y-199000000D03*
D11*
X176000000Y-201400000D03*
X177697056Y-197302944D03*
X177697056Y-200697056D03*
X178400000Y-199000000D03*
X92600000Y-105000000D03*
X93302944Y-103302944D03*
X93302944Y-106697056D03*
X95000000Y-102600000D03*
D12*
X95000000Y-105000000D03*
D11*
X95000000Y-107400000D03*
X96697056Y-103302944D03*
X96697056Y-106697056D03*
X97400000Y-105000000D03*
X173600000Y-105000000D03*
X174302944Y-103302944D03*
X174302944Y-106697056D03*
X176000000Y-102600000D03*
D12*
X176000000Y-105000000D03*
D11*
X176000000Y-107400000D03*
X177697056Y-103302944D03*
X177697056Y-106697056D03*
X178400000Y-105000000D03*
D19*
X105000000Y-83200000D03*
D20*
X105000000Y-77200000D03*
X100300000Y-80200000D03*
D21*
X121707500Y-81505000D03*
X120707500Y-81505000D03*
X119707500Y-81505000D03*
X121707500Y-82505000D03*
X120707500Y-82505000D03*
D22*
X120707500Y-82505000D03*
D21*
X119707500Y-82505000D03*
X121707500Y-83505000D03*
X120707500Y-83505000D03*
X119707500Y-83505000D03*
D11*
X92600000Y-199000000D03*
X93302944Y-197302944D03*
X93302944Y-200697056D03*
X95000000Y-196600000D03*
D12*
X95000000Y-199000000D03*
D11*
X95000000Y-201400000D03*
X96697056Y-197302944D03*
X96697056Y-200697056D03*
X97400000Y-199000000D03*
D23*
X131760000Y-156310000D03*
X129860000Y-156310000D03*
X146650000Y-155100000D03*
X144750000Y-155100000D03*
D24*
X141000000Y-139650000D03*
X141000000Y-137750000D03*
D25*
X150000000Y-147750000D03*
D26*
X135000000Y-159612500D03*
X135000000Y-153387500D03*
D24*
X136500000Y-167250000D03*
X136500000Y-165350000D03*
D27*
X133300000Y-165350000D03*
X133300000Y-167250000D03*
D25*
X120750000Y-140600000D03*
D23*
X131650000Y-148325000D03*
X129750000Y-148325000D03*
D27*
X144900000Y-137750000D03*
X144900000Y-139650000D03*
D25*
X120750000Y-155500000D03*
D28*
X127925000Y-153100000D03*
X126100000Y-153100000D03*
D23*
X130000000Y-160270000D03*
X128100000Y-160270000D03*
D27*
X128875000Y-165000000D03*
X128875000Y-166900000D03*
D24*
X123100000Y-139575000D03*
X123100000Y-137675000D03*
D29*
X141987500Y-151100000D03*
X143812500Y-151100000D03*
D30*
X145450000Y-153100000D03*
X147350000Y-153100000D03*
D31*
X135050000Y-144487500D03*
X135050000Y-150712500D03*
D30*
X139920000Y-143670000D03*
X141820000Y-143670000D03*
X139950000Y-161600000D03*
X141850000Y-161600000D03*
X140000000Y-157600000D03*
X141900000Y-157600000D03*
X139920000Y-145670000D03*
X141820000Y-145670000D03*
D32*
X153100000Y-100700000D03*
X153100000Y-101700000D03*
D23*
X124450000Y-151100000D03*
X122550000Y-151100000D03*
D25*
X150000000Y-161250000D03*
D27*
X133100000Y-161650000D03*
X133100000Y-163550000D03*
D25*
X120750000Y-158250000D03*
D24*
X140900000Y-166875000D03*
X140900000Y-164975000D03*
X144700000Y-166850000D03*
X144700000Y-164950000D03*
D25*
X150000000Y-141500000D03*
D24*
X149100000Y-152300000D03*
X149100000Y-150400000D03*
D23*
X131700000Y-150325000D03*
X129800000Y-150325000D03*
D33*
X126875000Y-165037500D03*
X126875000Y-166862500D03*
D30*
X123300000Y-149100000D03*
X125200000Y-149100000D03*
D24*
X138900000Y-166875000D03*
X138900000Y-164975000D03*
D30*
X123350000Y-155100000D03*
X125250000Y-155100000D03*
D23*
X131750000Y-154325000D03*
X129850000Y-154325000D03*
D27*
X133300000Y-136800000D03*
X133300000Y-138700000D03*
D30*
X138310000Y-149610000D03*
X140210000Y-149610000D03*
D23*
X129950000Y-146300000D03*
X128050000Y-146300000D03*
X130000000Y-144300000D03*
X128100000Y-144300000D03*
D24*
X136900000Y-163550000D03*
X136900000Y-161650000D03*
D27*
X123000000Y-134175000D03*
X123000000Y-136075000D03*
D24*
X146900000Y-139650000D03*
X146900000Y-137750000D03*
D30*
X138310000Y-147630000D03*
X140210000Y-147630000D03*
D27*
X131100000Y-137575000D03*
X131100000Y-139475000D03*
D30*
X138310000Y-155610000D03*
X140210000Y-155610000D03*
D24*
X138990000Y-139650000D03*
X138990000Y-137750000D03*
D25*
X150000000Y-145000000D03*
D34*
X124975000Y-134425000D03*
X127125000Y-134425000D03*
X127125000Y-135975000D03*
X124975000Y-135975000D03*
D30*
X139920000Y-141670000D03*
X141820000Y-141670000D03*
X140000000Y-159600000D03*
X141900000Y-159600000D03*
D23*
X146650000Y-149100000D03*
X144750000Y-149100000D03*
D35*
X153700000Y-99512500D03*
X153700000Y-97687500D03*
D32*
X152300000Y-100700000D03*
X152300000Y-101700000D03*
D35*
X142930000Y-139612500D03*
X142930000Y-137787500D03*
D24*
X124875000Y-166900000D03*
X124875000Y-165000000D03*
D27*
X122875000Y-165000000D03*
X122875000Y-166900000D03*
D25*
X150000000Y-157000000D03*
D23*
X131750000Y-152325000D03*
X129850000Y-152325000D03*
D35*
X151700000Y-99512500D03*
X151700000Y-97687500D03*
D23*
X130000000Y-158270000D03*
X128100000Y-158270000D03*
X130000000Y-162270000D03*
X128100000Y-162270000D03*
X129950000Y-142300000D03*
X128050000Y-142300000D03*
D27*
X146700000Y-164950000D03*
X146700000Y-166850000D03*
D33*
X127100000Y-137725000D03*
X127100000Y-139550000D03*
D27*
X129100000Y-137575000D03*
X129100000Y-139475000D03*
D36*
X137487500Y-133500000D03*
X143712500Y-133500000D03*
D25*
X120800000Y-148200000D03*
D27*
X130875000Y-165000000D03*
X130875000Y-166900000D03*
D30*
X138310000Y-153610000D03*
X140210000Y-153610000D03*
D24*
X137000000Y-142200000D03*
X137000000Y-140300000D03*
D25*
X120750000Y-137950000D03*
D27*
X125100000Y-137675000D03*
X125100000Y-139575000D03*
D30*
X145450000Y-151100000D03*
X147350000Y-151100000D03*
D27*
X133100000Y-140300000D03*
X133100000Y-142200000D03*
D25*
X150000000Y-164250000D03*
D24*
X136700000Y-138700000D03*
X136700000Y-136800000D03*
D30*
X138260000Y-151610000D03*
X140160000Y-151610000D03*
D25*
X120750000Y-162750000D03*
D23*
X124450000Y-153100000D03*
X122550000Y-153100000D03*
D37*
X168030000Y-76500000D03*
X165420000Y-78320000D03*
X123000000Y-136900000D03*
X124750000Y-92000000D03*
X127820600Y-134496163D03*
X109500000Y-92000000D03*
X112500000Y-93000000D03*
X159500000Y-80250000D03*
X108500000Y-92000000D03*
X123750000Y-109000000D03*
X143500000Y-146000000D03*
X141500000Y-107100000D03*
X156500000Y-108000000D03*
X128500000Y-160000000D03*
X124225000Y-166900000D03*
X128500000Y-158000000D03*
X144500000Y-146000000D03*
X113500000Y-93000000D03*
X140800000Y-167825000D03*
X125500000Y-158000000D03*
X156500000Y-104000000D03*
X156500000Y-102000000D03*
X145300000Y-132500000D03*
X110500000Y-93000000D03*
X140210000Y-148906900D03*
X141500000Y-144000000D03*
X125750000Y-91000000D03*
X110750000Y-108125000D03*
X156500000Y-95000000D03*
X134500000Y-151700000D03*
X124100000Y-137950000D03*
X153300000Y-102300000D03*
X141400000Y-159000000D03*
X142500000Y-145000000D03*
X141400000Y-161000000D03*
X175926315Y-90843089D03*
X141400000Y-158000000D03*
X155500000Y-109000000D03*
X156500000Y-99000000D03*
X128500000Y-145000000D03*
X155500000Y-101000000D03*
X126750000Y-91000000D03*
X148493168Y-153340990D03*
X107750000Y-108125000D03*
X94150000Y-94290000D03*
X156700000Y-86450000D03*
X126500000Y-161000000D03*
X155500000Y-98000000D03*
X114750000Y-108125000D03*
X126500000Y-158000000D03*
X120982221Y-88922537D03*
X171776315Y-97563089D03*
X155500000Y-94000000D03*
X107750000Y-107125000D03*
X144240171Y-158071787D03*
X155500000Y-99000000D03*
X140500000Y-100500000D03*
X156500000Y-100000000D03*
X122750000Y-91000000D03*
X124750000Y-91000000D03*
X142500000Y-143000000D03*
X109750000Y-108125000D03*
X175126315Y-97543089D03*
X155500000Y-108000000D03*
X119845000Y-73530000D03*
X127750000Y-92000000D03*
X141500000Y-143000000D03*
X141500000Y-98500000D03*
X111750000Y-108125000D03*
X97250000Y-84190000D03*
X122750000Y-109000000D03*
X146280330Y-132500000D03*
X113865841Y-82700841D03*
X124750000Y-109000000D03*
X144300000Y-86550000D03*
X142400000Y-158000000D03*
X147370000Y-154420000D03*
X142400000Y-161000000D03*
X141400000Y-160000000D03*
X155500000Y-106000000D03*
X113750000Y-108125000D03*
X141500000Y-145000000D03*
X125750000Y-92000000D03*
X156500000Y-98000000D03*
X122750000Y-108000000D03*
X127500000Y-144000000D03*
X141500000Y-109100000D03*
X162026315Y-90763089D03*
X106750000Y-107125000D03*
X129940000Y-140440000D03*
X127500000Y-160000000D03*
X141000000Y-137000000D03*
X141500000Y-146000000D03*
X129175000Y-167700000D03*
X112750000Y-107125000D03*
X144240171Y-161065500D03*
X155500000Y-97000000D03*
X142400000Y-160000000D03*
X127750000Y-109000000D03*
X127500000Y-161000000D03*
X114750000Y-107125000D03*
X146863165Y-150520505D03*
X140500000Y-102500000D03*
X172901315Y-90888089D03*
X156500000Y-109000000D03*
X128500000Y-161000000D03*
X124750000Y-108000000D03*
X126750000Y-92000000D03*
X127535500Y-82483000D03*
X140500000Y-98500000D03*
X110500000Y-92000000D03*
X170326315Y-93263089D03*
X112750000Y-108125000D03*
X108750000Y-107125000D03*
X125500000Y-146000000D03*
X108750000Y-108125000D03*
X126500000Y-146000000D03*
X111500000Y-93000000D03*
X155500000Y-96000000D03*
X141500000Y-100500000D03*
X123750000Y-108000000D03*
X108500000Y-93000000D03*
X155500000Y-105000000D03*
X128500000Y-143000000D03*
X164599462Y-91758444D03*
X128500000Y-146000000D03*
X127500000Y-159000000D03*
X153681250Y-86068750D03*
X113750000Y-107125000D03*
X122750000Y-92000000D03*
X140500000Y-101500000D03*
X147350000Y-152100000D03*
X112500000Y-92000000D03*
X128500000Y-144000000D03*
X141500000Y-108100000D03*
X114500000Y-93000000D03*
X114500000Y-92000000D03*
X125500000Y-161000000D03*
X109500000Y-93000000D03*
X123277592Y-153827592D03*
X125750000Y-109000000D03*
X156500000Y-97000000D03*
X146280330Y-133500000D03*
X105750000Y-107125000D03*
X140500000Y-97500000D03*
X134591609Y-152669812D03*
X127750000Y-91000000D03*
X141500000Y-99500000D03*
X156500000Y-96000000D03*
X143500000Y-143000000D03*
X145300000Y-134500000D03*
X128500000Y-159000000D03*
X141500000Y-97500000D03*
X127500000Y-158000000D03*
X156500000Y-101000000D03*
X127750000Y-108000000D03*
X163941143Y-94915092D03*
X155500000Y-100000000D03*
X128920600Y-136815430D03*
X126750000Y-108000000D03*
X110750000Y-107125000D03*
X125750000Y-108000000D03*
X142500000Y-146000000D03*
X111750000Y-107125000D03*
X141500000Y-102500000D03*
X142400000Y-159000000D03*
X140500000Y-107100000D03*
X143400000Y-161000000D03*
X122550000Y-149850000D03*
X141500000Y-101500000D03*
X156500000Y-107000000D03*
X122550000Y-152050000D03*
X155500000Y-103000000D03*
X156500000Y-94000000D03*
X127500000Y-143000000D03*
X146280330Y-134500000D03*
X146109038Y-137879281D03*
X125500000Y-143000000D03*
X135500000Y-151700000D03*
X146900000Y-76625000D03*
X144500000Y-143000000D03*
X140500000Y-99500000D03*
X145300000Y-133500000D03*
X106750000Y-108125000D03*
X156500000Y-103000000D03*
X155500000Y-104000000D03*
X170270000Y-83100000D03*
X143400000Y-158000000D03*
X123750000Y-91000000D03*
X111500000Y-92000000D03*
X122970000Y-75405000D03*
X149300000Y-149399998D03*
X105750000Y-108125000D03*
X155500000Y-107000000D03*
X161648215Y-95584989D03*
X113500000Y-92000000D03*
X123750000Y-92000000D03*
X155500000Y-102000000D03*
X126500000Y-143000000D03*
X145750000Y-166850000D03*
X156500000Y-105000000D03*
X155500000Y-95000000D03*
X109750000Y-107125000D03*
X93875000Y-91090000D03*
X142500000Y-144000000D03*
X126750000Y-109000000D03*
X127500000Y-145000000D03*
X127500000Y-146000000D03*
X156500000Y-106000000D03*
X135500000Y-152700000D03*
X140500000Y-109100000D03*
X140500000Y-108100000D03*
X123500000Y-140700000D03*
X147800000Y-136400000D03*
X126075000Y-166050000D03*
X145747744Y-150147606D03*
X145577063Y-154068184D03*
X124200000Y-134400000D03*
X146300000Y-163500000D03*
X165775680Y-93472454D03*
X123270000Y-163430000D03*
X176989404Y-97406178D03*
X124430792Y-154060158D03*
X146700000Y-140600000D03*
X168826315Y-95563085D03*
X162949074Y-93472445D03*
X124462168Y-150211447D03*
X139500000Y-145000000D03*
X131500000Y-143000000D03*
X145500000Y-113500000D03*
X132500000Y-143000000D03*
X137500000Y-161000000D03*
X135800000Y-132500000D03*
X148500000Y-112500000D03*
X132500000Y-146000000D03*
X146500000Y-112500000D03*
X130500000Y-158000000D03*
X131500000Y-144000000D03*
X148500000Y-111500000D03*
X138500000Y-161000000D03*
X130500000Y-146000000D03*
X151500000Y-110500000D03*
X130500000Y-143000000D03*
X139500000Y-144000000D03*
X131500000Y-146000000D03*
X130500000Y-144000000D03*
X130500000Y-161000000D03*
X134800000Y-132500000D03*
X132822409Y-154742409D03*
X137500000Y-158000000D03*
X151500000Y-112500000D03*
X130500000Y-145000000D03*
X150500000Y-110500000D03*
X139500000Y-146000000D03*
X147500000Y-110500000D03*
X131500000Y-159000000D03*
X132500000Y-161000000D03*
X139500000Y-159000000D03*
X152300000Y-102300000D03*
X137500000Y-143000000D03*
X131500000Y-160000000D03*
X132492614Y-158021114D03*
X150500000Y-111500000D03*
X132500000Y-159000000D03*
X147500000Y-111500000D03*
X135800000Y-133500000D03*
X145500000Y-110500000D03*
X139500000Y-161000000D03*
X150500000Y-112500000D03*
X138500000Y-146000000D03*
X139500000Y-143000000D03*
X130500000Y-159000000D03*
X149500000Y-111500000D03*
X138002966Y-156459688D03*
X145500000Y-111500000D03*
X138500000Y-145000000D03*
X132500000Y-144000000D03*
X137500000Y-160000000D03*
X138500000Y-158000000D03*
X131500000Y-161000000D03*
X138500000Y-159000000D03*
X149500000Y-112500000D03*
X147500000Y-112500000D03*
X138500000Y-144000000D03*
X137500000Y-146000000D03*
X146500000Y-110500000D03*
X131500000Y-158000000D03*
X150500000Y-113500000D03*
X131500000Y-145000000D03*
X134800000Y-134500000D03*
X147500000Y-113500000D03*
X130500000Y-160000000D03*
X139500000Y-160000000D03*
X137500000Y-159000000D03*
X138500000Y-143000000D03*
X148500000Y-113500000D03*
X137500000Y-144000000D03*
X145500000Y-112500000D03*
X135800000Y-134500000D03*
X148500000Y-110500000D03*
X146500000Y-113500000D03*
X137500000Y-145000000D03*
X138500000Y-160000000D03*
X139500000Y-158000000D03*
X146500000Y-111500000D03*
X151500000Y-111500000D03*
X134800000Y-133500000D03*
X149500000Y-113500000D03*
X132500000Y-145000000D03*
X151500000Y-113500000D03*
X149500000Y-110500000D03*
X132500000Y-160000000D03*
X122250000Y-105250000D03*
X117242408Y-84468969D03*
X145000000Y-140600000D03*
X125232223Y-140767777D03*
X148400000Y-129700000D03*
X144750000Y-155780000D03*
X125250000Y-155700000D03*
X126400000Y-130599986D03*
X144750000Y-148220000D03*
X124849875Y-163380125D03*
X144918635Y-163500311D03*
X173526315Y-97663089D03*
X125178448Y-148323878D03*
X160626315Y-94363089D03*
X129700000Y-127700000D03*
X165376485Y-95063255D03*
X130800000Y-127952400D03*
X131900000Y-128547600D03*
X170226315Y-97863089D03*
X127400000Y-136660600D03*
X128180000Y-138531410D03*
X94250000Y-99590000D03*
X93750000Y-88190000D03*
X130369998Y-138380002D03*
X139500000Y-163875000D03*
X131500000Y-140600000D03*
X138500000Y-163800000D03*
X132246326Y-141243141D03*
X138160468Y-162755085D03*
X132540000Y-156620000D03*
X130985412Y-152188552D03*
X137540000Y-147710000D03*
X138960000Y-153354882D03*
X130694079Y-151281802D03*
X97050000Y-79090000D03*
X159200000Y-88400000D03*
X145170000Y-73620000D03*
X140900000Y-87400000D03*
X148500000Y-89100000D03*
X165700000Y-91043089D03*
X146600000Y-87000000D03*
X155900000Y-83547600D03*
X155640000Y-80400000D03*
X145400000Y-77941200D03*
X149500003Y-153999997D03*
X177176315Y-91043089D03*
X171776315Y-91163089D03*
X161000000Y-89643089D03*
X141600000Y-86400000D03*
X170126315Y-91163089D03*
X159400000Y-92100000D03*
X159000000Y-73478600D03*
X141900000Y-70700000D03*
X139148638Y-152336741D03*
X130277581Y-149761718D03*
X139490000Y-151051790D03*
X138100000Y-141250000D03*
X138990229Y-140600000D03*
X140310000Y-138880000D03*
X107399998Y-96700000D03*
X102900000Y-96700000D03*
X96850000Y-91190000D03*
X129360000Y-86850000D03*
X109535000Y-87865000D03*
X124370000Y-83870000D03*
X128000000Y-94500000D03*
X123870000Y-85005000D03*
X121500000Y-92500000D03*
X122170000Y-85903100D03*
X122500000Y-93500000D03*
X117175000Y-81375000D03*
X117175000Y-80350000D03*
X118470000Y-85405000D03*
X121250000Y-99250000D03*
X130011041Y-79050267D03*
X143782500Y-94441447D03*
X119970000Y-85805000D03*
X127750000Y-106750000D03*
X142732500Y-94441447D03*
X130011041Y-80100267D03*
X142750000Y-103999984D03*
X114094292Y-76474361D03*
X122021746Y-79204474D03*
X114830000Y-79980000D03*
X143795000Y-104000000D03*
X113351828Y-77216825D03*
X128114200Y-154097508D03*
X141779550Y-149833698D03*
X142118241Y-140394259D03*
X127598100Y-165018336D03*
X121500000Y-138800000D03*
X121800000Y-140700000D03*
X142750000Y-166000000D03*
X143866379Y-163482759D03*
X126594973Y-148362102D03*
X143698100Y-155570000D03*
X143291198Y-148646847D03*
X143544750Y-149647189D03*
X143650000Y-140700000D03*
X132740000Y-162701900D03*
X131798100Y-163875000D03*
X130610698Y-163830960D03*
X126750000Y-155500000D03*
X126623182Y-151891654D03*
X125901745Y-163388164D03*
X150200000Y-78400000D03*
X135900000Y-80900000D03*
X137900000Y-81100000D03*
X151300000Y-78100000D03*
X171500000Y-86900000D03*
X151600000Y-82750000D03*
X169000000Y-87000000D03*
X152300000Y-83650000D03*
X149340000Y-77980000D03*
X134200000Y-78680000D03*
X148833270Y-78920600D03*
X117126659Y-83326659D03*
X135200000Y-79379400D03*
X126912066Y-83853161D03*
X153400000Y-79900000D03*
X160000000Y-82500000D03*
X159515000Y-83415000D03*
X152945138Y-81099381D03*
X151803986Y-81170600D03*
X158244886Y-83260645D03*
D38*
X169930000Y-77657500D02*
X168840100Y-78747400D01*
X168840100Y-78747400D02*
X165847400Y-78747400D01*
X165847400Y-78747400D02*
X165420000Y-78320000D01*
D39*
X168030000Y-77657500D02*
X168030000Y-76500000D01*
X168980000Y-75782500D02*
X168980000Y-73460000D01*
X168980000Y-73460000D02*
X168920000Y-73400000D01*
X140240000Y-149593690D02*
X140233001Y-149586691D01*
D40*
X128950000Y-137725000D02*
X127100000Y-137725000D01*
X146900000Y-137750000D02*
X144900000Y-137750000D01*
X146863165Y-150613165D02*
X146863165Y-150520505D01*
D39*
X153300000Y-101900000D02*
X153100000Y-101700000D01*
D40*
X129100000Y-137575000D02*
X128950000Y-137725000D01*
X147350000Y-151100000D02*
X147350000Y-153100000D01*
D39*
X149200000Y-150350000D02*
X149200000Y-149500000D01*
D40*
X122550000Y-153100000D02*
X123277592Y-153827592D01*
D39*
X153300000Y-102300000D02*
X153300000Y-101900000D01*
X149300000Y-149400000D02*
X149300000Y-149399998D01*
D40*
X129100000Y-136994830D02*
X128920600Y-136815430D01*
X147350000Y-151100000D02*
X146863165Y-150613165D01*
X123350000Y-153900000D02*
X123277592Y-153827592D01*
X129075000Y-166900000D02*
X129075000Y-167600000D01*
D38*
X129750000Y-148325000D02*
X129750000Y-148000000D01*
D39*
X140900000Y-167725000D02*
X140800000Y-167825000D01*
D40*
X122550000Y-151100000D02*
X122550000Y-149850000D01*
X127125000Y-134500000D02*
X127816763Y-134500000D01*
X129075000Y-167600000D02*
X129175000Y-167700000D01*
X123000000Y-136300000D02*
X123000000Y-137750000D01*
X122550000Y-149850000D02*
X123300000Y-149100000D01*
X125150000Y-137725000D02*
X125100000Y-137675000D01*
X147350000Y-154400000D02*
X147370000Y-154420000D01*
X123000000Y-137750000D02*
X123200000Y-137950000D01*
X146650000Y-155100000D02*
X147330000Y-154420000D01*
D38*
X129750000Y-148000000D02*
X128050000Y-146300000D01*
D40*
X127816763Y-134500000D02*
X127820600Y-134496163D01*
X129100000Y-137750000D02*
X129100000Y-136994830D01*
X141000000Y-137750000D02*
X141000000Y-137000000D01*
X122550000Y-153100000D02*
X122550000Y-151100000D01*
X147350000Y-153100000D02*
X147350000Y-154400000D01*
D39*
X129750000Y-148774380D02*
X129744931Y-148769311D01*
D40*
X146650000Y-149100000D02*
X146650000Y-150307340D01*
X123175000Y-166900000D02*
X125175000Y-166900000D01*
X123350000Y-155100000D02*
X123350000Y-153900000D01*
X125300000Y-137950000D02*
X123200000Y-137950000D01*
X147330000Y-154420000D02*
X147370000Y-154420000D01*
X127100000Y-137725000D02*
X125150000Y-137725000D01*
D39*
X149200000Y-149500000D02*
X149300000Y-149400000D01*
X140900000Y-166875000D02*
X140900000Y-167725000D01*
D40*
X146650000Y-150307340D02*
X146863165Y-150520505D01*
X144700000Y-166850000D02*
X146700000Y-166850000D01*
D41*
X168826315Y-95563085D02*
X167866311Y-95563085D01*
X176989404Y-97406178D02*
X176989404Y-95526178D01*
X147800000Y-136400000D02*
X147800000Y-135000000D01*
X165775671Y-93472445D02*
X165775680Y-93472454D01*
D39*
X123175000Y-165000000D02*
X123245000Y-164930000D01*
X145450000Y-153941121D02*
X145577063Y-154068184D01*
D41*
X151800000Y-131000000D02*
X164800000Y-118000000D01*
D39*
X123500000Y-140150000D02*
X123200000Y-139850000D01*
X123500000Y-140700000D02*
X123500000Y-140150000D01*
D41*
X176989404Y-95526178D02*
X176226315Y-94763089D01*
X167866311Y-95563085D02*
X165775680Y-93472454D01*
X169626311Y-94763089D02*
X168826315Y-95563085D01*
D39*
X146700000Y-139850000D02*
X146900000Y-139650000D01*
X124450000Y-151100000D02*
X124450000Y-150223615D01*
D41*
X176788794Y-97406178D02*
X176989404Y-97406178D01*
X146700000Y-131000000D02*
X151800000Y-131000000D01*
D39*
X124450000Y-154040950D02*
X124430792Y-154060158D01*
X146300000Y-164000000D02*
X146300000Y-164550000D01*
D41*
X164800000Y-109900000D02*
X169875000Y-104825000D01*
X127729740Y-131000000D02*
X124329740Y-134400000D01*
D40*
X124875000Y-134400000D02*
X124975000Y-134500000D01*
D39*
X123245000Y-164930000D02*
X123245000Y-163980000D01*
X126100000Y-153100000D02*
X124450000Y-153100000D01*
X145450000Y-150445350D02*
X145747744Y-150147606D01*
X123270000Y-163430000D02*
X123270000Y-163955000D01*
D41*
X176226315Y-94763089D02*
X169626311Y-94763089D01*
D39*
X143812500Y-151100000D02*
X145450000Y-151100000D01*
X146300000Y-164550000D02*
X146700000Y-164950000D01*
D41*
X164800000Y-118000000D02*
X164800000Y-109900000D01*
X173295582Y-101100000D02*
X176989404Y-97406178D01*
D40*
X124975000Y-136050000D02*
X124975000Y-134500000D01*
D41*
X169875000Y-101100000D02*
X173295582Y-101100000D01*
D39*
X145450000Y-153100000D02*
X145450000Y-153941121D01*
X124450000Y-153100000D02*
X124450000Y-154040950D01*
X145450000Y-151100000D02*
X145450000Y-150445350D01*
D40*
X142900000Y-137787500D02*
X144287500Y-136400000D01*
D39*
X146700000Y-140600000D02*
X146700000Y-139850000D01*
X126875000Y-166850000D02*
X126075000Y-166050000D01*
D40*
X123000000Y-134400000D02*
X124875000Y-134400000D01*
D39*
X124450000Y-150223615D02*
X124462168Y-150211447D01*
D41*
X124329740Y-134400000D02*
X124200000Y-134400000D01*
X176989404Y-97600000D02*
X176989404Y-97406178D01*
X147800000Y-135000000D02*
X151800000Y-131000000D01*
X162949074Y-93472445D02*
X165775671Y-93472445D01*
D39*
X123270000Y-163955000D02*
X123245000Y-163980000D01*
X126875000Y-166862500D02*
X126875000Y-166850000D01*
D40*
X144287500Y-136400000D02*
X147800000Y-136400000D01*
D41*
X146700000Y-131000000D02*
X127729740Y-131000000D01*
X169875000Y-104825000D02*
X169875000Y-101100000D01*
D39*
X140210000Y-147630000D02*
X140210000Y-146710000D01*
X140210000Y-146710000D02*
X139500000Y-146000000D01*
X132820000Y-154740000D02*
X132822409Y-154742409D01*
X129860000Y-157360000D02*
X130500000Y-158000000D01*
X132165000Y-154740000D02*
X132820000Y-154740000D01*
X131750000Y-154325000D02*
X132165000Y-154740000D01*
X152300000Y-102300000D02*
X152300000Y-101700000D01*
X138243600Y-155100000D02*
X138243600Y-156219054D01*
X138243600Y-156219054D02*
X138002966Y-156459688D01*
X129860000Y-156310000D02*
X129860000Y-157360000D01*
X125250000Y-155100000D02*
X125250000Y-155700000D01*
X145000000Y-140600000D02*
X145000000Y-139750000D01*
X125200000Y-148345430D02*
X125178448Y-148323878D01*
D41*
X126400000Y-130599986D02*
X127299986Y-129700000D01*
X163353685Y-109246315D02*
X168605000Y-103995000D01*
D39*
X125175000Y-164280250D02*
X124824875Y-163930125D01*
D41*
X163300000Y-109246315D02*
X163353685Y-109246315D01*
X168605000Y-103995000D02*
X168605000Y-101100000D01*
D39*
X125200000Y-149100000D02*
X125200000Y-148345430D01*
D41*
X168605000Y-100065200D02*
X169470200Y-99200000D01*
D39*
X125300000Y-140700000D02*
X125232223Y-140767777D01*
X144750000Y-154800000D02*
X144750000Y-155780000D01*
X125175000Y-165000000D02*
X125175000Y-164280250D01*
X145000000Y-139750000D02*
X144900000Y-139650000D01*
D41*
X171989404Y-99200000D02*
X173526315Y-97663089D01*
X168605000Y-101100000D02*
X168605000Y-100065200D01*
X127299986Y-129700000D02*
X148400000Y-129700000D01*
X148400000Y-129700000D02*
X151000000Y-129700000D01*
D39*
X144750000Y-149400000D02*
X144750000Y-148220000D01*
X125300000Y-139850000D02*
X125300000Y-140700000D01*
D41*
X163300000Y-117400000D02*
X163300000Y-109246315D01*
D39*
X124849875Y-163905125D02*
X124824875Y-163930125D01*
X144700000Y-164950000D02*
X144918635Y-164731365D01*
X124849875Y-163380125D02*
X124849875Y-163905125D01*
D41*
X169470200Y-99200000D02*
X171989404Y-99200000D01*
X151000000Y-129700000D02*
X163300000Y-117400000D01*
D39*
X144918635Y-164731365D02*
X144918635Y-164000311D01*
D38*
X160690400Y-94427174D02*
X160626315Y-94363089D01*
X160500000Y-108000000D02*
X164800000Y-103700000D01*
X160626315Y-96931315D02*
X160626315Y-94363089D01*
X129700000Y-127700000D02*
X130500000Y-126900000D01*
X164800000Y-103700000D02*
X164795000Y-103695000D01*
X149902360Y-126900000D02*
X160500000Y-116302360D01*
X160500000Y-116302360D02*
X160500000Y-108000000D01*
X130500000Y-126900000D02*
X149902360Y-126900000D01*
X164795000Y-101100000D02*
X160626315Y-96931315D01*
X164795000Y-103695000D02*
X164795000Y-101100000D01*
X161300000Y-108450000D02*
X166065000Y-103685000D01*
X130800000Y-127952400D02*
X131052400Y-127700000D01*
X161300000Y-116600000D02*
X161300000Y-108450000D01*
X131052400Y-127700000D02*
X150200000Y-127700000D01*
X150200000Y-127700000D02*
X161300000Y-116600000D01*
X166065000Y-95751770D02*
X165376485Y-95063255D01*
X166065000Y-103685000D02*
X166065000Y-101100000D01*
X166065000Y-101100000D02*
X166065000Y-95751770D01*
X167335000Y-103565000D02*
X167335000Y-101100000D01*
X167335000Y-99965000D02*
X169436911Y-97863089D01*
X167335000Y-101100000D02*
X167335000Y-99965000D01*
X162100000Y-117000000D02*
X150600000Y-128500000D01*
X131947600Y-128500000D02*
X131900000Y-128547600D01*
X162100000Y-108800000D02*
X167335000Y-103565000D01*
X150600000Y-128500000D02*
X131947600Y-128500000D01*
X169436911Y-97863089D02*
X170226315Y-97863089D01*
X162100000Y-108800000D02*
X162100000Y-117000000D01*
D39*
X127400000Y-136660600D02*
X127400000Y-136325000D01*
X127400000Y-136325000D02*
X127125000Y-136050000D01*
X127100000Y-139611410D02*
X128180000Y-138531410D01*
X127100000Y-139725000D02*
X127100000Y-139611410D01*
D40*
X95250000Y-98590000D02*
X94250000Y-99590000D01*
X93750000Y-88190000D02*
X95250000Y-89690000D01*
X95250000Y-89690000D02*
X95250000Y-98590000D01*
X131000000Y-137750000D02*
X129100000Y-139650000D01*
D39*
X129100000Y-139650000D02*
X130369998Y-138380002D01*
D40*
X131100000Y-137750000D02*
X131000000Y-137750000D01*
D39*
X140600000Y-164975000D02*
X139500000Y-163875000D01*
X140900000Y-164975000D02*
X140600000Y-164975000D01*
D40*
X139000000Y-166875000D02*
X140900000Y-164975000D01*
X138900000Y-166875000D02*
X139000000Y-166875000D01*
D39*
X131100000Y-139475000D02*
X131100000Y-139226315D01*
D40*
X131100000Y-139475000D02*
X131100000Y-139228290D01*
D39*
X133100000Y-137226315D02*
X133100000Y-136800000D01*
D40*
X133300000Y-137028290D02*
X133300000Y-136800000D01*
D39*
X131100000Y-139226315D02*
X133100000Y-137226315D01*
X131100000Y-139650000D02*
X131100000Y-140200000D01*
X131100000Y-140200000D02*
X131500000Y-140600000D01*
D40*
X131100000Y-139228290D02*
X133300000Y-137028290D01*
D39*
X138500000Y-163800000D02*
X138500000Y-164203290D01*
D40*
X138900000Y-164975000D02*
X138900000Y-165103290D01*
X138900000Y-164603290D02*
X136500000Y-167003290D01*
X136500000Y-167003290D02*
X136500000Y-167250000D01*
D39*
X138500000Y-164203290D02*
X138900000Y-164603290D01*
X132246326Y-141243141D02*
X132246326Y-141153674D01*
X133100000Y-140300000D02*
X133100000Y-138700000D01*
X132246326Y-141153674D02*
X133100000Y-140300000D01*
D40*
X136900000Y-163550000D02*
X137365553Y-163550000D01*
X136500000Y-163950000D02*
X136900000Y-163550000D01*
X136500000Y-165350000D02*
X136500000Y-163950000D01*
X137365553Y-163550000D02*
X138160468Y-162755085D01*
D39*
X132230000Y-156310000D02*
X132540000Y-156620000D01*
X129850000Y-154325000D02*
X131750000Y-152425000D01*
X131760000Y-156310000D02*
X132230000Y-156310000D01*
X131282177Y-152482177D02*
X130988552Y-152188552D01*
X131750000Y-152425000D02*
X131750000Y-152325000D01*
X130988552Y-152188552D02*
X130985412Y-152188552D01*
X138310000Y-147630000D02*
X137620000Y-147630000D01*
X137620000Y-147630000D02*
X137540000Y-147710000D01*
X140240000Y-156126315D02*
X139430600Y-155316915D01*
X139430600Y-153825482D02*
X138960000Y-153354882D01*
X139430600Y-155316915D02*
X139430600Y-153825482D01*
X129850000Y-152325000D02*
X130694079Y-151480921D01*
X130694079Y-151480921D02*
X130694079Y-151281802D01*
X131650881Y-150325000D02*
X130694079Y-151281802D01*
X131700000Y-150325000D02*
X131650881Y-150325000D01*
D41*
X97510000Y-79090000D02*
X106300000Y-70300000D01*
D39*
X149200000Y-153699994D02*
X149500003Y-153999997D01*
D41*
X140300100Y-72299900D02*
X141900000Y-70700000D01*
X131399900Y-72299900D02*
X140300100Y-72299900D01*
X97050000Y-79090000D02*
X97510000Y-79090000D01*
D39*
X149200000Y-152250000D02*
X149200000Y-153699994D01*
D41*
X129400000Y-70300000D02*
X131399900Y-72299900D01*
X106300000Y-70300000D02*
X129400000Y-70300000D01*
D39*
X138986741Y-152336741D02*
X138260000Y-151610000D01*
X138327918Y-151681989D02*
X138188010Y-151681989D01*
X140210000Y-153564071D02*
X138327918Y-151681989D01*
X139148638Y-152336741D02*
X138986741Y-152336741D01*
X140210000Y-153610000D02*
X140210000Y-153564071D01*
X131650000Y-148389299D02*
X130277581Y-149761718D01*
X131650000Y-148325000D02*
X131650000Y-148389299D01*
X140160000Y-151460000D02*
X140160000Y-151610000D01*
X138310000Y-149610000D02*
X140160000Y-151460000D01*
D40*
X137000000Y-140300000D02*
X137000000Y-139000000D01*
X137000000Y-139000000D02*
X136700000Y-138700000D01*
D39*
X137000000Y-140300000D02*
X137000000Y-138700000D01*
X138100000Y-141250000D02*
X137950000Y-141250000D01*
X137950000Y-141250000D02*
X137000000Y-140300000D01*
D40*
X137858600Y-138271890D02*
X137858600Y-137958600D01*
D39*
X139000000Y-139650000D02*
X139000000Y-139223685D01*
X139000000Y-139650000D02*
X139000000Y-140590229D01*
X139000000Y-140590229D02*
X138990229Y-140600000D01*
D40*
X139000000Y-139413290D02*
X137858600Y-138271890D01*
X137858600Y-137958600D02*
X136700000Y-136800000D01*
D39*
X137000000Y-137223685D02*
X137000000Y-136800000D01*
D40*
X139000000Y-139650000D02*
X139000000Y-139413290D01*
X139000000Y-137750000D02*
X139100000Y-137750000D01*
X139100000Y-137750000D02*
X141000000Y-139650000D01*
D39*
X140310000Y-138960000D02*
X140310000Y-138880000D01*
X141000000Y-139650000D02*
X140310000Y-138960000D01*
D41*
X107200000Y-90200000D02*
X107200000Y-96500002D01*
X131500000Y-75200000D02*
X128300000Y-72000000D01*
X129360000Y-86850000D02*
X129254500Y-86955500D01*
X102900000Y-94500000D02*
X102900000Y-96700000D01*
X128300000Y-72000000D02*
X110400000Y-72000000D01*
X141000000Y-75200000D02*
X131500000Y-75200000D01*
X96850000Y-91190000D02*
X99590000Y-91190000D01*
X163840000Y-73585000D02*
X163840000Y-72640000D01*
X99590000Y-91190000D02*
X102900000Y-94500000D01*
X144800000Y-71400000D02*
X141000000Y-75200000D01*
X162600000Y-71400000D02*
X144800000Y-71400000D01*
X105900000Y-86204800D02*
X105900000Y-95200002D01*
X110400000Y-72000000D02*
X106480555Y-75919445D01*
X109535000Y-87865000D02*
X107200000Y-90200000D01*
X105900000Y-95200002D02*
X107399998Y-96700000D01*
X106480555Y-75919445D02*
X106952400Y-76391290D01*
X106952400Y-76391290D02*
X106952400Y-85152400D01*
X163840000Y-72640000D02*
X162600000Y-71400000D01*
X110444500Y-86955500D02*
X109535000Y-87865000D01*
X107200000Y-96500002D02*
X107399998Y-96700000D01*
X106952400Y-85152400D02*
X105900000Y-86204800D01*
X129254500Y-86955500D02*
X110444500Y-86955500D01*
D42*
X145159100Y-92800000D02*
X149500001Y-92800000D01*
X117409100Y-76425000D02*
X130025001Y-76425000D01*
X132750000Y-79149999D02*
X132750000Y-80390900D01*
X112000000Y-81100000D02*
X110375000Y-79475000D01*
X110375000Y-79475000D02*
X110375000Y-76100000D01*
X116749108Y-81100000D02*
X112000000Y-81100000D01*
X111700000Y-74775000D02*
X115759100Y-74775000D01*
X153700000Y-97500000D02*
X153700000Y-97687500D01*
X117179108Y-81530000D02*
X116749108Y-81100000D01*
X110375000Y-76100000D02*
X111700000Y-74775000D01*
X149500001Y-92800000D02*
X152925000Y-96225000D01*
X115759100Y-74775000D02*
X117409100Y-76425000D01*
X130025001Y-76425000D02*
X132750000Y-79149999D01*
X152925000Y-96225000D02*
X152925000Y-96725000D01*
X132750000Y-80390900D02*
X145159100Y-92800000D01*
X152925000Y-96725000D02*
X153700000Y-97500000D01*
X110727400Y-79329032D02*
X110727400Y-76245968D01*
X129777400Y-76777400D02*
X132397600Y-79397600D01*
X116911508Y-80747600D02*
X112145968Y-80747600D01*
X111845968Y-75127400D02*
X115613132Y-75127400D01*
X149354032Y-93152400D02*
X152475000Y-96273368D01*
X151700000Y-97500000D02*
X151700000Y-97687500D01*
X110727400Y-76245968D02*
X111845968Y-75127400D01*
X152475000Y-96725000D02*
X151700000Y-97500000D01*
X117179108Y-80480000D02*
X116911508Y-80747600D01*
X132397600Y-79397600D02*
X132397600Y-80536868D01*
X132397600Y-80536868D02*
X145013132Y-93152400D01*
X115613132Y-75127400D02*
X117263132Y-76777400D01*
X112145968Y-80747600D02*
X110727400Y-79329032D01*
X152475000Y-96273368D02*
X152475000Y-96725000D01*
X117263132Y-76777400D02*
X129777400Y-76777400D01*
X145013132Y-93152400D02*
X149354032Y-93152400D01*
X143782500Y-94441447D02*
X143482501Y-94141448D01*
X131500000Y-80250816D02*
X130997051Y-79747867D01*
X131500000Y-81540900D02*
X131500000Y-80250816D01*
X143482501Y-93523401D02*
X131500000Y-81540900D01*
X130708641Y-79747867D02*
X130011041Y-79050267D01*
X143482501Y-94141448D02*
X143482501Y-93523401D01*
X130997051Y-79747867D02*
X130708641Y-79747867D01*
X130747867Y-80100267D02*
X130011041Y-80100267D01*
X131147600Y-81686868D02*
X131147600Y-80500000D01*
X143032499Y-93571767D02*
X131147600Y-81686868D01*
X131147600Y-80500000D02*
X130747867Y-80100267D01*
X143032499Y-94141448D02*
X143032499Y-93571767D01*
X142732500Y-94441447D02*
X143032499Y-94141448D01*
X114031945Y-79575000D02*
X115526945Y-78080000D01*
X115526945Y-78080000D02*
X124681632Y-78080000D01*
X112375000Y-79575000D02*
X114031945Y-79575000D01*
X111400000Y-78600000D02*
X112375000Y-79575000D01*
X143099995Y-96498364D02*
X143099995Y-103649989D01*
X111400000Y-77100000D02*
X111400000Y-78600000D01*
X124681632Y-78080000D02*
X143099995Y-96498364D01*
X143099995Y-103649989D02*
X142750000Y-103999984D01*
X114094292Y-76474361D02*
X112025639Y-76474361D01*
X112025639Y-76474361D02*
X111400000Y-77100000D01*
D39*
X122021746Y-79204474D02*
X122018718Y-79201446D01*
X122018718Y-79201446D02*
X116628554Y-79201446D01*
X116628554Y-79201446D02*
X115850000Y-79980000D01*
X115850000Y-79980000D02*
X114830000Y-79980000D01*
D42*
X143500000Y-96400000D02*
X143500000Y-103705000D01*
X112173239Y-76826761D02*
X111752400Y-77247600D01*
X124779995Y-77679995D02*
X143500000Y-96400000D01*
X113885977Y-79222600D02*
X115428582Y-77679995D01*
X111752400Y-77247600D02*
X111752400Y-78452400D01*
X143500000Y-103705000D02*
X143795000Y-104000000D01*
X111752400Y-78452400D02*
X112522600Y-79222600D01*
X113351828Y-77216825D02*
X112961764Y-76826761D01*
X115428582Y-77679995D02*
X124779995Y-77679995D01*
X112961764Y-76826761D02*
X112173239Y-76826761D01*
X112522600Y-79222600D02*
X113885977Y-79222600D01*
D39*
X127925000Y-153100000D02*
X127925000Y-153908308D01*
X127925000Y-153908308D02*
X128114200Y-154097508D01*
X141987500Y-151100000D02*
X141779550Y-150892050D01*
X141779550Y-150892050D02*
X141779550Y-149833698D01*
X142900000Y-139612500D02*
X142118241Y-140394259D01*
X127578936Y-165037500D02*
X127598100Y-165018336D01*
X126875000Y-165037500D02*
X127578936Y-165037500D01*
X121500000Y-138700000D02*
X120750000Y-137950000D01*
X121500000Y-138800000D02*
X121500000Y-138700000D01*
X121800000Y-140700000D02*
X120850000Y-140700000D01*
X120850000Y-140700000D02*
X120750000Y-140600000D01*
X144250000Y-162000000D02*
X142750000Y-163500000D01*
X142750000Y-163500000D02*
X142750000Y-166000000D01*
X150000000Y-161250000D02*
X149350000Y-161250000D01*
X149350000Y-161250000D02*
X148600000Y-162000000D01*
X148600000Y-162000000D02*
X144250000Y-162000000D01*
X148500000Y-162750000D02*
X150000000Y-164250000D01*
X143866379Y-163482759D02*
X144599138Y-162750000D01*
X144599138Y-162750000D02*
X148500000Y-162750000D01*
X126594973Y-148094973D02*
X126100000Y-147600000D01*
X121850000Y-147600000D02*
X121250000Y-148200000D01*
X126100000Y-147600000D02*
X121850000Y-147600000D01*
X126594973Y-148362102D02*
X126594973Y-148094973D01*
X143698100Y-155948100D02*
X144750000Y-157000000D01*
X144750000Y-157000000D02*
X150000000Y-157000000D01*
X143698100Y-155570000D02*
X143698100Y-155948100D01*
X144450000Y-146750000D02*
X143291198Y-147908802D01*
X150000000Y-145000000D02*
X148250000Y-146750000D01*
X148250000Y-146750000D02*
X144450000Y-146750000D01*
X143291198Y-147908802D02*
X143291198Y-148646847D01*
X143970600Y-147829400D02*
X143970600Y-148986432D01*
X149600000Y-147350000D02*
X144450000Y-147350000D01*
X143960000Y-148997032D02*
X143960000Y-149231939D01*
X143960000Y-149231939D02*
X143544750Y-149647189D01*
X150000000Y-147750000D02*
X149600000Y-147350000D01*
X143970600Y-148986432D02*
X143960000Y-148997032D01*
X144450000Y-147350000D02*
X143970600Y-147829400D01*
X144450000Y-141500000D02*
X150000000Y-141500000D01*
X143650000Y-140700000D02*
X144450000Y-141500000D01*
D40*
X133275000Y-164300000D02*
X133075000Y-164100000D01*
X132740000Y-162701900D02*
X132740000Y-163190000D01*
X132740000Y-163190000D02*
X133100000Y-163550000D01*
X133275000Y-165900000D02*
X133275000Y-164300000D01*
X132006400Y-166531400D02*
X133275000Y-167800000D01*
D39*
X131798100Y-163875000D02*
X131075000Y-164598100D01*
D40*
X130875000Y-165000000D02*
X132006400Y-166131400D01*
X132006400Y-166131400D02*
X132006400Y-166531400D01*
D39*
X131075000Y-164598100D02*
X131075000Y-165000000D01*
X129854400Y-164220600D02*
X130221058Y-164220600D01*
D40*
X131075000Y-166900000D02*
X130975000Y-166900000D01*
X130975000Y-166900000D02*
X129075000Y-165000000D01*
D39*
X130221058Y-164220600D02*
X130610698Y-163830960D01*
X129075000Y-165000000D02*
X129854400Y-164220600D01*
X120950000Y-158250000D02*
X120750000Y-158250000D01*
X126750000Y-155500000D02*
X126750000Y-155850000D01*
X122200000Y-157000000D02*
X120950000Y-158250000D01*
X125600000Y-157000000D02*
X122200000Y-157000000D01*
X126750000Y-155850000D02*
X125600000Y-157000000D01*
X126891900Y-154387500D02*
X126029400Y-155250000D01*
X121200000Y-155500000D02*
X120750000Y-155500000D01*
X126891900Y-152160372D02*
X126891900Y-154387500D01*
X126029400Y-155250000D02*
X126029400Y-155970600D01*
X126623182Y-151891654D02*
X126891900Y-152160372D01*
X122200000Y-156500000D02*
X121200000Y-155500000D01*
X126029400Y-155970600D02*
X125500000Y-156500000D01*
X125500000Y-156500000D02*
X122200000Y-156500000D01*
X125901745Y-163388164D02*
X125213581Y-162700000D01*
X120800000Y-162700000D02*
X120750000Y-162750000D01*
X125213581Y-162700000D02*
X120800000Y-162700000D01*
D38*
X152300000Y-100700000D02*
X152300000Y-100112500D01*
X152300000Y-100112500D02*
X151700000Y-99512500D01*
X153100000Y-100112500D02*
X153700000Y-99512500D01*
X153100000Y-100700000D02*
X153100000Y-100112500D01*
X139100000Y-80100000D02*
X139000000Y-80000000D01*
X136800000Y-80000000D02*
X135900000Y-80900000D01*
X150200000Y-78400000D02*
X150200000Y-78617925D01*
X139000000Y-80000000D02*
X136800000Y-80000000D01*
X150200000Y-78617925D02*
X148717925Y-80100000D01*
X148717925Y-80100000D02*
X139100000Y-80100000D01*
X149200000Y-80900000D02*
X138100000Y-80900000D01*
X138100000Y-80900000D02*
X137900000Y-81100000D01*
X151300000Y-78100000D02*
X151300000Y-78800000D01*
X151300000Y-78800000D02*
X149200000Y-80900000D01*
X168900000Y-84300000D02*
X171500000Y-86900000D01*
X153500000Y-82750000D02*
X155050000Y-84300000D01*
X151600000Y-82750000D02*
X153500000Y-82750000D01*
X155050000Y-84300000D02*
X168900000Y-84300000D01*
X152300000Y-83650000D02*
X153100000Y-83650000D01*
X154650000Y-85200000D02*
X167200000Y-85200000D01*
X167200000Y-85200000D02*
X169000000Y-87000000D01*
X153100000Y-83650000D02*
X154650000Y-85200000D01*
D39*
X134200000Y-78680000D02*
X134220000Y-78700000D01*
X147963053Y-77980000D02*
X149340000Y-77980000D01*
X147243053Y-78700000D02*
X147963053Y-77980000D01*
X134220000Y-78700000D02*
X147243053Y-78700000D01*
X118520000Y-84260000D02*
X117586659Y-83326659D01*
X123680000Y-83050000D02*
X122470000Y-84260000D01*
X122470000Y-84260000D02*
X118520000Y-84260000D01*
X148833270Y-78920600D02*
X148374470Y-79379400D01*
X126108905Y-83050000D02*
X123680000Y-83050000D01*
X126912066Y-83853161D02*
X126108905Y-83050000D01*
X117586659Y-83326659D02*
X117126659Y-83326659D01*
X148374470Y-79379400D02*
X135200000Y-79379400D01*
X156800000Y-79300000D02*
X160000000Y-82500000D01*
X153400000Y-79900000D02*
X154000000Y-79300000D01*
X154000000Y-79300000D02*
X156800000Y-79300000D01*
X159515000Y-83415000D02*
X157199381Y-81099381D01*
X157199381Y-81099381D02*
X152945138Y-81099381D01*
X156834241Y-81850000D02*
X152483386Y-81850000D01*
X152483386Y-81850000D02*
X151803986Y-81170600D01*
X158244886Y-83260645D02*
X156834241Y-81850000D01*
G04 #@! TA.AperFunction,Conductor*
G36*
X146743039Y-132019685D02*
G01*
X146788794Y-132072489D01*
X146800000Y-132124000D01*
X146800000Y-134876000D01*
X146780315Y-134943039D01*
X146727511Y-134988794D01*
X146676000Y-135000000D01*
X142424000Y-135000000D01*
X142356961Y-134980315D01*
X142311206Y-134927511D01*
X142300000Y-134876000D01*
X142300000Y-132124000D01*
X142319685Y-132056961D01*
X142372489Y-132011206D01*
X142424000Y-132000000D01*
X146676000Y-132000000D01*
X146743039Y-132019685D01*
G37*
G04 #@! TD.AperFunction*
G04 #@! TA.AperFunction,Conductor*
G36*
X128993039Y-141969685D02*
G01*
X129038794Y-142022489D01*
X129050000Y-142074000D01*
X129050000Y-147326000D01*
X129030315Y-147393039D01*
X128977511Y-147438794D01*
X128926000Y-147450000D01*
X126535228Y-147450000D01*
X126468189Y-147430315D01*
X126447547Y-147413681D01*
X126403709Y-147369843D01*
X126387583Y-147349986D01*
X126381576Y-147340791D01*
X126353397Y-147318858D01*
X126347635Y-147313769D01*
X126344813Y-147310947D01*
X126344811Y-147310946D01*
X126325705Y-147297304D01*
X126289457Y-147269091D01*
X126282157Y-147263409D01*
X126275194Y-147259642D01*
X126268091Y-147256169D01*
X126268089Y-147256168D01*
X126255953Y-147252554D01*
X126215193Y-147240419D01*
X126162995Y-147222499D01*
X126155199Y-147221198D01*
X126147336Y-147220218D01*
X126094086Y-147222421D01*
X126092196Y-147222500D01*
X124174000Y-147222500D01*
X124106961Y-147202815D01*
X124061206Y-147150011D01*
X124050000Y-147098500D01*
X124050000Y-142074000D01*
X124069685Y-142006961D01*
X124122489Y-141961206D01*
X124174000Y-141950000D01*
X128926000Y-141950000D01*
X128993039Y-141969685D01*
G37*
G04 #@! TD.AperFunction*
G04 #@! TA.AperFunction,Conductor*
G36*
X143731812Y-156519685D02*
G01*
X143752452Y-156536317D01*
X144184529Y-156968395D01*
X144446289Y-157230155D01*
X144462413Y-157250010D01*
X144468424Y-157259209D01*
X144468425Y-157259210D01*
X144496597Y-157281137D01*
X144502362Y-157286228D01*
X144505185Y-157289052D01*
X144523349Y-157302020D01*
X144524294Y-157302695D01*
X144567845Y-157336592D01*
X144567847Y-157336592D01*
X144574817Y-157340365D01*
X144581906Y-157343830D01*
X144581909Y-157343831D01*
X144581911Y-157343832D01*
X144615343Y-157353784D01*
X144634805Y-157359579D01*
X144641808Y-157361983D01*
X144687006Y-157377500D01*
X144687007Y-157377500D01*
X144694799Y-157378800D01*
X144702657Y-157379780D01*
X144702660Y-157379781D01*
X144702662Y-157379780D01*
X144702663Y-157379781D01*
X144744017Y-157378070D01*
X144757804Y-157377500D01*
X145876000Y-157377500D01*
X145943039Y-157397185D01*
X145988794Y-157449989D01*
X146000000Y-157501500D01*
X146000000Y-161498500D01*
X145980315Y-161565539D01*
X145927511Y-161611294D01*
X145876000Y-161622500D01*
X144302007Y-161622500D01*
X144276563Y-161619861D01*
X144265818Y-161617608D01*
X144265813Y-161617608D01*
X144230390Y-161622023D01*
X144222713Y-161622500D01*
X144218718Y-161622500D01*
X144195549Y-161626366D01*
X144140796Y-161633191D01*
X144133217Y-161635447D01*
X144125730Y-161638017D01*
X144077192Y-161664284D01*
X144027610Y-161688523D01*
X144021172Y-161693119D01*
X144014931Y-161697977D01*
X143977553Y-161738578D01*
X143977554Y-161738579D01*
X143252451Y-162463681D01*
X143191130Y-162497166D01*
X143164772Y-162500000D01*
X141124000Y-162500000D01*
X141056961Y-162480315D01*
X141011206Y-162427511D01*
X141000000Y-162376000D01*
X141000000Y-156624000D01*
X141019685Y-156556961D01*
X141072489Y-156511206D01*
X141124000Y-156500000D01*
X143664773Y-156500000D01*
X143731812Y-156519685D01*
G37*
G04 #@! TD.AperFunction*
G04 #@! TA.AperFunction,Conductor*
G36*
X136443039Y-149519685D02*
G01*
X136488794Y-149572489D01*
X136500000Y-149624000D01*
X136500000Y-153376000D01*
X136480315Y-153443039D01*
X136427511Y-153488794D01*
X136376000Y-153500000D01*
X133624000Y-153500000D01*
X133556961Y-153480315D01*
X133511206Y-153427511D01*
X133500000Y-153376000D01*
X133500000Y-149624000D01*
X133519685Y-149556961D01*
X133572489Y-149511206D01*
X133624000Y-149500000D01*
X136376000Y-149500000D01*
X136443039Y-149519685D01*
G37*
G04 #@! TD.AperFunction*
G04 #@! TA.AperFunction,Conductor*
G36*
X128993039Y-156719685D02*
G01*
X129038794Y-156772489D01*
X129050000Y-156824000D01*
X129050000Y-162576000D01*
X129030315Y-162643039D01*
X128977511Y-162688794D01*
X128926000Y-162700000D01*
X125798809Y-162700000D01*
X125731770Y-162680315D01*
X125711128Y-162663681D01*
X125517291Y-162469844D01*
X125501165Y-162449987D01*
X125495157Y-162440791D01*
X125466977Y-162418857D01*
X125461215Y-162413768D01*
X125458394Y-162410947D01*
X125458392Y-162410946D01*
X125439286Y-162397304D01*
X125411310Y-162375530D01*
X125395738Y-162363409D01*
X125388775Y-162359642D01*
X125381672Y-162356169D01*
X125381670Y-162356168D01*
X125369534Y-162352554D01*
X125328774Y-162340419D01*
X125276576Y-162322499D01*
X125268780Y-162321198D01*
X125260917Y-162320218D01*
X125207667Y-162322421D01*
X125205777Y-162322500D01*
X124174000Y-162322500D01*
X124106961Y-162302815D01*
X124061206Y-162250011D01*
X124050000Y-162198500D01*
X124050000Y-157501500D01*
X124069685Y-157434461D01*
X124122489Y-157388706D01*
X124174000Y-157377500D01*
X125547989Y-157377500D01*
X125573434Y-157380139D01*
X125584184Y-157382393D01*
X125603864Y-157379939D01*
X125619617Y-157377977D01*
X125627293Y-157377500D01*
X125631278Y-157377500D01*
X125631281Y-157377500D01*
X125654428Y-157373637D01*
X125709203Y-157366810D01*
X125709209Y-157366806D01*
X125716780Y-157364553D01*
X125724265Y-157361983D01*
X125724269Y-157361983D01*
X125771186Y-157336592D01*
X125772807Y-157335715D01*
X125785203Y-157329654D01*
X125822389Y-157311476D01*
X125822391Y-157311473D01*
X125828823Y-157306882D01*
X125835065Y-157302023D01*
X125835071Y-157302020D01*
X125872456Y-157261408D01*
X126397545Y-156736319D01*
X126458869Y-156702834D01*
X126485227Y-156700000D01*
X128926000Y-156700000D01*
X128993039Y-156719685D01*
G37*
G04 #@! TD.AperFunction*
G04 #@! TA.AperFunction,Conductor*
G36*
X145743039Y-142019685D02*
G01*
X145788794Y-142072489D01*
X145800000Y-142124000D01*
X145800000Y-146248500D01*
X145780315Y-146315539D01*
X145727511Y-146361294D01*
X145676000Y-146372500D01*
X144502011Y-146372500D01*
X144476566Y-146369861D01*
X144465816Y-146367607D01*
X144465813Y-146367607D01*
X144430383Y-146372023D01*
X144422707Y-146372500D01*
X144418719Y-146372500D01*
X144403286Y-146375074D01*
X144395570Y-146376362D01*
X144340793Y-146383190D01*
X144333254Y-146385434D01*
X144325724Y-146388019D01*
X144277202Y-146414279D01*
X144227613Y-146438521D01*
X144221169Y-146443121D01*
X144214931Y-146447977D01*
X144177554Y-146488579D01*
X143202452Y-147463681D01*
X143141129Y-147497166D01*
X143114771Y-147500000D01*
X141084499Y-147500000D01*
X141017460Y-147480315D01*
X140971705Y-147427511D01*
X140960499Y-147376000D01*
X140960499Y-147107129D01*
X140960498Y-147107123D01*
X140954091Y-147047516D01*
X140903797Y-146912671D01*
X140903796Y-146912669D01*
X140824733Y-146807055D01*
X140800316Y-146741591D01*
X140800000Y-146732744D01*
X140800000Y-142124000D01*
X140819685Y-142056961D01*
X140872489Y-142011206D01*
X140924000Y-142000000D01*
X145676000Y-142000000D01*
X145743039Y-142019685D01*
G37*
G04 #@! TD.AperFunction*
G04 #@! TA.AperFunction,Conductor*
G36*
X129615242Y-141004204D02*
G01*
X129707635Y-141052696D01*
X129747368Y-141062489D01*
X129861014Y-141090500D01*
X129861015Y-141090500D01*
X130018985Y-141090500D01*
X130172365Y-141052696D01*
X130264757Y-141004204D01*
X130322384Y-140990000D01*
X130914259Y-140990000D01*
X130981298Y-141009685D01*
X131007074Y-141031772D01*
X131009516Y-141034529D01*
X131009517Y-141034530D01*
X131127760Y-141139283D01*
X131127762Y-141139284D01*
X131267634Y-141212696D01*
X131421014Y-141250500D01*
X131482087Y-141250500D01*
X131549126Y-141270185D01*
X131594881Y-141322989D01*
X131605182Y-141359553D01*
X131610089Y-141399959D01*
X131666106Y-141547664D01*
X131755843Y-141677671D01*
X131874086Y-141782424D01*
X131874088Y-141782425D01*
X132013960Y-141855837D01*
X132167340Y-141893641D01*
X132167341Y-141893641D01*
X132325311Y-141893641D01*
X132478691Y-141855837D01*
X132479958Y-141855172D01*
X132618566Y-141782424D01*
X132736809Y-141677671D01*
X132826546Y-141547664D01*
X132882563Y-141399959D01*
X132901604Y-141243141D01*
X132895084Y-141189444D01*
X132906544Y-141120522D01*
X132953448Y-141068736D01*
X133018180Y-141050499D01*
X133622871Y-141050499D01*
X133622872Y-141050499D01*
X133682483Y-141044091D01*
X133682488Y-141044089D01*
X133806548Y-140997818D01*
X133849881Y-140990000D01*
X136250119Y-140990000D01*
X136293452Y-140997818D01*
X136310574Y-141004204D01*
X136417517Y-141044091D01*
X136477127Y-141050500D01*
X137165271Y-141050499D01*
X137232310Y-141070183D01*
X137252952Y-141086818D01*
X137418414Y-141252280D01*
X137451899Y-141313603D01*
X137453829Y-141325013D01*
X137463762Y-141406816D01*
X137463763Y-141406821D01*
X137517179Y-141547664D01*
X137519780Y-141554523D01*
X137609517Y-141684530D01*
X137727760Y-141789283D01*
X137727762Y-141789284D01*
X137867634Y-141862696D01*
X138021014Y-141900500D01*
X138021015Y-141900500D01*
X138178985Y-141900500D01*
X138332365Y-141862696D01*
X138472240Y-141789283D01*
X138590483Y-141684530D01*
X138680220Y-141554523D01*
X138736237Y-141406818D01*
X138742880Y-141352106D01*
X138770502Y-141287929D01*
X138828436Y-141248872D01*
X138895652Y-141246657D01*
X138911244Y-141250500D01*
X139069214Y-141250500D01*
X139222594Y-141212696D01*
X139230194Y-141208707D01*
X139362469Y-141139283D01*
X139480712Y-141034530D01*
X139480715Y-141034525D01*
X139483155Y-141031772D01*
X139485448Y-141030333D01*
X139486326Y-141029556D01*
X139486455Y-141029701D01*
X139542345Y-140994646D01*
X139575970Y-140990000D01*
X140268078Y-140990000D01*
X140335117Y-141009685D01*
X140380872Y-141062489D01*
X140392059Y-141111904D01*
X140403390Y-141782425D01*
X140498458Y-147408786D01*
X140479909Y-147476149D01*
X140462214Y-147498505D01*
X140460723Y-147499997D01*
X140460723Y-147500000D01*
X139060500Y-147500000D01*
X139060499Y-147107129D01*
X139060498Y-147107123D01*
X139059571Y-147098500D01*
X139054091Y-147047517D01*
X139049935Y-147036375D01*
X139003797Y-146912671D01*
X139003793Y-146912664D01*
X138917547Y-146797455D01*
X138917544Y-146797452D01*
X138802335Y-146711206D01*
X138802328Y-146711202D01*
X138667486Y-146660910D01*
X138667485Y-146660909D01*
X138667483Y-146660909D01*
X138607873Y-146654500D01*
X138607863Y-146654500D01*
X138012129Y-146654500D01*
X138012123Y-146654501D01*
X137952516Y-146660908D01*
X137817671Y-146711202D01*
X137817664Y-146711206D01*
X137702455Y-146797452D01*
X137702452Y-146797455D01*
X137616206Y-146912664D01*
X137616202Y-146912671D01*
X137591526Y-146978833D01*
X137549655Y-147034767D01*
X137484191Y-147059184D01*
X137475344Y-147059500D01*
X137461014Y-147059500D01*
X137307634Y-147097303D01*
X137167762Y-147170715D01*
X137049516Y-147275471D01*
X136959781Y-147405475D01*
X136959780Y-147405476D01*
X136923932Y-147500000D01*
X132263195Y-147500000D01*
X132257547Y-147492455D01*
X132257544Y-147492452D01*
X132142335Y-147406206D01*
X132142328Y-147406202D01*
X132007486Y-147355910D01*
X132007485Y-147355909D01*
X132007483Y-147355909D01*
X131947873Y-147349500D01*
X131947863Y-147349500D01*
X131352129Y-147349500D01*
X131352123Y-147349501D01*
X131292516Y-147355908D01*
X131157671Y-147406202D01*
X131157664Y-147406206D01*
X131042455Y-147492452D01*
X131042452Y-147492455D01*
X131036804Y-147500000D01*
X130363195Y-147500000D01*
X130357547Y-147492455D01*
X130357544Y-147492452D01*
X130242335Y-147406206D01*
X130242328Y-147406202D01*
X130107482Y-147355908D01*
X130107483Y-147355908D01*
X130047883Y-147349501D01*
X130047881Y-147349500D01*
X130047873Y-147349500D01*
X130047865Y-147349500D01*
X129787966Y-147349500D01*
X129720927Y-147329815D01*
X129700285Y-147313181D01*
X129496445Y-147109341D01*
X129493301Y-147103584D01*
X129403390Y-141782425D01*
X129392131Y-141116095D01*
X129410680Y-141048732D01*
X129462703Y-141002092D01*
X129516113Y-140990000D01*
X129557616Y-140990000D01*
X129615242Y-141004204D01*
G37*
G04 #@! TD.AperFunction*
G04 #@! TA.AperFunction,Conductor*
G36*
X137591526Y-146978833D02*
G01*
X137549655Y-147034767D01*
X137484191Y-147059184D01*
X137475344Y-147059500D01*
X137461014Y-147059500D01*
X137307634Y-147097303D01*
X137167762Y-147170715D01*
X137049516Y-147275471D01*
X136959781Y-147405475D01*
X136959780Y-147405476D01*
X136903762Y-147553181D01*
X136884722Y-147709999D01*
X136884722Y-147710000D01*
X136903762Y-147866818D01*
X136911266Y-147886603D01*
X136959780Y-148014523D01*
X137049517Y-148144530D01*
X137167760Y-148249283D01*
X137167762Y-148249284D01*
X137307634Y-148322696D01*
X137461014Y-148360500D01*
X137563993Y-148360500D01*
X137631032Y-148380185D01*
X137663260Y-148410190D01*
X137702449Y-148462541D01*
X137702452Y-148462544D01*
X137702454Y-148462546D01*
X137720994Y-148476425D01*
X137780182Y-148520734D01*
X137822053Y-148576668D01*
X137827037Y-148646359D01*
X137793551Y-148707682D01*
X137780182Y-148719266D01*
X137702455Y-148777452D01*
X137702452Y-148777455D01*
X137616206Y-148892664D01*
X137616202Y-148892671D01*
X137565908Y-149027517D01*
X137559501Y-149087116D01*
X137559501Y-149087123D01*
X137559500Y-149087135D01*
X137559500Y-150132870D01*
X137559501Y-150132876D01*
X137565908Y-150192483D01*
X137616202Y-150327328D01*
X137616206Y-150327335D01*
X137702451Y-150442543D01*
X137702452Y-150442544D01*
X137702454Y-150442546D01*
X137768541Y-150492019D01*
X137810411Y-150547951D01*
X137815395Y-150617643D01*
X137781910Y-150678966D01*
X137768541Y-150690550D01*
X137652452Y-150777455D01*
X137566206Y-150892664D01*
X137566202Y-150892671D01*
X137515908Y-151027517D01*
X137509501Y-151087116D01*
X137509500Y-151087135D01*
X137509500Y-152132870D01*
X137509501Y-152132876D01*
X137515908Y-152192483D01*
X137566202Y-152327328D01*
X137566206Y-152327335D01*
X137652452Y-152442544D01*
X137652455Y-152442547D01*
X137768540Y-152529449D01*
X137810411Y-152585383D01*
X137815395Y-152655074D01*
X137781909Y-152716397D01*
X137768541Y-152727981D01*
X137702452Y-152777455D01*
X137616206Y-152892664D01*
X137616202Y-152892671D01*
X137565908Y-153027517D01*
X137559501Y-153087116D01*
X137559500Y-153087135D01*
X137559500Y-154132870D01*
X137559501Y-154132876D01*
X137565908Y-154192483D01*
X137616202Y-154327328D01*
X137616206Y-154327335D01*
X137702452Y-154442544D01*
X137702455Y-154442547D01*
X137817664Y-154528793D01*
X137817671Y-154528797D01*
X137862618Y-154545560D01*
X137952517Y-154579091D01*
X138012127Y-154585500D01*
X138607872Y-154585499D01*
X138667483Y-154579091D01*
X138802331Y-154528796D01*
X138854789Y-154489525D01*
X138920252Y-154465108D01*
X138988525Y-154479959D01*
X139037931Y-154529363D01*
X139053100Y-154588792D01*
X139053100Y-155264902D01*
X139050461Y-155290350D01*
X139048206Y-155301099D01*
X139052623Y-155336531D01*
X139053100Y-155344207D01*
X139053100Y-155348197D01*
X139056962Y-155371343D01*
X139063789Y-155426117D01*
X139066046Y-155433696D01*
X139068617Y-155441185D01*
X139094885Y-155489723D01*
X139119124Y-155539306D01*
X139123710Y-155545729D01*
X139128577Y-155551981D01*
X139128580Y-155551986D01*
X139169190Y-155589370D01*
X139169191Y-155589371D01*
X139423181Y-155843361D01*
X139456666Y-155904684D01*
X139459500Y-155931041D01*
X139459500Y-156132869D01*
X139459501Y-156132876D01*
X139465908Y-156192483D01*
X139516202Y-156327328D01*
X139516206Y-156327335D01*
X139602452Y-156442544D01*
X139602455Y-156442547D01*
X139717664Y-156528793D01*
X139717671Y-156528797D01*
X139762618Y-156545560D01*
X139852517Y-156579091D01*
X139912127Y-156585500D01*
X140348198Y-156585499D01*
X140415237Y-156605183D01*
X140460992Y-156657987D01*
X140472198Y-156709344D01*
X140479845Y-162845845D01*
X140460244Y-162912909D01*
X140407497Y-162958730D01*
X140355845Y-162970000D01*
X138929618Y-162970000D01*
X138862579Y-162950315D01*
X138816824Y-162897511D01*
X138806522Y-162831054D01*
X138815746Y-162755085D01*
X138815746Y-162755084D01*
X138796705Y-162598266D01*
X138775460Y-162542249D01*
X138740688Y-162450562D01*
X138650951Y-162320555D01*
X138532708Y-162215802D01*
X138532706Y-162215801D01*
X138532705Y-162215800D01*
X138392833Y-162142388D01*
X138239454Y-162104585D01*
X138239453Y-162104585D01*
X138081483Y-162104585D01*
X138081482Y-162104585D01*
X137928102Y-162142388D01*
X137788230Y-162215800D01*
X137669984Y-162320556D01*
X137580249Y-162450560D01*
X137580248Y-162450561D01*
X137524231Y-162598263D01*
X137524230Y-162598268D01*
X137518389Y-162646373D01*
X137490766Y-162710551D01*
X137482974Y-162719106D01*
X137438899Y-162763181D01*
X137377576Y-162796666D01*
X137351218Y-162799500D01*
X136377129Y-162799500D01*
X136377123Y-162799501D01*
X136317516Y-162805908D01*
X136182671Y-162856202D01*
X136182664Y-162856206D01*
X136063697Y-162945266D01*
X135998233Y-162969684D01*
X135989386Y-162970000D01*
X134010614Y-162970000D01*
X133943575Y-162950315D01*
X133936303Y-162945266D01*
X133817335Y-162856206D01*
X133817328Y-162856202D01*
X133682482Y-162805908D01*
X133682483Y-162805908D01*
X133622883Y-162799501D01*
X133622881Y-162799500D01*
X133622873Y-162799500D01*
X133622865Y-162799500D01*
X133516983Y-162799500D01*
X133449944Y-162779815D01*
X133404189Y-162727011D01*
X133393887Y-162690446D01*
X133393693Y-162688849D01*
X133376237Y-162545082D01*
X133320220Y-162397377D01*
X133230483Y-162267370D01*
X133112240Y-162162617D01*
X133112238Y-162162616D01*
X133112237Y-162162615D01*
X132972365Y-162089203D01*
X132818986Y-162051400D01*
X132818985Y-162051400D01*
X132661015Y-162051400D01*
X132661014Y-162051400D01*
X132507634Y-162089203D01*
X132367762Y-162162615D01*
X132249516Y-162267371D01*
X132159781Y-162397375D01*
X132159780Y-162397376D01*
X132103762Y-162545081D01*
X132084721Y-162701899D01*
X132084722Y-162701900D01*
X132100404Y-162831054D01*
X132088944Y-162899977D01*
X132042040Y-162951763D01*
X131977308Y-162970000D01*
X129603846Y-162970000D01*
X129536807Y-162950315D01*
X129491052Y-162897511D01*
X129479846Y-162846155D01*
X129478365Y-161657983D01*
X129472352Y-156832870D01*
X131009500Y-156832870D01*
X131009501Y-156832876D01*
X131015908Y-156892483D01*
X131066202Y-157027328D01*
X131066206Y-157027335D01*
X131152452Y-157142544D01*
X131152455Y-157142547D01*
X131267664Y-157228793D01*
X131267671Y-157228797D01*
X131312618Y-157245561D01*
X131402517Y-157279091D01*
X131462127Y-157285500D01*
X132057872Y-157285499D01*
X132117483Y-157279091D01*
X132232188Y-157236308D01*
X132301877Y-157231325D01*
X132305194Y-157232094D01*
X132307633Y-157232695D01*
X132307635Y-157232696D01*
X132461015Y-157270500D01*
X132618985Y-157270500D01*
X132772365Y-157232696D01*
X132807939Y-157214025D01*
X132912240Y-157159283D01*
X133030483Y-157054530D01*
X133120220Y-156924523D01*
X133176237Y-156776818D01*
X133195278Y-156620000D01*
X133177616Y-156474535D01*
X133176237Y-156463181D01*
X133124717Y-156327335D01*
X133120220Y-156315477D01*
X133030483Y-156185470D01*
X132912240Y-156080717D01*
X132912238Y-156080716D01*
X132912237Y-156080715D01*
X132772365Y-156007303D01*
X132611703Y-155967705D01*
X132612039Y-155966338D01*
X132555363Y-155941936D01*
X132516313Y-155883997D01*
X132510499Y-155846472D01*
X132510499Y-155787129D01*
X132510498Y-155787123D01*
X132510497Y-155787116D01*
X132504091Y-155727517D01*
X132453796Y-155592669D01*
X132453795Y-155592668D01*
X132453793Y-155592664D01*
X132367547Y-155477455D01*
X132367544Y-155477452D01*
X132252335Y-155391206D01*
X132252328Y-155391202D01*
X132117486Y-155340910D01*
X132117485Y-155340909D01*
X132117483Y-155340909D01*
X132057873Y-155334500D01*
X132057863Y-155334500D01*
X131462129Y-155334500D01*
X131462123Y-155334501D01*
X131402516Y-155340908D01*
X131267671Y-155391202D01*
X131267664Y-155391206D01*
X131152455Y-155477452D01*
X131152452Y-155477455D01*
X131066206Y-155592664D01*
X131066202Y-155592671D01*
X131015908Y-155727517D01*
X131009501Y-155787116D01*
X131009501Y-155787123D01*
X131009500Y-155787135D01*
X131009500Y-156832870D01*
X129472352Y-156832870D01*
X129470597Y-155424648D01*
X129490197Y-155357590D01*
X129542944Y-155311769D01*
X129594591Y-155300499D01*
X130147872Y-155300499D01*
X130207483Y-155294091D01*
X130342331Y-155243796D01*
X130457546Y-155157546D01*
X130543796Y-155042331D01*
X130594091Y-154907483D01*
X130600500Y-154847873D01*
X130600499Y-154159725D01*
X130620183Y-154092687D01*
X130636813Y-154072050D01*
X131332861Y-153376002D01*
X133244500Y-153376002D01*
X133250338Y-153430312D01*
X133261543Y-153481817D01*
X133261545Y-153481824D01*
X133265212Y-153495191D01*
X133268779Y-153508193D01*
X133268783Y-153508203D01*
X133318105Y-153594818D01*
X133318111Y-153594827D01*
X133353905Y-153636136D01*
X133363867Y-153647632D01*
X133396641Y-153679257D01*
X133407976Y-153685186D01*
X133458255Y-153733702D01*
X133474500Y-153795061D01*
X133474500Y-154222870D01*
X133474501Y-154222876D01*
X133480908Y-154282483D01*
X133531202Y-154417328D01*
X133531206Y-154417335D01*
X133617452Y-154532544D01*
X133617455Y-154532547D01*
X133732664Y-154618793D01*
X133732671Y-154618797D01*
X133867517Y-154669091D01*
X133867516Y-154669091D01*
X133874444Y-154669835D01*
X133927127Y-154675500D01*
X136072872Y-154675499D01*
X136132483Y-154669091D01*
X136267331Y-154618796D01*
X136382546Y-154532546D01*
X136468796Y-154417331D01*
X136519091Y-154282483D01*
X136525500Y-154222873D01*
X136525499Y-153793449D01*
X136545183Y-153726411D01*
X136588143Y-153685694D01*
X136594828Y-153681888D01*
X136632530Y-153649218D01*
X136647629Y-153636136D01*
X136647632Y-153636133D01*
X136679257Y-153603359D01*
X136725465Y-153515024D01*
X136727470Y-153508198D01*
X136735216Y-153481817D01*
X136745150Y-153447985D01*
X136755500Y-153376000D01*
X136755500Y-149624000D01*
X136749661Y-149569687D01*
X136738455Y-149518176D01*
X136731219Y-149491802D01*
X136727332Y-149484976D01*
X136681894Y-149405181D01*
X136681888Y-149405172D01*
X136636136Y-149352371D01*
X136603359Y-149320743D01*
X136515022Y-149274534D01*
X136515022Y-149274533D01*
X136447990Y-149254851D01*
X136447978Y-149254848D01*
X136376001Y-149244500D01*
X136376000Y-149244500D01*
X133624000Y-149244500D01*
X133623997Y-149244500D01*
X133569687Y-149250338D01*
X133518183Y-149261543D01*
X133518182Y-149261543D01*
X133518176Y-149261545D01*
X133507177Y-149264562D01*
X133491806Y-149268779D01*
X133491796Y-149268783D01*
X133405181Y-149318105D01*
X133405172Y-149318111D01*
X133352371Y-149363864D01*
X133320743Y-149396640D01*
X133274534Y-149484977D01*
X133274533Y-149484977D01*
X133254851Y-149552009D01*
X133254848Y-149552021D01*
X133244500Y-149623998D01*
X133244500Y-153376002D01*
X131332861Y-153376002D01*
X131372047Y-153336816D01*
X131433368Y-153303333D01*
X131459716Y-153300499D01*
X132047872Y-153300499D01*
X132107483Y-153294091D01*
X132242331Y-153243796D01*
X132357546Y-153157546D01*
X132443796Y-153042331D01*
X132494091Y-152907483D01*
X132500500Y-152847873D01*
X132500499Y-151802128D01*
X132494091Y-151742517D01*
X132487201Y-151724045D01*
X132443797Y-151607671D01*
X132443793Y-151607664D01*
X132357547Y-151492455D01*
X132241458Y-151405550D01*
X132199588Y-151349616D01*
X132194604Y-151279925D01*
X132228090Y-151218602D01*
X132241451Y-151207024D01*
X132307546Y-151157546D01*
X132393796Y-151042331D01*
X132444091Y-150907483D01*
X132450500Y-150847873D01*
X132450499Y-149802128D01*
X132444091Y-149742517D01*
X132399886Y-149623998D01*
X132393797Y-149607671D01*
X132393793Y-149607664D01*
X132307547Y-149492455D01*
X132297556Y-149484976D01*
X132267192Y-149462245D01*
X132191458Y-149405550D01*
X132149588Y-149349616D01*
X132144604Y-149279925D01*
X132178090Y-149218602D01*
X132191451Y-149207024D01*
X132257546Y-149157546D01*
X132343796Y-149042331D01*
X132394091Y-148907483D01*
X132400500Y-148847873D01*
X132400499Y-147802128D01*
X132394091Y-147742517D01*
X132376424Y-147695150D01*
X132343797Y-147607671D01*
X132343793Y-147607664D01*
X132257547Y-147492455D01*
X132257544Y-147492452D01*
X132142335Y-147406206D01*
X132142328Y-147406202D01*
X132007486Y-147355910D01*
X132007485Y-147355909D01*
X132007483Y-147355909D01*
X131947873Y-147349500D01*
X131947863Y-147349500D01*
X131352129Y-147349500D01*
X131352123Y-147349501D01*
X131292516Y-147355908D01*
X131157671Y-147406202D01*
X131157664Y-147406206D01*
X131042455Y-147492452D01*
X131042452Y-147492455D01*
X130956206Y-147607664D01*
X130956202Y-147607671D01*
X130905908Y-147742517D01*
X130899501Y-147802116D01*
X130899501Y-147802123D01*
X130899500Y-147802135D01*
X130899500Y-148554570D01*
X130879815Y-148621609D01*
X130863185Y-148642246D01*
X130786166Y-148719266D01*
X130712180Y-148793252D01*
X130650857Y-148826736D01*
X130581165Y-148821752D01*
X130525232Y-148779880D01*
X130500815Y-148714416D01*
X130500499Y-148705594D01*
X130500499Y-147802128D01*
X130494091Y-147742517D01*
X130476424Y-147695150D01*
X130443797Y-147607671D01*
X130443793Y-147607664D01*
X130357547Y-147492455D01*
X130357544Y-147492452D01*
X130242335Y-147406206D01*
X130242328Y-147406202D01*
X130107482Y-147355908D01*
X130107483Y-147355908D01*
X130047883Y-147349501D01*
X130047881Y-147349500D01*
X130047873Y-147349500D01*
X130047865Y-147349500D01*
X129787966Y-147349500D01*
X129720927Y-147329815D01*
X129700285Y-147313181D01*
X129496445Y-147109341D01*
X129462960Y-147048018D01*
X129460126Y-147021821D01*
X129460101Y-147001512D01*
X129479703Y-146934450D01*
X129490221Y-146921267D01*
X129490200Y-146920000D01*
X137613469Y-146920000D01*
X137591526Y-146978833D01*
G37*
G04 #@! TD.AperFunction*
G04 #@! TA.AperFunction,Conductor*
G36*
X140460722Y-147499996D02*
G01*
X140460722Y-147499997D01*
X140461520Y-148140497D01*
X140441919Y-148207561D01*
X140389172Y-148253381D01*
X140320026Y-148263411D01*
X140307848Y-148261049D01*
X140299023Y-148258874D01*
X140288985Y-148256400D01*
X140131015Y-148256400D01*
X140131014Y-148256400D01*
X139977634Y-148294203D01*
X139837762Y-148367615D01*
X139719516Y-148472371D01*
X139629781Y-148602375D01*
X139629780Y-148602376D01*
X139573763Y-148750078D01*
X139573762Y-148750083D01*
X139568231Y-148795638D01*
X139544402Y-148855001D01*
X139516204Y-148892668D01*
X139516202Y-148892671D01*
X139465908Y-149027517D01*
X139459501Y-149087116D01*
X139459501Y-149087123D01*
X139459500Y-149087135D01*
X139459500Y-149926273D01*
X139439815Y-149993312D01*
X139387011Y-150039067D01*
X139317853Y-150049011D01*
X139254297Y-150019986D01*
X139247840Y-150013975D01*
X139096815Y-149862949D01*
X139063333Y-149801629D01*
X139060499Y-149775271D01*
X139060499Y-149087129D01*
X139060498Y-149087123D01*
X139060497Y-149087116D01*
X139054091Y-149027517D01*
X139009321Y-148907483D01*
X139003797Y-148892671D01*
X139003793Y-148892664D01*
X138917548Y-148777456D01*
X138917546Y-148777455D01*
X138917546Y-148777454D01*
X138839815Y-148719264D01*
X138797946Y-148663333D01*
X138792962Y-148593641D01*
X138826447Y-148532318D01*
X138839808Y-148520740D01*
X138917546Y-148462546D01*
X139003796Y-148347331D01*
X139054091Y-148212483D01*
X139060500Y-148152873D01*
X139060499Y-147107128D01*
X139054091Y-147047517D01*
X139054091Y-147047516D01*
X139006531Y-146920000D01*
X140460000Y-146920000D01*
X140460722Y-147499996D01*
G37*
G04 #@! TD.AperFunction*
G04 #@! TA.AperFunction,Conductor*
G36*
X138743039Y-132019685D02*
G01*
X138788794Y-132072489D01*
X138800000Y-132124000D01*
X138800000Y-134876000D01*
X138780315Y-134943039D01*
X138727511Y-134988794D01*
X138676000Y-135000000D01*
X134424000Y-135000000D01*
X134356961Y-134980315D01*
X134311206Y-134927511D01*
X134300000Y-134876000D01*
X134300000Y-132124000D01*
X134319685Y-132056961D01*
X134372489Y-132011206D01*
X134424000Y-132000000D01*
X138676000Y-132000000D01*
X138743039Y-132019685D01*
G37*
G04 #@! TD.AperFunction*
M02*
