G04 #@! TF.GenerationSoftware,KiCad,Pcbnew,7.0.7-7.0.7~ubuntu22.04.1*
G04 #@! TF.CreationDate,2023-11-13T10:42:29+01:00*
G04 #@! TF.ProjectId,piaxe,70696178-652e-46b6-9963-61645f706362,rev?*
G04 #@! TF.SameCoordinates,Original*
G04 #@! TF.FileFunction,Paste,Top*
G04 #@! TF.FilePolarity,Positive*
%FSLAX46Y46*%
G04 Gerber Fmt 4.6, Leading zero omitted, Abs format (unit mm)*
G04 Created by KiCad (PCBNEW 7.0.7-7.0.7~ubuntu22.04.1) date 2023-11-13 10:42:29*
%MOMM*%
%LPD*%
G01*
G04 APERTURE LIST*
G04 Aperture macros list*
%AMRoundRect*
0 Rectangle with rounded corners*
0 $1 Rounding radius*
0 $2 $3 $4 $5 $6 $7 $8 $9 X,Y pos of 4 corners*
0 Add a 4 corners polygon primitive as box body*
4,1,4,$2,$3,$4,$5,$6,$7,$8,$9,$2,$3,0*
0 Add four circle primitives for the rounded corners*
1,1,$1+$1,$2,$3*
1,1,$1+$1,$4,$5*
1,1,$1+$1,$6,$7*
1,1,$1+$1,$8,$9*
0 Add four rect primitives between the rounded corners*
20,1,$1+$1,$2,$3,$4,$5,0*
20,1,$1+$1,$4,$5,$6,$7,0*
20,1,$1+$1,$6,$7,$8,$9,0*
20,1,$1+$1,$8,$9,$2,$3,0*%
G04 Aperture macros list end*
%ADD10C,0.001000*%
%ADD11RoundRect,0.002500X0.237500X-0.587500X0.237500X0.587500X-0.237500X0.587500X-0.237500X-0.587500X0*%
%ADD12RoundRect,0.017500X-0.222500X0.512500X-0.222500X-0.512500X0.222500X-0.512500X0.222500X0.512500X0*%
%ADD13RoundRect,0.147500X0.262500X0.412500X-0.262500X0.412500X-0.262500X-0.412500X0.262500X-0.412500X0*%
%ADD14RoundRect,0.150000X-0.430000X0.250000X-0.430000X-0.250000X0.430000X-0.250000X0.430000X0.250000X0*%
%ADD15RoundRect,0.147500X-0.262500X-0.412500X0.262500X-0.412500X0.262500X0.412500X-0.262500X0.412500X0*%
%ADD16RoundRect,0.147500X0.412500X-0.262500X0.412500X0.262500X-0.412500X0.262500X-0.412500X-0.262500X0*%
%ADD17RoundRect,0.150000X0.250000X0.430000X-0.250000X0.430000X-0.250000X-0.430000X0.250000X-0.430000X0*%
%ADD18RoundRect,0.000000X1.200000X0.640000X-1.200000X0.640000X-1.200000X-0.640000X1.200000X-0.640000X0*%
%ADD19RoundRect,0.147500X-0.412500X0.262500X-0.412500X-0.262500X0.412500X-0.262500X0.412500X0.262500X0*%
%ADD20R,2.240000X2.640000*%
%ADD21RoundRect,0.125000X-0.575000X0.375000X-0.575000X-0.375000X0.575000X-0.375000X0.575000X0.375000X0*%
%ADD22RoundRect,0.135000X-0.325000X-0.945000X0.325000X-0.945000X0.325000X0.945000X-0.325000X0.945000X0*%
%ADD23RoundRect,0.000000X-1.000000X-0.920000X1.000000X-0.920000X1.000000X0.920000X-1.000000X0.920000X0*%
%ADD24RoundRect,0.137500X-0.562500X0.312500X-0.562500X-0.312500X0.562500X-0.312500X0.562500X0.312500X0*%
%ADD25RoundRect,0.150000X-0.250000X-0.430000X0.250000X-0.430000X0.250000X0.430000X-0.250000X0.430000X0*%
%ADD26RoundRect,0.135000X0.325000X0.945000X-0.325000X0.945000X-0.325000X-0.945000X0.325000X-0.945000X0*%
%ADD27R,0.320000X0.520000*%
%ADD28R,1.570000X1.235000*%
%ADD29R,1.570000X1.585000*%
%ADD30R,0.490000X0.490000*%
%ADD31R,0.633600X0.176800*%
%ADD32RoundRect,0.000000X-1.400000X-1.000000X1.400000X-1.000000X1.400000X1.000000X-1.400000X1.000000X0*%
%ADD33RoundRect,0.150000X0.430000X-0.250000X0.430000X0.250000X-0.430000X0.250000X-0.430000X-0.250000X0*%
%ADD34RoundRect,0.000000X-0.268000X-0.120000X0.268000X-0.120000X0.268000X0.120000X-0.268000X0.120000X0*%
%ADD35R,3.396000X3.048000*%
%ADD36R,0.640000X0.640000*%
%ADD37R,0.224000X0.680000*%
%ADD38R,0.560000X0.224000*%
G04 APERTURE END LIST*
D10*
X233977000Y-84559000D02*
X232777000Y-84559000D01*
X232777000Y-84559000D02*
X232777000Y-83769000D01*
X232777000Y-83769000D02*
X233977000Y-83769000D01*
X233977000Y-83769000D02*
X233977000Y-84559000D01*
G36*
X233977000Y-84559000D02*
G01*
X232777000Y-84559000D01*
X232777000Y-83769000D01*
X233977000Y-83769000D01*
X233977000Y-84559000D01*
G37*
X233977000Y-81529000D02*
X232777000Y-81529000D01*
X232777000Y-81529000D02*
X232777000Y-80739000D01*
X232777000Y-80739000D02*
X233977000Y-80739000D01*
X233977000Y-80739000D02*
X233977000Y-81529000D01*
G36*
X233977000Y-81529000D02*
G01*
X232777000Y-81529000D01*
X232777000Y-80739000D01*
X233977000Y-80739000D01*
X233977000Y-81529000D01*
G37*
X233957000Y-82969000D02*
X232757000Y-82969000D01*
X232757000Y-82969000D02*
X232757000Y-82179000D01*
X232757000Y-82179000D02*
X233957000Y-82179000D01*
X233957000Y-82179000D02*
X233957000Y-82969000D01*
G36*
X233957000Y-82969000D02*
G01*
X232757000Y-82969000D01*
X232757000Y-82179000D01*
X233957000Y-82179000D01*
X233957000Y-82969000D01*
G37*
X233927000Y-86639000D02*
X232727000Y-86639000D01*
X232727000Y-86639000D02*
X232727000Y-85849000D01*
X232727000Y-85849000D02*
X233927000Y-85849000D01*
X233927000Y-85849000D02*
X233927000Y-86639000D01*
G36*
X233927000Y-86639000D02*
G01*
X232727000Y-86639000D01*
X232727000Y-85849000D01*
X233927000Y-85849000D01*
X233927000Y-86639000D01*
G37*
X231847000Y-84564000D02*
X230647000Y-84564000D01*
X230647000Y-84564000D02*
X230647000Y-83774000D01*
X230647000Y-83774000D02*
X231847000Y-83774000D01*
X231847000Y-83774000D02*
X231847000Y-84564000D01*
G36*
X231847000Y-84564000D02*
G01*
X230647000Y-84564000D01*
X230647000Y-83774000D01*
X231847000Y-83774000D01*
X231847000Y-84564000D01*
G37*
X231847000Y-81534000D02*
X230647000Y-81534000D01*
X230647000Y-81534000D02*
X230647000Y-80744000D01*
X230647000Y-80744000D02*
X231847000Y-80744000D01*
X231847000Y-80744000D02*
X231847000Y-81534000D01*
G36*
X231847000Y-81534000D02*
G01*
X230647000Y-81534000D01*
X230647000Y-80744000D01*
X231847000Y-80744000D01*
X231847000Y-81534000D01*
G37*
X231827000Y-82974000D02*
X230627000Y-82974000D01*
X230627000Y-82974000D02*
X230627000Y-82184000D01*
X230627000Y-82184000D02*
X231827000Y-82184000D01*
X231827000Y-82184000D02*
X231827000Y-82974000D01*
G36*
X231827000Y-82974000D02*
G01*
X230627000Y-82974000D01*
X230627000Y-82184000D01*
X231827000Y-82184000D01*
X231827000Y-82974000D01*
G37*
X231797000Y-86644000D02*
X230597000Y-86644000D01*
X230597000Y-86644000D02*
X230597000Y-85854000D01*
X230597000Y-85854000D02*
X231797000Y-85854000D01*
X231797000Y-85854000D02*
X231797000Y-86644000D01*
G36*
X231797000Y-86644000D02*
G01*
X230597000Y-86644000D01*
X230597000Y-85854000D01*
X231797000Y-85854000D01*
X231797000Y-86644000D01*
G37*
D11*
X175237500Y-67525000D03*
X177137500Y-67525000D03*
X176187500Y-65650000D03*
D12*
X194350000Y-66425000D03*
X193400000Y-66425000D03*
X192450000Y-66425000D03*
X192450000Y-68700000D03*
X194350000Y-68700000D03*
D13*
X183592200Y-77000000D03*
X181767200Y-77000000D03*
D14*
X185949314Y-74986937D03*
X185949314Y-76886937D03*
D13*
X177100000Y-69550000D03*
X175275000Y-69550000D03*
D15*
X185675000Y-63400000D03*
X187500000Y-63400000D03*
D16*
X189250000Y-65812500D03*
X189250000Y-63987500D03*
D17*
X186360800Y-69551337D03*
X184460800Y-69551337D03*
D18*
X191222200Y-97572300D03*
X186822200Y-97572300D03*
D19*
X184648800Y-65895637D03*
X184648800Y-67720637D03*
D20*
X192786000Y-83100000D03*
X192786000Y-90710000D03*
D19*
X186630000Y-65895637D03*
X186630000Y-67720637D03*
D21*
X189200000Y-72800000D03*
X189200000Y-75600000D03*
D22*
X179110000Y-89350000D03*
X182060000Y-89350000D03*
D23*
X187334000Y-103124000D03*
X191634000Y-103124000D03*
D24*
X179294514Y-75454837D03*
X179294514Y-78379837D03*
D19*
X178839200Y-65895637D03*
X178839200Y-67720637D03*
X175600000Y-75387500D03*
X175600000Y-77212500D03*
D25*
X199950000Y-64800000D03*
X201850000Y-64800000D03*
D26*
X187198900Y-92550000D03*
X184248900Y-92550000D03*
D19*
X180769600Y-65895637D03*
X180769600Y-67720637D03*
D17*
X197972000Y-70800000D03*
X196072000Y-70800000D03*
D27*
X204930000Y-66430000D03*
X204280000Y-66430000D03*
X203630000Y-66430000D03*
X203630000Y-68330000D03*
X204930000Y-68330000D03*
D28*
X180393900Y-83102300D03*
X178203900Y-83102300D03*
D29*
X180393900Y-85012300D03*
X178203900Y-85012300D03*
D30*
X181203900Y-81099800D03*
X179933900Y-81099800D03*
X178663900Y-81099800D03*
X177393900Y-81099800D03*
X181203900Y-86699800D03*
X179933900Y-86699800D03*
X178663900Y-86699800D03*
X177393900Y-86699800D03*
D28*
X183996100Y-84710100D03*
X186186100Y-84710100D03*
D29*
X183996100Y-82800100D03*
X186186100Y-82800100D03*
D30*
X183186100Y-86712600D03*
X184456100Y-86712600D03*
X185726100Y-86712600D03*
X186996100Y-86712600D03*
X183186100Y-81112600D03*
X184456100Y-81112600D03*
X185726100Y-81112600D03*
X186996100Y-81112600D03*
D17*
X205350000Y-70000000D03*
X203450000Y-70000000D03*
D25*
X181729700Y-79000000D03*
X183629700Y-79000000D03*
D14*
X179452000Y-71473200D03*
X179452000Y-73373200D03*
D21*
X191800000Y-72800000D03*
X191800000Y-75600000D03*
D15*
X228187500Y-63400000D03*
X230012500Y-63400000D03*
D17*
X194350000Y-64260500D03*
X192450000Y-64260500D03*
X201850000Y-70000000D03*
X199950000Y-70000000D03*
X197972000Y-64393000D03*
X196072000Y-64393000D03*
D31*
X235263000Y-86997000D03*
X235263000Y-86495000D03*
X235263000Y-85993000D03*
X235263000Y-85491000D03*
X235263000Y-84989000D03*
X235263000Y-84487000D03*
X235263000Y-83985000D03*
X235263000Y-83483000D03*
X235263000Y-82981000D03*
X235263000Y-82479000D03*
X235263000Y-81977000D03*
X235263000Y-81475000D03*
X235263000Y-80973000D03*
X235263000Y-80471000D03*
X229431000Y-80484000D03*
X229431000Y-80984000D03*
X229431000Y-81484000D03*
X229431000Y-81984000D03*
X229431000Y-82484000D03*
X229431000Y-82981000D03*
X229431000Y-83484000D03*
X229431000Y-83985000D03*
X229431000Y-84487000D03*
X229431000Y-84989000D03*
X229431000Y-85491000D03*
X229431000Y-85984000D03*
X229431000Y-86495000D03*
X229431000Y-86984000D03*
D11*
X175250000Y-73437500D03*
X177150000Y-73437500D03*
X176200000Y-71562500D03*
D16*
X191800000Y-79112500D03*
X191800000Y-77287500D03*
D13*
X209062500Y-70600000D03*
X207237500Y-70600000D03*
D32*
X176374200Y-98552000D03*
X182874200Y-98552000D03*
D25*
X203450000Y-64800000D03*
X205350000Y-64800000D03*
D17*
X194350000Y-70864500D03*
X192450000Y-70864500D03*
D33*
X182700000Y-67758137D03*
X182700000Y-65858137D03*
D22*
X179110000Y-92550000D03*
X182060000Y-92550000D03*
D26*
X187208900Y-89350000D03*
X184258900Y-89350000D03*
D34*
X231660000Y-73300000D03*
X231660000Y-73800000D03*
X231660000Y-74300000D03*
X233140000Y-74300000D03*
X233140000Y-73800000D03*
X233140000Y-73300000D03*
D35*
X186157000Y-108204000D03*
X192532000Y-108204000D03*
D16*
X189200000Y-79112500D03*
X189200000Y-77287500D03*
D12*
X197972000Y-66557500D03*
X197022000Y-66557500D03*
X196072000Y-66557500D03*
X196072000Y-68832500D03*
X197972000Y-68832500D03*
D36*
X183561714Y-72604537D03*
X182701714Y-72604537D03*
X181841714Y-72604537D03*
X183561714Y-73564537D03*
X182701714Y-73564537D03*
X181841714Y-73564537D03*
D37*
X183701714Y-71609537D03*
X183201714Y-71609537D03*
X182701714Y-71609537D03*
X182201714Y-71609537D03*
X181701714Y-71609537D03*
X181701714Y-74559537D03*
X182201714Y-74559537D03*
X182701714Y-74559537D03*
X183201714Y-74559537D03*
X183701714Y-74559537D03*
D38*
X184251714Y-72834537D03*
X181151714Y-72834537D03*
X184251714Y-73334537D03*
X181151714Y-73334537D03*
D11*
X207200000Y-68637500D03*
X209100000Y-68637500D03*
X208150000Y-66762500D03*
D13*
X184012500Y-63400000D03*
X182187500Y-63400000D03*
D17*
X182190114Y-69551337D03*
X180290114Y-69551337D03*
D14*
X185949314Y-71496937D03*
X185949314Y-73396937D03*
D15*
X207237500Y-64800000D03*
X209062500Y-64800000D03*
D27*
X200230000Y-68330000D03*
X200880000Y-68330000D03*
X201530000Y-68330000D03*
X201530000Y-66430000D03*
X200230000Y-66430000D03*
M02*
