G04 #@! TF.GenerationSoftware,KiCad,Pcbnew,7.0.7-7.0.7~ubuntu22.04.1*
G04 #@! TF.CreationDate,2023-11-13T10:42:29+01:00*
G04 #@! TF.ProjectId,piaxe,70696178-652e-46b6-9963-61645f706362,rev?*
G04 #@! TF.SameCoordinates,Original*
G04 #@! TF.FileFunction,Copper,L4,Bot*
G04 #@! TF.FilePolarity,Positive*
%FSLAX46Y46*%
G04 Gerber Fmt 4.6, Leading zero omitted, Abs format (unit mm)*
G04 Created by KiCad (PCBNEW 7.0.7-7.0.7~ubuntu22.04.1) date 2023-11-13 10:42:29*
%MOMM*%
%LPD*%
G01*
G04 APERTURE LIST*
G04 Aperture macros list*
%AMRoundRect*
0 Rectangle with rounded corners*
0 $1 Rounding radius*
0 $2 $3 $4 $5 $6 $7 $8 $9 X,Y pos of 4 corners*
0 Add a 4 corners polygon primitive as box body*
4,1,4,$2,$3,$4,$5,$6,$7,$8,$9,$2,$3,0*
0 Add four circle primitives for the rounded corners*
1,1,$1+$1,$2,$3*
1,1,$1+$1,$4,$5*
1,1,$1+$1,$6,$7*
1,1,$1+$1,$8,$9*
0 Add four rect primitives between the rounded corners*
20,1,$1+$1,$2,$3,$4,$5,0*
20,1,$1+$1,$4,$5,$6,$7,0*
20,1,$1+$1,$6,$7,$8,$9,0*
20,1,$1+$1,$8,$9,$2,$3,0*%
G04 Aperture macros list end*
G04 #@! TA.AperFunction,ComponentPad*
%ADD10R,1.700000X1.700000*%
G04 #@! TD*
G04 #@! TA.AperFunction,ComponentPad*
%ADD11O,1.700000X1.700000*%
G04 #@! TD*
G04 #@! TA.AperFunction,ComponentPad*
%ADD12C,5.600000*%
G04 #@! TD*
G04 #@! TA.AperFunction,ComponentPad*
%ADD13R,1.730000X2.030000*%
G04 #@! TD*
G04 #@! TA.AperFunction,ComponentPad*
%ADD14O,1.730000X2.030000*%
G04 #@! TD*
G04 #@! TA.AperFunction,ComponentPad*
%ADD15R,2.600000X2.600000*%
G04 #@! TD*
G04 #@! TA.AperFunction,ComponentPad*
%ADD16C,2.600000*%
G04 #@! TD*
G04 #@! TA.AperFunction,ComponentPad*
%ADD17C,0.600000*%
G04 #@! TD*
G04 #@! TA.AperFunction,SMDPad,CuDef*
%ADD18R,2.400000X1.650000*%
G04 #@! TD*
G04 #@! TA.AperFunction,SMDPad,CuDef*
%ADD19RoundRect,0.250000X0.475000X-0.250000X0.475000X0.250000X-0.475000X0.250000X-0.475000X-0.250000X0*%
G04 #@! TD*
G04 #@! TA.AperFunction,SMDPad,CuDef*
%ADD20RoundRect,0.250000X0.250000X0.475000X-0.250000X0.475000X-0.250000X-0.475000X0.250000X-0.475000X0*%
G04 #@! TD*
G04 #@! TA.AperFunction,SMDPad,CuDef*
%ADD21C,1.500000*%
G04 #@! TD*
G04 #@! TA.AperFunction,SMDPad,CuDef*
%ADD22RoundRect,0.250000X-0.250000X-0.475000X0.250000X-0.475000X0.250000X0.475000X-0.250000X0.475000X0*%
G04 #@! TD*
G04 #@! TA.AperFunction,SMDPad,CuDef*
%ADD23RoundRect,0.250000X-1.100000X0.325000X-1.100000X-0.325000X1.100000X-0.325000X1.100000X0.325000X0*%
G04 #@! TD*
G04 #@! TA.AperFunction,SMDPad,CuDef*
%ADD24RoundRect,0.250000X-0.475000X0.250000X-0.475000X-0.250000X0.475000X-0.250000X0.475000X0.250000X0*%
G04 #@! TD*
G04 #@! TA.AperFunction,SMDPad,CuDef*
%ADD25R,0.900000X1.000000*%
G04 #@! TD*
G04 #@! TA.AperFunction,SMDPad,CuDef*
%ADD26RoundRect,0.250000X0.262500X0.450000X-0.262500X0.450000X-0.262500X-0.450000X0.262500X-0.450000X0*%
G04 #@! TD*
G04 #@! TA.AperFunction,ViaPad*
%ADD27C,0.800000*%
G04 #@! TD*
G04 #@! TA.AperFunction,ViaPad*
%ADD28C,1.000000*%
G04 #@! TD*
G04 #@! TA.AperFunction,Conductor*
%ADD29C,0.254000*%
G04 #@! TD*
G04 #@! TA.AperFunction,Conductor*
%ADD30C,0.508000*%
G04 #@! TD*
G04 #@! TA.AperFunction,Conductor*
%ADD31C,0.800000*%
G04 #@! TD*
G04 #@! TA.AperFunction,Conductor*
%ADD32C,1.000000*%
G04 #@! TD*
G04 #@! TA.AperFunction,Conductor*
%ADD33C,0.400000*%
G04 #@! TD*
G04 APERTURE END LIST*
D10*
X195720000Y-74800000D03*
D11*
X198260000Y-74800000D03*
X200800000Y-74800000D03*
X203340000Y-74800000D03*
X205880000Y-74800000D03*
D12*
X215500000Y-68000000D03*
X254500000Y-62000000D03*
D13*
X207680000Y-84300000D03*
D14*
X205140000Y-84300000D03*
X202600000Y-84300000D03*
X200060000Y-84300000D03*
D10*
X181737000Y-60568000D03*
D11*
X181737000Y-58028000D03*
X184277000Y-60568000D03*
X184277000Y-58028000D03*
X186817000Y-60568000D03*
X186817000Y-58028000D03*
X189357000Y-60568000D03*
X189357000Y-58028000D03*
X191897000Y-60568000D03*
X191897000Y-58028000D03*
X194437000Y-60568000D03*
X194437000Y-58028000D03*
X196977000Y-60568000D03*
X196977000Y-58028000D03*
X199517000Y-60568000D03*
X199517000Y-58028000D03*
X202057000Y-60568000D03*
X202057000Y-58028000D03*
X204597000Y-60568000D03*
X204597000Y-58028000D03*
X207137000Y-60568000D03*
X207137000Y-58028000D03*
X209677000Y-60568000D03*
X209677000Y-58028000D03*
X212217000Y-60568000D03*
X212217000Y-58028000D03*
X214757000Y-60568000D03*
X214757000Y-58028000D03*
X217297000Y-60568000D03*
X217297000Y-58028000D03*
X219837000Y-60568000D03*
X219837000Y-58028000D03*
X222377000Y-60568000D03*
X222377000Y-58028000D03*
X224917000Y-60568000D03*
X224917000Y-58028000D03*
X227457000Y-60568000D03*
X227457000Y-58028000D03*
X229997000Y-60568000D03*
X229997000Y-58028000D03*
D12*
X248500000Y-101000000D03*
X209500000Y-107000000D03*
X215500000Y-101000000D03*
D15*
X199850000Y-97870000D03*
D16*
X199850000Y-103870000D03*
X204550000Y-100870000D03*
D12*
X248500000Y-68000000D03*
D17*
X183561714Y-72604537D03*
X181841714Y-72604537D03*
X182701714Y-73084537D03*
D18*
X182701714Y-73084537D03*
D17*
X183561714Y-73564537D03*
X181841714Y-73564537D03*
D19*
X227584000Y-79248000D03*
X227584000Y-77348000D03*
D20*
X226959200Y-81026000D03*
X225059200Y-81026000D03*
D19*
X239100000Y-79250000D03*
X239100000Y-77350000D03*
D21*
X241400000Y-75300000D03*
D22*
X224922000Y-86106000D03*
X226822000Y-86106000D03*
X229350000Y-76900000D03*
X231250000Y-76900000D03*
D19*
X233426000Y-86040000D03*
X233426000Y-84140000D03*
X229362000Y-86040000D03*
X229362000Y-84140000D03*
D20*
X239999600Y-81229200D03*
X238099600Y-81229200D03*
D23*
X223900000Y-92096800D03*
X223900000Y-95046800D03*
D20*
X233300000Y-71600000D03*
X231400000Y-71600000D03*
X226822000Y-88138000D03*
X224922000Y-88138000D03*
X230378000Y-90170000D03*
X228478000Y-90170000D03*
X240030000Y-90170000D03*
X238130000Y-90170000D03*
D19*
X237134400Y-79283600D03*
X237134400Y-77383600D03*
D24*
X245364000Y-80584000D03*
X245364000Y-82484000D03*
D19*
X225600000Y-79250000D03*
X225600000Y-77350000D03*
D20*
X235350000Y-76900000D03*
X233450000Y-76900000D03*
X240030000Y-88138000D03*
X238130000Y-88138000D03*
D23*
X233629200Y-92096800D03*
X233629200Y-95046800D03*
D19*
X235458000Y-86040000D03*
X235458000Y-84140000D03*
D25*
X243345000Y-80459000D03*
X243345000Y-82609000D03*
X241795000Y-82609000D03*
X241795000Y-80459000D03*
D23*
X227104800Y-92096800D03*
X227104800Y-95046800D03*
D19*
X231394000Y-86040000D03*
X231394000Y-84140000D03*
D20*
X235341200Y-78892400D03*
X233441200Y-78892400D03*
D23*
X230392400Y-92096800D03*
X230392400Y-95046800D03*
D20*
X226822000Y-90170000D03*
X224922000Y-90170000D03*
D22*
X229326400Y-78892400D03*
X231226400Y-78892400D03*
D26*
X239926500Y-84074000D03*
X238101500Y-84074000D03*
D22*
X238130000Y-86106000D03*
X240030000Y-86106000D03*
D21*
X223012000Y-82650000D03*
D26*
X226795000Y-84140000D03*
X224970000Y-84140000D03*
D21*
X241400000Y-77900000D03*
D20*
X236540000Y-90170000D03*
X234640000Y-90170000D03*
D27*
X205500000Y-71391322D03*
X185408900Y-89500000D03*
X227711000Y-86106000D03*
X236205209Y-77901612D03*
X185400000Y-92700000D03*
X233934000Y-83362800D03*
X231902000Y-83362800D03*
X180841100Y-89500000D03*
X237236000Y-85852000D03*
X230886000Y-83362800D03*
X185400000Y-93720600D03*
X240792000Y-84201000D03*
X231902000Y-80568800D03*
X181039970Y-77485647D03*
X206137174Y-65752400D03*
X185408900Y-88500000D03*
X232918000Y-80568800D03*
X231902000Y-81889600D03*
X232918000Y-83362800D03*
X180841100Y-90500000D03*
X232308400Y-78892400D03*
X180841100Y-88500000D03*
X178800000Y-64950000D03*
X230922397Y-73803220D03*
D28*
X224000000Y-96000000D03*
D27*
X230886000Y-81889600D03*
X244348000Y-82484000D03*
X230886000Y-80568800D03*
X177100000Y-68450000D03*
X203600000Y-67200000D03*
X199100000Y-70100000D03*
D28*
X227200000Y-96000000D03*
D27*
X185408900Y-90500000D03*
X197022000Y-67738546D03*
X185408900Y-91600000D03*
X233934000Y-80568800D03*
X177381771Y-74327806D03*
D28*
X233600000Y-96316800D03*
D27*
X237032800Y-81026000D03*
X233934000Y-81889600D03*
X201600000Y-67600000D03*
X202454906Y-65692148D03*
X209300000Y-67700000D03*
X193548000Y-103124000D03*
X232918000Y-81889600D03*
X227914061Y-81123655D03*
X193407277Y-69735436D03*
X228472036Y-77890343D03*
X193466000Y-65409000D03*
X180841100Y-91600000D03*
X180841100Y-93720600D03*
X193475670Y-67752400D03*
D28*
X230400000Y-96000000D03*
D27*
X196587953Y-69943951D03*
X180841100Y-92700000D03*
X185970921Y-77701268D03*
X202754371Y-69061487D03*
X197051211Y-65438211D03*
X202383856Y-71391322D03*
X207299998Y-71700000D03*
X197972000Y-71900020D03*
X224028000Y-84201000D03*
X241808000Y-79502000D03*
X230073200Y-77978000D03*
X234600000Y-78100000D03*
X227900000Y-82200000D03*
X240919000Y-86106000D03*
X238978100Y-87800000D03*
X237195056Y-89030010D03*
D28*
X233629200Y-93200000D03*
X227200000Y-93200000D03*
D27*
X233400000Y-87100000D03*
D28*
X224000000Y-93200000D03*
X230400000Y-93200000D03*
D27*
X233400000Y-88000000D03*
X231400000Y-87100000D03*
X232400000Y-88000000D03*
X231400000Y-88000000D03*
X232400000Y-87100000D03*
X227900000Y-89000000D03*
X226000000Y-87547420D03*
X224028000Y-86106000D03*
X206300000Y-77200000D03*
X197972000Y-63377000D03*
X184300000Y-62100000D03*
X192500000Y-67400000D03*
X195900000Y-65669900D03*
X193906599Y-63348330D03*
X228193600Y-80060844D03*
X236982000Y-80060800D03*
X194350000Y-69600000D03*
X220900000Y-77900000D03*
X200200000Y-67600000D03*
X204150000Y-68850000D03*
X209900000Y-70700000D03*
X238316028Y-82813879D03*
X237295975Y-84285000D03*
X240522889Y-79290486D03*
X240624239Y-76685800D03*
X183659500Y-64140500D03*
X209000000Y-66000000D03*
X200200000Y-63700000D03*
X188586140Y-66786134D03*
X203300000Y-63700000D03*
X190400000Y-79112500D03*
X226900000Y-63500000D03*
X232500000Y-72000000D03*
X227711000Y-84074000D03*
X234100000Y-73300000D03*
X191598100Y-68400000D03*
X183337536Y-69668611D03*
X188200000Y-71700000D03*
X175287500Y-66350000D03*
X230000000Y-73300000D03*
X183389000Y-75598200D03*
X187605700Y-86630400D03*
X181966600Y-75598200D03*
X176393600Y-80292859D03*
X175827700Y-82595000D03*
X202946499Y-78252400D03*
X184700000Y-71609537D03*
X188100000Y-105200000D03*
X185688339Y-65796037D03*
X189484000Y-90354600D03*
X211099998Y-70900000D03*
X190381605Y-62101426D03*
X183551503Y-70596155D03*
X178334400Y-71458000D03*
D29*
X203340000Y-74800000D02*
X206179400Y-71960600D01*
X206179400Y-71960600D02*
X206179400Y-71509007D01*
X206988407Y-70700000D02*
X209900000Y-70700000D01*
X206179400Y-71509007D02*
X206988407Y-70700000D01*
X227711000Y-86106000D02*
X226822000Y-86106000D01*
X240665000Y-84074000D02*
X240792000Y-84201000D01*
D30*
X233450000Y-78883600D02*
X233441200Y-78892400D01*
D29*
X245364000Y-82484000D02*
X244348000Y-82484000D01*
X237896400Y-81026000D02*
X238099600Y-81229200D01*
X226959200Y-81026000D02*
X227056855Y-81123655D01*
X239926500Y-84074000D02*
X240665000Y-84074000D01*
D30*
X228472036Y-77890343D02*
X227929693Y-77348000D01*
D29*
X237032800Y-81026000D02*
X237896400Y-81026000D01*
D30*
X231250000Y-76900000D02*
X231250000Y-78868800D01*
D29*
X238130000Y-86106000D02*
X237490000Y-86106000D01*
D30*
X227582000Y-77350000D02*
X227584000Y-77348000D01*
X243470000Y-82484000D02*
X244348000Y-82484000D01*
X231226400Y-78892400D02*
X233441200Y-78892400D01*
X231250000Y-78868800D02*
X231226400Y-78892400D01*
X227929693Y-77348000D02*
X227584000Y-77348000D01*
X236205209Y-77901612D02*
X236723221Y-77383600D01*
X239066400Y-77383600D02*
X239100000Y-77350000D01*
D29*
X243345000Y-82609000D02*
X243470000Y-82484000D01*
D30*
X236723221Y-77383600D02*
X237134400Y-77383600D01*
D29*
X231400000Y-73325617D02*
X230922397Y-73803220D01*
D30*
X233629200Y-96266000D02*
X233578400Y-96316800D01*
D29*
X237490000Y-86106000D02*
X237236000Y-85852000D01*
D30*
X225600000Y-77350000D02*
X227582000Y-77350000D01*
D29*
X231400000Y-71600000D02*
X231400000Y-73325617D01*
D30*
X233450000Y-76900000D02*
X233450000Y-78883600D01*
X237134400Y-77383600D02*
X239066400Y-77383600D01*
D29*
X227056855Y-81123655D02*
X227914061Y-81123655D01*
X241795000Y-80459000D02*
X241795000Y-79515000D01*
X224089000Y-84140000D02*
X224028000Y-84201000D01*
X243470000Y-80584000D02*
X243345000Y-80459000D01*
D31*
X243345000Y-80459000D02*
X241795000Y-80459000D01*
D29*
X224970000Y-84140000D02*
X224089000Y-84140000D01*
X241795000Y-79515000D02*
X241808000Y-79502000D01*
X234600000Y-78151200D02*
X234600000Y-78100000D01*
D30*
X235350000Y-78883600D02*
X235341200Y-78892400D01*
X229350000Y-76900000D02*
X229350000Y-78868800D01*
X245364000Y-80584000D02*
X243470000Y-80584000D01*
X229326400Y-78724800D02*
X230073200Y-77978000D01*
D29*
X235341200Y-78892400D02*
X234600000Y-78151200D01*
D30*
X229326400Y-78892400D02*
X229326400Y-78724800D01*
X229350000Y-78868800D02*
X229326400Y-78892400D01*
X235350000Y-76900000D02*
X235350000Y-78883600D01*
D29*
X227450000Y-82650000D02*
X227900000Y-82200000D01*
X227900000Y-82488000D02*
X227900000Y-82200000D01*
X223012000Y-82650000D02*
X227450000Y-82650000D01*
X240919000Y-86106000D02*
X240030000Y-86106000D01*
D30*
X240030000Y-88138000D02*
X240030000Y-86106000D01*
X238130000Y-88270000D02*
X240030000Y-90170000D01*
D29*
X238130000Y-88138000D02*
X238130000Y-88270000D01*
X238640100Y-88138000D02*
X238130000Y-88138000D01*
X238978100Y-87800000D02*
X238640100Y-88138000D01*
X237195056Y-89030010D02*
X236540000Y-89685066D01*
X236540000Y-89685066D02*
X236540000Y-90170000D01*
D30*
X236540000Y-90170000D02*
X238130000Y-90170000D01*
X226822000Y-90170000D02*
X228478000Y-90170000D01*
D29*
X228727000Y-89921000D02*
X228478000Y-90170000D01*
D30*
X228727000Y-89827000D02*
X227900000Y-89000000D01*
X228727000Y-89921000D02*
X228727000Y-89827000D01*
D29*
X226822000Y-88138000D02*
X226231420Y-87547420D01*
D30*
X226822000Y-88138000D02*
X224922000Y-90038000D01*
D29*
X226231420Y-87547420D02*
X226000000Y-87547420D01*
X224922000Y-90038000D02*
X224922000Y-90170000D01*
X224028000Y-86106000D02*
X224922000Y-86106000D01*
D30*
X224922000Y-88138000D02*
X224922000Y-86106000D01*
X185533400Y-61088418D02*
X184521818Y-62100000D01*
X182993400Y-59284400D02*
X181737000Y-58028000D01*
X182993400Y-61061218D02*
X182993400Y-59284400D01*
X184032182Y-62100000D02*
X182993400Y-61061218D01*
X185533400Y-59284400D02*
X185533400Y-61088418D01*
X184277000Y-58028000D02*
X185533400Y-59284400D01*
D29*
X236982000Y-79436000D02*
X237134400Y-79283600D01*
D30*
X239100000Y-79250000D02*
X237168000Y-79250000D01*
X225600000Y-79250000D02*
X227582000Y-79250000D01*
X239999600Y-81229200D02*
X238054000Y-79283600D01*
X227582000Y-79250000D02*
X227584000Y-79248000D01*
X226837200Y-79248000D02*
X227584000Y-79248000D01*
D29*
X228193600Y-79857600D02*
X228193600Y-80060844D01*
X227584000Y-79248000D02*
X228193600Y-79857600D01*
X236982000Y-80060800D02*
X236982000Y-79436000D01*
D30*
X225059200Y-81026000D02*
X226837200Y-79248000D01*
X238054000Y-79283600D02*
X237134400Y-79283600D01*
X194350000Y-69600000D02*
X194600000Y-69600000D01*
X237168000Y-79250000D02*
X237134400Y-79283600D01*
D29*
X200200000Y-68900000D02*
X200200000Y-67600000D01*
X200900000Y-71100000D02*
X200900000Y-69600000D01*
X200897598Y-72162402D02*
X200897598Y-71102402D01*
X200900000Y-69600000D02*
X200200000Y-68900000D01*
X200897598Y-71102402D02*
X200900000Y-71100000D01*
X198260000Y-74800000D02*
X200897598Y-72162402D01*
X204400000Y-71200000D02*
X204400000Y-69100000D01*
X200800000Y-74800000D02*
X204400000Y-71200000D01*
X204400000Y-69100000D02*
X204150000Y-68850000D01*
X238520907Y-82609000D02*
X238316028Y-82813879D01*
X241795000Y-82609000D02*
X238520907Y-82609000D01*
X238101500Y-84074000D02*
X237506975Y-84074000D01*
X237506975Y-84074000D02*
X237295975Y-84285000D01*
X241400000Y-77900000D02*
X240522889Y-78777111D01*
X240522889Y-78777111D02*
X240522889Y-79290486D01*
X240624239Y-76075761D02*
X240624239Y-76685800D01*
X241400000Y-75300000D02*
X240624239Y-76075761D01*
X232900000Y-72000000D02*
X233300000Y-71600000D01*
X232500000Y-72000000D02*
X232900000Y-72000000D01*
X226861000Y-84074000D02*
X226795000Y-84140000D01*
X227711000Y-84074000D02*
X226861000Y-84074000D01*
X235600000Y-69700000D02*
X235600000Y-72500000D01*
X234800000Y-73300000D02*
X234100000Y-73300000D01*
X228700000Y-57000001D02*
X228700000Y-62800000D01*
X183147600Y-57152400D02*
X183807800Y-56492200D01*
X183600000Y-59891000D02*
X183600000Y-58948213D01*
X183147600Y-58495813D02*
X183147600Y-57152400D01*
X228700000Y-62800000D02*
X235600000Y-69700000D01*
X183807800Y-56492200D02*
X228192199Y-56492200D01*
X228192199Y-56492200D02*
X228700000Y-57000001D01*
X184277000Y-60568000D02*
X183600000Y-59891000D01*
X183600000Y-58948213D02*
X183147600Y-58495813D01*
X235600000Y-72500000D02*
X234800000Y-73300000D01*
D30*
X191598100Y-68400000D02*
X191600000Y-68398100D01*
X191600000Y-66000000D02*
X193031266Y-64568734D01*
X199828312Y-64568734D02*
X199865978Y-64606400D01*
X191600000Y-68398100D02*
X191600000Y-66000000D01*
X200558600Y-64606400D02*
X204597000Y-60568000D01*
X199865978Y-64606400D02*
X200558600Y-64606400D01*
X193031266Y-64568734D02*
X199828312Y-64568734D01*
X183368925Y-69700000D02*
X183337536Y-69668611D01*
D29*
X193493600Y-62606400D02*
X191900000Y-64200000D01*
X194938600Y-62606400D02*
X193493600Y-62606400D01*
D30*
X186300000Y-69700000D02*
X183368925Y-69700000D01*
X188200000Y-71600000D02*
X186300000Y-69700000D01*
D29*
X183337536Y-66062464D02*
X183337536Y-69668611D01*
X191900000Y-64200000D02*
X185200000Y-64200000D01*
D30*
X188200000Y-71700000D02*
X188200000Y-71600000D01*
D29*
X196977000Y-60568000D02*
X194938600Y-62606400D01*
X185200000Y-64200000D02*
X183337536Y-66062464D01*
X176180500Y-65869500D02*
X175768000Y-65869500D01*
X191034596Y-61793600D02*
X190640105Y-61399109D01*
X190640105Y-61399109D02*
X190123104Y-61399109D01*
X187250000Y-61850000D02*
X186000000Y-63100000D01*
X194437000Y-60568000D02*
X193211400Y-61793600D01*
X190123104Y-61399109D02*
X189672213Y-61850000D01*
X178950000Y-63100000D02*
X176180500Y-65869500D01*
X189672213Y-61850000D02*
X187250000Y-61850000D01*
X186000000Y-63100000D02*
X178950000Y-63100000D01*
X193211400Y-61793600D02*
X191034596Y-61793600D01*
X175768000Y-65869500D02*
X175287500Y-66350000D01*
X226200000Y-57713787D02*
X226200000Y-69500000D01*
X188889187Y-56898600D02*
X225384813Y-56898600D01*
X187946400Y-59438600D02*
X187946400Y-57841387D01*
X187946400Y-57841387D02*
X188889187Y-56898600D01*
X226200000Y-69500000D02*
X230000000Y-73300000D01*
X225384813Y-56898600D02*
X226200000Y-57713787D01*
X186817000Y-60568000D02*
X187946400Y-59438600D01*
D30*
X187605700Y-83068600D02*
X187605700Y-86630400D01*
X183389000Y-77980000D02*
X187605700Y-82196700D01*
X183389000Y-75598200D02*
X183389000Y-77980000D01*
X187605700Y-82196700D02*
X187605700Y-83068600D01*
X176629141Y-80292859D02*
X176393600Y-80292859D01*
X181323800Y-75598200D02*
X176629141Y-80292859D01*
X181966600Y-75598200D02*
X181323800Y-75598200D01*
X181300000Y-71550000D02*
X184640463Y-71550000D01*
X175300000Y-82067300D02*
X175300000Y-77550000D01*
X175827700Y-82595000D02*
X175300000Y-82067300D01*
X184640463Y-71550000D02*
X184700000Y-71609537D01*
X191500000Y-89698899D02*
X202946499Y-78252400D01*
X191500000Y-92100000D02*
X191500000Y-89698899D01*
X188100000Y-95500000D02*
X191500000Y-92100000D01*
X175300000Y-77550000D02*
X181300000Y-71550000D01*
X188100000Y-105200000D02*
X188100000Y-95500000D01*
D32*
X189252400Y-69360098D02*
X185688339Y-65796037D01*
X189252400Y-90123000D02*
X189252400Y-69360098D01*
X189484000Y-90354600D02*
X189252400Y-90123000D01*
D33*
X206899998Y-79000000D02*
X211099998Y-74800000D01*
X200060000Y-84240000D02*
X205300000Y-79000000D01*
X200060000Y-84300000D02*
X200060000Y-84240000D01*
X205300000Y-79000000D02*
X206899998Y-79000000D01*
X211099998Y-74800000D02*
X211099998Y-70900000D01*
D29*
X195847600Y-60754613D02*
X195847600Y-60052400D01*
X194402213Y-62200000D02*
X195847600Y-60754613D01*
X200885000Y-59200000D02*
X202057000Y-58028000D01*
X190480179Y-62200000D02*
X194402213Y-62200000D01*
X196700000Y-59200000D02*
X200885000Y-59200000D01*
X195847600Y-60052400D02*
X196700000Y-59200000D01*
X178334400Y-71458000D02*
X179196245Y-70596155D01*
X179196245Y-70596155D02*
X183551503Y-70596155D01*
G04 #@! TA.AperFunction,Conductor*
G36*
X234470996Y-93777966D02*
G01*
X234444638Y-93780800D01*
X230305362Y-93780800D01*
X230291740Y-93776800D01*
X234473131Y-93776800D01*
X234470996Y-93777966D01*
G37*
G04 #@! TD.AperFunction*
G04 #@! TA.AperFunction,Conductor*
G36*
X234450803Y-85293200D02*
G01*
X230293891Y-85293200D01*
X230302262Y-85292300D01*
X234447738Y-85292300D01*
X234450803Y-85293200D01*
G37*
G04 #@! TD.AperFunction*
G04 #@! TA.AperFunction,Conductor*
G36*
X236242575Y-85312885D02*
G01*
X236288330Y-85365689D01*
X236299490Y-85413819D01*
X236368926Y-87959819D01*
X236351076Y-88027371D01*
X236299539Y-88074548D01*
X236244972Y-88087200D01*
X234899200Y-88087200D01*
X234899200Y-93652800D01*
X234879515Y-93719839D01*
X234826711Y-93765594D01*
X234775200Y-93776800D01*
X222674400Y-93776800D01*
X222607361Y-93757115D01*
X222561606Y-93704311D01*
X222550400Y-93652800D01*
X222550400Y-91665600D01*
X222570085Y-91598561D01*
X222622889Y-91552806D01*
X222674400Y-91541600D01*
X230225600Y-91541600D01*
X230225600Y-88036400D01*
X228673200Y-88036400D01*
X228606161Y-88016715D01*
X228560406Y-87963911D01*
X228549200Y-87912400D01*
X228549200Y-85417200D01*
X228568885Y-85350161D01*
X228621689Y-85304406D01*
X228673200Y-85293200D01*
X230250000Y-85293200D01*
X234500000Y-85293200D01*
X236175536Y-85293200D01*
X236242575Y-85312885D01*
G37*
G04 #@! TD.AperFunction*
G04 #@! TA.AperFunction,Conductor*
G36*
X234844694Y-94304485D02*
G01*
X234890449Y-94357289D01*
X234901630Y-94406320D01*
X234947470Y-96698320D01*
X234929130Y-96765740D01*
X234877252Y-96812542D01*
X234823495Y-96824800D01*
X222474400Y-96824800D01*
X222407361Y-96805115D01*
X222361606Y-96752311D01*
X222350400Y-96700800D01*
X222350400Y-94408800D01*
X222370085Y-94341761D01*
X222422889Y-94296006D01*
X222474400Y-94284800D01*
X234777655Y-94284800D01*
X234844694Y-94304485D01*
G37*
G04 #@! TD.AperFunction*
G04 #@! TA.AperFunction,Conductor*
G36*
X234800236Y-79951068D02*
G01*
X234822504Y-79964236D01*
X234830802Y-79969144D01*
X234867191Y-79979716D01*
X234988626Y-80014997D01*
X234988629Y-80014997D01*
X234988631Y-80014998D01*
X235000922Y-80015965D01*
X235025504Y-80017900D01*
X235025506Y-80017900D01*
X235656896Y-80017900D01*
X235675331Y-80016449D01*
X235693769Y-80014998D01*
X235693771Y-80014997D01*
X235693773Y-80014997D01*
X235735391Y-80002905D01*
X235851598Y-79969144D01*
X235869146Y-79958765D01*
X235882164Y-79951068D01*
X235945284Y-79933800D01*
X236052435Y-79933800D01*
X236119474Y-79953485D01*
X236165229Y-80006289D01*
X236175584Y-80053888D01*
X236175655Y-80053881D01*
X236175732Y-80054572D01*
X236176435Y-80057800D01*
X236176435Y-80060803D01*
X236196630Y-80240049D01*
X236196631Y-80240054D01*
X236256211Y-80410323D01*
X236327993Y-80524563D01*
X236346999Y-80590535D01*
X236347000Y-84762800D01*
X236327315Y-84829839D01*
X236274511Y-84875594D01*
X236223000Y-84886800D01*
X228724000Y-84886800D01*
X228656961Y-84867115D01*
X228611206Y-84814311D01*
X228600000Y-84762800D01*
X228600000Y-82626288D01*
X228619007Y-82560314D01*
X228625789Y-82549522D01*
X228685368Y-82379255D01*
X228705565Y-82200000D01*
X228685368Y-82020745D01*
X228625789Y-81850478D01*
X228619006Y-81839684D01*
X228600000Y-81773713D01*
X228599999Y-80819422D01*
X228619684Y-80752387D01*
X228658026Y-80714433D01*
X228695862Y-80690660D01*
X228823416Y-80563106D01*
X228919389Y-80410366D01*
X228978968Y-80240099D01*
X228990771Y-80135344D01*
X228991597Y-80128017D01*
X229018663Y-80063603D01*
X229076258Y-80024048D01*
X229114817Y-80017900D01*
X229642096Y-80017900D01*
X229660531Y-80016449D01*
X229678969Y-80014998D01*
X229678971Y-80014997D01*
X229678973Y-80014997D01*
X229720591Y-80002905D01*
X229836798Y-79969144D01*
X229854346Y-79958765D01*
X229867364Y-79951068D01*
X229930484Y-79933800D01*
X234737116Y-79933800D01*
X234800236Y-79951068D01*
G37*
G04 #@! TD.AperFunction*
M02*
