G04 #@! TF.GenerationSoftware,KiCad,Pcbnew,7.0.7-7.0.7~ubuntu22.04.1*
G04 #@! TF.CreationDate,2023-11-13T10:42:29+01:00*
G04 #@! TF.ProjectId,piaxe,70696178-652e-46b6-9963-61645f706362,rev?*
G04 #@! TF.SameCoordinates,Original*
G04 #@! TF.FileFunction,Copper,L3,Inr*
G04 #@! TF.FilePolarity,Positive*
%FSLAX46Y46*%
G04 Gerber Fmt 4.6, Leading zero omitted, Abs format (unit mm)*
G04 Created by KiCad (PCBNEW 7.0.7-7.0.7~ubuntu22.04.1) date 2023-11-13 10:42:29*
%MOMM*%
%LPD*%
G01*
G04 APERTURE LIST*
G04 #@! TA.AperFunction,ComponentPad*
%ADD10R,1.700000X1.700000*%
G04 #@! TD*
G04 #@! TA.AperFunction,ComponentPad*
%ADD11O,1.700000X1.700000*%
G04 #@! TD*
G04 #@! TA.AperFunction,ComponentPad*
%ADD12C,5.600000*%
G04 #@! TD*
G04 #@! TA.AperFunction,ComponentPad*
%ADD13R,1.730000X2.030000*%
G04 #@! TD*
G04 #@! TA.AperFunction,ComponentPad*
%ADD14O,1.730000X2.030000*%
G04 #@! TD*
G04 #@! TA.AperFunction,ComponentPad*
%ADD15R,2.600000X2.600000*%
G04 #@! TD*
G04 #@! TA.AperFunction,ComponentPad*
%ADD16C,2.600000*%
G04 #@! TD*
G04 #@! TA.AperFunction,ComponentPad*
%ADD17C,0.600000*%
G04 #@! TD*
G04 #@! TA.AperFunction,ViaPad*
%ADD18C,0.800000*%
G04 #@! TD*
G04 #@! TA.AperFunction,ViaPad*
%ADD19C,1.000000*%
G04 #@! TD*
G04 #@! TA.AperFunction,Conductor*
%ADD20C,1.500000*%
G04 #@! TD*
G04 #@! TA.AperFunction,Conductor*
%ADD21C,1.000000*%
G04 #@! TD*
G04 #@! TA.AperFunction,Conductor*
%ADD22C,0.508000*%
G04 #@! TD*
G04 #@! TA.AperFunction,Conductor*
%ADD23C,0.800000*%
G04 #@! TD*
G04 APERTURE END LIST*
D10*
X195720000Y-74800000D03*
D11*
X198260000Y-74800000D03*
X200800000Y-74800000D03*
X203340000Y-74800000D03*
X205880000Y-74800000D03*
D12*
X215500000Y-68000000D03*
X254500000Y-62000000D03*
D13*
X207680000Y-84300000D03*
D14*
X205140000Y-84300000D03*
X202600000Y-84300000D03*
X200060000Y-84300000D03*
D10*
X181737000Y-60568000D03*
D11*
X181737000Y-58028000D03*
X184277000Y-60568000D03*
X184277000Y-58028000D03*
X186817000Y-60568000D03*
X186817000Y-58028000D03*
X189357000Y-60568000D03*
X189357000Y-58028000D03*
X191897000Y-60568000D03*
X191897000Y-58028000D03*
X194437000Y-60568000D03*
X194437000Y-58028000D03*
X196977000Y-60568000D03*
X196977000Y-58028000D03*
X199517000Y-60568000D03*
X199517000Y-58028000D03*
X202057000Y-60568000D03*
X202057000Y-58028000D03*
X204597000Y-60568000D03*
X204597000Y-58028000D03*
X207137000Y-60568000D03*
X207137000Y-58028000D03*
X209677000Y-60568000D03*
X209677000Y-58028000D03*
X212217000Y-60568000D03*
X212217000Y-58028000D03*
X214757000Y-60568000D03*
X214757000Y-58028000D03*
X217297000Y-60568000D03*
X217297000Y-58028000D03*
X219837000Y-60568000D03*
X219837000Y-58028000D03*
X222377000Y-60568000D03*
X222377000Y-58028000D03*
X224917000Y-60568000D03*
X224917000Y-58028000D03*
X227457000Y-60568000D03*
X227457000Y-58028000D03*
X229997000Y-60568000D03*
X229997000Y-58028000D03*
D12*
X248500000Y-101000000D03*
X209500000Y-107000000D03*
X215500000Y-101000000D03*
D15*
X199850000Y-97870000D03*
D16*
X199850000Y-103870000D03*
X204550000Y-100870000D03*
D12*
X248500000Y-68000000D03*
D17*
X183561714Y-72604537D03*
X181841714Y-72604537D03*
X182701714Y-73084537D03*
X183561714Y-73564537D03*
X181841714Y-73564537D03*
D18*
X205500000Y-71391322D03*
X185408900Y-89500000D03*
X227711000Y-86106000D03*
X236205209Y-77901612D03*
X185400000Y-92700000D03*
X233934000Y-83362800D03*
X231902000Y-83362800D03*
X180841100Y-89500000D03*
X237236000Y-85852000D03*
X230886000Y-83362800D03*
X185400000Y-93720600D03*
X240792000Y-84201000D03*
X231902000Y-80568800D03*
X181039970Y-77485647D03*
X206137174Y-65752400D03*
X185408900Y-88500000D03*
X232918000Y-80568800D03*
X231902000Y-81889600D03*
X232918000Y-83362800D03*
X180841100Y-90500000D03*
X232308400Y-78892400D03*
X180841100Y-88500000D03*
X178800000Y-64950000D03*
X230922397Y-73803220D03*
D19*
X224000000Y-96000000D03*
D18*
X230886000Y-81889600D03*
X244348000Y-82484000D03*
X230886000Y-80568800D03*
X177100000Y-68450000D03*
X203600000Y-67200000D03*
X199100000Y-70100000D03*
D19*
X227200000Y-96000000D03*
D18*
X185408900Y-90500000D03*
X197022000Y-67738546D03*
X185408900Y-91600000D03*
X233934000Y-80568800D03*
X177381771Y-74327806D03*
D19*
X233600000Y-96316800D03*
D18*
X237032800Y-81026000D03*
X233934000Y-81889600D03*
X201600000Y-67600000D03*
X202454906Y-65692148D03*
X209300000Y-67700000D03*
X193548000Y-103124000D03*
X232918000Y-81889600D03*
X227914061Y-81123655D03*
X193407277Y-69735436D03*
X228472036Y-77890343D03*
X193466000Y-65409000D03*
X180841100Y-91600000D03*
X180841100Y-93720600D03*
X193475670Y-67752400D03*
D19*
X230400000Y-96000000D03*
D18*
X196587953Y-69943951D03*
X180841100Y-92700000D03*
X185970921Y-77701268D03*
X202754371Y-69061487D03*
X197051211Y-65438211D03*
X202383856Y-71391322D03*
X207299998Y-71700000D03*
X197972000Y-71900020D03*
X224028000Y-84201000D03*
X241808000Y-79502000D03*
X230073200Y-77978000D03*
X234600000Y-78100000D03*
X227900000Y-82200000D03*
X240919000Y-86106000D03*
X238978100Y-87800000D03*
X237195056Y-89030010D03*
D19*
X233629200Y-93200000D03*
X227200000Y-93200000D03*
D18*
X233400000Y-87100000D03*
D19*
X224000000Y-93200000D03*
X230400000Y-93200000D03*
D18*
X233400000Y-88000000D03*
X231400000Y-87100000D03*
X232400000Y-88000000D03*
X231400000Y-88000000D03*
X232400000Y-87100000D03*
X227900000Y-89000000D03*
X226000000Y-87547420D03*
X224028000Y-86106000D03*
X206300000Y-77200000D03*
X197972000Y-63377000D03*
X184300000Y-62100000D03*
X192500000Y-67400000D03*
X195900000Y-65669900D03*
X193906599Y-63348330D03*
X228193600Y-80060844D03*
X236982000Y-80060800D03*
X194350000Y-69600000D03*
X220900000Y-77900000D03*
X200200000Y-67600000D03*
X204150000Y-68850000D03*
X209900000Y-70700000D03*
X238316028Y-82813879D03*
X237295975Y-84285000D03*
X240522889Y-79290486D03*
X240624239Y-76685800D03*
X183659500Y-64140500D03*
X209000000Y-66000000D03*
X200200000Y-63700000D03*
X188586140Y-66786134D03*
X203300000Y-63700000D03*
X190400000Y-79112500D03*
X226900000Y-63500000D03*
X232500000Y-72000000D03*
X227711000Y-84074000D03*
X234100000Y-73300000D03*
X191598100Y-68400000D03*
X183337536Y-69668611D03*
X188200000Y-71700000D03*
X175287500Y-66350000D03*
X230000000Y-73300000D03*
X183389000Y-75598200D03*
X187605700Y-86630400D03*
X181966600Y-75598200D03*
X176393600Y-80292859D03*
X175827700Y-82595000D03*
X202946499Y-78252400D03*
X184700000Y-71609537D03*
X188100000Y-105200000D03*
X185688339Y-65796037D03*
X189484000Y-90354600D03*
X211099998Y-70900000D03*
X190381605Y-62101426D03*
X183551503Y-70596155D03*
X178334400Y-71458000D03*
D20*
X211350000Y-76000000D02*
X206741322Y-71391322D01*
X222252000Y-76552000D02*
X221700000Y-76000000D01*
X241496892Y-77655020D02*
X241902400Y-78060528D01*
X224028000Y-84201000D02*
X222252000Y-82425000D01*
X230000000Y-76000000D02*
X230000000Y-77904800D01*
X234500000Y-78000000D02*
X234600000Y-78100000D01*
X238402943Y-76000000D02*
X239321839Y-76918896D01*
X241902400Y-78060528D02*
X241902400Y-79407600D01*
X230000000Y-76000000D02*
X234500000Y-76000000D01*
X234500000Y-76000000D02*
X238402943Y-76000000D01*
X240084767Y-77988200D02*
X241163711Y-77988200D01*
X219004000Y-76000000D02*
X230000000Y-76000000D01*
X201572778Y-72202400D02*
X202383856Y-71391322D01*
X241902400Y-79407600D02*
X241808000Y-79502000D01*
X198274380Y-72202400D02*
X201572778Y-72202400D01*
X222252000Y-82425000D02*
X222252000Y-76552000D01*
X234500000Y-76000000D02*
X234500000Y-78000000D01*
X241163711Y-77988200D02*
X241496892Y-77655020D01*
X221700000Y-76000000D02*
X219004000Y-76000000D01*
X239321839Y-76918896D02*
X239321839Y-77225272D01*
X230000000Y-77904800D02*
X230073200Y-77978000D01*
X219004000Y-76000000D02*
X211350000Y-76000000D01*
X239321839Y-77225272D02*
X240084767Y-77988200D01*
X197972000Y-71900020D02*
X198274380Y-72202400D01*
X206741322Y-71391322D02*
X202383856Y-71391322D01*
D21*
X197972000Y-63377000D02*
X197895000Y-63300000D01*
D22*
X195900000Y-65669900D02*
X195900000Y-63100000D01*
X191455500Y-63055500D02*
X192500000Y-64100000D01*
D21*
X190225351Y-69625351D02*
X191400000Y-70800000D01*
X193906599Y-63348330D02*
X193867069Y-63308800D01*
X190225351Y-63668854D02*
X190225351Y-69625351D01*
X185508800Y-63308800D02*
X189865297Y-63308800D01*
X191400000Y-75800000D02*
X192800000Y-77200000D01*
X191400000Y-70800000D02*
X191400000Y-75800000D01*
X184300000Y-62100000D02*
X185508800Y-63308800D01*
D22*
X192500000Y-64100000D02*
X192500000Y-67400000D01*
D21*
X189865297Y-63308800D02*
X190225351Y-63668854D01*
X192800000Y-77200000D02*
X206300000Y-77200000D01*
X193867069Y-63308800D02*
X189865297Y-63308800D01*
X197895000Y-63300000D02*
X193954929Y-63300000D01*
X193954929Y-63300000D02*
X193906599Y-63348330D01*
D22*
X194350000Y-71550000D02*
X196200000Y-73400000D01*
X194350000Y-69600000D02*
X194350000Y-71550000D01*
X211200000Y-77900000D02*
X220900000Y-77900000D01*
X196200000Y-73400000D02*
X206700000Y-73400000D01*
X206700000Y-73400000D02*
X211200000Y-77900000D01*
D23*
X181737000Y-60568000D02*
X181737000Y-60563000D01*
X232500000Y-69100000D02*
X232500000Y-72000000D01*
X181737000Y-62218000D02*
X183659500Y-64140500D01*
X189500000Y-71200000D02*
X189500000Y-78212500D01*
X187700000Y-64600000D02*
X188500000Y-65400000D01*
X200200000Y-63700000D02*
X203300000Y-63700000D01*
X209000000Y-66000000D02*
X211500000Y-63500000D01*
X188500000Y-65400000D02*
X188500000Y-66700000D01*
X188500000Y-66700000D02*
X188500000Y-70200000D01*
X226900000Y-63500000D02*
X232500000Y-69100000D01*
X211500000Y-63500000D02*
X226900000Y-63500000D01*
X206700000Y-63700000D02*
X209000000Y-66000000D01*
X181737000Y-60568000D02*
X181737000Y-62218000D01*
X202057000Y-60568000D02*
X202057000Y-62457000D01*
X203300000Y-63700000D02*
X206700000Y-63700000D01*
D22*
X183000000Y-59300000D02*
X200789000Y-59300000D01*
D23*
X184119000Y-64600000D02*
X187700000Y-64600000D01*
X189500000Y-78212500D02*
X190400000Y-79112500D01*
D22*
X200789000Y-59300000D02*
X202057000Y-60568000D01*
D23*
X202057000Y-62457000D02*
X203300000Y-63700000D01*
D22*
X181737000Y-60563000D02*
X183000000Y-59300000D01*
D23*
X188500000Y-70200000D02*
X189500000Y-71200000D01*
X183659500Y-64140500D02*
X184119000Y-64600000D01*
X188500000Y-66700000D02*
X188586146Y-66786146D01*
G04 #@! TA.AperFunction,Conductor*
G36*
X200854865Y-60993041D02*
G01*
X200899381Y-61044414D01*
X200969898Y-61195639D01*
X201095402Y-61374877D01*
X201095406Y-61374881D01*
X201220181Y-61499656D01*
X201253666Y-61560979D01*
X201256500Y-61587337D01*
X201256500Y-62547191D01*
X201256501Y-62547200D01*
X201265791Y-62587908D01*
X201266955Y-62594763D01*
X201271632Y-62636259D01*
X201285420Y-62675662D01*
X201287345Y-62682345D01*
X201296640Y-62723064D01*
X201298940Y-62729636D01*
X201297382Y-62730180D01*
X201307334Y-62790650D01*
X201279606Y-62854782D01*
X201221608Y-62893743D01*
X201184263Y-62899500D01*
X200248436Y-62899500D01*
X200241497Y-62899110D01*
X200212599Y-62895854D01*
X200200002Y-62894435D01*
X200199998Y-62894435D01*
X200170030Y-62897811D01*
X200155046Y-62899500D01*
X200121803Y-62903245D01*
X200088560Y-62906991D01*
X200020752Y-62914630D01*
X200020747Y-62914631D01*
X199850478Y-62974210D01*
X199697737Y-63070184D01*
X199570184Y-63197737D01*
X199474211Y-63350476D01*
X199414631Y-63520745D01*
X199414630Y-63520750D01*
X199394435Y-63699996D01*
X199394435Y-63700003D01*
X199414630Y-63879249D01*
X199414631Y-63879254D01*
X199474211Y-64049523D01*
X199493785Y-64080674D01*
X199570184Y-64202262D01*
X199697738Y-64329816D01*
X199850478Y-64425789D01*
X200020744Y-64485368D01*
X200020745Y-64485368D01*
X200020750Y-64485369D01*
X200199996Y-64505565D01*
X200200000Y-64505565D01*
X200200002Y-64505565D01*
X200212599Y-64504145D01*
X200241497Y-64500889D01*
X200248436Y-64500500D01*
X203209805Y-64500500D01*
X203251564Y-64500500D01*
X203258502Y-64500889D01*
X203287400Y-64504145D01*
X203299998Y-64505565D01*
X203300000Y-64505565D01*
X203300002Y-64505565D01*
X203312599Y-64504145D01*
X203341497Y-64500889D01*
X203348436Y-64500500D01*
X206317060Y-64500500D01*
X206384099Y-64520185D01*
X206404741Y-64536819D01*
X208399710Y-66531788D01*
X208404347Y-66536976D01*
X208430376Y-66569616D01*
X208430381Y-66569621D01*
X208463022Y-66595652D01*
X208468210Y-66600288D01*
X208497738Y-66629816D01*
X208533089Y-66652028D01*
X208538765Y-66656055D01*
X208571411Y-66682090D01*
X208571412Y-66682091D01*
X208592548Y-66692269D01*
X208609035Y-66700208D01*
X208615112Y-66703567D01*
X208632635Y-66714577D01*
X208650477Y-66725789D01*
X208689891Y-66739581D01*
X208696320Y-66742244D01*
X208733941Y-66760361D01*
X208774641Y-66769650D01*
X208781328Y-66771576D01*
X208820742Y-66785367D01*
X208820745Y-66785368D01*
X208862241Y-66790043D01*
X208869093Y-66791207D01*
X208909806Y-66800500D01*
X208951564Y-66800500D01*
X208958502Y-66800889D01*
X208987400Y-66804145D01*
X208999998Y-66805565D01*
X209000000Y-66805565D01*
X209000002Y-66805565D01*
X209012599Y-66804145D01*
X209041497Y-66800889D01*
X209048436Y-66800500D01*
X209090194Y-66800500D01*
X209130903Y-66791208D01*
X209137760Y-66790043D01*
X209179255Y-66785368D01*
X209218676Y-66771573D01*
X209225333Y-66769655D01*
X209266061Y-66760360D01*
X209266060Y-66760359D01*
X209266059Y-66760359D01*
X209291796Y-66754485D01*
X209328246Y-66733233D01*
X209349522Y-66725789D01*
X209384889Y-66703565D01*
X209390961Y-66700209D01*
X209428587Y-66682091D01*
X209461236Y-66656052D01*
X209466895Y-66652037D01*
X209502262Y-66629816D01*
X209531795Y-66600281D01*
X209536974Y-66595652D01*
X209569620Y-66569620D01*
X209595652Y-66536974D01*
X209600272Y-66531804D01*
X209629816Y-66502262D01*
X211795259Y-64336819D01*
X211856582Y-64303334D01*
X211882940Y-64300500D01*
X226517060Y-64300500D01*
X226584099Y-64320185D01*
X226604741Y-64336819D01*
X226767922Y-64500000D01*
X212100000Y-64500000D01*
X212074126Y-74849500D01*
X211877914Y-74849500D01*
X211810875Y-74829815D01*
X211790233Y-74813181D01*
X209702840Y-72725788D01*
X207677056Y-70700003D01*
X209094435Y-70700003D01*
X209114630Y-70879249D01*
X209114631Y-70879254D01*
X209174211Y-71049523D01*
X209251797Y-71172999D01*
X209270184Y-71202262D01*
X209397738Y-71329816D01*
X209550478Y-71425789D01*
X209698954Y-71477743D01*
X209720745Y-71485368D01*
X209720750Y-71485369D01*
X209899996Y-71505565D01*
X209900000Y-71505565D01*
X209900004Y-71505565D01*
X210079249Y-71485369D01*
X210079252Y-71485368D01*
X210079255Y-71485368D01*
X210249522Y-71425789D01*
X210315751Y-71384174D01*
X210382989Y-71365173D01*
X210449824Y-71385540D01*
X210469406Y-71401486D01*
X210470182Y-71402262D01*
X210597736Y-71529816D01*
X210750476Y-71625789D01*
X210828824Y-71653204D01*
X210920743Y-71685368D01*
X210920748Y-71685369D01*
X211099994Y-71705565D01*
X211099998Y-71705565D01*
X211100002Y-71705565D01*
X211279247Y-71685369D01*
X211279250Y-71685368D01*
X211279253Y-71685368D01*
X211449520Y-71625789D01*
X211602260Y-71529816D01*
X211729814Y-71402262D01*
X211825787Y-71249522D01*
X211885366Y-71079255D01*
X211886388Y-71070184D01*
X211905563Y-70900003D01*
X211905563Y-70899996D01*
X211885367Y-70720750D01*
X211885366Y-70720745D01*
X211883079Y-70714209D01*
X211825787Y-70550478D01*
X211825186Y-70549522D01*
X211770839Y-70463029D01*
X211729814Y-70397738D01*
X211602260Y-70270184D01*
X211567453Y-70248313D01*
X211449521Y-70174211D01*
X211279252Y-70114631D01*
X211279247Y-70114630D01*
X211100002Y-70094435D01*
X211099994Y-70094435D01*
X210920748Y-70114630D01*
X210920743Y-70114631D01*
X210750472Y-70174212D01*
X210684243Y-70215826D01*
X210617006Y-70234826D01*
X210550171Y-70214458D01*
X210530591Y-70198513D01*
X210402262Y-70070184D01*
X210249523Y-69974211D01*
X210079254Y-69914631D01*
X210079249Y-69914630D01*
X209900004Y-69894435D01*
X209899996Y-69894435D01*
X209720750Y-69914630D01*
X209720745Y-69914631D01*
X209550476Y-69974211D01*
X209397737Y-70070184D01*
X209270184Y-70197737D01*
X209174211Y-70350476D01*
X209114631Y-70520745D01*
X209114630Y-70520750D01*
X209094435Y-70699996D01*
X209094435Y-70700003D01*
X207677056Y-70700003D01*
X207574640Y-70597587D01*
X207572684Y-70595538D01*
X207519727Y-70537448D01*
X207457030Y-70490101D01*
X207454786Y-70488323D01*
X207394297Y-70438095D01*
X207382844Y-70431716D01*
X207374681Y-70427169D01*
X207367483Y-70422478D01*
X207349580Y-70408958D01*
X207349571Y-70408952D01*
X207279225Y-70373924D01*
X207276692Y-70372589D01*
X207208025Y-70334343D01*
X207208020Y-70334341D01*
X207186742Y-70327209D01*
X207178802Y-70323921D01*
X207158713Y-70313917D01*
X207083123Y-70292410D01*
X207080387Y-70291563D01*
X207076320Y-70290200D01*
X207005858Y-70266583D01*
X207005857Y-70266582D01*
X207005855Y-70266582D01*
X206983625Y-70263481D01*
X206975217Y-70261707D01*
X206953632Y-70255566D01*
X206953621Y-70255565D01*
X206875357Y-70248312D01*
X206872527Y-70247984D01*
X206846695Y-70244380D01*
X206794687Y-70237126D01*
X206794684Y-70237126D01*
X206758936Y-70238778D01*
X206716163Y-70240756D01*
X206713300Y-70240822D01*
X202411879Y-70240822D01*
X202409016Y-70240756D01*
X202376201Y-70239239D01*
X202330495Y-70237126D01*
X202330493Y-70237126D01*
X202330490Y-70237126D01*
X202252659Y-70247983D01*
X202249815Y-70248313D01*
X202171547Y-70255565D01*
X202149955Y-70261708D01*
X202141546Y-70263482D01*
X202119320Y-70266582D01*
X202119315Y-70266583D01*
X202044791Y-70291561D01*
X202042057Y-70292408D01*
X201966465Y-70313916D01*
X201946374Y-70323921D01*
X201938437Y-70327209D01*
X201917157Y-70334341D01*
X201917150Y-70334345D01*
X201848498Y-70372581D01*
X201845967Y-70373915D01*
X201775599Y-70408955D01*
X201757695Y-70422477D01*
X201750495Y-70427169D01*
X201730885Y-70438092D01*
X201730880Y-70438095D01*
X201670400Y-70488316D01*
X201668157Y-70490093D01*
X201605449Y-70537449D01*
X201605446Y-70537452D01*
X201552503Y-70595527D01*
X201550525Y-70597598D01*
X201323956Y-70824169D01*
X201132544Y-71015581D01*
X201071221Y-71049066D01*
X201044863Y-71051900D01*
X198796322Y-71051900D01*
X198729283Y-71032215D01*
X198717110Y-71023301D01*
X198624975Y-70946793D01*
X198438702Y-70843041D01*
X198370941Y-70820329D01*
X198236535Y-70775280D01*
X198025364Y-70745824D01*
X198025362Y-70745824D01*
X197964507Y-70748637D01*
X197812366Y-70755671D01*
X197812365Y-70755671D01*
X197604823Y-70804484D01*
X197604810Y-70804488D01*
X197409767Y-70890609D01*
X197409763Y-70890611D01*
X197233859Y-71011108D01*
X197233853Y-71011113D01*
X197083093Y-71161873D01*
X197083088Y-71161879D01*
X196962591Y-71337783D01*
X196962589Y-71337787D01*
X196876468Y-71532830D01*
X196876464Y-71532843D01*
X196827651Y-71740385D01*
X196827651Y-71740386D01*
X196817804Y-71953385D01*
X196847260Y-72164555D01*
X196876229Y-72250984D01*
X196915021Y-72366722D01*
X196981106Y-72485368D01*
X197021563Y-72558004D01*
X197020106Y-72558815D01*
X197039343Y-72617862D01*
X197021633Y-72685450D01*
X196970194Y-72732735D01*
X196915396Y-72745500D01*
X196522465Y-72745500D01*
X196455426Y-72725815D01*
X196434784Y-72709181D01*
X195040818Y-71315215D01*
X195007333Y-71253892D01*
X195004499Y-71227542D01*
X195004499Y-70098699D01*
X195023506Y-70032728D01*
X195075789Y-69949522D01*
X195135368Y-69779255D01*
X195136749Y-69766997D01*
X195155565Y-69600003D01*
X195155565Y-69599996D01*
X195135369Y-69420750D01*
X195135368Y-69420745D01*
X195075788Y-69250476D01*
X195022927Y-69166349D01*
X194979816Y-69097738D01*
X194852262Y-68970184D01*
X194808716Y-68942822D01*
X194699523Y-68874211D01*
X194630341Y-68850003D01*
X203344435Y-68850003D01*
X203364630Y-69029249D01*
X203364631Y-69029254D01*
X203424211Y-69199523D01*
X203496419Y-69314440D01*
X203520184Y-69352262D01*
X203647738Y-69479816D01*
X203800478Y-69575789D01*
X203869678Y-69600003D01*
X203970745Y-69635368D01*
X203970750Y-69635369D01*
X204149996Y-69655565D01*
X204150000Y-69655565D01*
X204150004Y-69655565D01*
X204329249Y-69635369D01*
X204329252Y-69635368D01*
X204329255Y-69635368D01*
X204499522Y-69575789D01*
X204652262Y-69479816D01*
X204779816Y-69352262D01*
X204875789Y-69199522D01*
X204935368Y-69029255D01*
X204935369Y-69029249D01*
X204955565Y-68850003D01*
X204955565Y-68849996D01*
X204935369Y-68670750D01*
X204935368Y-68670745D01*
X204875788Y-68500476D01*
X204803461Y-68385369D01*
X204779816Y-68347738D01*
X204652262Y-68220184D01*
X204628996Y-68205565D01*
X204499523Y-68124211D01*
X204329254Y-68064631D01*
X204329249Y-68064630D01*
X204150004Y-68044435D01*
X204149996Y-68044435D01*
X203970750Y-68064630D01*
X203970745Y-68064631D01*
X203800476Y-68124211D01*
X203647737Y-68220184D01*
X203520184Y-68347737D01*
X203424211Y-68500476D01*
X203364631Y-68670745D01*
X203364630Y-68670750D01*
X203344435Y-68849996D01*
X203344435Y-68850003D01*
X194630341Y-68850003D01*
X194529254Y-68814631D01*
X194529249Y-68814630D01*
X194350004Y-68794435D01*
X194349996Y-68794435D01*
X194170750Y-68814630D01*
X194170745Y-68814631D01*
X194000476Y-68874211D01*
X193847737Y-68970184D01*
X193720184Y-69097737D01*
X193624211Y-69250476D01*
X193564631Y-69420745D01*
X193564630Y-69420750D01*
X193544435Y-69599996D01*
X193544435Y-69600003D01*
X193564630Y-69779249D01*
X193564631Y-69779254D01*
X193624211Y-69949524D01*
X193676493Y-70032728D01*
X193695500Y-70098701D01*
X193695500Y-71464053D01*
X193693725Y-71480126D01*
X193693960Y-71480149D01*
X193693225Y-71487915D01*
X193695500Y-71560280D01*
X193695500Y-71591172D01*
X193695501Y-71591190D01*
X193696425Y-71598512D01*
X193696883Y-71604331D01*
X193698419Y-71653200D01*
X193698420Y-71653204D01*
X193704395Y-71673771D01*
X193708340Y-71692817D01*
X193711023Y-71714058D01*
X193711025Y-71714065D01*
X193719120Y-71734510D01*
X193729024Y-71759525D01*
X193730911Y-71765038D01*
X193743254Y-71807522D01*
X193744555Y-71811999D01*
X193744557Y-71812004D01*
X193755457Y-71830435D01*
X193764015Y-71847904D01*
X193771897Y-71867811D01*
X193800630Y-71907359D01*
X193803838Y-71912243D01*
X193828730Y-71954332D01*
X193828737Y-71954341D01*
X193843873Y-71969477D01*
X193856507Y-71984269D01*
X193869095Y-72001593D01*
X193869102Y-72001601D01*
X193906774Y-72032766D01*
X193911085Y-72036688D01*
X194583578Y-72709181D01*
X195212216Y-73337819D01*
X195245701Y-73399142D01*
X195240717Y-73468834D01*
X195198845Y-73524767D01*
X195133381Y-73549184D01*
X195124535Y-73549500D01*
X194838482Y-73549500D01*
X194757519Y-73562323D01*
X194744696Y-73564354D01*
X194631658Y-73621950D01*
X194631657Y-73621951D01*
X194631652Y-73621954D01*
X194541954Y-73711652D01*
X194541951Y-73711657D01*
X194541950Y-73711658D01*
X194525635Y-73743678D01*
X194484352Y-73824698D01*
X194469500Y-73918475D01*
X194469500Y-75681517D01*
X194480292Y-75749657D01*
X194484354Y-75775304D01*
X194541950Y-75888342D01*
X194541952Y-75888344D01*
X194541954Y-75888347D01*
X194631652Y-75978045D01*
X194631654Y-75978046D01*
X194631658Y-75978050D01*
X194744694Y-76035645D01*
X194744698Y-76035647D01*
X194838475Y-76050499D01*
X194838481Y-76050500D01*
X196601518Y-76050499D01*
X196695304Y-76035646D01*
X196808342Y-75978050D01*
X196898050Y-75888342D01*
X196955646Y-75775304D01*
X196955646Y-75775302D01*
X196955647Y-75775301D01*
X196970499Y-75681524D01*
X196970500Y-75681519D01*
X196970499Y-75531859D01*
X196990183Y-75464823D01*
X197042987Y-75419068D01*
X197112145Y-75409124D01*
X197175701Y-75438149D01*
X197196073Y-75460738D01*
X197292323Y-75598196D01*
X197298402Y-75606877D01*
X197453123Y-75761598D01*
X197632361Y-75887102D01*
X197830670Y-75979575D01*
X198042023Y-76036207D01*
X198197554Y-76049813D01*
X198222221Y-76051972D01*
X198258594Y-76066199D01*
X198273651Y-76056523D01*
X198297779Y-76051972D01*
X198317539Y-76050243D01*
X198477977Y-76036207D01*
X198689330Y-75979575D01*
X198887639Y-75887102D01*
X199066877Y-75761598D01*
X199221598Y-75606877D01*
X199347102Y-75427639D01*
X199417618Y-75276414D01*
X199463790Y-75223977D01*
X199530984Y-75204825D01*
X199597865Y-75225041D01*
X199642381Y-75276414D01*
X199712898Y-75427639D01*
X199838402Y-75606877D01*
X199993123Y-75761598D01*
X200172361Y-75887102D01*
X200370670Y-75979575D01*
X200582023Y-76036207D01*
X200737554Y-76049813D01*
X200762221Y-76051972D01*
X200798594Y-76066199D01*
X200813651Y-76056523D01*
X200837779Y-76051972D01*
X200857539Y-76050243D01*
X201017977Y-76036207D01*
X201229330Y-75979575D01*
X201427639Y-75887102D01*
X201606877Y-75761598D01*
X201761598Y-75606877D01*
X201887102Y-75427639D01*
X201957619Y-75276414D01*
X202003789Y-75223977D01*
X202070982Y-75204825D01*
X202137863Y-75225040D01*
X202182381Y-75276416D01*
X202252897Y-75427638D01*
X202260257Y-75438149D01*
X202378402Y-75606877D01*
X202533123Y-75761598D01*
X202712361Y-75887102D01*
X202910670Y-75979575D01*
X203122023Y-76036207D01*
X203277554Y-76049813D01*
X203302221Y-76051972D01*
X203338594Y-76066199D01*
X203353651Y-76056523D01*
X203377779Y-76051972D01*
X203397539Y-76050243D01*
X203557977Y-76036207D01*
X203769330Y-75979575D01*
X203967639Y-75887102D01*
X204146877Y-75761598D01*
X204301598Y-75606877D01*
X204427102Y-75427639D01*
X204442726Y-75394132D01*
X204488896Y-75341695D01*
X204556090Y-75322543D01*
X204622971Y-75342758D01*
X204667489Y-75394134D01*
X204706399Y-75477578D01*
X204841894Y-75671082D01*
X205008917Y-75838105D01*
X205202421Y-75973600D01*
X205394393Y-76063118D01*
X205446832Y-76109290D01*
X205465984Y-76176484D01*
X205445768Y-76243365D01*
X205392603Y-76288700D01*
X205341988Y-76299500D01*
X203388586Y-76299500D01*
X203338949Y-76284925D01*
X203315846Y-76297069D01*
X203291414Y-76299500D01*
X200848586Y-76299500D01*
X200798949Y-76284925D01*
X200775846Y-76297069D01*
X200751414Y-76299500D01*
X198308586Y-76299500D01*
X198258949Y-76284925D01*
X198235846Y-76297069D01*
X198211414Y-76299500D01*
X193224361Y-76299500D01*
X193157322Y-76279815D01*
X193136680Y-76263181D01*
X192336819Y-75463319D01*
X192303334Y-75401996D01*
X192300500Y-75375638D01*
X192300500Y-70880626D01*
X192302027Y-70861225D01*
X192304219Y-70847388D01*
X192300584Y-70778040D01*
X192300500Y-70774797D01*
X192300500Y-70752809D01*
X192300499Y-70752800D01*
X192298201Y-70730936D01*
X192297947Y-70727720D01*
X192294313Y-70658355D01*
X192290685Y-70644814D01*
X192287139Y-70625688D01*
X192285674Y-70611744D01*
X192264213Y-70545697D01*
X192263297Y-70542604D01*
X192245320Y-70475513D01*
X192238953Y-70463018D01*
X192231511Y-70445051D01*
X192227179Y-70431716D01*
X192192458Y-70371577D01*
X192190912Y-70368729D01*
X192159386Y-70306855D01*
X192159383Y-70306850D01*
X192150560Y-70295955D01*
X192139539Y-70279919D01*
X192137813Y-70276929D01*
X192132533Y-70267784D01*
X192086075Y-70216187D01*
X192083967Y-70213719D01*
X192070125Y-70196626D01*
X192070116Y-70196616D01*
X192054567Y-70181067D01*
X192052332Y-70178712D01*
X192005875Y-70127116D01*
X192005869Y-70127110D01*
X191994529Y-70118871D01*
X191979736Y-70106236D01*
X191249263Y-69375763D01*
X191215778Y-69314440D01*
X191220762Y-69244748D01*
X191262634Y-69188815D01*
X191328098Y-69164398D01*
X191377899Y-69171041D01*
X191418837Y-69185366D01*
X191418843Y-69185367D01*
X191418845Y-69185368D01*
X191418846Y-69185368D01*
X191418850Y-69185369D01*
X191598096Y-69205565D01*
X191598100Y-69205565D01*
X191598104Y-69205565D01*
X191777349Y-69185369D01*
X191777352Y-69185368D01*
X191777355Y-69185368D01*
X191947622Y-69125789D01*
X192100362Y-69029816D01*
X192227916Y-68902262D01*
X192323889Y-68749522D01*
X192383468Y-68579255D01*
X192392344Y-68500478D01*
X192403665Y-68400003D01*
X192403665Y-68399998D01*
X192401619Y-68381843D01*
X192397123Y-68341940D01*
X192409177Y-68273120D01*
X192456525Y-68221740D01*
X192506459Y-68204837D01*
X192558488Y-68198975D01*
X192679249Y-68185369D01*
X192679252Y-68185368D01*
X192679255Y-68185368D01*
X192849522Y-68125789D01*
X193002262Y-68029816D01*
X193129816Y-67902262D01*
X193225789Y-67749522D01*
X193278108Y-67600003D01*
X199394435Y-67600003D01*
X199414630Y-67779249D01*
X199414631Y-67779254D01*
X199474211Y-67949523D01*
X199505928Y-68000000D01*
X199570184Y-68102262D01*
X199697738Y-68229816D01*
X199850478Y-68325789D01*
X199896641Y-68341942D01*
X200020745Y-68385368D01*
X200020750Y-68385369D01*
X200199996Y-68405565D01*
X200200000Y-68405565D01*
X200200004Y-68405565D01*
X200379249Y-68385369D01*
X200379252Y-68385368D01*
X200379255Y-68385368D01*
X200549522Y-68325789D01*
X200702262Y-68229816D01*
X200829816Y-68102262D01*
X200925789Y-67949522D01*
X200985368Y-67779255D01*
X200998467Y-67662996D01*
X201005565Y-67600003D01*
X201005565Y-67599996D01*
X200985369Y-67420750D01*
X200985368Y-67420745D01*
X200978108Y-67399996D01*
X200925789Y-67250478D01*
X200907106Y-67220745D01*
X200853461Y-67135369D01*
X200829816Y-67097738D01*
X200702262Y-66970184D01*
X200656263Y-66941281D01*
X200549523Y-66874211D01*
X200379254Y-66814631D01*
X200379249Y-66814630D01*
X200200004Y-66794435D01*
X200199996Y-66794435D01*
X200020750Y-66814630D01*
X200020745Y-66814631D01*
X199850476Y-66874211D01*
X199697737Y-66970184D01*
X199570184Y-67097737D01*
X199474211Y-67250476D01*
X199414631Y-67420745D01*
X199414630Y-67420750D01*
X199394435Y-67599996D01*
X199394435Y-67600003D01*
X193278108Y-67600003D01*
X193285368Y-67579255D01*
X193286831Y-67566274D01*
X193305565Y-67400003D01*
X193305565Y-67399996D01*
X193285369Y-67220750D01*
X193285366Y-67220737D01*
X193225790Y-67050481D01*
X193225789Y-67050478D01*
X193205473Y-67018145D01*
X193173506Y-66967269D01*
X193154500Y-66901297D01*
X193154500Y-64333300D01*
X193174185Y-64266261D01*
X193226989Y-64220506D01*
X193278500Y-64209300D01*
X193613742Y-64209300D01*
X193658177Y-64217535D01*
X193672249Y-64222937D01*
X193715912Y-64229852D01*
X193722244Y-64231198D01*
X193764954Y-64242643D01*
X193809111Y-64244956D01*
X193815543Y-64245632D01*
X193859211Y-64252549D01*
X193903356Y-64250235D01*
X193909842Y-64250235D01*
X193953987Y-64252549D01*
X193997651Y-64245632D01*
X194004086Y-64244956D01*
X194048245Y-64242643D01*
X194090969Y-64231193D01*
X194097283Y-64229852D01*
X194140949Y-64222937D01*
X194177940Y-64208736D01*
X194222379Y-64200500D01*
X195121500Y-64200500D01*
X195188539Y-64220185D01*
X195234294Y-64272989D01*
X195245500Y-64324500D01*
X195245500Y-65171197D01*
X195226494Y-65237169D01*
X195174211Y-65320377D01*
X195174209Y-65320381D01*
X195114633Y-65490637D01*
X195114630Y-65490650D01*
X195094435Y-65669896D01*
X195094435Y-65669903D01*
X195114630Y-65849149D01*
X195114631Y-65849154D01*
X195174211Y-66019423D01*
X195253468Y-66145559D01*
X195270184Y-66172162D01*
X195397738Y-66299716D01*
X195550478Y-66395689D01*
X195636679Y-66425852D01*
X195720745Y-66455268D01*
X195720750Y-66455269D01*
X195899996Y-66475465D01*
X195900000Y-66475465D01*
X195900004Y-66475465D01*
X196079249Y-66455269D01*
X196079252Y-66455268D01*
X196079255Y-66455268D01*
X196249522Y-66395689D01*
X196402262Y-66299716D01*
X196529816Y-66172162D01*
X196625789Y-66019422D01*
X196685368Y-65849155D01*
X196691353Y-65796037D01*
X196705565Y-65669903D01*
X196705565Y-65669896D01*
X196685369Y-65490650D01*
X196685366Y-65490637D01*
X196625790Y-65320381D01*
X196625789Y-65320378D01*
X196591432Y-65265699D01*
X196573506Y-65237169D01*
X196554500Y-65171197D01*
X196554500Y-64324500D01*
X196574185Y-64257461D01*
X196626989Y-64211706D01*
X196678500Y-64200500D01*
X197574918Y-64200500D01*
X197631212Y-64214014D01*
X197647512Y-64222320D01*
X197830354Y-64271312D01*
X198019388Y-64281219D01*
X198141077Y-64261945D01*
X198206346Y-64251608D01*
X198206348Y-64251607D01*
X198206350Y-64251607D01*
X198383070Y-64183771D01*
X198541825Y-64080674D01*
X198675674Y-63946825D01*
X198778771Y-63788070D01*
X198846607Y-63611350D01*
X198860958Y-63520745D01*
X198876219Y-63424388D01*
X198866312Y-63235357D01*
X198866311Y-63235350D01*
X198817321Y-63052515D01*
X198817320Y-63052514D01*
X198817320Y-63052512D01*
X198731383Y-62883851D01*
X198731380Y-62883847D01*
X198731379Y-62883845D01*
X198677985Y-62817911D01*
X198642119Y-62773620D01*
X198588761Y-62720262D01*
X198576126Y-62705468D01*
X198567887Y-62694128D01*
X198516277Y-62647657D01*
X198513922Y-62645423D01*
X198498382Y-62629882D01*
X198481295Y-62616043D01*
X198478831Y-62613939D01*
X198427220Y-62567470D01*
X198427213Y-62567465D01*
X198415070Y-62560454D01*
X198399043Y-62549438D01*
X198388153Y-62540620D01*
X198388151Y-62540619D01*
X198388149Y-62540617D01*
X198369259Y-62530992D01*
X198326266Y-62509085D01*
X198323414Y-62507537D01*
X198263282Y-62472820D01*
X198249949Y-62468488D01*
X198231978Y-62461043D01*
X198219498Y-62454684D01*
X198219486Y-62454679D01*
X198152409Y-62436705D01*
X198149309Y-62435787D01*
X198083256Y-62414326D01*
X198083251Y-62414325D01*
X198083249Y-62414325D01*
X198069314Y-62412860D01*
X198050189Y-62409315D01*
X198036653Y-62405688D01*
X198036643Y-62405686D01*
X197967290Y-62402051D01*
X197964059Y-62401797D01*
X197949537Y-62400271D01*
X197942192Y-62399500D01*
X197942189Y-62399500D01*
X197920203Y-62399500D01*
X197916959Y-62399415D01*
X197847612Y-62395781D01*
X197847611Y-62395781D01*
X197833772Y-62397973D01*
X197814373Y-62399500D01*
X194035556Y-62399500D01*
X194016157Y-62397973D01*
X194002317Y-62395781D01*
X193932970Y-62399415D01*
X193929727Y-62399500D01*
X193907737Y-62399500D01*
X193901488Y-62400156D01*
X193885870Y-62401797D01*
X193882639Y-62402051D01*
X193830279Y-62404796D01*
X193823788Y-62404796D01*
X193823626Y-62404787D01*
X193819681Y-62404580D01*
X193808961Y-62406278D01*
X193805839Y-62406773D01*
X193786442Y-62408300D01*
X191562857Y-62408300D01*
X191543460Y-62406773D01*
X191529613Y-62404580D01*
X191476225Y-62396124D01*
X191476222Y-62396124D01*
X191350319Y-62408025D01*
X191344483Y-62408300D01*
X191291350Y-62408300D01*
X191224311Y-62388615D01*
X191178556Y-62335811D01*
X191168130Y-62270417D01*
X191187170Y-62101429D01*
X191187170Y-62101422D01*
X191167346Y-61925477D01*
X191179401Y-61856656D01*
X191226750Y-61805276D01*
X191294360Y-61787652D01*
X191342971Y-61799212D01*
X191433507Y-61841429D01*
X191433516Y-61841433D01*
X191647000Y-61898634D01*
X191647000Y-61180301D01*
X191666685Y-61113262D01*
X191719489Y-61067507D01*
X191788647Y-61057563D01*
X191861237Y-61068000D01*
X191861238Y-61068000D01*
X191932762Y-61068000D01*
X191932763Y-61068000D01*
X192005353Y-61057563D01*
X192074512Y-61067507D01*
X192127315Y-61113262D01*
X192147000Y-61180301D01*
X192147000Y-61898633D01*
X192360483Y-61841433D01*
X192360492Y-61841429D01*
X192574578Y-61741600D01*
X192768082Y-61606105D01*
X192935105Y-61439082D01*
X193070598Y-61245580D01*
X193109509Y-61162135D01*
X193155681Y-61109695D01*
X193222875Y-61090543D01*
X193289756Y-61110758D01*
X193334273Y-61162133D01*
X193345901Y-61187068D01*
X193349898Y-61195639D01*
X193475402Y-61374877D01*
X193630123Y-61529598D01*
X193809361Y-61655102D01*
X194007670Y-61747575D01*
X194219023Y-61804207D01*
X194401926Y-61820208D01*
X194436998Y-61823277D01*
X194437000Y-61823277D01*
X194437002Y-61823277D01*
X194465254Y-61820805D01*
X194654977Y-61804207D01*
X194866330Y-61747575D01*
X195064639Y-61655102D01*
X195243877Y-61529598D01*
X195398598Y-61374877D01*
X195524102Y-61195639D01*
X195594618Y-61044414D01*
X195640790Y-60991977D01*
X195707984Y-60972825D01*
X195774865Y-60993041D01*
X195819381Y-61044414D01*
X195889898Y-61195639D01*
X196015402Y-61374877D01*
X196170123Y-61529598D01*
X196349361Y-61655102D01*
X196547670Y-61747575D01*
X196759023Y-61804207D01*
X196941926Y-61820208D01*
X196976998Y-61823277D01*
X196977000Y-61823277D01*
X196977002Y-61823277D01*
X197005254Y-61820805D01*
X197194977Y-61804207D01*
X197406330Y-61747575D01*
X197604639Y-61655102D01*
X197783877Y-61529598D01*
X197938598Y-61374877D01*
X198064102Y-61195639D01*
X198134618Y-61044414D01*
X198180790Y-60991977D01*
X198247984Y-60972825D01*
X198314865Y-60993041D01*
X198359381Y-61044414D01*
X198429898Y-61195639D01*
X198555402Y-61374877D01*
X198710123Y-61529598D01*
X198889361Y-61655102D01*
X199087670Y-61747575D01*
X199299023Y-61804207D01*
X199481926Y-61820208D01*
X199516998Y-61823277D01*
X199517000Y-61823277D01*
X199517002Y-61823277D01*
X199545254Y-61820805D01*
X199734977Y-61804207D01*
X199946330Y-61747575D01*
X200144639Y-61655102D01*
X200323877Y-61529598D01*
X200478598Y-61374877D01*
X200604102Y-61195639D01*
X200674618Y-61044414D01*
X200720790Y-60991977D01*
X200787984Y-60972825D01*
X200854865Y-60993041D01*
G37*
G04 #@! TD.AperFunction*
G04 #@! TA.AperFunction,Conductor*
G36*
X255351735Y-56050598D02*
G01*
X255502467Y-56059062D01*
X255654376Y-56067593D01*
X255661269Y-56068369D01*
X255902899Y-56109424D01*
X255958383Y-56118852D01*
X255965167Y-56120400D01*
X256254756Y-56203829D01*
X256261320Y-56206126D01*
X256539754Y-56321456D01*
X256546002Y-56324466D01*
X256734070Y-56428407D01*
X256809771Y-56470246D01*
X256815663Y-56473948D01*
X257061441Y-56648337D01*
X257066882Y-56652675D01*
X257291591Y-56853488D01*
X257296511Y-56858408D01*
X257497324Y-57083117D01*
X257501662Y-57088558D01*
X257676051Y-57334336D01*
X257679753Y-57340228D01*
X257825529Y-57603988D01*
X257828546Y-57610253D01*
X257870818Y-57712307D01*
X257943872Y-57888676D01*
X257946170Y-57895243D01*
X258029599Y-58184832D01*
X258031147Y-58191616D01*
X258081628Y-58488718D01*
X258082407Y-58495632D01*
X258099402Y-58798263D01*
X258099500Y-58801740D01*
X258099500Y-108798258D01*
X258099402Y-108801735D01*
X258082407Y-109104367D01*
X258081628Y-109111281D01*
X258031147Y-109408383D01*
X258029599Y-109415167D01*
X257946170Y-109704756D01*
X257943872Y-109711323D01*
X257828548Y-109989742D01*
X257825529Y-109996011D01*
X257679753Y-110259771D01*
X257676051Y-110265663D01*
X257501662Y-110511441D01*
X257497324Y-110516882D01*
X257296511Y-110741591D01*
X257291591Y-110746511D01*
X257066882Y-110947324D01*
X257061441Y-110951662D01*
X256815663Y-111126051D01*
X256809771Y-111129753D01*
X256546011Y-111275529D01*
X256539742Y-111278548D01*
X256261323Y-111393872D01*
X256254756Y-111396170D01*
X255965167Y-111479599D01*
X255958383Y-111481147D01*
X255661281Y-111531628D01*
X255654367Y-111532407D01*
X255351735Y-111549402D01*
X255348258Y-111549500D01*
X176351742Y-111549500D01*
X176348265Y-111549402D01*
X176045632Y-111532407D01*
X176038718Y-111531628D01*
X175741616Y-111481147D01*
X175734832Y-111479599D01*
X175445243Y-111396170D01*
X175438676Y-111393872D01*
X175262307Y-111320818D01*
X175160253Y-111278546D01*
X175153988Y-111275529D01*
X174890228Y-111129753D01*
X174884336Y-111126051D01*
X174638558Y-110951662D01*
X174633117Y-110947324D01*
X174408408Y-110746511D01*
X174403488Y-110741591D01*
X174202675Y-110516882D01*
X174198337Y-110511441D01*
X174023948Y-110265663D01*
X174020246Y-110259771D01*
X173919110Y-110076780D01*
X173874466Y-109996002D01*
X173871456Y-109989754D01*
X173756126Y-109711320D01*
X173753829Y-109704756D01*
X173670400Y-109415167D01*
X173668852Y-109408383D01*
X173644757Y-109266575D01*
X173618369Y-109111269D01*
X173617593Y-109104376D01*
X173606064Y-108899082D01*
X173600598Y-108801735D01*
X173600500Y-108798258D01*
X173600500Y-108755830D01*
X173600500Y-108367763D01*
X174995787Y-108367763D01*
X175025413Y-108637013D01*
X175025415Y-108637024D01*
X175093926Y-108899082D01*
X175093928Y-108899088D01*
X175199870Y-109148390D01*
X175272050Y-109266661D01*
X175340979Y-109379605D01*
X175340986Y-109379615D01*
X175514253Y-109587819D01*
X175514259Y-109587824D01*
X175715998Y-109768582D01*
X175941910Y-109918044D01*
X176187176Y-110033020D01*
X176187183Y-110033022D01*
X176187185Y-110033023D01*
X176446557Y-110111057D01*
X176446564Y-110111058D01*
X176446569Y-110111060D01*
X176714561Y-110150500D01*
X176714566Y-110150500D01*
X176917636Y-110150500D01*
X176969133Y-110146730D01*
X177120156Y-110135677D01*
X177232758Y-110110593D01*
X177384546Y-110076782D01*
X177384548Y-110076781D01*
X177384553Y-110076780D01*
X177637558Y-109980014D01*
X177873777Y-109847441D01*
X178088177Y-109681888D01*
X178276186Y-109486881D01*
X178433799Y-109266579D01*
X178517198Y-109104366D01*
X178557649Y-109025690D01*
X178557651Y-109025684D01*
X178557656Y-109025675D01*
X178645118Y-108769305D01*
X178694319Y-108502933D01*
X178704212Y-108232235D01*
X178674586Y-107962982D01*
X178606072Y-107700912D01*
X178500130Y-107451610D01*
X178359018Y-107220390D01*
X178269747Y-107113119D01*
X178185746Y-107012180D01*
X178185740Y-107012175D01*
X178172152Y-107000000D01*
X206294457Y-107000000D01*
X206314612Y-107358902D01*
X206314614Y-107358914D01*
X206374826Y-107713296D01*
X206374828Y-107713305D01*
X206474339Y-108058718D01*
X206474341Y-108058724D01*
X206490224Y-108097068D01*
X206611905Y-108390831D01*
X206785790Y-108705454D01*
X206973746Y-108970351D01*
X206993806Y-108998623D01*
X207233339Y-109266661D01*
X207501377Y-109506194D01*
X207794548Y-109714211D01*
X208109167Y-109888094D01*
X208441276Y-110025659D01*
X208786700Y-110125173D01*
X209141093Y-110185387D01*
X209500000Y-110205543D01*
X209858907Y-110185387D01*
X210213300Y-110125173D01*
X210558724Y-110025659D01*
X210890833Y-109888094D01*
X211205452Y-109714211D01*
X211498623Y-109506194D01*
X211766661Y-109266661D01*
X212006194Y-108998623D01*
X212214211Y-108705452D01*
X212388094Y-108390833D01*
X212397650Y-108367763D01*
X232995787Y-108367763D01*
X233025413Y-108637013D01*
X233025415Y-108637024D01*
X233093926Y-108899082D01*
X233093928Y-108899088D01*
X233199870Y-109148390D01*
X233272050Y-109266661D01*
X233340979Y-109379605D01*
X233340986Y-109379615D01*
X233514253Y-109587819D01*
X233514259Y-109587824D01*
X233715998Y-109768582D01*
X233941910Y-109918044D01*
X234187176Y-110033020D01*
X234187183Y-110033022D01*
X234187185Y-110033023D01*
X234446557Y-110111057D01*
X234446564Y-110111058D01*
X234446569Y-110111060D01*
X234714561Y-110150500D01*
X234714566Y-110150500D01*
X234917636Y-110150500D01*
X234969133Y-110146730D01*
X235120156Y-110135677D01*
X235232758Y-110110593D01*
X235384546Y-110076782D01*
X235384548Y-110076781D01*
X235384553Y-110076780D01*
X235637558Y-109980014D01*
X235873777Y-109847441D01*
X236088177Y-109681888D01*
X236276186Y-109486881D01*
X236433799Y-109266579D01*
X236517198Y-109104366D01*
X236557649Y-109025690D01*
X236557651Y-109025684D01*
X236557656Y-109025675D01*
X236645118Y-108769305D01*
X236694319Y-108502933D01*
X236704212Y-108232235D01*
X236674586Y-107962982D01*
X236606072Y-107700912D01*
X236500130Y-107451610D01*
X236359018Y-107220390D01*
X236269747Y-107113119D01*
X236185746Y-107012180D01*
X236185740Y-107012175D01*
X235984002Y-106831418D01*
X235758092Y-106681957D01*
X235758090Y-106681956D01*
X235512824Y-106566980D01*
X235512819Y-106566978D01*
X235512814Y-106566976D01*
X235253442Y-106488942D01*
X235253428Y-106488939D01*
X235137791Y-106471921D01*
X234985439Y-106449500D01*
X234782369Y-106449500D01*
X234782364Y-106449500D01*
X234579844Y-106464323D01*
X234579831Y-106464325D01*
X234315453Y-106523217D01*
X234315446Y-106523220D01*
X234062439Y-106619987D01*
X233826226Y-106752557D01*
X233611822Y-106918112D01*
X233423822Y-107113109D01*
X233423816Y-107113116D01*
X233266202Y-107333419D01*
X233266199Y-107333424D01*
X233142350Y-107574309D01*
X233142343Y-107574327D01*
X233054884Y-107830685D01*
X233054881Y-107830699D01*
X233005681Y-108097068D01*
X233005680Y-108097075D01*
X232995787Y-108367763D01*
X212397650Y-108367763D01*
X212525659Y-108058724D01*
X212625173Y-107713300D01*
X212685387Y-107358907D01*
X212705543Y-107000000D01*
X212685387Y-106641093D01*
X212625173Y-106286700D01*
X212525659Y-105941276D01*
X212388094Y-105609167D01*
X212214211Y-105294548D01*
X212147122Y-105199996D01*
X212006194Y-105001377D01*
X211963989Y-104954150D01*
X211766661Y-104733339D01*
X211504911Y-104499425D01*
X211498622Y-104493805D01*
X211205454Y-104285790D01*
X210890831Y-104111905D01*
X210804086Y-104075974D01*
X210558724Y-103974341D01*
X210558720Y-103974339D01*
X210558718Y-103974339D01*
X210213305Y-103874828D01*
X210213296Y-103874826D01*
X209858914Y-103814614D01*
X209858902Y-103814612D01*
X209525994Y-103795916D01*
X209500000Y-103794457D01*
X209499999Y-103794457D01*
X209141097Y-103814612D01*
X209141085Y-103814614D01*
X208786703Y-103874826D01*
X208786694Y-103874828D01*
X208441281Y-103974339D01*
X208109168Y-104111905D01*
X207794545Y-104285790D01*
X207501377Y-104493805D01*
X207233339Y-104733339D01*
X206993805Y-105001377D01*
X206785790Y-105294545D01*
X206611905Y-105609168D01*
X206474339Y-105941281D01*
X206374828Y-106286694D01*
X206374826Y-106286703D01*
X206314614Y-106641085D01*
X206314612Y-106641097D01*
X206294457Y-107000000D01*
X178172152Y-107000000D01*
X177984002Y-106831418D01*
X177758092Y-106681957D01*
X177758090Y-106681956D01*
X177512824Y-106566980D01*
X177512819Y-106566978D01*
X177512814Y-106566976D01*
X177253442Y-106488942D01*
X177253428Y-106488939D01*
X177137791Y-106471921D01*
X176985439Y-106449500D01*
X176782369Y-106449500D01*
X176782364Y-106449500D01*
X176579844Y-106464323D01*
X176579831Y-106464325D01*
X176315453Y-106523217D01*
X176315446Y-106523220D01*
X176062439Y-106619987D01*
X175826226Y-106752557D01*
X175611822Y-106918112D01*
X175423822Y-107113109D01*
X175423816Y-107113116D01*
X175266202Y-107333419D01*
X175266199Y-107333424D01*
X175142350Y-107574309D01*
X175142343Y-107574327D01*
X175054884Y-107830685D01*
X175054881Y-107830699D01*
X175005681Y-108097068D01*
X175005680Y-108097075D01*
X174995787Y-108367763D01*
X173600500Y-108367763D01*
X173600500Y-105200003D01*
X187294435Y-105200003D01*
X187314630Y-105379249D01*
X187314631Y-105379254D01*
X187374211Y-105549523D01*
X187424648Y-105629792D01*
X187470184Y-105702262D01*
X187597738Y-105829816D01*
X187750478Y-105925789D01*
X187794752Y-105941281D01*
X187920745Y-105985368D01*
X187920750Y-105985369D01*
X188099996Y-106005565D01*
X188100000Y-106005565D01*
X188100004Y-106005565D01*
X188279249Y-105985369D01*
X188279252Y-105985368D01*
X188279255Y-105985368D01*
X188449522Y-105925789D01*
X188602262Y-105829816D01*
X188729816Y-105702262D01*
X188825789Y-105549522D01*
X188885368Y-105379255D01*
X188885369Y-105379249D01*
X188905565Y-105200003D01*
X188905565Y-105199996D01*
X188885369Y-105020750D01*
X188885368Y-105020745D01*
X188838506Y-104886822D01*
X188825789Y-104850478D01*
X188729816Y-104697738D01*
X188602262Y-104570184D01*
X188594960Y-104565596D01*
X188449523Y-104474211D01*
X188279254Y-104414631D01*
X188279249Y-104414630D01*
X188100004Y-104394435D01*
X188099996Y-104394435D01*
X187920750Y-104414630D01*
X187920745Y-104414631D01*
X187750476Y-104474211D01*
X187597737Y-104570184D01*
X187470184Y-104697737D01*
X187374211Y-104850476D01*
X187314631Y-105020745D01*
X187314630Y-105020750D01*
X187294435Y-105199996D01*
X187294435Y-105200003D01*
X173600500Y-105200003D01*
X173600500Y-103870004D01*
X198044953Y-103870004D01*
X198065113Y-104139026D01*
X198065113Y-104139028D01*
X198125142Y-104402033D01*
X198125148Y-104402052D01*
X198223709Y-104653181D01*
X198223708Y-104653181D01*
X198358602Y-104886822D01*
X198412294Y-104954151D01*
X199023389Y-104343056D01*
X199084712Y-104309571D01*
X199154403Y-104314555D01*
X199210337Y-104356426D01*
X199216059Y-104364758D01*
X199220577Y-104371948D01*
X199348052Y-104499423D01*
X199355229Y-104503933D01*
X199401522Y-104556264D01*
X199412173Y-104625317D01*
X199383801Y-104689166D01*
X199376942Y-104696609D01*
X198764848Y-105308702D01*
X198947483Y-105433220D01*
X198947485Y-105433221D01*
X199190539Y-105550269D01*
X199190537Y-105550269D01*
X199448337Y-105629790D01*
X199448343Y-105629792D01*
X199715101Y-105669999D01*
X199715110Y-105670000D01*
X199984890Y-105670000D01*
X199984898Y-105669999D01*
X200251656Y-105629792D01*
X200251662Y-105629790D01*
X200509461Y-105550269D01*
X200752521Y-105433218D01*
X200935150Y-105308702D01*
X200323057Y-104696610D01*
X200289572Y-104635287D01*
X200294556Y-104565596D01*
X200336427Y-104509662D01*
X200344769Y-104503934D01*
X200346351Y-104502939D01*
X200351948Y-104499423D01*
X200479423Y-104371948D01*
X200483933Y-104364769D01*
X200536267Y-104318476D01*
X200605320Y-104307826D01*
X200669169Y-104336200D01*
X200676610Y-104343057D01*
X201287703Y-104954151D01*
X201287704Y-104954150D01*
X201341393Y-104886828D01*
X201341400Y-104886817D01*
X201476290Y-104653181D01*
X201574851Y-104402052D01*
X201574857Y-104402033D01*
X201634886Y-104139028D01*
X201634886Y-104139026D01*
X201655047Y-103870004D01*
X201655047Y-103869995D01*
X201634887Y-103600972D01*
X201634886Y-103600971D01*
X201574857Y-103337966D01*
X201574851Y-103337947D01*
X201476290Y-103086818D01*
X201476291Y-103086818D01*
X201341397Y-102853177D01*
X201287704Y-102785847D01*
X201287703Y-102785847D01*
X200676609Y-103396942D01*
X200615286Y-103430427D01*
X200545594Y-103425443D01*
X200489661Y-103383571D01*
X200483942Y-103375244D01*
X200479423Y-103368052D01*
X200351948Y-103240577D01*
X200344764Y-103236063D01*
X200298474Y-103183730D01*
X200287825Y-103114676D01*
X200316200Y-103050828D01*
X200323056Y-103043389D01*
X200935150Y-102431296D01*
X200752517Y-102306779D01*
X200752516Y-102306778D01*
X200509460Y-102189730D01*
X200509462Y-102189730D01*
X200251662Y-102110209D01*
X200251656Y-102110207D01*
X199984898Y-102070000D01*
X199715101Y-102070000D01*
X199448343Y-102110207D01*
X199448337Y-102110209D01*
X199190538Y-102189730D01*
X198947485Y-102306778D01*
X198947476Y-102306783D01*
X198764848Y-102431296D01*
X199376942Y-103043389D01*
X199410427Y-103104712D01*
X199405443Y-103174403D01*
X199363572Y-103230337D01*
X199355236Y-103236062D01*
X199348054Y-103240574D01*
X199220574Y-103368054D01*
X199216062Y-103375236D01*
X199163726Y-103421526D01*
X199094672Y-103432172D01*
X199030825Y-103403795D01*
X199023389Y-103396942D01*
X198412295Y-102785848D01*
X198358600Y-102853180D01*
X198223709Y-103086818D01*
X198125148Y-103337947D01*
X198125142Y-103337966D01*
X198065113Y-103600971D01*
X198065113Y-103600972D01*
X198044953Y-103869995D01*
X198044953Y-103870004D01*
X173600500Y-103870004D01*
X173600500Y-100870004D01*
X202744953Y-100870004D01*
X202765113Y-101139026D01*
X202765113Y-101139028D01*
X202825142Y-101402033D01*
X202825148Y-101402052D01*
X202923709Y-101653181D01*
X202923708Y-101653181D01*
X203058602Y-101886822D01*
X203112294Y-101954151D01*
X203723389Y-101343056D01*
X203784712Y-101309571D01*
X203854403Y-101314555D01*
X203910337Y-101356426D01*
X203916059Y-101364758D01*
X203920577Y-101371948D01*
X204048052Y-101499423D01*
X204055229Y-101503933D01*
X204101522Y-101556264D01*
X204112173Y-101625317D01*
X204083801Y-101689166D01*
X204076942Y-101696609D01*
X203464848Y-102308702D01*
X203647483Y-102433220D01*
X203647485Y-102433221D01*
X203890539Y-102550269D01*
X203890537Y-102550269D01*
X204148337Y-102629790D01*
X204148343Y-102629792D01*
X204415101Y-102669999D01*
X204415110Y-102670000D01*
X204684890Y-102670000D01*
X204684898Y-102669999D01*
X204951656Y-102629792D01*
X204951662Y-102629790D01*
X205209461Y-102550269D01*
X205452521Y-102433218D01*
X205635150Y-102308702D01*
X205023057Y-101696610D01*
X204989572Y-101635287D01*
X204994556Y-101565596D01*
X205036427Y-101509662D01*
X205044769Y-101503934D01*
X205046351Y-101502939D01*
X205051948Y-101499423D01*
X205179423Y-101371948D01*
X205183933Y-101364769D01*
X205236267Y-101318476D01*
X205305320Y-101307826D01*
X205369169Y-101336200D01*
X205376610Y-101343057D01*
X205987703Y-101954151D01*
X205987704Y-101954150D01*
X206041393Y-101886828D01*
X206041400Y-101886817D01*
X206176290Y-101653181D01*
X206274851Y-101402052D01*
X206274857Y-101402033D01*
X206334886Y-101139028D01*
X206334886Y-101139026D01*
X206355047Y-100870004D01*
X206355047Y-100869995D01*
X206334886Y-100600973D01*
X206334886Y-100600971D01*
X206274857Y-100337966D01*
X206274851Y-100337947D01*
X206176290Y-100086818D01*
X206176291Y-100086818D01*
X206041397Y-99853177D01*
X205987704Y-99785847D01*
X205987703Y-99785847D01*
X205376609Y-100396942D01*
X205315286Y-100430427D01*
X205245594Y-100425443D01*
X205189661Y-100383571D01*
X205183942Y-100375244D01*
X205179423Y-100368052D01*
X205051948Y-100240577D01*
X205044764Y-100236063D01*
X204998474Y-100183730D01*
X204987825Y-100114676D01*
X205016200Y-100050828D01*
X205023056Y-100043389D01*
X205635150Y-99431296D01*
X205452517Y-99306779D01*
X205452516Y-99306778D01*
X205209460Y-99189730D01*
X205209462Y-99189730D01*
X204951662Y-99110209D01*
X204951656Y-99110207D01*
X204684898Y-99070000D01*
X204415101Y-99070000D01*
X204148343Y-99110207D01*
X204148337Y-99110209D01*
X203890538Y-99189730D01*
X203647485Y-99306778D01*
X203647476Y-99306783D01*
X203464848Y-99431296D01*
X204076942Y-100043389D01*
X204110427Y-100104712D01*
X204105443Y-100174403D01*
X204063572Y-100230337D01*
X204055236Y-100236062D01*
X204048054Y-100240574D01*
X203920574Y-100368054D01*
X203916062Y-100375236D01*
X203863726Y-100421526D01*
X203794672Y-100432172D01*
X203730825Y-100403795D01*
X203723389Y-100396942D01*
X203112295Y-99785848D01*
X203058600Y-99853180D01*
X202923709Y-100086818D01*
X202825148Y-100337947D01*
X202825142Y-100337966D01*
X202765113Y-100600971D01*
X202765113Y-100600973D01*
X202744953Y-100869995D01*
X202744953Y-100870004D01*
X173600500Y-100870004D01*
X173600500Y-99201517D01*
X198149500Y-99201517D01*
X198160292Y-99269657D01*
X198164354Y-99295304D01*
X198221950Y-99408342D01*
X198221952Y-99408344D01*
X198221954Y-99408347D01*
X198311652Y-99498045D01*
X198311654Y-99498046D01*
X198311658Y-99498050D01*
X198424694Y-99555645D01*
X198424698Y-99555647D01*
X198518475Y-99570499D01*
X198518481Y-99570500D01*
X201181518Y-99570499D01*
X201275304Y-99555646D01*
X201388342Y-99498050D01*
X201478050Y-99408342D01*
X201535646Y-99295304D01*
X201535646Y-99295302D01*
X201535647Y-99295301D01*
X201550499Y-99201524D01*
X201550500Y-99201519D01*
X201550499Y-96538482D01*
X201535646Y-96444696D01*
X201478050Y-96331658D01*
X201478046Y-96331654D01*
X201478045Y-96331652D01*
X201388347Y-96241954D01*
X201388344Y-96241952D01*
X201388342Y-96241950D01*
X201311517Y-96202805D01*
X201275301Y-96184352D01*
X201181524Y-96169500D01*
X198518482Y-96169500D01*
X198437519Y-96182323D01*
X198424696Y-96184354D01*
X198311658Y-96241950D01*
X198311657Y-96241950D01*
X198311657Y-96241951D01*
X198311652Y-96241954D01*
X198221954Y-96331652D01*
X198221951Y-96331657D01*
X198164352Y-96444698D01*
X198149500Y-96538475D01*
X198149500Y-99201517D01*
X173600500Y-99201517D01*
X173600499Y-90354603D01*
X188678435Y-90354603D01*
X188698630Y-90533849D01*
X188698631Y-90533854D01*
X188758211Y-90704123D01*
X188854183Y-90856861D01*
X188854184Y-90856862D01*
X188981738Y-90984416D01*
X189134478Y-91080389D01*
X189304745Y-91139968D01*
X189304750Y-91139969D01*
X189483996Y-91160165D01*
X189484000Y-91160165D01*
X189484004Y-91160165D01*
X189663249Y-91139969D01*
X189663252Y-91139968D01*
X189663255Y-91139968D01*
X189833522Y-91080389D01*
X189986262Y-90984416D01*
X190113816Y-90856862D01*
X190209789Y-90704122D01*
X190269368Y-90533855D01*
X190289565Y-90354600D01*
X190269368Y-90175345D01*
X190209789Y-90005078D01*
X190113816Y-89852338D01*
X189986262Y-89724784D01*
X189986261Y-89724783D01*
X189833523Y-89628811D01*
X189663254Y-89569231D01*
X189663249Y-89569230D01*
X189484004Y-89549035D01*
X189483996Y-89549035D01*
X189304750Y-89569230D01*
X189304745Y-89569231D01*
X189134476Y-89628811D01*
X188981737Y-89724784D01*
X188854184Y-89852337D01*
X188758211Y-90005076D01*
X188698631Y-90175345D01*
X188698630Y-90175350D01*
X188678435Y-90354596D01*
X188678435Y-90354603D01*
X173600499Y-90354603D01*
X173600499Y-86630403D01*
X186800135Y-86630403D01*
X186820330Y-86809649D01*
X186820331Y-86809654D01*
X186879911Y-86979923D01*
X186955361Y-87100000D01*
X186975884Y-87132662D01*
X187103438Y-87260216D01*
X187256178Y-87356189D01*
X187290418Y-87368170D01*
X187426445Y-87415768D01*
X187426450Y-87415769D01*
X187605696Y-87435965D01*
X187605700Y-87435965D01*
X187605704Y-87435965D01*
X187784949Y-87415769D01*
X187784952Y-87415768D01*
X187784955Y-87415768D01*
X187955222Y-87356189D01*
X188107962Y-87260216D01*
X188235516Y-87132662D01*
X188331489Y-86979922D01*
X188391068Y-86809655D01*
X188399388Y-86735815D01*
X188411265Y-86630403D01*
X188411265Y-86630396D01*
X188391069Y-86451150D01*
X188391068Y-86451145D01*
X188382727Y-86427309D01*
X188331489Y-86280878D01*
X188331405Y-86280745D01*
X188235515Y-86128137D01*
X188107962Y-86000584D01*
X187955223Y-85904611D01*
X187784954Y-85845031D01*
X187784949Y-85845030D01*
X187605704Y-85824835D01*
X187605696Y-85824835D01*
X187426450Y-85845030D01*
X187426445Y-85845031D01*
X187256176Y-85904611D01*
X187103437Y-86000584D01*
X186975884Y-86128137D01*
X186879911Y-86280876D01*
X186820331Y-86451145D01*
X186820330Y-86451150D01*
X186800135Y-86630396D01*
X186800135Y-86630403D01*
X173600499Y-86630403D01*
X173600499Y-84506833D01*
X198794500Y-84506833D01*
X198798385Y-84550000D01*
X198809803Y-84676875D01*
X198809804Y-84676881D01*
X198870402Y-84896452D01*
X198870407Y-84896465D01*
X198969238Y-85101691D01*
X198969242Y-85101699D01*
X199103131Y-85285981D01*
X199103132Y-85285983D01*
X199103135Y-85285986D01*
X199103136Y-85285987D01*
X199267785Y-85443407D01*
X199457895Y-85568898D01*
X199667358Y-85658427D01*
X199889441Y-85709116D01*
X200117006Y-85719336D01*
X200342738Y-85688758D01*
X200559384Y-85618366D01*
X200759978Y-85510421D01*
X200938072Y-85368396D01*
X200938073Y-85368396D01*
X200942924Y-85362844D01*
X201087949Y-85196849D01*
X201204785Y-85001299D01*
X201215020Y-84974026D01*
X201257002Y-84918181D01*
X201322516Y-84893896D01*
X201390758Y-84908886D01*
X201440064Y-84958391D01*
X201442832Y-84963797D01*
X201509238Y-85101691D01*
X201509242Y-85101699D01*
X201643131Y-85285981D01*
X201643132Y-85285983D01*
X201643135Y-85285986D01*
X201643136Y-85285987D01*
X201807785Y-85443407D01*
X201997895Y-85568898D01*
X202087097Y-85607024D01*
X202141004Y-85651473D01*
X202162324Y-85718011D01*
X202144286Y-85785512D01*
X202104335Y-85826038D01*
X202097742Y-85830180D01*
X202097737Y-85830184D01*
X201970184Y-85957737D01*
X201874211Y-86110476D01*
X201814631Y-86280745D01*
X201814630Y-86280750D01*
X201794435Y-86459996D01*
X201794435Y-86460003D01*
X201814630Y-86639249D01*
X201814631Y-86639254D01*
X201874211Y-86809523D01*
X201888202Y-86831789D01*
X201970184Y-86962262D01*
X202097738Y-87089816D01*
X202250478Y-87185789D01*
X202285084Y-87197898D01*
X202420745Y-87245368D01*
X202420750Y-87245369D01*
X202511246Y-87255565D01*
X202555040Y-87260499D01*
X202555043Y-87260500D01*
X202555046Y-87260500D01*
X202644957Y-87260500D01*
X202644958Y-87260499D01*
X202712104Y-87252934D01*
X202779249Y-87245369D01*
X202779252Y-87245368D01*
X202779255Y-87245368D01*
X202949522Y-87185789D01*
X203102262Y-87089816D01*
X203229816Y-86962262D01*
X203325789Y-86809522D01*
X203385368Y-86639255D01*
X203385369Y-86639249D01*
X203405565Y-86460003D01*
X203405565Y-86459996D01*
X203385369Y-86280750D01*
X203385368Y-86280745D01*
X203385367Y-86280744D01*
X203325789Y-86110478D01*
X203322975Y-86106000D01*
X203229815Y-85957737D01*
X203102261Y-85830183D01*
X203099633Y-85828532D01*
X203098299Y-85827023D01*
X203096816Y-85825841D01*
X203097023Y-85825581D01*
X203053345Y-85776195D01*
X203042699Y-85707141D01*
X203071077Y-85643294D01*
X203106848Y-85614349D01*
X203299978Y-85510421D01*
X203478072Y-85368396D01*
X203478073Y-85368396D01*
X203482924Y-85362844D01*
X203627949Y-85196849D01*
X203744785Y-85001299D01*
X203755020Y-84974026D01*
X203797002Y-84918181D01*
X203862516Y-84893896D01*
X203930758Y-84908886D01*
X203980064Y-84958391D01*
X203982832Y-84963797D01*
X204049238Y-85101691D01*
X204049242Y-85101699D01*
X204183131Y-85285981D01*
X204183132Y-85285983D01*
X204183135Y-85285986D01*
X204183136Y-85285987D01*
X204347785Y-85443407D01*
X204537895Y-85568898D01*
X204747358Y-85658427D01*
X204969441Y-85709116D01*
X205197006Y-85719336D01*
X205422738Y-85688758D01*
X205639384Y-85618366D01*
X205839978Y-85510421D01*
X206018075Y-85368394D01*
X206097619Y-85277347D01*
X206156550Y-85239813D01*
X206226419Y-85240098D01*
X206285043Y-85278112D01*
X206313809Y-85341785D01*
X206315000Y-85358932D01*
X206315000Y-85362844D01*
X206321401Y-85422372D01*
X206321403Y-85422379D01*
X206371645Y-85557086D01*
X206371649Y-85557093D01*
X206457809Y-85672187D01*
X206457812Y-85672190D01*
X206572906Y-85758350D01*
X206572913Y-85758354D01*
X206707620Y-85808596D01*
X206707627Y-85808598D01*
X206767155Y-85814999D01*
X206767172Y-85815000D01*
X207430000Y-85815000D01*
X207430000Y-84922403D01*
X207449685Y-84855364D01*
X207502489Y-84809609D01*
X207571646Y-84799665D01*
X207643527Y-84810000D01*
X207643530Y-84810000D01*
X207716470Y-84810000D01*
X207716473Y-84810000D01*
X207788353Y-84799665D01*
X207857512Y-84809609D01*
X207910316Y-84855364D01*
X207930000Y-84922403D01*
X207930000Y-85815000D01*
X208592828Y-85815000D01*
X208592844Y-85814999D01*
X208652372Y-85808598D01*
X208652379Y-85808596D01*
X208787086Y-85758354D01*
X208787093Y-85758350D01*
X208902187Y-85672190D01*
X208902190Y-85672187D01*
X208988350Y-85557093D01*
X208988354Y-85557086D01*
X209038596Y-85422379D01*
X209038598Y-85422372D01*
X209044999Y-85362844D01*
X209045000Y-85362827D01*
X209045000Y-84550000D01*
X208303769Y-84550000D01*
X208236730Y-84530315D01*
X208190975Y-84477511D01*
X208181031Y-84408353D01*
X208184792Y-84391064D01*
X208190000Y-84373327D01*
X208190000Y-84226672D01*
X208184792Y-84208936D01*
X208184792Y-84139066D01*
X208222566Y-84080288D01*
X208286121Y-84051262D01*
X208303769Y-84050000D01*
X209045000Y-84050000D01*
X209045000Y-83237172D01*
X209044999Y-83237155D01*
X209038598Y-83177627D01*
X209038596Y-83177620D01*
X208988354Y-83042913D01*
X208988350Y-83042906D01*
X208902190Y-82927812D01*
X208902187Y-82927809D01*
X208787093Y-82841649D01*
X208787086Y-82841645D01*
X208652379Y-82791403D01*
X208652372Y-82791401D01*
X208592844Y-82785000D01*
X207930000Y-82785000D01*
X207930000Y-83677596D01*
X207910315Y-83744635D01*
X207857511Y-83790390D01*
X207788355Y-83800334D01*
X207716476Y-83790000D01*
X207716473Y-83790000D01*
X207643527Y-83790000D01*
X207643523Y-83790000D01*
X207571645Y-83800334D01*
X207502487Y-83790390D01*
X207449684Y-83744634D01*
X207430000Y-83677596D01*
X207430000Y-82785000D01*
X206767155Y-82785000D01*
X206707627Y-82791401D01*
X206707620Y-82791403D01*
X206572913Y-82841645D01*
X206572906Y-82841649D01*
X206457812Y-82927809D01*
X206457809Y-82927812D01*
X206371649Y-83042906D01*
X206371645Y-83042913D01*
X206321403Y-83177620D01*
X206321401Y-83177627D01*
X206315001Y-83237153D01*
X206314851Y-83239956D01*
X206291608Y-83305847D01*
X206236433Y-83348712D01*
X206166841Y-83354942D01*
X206104929Y-83322560D01*
X206097655Y-83314918D01*
X206096868Y-83314018D01*
X206096866Y-83314016D01*
X206096864Y-83314013D01*
X205932215Y-83156593D01*
X205742105Y-83031102D01*
X205532642Y-82941573D01*
X205532635Y-82941571D01*
X205532631Y-82941570D01*
X205310559Y-82890884D01*
X205082997Y-82880664D01*
X205082996Y-82880664D01*
X205082994Y-82880664D01*
X204913695Y-82903597D01*
X204857261Y-82911242D01*
X204857256Y-82911243D01*
X204640614Y-82981634D01*
X204440024Y-83089577D01*
X204440015Y-83089583D01*
X204261927Y-83231603D01*
X204261926Y-83231603D01*
X204112056Y-83403144D01*
X204112050Y-83403152D01*
X203995218Y-83598693D01*
X203995212Y-83598706D01*
X203984979Y-83625973D01*
X203942993Y-83681821D01*
X203877479Y-83706103D01*
X203809237Y-83691111D01*
X203759933Y-83641604D01*
X203757167Y-83636202D01*
X203690761Y-83498308D01*
X203690757Y-83498300D01*
X203556868Y-83314018D01*
X203556867Y-83314016D01*
X203497563Y-83257316D01*
X203392215Y-83156593D01*
X203202105Y-83031102D01*
X202992642Y-82941573D01*
X202992635Y-82941571D01*
X202992631Y-82941570D01*
X202770559Y-82890884D01*
X202542997Y-82880664D01*
X202542996Y-82880664D01*
X202542994Y-82880664D01*
X202373695Y-82903597D01*
X202317261Y-82911242D01*
X202317256Y-82911243D01*
X202100614Y-82981634D01*
X201900024Y-83089577D01*
X201900015Y-83089583D01*
X201721927Y-83231603D01*
X201721926Y-83231603D01*
X201572056Y-83403144D01*
X201572050Y-83403152D01*
X201455218Y-83598693D01*
X201455212Y-83598706D01*
X201444979Y-83625973D01*
X201402993Y-83681821D01*
X201337479Y-83706103D01*
X201269237Y-83691111D01*
X201219933Y-83641604D01*
X201217167Y-83636202D01*
X201150761Y-83498308D01*
X201150757Y-83498300D01*
X201016868Y-83314018D01*
X201016867Y-83314016D01*
X200957563Y-83257316D01*
X200852215Y-83156593D01*
X200662105Y-83031102D01*
X200452642Y-82941573D01*
X200452635Y-82941571D01*
X200452631Y-82941570D01*
X200230559Y-82890884D01*
X200002997Y-82880664D01*
X200002996Y-82880664D01*
X200002994Y-82880664D01*
X199833694Y-82903597D01*
X199777261Y-82911242D01*
X199777256Y-82911243D01*
X199560614Y-82981634D01*
X199360024Y-83089577D01*
X199360015Y-83089583D01*
X199181927Y-83231603D01*
X199181926Y-83231603D01*
X199032056Y-83403144D01*
X199032050Y-83403152D01*
X198915218Y-83598693D01*
X198915216Y-83598699D01*
X198835173Y-83811970D01*
X198835173Y-83811971D01*
X198794500Y-84036099D01*
X198794500Y-84036103D01*
X198794500Y-84506833D01*
X173600499Y-84506833D01*
X173600499Y-82595003D01*
X175022135Y-82595003D01*
X175042330Y-82774249D01*
X175042331Y-82774254D01*
X175101911Y-82944523D01*
X175163730Y-83042906D01*
X175197884Y-83097262D01*
X175325438Y-83224816D01*
X175378791Y-83258340D01*
X175470780Y-83316141D01*
X175478178Y-83320789D01*
X175575782Y-83354942D01*
X175648445Y-83380368D01*
X175648450Y-83380369D01*
X175827696Y-83400565D01*
X175827700Y-83400565D01*
X175827704Y-83400565D01*
X176006949Y-83380369D01*
X176006952Y-83380368D01*
X176006955Y-83380368D01*
X176177222Y-83320789D01*
X176329962Y-83224816D01*
X176457516Y-83097262D01*
X176553489Y-82944522D01*
X176613068Y-82774255D01*
X176613908Y-82766801D01*
X176633265Y-82595003D01*
X176633265Y-82594996D01*
X176613069Y-82415750D01*
X176613068Y-82415745D01*
X176553488Y-82245476D01*
X176457515Y-82092737D01*
X176329962Y-81965184D01*
X176177223Y-81869211D01*
X176006954Y-81809631D01*
X176006949Y-81809630D01*
X175827704Y-81789435D01*
X175827696Y-81789435D01*
X175648450Y-81809630D01*
X175648445Y-81809631D01*
X175478176Y-81869211D01*
X175325437Y-81965184D01*
X175197884Y-82092737D01*
X175101911Y-82245476D01*
X175042331Y-82415745D01*
X175042330Y-82415750D01*
X175022135Y-82594996D01*
X175022135Y-82595003D01*
X173600499Y-82595003D01*
X173600499Y-80292862D01*
X175588035Y-80292862D01*
X175608230Y-80472108D01*
X175608231Y-80472113D01*
X175667811Y-80642382D01*
X175758422Y-80786588D01*
X175763784Y-80795121D01*
X175891338Y-80922675D01*
X176044078Y-81018648D01*
X176214344Y-81078227D01*
X176214345Y-81078227D01*
X176214350Y-81078228D01*
X176393596Y-81098424D01*
X176393600Y-81098424D01*
X176393604Y-81098424D01*
X176572849Y-81078228D01*
X176572852Y-81078227D01*
X176572855Y-81078227D01*
X176743122Y-81018648D01*
X176895862Y-80922675D01*
X177023416Y-80795121D01*
X177119389Y-80642381D01*
X177178968Y-80472114D01*
X177185925Y-80410367D01*
X177199165Y-80292862D01*
X177199165Y-80292855D01*
X177178969Y-80113609D01*
X177178968Y-80113604D01*
X177161694Y-80064237D01*
X177119389Y-79943337D01*
X177094488Y-79903708D01*
X177053382Y-79838288D01*
X177023416Y-79790597D01*
X176895862Y-79663043D01*
X176874288Y-79649487D01*
X176743123Y-79567070D01*
X176572854Y-79507490D01*
X176572849Y-79507489D01*
X176393604Y-79487294D01*
X176393596Y-79487294D01*
X176214350Y-79507489D01*
X176214345Y-79507490D01*
X176044076Y-79567070D01*
X175891337Y-79663043D01*
X175763784Y-79790596D01*
X175667811Y-79943335D01*
X175608231Y-80113604D01*
X175608230Y-80113609D01*
X175588035Y-80292855D01*
X175588035Y-80292862D01*
X173600499Y-80292862D01*
X173600499Y-75598203D01*
X181161035Y-75598203D01*
X181181230Y-75777449D01*
X181181231Y-75777454D01*
X181240811Y-75947723D01*
X181330502Y-76090464D01*
X181336784Y-76100462D01*
X181464338Y-76228016D01*
X181546776Y-76279815D01*
X181585803Y-76304338D01*
X181617078Y-76323989D01*
X181756623Y-76372818D01*
X181787345Y-76383568D01*
X181787350Y-76383569D01*
X181966596Y-76403765D01*
X181966600Y-76403765D01*
X181966604Y-76403765D01*
X182145849Y-76383569D01*
X182145852Y-76383568D01*
X182145855Y-76383568D01*
X182316122Y-76323989D01*
X182468862Y-76228016D01*
X182590121Y-76106756D01*
X182651440Y-76073274D01*
X182721132Y-76078258D01*
X182765480Y-76106757D01*
X182886738Y-76228016D01*
X183039478Y-76323989D01*
X183179023Y-76372818D01*
X183209745Y-76383568D01*
X183209750Y-76383569D01*
X183388996Y-76403765D01*
X183389000Y-76403765D01*
X183389004Y-76403765D01*
X183568249Y-76383569D01*
X183568252Y-76383568D01*
X183568255Y-76383568D01*
X183738522Y-76323989D01*
X183891262Y-76228016D01*
X184018816Y-76100462D01*
X184114789Y-75947722D01*
X184174368Y-75777455D01*
X184174369Y-75777449D01*
X184194565Y-75598203D01*
X184194565Y-75598196D01*
X184174369Y-75418950D01*
X184174368Y-75418945D01*
X184132747Y-75300000D01*
X184114789Y-75248678D01*
X184018816Y-75095938D01*
X183891262Y-74968384D01*
X183850894Y-74943019D01*
X183738523Y-74872411D01*
X183568254Y-74812831D01*
X183568249Y-74812830D01*
X183389004Y-74792635D01*
X183388996Y-74792635D01*
X183209750Y-74812830D01*
X183209745Y-74812831D01*
X183039476Y-74872411D01*
X182886739Y-74968383D01*
X182765481Y-75089641D01*
X182704158Y-75123125D01*
X182634466Y-75118141D01*
X182590119Y-75089641D01*
X182529685Y-75029207D01*
X182468862Y-74968384D01*
X182411911Y-74932599D01*
X182316123Y-74872411D01*
X182145854Y-74812831D01*
X182145849Y-74812830D01*
X181966604Y-74792635D01*
X181966596Y-74792635D01*
X181787350Y-74812830D01*
X181787345Y-74812831D01*
X181617076Y-74872411D01*
X181464337Y-74968384D01*
X181336784Y-75095937D01*
X181240811Y-75248676D01*
X181181231Y-75418945D01*
X181181230Y-75418950D01*
X181161035Y-75598196D01*
X181161035Y-75598203D01*
X173600499Y-75598203D01*
X173600499Y-74281197D01*
X181478605Y-74281197D01*
X181492411Y-74289872D01*
X181492415Y-74289874D01*
X181662572Y-74349414D01*
X181662575Y-74349415D01*
X181841711Y-74369599D01*
X181841717Y-74369599D01*
X182020852Y-74349415D01*
X182191021Y-74289870D01*
X182204821Y-74281198D01*
X182204821Y-74281197D01*
X183198605Y-74281197D01*
X183212411Y-74289872D01*
X183212415Y-74289874D01*
X183382572Y-74349414D01*
X183382575Y-74349415D01*
X183561711Y-74369599D01*
X183561717Y-74369599D01*
X183740852Y-74349415D01*
X183911021Y-74289870D01*
X183924821Y-74281198D01*
X183924821Y-74281197D01*
X183561713Y-73918089D01*
X183198605Y-74281197D01*
X182204821Y-74281197D01*
X181841713Y-73918089D01*
X181478605Y-74281197D01*
X173600499Y-74281197D01*
X173600499Y-73564539D01*
X181036652Y-73564539D01*
X181056835Y-73743675D01*
X181056836Y-73743678D01*
X181116376Y-73913835D01*
X181116381Y-73913845D01*
X181125052Y-73927645D01*
X181487534Y-73565163D01*
X181668586Y-73565163D01*
X181679605Y-73573412D01*
X181700113Y-73615629D01*
X181707227Y-73642182D01*
X181764066Y-73699021D01*
X181764067Y-73699021D01*
X181764069Y-73699023D01*
X181790623Y-73706138D01*
X181842342Y-73737661D01*
X181850589Y-73726645D01*
X181892801Y-73706138D01*
X181919359Y-73699023D01*
X181976200Y-73642183D01*
X181983314Y-73615630D01*
X182014839Y-73563908D01*
X182003823Y-73555661D01*
X181983315Y-73513445D01*
X181981891Y-73508133D01*
X181976200Y-73486892D01*
X181976199Y-73486891D01*
X181976199Y-73486890D01*
X181919359Y-73430050D01*
X181892806Y-73422936D01*
X181841085Y-73391411D01*
X181832839Y-73402428D01*
X181790622Y-73422936D01*
X181764070Y-73430050D01*
X181707226Y-73486893D01*
X181707226Y-73486894D01*
X181700111Y-73513447D01*
X181668586Y-73565163D01*
X181487534Y-73565163D01*
X181488161Y-73564536D01*
X181125052Y-73201427D01*
X181116378Y-73215233D01*
X181056836Y-73385395D01*
X181056835Y-73385398D01*
X181036652Y-73564534D01*
X181036652Y-73564539D01*
X173600499Y-73564539D01*
X173600499Y-73084536D01*
X181715266Y-73084536D01*
X181841713Y-73210983D01*
X181968159Y-73084536D01*
X181841713Y-72958089D01*
X181715266Y-73084536D01*
X173600499Y-73084536D01*
X173600499Y-72604539D01*
X181036652Y-72604539D01*
X181056835Y-72783675D01*
X181056836Y-72783678D01*
X181116376Y-72953835D01*
X181116381Y-72953845D01*
X181125051Y-72967645D01*
X181487533Y-72605163D01*
X181668587Y-72605163D01*
X181679604Y-72613410D01*
X181700111Y-72655626D01*
X181707226Y-72682180D01*
X181707228Y-72682183D01*
X181764068Y-72739023D01*
X181786062Y-72744916D01*
X181788241Y-72745500D01*
X181790619Y-72746137D01*
X181842341Y-72777661D01*
X181850589Y-72766645D01*
X181892801Y-72746138D01*
X181919359Y-72739023D01*
X181976200Y-72682183D01*
X181983314Y-72655630D01*
X182014457Y-72604535D01*
X182195265Y-72604535D01*
X182523027Y-72932297D01*
X182556512Y-72993620D01*
X182555122Y-73052069D01*
X182546423Y-73084537D01*
X182546423Y-73084540D01*
X182555121Y-73117004D01*
X182553457Y-73186854D01*
X182523027Y-73236776D01*
X182195266Y-73564536D01*
X182558374Y-73927644D01*
X182567212Y-73926649D01*
X182601059Y-73896711D01*
X182667603Y-73885755D01*
X182701713Y-73889598D01*
X182735821Y-73885755D01*
X182804644Y-73897808D01*
X182836641Y-73926697D01*
X182845052Y-73927645D01*
X183207535Y-73565163D01*
X183388586Y-73565163D01*
X183399605Y-73573412D01*
X183420113Y-73615629D01*
X183427227Y-73642182D01*
X183484066Y-73699021D01*
X183484067Y-73699021D01*
X183484069Y-73699023D01*
X183510623Y-73706138D01*
X183562342Y-73737661D01*
X183570589Y-73726645D01*
X183612801Y-73706138D01*
X183639359Y-73699023D01*
X183696200Y-73642183D01*
X183703314Y-73615630D01*
X183734456Y-73564536D01*
X183915266Y-73564536D01*
X184278374Y-73927644D01*
X184278375Y-73927644D01*
X184287047Y-73913844D01*
X184346592Y-73743675D01*
X184366776Y-73564539D01*
X184366776Y-73564534D01*
X184346592Y-73385398D01*
X184346591Y-73385395D01*
X184287051Y-73215238D01*
X184287049Y-73215234D01*
X184278374Y-73201427D01*
X183915266Y-73564536D01*
X183734456Y-73564536D01*
X183734839Y-73563908D01*
X183723823Y-73555662D01*
X183703315Y-73513445D01*
X183701891Y-73508133D01*
X183696200Y-73486892D01*
X183696199Y-73486891D01*
X183696199Y-73486890D01*
X183639359Y-73430050D01*
X183612806Y-73422936D01*
X183561085Y-73391411D01*
X183552839Y-73402428D01*
X183510622Y-73422936D01*
X183484070Y-73430050D01*
X183427226Y-73486893D01*
X183427226Y-73486894D01*
X183420111Y-73513447D01*
X183388586Y-73565163D01*
X183207535Y-73565163D01*
X183208161Y-73564537D01*
X182880399Y-73236775D01*
X182846914Y-73175452D01*
X182848305Y-73117002D01*
X182857005Y-73084537D01*
X183435267Y-73084537D01*
X183561713Y-73210983D01*
X183688160Y-73084536D01*
X183561714Y-72958090D01*
X183435267Y-73084537D01*
X182857005Y-73084537D01*
X182848305Y-73052071D01*
X182849969Y-72982221D01*
X182880400Y-72932297D01*
X183208161Y-72604535D01*
X182845053Y-72241427D01*
X182836210Y-72242424D01*
X182802371Y-72272359D01*
X182735823Y-72283318D01*
X182701716Y-72279475D01*
X182701710Y-72279475D01*
X182667602Y-72283318D01*
X182598780Y-72271263D01*
X182566784Y-72242374D01*
X182558376Y-72241427D01*
X182195265Y-72604535D01*
X182014457Y-72604535D01*
X182014840Y-72603907D01*
X182003822Y-72595659D01*
X181983314Y-72553442D01*
X181976199Y-72526890D01*
X181919359Y-72470050D01*
X181892806Y-72462936D01*
X181841086Y-72431411D01*
X181832840Y-72442428D01*
X181790622Y-72462936D01*
X181764070Y-72470050D01*
X181707227Y-72526892D01*
X181700113Y-72553444D01*
X181668587Y-72605163D01*
X181487533Y-72605163D01*
X181488161Y-72604535D01*
X181125053Y-72241427D01*
X181125052Y-72241428D01*
X181116378Y-72255233D01*
X181056836Y-72425395D01*
X181056835Y-72425398D01*
X181036652Y-72604534D01*
X181036652Y-72604539D01*
X173600499Y-72604539D01*
X173600499Y-71458003D01*
X177528835Y-71458003D01*
X177549030Y-71637249D01*
X177549031Y-71637254D01*
X177608611Y-71807523D01*
X177699119Y-71951564D01*
X177704584Y-71960262D01*
X177832138Y-72087816D01*
X177870307Y-72111799D01*
X177977660Y-72179254D01*
X177984878Y-72183789D01*
X178037671Y-72202262D01*
X178155145Y-72243368D01*
X178155150Y-72243369D01*
X178334396Y-72263565D01*
X178334400Y-72263565D01*
X178334404Y-72263565D01*
X178513649Y-72243369D01*
X178513652Y-72243368D01*
X178513655Y-72243368D01*
X178683922Y-72183789D01*
X178836662Y-72087816D01*
X178964216Y-71960262D01*
X179009700Y-71887875D01*
X181478604Y-71887875D01*
X181841713Y-72250984D01*
X182204822Y-71887875D01*
X182204822Y-71887874D01*
X182191022Y-71879204D01*
X182191012Y-71879199D01*
X182020855Y-71819659D01*
X182020852Y-71819658D01*
X181841717Y-71799475D01*
X181841711Y-71799475D01*
X181662575Y-71819658D01*
X181662572Y-71819659D01*
X181492410Y-71879201D01*
X181478605Y-71887875D01*
X181478604Y-71887875D01*
X179009700Y-71887875D01*
X179060189Y-71807522D01*
X179119768Y-71637255D01*
X179122891Y-71609537D01*
X179139965Y-71458003D01*
X179139965Y-71457996D01*
X179119769Y-71278750D01*
X179119768Y-71278745D01*
X179101848Y-71227534D01*
X179060189Y-71108478D01*
X179059432Y-71107274D01*
X178999007Y-71011108D01*
X178964216Y-70955738D01*
X178836662Y-70828184D01*
X178798950Y-70804488D01*
X178683923Y-70732211D01*
X178513654Y-70672631D01*
X178513649Y-70672630D01*
X178334404Y-70652435D01*
X178334396Y-70652435D01*
X178155150Y-70672630D01*
X178155145Y-70672631D01*
X177984876Y-70732211D01*
X177832137Y-70828184D01*
X177704584Y-70955737D01*
X177608611Y-71108476D01*
X177549031Y-71278745D01*
X177549030Y-71278750D01*
X177528835Y-71457996D01*
X177528835Y-71458003D01*
X173600499Y-71458003D01*
X173600499Y-69668614D01*
X182531971Y-69668614D01*
X182552166Y-69847860D01*
X182552167Y-69847865D01*
X182611747Y-70018134D01*
X182707720Y-70170873D01*
X182759672Y-70222825D01*
X182793157Y-70284148D01*
X182789033Y-70351460D01*
X182766134Y-70416902D01*
X182745938Y-70596151D01*
X182745938Y-70596158D01*
X182766133Y-70775404D01*
X182766134Y-70775409D01*
X182825714Y-70945678D01*
X182890964Y-71049522D01*
X182921687Y-71098417D01*
X183049241Y-71225971D01*
X183103422Y-71260015D01*
X183192616Y-71316060D01*
X183201981Y-71321944D01*
X183351197Y-71374157D01*
X183372248Y-71381523D01*
X183372253Y-71381524D01*
X183551499Y-71401720D01*
X183551503Y-71401720D01*
X183551507Y-71401720D01*
X183730752Y-71381524D01*
X183730753Y-71381523D01*
X183730758Y-71381523D01*
X183741623Y-71377720D01*
X183811401Y-71374157D01*
X183872030Y-71408883D01*
X183904260Y-71470875D01*
X183905802Y-71508644D01*
X183894435Y-71609533D01*
X183894435Y-71609540D01*
X183903289Y-71688125D01*
X183891234Y-71756947D01*
X183843885Y-71808326D01*
X183776275Y-71825950D01*
X183747769Y-71820658D01*
X183747644Y-71821209D01*
X183740852Y-71819658D01*
X183561717Y-71799475D01*
X183561711Y-71799475D01*
X183382575Y-71819658D01*
X183382572Y-71819659D01*
X183212410Y-71879201D01*
X183198605Y-71887875D01*
X183198604Y-71887875D01*
X183561714Y-72250984D01*
X183566210Y-72255480D01*
X183599695Y-72316803D01*
X183594711Y-72386495D01*
X183552839Y-72442428D01*
X183510622Y-72462936D01*
X183484070Y-72470050D01*
X183427227Y-72526892D01*
X183420113Y-72553444D01*
X183388587Y-72605163D01*
X183399604Y-72613410D01*
X183420111Y-72655626D01*
X183427226Y-72682180D01*
X183427228Y-72682183D01*
X183484066Y-72739021D01*
X183484067Y-72739021D01*
X183484069Y-72739023D01*
X183510623Y-72746138D01*
X183562341Y-72777660D01*
X183570588Y-72766645D01*
X183612801Y-72746138D01*
X183639359Y-72739023D01*
X183696200Y-72682183D01*
X183703314Y-72655630D01*
X183739679Y-72595969D01*
X183802526Y-72565439D01*
X183871902Y-72573733D01*
X183910771Y-72600041D01*
X184278375Y-72967645D01*
X184287047Y-72953844D01*
X184346592Y-72783675D01*
X184366776Y-72604539D01*
X184366776Y-72604534D01*
X184357963Y-72526318D01*
X184370017Y-72457496D01*
X184417366Y-72406116D01*
X184484977Y-72388492D01*
X184513839Y-72393853D01*
X184513953Y-72393355D01*
X184520743Y-72394904D01*
X184520745Y-72394905D01*
X184520746Y-72394905D01*
X184520750Y-72394906D01*
X184699996Y-72415102D01*
X184700000Y-72415102D01*
X184700004Y-72415102D01*
X184879249Y-72394906D01*
X184879252Y-72394905D01*
X184879255Y-72394905D01*
X185049522Y-72335326D01*
X185202262Y-72239353D01*
X185329816Y-72111799D01*
X185425789Y-71959059D01*
X185485368Y-71788792D01*
X185488044Y-71765042D01*
X185505565Y-71609540D01*
X185505565Y-71609533D01*
X185485369Y-71430287D01*
X185485368Y-71430282D01*
X185457443Y-71350476D01*
X185425789Y-71260015D01*
X185419196Y-71249523D01*
X185364122Y-71161873D01*
X185329816Y-71107275D01*
X185202262Y-70979721D01*
X185176905Y-70963788D01*
X185049523Y-70883748D01*
X184879254Y-70824168D01*
X184879249Y-70824167D01*
X184700004Y-70803972D01*
X184699996Y-70803972D01*
X184520750Y-70824167D01*
X184520740Y-70824169D01*
X184509871Y-70827973D01*
X184440092Y-70831532D01*
X184379466Y-70796802D01*
X184347241Y-70734807D01*
X184345700Y-70697046D01*
X184349097Y-70666904D01*
X184356904Y-70597610D01*
X184357068Y-70596157D01*
X184357068Y-70596151D01*
X184336872Y-70416905D01*
X184336871Y-70416900D01*
X184320015Y-70368729D01*
X184277292Y-70246633D01*
X184271318Y-70237126D01*
X184202192Y-70127112D01*
X184181319Y-70093893D01*
X184129365Y-70041939D01*
X184095880Y-69980616D01*
X184100004Y-69913307D01*
X184122904Y-69847866D01*
X184143101Y-69668611D01*
X184141631Y-69655565D01*
X184122905Y-69489361D01*
X184122904Y-69489356D01*
X184088429Y-69390833D01*
X184063325Y-69319089D01*
X183967352Y-69166349D01*
X183839798Y-69038795D01*
X183825508Y-69029816D01*
X183687059Y-68942822D01*
X183516790Y-68883242D01*
X183516785Y-68883241D01*
X183337540Y-68863046D01*
X183337532Y-68863046D01*
X183158286Y-68883241D01*
X183158281Y-68883242D01*
X182988012Y-68942822D01*
X182835273Y-69038795D01*
X182707720Y-69166348D01*
X182611747Y-69319087D01*
X182552167Y-69489356D01*
X182552166Y-69489361D01*
X182531971Y-69668607D01*
X182531971Y-69668614D01*
X173600499Y-69668614D01*
X173600499Y-66350003D01*
X174481935Y-66350003D01*
X174502130Y-66529249D01*
X174502131Y-66529254D01*
X174561711Y-66699523D01*
X174618834Y-66790433D01*
X174657684Y-66852262D01*
X174785238Y-66979816D01*
X174875580Y-67036582D01*
X174897700Y-67050481D01*
X174937978Y-67075789D01*
X175108244Y-67135368D01*
X175108245Y-67135368D01*
X175108250Y-67135369D01*
X175287496Y-67155565D01*
X175287500Y-67155565D01*
X175287504Y-67155565D01*
X175466749Y-67135369D01*
X175466752Y-67135368D01*
X175466755Y-67135368D01*
X175637022Y-67075789D01*
X175789762Y-66979816D01*
X175917316Y-66852262D01*
X176013289Y-66699522D01*
X176072868Y-66529255D01*
X176073705Y-66521825D01*
X176093065Y-66350003D01*
X176093065Y-66349996D01*
X176072869Y-66170750D01*
X176072868Y-66170745D01*
X176019918Y-66019422D01*
X176013289Y-66000478D01*
X175917316Y-65847738D01*
X175789762Y-65720184D01*
X175750093Y-65695258D01*
X175637023Y-65624211D01*
X175466754Y-65564631D01*
X175466749Y-65564630D01*
X175287504Y-65544435D01*
X175287496Y-65544435D01*
X175108250Y-65564630D01*
X175108245Y-65564631D01*
X174937976Y-65624211D01*
X174785237Y-65720184D01*
X174657684Y-65847737D01*
X174561711Y-66000476D01*
X174502131Y-66170745D01*
X174502130Y-66170750D01*
X174481935Y-66349996D01*
X174481935Y-66350003D01*
X173600499Y-66350003D01*
X173600499Y-59367763D01*
X174995787Y-59367763D01*
X175025413Y-59637013D01*
X175025415Y-59637024D01*
X175091662Y-59890422D01*
X175093928Y-59899088D01*
X175199870Y-60148390D01*
X175289069Y-60294548D01*
X175340979Y-60379605D01*
X175340986Y-60379615D01*
X175514253Y-60587819D01*
X175514259Y-60587824D01*
X175613064Y-60676353D01*
X175715998Y-60768582D01*
X175941910Y-60918044D01*
X176187176Y-61033020D01*
X176187183Y-61033022D01*
X176187185Y-61033023D01*
X176446557Y-61111057D01*
X176446564Y-61111058D01*
X176446569Y-61111060D01*
X176714561Y-61150500D01*
X176714566Y-61150500D01*
X176917636Y-61150500D01*
X176969133Y-61146730D01*
X177120156Y-61135677D01*
X177236793Y-61109695D01*
X177384546Y-61076782D01*
X177384548Y-61076781D01*
X177384553Y-61076780D01*
X177637558Y-60980014D01*
X177873777Y-60847441D01*
X178088177Y-60681888D01*
X178276186Y-60486881D01*
X178433799Y-60266579D01*
X178523770Y-60091584D01*
X178557649Y-60025690D01*
X178557651Y-60025684D01*
X178557656Y-60025675D01*
X178645118Y-59769305D01*
X178694319Y-59502933D01*
X178704212Y-59232235D01*
X178674586Y-58962982D01*
X178606072Y-58700912D01*
X178500130Y-58451610D01*
X178359018Y-58220390D01*
X178269747Y-58113119D01*
X178198911Y-58028000D01*
X180481723Y-58028000D01*
X180500081Y-58237844D01*
X180500793Y-58245975D01*
X180500793Y-58245979D01*
X180557422Y-58457322D01*
X180557424Y-58457326D01*
X180557425Y-58457330D01*
X180573664Y-58492154D01*
X180649897Y-58655638D01*
X180657497Y-58666492D01*
X180775402Y-58834877D01*
X180930123Y-58989598D01*
X181076263Y-59091926D01*
X181119887Y-59146502D01*
X181127079Y-59216001D01*
X181095557Y-59278355D01*
X181035327Y-59313769D01*
X181005139Y-59317500D01*
X180855482Y-59317500D01*
X180774519Y-59330323D01*
X180761696Y-59332354D01*
X180648658Y-59389950D01*
X180648657Y-59389951D01*
X180648652Y-59389954D01*
X180558954Y-59479652D01*
X180558951Y-59479657D01*
X180558950Y-59479658D01*
X180547092Y-59502931D01*
X180501352Y-59592698D01*
X180486500Y-59686475D01*
X180486500Y-61449517D01*
X180494441Y-61499656D01*
X180501354Y-61543304D01*
X180558950Y-61656342D01*
X180558952Y-61656344D01*
X180558954Y-61656347D01*
X180648652Y-61746045D01*
X180648654Y-61746046D01*
X180648658Y-61746050D01*
X180761696Y-61803646D01*
X180761697Y-61803646D01*
X180761699Y-61803647D01*
X180831897Y-61814765D01*
X180895032Y-61844694D01*
X180931964Y-61904005D01*
X180936500Y-61937238D01*
X180936500Y-62308191D01*
X180936501Y-62308200D01*
X180945791Y-62348908D01*
X180946955Y-62355763D01*
X180951632Y-62397259D01*
X180965420Y-62436662D01*
X180967345Y-62443345D01*
X180976639Y-62484061D01*
X180994759Y-62521688D01*
X180997421Y-62528114D01*
X181011212Y-62567525D01*
X181033422Y-62602872D01*
X181036787Y-62608959D01*
X181054910Y-62646589D01*
X181080940Y-62679229D01*
X181084966Y-62684904D01*
X181102849Y-62713363D01*
X181107184Y-62720262D01*
X181139174Y-62752252D01*
X183029684Y-64642762D01*
X183061674Y-64674752D01*
X183275016Y-64888094D01*
X183471742Y-65084819D01*
X183471743Y-65084821D01*
X183489184Y-65102262D01*
X183616738Y-65229816D01*
X183652089Y-65252028D01*
X183657765Y-65256055D01*
X183690411Y-65282090D01*
X183690412Y-65282091D01*
X183711548Y-65292269D01*
X183728035Y-65300208D01*
X183734112Y-65303567D01*
X183751635Y-65314577D01*
X183769477Y-65325789D01*
X183808891Y-65339581D01*
X183815320Y-65342244D01*
X183852941Y-65360361D01*
X183893641Y-65369650D01*
X183900328Y-65371576D01*
X183939742Y-65385367D01*
X183939745Y-65385368D01*
X183981241Y-65390043D01*
X183988093Y-65391207D01*
X184028806Y-65400500D01*
X184074046Y-65400500D01*
X184803889Y-65400500D01*
X184870928Y-65420185D01*
X184916683Y-65472989D01*
X184926627Y-65542147D01*
X184920931Y-65565454D01*
X184902971Y-65616779D01*
X184902969Y-65616787D01*
X184882774Y-65796033D01*
X184882774Y-65796040D01*
X184902969Y-65975286D01*
X184902970Y-65975291D01*
X184962550Y-66145560D01*
X185056164Y-66294545D01*
X185058523Y-66298299D01*
X185186077Y-66425853D01*
X185261970Y-66473540D01*
X185307679Y-66502261D01*
X185338817Y-66521826D01*
X185475407Y-66569621D01*
X185509084Y-66581405D01*
X185509089Y-66581406D01*
X185688335Y-66601602D01*
X185688339Y-66601602D01*
X185688343Y-66601602D01*
X185867588Y-66581406D01*
X185867591Y-66581405D01*
X185867594Y-66581405D01*
X186037861Y-66521826D01*
X186190601Y-66425853D01*
X186318155Y-66298299D01*
X186414128Y-66145559D01*
X186473707Y-65975292D01*
X186487919Y-65849155D01*
X186493904Y-65796040D01*
X186493904Y-65796033D01*
X186473708Y-65616787D01*
X186473706Y-65616779D01*
X186455747Y-65565454D01*
X186452186Y-65495676D01*
X186486915Y-65435048D01*
X186548908Y-65402821D01*
X186572789Y-65400500D01*
X187317060Y-65400500D01*
X187384099Y-65420185D01*
X187404741Y-65436819D01*
X187663182Y-65695260D01*
X187696666Y-65756581D01*
X187699500Y-65782939D01*
X187699500Y-70290191D01*
X187699501Y-70290200D01*
X187708791Y-70330908D01*
X187709955Y-70337763D01*
X187714632Y-70379259D01*
X187728420Y-70418662D01*
X187730345Y-70425345D01*
X187739639Y-70466061D01*
X187757759Y-70503688D01*
X187760421Y-70510114D01*
X187774212Y-70549525D01*
X187796422Y-70584872D01*
X187799787Y-70590959D01*
X187817910Y-70628589D01*
X187843940Y-70661229D01*
X187847966Y-70666904D01*
X187870182Y-70702259D01*
X187870184Y-70702262D01*
X187926988Y-70759066D01*
X187960473Y-70820389D01*
X187955489Y-70890081D01*
X187913617Y-70946014D01*
X187880262Y-70963788D01*
X187850480Y-70974209D01*
X187697737Y-71070184D01*
X187570184Y-71197737D01*
X187474211Y-71350476D01*
X187414631Y-71520745D01*
X187414630Y-71520750D01*
X187394435Y-71699996D01*
X187394435Y-71700003D01*
X187414630Y-71879249D01*
X187414631Y-71879254D01*
X187474211Y-72049523D01*
X187513342Y-72111799D01*
X187570184Y-72202262D01*
X187697738Y-72329816D01*
X187756472Y-72366721D01*
X187849855Y-72425398D01*
X187850478Y-72425789D01*
X187956638Y-72462936D01*
X188020745Y-72485368D01*
X188020750Y-72485369D01*
X188199996Y-72505565D01*
X188200000Y-72505565D01*
X188200004Y-72505565D01*
X188379249Y-72485369D01*
X188379251Y-72485368D01*
X188379255Y-72485368D01*
X188379258Y-72485366D01*
X188379262Y-72485366D01*
X188534545Y-72431030D01*
X188604324Y-72427468D01*
X188664951Y-72462196D01*
X188697179Y-72524190D01*
X188699500Y-72548071D01*
X188699500Y-78302691D01*
X188699501Y-78302700D01*
X188708791Y-78343408D01*
X188709955Y-78350263D01*
X188714632Y-78391759D01*
X188728420Y-78431162D01*
X188730345Y-78437845D01*
X188739639Y-78478561D01*
X188757759Y-78516188D01*
X188760421Y-78522614D01*
X188774212Y-78562025D01*
X188796422Y-78597372D01*
X188799787Y-78603459D01*
X188817910Y-78641089D01*
X188843940Y-78673729D01*
X188847966Y-78679404D01*
X188870182Y-78714759D01*
X188870184Y-78714762D01*
X188902174Y-78746752D01*
X189342733Y-79187312D01*
X189787619Y-79632198D01*
X189787625Y-79632203D01*
X189897738Y-79742316D01*
X189908992Y-79749387D01*
X189933089Y-79764528D01*
X189938765Y-79768555D01*
X189971411Y-79794590D01*
X189971412Y-79794591D01*
X189992548Y-79804769D01*
X190009035Y-79812708D01*
X190015112Y-79816067D01*
X190029311Y-79824989D01*
X190050477Y-79838289D01*
X190089891Y-79852081D01*
X190096320Y-79854744D01*
X190133941Y-79872861D01*
X190174641Y-79882150D01*
X190181328Y-79884076D01*
X190220742Y-79897867D01*
X190220745Y-79897868D01*
X190262241Y-79902543D01*
X190269093Y-79903707D01*
X190309806Y-79913000D01*
X190351564Y-79913000D01*
X190358502Y-79913389D01*
X190387400Y-79916645D01*
X190399998Y-79918065D01*
X190400000Y-79918065D01*
X190400002Y-79918065D01*
X190412599Y-79916645D01*
X190441497Y-79913389D01*
X190448436Y-79913000D01*
X190490194Y-79913000D01*
X190530903Y-79903708D01*
X190537760Y-79902543D01*
X190579255Y-79897868D01*
X190618676Y-79884073D01*
X190625349Y-79882152D01*
X190629932Y-79881105D01*
X190666061Y-79872860D01*
X190703690Y-79854737D01*
X190710104Y-79852081D01*
X190749522Y-79838289D01*
X190784889Y-79816064D01*
X190790953Y-79812712D01*
X190828586Y-79794591D01*
X190861245Y-79768545D01*
X190866885Y-79764543D01*
X190902262Y-79742316D01*
X190931795Y-79712781D01*
X190936974Y-79708152D01*
X190969620Y-79682120D01*
X190995652Y-79649474D01*
X191000282Y-79644295D01*
X191012379Y-79632198D01*
X191029816Y-79614762D01*
X191052043Y-79579385D01*
X191056045Y-79573745D01*
X191082091Y-79541086D01*
X191100212Y-79503453D01*
X191103564Y-79497389D01*
X191125789Y-79462022D01*
X191139581Y-79422604D01*
X191142237Y-79416190D01*
X191160360Y-79378561D01*
X191169652Y-79337849D01*
X191171573Y-79331176D01*
X191185368Y-79291755D01*
X191190043Y-79250260D01*
X191191208Y-79243405D01*
X191195468Y-79224739D01*
X191200500Y-79202694D01*
X191200500Y-79160934D01*
X191200889Y-79153996D01*
X191205565Y-79112500D01*
X191205275Y-79109930D01*
X191204465Y-79102739D01*
X191200889Y-79071002D01*
X191200500Y-79064064D01*
X191200500Y-79022307D01*
X191200500Y-79022306D01*
X191191207Y-78981593D01*
X191190042Y-78974733D01*
X191189573Y-78970569D01*
X191185368Y-78933245D01*
X191184662Y-78931226D01*
X191171576Y-78893828D01*
X191169650Y-78887141D01*
X191160361Y-78846441D01*
X191142244Y-78808820D01*
X191139581Y-78802391D01*
X191125789Y-78762977D01*
X191110182Y-78738140D01*
X191103567Y-78727612D01*
X191100206Y-78721530D01*
X191097610Y-78716140D01*
X191089066Y-78698397D01*
X191082091Y-78683912D01*
X191082090Y-78683911D01*
X191056055Y-78651265D01*
X191052028Y-78645589D01*
X191029816Y-78610238D01*
X190902262Y-78482684D01*
X190336819Y-77917240D01*
X190303334Y-77855917D01*
X190300500Y-77829559D01*
X190300500Y-76117749D01*
X190320185Y-76050710D01*
X190372989Y-76004955D01*
X190442147Y-75995011D01*
X190505703Y-76024036D01*
X190543477Y-76082814D01*
X190544270Y-76085641D01*
X190552874Y-76117749D01*
X190554679Y-76124484D01*
X190554684Y-76124498D01*
X190561043Y-76136978D01*
X190568488Y-76154949D01*
X190572820Y-76168282D01*
X190607537Y-76228414D01*
X190609085Y-76231266D01*
X190630992Y-76274259D01*
X190640617Y-76293149D01*
X190640619Y-76293151D01*
X190640620Y-76293153D01*
X190649438Y-76304043D01*
X190660454Y-76320070D01*
X190667465Y-76332213D01*
X190667470Y-76332220D01*
X190713939Y-76383831D01*
X190716043Y-76386295D01*
X190729882Y-76403382D01*
X190745423Y-76418922D01*
X190747657Y-76421277D01*
X190794128Y-76472887D01*
X190805468Y-76481126D01*
X190820265Y-76493764D01*
X192106235Y-77779734D01*
X192118869Y-77794525D01*
X192127112Y-77805871D01*
X192127113Y-77805872D01*
X192178722Y-77852341D01*
X192181078Y-77854577D01*
X192196619Y-77870118D01*
X192213702Y-77883952D01*
X192216170Y-77886060D01*
X192267781Y-77932531D01*
X192267782Y-77932531D01*
X192267784Y-77932533D01*
X192279918Y-77939538D01*
X192295955Y-77950560D01*
X192306849Y-77959382D01*
X192306851Y-77959383D01*
X192368747Y-77990920D01*
X192371552Y-77992443D01*
X192390998Y-78003670D01*
X192431707Y-78027175D01*
X192431712Y-78027177D01*
X192431713Y-78027177D01*
X192431716Y-78027179D01*
X192445050Y-78031511D01*
X192463022Y-78038956D01*
X192475512Y-78045320D01*
X192501281Y-78052225D01*
X192542596Y-78063296D01*
X192545708Y-78064218D01*
X192611741Y-78085673D01*
X192611744Y-78085674D01*
X192625684Y-78087138D01*
X192644812Y-78090684D01*
X192658354Y-78094313D01*
X192727720Y-78097947D01*
X192730935Y-78098200D01*
X192752808Y-78100500D01*
X192774797Y-78100500D01*
X192778040Y-78100584D01*
X192847388Y-78104219D01*
X192861227Y-78102027D01*
X192880627Y-78100500D01*
X202019293Y-78100500D01*
X202086332Y-78120185D01*
X202132087Y-78172989D01*
X202142513Y-78238384D01*
X202140934Y-78252397D01*
X202140934Y-78252403D01*
X202161129Y-78431649D01*
X202161130Y-78431654D01*
X202220710Y-78601923D01*
X202311713Y-78746752D01*
X202316683Y-78754662D01*
X202444237Y-78882216D01*
X202522236Y-78931226D01*
X202591476Y-78974733D01*
X202596977Y-78978189D01*
X202767244Y-79037768D01*
X202767249Y-79037769D01*
X202946495Y-79057965D01*
X202946499Y-79057965D01*
X202946503Y-79057965D01*
X203125748Y-79037769D01*
X203125751Y-79037768D01*
X203125754Y-79037768D01*
X203296021Y-78978189D01*
X203448761Y-78882216D01*
X203576315Y-78754662D01*
X203672288Y-78601922D01*
X203731867Y-78431655D01*
X203733474Y-78417391D01*
X203752064Y-78252403D01*
X203752064Y-78252397D01*
X203750485Y-78238384D01*
X203762539Y-78169562D01*
X203809888Y-78118183D01*
X203873705Y-78100500D01*
X206347188Y-78100500D01*
X206347192Y-78100500D01*
X206488256Y-78085674D01*
X206668284Y-78027179D01*
X206832216Y-77932533D01*
X206972888Y-77805871D01*
X207084151Y-77652730D01*
X207161144Y-77479803D01*
X207200500Y-77294646D01*
X207200500Y-77105354D01*
X207161144Y-76920197D01*
X207084151Y-76747270D01*
X207084148Y-76747265D01*
X206972888Y-76594129D01*
X206921560Y-76547913D01*
X206832216Y-76467467D01*
X206668284Y-76372821D01*
X206668277Y-76372818D01*
X206488259Y-76314327D01*
X206488256Y-76314326D01*
X206393217Y-76304337D01*
X206328604Y-76277754D01*
X206288619Y-76220456D01*
X206285959Y-76150637D01*
X206321468Y-76090464D01*
X206353775Y-76068635D01*
X206557578Y-75973600D01*
X206751082Y-75838105D01*
X206918105Y-75671082D01*
X207053600Y-75477578D01*
X207153429Y-75263492D01*
X207153433Y-75263483D01*
X207200221Y-75088868D01*
X207236586Y-75029207D01*
X207299433Y-74998678D01*
X207368808Y-75006973D01*
X207407677Y-75033280D01*
X210676424Y-78302027D01*
X210686538Y-78314651D01*
X210686720Y-78314502D01*
X210691688Y-78320507D01*
X210691690Y-78320509D01*
X210691691Y-78320510D01*
X210744464Y-78370067D01*
X210766316Y-78391919D01*
X210772161Y-78396452D01*
X210776589Y-78400234D01*
X210812237Y-78433710D01*
X210812241Y-78433712D01*
X210831000Y-78444025D01*
X210847262Y-78454706D01*
X210864184Y-78467833D01*
X210909066Y-78487255D01*
X210914287Y-78489812D01*
X210937608Y-78502633D01*
X210957140Y-78513372D01*
X210957145Y-78513373D01*
X210957147Y-78513375D01*
X210957149Y-78513375D01*
X210957153Y-78513377D01*
X210977880Y-78518698D01*
X210996291Y-78525001D01*
X211015949Y-78533508D01*
X211064257Y-78541158D01*
X211069953Y-78542338D01*
X211117317Y-78554500D01*
X211138734Y-78554500D01*
X211158131Y-78556026D01*
X211179278Y-78559376D01*
X211227953Y-78554774D01*
X211233790Y-78554500D01*
X212064864Y-78554500D01*
X212000000Y-104500000D01*
X252000000Y-104500000D01*
X252100000Y-64500000D01*
X229032078Y-64500000D01*
X227434252Y-62902174D01*
X227402261Y-62870183D01*
X227366904Y-62847967D01*
X227361230Y-62843941D01*
X227328589Y-62817910D01*
X227290959Y-62799787D01*
X227284872Y-62796422D01*
X227249525Y-62774212D01*
X227210114Y-62760421D01*
X227203688Y-62757759D01*
X227166061Y-62739639D01*
X227125345Y-62730345D01*
X227118662Y-62728420D01*
X227079259Y-62714632D01*
X227037763Y-62709955D01*
X227030908Y-62708791D01*
X226990200Y-62699501D01*
X226990196Y-62699500D01*
X226990194Y-62699500D01*
X226990191Y-62699500D01*
X226948436Y-62699500D01*
X226941497Y-62699110D01*
X226912599Y-62695854D01*
X226900002Y-62694435D01*
X226899998Y-62694435D01*
X226887400Y-62695854D01*
X226858502Y-62699110D01*
X226851564Y-62699500D01*
X211590194Y-62699500D01*
X211409806Y-62699500D01*
X211403888Y-62700850D01*
X211369089Y-62708791D01*
X211362235Y-62709955D01*
X211320744Y-62714632D01*
X211281341Y-62728419D01*
X211274659Y-62730344D01*
X211233939Y-62739640D01*
X211196306Y-62757761D01*
X211189880Y-62760423D01*
X211150475Y-62774212D01*
X211115123Y-62796424D01*
X211109037Y-62799787D01*
X211071413Y-62817907D01*
X211071408Y-62817911D01*
X211038762Y-62843944D01*
X211033090Y-62847969D01*
X210997738Y-62870183D01*
X210997733Y-62870187D01*
X210907168Y-62960750D01*
X210907160Y-62960761D01*
X209087680Y-64780240D01*
X209026357Y-64813725D01*
X208956665Y-64808741D01*
X208912318Y-64780240D01*
X207202261Y-63070183D01*
X207166904Y-63047967D01*
X207161230Y-63043941D01*
X207128589Y-63017910D01*
X207090959Y-62999787D01*
X207084872Y-62996422D01*
X207049525Y-62974212D01*
X207010114Y-62960421D01*
X207003688Y-62957759D01*
X206966061Y-62939639D01*
X206925345Y-62930345D01*
X206918662Y-62928420D01*
X206879259Y-62914632D01*
X206837763Y-62909955D01*
X206830908Y-62908791D01*
X206790200Y-62899501D01*
X206790196Y-62899500D01*
X206790194Y-62899500D01*
X206790191Y-62899500D01*
X203682940Y-62899500D01*
X203615901Y-62879815D01*
X203595259Y-62863181D01*
X202893819Y-62161740D01*
X202860334Y-62100417D01*
X202857500Y-62074059D01*
X202857500Y-62000000D01*
X251294457Y-62000000D01*
X251314612Y-62358902D01*
X251314614Y-62358914D01*
X251374826Y-62713296D01*
X251374828Y-62713305D01*
X251462583Y-63017910D01*
X251474341Y-63058724D01*
X251547504Y-63235354D01*
X251611905Y-63390831D01*
X251785790Y-63705454D01*
X251909109Y-63879255D01*
X251993806Y-63998623D01*
X252233339Y-64266661D01*
X252411404Y-64425789D01*
X252501377Y-64506194D01*
X252693850Y-64642762D01*
X252794548Y-64714211D01*
X253109167Y-64888094D01*
X253441276Y-65025659D01*
X253786700Y-65125173D01*
X254141093Y-65185387D01*
X254500000Y-65205543D01*
X254858907Y-65185387D01*
X255213300Y-65125173D01*
X255558724Y-65025659D01*
X255890833Y-64888094D01*
X256205452Y-64714211D01*
X256498623Y-64506194D01*
X256766661Y-64266661D01*
X257006194Y-63998623D01*
X257214211Y-63705452D01*
X257388094Y-63390833D01*
X257525659Y-63058724D01*
X257625173Y-62713300D01*
X257685387Y-62358907D01*
X257705543Y-62000000D01*
X257685387Y-61641093D01*
X257625173Y-61286700D01*
X257525659Y-60941276D01*
X257388094Y-60609167D01*
X257214211Y-60294548D01*
X257106715Y-60143048D01*
X257006194Y-60001377D01*
X256964302Y-59954500D01*
X256766661Y-59733339D01*
X256498623Y-59493806D01*
X256480427Y-59480895D01*
X256205454Y-59285790D01*
X255953430Y-59146502D01*
X255890833Y-59111906D01*
X255558724Y-58974341D01*
X255558720Y-58974339D01*
X255558718Y-58974339D01*
X255213305Y-58874828D01*
X255213296Y-58874826D01*
X254858914Y-58814614D01*
X254858902Y-58814612D01*
X254500000Y-58794457D01*
X254141097Y-58814612D01*
X254141085Y-58814614D01*
X253786703Y-58874826D01*
X253786694Y-58874828D01*
X253441281Y-58974339D01*
X253109168Y-59111905D01*
X252794545Y-59285790D01*
X252501377Y-59493805D01*
X252233339Y-59733339D01*
X251993805Y-60001377D01*
X251785790Y-60294545D01*
X251611905Y-60609168D01*
X251474339Y-60941281D01*
X251374828Y-61286694D01*
X251374826Y-61286703D01*
X251314614Y-61641085D01*
X251314612Y-61641097D01*
X251294457Y-62000000D01*
X202857500Y-62000000D01*
X202857500Y-61587337D01*
X202877185Y-61520298D01*
X202893819Y-61499656D01*
X202954393Y-61439082D01*
X203018598Y-61374877D01*
X203144102Y-61195639D01*
X203214618Y-61044414D01*
X203260790Y-60991977D01*
X203327984Y-60972825D01*
X203394865Y-60993041D01*
X203439381Y-61044414D01*
X203509898Y-61195639D01*
X203635402Y-61374877D01*
X203790123Y-61529598D01*
X203969361Y-61655102D01*
X204167670Y-61747575D01*
X204379023Y-61804207D01*
X204561926Y-61820208D01*
X204596998Y-61823277D01*
X204597000Y-61823277D01*
X204597002Y-61823277D01*
X204625254Y-61820805D01*
X204814977Y-61804207D01*
X205026330Y-61747575D01*
X205224639Y-61655102D01*
X205403877Y-61529598D01*
X205558598Y-61374877D01*
X205684102Y-61195639D01*
X205754618Y-61044414D01*
X205800790Y-60991977D01*
X205867984Y-60972825D01*
X205934865Y-60993041D01*
X205979381Y-61044414D01*
X206049898Y-61195639D01*
X206175402Y-61374877D01*
X206330123Y-61529598D01*
X206509361Y-61655102D01*
X206707670Y-61747575D01*
X206919023Y-61804207D01*
X207101926Y-61820208D01*
X207136998Y-61823277D01*
X207137000Y-61823277D01*
X207137002Y-61823277D01*
X207165254Y-61820805D01*
X207354977Y-61804207D01*
X207566330Y-61747575D01*
X207764639Y-61655102D01*
X207943877Y-61529598D01*
X208098598Y-61374877D01*
X208224102Y-61195639D01*
X208294618Y-61044414D01*
X208340790Y-60991977D01*
X208407984Y-60972825D01*
X208474865Y-60993041D01*
X208519381Y-61044414D01*
X208589898Y-61195639D01*
X208715402Y-61374877D01*
X208870123Y-61529598D01*
X209049361Y-61655102D01*
X209247670Y-61747575D01*
X209459023Y-61804207D01*
X209641926Y-61820208D01*
X209676998Y-61823277D01*
X209677000Y-61823277D01*
X209677002Y-61823277D01*
X209705254Y-61820805D01*
X209894977Y-61804207D01*
X210106330Y-61747575D01*
X210304639Y-61655102D01*
X210483877Y-61529598D01*
X210638598Y-61374877D01*
X210764102Y-61195639D01*
X210779726Y-61162132D01*
X210825896Y-61109695D01*
X210893090Y-61090543D01*
X210959971Y-61110758D01*
X211004489Y-61162134D01*
X211043399Y-61245578D01*
X211178894Y-61439082D01*
X211345917Y-61606105D01*
X211539421Y-61741600D01*
X211753507Y-61841429D01*
X211753516Y-61841433D01*
X211966998Y-61898635D01*
X211966999Y-61898634D01*
X211966999Y-61180301D01*
X211986684Y-61113262D01*
X212039488Y-61067507D01*
X212108646Y-61057563D01*
X212115380Y-61058531D01*
X212181237Y-61068000D01*
X212181238Y-61068000D01*
X212252762Y-61068000D01*
X212252763Y-61068000D01*
X212325353Y-61057563D01*
X212394512Y-61067507D01*
X212447315Y-61113262D01*
X212467000Y-61180301D01*
X212467000Y-61898633D01*
X212680483Y-61841433D01*
X212680492Y-61841429D01*
X212894578Y-61741600D01*
X213088082Y-61606105D01*
X213255105Y-61439082D01*
X213390598Y-61245580D01*
X213429509Y-61162135D01*
X213475681Y-61109695D01*
X213542875Y-61090543D01*
X213609756Y-61110758D01*
X213654273Y-61162133D01*
X213665901Y-61187068D01*
X213669898Y-61195639D01*
X213795402Y-61374877D01*
X213950123Y-61529598D01*
X214129361Y-61655102D01*
X214327670Y-61747575D01*
X214539023Y-61804207D01*
X214721926Y-61820208D01*
X214756998Y-61823277D01*
X214757000Y-61823277D01*
X214757002Y-61823277D01*
X214785254Y-61820805D01*
X214974977Y-61804207D01*
X215186330Y-61747575D01*
X215384639Y-61655102D01*
X215563877Y-61529598D01*
X215718598Y-61374877D01*
X215844102Y-61195639D01*
X215914618Y-61044414D01*
X215960790Y-60991977D01*
X216027984Y-60972825D01*
X216094865Y-60993041D01*
X216139381Y-61044414D01*
X216209898Y-61195639D01*
X216335402Y-61374877D01*
X216490123Y-61529598D01*
X216669361Y-61655102D01*
X216867670Y-61747575D01*
X217079023Y-61804207D01*
X217261926Y-61820208D01*
X217296998Y-61823277D01*
X217297000Y-61823277D01*
X217297002Y-61823277D01*
X217325254Y-61820805D01*
X217514977Y-61804207D01*
X217726330Y-61747575D01*
X217924639Y-61655102D01*
X218103877Y-61529598D01*
X218258598Y-61374877D01*
X218384102Y-61195639D01*
X218454618Y-61044414D01*
X218500790Y-60991977D01*
X218567984Y-60972825D01*
X218634865Y-60993041D01*
X218679381Y-61044414D01*
X218749898Y-61195639D01*
X218875402Y-61374877D01*
X219030123Y-61529598D01*
X219209361Y-61655102D01*
X219407670Y-61747575D01*
X219619023Y-61804207D01*
X219801926Y-61820208D01*
X219836998Y-61823277D01*
X219837000Y-61823277D01*
X219837002Y-61823277D01*
X219865254Y-61820805D01*
X220054977Y-61804207D01*
X220266330Y-61747575D01*
X220464639Y-61655102D01*
X220643877Y-61529598D01*
X220798598Y-61374877D01*
X220924102Y-61195639D01*
X220994618Y-61044414D01*
X221040790Y-60991977D01*
X221107984Y-60972825D01*
X221174865Y-60993041D01*
X221219381Y-61044414D01*
X221289898Y-61195639D01*
X221415402Y-61374877D01*
X221570123Y-61529598D01*
X221749361Y-61655102D01*
X221947670Y-61747575D01*
X222159023Y-61804207D01*
X222341926Y-61820208D01*
X222376998Y-61823277D01*
X222377000Y-61823277D01*
X222377002Y-61823277D01*
X222405254Y-61820805D01*
X222594977Y-61804207D01*
X222806330Y-61747575D01*
X223004639Y-61655102D01*
X223183877Y-61529598D01*
X223338598Y-61374877D01*
X223464102Y-61195639D01*
X223534618Y-61044414D01*
X223580790Y-60991977D01*
X223647984Y-60972825D01*
X223714865Y-60993041D01*
X223759381Y-61044414D01*
X223829898Y-61195639D01*
X223955402Y-61374877D01*
X224110123Y-61529598D01*
X224289361Y-61655102D01*
X224487670Y-61747575D01*
X224699023Y-61804207D01*
X224881926Y-61820208D01*
X224916998Y-61823277D01*
X224917000Y-61823277D01*
X224917002Y-61823277D01*
X224945254Y-61820805D01*
X225134977Y-61804207D01*
X225346330Y-61747575D01*
X225544639Y-61655102D01*
X225723877Y-61529598D01*
X225878598Y-61374877D01*
X226004102Y-61195639D01*
X226074618Y-61044414D01*
X226120790Y-60991977D01*
X226187984Y-60972825D01*
X226254865Y-60993041D01*
X226299381Y-61044414D01*
X226369898Y-61195639D01*
X226495402Y-61374877D01*
X226650123Y-61529598D01*
X226829361Y-61655102D01*
X227027670Y-61747575D01*
X227239023Y-61804207D01*
X227421926Y-61820208D01*
X227456998Y-61823277D01*
X227457000Y-61823277D01*
X227457002Y-61823277D01*
X227485254Y-61820805D01*
X227674977Y-61804207D01*
X227886330Y-61747575D01*
X228084639Y-61655102D01*
X228263877Y-61529598D01*
X228418598Y-61374877D01*
X228544102Y-61195639D01*
X228559726Y-61162132D01*
X228605896Y-61109695D01*
X228673090Y-61090543D01*
X228739971Y-61110758D01*
X228784489Y-61162134D01*
X228823399Y-61245578D01*
X228958894Y-61439082D01*
X229125917Y-61606105D01*
X229319421Y-61741600D01*
X229533507Y-61841429D01*
X229533516Y-61841433D01*
X229747000Y-61898634D01*
X229747000Y-61180301D01*
X229766685Y-61113262D01*
X229819489Y-61067507D01*
X229888647Y-61057563D01*
X229961237Y-61068000D01*
X229961238Y-61068000D01*
X230032762Y-61068000D01*
X230032763Y-61068000D01*
X230105353Y-61057563D01*
X230174512Y-61067507D01*
X230227315Y-61113262D01*
X230247000Y-61180301D01*
X230247000Y-61898634D01*
X230460483Y-61841433D01*
X230460492Y-61841429D01*
X230674578Y-61741600D01*
X230868082Y-61606105D01*
X231035105Y-61439082D01*
X231170600Y-61245578D01*
X231270429Y-61031492D01*
X231270432Y-61031486D01*
X231327636Y-60818000D01*
X230610347Y-60818000D01*
X230543308Y-60798315D01*
X230497553Y-60745511D01*
X230487609Y-60676353D01*
X230491369Y-60659067D01*
X230497000Y-60639888D01*
X230497000Y-60496111D01*
X230491369Y-60476933D01*
X230491370Y-60407064D01*
X230529145Y-60348286D01*
X230592701Y-60319262D01*
X230610347Y-60318000D01*
X231327636Y-60318000D01*
X231327635Y-60317999D01*
X231270432Y-60104513D01*
X231270429Y-60104507D01*
X231170600Y-59890422D01*
X231170599Y-59890420D01*
X231035113Y-59696926D01*
X231035108Y-59696920D01*
X230868082Y-59529894D01*
X230674578Y-59394399D01*
X230617456Y-59367763D01*
X232995787Y-59367763D01*
X233025413Y-59637013D01*
X233025415Y-59637024D01*
X233091662Y-59890422D01*
X233093928Y-59899088D01*
X233199870Y-60148390D01*
X233289069Y-60294548D01*
X233340979Y-60379605D01*
X233340986Y-60379615D01*
X233514253Y-60587819D01*
X233514259Y-60587824D01*
X233613064Y-60676353D01*
X233715998Y-60768582D01*
X233941910Y-60918044D01*
X234187176Y-61033020D01*
X234187183Y-61033022D01*
X234187185Y-61033023D01*
X234446557Y-61111057D01*
X234446564Y-61111058D01*
X234446569Y-61111060D01*
X234714561Y-61150500D01*
X234714566Y-61150500D01*
X234917636Y-61150500D01*
X234969133Y-61146730D01*
X235120156Y-61135677D01*
X235236793Y-61109695D01*
X235384546Y-61076782D01*
X235384548Y-61076781D01*
X235384553Y-61076780D01*
X235637558Y-60980014D01*
X235873777Y-60847441D01*
X236088177Y-60681888D01*
X236276186Y-60486881D01*
X236433799Y-60266579D01*
X236523770Y-60091584D01*
X236557649Y-60025690D01*
X236557651Y-60025684D01*
X236557656Y-60025675D01*
X236645118Y-59769305D01*
X236694319Y-59502933D01*
X236704212Y-59232235D01*
X236674586Y-58962982D01*
X236606072Y-58700912D01*
X236500130Y-58451610D01*
X236359018Y-58220390D01*
X236269747Y-58113119D01*
X236185746Y-58012180D01*
X236185740Y-58012175D01*
X235984002Y-57831418D01*
X235758092Y-57681957D01*
X235654779Y-57633526D01*
X235512824Y-57566980D01*
X235512819Y-57566978D01*
X235512814Y-57566976D01*
X235253442Y-57488942D01*
X235253428Y-57488939D01*
X235137791Y-57471921D01*
X234985439Y-57449500D01*
X234782369Y-57449500D01*
X234782364Y-57449500D01*
X234579844Y-57464323D01*
X234579831Y-57464325D01*
X234315453Y-57523217D01*
X234315446Y-57523220D01*
X234062439Y-57619987D01*
X233826226Y-57752557D01*
X233611822Y-57918112D01*
X233423822Y-58113109D01*
X233423816Y-58113116D01*
X233266202Y-58333419D01*
X233266199Y-58333424D01*
X233142350Y-58574309D01*
X233142343Y-58574327D01*
X233054884Y-58830685D01*
X233054881Y-58830699D01*
X233005681Y-59097068D01*
X233005680Y-59097075D01*
X232995787Y-59367763D01*
X230617456Y-59367763D01*
X230591134Y-59355489D01*
X230538695Y-59309317D01*
X230519543Y-59242123D01*
X230539759Y-59175242D01*
X230591132Y-59130726D01*
X230624639Y-59115102D01*
X230803877Y-58989598D01*
X230958598Y-58834877D01*
X231084102Y-58655639D01*
X231176575Y-58457330D01*
X231233207Y-58245977D01*
X231252277Y-58028000D01*
X231233207Y-57810023D01*
X231176575Y-57598670D01*
X231084102Y-57400362D01*
X231084099Y-57400358D01*
X231084099Y-57400357D01*
X230958599Y-57221124D01*
X230894395Y-57156920D01*
X230803877Y-57066402D01*
X230624639Y-56940898D01*
X230624640Y-56940898D01*
X230624638Y-56940897D01*
X230525484Y-56894661D01*
X230426330Y-56848425D01*
X230426326Y-56848424D01*
X230426322Y-56848422D01*
X230214977Y-56791793D01*
X229997002Y-56772723D01*
X229996998Y-56772723D01*
X229851681Y-56785436D01*
X229779023Y-56791793D01*
X229779020Y-56791793D01*
X229567677Y-56848422D01*
X229567670Y-56848424D01*
X229567670Y-56848425D01*
X229542631Y-56860100D01*
X229369361Y-56940898D01*
X229369357Y-56940900D01*
X229190121Y-57066402D01*
X229035402Y-57221121D01*
X228909900Y-57400357D01*
X228909898Y-57400361D01*
X228839382Y-57551583D01*
X228793209Y-57604022D01*
X228726016Y-57623174D01*
X228659135Y-57602958D01*
X228614618Y-57551583D01*
X228582514Y-57482736D01*
X228544102Y-57400362D01*
X228544099Y-57400358D01*
X228544099Y-57400357D01*
X228418599Y-57221124D01*
X228354395Y-57156920D01*
X228263877Y-57066402D01*
X228084639Y-56940898D01*
X228084640Y-56940898D01*
X228084638Y-56940897D01*
X227985484Y-56894661D01*
X227886330Y-56848425D01*
X227886326Y-56848424D01*
X227886322Y-56848422D01*
X227674977Y-56791793D01*
X227457002Y-56772723D01*
X227456998Y-56772723D01*
X227311681Y-56785436D01*
X227239023Y-56791793D01*
X227239020Y-56791793D01*
X227027677Y-56848422D01*
X227027670Y-56848424D01*
X227027670Y-56848425D01*
X227002631Y-56860100D01*
X226829361Y-56940898D01*
X226829357Y-56940900D01*
X226650121Y-57066402D01*
X226495402Y-57221121D01*
X226369900Y-57400357D01*
X226369898Y-57400361D01*
X226299382Y-57551583D01*
X226253209Y-57604022D01*
X226186016Y-57623174D01*
X226119135Y-57602958D01*
X226074618Y-57551583D01*
X226042514Y-57482736D01*
X226004102Y-57400362D01*
X226004099Y-57400358D01*
X226004099Y-57400357D01*
X225878599Y-57221124D01*
X225814395Y-57156920D01*
X225723877Y-57066402D01*
X225544639Y-56940898D01*
X225544640Y-56940898D01*
X225544638Y-56940897D01*
X225445484Y-56894661D01*
X225346330Y-56848425D01*
X225346326Y-56848424D01*
X225346322Y-56848422D01*
X225134977Y-56791793D01*
X224917002Y-56772723D01*
X224916998Y-56772723D01*
X224771681Y-56785436D01*
X224699023Y-56791793D01*
X224699020Y-56791793D01*
X224487677Y-56848422D01*
X224487670Y-56848424D01*
X224487670Y-56848425D01*
X224462631Y-56860100D01*
X224289361Y-56940898D01*
X224289357Y-56940900D01*
X224110121Y-57066402D01*
X223955402Y-57221121D01*
X223829900Y-57400357D01*
X223829897Y-57400363D01*
X223814273Y-57433868D01*
X223768099Y-57486307D01*
X223700905Y-57505457D01*
X223634025Y-57485240D01*
X223589509Y-57433865D01*
X223550598Y-57350419D01*
X223415113Y-57156926D01*
X223415108Y-57156920D01*
X223248082Y-56989894D01*
X223054578Y-56854399D01*
X222840492Y-56754570D01*
X222840486Y-56754567D01*
X222627000Y-56697364D01*
X222627000Y-57415698D01*
X222607315Y-57482737D01*
X222554511Y-57528492D01*
X222485355Y-57538436D01*
X222412766Y-57528000D01*
X222412763Y-57528000D01*
X222341237Y-57528000D01*
X222341233Y-57528000D01*
X222268644Y-57538436D01*
X222199486Y-57528492D01*
X222146683Y-57482736D01*
X222126999Y-57415698D01*
X222126999Y-56697364D01*
X222126998Y-56697364D01*
X221913505Y-56754570D01*
X221699422Y-56854399D01*
X221699420Y-56854400D01*
X221505926Y-56989886D01*
X221505920Y-56989891D01*
X221338891Y-57156920D01*
X221338886Y-57156926D01*
X221203400Y-57350420D01*
X221203399Y-57350422D01*
X221164489Y-57433866D01*
X221118317Y-57486305D01*
X221051123Y-57505457D01*
X220984242Y-57485241D01*
X220939725Y-57433866D01*
X220939725Y-57433865D01*
X220924102Y-57400362D01*
X220924099Y-57400358D01*
X220924099Y-57400357D01*
X220798599Y-57221124D01*
X220734395Y-57156920D01*
X220643877Y-57066402D01*
X220464639Y-56940898D01*
X220464640Y-56940898D01*
X220464638Y-56940897D01*
X220365484Y-56894661D01*
X220266330Y-56848425D01*
X220266326Y-56848424D01*
X220266322Y-56848422D01*
X220054977Y-56791793D01*
X219837002Y-56772723D01*
X219836998Y-56772723D01*
X219691682Y-56785436D01*
X219619023Y-56791793D01*
X219619020Y-56791793D01*
X219407677Y-56848422D01*
X219407670Y-56848424D01*
X219407670Y-56848425D01*
X219382631Y-56860100D01*
X219209361Y-56940898D01*
X219209357Y-56940900D01*
X219030121Y-57066402D01*
X218875402Y-57221121D01*
X218749900Y-57400357D01*
X218749897Y-57400363D01*
X218734273Y-57433868D01*
X218688099Y-57486307D01*
X218620905Y-57505457D01*
X218554025Y-57485240D01*
X218509509Y-57433865D01*
X218470598Y-57350419D01*
X218335113Y-57156926D01*
X218335108Y-57156920D01*
X218168082Y-56989894D01*
X217974578Y-56854399D01*
X217760492Y-56754570D01*
X217760486Y-56754567D01*
X217547000Y-56697364D01*
X217546999Y-56697364D01*
X217546999Y-57415698D01*
X217527314Y-57482738D01*
X217474510Y-57528492D01*
X217405353Y-57538436D01*
X217332764Y-57528000D01*
X217332763Y-57528000D01*
X217261237Y-57528000D01*
X217261233Y-57528000D01*
X217188645Y-57538436D01*
X217119487Y-57528492D01*
X217066684Y-57482736D01*
X217047000Y-57415698D01*
X217047000Y-56697364D01*
X217046999Y-56697364D01*
X216833513Y-56754567D01*
X216833507Y-56754570D01*
X216619422Y-56854399D01*
X216619420Y-56854400D01*
X216425926Y-56989886D01*
X216425920Y-56989891D01*
X216258891Y-57156920D01*
X216258886Y-57156926D01*
X216123400Y-57350420D01*
X216123399Y-57350422D01*
X216084489Y-57433866D01*
X216038317Y-57486305D01*
X215971123Y-57505457D01*
X215904242Y-57485241D01*
X215859725Y-57433866D01*
X215859725Y-57433865D01*
X215844102Y-57400362D01*
X215844099Y-57400358D01*
X215844099Y-57400357D01*
X215718599Y-57221124D01*
X215654395Y-57156920D01*
X215563877Y-57066402D01*
X215384639Y-56940898D01*
X215384640Y-56940898D01*
X215384638Y-56940897D01*
X215285484Y-56894661D01*
X215186330Y-56848425D01*
X215186326Y-56848424D01*
X215186322Y-56848422D01*
X214974977Y-56791793D01*
X214757002Y-56772723D01*
X214756998Y-56772723D01*
X214611682Y-56785436D01*
X214539023Y-56791793D01*
X214539020Y-56791793D01*
X214327677Y-56848422D01*
X214327670Y-56848424D01*
X214327670Y-56848425D01*
X214302631Y-56860100D01*
X214129361Y-56940898D01*
X214129357Y-56940900D01*
X213950121Y-57066402D01*
X213795402Y-57221121D01*
X213669900Y-57400357D01*
X213669898Y-57400361D01*
X213599382Y-57551583D01*
X213553209Y-57604022D01*
X213486016Y-57623174D01*
X213419135Y-57602958D01*
X213374618Y-57551583D01*
X213342514Y-57482736D01*
X213304102Y-57400362D01*
X213304099Y-57400358D01*
X213304099Y-57400357D01*
X213178599Y-57221124D01*
X213114395Y-57156920D01*
X213023877Y-57066402D01*
X212844639Y-56940898D01*
X212844640Y-56940898D01*
X212844638Y-56940897D01*
X212745484Y-56894661D01*
X212646330Y-56848425D01*
X212646326Y-56848424D01*
X212646322Y-56848422D01*
X212434977Y-56791793D01*
X212217002Y-56772723D01*
X212216998Y-56772723D01*
X212071682Y-56785436D01*
X211999023Y-56791793D01*
X211999020Y-56791793D01*
X211787677Y-56848422D01*
X211787670Y-56848424D01*
X211787670Y-56848425D01*
X211762631Y-56860100D01*
X211589361Y-56940898D01*
X211589357Y-56940900D01*
X211410121Y-57066402D01*
X211255402Y-57221121D01*
X211129900Y-57400357D01*
X211129900Y-57400358D01*
X211059381Y-57551584D01*
X211013208Y-57604023D01*
X210946014Y-57623174D01*
X210879133Y-57602958D01*
X210834618Y-57551584D01*
X210764102Y-57400362D01*
X210764099Y-57400358D01*
X210764099Y-57400357D01*
X210638599Y-57221124D01*
X210574395Y-57156920D01*
X210483877Y-57066402D01*
X210304639Y-56940898D01*
X210304640Y-56940898D01*
X210304638Y-56940897D01*
X210205484Y-56894661D01*
X210106330Y-56848425D01*
X210106326Y-56848424D01*
X210106322Y-56848422D01*
X209894977Y-56791793D01*
X209677002Y-56772723D01*
X209676998Y-56772723D01*
X209531681Y-56785436D01*
X209459023Y-56791793D01*
X209459020Y-56791793D01*
X209247677Y-56848422D01*
X209247670Y-56848424D01*
X209247670Y-56848425D01*
X209222631Y-56860100D01*
X209049361Y-56940898D01*
X209049357Y-56940900D01*
X208870121Y-57066402D01*
X208715402Y-57221121D01*
X208589900Y-57400357D01*
X208589898Y-57400361D01*
X208519382Y-57551583D01*
X208473209Y-57604022D01*
X208406016Y-57623174D01*
X208339135Y-57602958D01*
X208294618Y-57551583D01*
X208262514Y-57482736D01*
X208224102Y-57400362D01*
X208224099Y-57400358D01*
X208224099Y-57400357D01*
X208098599Y-57221124D01*
X208034395Y-57156920D01*
X207943877Y-57066402D01*
X207764639Y-56940898D01*
X207764640Y-56940898D01*
X207764638Y-56940897D01*
X207665484Y-56894661D01*
X207566330Y-56848425D01*
X207566326Y-56848424D01*
X207566322Y-56848422D01*
X207354977Y-56791793D01*
X207137002Y-56772723D01*
X207136998Y-56772723D01*
X206991681Y-56785436D01*
X206919023Y-56791793D01*
X206919020Y-56791793D01*
X206707677Y-56848422D01*
X206707670Y-56848424D01*
X206707670Y-56848425D01*
X206682631Y-56860100D01*
X206509361Y-56940898D01*
X206509357Y-56940900D01*
X206330121Y-57066402D01*
X206175402Y-57221121D01*
X206049900Y-57400357D01*
X206049897Y-57400363D01*
X206034273Y-57433868D01*
X205988099Y-57486307D01*
X205920905Y-57505457D01*
X205854025Y-57485240D01*
X205809509Y-57433865D01*
X205770598Y-57350419D01*
X205635113Y-57156926D01*
X205635108Y-57156920D01*
X205468082Y-56989894D01*
X205274578Y-56854399D01*
X205060492Y-56754570D01*
X205060486Y-56754567D01*
X204846999Y-56697364D01*
X204846999Y-57415698D01*
X204827314Y-57482737D01*
X204774510Y-57528492D01*
X204705353Y-57538436D01*
X204632764Y-57528000D01*
X204632763Y-57528000D01*
X204561237Y-57528000D01*
X204488646Y-57538437D01*
X204419487Y-57528493D01*
X204366683Y-57482738D01*
X204346999Y-57415699D01*
X204346999Y-56697364D01*
X204133513Y-56754567D01*
X204133507Y-56754570D01*
X203919422Y-56854399D01*
X203919420Y-56854400D01*
X203725926Y-56989886D01*
X203725920Y-56989891D01*
X203558891Y-57156920D01*
X203558886Y-57156926D01*
X203423400Y-57350420D01*
X203423399Y-57350422D01*
X203384489Y-57433866D01*
X203338317Y-57486305D01*
X203271123Y-57505457D01*
X203204242Y-57485241D01*
X203159725Y-57433866D01*
X203159725Y-57433865D01*
X203144102Y-57400362D01*
X203144099Y-57400358D01*
X203144099Y-57400357D01*
X203018599Y-57221124D01*
X202954395Y-57156920D01*
X202863877Y-57066402D01*
X202684639Y-56940898D01*
X202684640Y-56940898D01*
X202684638Y-56940897D01*
X202585484Y-56894661D01*
X202486330Y-56848425D01*
X202486326Y-56848424D01*
X202486322Y-56848422D01*
X202274977Y-56791793D01*
X202057002Y-56772723D01*
X202056998Y-56772723D01*
X201911682Y-56785436D01*
X201839023Y-56791793D01*
X201839020Y-56791793D01*
X201627677Y-56848422D01*
X201627670Y-56848424D01*
X201627670Y-56848425D01*
X201602631Y-56860100D01*
X201429361Y-56940898D01*
X201429357Y-56940900D01*
X201250121Y-57066402D01*
X201095402Y-57221121D01*
X200969900Y-57400357D01*
X200969900Y-57400358D01*
X200899381Y-57551584D01*
X200853208Y-57604023D01*
X200786014Y-57623174D01*
X200719133Y-57602958D01*
X200674618Y-57551584D01*
X200604102Y-57400362D01*
X200604099Y-57400358D01*
X200604099Y-57400357D01*
X200478599Y-57221124D01*
X200414395Y-57156920D01*
X200323877Y-57066402D01*
X200144639Y-56940898D01*
X200144640Y-56940898D01*
X200144638Y-56940897D01*
X200045484Y-56894661D01*
X199946330Y-56848425D01*
X199946326Y-56848424D01*
X199946322Y-56848422D01*
X199734977Y-56791793D01*
X199517002Y-56772723D01*
X199516998Y-56772723D01*
X199371682Y-56785436D01*
X199299023Y-56791793D01*
X199299020Y-56791793D01*
X199087677Y-56848422D01*
X199087670Y-56848424D01*
X199087670Y-56848425D01*
X199062631Y-56860100D01*
X198889361Y-56940898D01*
X198889357Y-56940900D01*
X198710121Y-57066402D01*
X198555402Y-57221121D01*
X198429900Y-57400357D01*
X198429897Y-57400363D01*
X198414273Y-57433868D01*
X198368099Y-57486307D01*
X198300905Y-57505457D01*
X198234025Y-57485240D01*
X198189509Y-57433865D01*
X198150598Y-57350419D01*
X198015113Y-57156926D01*
X198015108Y-57156920D01*
X197848082Y-56989894D01*
X197654578Y-56854399D01*
X197440492Y-56754570D01*
X197440486Y-56754567D01*
X197227000Y-56697364D01*
X197226999Y-56697364D01*
X197226999Y-57415698D01*
X197207314Y-57482738D01*
X197154510Y-57528492D01*
X197085353Y-57538436D01*
X197012764Y-57528000D01*
X197012763Y-57528000D01*
X196941237Y-57528000D01*
X196941233Y-57528000D01*
X196868645Y-57538436D01*
X196799487Y-57528492D01*
X196746684Y-57482736D01*
X196727000Y-57415698D01*
X196727000Y-56697364D01*
X196726999Y-56697364D01*
X196513513Y-56754567D01*
X196513507Y-56754570D01*
X196299422Y-56854399D01*
X196299420Y-56854400D01*
X196105926Y-56989886D01*
X196105920Y-56989891D01*
X195938891Y-57156920D01*
X195938886Y-57156926D01*
X195803400Y-57350420D01*
X195803399Y-57350422D01*
X195764489Y-57433866D01*
X195718317Y-57486305D01*
X195651123Y-57505457D01*
X195584242Y-57485241D01*
X195539725Y-57433866D01*
X195539725Y-57433865D01*
X195524102Y-57400362D01*
X195524099Y-57400358D01*
X195524099Y-57400357D01*
X195398599Y-57221124D01*
X195334395Y-57156920D01*
X195243877Y-57066402D01*
X195064639Y-56940898D01*
X195064640Y-56940898D01*
X195064638Y-56940897D01*
X194965484Y-56894661D01*
X194866330Y-56848425D01*
X194866326Y-56848424D01*
X194866322Y-56848422D01*
X194654977Y-56791793D01*
X194437002Y-56772723D01*
X194436998Y-56772723D01*
X194291682Y-56785436D01*
X194219023Y-56791793D01*
X194219020Y-56791793D01*
X194007677Y-56848422D01*
X194007670Y-56848424D01*
X194007670Y-56848425D01*
X193982631Y-56860100D01*
X193809361Y-56940898D01*
X193809357Y-56940900D01*
X193630121Y-57066402D01*
X193475402Y-57221121D01*
X193349900Y-57400357D01*
X193349898Y-57400361D01*
X193279382Y-57551583D01*
X193233209Y-57604022D01*
X193166016Y-57623174D01*
X193099135Y-57602958D01*
X193054618Y-57551583D01*
X193022514Y-57482736D01*
X192984102Y-57400362D01*
X192984099Y-57400358D01*
X192984099Y-57400357D01*
X192858599Y-57221124D01*
X192794395Y-57156920D01*
X192703877Y-57066402D01*
X192524639Y-56940898D01*
X192524640Y-56940898D01*
X192524638Y-56940897D01*
X192425484Y-56894661D01*
X192326330Y-56848425D01*
X192326326Y-56848424D01*
X192326322Y-56848422D01*
X192114977Y-56791793D01*
X191897002Y-56772723D01*
X191896998Y-56772723D01*
X191751682Y-56785436D01*
X191679023Y-56791793D01*
X191679020Y-56791793D01*
X191467677Y-56848422D01*
X191467670Y-56848424D01*
X191467670Y-56848425D01*
X191442631Y-56860100D01*
X191269361Y-56940898D01*
X191269357Y-56940900D01*
X191090121Y-57066402D01*
X190935402Y-57221121D01*
X190809900Y-57400357D01*
X190809898Y-57400361D01*
X190739382Y-57551583D01*
X190693209Y-57604022D01*
X190626016Y-57623174D01*
X190559135Y-57602958D01*
X190514618Y-57551583D01*
X190482514Y-57482736D01*
X190444102Y-57400362D01*
X190444099Y-57400358D01*
X190444099Y-57400357D01*
X190318599Y-57221124D01*
X190254395Y-57156920D01*
X190163877Y-57066402D01*
X189984639Y-56940898D01*
X189984640Y-56940898D01*
X189984638Y-56940897D01*
X189885484Y-56894661D01*
X189786330Y-56848425D01*
X189786326Y-56848424D01*
X189786322Y-56848422D01*
X189574977Y-56791793D01*
X189357002Y-56772723D01*
X189356998Y-56772723D01*
X189211681Y-56785436D01*
X189139023Y-56791793D01*
X189139020Y-56791793D01*
X188927677Y-56848422D01*
X188927670Y-56848424D01*
X188927670Y-56848425D01*
X188902631Y-56860100D01*
X188729361Y-56940898D01*
X188729357Y-56940900D01*
X188550121Y-57066402D01*
X188395402Y-57221121D01*
X188269900Y-57400357D01*
X188269897Y-57400363D01*
X188254273Y-57433868D01*
X188208099Y-57486307D01*
X188140905Y-57505457D01*
X188074025Y-57485240D01*
X188029509Y-57433865D01*
X187990598Y-57350419D01*
X187855113Y-57156926D01*
X187855108Y-57156920D01*
X187688082Y-56989894D01*
X187494578Y-56854399D01*
X187280492Y-56754570D01*
X187280486Y-56754567D01*
X187067000Y-56697364D01*
X187066999Y-56697364D01*
X187066999Y-57415698D01*
X187047314Y-57482738D01*
X186994510Y-57528492D01*
X186925353Y-57538436D01*
X186852764Y-57528000D01*
X186852763Y-57528000D01*
X186781237Y-57528000D01*
X186781233Y-57528000D01*
X186708645Y-57538436D01*
X186639487Y-57528492D01*
X186586684Y-57482736D01*
X186567000Y-57415698D01*
X186567000Y-56697364D01*
X186566999Y-56697364D01*
X186353513Y-56754567D01*
X186353507Y-56754570D01*
X186139422Y-56854399D01*
X186139420Y-56854400D01*
X185945926Y-56989886D01*
X185945920Y-56989891D01*
X185778891Y-57156920D01*
X185778886Y-57156926D01*
X185643400Y-57350420D01*
X185643399Y-57350422D01*
X185604489Y-57433866D01*
X185558317Y-57486305D01*
X185491123Y-57505457D01*
X185424242Y-57485241D01*
X185379725Y-57433866D01*
X185379725Y-57433865D01*
X185364102Y-57400362D01*
X185364099Y-57400358D01*
X185364099Y-57400357D01*
X185238599Y-57221124D01*
X185174395Y-57156920D01*
X185083877Y-57066402D01*
X184904639Y-56940898D01*
X184904640Y-56940898D01*
X184904638Y-56940897D01*
X184805484Y-56894661D01*
X184706330Y-56848425D01*
X184706326Y-56848424D01*
X184706322Y-56848422D01*
X184494977Y-56791793D01*
X184277002Y-56772723D01*
X184276998Y-56772723D01*
X184131681Y-56785436D01*
X184059023Y-56791793D01*
X184059020Y-56791793D01*
X183847677Y-56848422D01*
X183847670Y-56848424D01*
X183847670Y-56848425D01*
X183822631Y-56860100D01*
X183649361Y-56940898D01*
X183649357Y-56940900D01*
X183470121Y-57066402D01*
X183315402Y-57221121D01*
X183189900Y-57400357D01*
X183189898Y-57400361D01*
X183119382Y-57551583D01*
X183073209Y-57604022D01*
X183006016Y-57623174D01*
X182939135Y-57602958D01*
X182894618Y-57551583D01*
X182862514Y-57482736D01*
X182824102Y-57400362D01*
X182824099Y-57400358D01*
X182824099Y-57400357D01*
X182698599Y-57221124D01*
X182634395Y-57156920D01*
X182543877Y-57066402D01*
X182364639Y-56940898D01*
X182364640Y-56940898D01*
X182364638Y-56940897D01*
X182265484Y-56894661D01*
X182166330Y-56848425D01*
X182166326Y-56848424D01*
X182166322Y-56848422D01*
X181954977Y-56791793D01*
X181737002Y-56772723D01*
X181736998Y-56772723D01*
X181591682Y-56785436D01*
X181519023Y-56791793D01*
X181519020Y-56791793D01*
X181307677Y-56848422D01*
X181307670Y-56848424D01*
X181307670Y-56848425D01*
X181282631Y-56860100D01*
X181109361Y-56940898D01*
X181109357Y-56940900D01*
X180930121Y-57066402D01*
X180775402Y-57221121D01*
X180649900Y-57400357D01*
X180649898Y-57400361D01*
X180557426Y-57598668D01*
X180557422Y-57598677D01*
X180500793Y-57810020D01*
X180500793Y-57810023D01*
X180481723Y-58028000D01*
X178198911Y-58028000D01*
X178185746Y-58012180D01*
X178185740Y-58012175D01*
X177984002Y-57831418D01*
X177758092Y-57681957D01*
X177654779Y-57633526D01*
X177512824Y-57566980D01*
X177512819Y-57566978D01*
X177512814Y-57566976D01*
X177253442Y-57488942D01*
X177253428Y-57488939D01*
X177137791Y-57471921D01*
X176985439Y-57449500D01*
X176782369Y-57449500D01*
X176782364Y-57449500D01*
X176579844Y-57464323D01*
X176579831Y-57464325D01*
X176315453Y-57523217D01*
X176315446Y-57523220D01*
X176062439Y-57619987D01*
X175826226Y-57752557D01*
X175611822Y-57918112D01*
X175423822Y-58113109D01*
X175423816Y-58113116D01*
X175266202Y-58333419D01*
X175266199Y-58333424D01*
X175142350Y-58574309D01*
X175142343Y-58574327D01*
X175054884Y-58830685D01*
X175054881Y-58830699D01*
X175005681Y-59097068D01*
X175005680Y-59097075D01*
X174995787Y-59367763D01*
X173600499Y-59367763D01*
X173600499Y-58801740D01*
X173600597Y-58798263D01*
X173608606Y-58655639D01*
X173617593Y-58495620D01*
X173618369Y-58488732D01*
X173668852Y-58191615D01*
X173670400Y-58184832D01*
X173715582Y-58028002D01*
X173753830Y-57895237D01*
X173756123Y-57888685D01*
X173871459Y-57610238D01*
X173874462Y-57604003D01*
X174020248Y-57340223D01*
X174023944Y-57334342D01*
X174198337Y-57088558D01*
X174202669Y-57083124D01*
X174403490Y-56858405D01*
X174408408Y-56853488D01*
X174633124Y-56652669D01*
X174638558Y-56648337D01*
X174711243Y-56596763D01*
X174884342Y-56473944D01*
X174890223Y-56470248D01*
X175154003Y-56324462D01*
X175160238Y-56321459D01*
X175438685Y-56206123D01*
X175445237Y-56203830D01*
X175734836Y-56120399D01*
X175741616Y-56118852D01*
X176038732Y-56068369D01*
X176045621Y-56067593D01*
X176204630Y-56058663D01*
X176348265Y-56050598D01*
X176351742Y-56050500D01*
X176394170Y-56050500D01*
X255305830Y-56050500D01*
X255348258Y-56050500D01*
X255351735Y-56050598D01*
G37*
G04 #@! TD.AperFunction*
G04 #@! TA.AperFunction,Conductor*
G36*
X231866835Y-69320596D02*
G01*
X231895061Y-69375994D01*
X231896300Y-69391731D01*
X231896300Y-71957134D01*
X231895869Y-71963707D01*
X231891091Y-71999998D01*
X231891091Y-72000003D01*
X231911838Y-72157597D01*
X231972668Y-72304454D01*
X232002988Y-72343967D01*
X232069437Y-72430565D01*
X232069440Y-72430568D01*
X232195542Y-72527329D01*
X232195549Y-72527333D01*
X232342402Y-72588161D01*
X232499997Y-72608909D01*
X232500000Y-72608909D01*
X232500003Y-72608909D01*
X232574931Y-72599044D01*
X232657597Y-72588161D01*
X232657597Y-72588160D01*
X232668797Y-72586686D01*
X232679267Y-72579183D01*
X232804455Y-72527331D01*
X232930564Y-72430564D01*
X233027331Y-72304455D01*
X233088161Y-72157597D01*
X233108909Y-72000000D01*
X233104130Y-71963706D01*
X233103700Y-71957134D01*
X233103700Y-69142863D01*
X233104131Y-69136290D01*
X233108909Y-69100001D01*
X233108909Y-69099996D01*
X233088161Y-68942401D01*
X233027333Y-68795549D01*
X233027332Y-68795548D01*
X233027331Y-68795545D01*
X232954858Y-68701097D01*
X232930564Y-68669436D01*
X232901518Y-68647148D01*
X232896567Y-68642806D01*
X232253761Y-68000000D01*
X245491210Y-68000000D01*
X245511553Y-68349293D01*
X245572312Y-68693876D01*
X245672663Y-69029072D01*
X245811243Y-69350334D01*
X245811253Y-69350353D01*
X245986190Y-69653353D01*
X246195134Y-69934014D01*
X246435249Y-70188521D01*
X246703267Y-70413414D01*
X246703271Y-70413416D01*
X246703275Y-70413420D01*
X246995605Y-70605689D01*
X247308279Y-70762719D01*
X247308286Y-70762721D01*
X247308287Y-70762722D01*
X247637060Y-70882386D01*
X247637062Y-70882386D01*
X247637069Y-70882389D01*
X247977529Y-70963080D01*
X248151291Y-70983390D01*
X248325052Y-71003700D01*
X248325054Y-71003700D01*
X248674948Y-71003700D01*
X248813956Y-70987452D01*
X249022471Y-70963080D01*
X249362931Y-70882389D01*
X249691721Y-70762719D01*
X250004395Y-70605689D01*
X250296725Y-70413420D01*
X250564757Y-70188515D01*
X250804867Y-69934013D01*
X251013807Y-69653357D01*
X251188753Y-69350342D01*
X251327338Y-69029067D01*
X251427688Y-68693875D01*
X251488446Y-68349299D01*
X251508790Y-68000000D01*
X251488446Y-67650701D01*
X251427688Y-67306125D01*
X251327338Y-66970933D01*
X251327337Y-66970931D01*
X251327336Y-66970927D01*
X251188756Y-66649665D01*
X251188753Y-66649658D01*
X251013807Y-66346643D01*
X250804867Y-66065987D01*
X250564757Y-65811485D01*
X250564755Y-65811483D01*
X250564750Y-65811478D01*
X250296732Y-65586585D01*
X250296726Y-65586581D01*
X250296725Y-65586580D01*
X250004395Y-65394311D01*
X249691721Y-65237281D01*
X249691717Y-65237279D01*
X249691714Y-65237278D01*
X249691712Y-65237277D01*
X249362939Y-65117613D01*
X249362923Y-65117609D01*
X249022477Y-65036921D01*
X249022468Y-65036919D01*
X248674948Y-64996300D01*
X248674946Y-64996300D01*
X248325054Y-64996300D01*
X248325052Y-64996300D01*
X247977531Y-65036919D01*
X247977522Y-65036921D01*
X247637076Y-65117609D01*
X247637060Y-65117613D01*
X247308287Y-65237277D01*
X247308285Y-65237278D01*
X246995602Y-65394312D01*
X246703276Y-65586579D01*
X246703267Y-65586585D01*
X246435249Y-65811478D01*
X246195134Y-66065985D01*
X245986190Y-66346646D01*
X245811253Y-66649646D01*
X245811243Y-66649665D01*
X245672663Y-66970927D01*
X245572312Y-67306123D01*
X245511553Y-67650706D01*
X245491210Y-68000000D01*
X232253761Y-68000000D01*
X228753761Y-64500000D01*
X252100000Y-64500000D01*
X252000000Y-104500000D01*
X212000000Y-104500000D01*
X212008750Y-101000000D01*
X212491210Y-101000000D01*
X212511553Y-101349293D01*
X212572312Y-101693876D01*
X212672663Y-102029072D01*
X212811243Y-102350334D01*
X212811253Y-102350353D01*
X212986190Y-102653353D01*
X213195134Y-102934014D01*
X213435249Y-103188521D01*
X213703267Y-103413414D01*
X213703271Y-103413416D01*
X213703275Y-103413420D01*
X213995605Y-103605689D01*
X214308279Y-103762719D01*
X214308286Y-103762721D01*
X214308287Y-103762722D01*
X214637060Y-103882386D01*
X214637062Y-103882386D01*
X214637069Y-103882389D01*
X214977529Y-103963080D01*
X215151291Y-103983390D01*
X215325052Y-104003700D01*
X215325054Y-104003700D01*
X215674948Y-104003700D01*
X215813955Y-103987452D01*
X216022471Y-103963080D01*
X216362931Y-103882389D01*
X216691721Y-103762719D01*
X217004395Y-103605689D01*
X217296725Y-103413420D01*
X217564757Y-103188515D01*
X217804867Y-102934013D01*
X218013807Y-102653357D01*
X218188753Y-102350342D01*
X218327338Y-102029067D01*
X218427688Y-101693875D01*
X218488446Y-101349299D01*
X218508790Y-101000000D01*
X245491210Y-101000000D01*
X245511553Y-101349293D01*
X245572312Y-101693876D01*
X245672663Y-102029072D01*
X245811243Y-102350334D01*
X245811253Y-102350353D01*
X245986190Y-102653353D01*
X246195134Y-102934014D01*
X246435249Y-103188521D01*
X246703267Y-103413414D01*
X246703271Y-103413416D01*
X246703275Y-103413420D01*
X246995605Y-103605689D01*
X247308279Y-103762719D01*
X247308286Y-103762721D01*
X247308287Y-103762722D01*
X247637060Y-103882386D01*
X247637062Y-103882386D01*
X247637069Y-103882389D01*
X247977529Y-103963080D01*
X248151291Y-103983390D01*
X248325052Y-104003700D01*
X248325054Y-104003700D01*
X248674948Y-104003700D01*
X248813956Y-103987452D01*
X249022471Y-103963080D01*
X249362931Y-103882389D01*
X249691721Y-103762719D01*
X250004395Y-103605689D01*
X250296725Y-103413420D01*
X250564757Y-103188515D01*
X250804867Y-102934013D01*
X251013807Y-102653357D01*
X251188753Y-102350342D01*
X251327338Y-102029067D01*
X251427688Y-101693875D01*
X251488446Y-101349299D01*
X251508790Y-101000000D01*
X251488446Y-100650701D01*
X251427688Y-100306125D01*
X251327338Y-99970933D01*
X251327337Y-99970931D01*
X251327336Y-99970927D01*
X251188756Y-99649665D01*
X251188753Y-99649658D01*
X251013807Y-99346643D01*
X250804867Y-99065987D01*
X250564757Y-98811485D01*
X250564755Y-98811483D01*
X250564750Y-98811478D01*
X250296732Y-98586585D01*
X250296726Y-98586581D01*
X250296725Y-98586580D01*
X250004395Y-98394311D01*
X249691721Y-98237281D01*
X249691717Y-98237279D01*
X249691714Y-98237278D01*
X249691712Y-98237277D01*
X249362939Y-98117613D01*
X249362923Y-98117609D01*
X249022477Y-98036921D01*
X249022468Y-98036919D01*
X248674948Y-97996300D01*
X248674946Y-97996300D01*
X248325054Y-97996300D01*
X248325052Y-97996300D01*
X247977531Y-98036919D01*
X247977522Y-98036921D01*
X247637076Y-98117609D01*
X247637060Y-98117613D01*
X247308287Y-98237277D01*
X247308285Y-98237278D01*
X246995602Y-98394312D01*
X246703276Y-98586579D01*
X246703267Y-98586585D01*
X246435249Y-98811478D01*
X246195134Y-99065985D01*
X245986190Y-99346646D01*
X245811253Y-99649646D01*
X245811243Y-99649665D01*
X245672663Y-99970927D01*
X245572312Y-100306123D01*
X245511553Y-100650706D01*
X245491210Y-101000000D01*
X218508790Y-101000000D01*
X218488446Y-100650701D01*
X218427688Y-100306125D01*
X218327338Y-99970933D01*
X218327337Y-99970931D01*
X218327336Y-99970927D01*
X218188756Y-99649665D01*
X218188753Y-99649658D01*
X218013807Y-99346643D01*
X217804867Y-99065987D01*
X217564757Y-98811485D01*
X217564755Y-98811483D01*
X217564750Y-98811478D01*
X217296732Y-98586585D01*
X217296726Y-98586581D01*
X217296725Y-98586580D01*
X217004395Y-98394311D01*
X216691721Y-98237281D01*
X216691717Y-98237279D01*
X216691714Y-98237278D01*
X216691712Y-98237277D01*
X216362939Y-98117613D01*
X216362923Y-98117609D01*
X216022477Y-98036921D01*
X216022468Y-98036919D01*
X215674948Y-97996300D01*
X215674946Y-97996300D01*
X215325054Y-97996300D01*
X215325052Y-97996300D01*
X214977531Y-98036919D01*
X214977522Y-98036921D01*
X214637076Y-98117609D01*
X214637060Y-98117613D01*
X214308287Y-98237277D01*
X214308285Y-98237278D01*
X213995602Y-98394312D01*
X213703276Y-98586579D01*
X213703267Y-98586585D01*
X213435249Y-98811478D01*
X213195134Y-99065985D01*
X212986190Y-99346646D01*
X212811253Y-99649646D01*
X212811243Y-99649665D01*
X212672663Y-99970927D01*
X212572312Y-100306123D01*
X212511553Y-100650706D01*
X212491210Y-101000000D01*
X212008750Y-101000000D01*
X212028250Y-93200000D01*
X223291132Y-93200000D01*
X223311730Y-93369642D01*
X223372329Y-93529427D01*
X223372329Y-93529428D01*
X223469404Y-93670065D01*
X223469408Y-93670069D01*
X223597314Y-93783385D01*
X223597315Y-93783386D01*
X223597317Y-93783387D01*
X223748628Y-93862801D01*
X223748629Y-93862801D01*
X223748632Y-93862803D01*
X223914555Y-93903700D01*
X223914559Y-93903700D01*
X224085441Y-93903700D01*
X224085445Y-93903700D01*
X224251368Y-93862803D01*
X224402683Y-93783387D01*
X224530595Y-93670066D01*
X224627671Y-93529427D01*
X224688270Y-93369643D01*
X224708868Y-93200000D01*
X226491132Y-93200000D01*
X226511730Y-93369642D01*
X226572329Y-93529427D01*
X226572329Y-93529428D01*
X226669404Y-93670065D01*
X226669408Y-93670069D01*
X226797314Y-93783385D01*
X226797315Y-93783386D01*
X226797317Y-93783387D01*
X226948628Y-93862801D01*
X226948629Y-93862801D01*
X226948632Y-93862803D01*
X227114555Y-93903700D01*
X227114559Y-93903700D01*
X227285441Y-93903700D01*
X227285445Y-93903700D01*
X227451368Y-93862803D01*
X227602683Y-93783387D01*
X227730595Y-93670066D01*
X227827671Y-93529427D01*
X227888270Y-93369643D01*
X227908868Y-93200000D01*
X229691132Y-93200000D01*
X229711730Y-93369642D01*
X229772329Y-93529427D01*
X229772329Y-93529428D01*
X229869404Y-93670065D01*
X229869408Y-93670069D01*
X229997314Y-93783385D01*
X229997315Y-93783386D01*
X229997317Y-93783387D01*
X230148628Y-93862801D01*
X230148629Y-93862801D01*
X230148632Y-93862803D01*
X230314555Y-93903700D01*
X230314559Y-93903700D01*
X230485441Y-93903700D01*
X230485445Y-93903700D01*
X230651368Y-93862803D01*
X230802683Y-93783387D01*
X230930595Y-93670066D01*
X231027671Y-93529427D01*
X231088270Y-93369643D01*
X231108868Y-93200000D01*
X231108868Y-93199999D01*
X232920332Y-93199999D01*
X232940930Y-93369642D01*
X233001529Y-93529427D01*
X233001529Y-93529428D01*
X233098604Y-93670065D01*
X233098608Y-93670069D01*
X233226514Y-93783385D01*
X233226515Y-93783386D01*
X233226517Y-93783387D01*
X233377828Y-93862801D01*
X233377829Y-93862801D01*
X233377832Y-93862803D01*
X233543755Y-93903700D01*
X233543759Y-93903700D01*
X233714641Y-93903700D01*
X233714645Y-93903700D01*
X233880568Y-93862803D01*
X234031883Y-93783387D01*
X234159795Y-93670066D01*
X234256871Y-93529427D01*
X234317470Y-93369643D01*
X234338068Y-93200000D01*
X234317470Y-93030357D01*
X234256871Y-92870573D01*
X234159795Y-92729934D01*
X234159791Y-92729930D01*
X234031885Y-92616614D01*
X234031884Y-92616613D01*
X233880570Y-92537198D01*
X233880572Y-92537198D01*
X233714645Y-92496300D01*
X233543755Y-92496300D01*
X233543754Y-92496300D01*
X233377828Y-92537198D01*
X233226515Y-92616613D01*
X233226514Y-92616614D01*
X233098608Y-92729930D01*
X233098604Y-92729934D01*
X233001529Y-92870571D01*
X233001529Y-92870572D01*
X232940930Y-93030357D01*
X232920332Y-93199999D01*
X231108868Y-93199999D01*
X231088270Y-93030357D01*
X231027671Y-92870573D01*
X230930595Y-92729934D01*
X230930591Y-92729930D01*
X230802685Y-92616614D01*
X230802684Y-92616613D01*
X230651370Y-92537198D01*
X230651372Y-92537198D01*
X230485445Y-92496300D01*
X230314555Y-92496300D01*
X230314554Y-92496300D01*
X230148628Y-92537198D01*
X229997315Y-92616613D01*
X229997314Y-92616614D01*
X229869408Y-92729930D01*
X229869404Y-92729934D01*
X229772329Y-92870571D01*
X229772329Y-92870572D01*
X229711730Y-93030357D01*
X229691132Y-93200000D01*
X227908868Y-93200000D01*
X227888270Y-93030357D01*
X227827671Y-92870573D01*
X227730595Y-92729934D01*
X227730591Y-92729930D01*
X227602685Y-92616614D01*
X227602684Y-92616613D01*
X227451370Y-92537198D01*
X227451372Y-92537198D01*
X227285445Y-92496300D01*
X227114555Y-92496300D01*
X227114554Y-92496300D01*
X226948628Y-92537198D01*
X226797315Y-92616613D01*
X226797314Y-92616614D01*
X226669408Y-92729930D01*
X226669404Y-92729934D01*
X226572329Y-92870571D01*
X226572329Y-92870572D01*
X226511730Y-93030357D01*
X226491132Y-93200000D01*
X224708868Y-93200000D01*
X224688270Y-93030357D01*
X224627671Y-92870573D01*
X224530595Y-92729934D01*
X224530591Y-92729930D01*
X224402685Y-92616614D01*
X224402684Y-92616613D01*
X224251370Y-92537198D01*
X224251372Y-92537198D01*
X224085445Y-92496300D01*
X223914555Y-92496300D01*
X223914554Y-92496300D01*
X223748628Y-92537198D01*
X223597315Y-92616613D01*
X223597314Y-92616614D01*
X223469408Y-92729930D01*
X223469404Y-92729934D01*
X223372329Y-92870571D01*
X223372329Y-92870572D01*
X223311730Y-93030357D01*
X223291132Y-93200000D01*
X212028250Y-93200000D01*
X212038750Y-89000003D01*
X227291091Y-89000003D01*
X227311838Y-89157597D01*
X227372666Y-89304450D01*
X227372670Y-89304457D01*
X227469433Y-89430561D01*
X227469438Y-89430566D01*
X227595542Y-89527329D01*
X227595549Y-89527333D01*
X227742402Y-89588161D01*
X227899997Y-89608909D01*
X227900000Y-89608909D01*
X227900003Y-89608909D01*
X228057597Y-89588161D01*
X228204450Y-89527333D01*
X228204449Y-89527333D01*
X228204455Y-89527331D01*
X228330564Y-89430564D01*
X228427331Y-89304455D01*
X228488161Y-89157597D01*
X228504958Y-89030013D01*
X236586147Y-89030013D01*
X236606894Y-89187607D01*
X236667722Y-89334460D01*
X236667726Y-89334467D01*
X236764489Y-89460571D01*
X236764494Y-89460576D01*
X236890598Y-89557339D01*
X236890605Y-89557343D01*
X237037458Y-89618171D01*
X237195053Y-89638919D01*
X237195056Y-89638919D01*
X237195059Y-89638919D01*
X237352653Y-89618171D01*
X237499506Y-89557343D01*
X237499505Y-89557343D01*
X237499511Y-89557341D01*
X237625620Y-89460574D01*
X237722387Y-89334465D01*
X237783217Y-89187607D01*
X237803965Y-89030010D01*
X237803965Y-89030006D01*
X237783217Y-88872412D01*
X237722389Y-88725560D01*
X237722388Y-88725558D01*
X237722387Y-88725557D01*
X237722387Y-88725556D01*
X237625620Y-88599446D01*
X237625619Y-88599445D01*
X237625617Y-88599443D01*
X237499513Y-88502680D01*
X237499506Y-88502676D01*
X237352653Y-88441848D01*
X237195059Y-88421101D01*
X237195053Y-88421101D01*
X237037458Y-88441848D01*
X236890606Y-88502676D01*
X236890599Y-88502680D01*
X236764495Y-88599443D01*
X236764489Y-88599449D01*
X236667726Y-88725553D01*
X236667722Y-88725560D01*
X236606894Y-88872412D01*
X236586147Y-89030006D01*
X236586147Y-89030013D01*
X228504958Y-89030013D01*
X228508909Y-89000000D01*
X228508909Y-88999996D01*
X228488161Y-88842402D01*
X228427333Y-88695550D01*
X228427332Y-88695548D01*
X228427331Y-88695547D01*
X228427331Y-88695546D01*
X228330564Y-88569436D01*
X228330563Y-88569435D01*
X228330561Y-88569433D01*
X228204457Y-88472670D01*
X228204450Y-88472666D01*
X228057597Y-88411838D01*
X227900003Y-88391091D01*
X227899997Y-88391091D01*
X227742402Y-88411838D01*
X227595550Y-88472666D01*
X227595543Y-88472670D01*
X227469439Y-88569433D01*
X227469433Y-88569439D01*
X227372670Y-88695543D01*
X227372666Y-88695550D01*
X227311838Y-88842402D01*
X227291091Y-88999996D01*
X227291091Y-89000003D01*
X212038750Y-89000003D01*
X212042381Y-87547423D01*
X225391091Y-87547423D01*
X225411838Y-87705017D01*
X225472666Y-87851870D01*
X225472670Y-87851877D01*
X225569433Y-87977981D01*
X225569438Y-87977986D01*
X225695542Y-88074749D01*
X225695549Y-88074753D01*
X225842402Y-88135581D01*
X225999997Y-88156329D01*
X226000000Y-88156329D01*
X226000003Y-88156329D01*
X226157597Y-88135581D01*
X226232738Y-88104457D01*
X226304455Y-88074751D01*
X226401868Y-88000003D01*
X230791091Y-88000003D01*
X230811838Y-88157597D01*
X230872666Y-88304450D01*
X230872670Y-88304457D01*
X230969433Y-88430561D01*
X230969438Y-88430566D01*
X231095542Y-88527329D01*
X231095549Y-88527333D01*
X231242402Y-88588161D01*
X231399997Y-88608909D01*
X231400000Y-88608909D01*
X231400003Y-88608909D01*
X231557597Y-88588161D01*
X231704450Y-88527333D01*
X231704449Y-88527333D01*
X231704455Y-88527331D01*
X231758696Y-88485710D01*
X231835796Y-88426550D01*
X231837001Y-88428120D01*
X231884246Y-88404038D01*
X231945656Y-88413754D01*
X231963869Y-88426986D01*
X231964204Y-88426550D01*
X232095542Y-88527329D01*
X232095549Y-88527333D01*
X232242402Y-88588161D01*
X232399997Y-88608909D01*
X232400000Y-88608909D01*
X232400003Y-88608909D01*
X232557597Y-88588161D01*
X232704450Y-88527333D01*
X232704449Y-88527333D01*
X232704455Y-88527331D01*
X232758696Y-88485710D01*
X232835796Y-88426550D01*
X232837001Y-88428120D01*
X232884246Y-88404038D01*
X232945656Y-88413754D01*
X232963871Y-88426985D01*
X232964206Y-88426550D01*
X232969434Y-88430561D01*
X232969436Y-88430564D01*
X233095545Y-88527331D01*
X233095547Y-88527332D01*
X233095549Y-88527333D01*
X233242402Y-88588161D01*
X233399997Y-88608909D01*
X233400000Y-88608909D01*
X233400003Y-88608909D01*
X233557597Y-88588161D01*
X233704450Y-88527333D01*
X233704449Y-88527333D01*
X233704455Y-88527331D01*
X233830564Y-88430564D01*
X233927331Y-88304455D01*
X233988161Y-88157597D01*
X233988328Y-88156329D01*
X234008909Y-88000003D01*
X234008909Y-87999996D01*
X233988161Y-87842402D01*
X233970599Y-87800003D01*
X238369191Y-87800003D01*
X238389938Y-87957597D01*
X238450766Y-88104450D01*
X238450770Y-88104457D01*
X238547533Y-88230561D01*
X238547538Y-88230566D01*
X238673642Y-88327329D01*
X238673649Y-88327333D01*
X238820502Y-88388161D01*
X238978097Y-88408909D01*
X238978100Y-88408909D01*
X238978103Y-88408909D01*
X239135697Y-88388161D01*
X239282550Y-88327333D01*
X239282549Y-88327333D01*
X239282555Y-88327331D01*
X239408664Y-88230564D01*
X239505431Y-88104455D01*
X239566261Y-87957597D01*
X239566261Y-87957596D01*
X239587009Y-87800003D01*
X239587009Y-87799996D01*
X239566261Y-87642402D01*
X239505433Y-87495550D01*
X239505432Y-87495548D01*
X239505431Y-87495547D01*
X239505431Y-87495546D01*
X239408664Y-87369436D01*
X239408663Y-87369435D01*
X239408661Y-87369433D01*
X239282557Y-87272670D01*
X239282550Y-87272666D01*
X239135697Y-87211838D01*
X238978103Y-87191091D01*
X238978097Y-87191091D01*
X238820502Y-87211838D01*
X238673650Y-87272666D01*
X238673643Y-87272670D01*
X238547539Y-87369433D01*
X238547533Y-87369439D01*
X238450770Y-87495543D01*
X238450766Y-87495550D01*
X238389938Y-87642402D01*
X238369191Y-87799996D01*
X238369191Y-87800003D01*
X233970599Y-87800003D01*
X233927333Y-87695550D01*
X233927332Y-87695548D01*
X233927331Y-87695547D01*
X233927331Y-87695546D01*
X233862640Y-87611238D01*
X233841887Y-87552633D01*
X233859546Y-87493019D01*
X233862625Y-87488780D01*
X233927331Y-87404455D01*
X233988161Y-87257597D01*
X233996917Y-87191091D01*
X234008909Y-87100003D01*
X234008909Y-87099996D01*
X233988161Y-86942402D01*
X233927333Y-86795550D01*
X233927332Y-86795548D01*
X233927331Y-86795547D01*
X233927331Y-86795546D01*
X233830564Y-86669436D01*
X233830563Y-86669435D01*
X233830561Y-86669433D01*
X233704457Y-86572670D01*
X233704450Y-86572666D01*
X233557597Y-86511838D01*
X233400003Y-86491091D01*
X233399997Y-86491091D01*
X233242402Y-86511838D01*
X233095550Y-86572666D01*
X233095548Y-86572667D01*
X232964205Y-86673450D01*
X232963003Y-86671883D01*
X232915720Y-86695966D01*
X232854312Y-86686230D01*
X232836129Y-86673014D01*
X232835796Y-86673450D01*
X232704457Y-86572670D01*
X232704450Y-86572666D01*
X232557597Y-86511838D01*
X232400003Y-86491091D01*
X232399997Y-86491091D01*
X232242402Y-86511838D01*
X232095550Y-86572666D01*
X232095548Y-86572667D01*
X231964205Y-86673450D01*
X231963003Y-86671883D01*
X231915721Y-86695965D01*
X231854313Y-86686229D01*
X231836128Y-86673016D01*
X231835796Y-86673450D01*
X231704457Y-86572670D01*
X231704450Y-86572666D01*
X231557597Y-86511838D01*
X231400003Y-86491091D01*
X231399997Y-86491091D01*
X231242402Y-86511838D01*
X231095550Y-86572666D01*
X231095543Y-86572670D01*
X230969439Y-86669433D01*
X230969433Y-86669439D01*
X230872670Y-86795543D01*
X230872666Y-86795550D01*
X230811838Y-86942402D01*
X230791091Y-87099996D01*
X230791091Y-87100003D01*
X230811838Y-87257597D01*
X230872666Y-87404450D01*
X230872670Y-87404457D01*
X230937357Y-87488758D01*
X230958112Y-87547365D01*
X230940453Y-87606979D01*
X230937358Y-87611239D01*
X230872670Y-87695544D01*
X230872666Y-87695550D01*
X230811838Y-87842402D01*
X230791091Y-87999996D01*
X230791091Y-88000003D01*
X226401868Y-88000003D01*
X226430564Y-87977984D01*
X226527331Y-87851875D01*
X226588161Y-87705017D01*
X226596404Y-87642403D01*
X226608909Y-87547423D01*
X226608909Y-87547416D01*
X226588161Y-87389822D01*
X226527333Y-87242970D01*
X226527332Y-87242968D01*
X226527331Y-87242967D01*
X226527331Y-87242966D01*
X226430564Y-87116856D01*
X226430563Y-87116855D01*
X226430561Y-87116853D01*
X226304457Y-87020090D01*
X226304450Y-87020086D01*
X226157597Y-86959258D01*
X226000003Y-86938511D01*
X225999997Y-86938511D01*
X225842402Y-86959258D01*
X225695550Y-87020086D01*
X225695543Y-87020090D01*
X225569439Y-87116853D01*
X225569433Y-87116859D01*
X225472670Y-87242963D01*
X225472666Y-87242970D01*
X225411838Y-87389822D01*
X225391091Y-87547416D01*
X225391091Y-87547423D01*
X212042381Y-87547423D01*
X212045985Y-86106003D01*
X223419091Y-86106003D01*
X223439838Y-86263597D01*
X223500666Y-86410450D01*
X223500670Y-86410457D01*
X223597433Y-86536561D01*
X223597438Y-86536566D01*
X223723542Y-86633329D01*
X223723549Y-86633333D01*
X223870402Y-86694161D01*
X224027997Y-86714909D01*
X224028000Y-86714909D01*
X224028003Y-86714909D01*
X224185597Y-86694161D01*
X224332450Y-86633333D01*
X224332449Y-86633333D01*
X224332455Y-86633331D01*
X224458564Y-86536564D01*
X224555331Y-86410455D01*
X224616161Y-86263597D01*
X224636909Y-86106003D01*
X240310091Y-86106003D01*
X240330838Y-86263597D01*
X240391666Y-86410450D01*
X240391670Y-86410457D01*
X240488433Y-86536561D01*
X240488438Y-86536566D01*
X240614542Y-86633329D01*
X240614549Y-86633333D01*
X240761402Y-86694161D01*
X240918997Y-86714909D01*
X240919000Y-86714909D01*
X240919003Y-86714909D01*
X241076597Y-86694161D01*
X241223450Y-86633333D01*
X241223449Y-86633333D01*
X241223455Y-86633331D01*
X241349564Y-86536564D01*
X241446331Y-86410455D01*
X241507161Y-86263597D01*
X241527909Y-86106000D01*
X241527909Y-86105996D01*
X241507161Y-85948402D01*
X241446333Y-85801550D01*
X241446332Y-85801548D01*
X241446331Y-85801547D01*
X241446331Y-85801546D01*
X241349564Y-85675436D01*
X241349563Y-85675435D01*
X241349561Y-85675433D01*
X241223457Y-85578670D01*
X241223450Y-85578666D01*
X241076597Y-85517838D01*
X240919003Y-85497091D01*
X240918997Y-85497091D01*
X240761402Y-85517838D01*
X240614550Y-85578666D01*
X240614543Y-85578670D01*
X240488439Y-85675433D01*
X240488433Y-85675439D01*
X240391670Y-85801543D01*
X240391666Y-85801550D01*
X240330838Y-85948402D01*
X240310091Y-86105996D01*
X240310091Y-86106003D01*
X224636909Y-86106003D01*
X224636909Y-86106000D01*
X224636909Y-86105996D01*
X224616161Y-85948402D01*
X224555333Y-85801550D01*
X224555332Y-85801548D01*
X224555331Y-85801547D01*
X224555331Y-85801546D01*
X224458564Y-85675436D01*
X224458563Y-85675435D01*
X224458561Y-85675433D01*
X224332457Y-85578670D01*
X224332450Y-85578666D01*
X224185597Y-85517838D01*
X224028003Y-85497091D01*
X224027997Y-85497091D01*
X223870402Y-85517838D01*
X223723550Y-85578666D01*
X223723543Y-85578670D01*
X223597439Y-85675433D01*
X223597433Y-85675439D01*
X223500670Y-85801543D01*
X223500666Y-85801550D01*
X223439838Y-85948402D01*
X223419091Y-86105996D01*
X223419091Y-86106003D01*
X212045985Y-86106003D01*
X212065356Y-78357700D01*
X220470652Y-78357700D01*
X220529783Y-78376913D01*
X220531849Y-78378455D01*
X220595545Y-78427331D01*
X220656133Y-78452427D01*
X220742402Y-78488161D01*
X220899997Y-78508909D01*
X220900000Y-78508909D01*
X220900003Y-78508909D01*
X221021297Y-78492940D01*
X221057597Y-78488161D01*
X221159202Y-78446074D01*
X221221184Y-78441197D01*
X221274197Y-78473682D01*
X221297990Y-78531124D01*
X221298300Y-78539017D01*
X221298300Y-82412937D01*
X221296150Y-82497791D01*
X221306522Y-82555664D01*
X221307053Y-82559450D01*
X221313004Y-82617966D01*
X221322973Y-82649743D01*
X221324491Y-82655929D01*
X221330367Y-82688705D01*
X221330368Y-82688710D01*
X221352183Y-82743325D01*
X221353465Y-82746926D01*
X221371070Y-82803035D01*
X221371070Y-82803036D01*
X221387233Y-82832156D01*
X221389963Y-82837904D01*
X221402319Y-82868836D01*
X221402322Y-82868843D01*
X221434680Y-82917940D01*
X221436661Y-82921210D01*
X221451410Y-82947781D01*
X221465201Y-82972628D01*
X221465202Y-82972630D01*
X221476514Y-82985806D01*
X221486895Y-82997899D01*
X221490726Y-83002980D01*
X221509056Y-83030791D01*
X221550640Y-83072376D01*
X221550641Y-83072376D01*
X221553240Y-83075180D01*
X221591540Y-83119795D01*
X221591541Y-83119796D01*
X221591544Y-83119799D01*
X221617880Y-83140185D01*
X221622658Y-83144393D01*
X223387829Y-84909565D01*
X223500479Y-85001419D01*
X223672401Y-85091223D01*
X223672403Y-85091223D01*
X223672406Y-85091225D01*
X223796935Y-85126857D01*
X223858880Y-85144582D01*
X224052284Y-85159310D01*
X224244694Y-85134805D01*
X224428231Y-85072070D01*
X224595384Y-84973673D01*
X224739307Y-84843643D01*
X224854110Y-84687303D01*
X224935092Y-84511053D01*
X224978937Y-84322110D01*
X224983850Y-84128209D01*
X224974135Y-84074003D01*
X227102091Y-84074003D01*
X227122838Y-84231597D01*
X227183666Y-84378450D01*
X227183670Y-84378457D01*
X227280433Y-84504561D01*
X227280438Y-84504566D01*
X227406542Y-84601329D01*
X227406549Y-84601333D01*
X227553402Y-84662161D01*
X227710997Y-84682909D01*
X227711000Y-84682909D01*
X227711003Y-84682909D01*
X227868597Y-84662161D01*
X228015450Y-84601333D01*
X228015449Y-84601333D01*
X228015455Y-84601331D01*
X228141564Y-84504564D01*
X228238331Y-84378455D01*
X228277040Y-84285003D01*
X236687066Y-84285003D01*
X236707813Y-84442597D01*
X236768641Y-84589450D01*
X236768645Y-84589457D01*
X236865408Y-84715561D01*
X236865413Y-84715566D01*
X236991517Y-84812329D01*
X236991524Y-84812333D01*
X237138377Y-84873161D01*
X237295972Y-84893909D01*
X237295975Y-84893909D01*
X237295978Y-84893909D01*
X237453572Y-84873161D01*
X237600425Y-84812333D01*
X237600424Y-84812333D01*
X237600430Y-84812331D01*
X237726539Y-84715564D01*
X237823306Y-84589455D01*
X237884136Y-84442597D01*
X237892580Y-84378457D01*
X237904884Y-84285003D01*
X237904884Y-84284996D01*
X237884136Y-84127402D01*
X237823308Y-83980550D01*
X237823307Y-83980548D01*
X237823306Y-83980547D01*
X237823306Y-83980546D01*
X237726539Y-83854436D01*
X237726538Y-83854435D01*
X237726536Y-83854433D01*
X237600432Y-83757670D01*
X237600425Y-83757666D01*
X237453572Y-83696838D01*
X237295978Y-83676091D01*
X237295972Y-83676091D01*
X237138377Y-83696838D01*
X236991525Y-83757666D01*
X236991518Y-83757670D01*
X236865414Y-83854433D01*
X236865408Y-83854439D01*
X236768645Y-83980543D01*
X236768641Y-83980550D01*
X236707813Y-84127402D01*
X236687066Y-84284996D01*
X236687066Y-84285003D01*
X228277040Y-84285003D01*
X228299161Y-84231597D01*
X228299160Y-84231597D01*
X228319909Y-84074003D01*
X228319909Y-84073996D01*
X228299161Y-83916402D01*
X228238333Y-83769550D01*
X228238332Y-83769548D01*
X228238331Y-83769547D01*
X228238331Y-83769546D01*
X228141564Y-83643436D01*
X228141563Y-83643435D01*
X228141561Y-83643433D01*
X228015457Y-83546670D01*
X228015450Y-83546666D01*
X227868597Y-83485838D01*
X227711003Y-83465091D01*
X227710997Y-83465091D01*
X227553402Y-83485838D01*
X227406550Y-83546666D01*
X227406543Y-83546670D01*
X227280439Y-83643433D01*
X227280433Y-83643439D01*
X227183670Y-83769543D01*
X227183666Y-83769550D01*
X227122838Y-83916402D01*
X227102091Y-84073996D01*
X227102091Y-84074003D01*
X224974135Y-84074003D01*
X224949631Y-83937288D01*
X224877681Y-83757163D01*
X224770944Y-83595209D01*
X223989618Y-82813882D01*
X237707119Y-82813882D01*
X237727866Y-82971476D01*
X237788694Y-83118329D01*
X237788698Y-83118336D01*
X237885461Y-83244440D01*
X237885466Y-83244445D01*
X238011570Y-83341208D01*
X238011577Y-83341212D01*
X238158430Y-83402040D01*
X238316025Y-83422788D01*
X238316028Y-83422788D01*
X238316031Y-83422788D01*
X238473625Y-83402040D01*
X238620478Y-83341212D01*
X238620477Y-83341212D01*
X238620483Y-83341210D01*
X238746592Y-83244443D01*
X238843359Y-83118334D01*
X238904189Y-82971476D01*
X238924937Y-82813879D01*
X238924937Y-82813875D01*
X238904189Y-82656281D01*
X238843361Y-82509429D01*
X238843360Y-82509427D01*
X238843359Y-82509426D01*
X238843359Y-82509425D01*
X238746592Y-82383315D01*
X238746591Y-82383314D01*
X238746589Y-82383312D01*
X238620485Y-82286549D01*
X238620478Y-82286545D01*
X238473625Y-82225717D01*
X238316031Y-82204970D01*
X238316025Y-82204970D01*
X238158430Y-82225717D01*
X238011578Y-82286545D01*
X238011571Y-82286549D01*
X237885467Y-82383312D01*
X237885461Y-82383318D01*
X237788698Y-82509422D01*
X237788694Y-82509429D01*
X237727866Y-82656281D01*
X237707119Y-82813875D01*
X237707119Y-82813882D01*
X223989618Y-82813882D01*
X223375739Y-82200003D01*
X227291091Y-82200003D01*
X227311838Y-82357597D01*
X227372666Y-82504450D01*
X227372670Y-82504457D01*
X227469433Y-82630561D01*
X227469438Y-82630566D01*
X227595542Y-82727329D01*
X227595549Y-82727333D01*
X227742402Y-82788161D01*
X227899997Y-82808909D01*
X227900000Y-82808909D01*
X227900003Y-82808909D01*
X228057597Y-82788161D01*
X228157148Y-82746926D01*
X228204455Y-82727331D01*
X228330564Y-82630564D01*
X228427331Y-82504455D01*
X228488161Y-82357597D01*
X228505523Y-82225718D01*
X228508909Y-82200003D01*
X228508909Y-82199996D01*
X228488161Y-82042402D01*
X228427333Y-81895550D01*
X228427332Y-81895548D01*
X228427331Y-81895547D01*
X228427331Y-81895546D01*
X228330564Y-81769436D01*
X228330563Y-81769435D01*
X228330561Y-81769433D01*
X228204457Y-81672670D01*
X228204450Y-81672666D01*
X228057597Y-81611838D01*
X227900003Y-81591091D01*
X227899997Y-81591091D01*
X227742402Y-81611838D01*
X227595550Y-81672666D01*
X227595543Y-81672670D01*
X227469439Y-81769433D01*
X227469433Y-81769439D01*
X227372670Y-81895543D01*
X227372666Y-81895550D01*
X227311838Y-82042402D01*
X227291091Y-82199996D01*
X227291091Y-82200003D01*
X223375739Y-82200003D01*
X223235162Y-82059426D01*
X223206938Y-82004031D01*
X223205699Y-81988306D01*
X223205699Y-80060847D01*
X227584691Y-80060847D01*
X227605438Y-80218441D01*
X227666266Y-80365294D01*
X227666270Y-80365301D01*
X227763033Y-80491405D01*
X227763038Y-80491410D01*
X227889142Y-80588173D01*
X227889149Y-80588177D01*
X228036002Y-80649005D01*
X228193597Y-80669753D01*
X228193600Y-80669753D01*
X228193603Y-80669753D01*
X228351197Y-80649005D01*
X228498050Y-80588177D01*
X228498049Y-80588177D01*
X228498055Y-80588175D01*
X228624164Y-80491408D01*
X228720931Y-80365299D01*
X228781761Y-80218441D01*
X228802509Y-80060844D01*
X228802509Y-80060840D01*
X228802504Y-80060803D01*
X236373091Y-80060803D01*
X236393838Y-80218397D01*
X236454666Y-80365250D01*
X236454670Y-80365257D01*
X236551433Y-80491361D01*
X236551438Y-80491366D01*
X236677542Y-80588129D01*
X236677549Y-80588133D01*
X236824402Y-80648961D01*
X236981997Y-80669709D01*
X236982000Y-80669709D01*
X236982003Y-80669709D01*
X237139597Y-80648961D01*
X237286349Y-80588175D01*
X237286455Y-80588131D01*
X237412564Y-80491364D01*
X237509331Y-80365255D01*
X237570161Y-80218397D01*
X237590903Y-80060847D01*
X237590909Y-80060803D01*
X237590909Y-80060796D01*
X237570161Y-79903202D01*
X237509333Y-79756350D01*
X237509332Y-79756348D01*
X237509331Y-79756347D01*
X237509331Y-79756346D01*
X237412564Y-79630236D01*
X237412563Y-79630235D01*
X237412561Y-79630233D01*
X237286457Y-79533470D01*
X237286450Y-79533466D01*
X237139597Y-79472638D01*
X236982003Y-79451891D01*
X236981997Y-79451891D01*
X236824402Y-79472638D01*
X236677550Y-79533466D01*
X236677543Y-79533470D01*
X236551439Y-79630233D01*
X236551433Y-79630239D01*
X236454670Y-79756343D01*
X236454666Y-79756350D01*
X236393838Y-79903202D01*
X236373091Y-80060796D01*
X236373091Y-80060803D01*
X228802504Y-80060803D01*
X228781761Y-79903246D01*
X228720933Y-79756394D01*
X228720932Y-79756392D01*
X228720931Y-79756391D01*
X228720931Y-79756390D01*
X228624164Y-79630280D01*
X228624163Y-79630279D01*
X228624161Y-79630277D01*
X228498057Y-79533514D01*
X228498050Y-79533510D01*
X228351197Y-79472682D01*
X228193603Y-79451935D01*
X228193597Y-79451935D01*
X228036002Y-79472682D01*
X227889150Y-79533510D01*
X227889143Y-79533514D01*
X227763039Y-79630277D01*
X227763033Y-79630283D01*
X227666270Y-79756387D01*
X227666266Y-79756394D01*
X227605438Y-79903246D01*
X227584691Y-80060840D01*
X227584691Y-80060847D01*
X223205699Y-80060847D01*
X223205699Y-77054300D01*
X223224913Y-76995169D01*
X223275213Y-76958624D01*
X223306300Y-76953700D01*
X228945700Y-76953700D01*
X229004831Y-76972913D01*
X229041376Y-77023213D01*
X229046300Y-77054300D01*
X229046300Y-77892737D01*
X229044150Y-77977591D01*
X229054522Y-78035464D01*
X229055053Y-78039250D01*
X229061004Y-78097766D01*
X229070973Y-78129543D01*
X229072491Y-78135729D01*
X229078367Y-78168505D01*
X229078368Y-78168510D01*
X229100183Y-78223125D01*
X229101465Y-78226726D01*
X229119070Y-78282835D01*
X229119070Y-78282836D01*
X229135233Y-78311956D01*
X229137963Y-78317704D01*
X229150319Y-78348636D01*
X229150322Y-78348643D01*
X229182680Y-78397740D01*
X229184661Y-78401010D01*
X229189682Y-78410055D01*
X229213201Y-78452428D01*
X229213202Y-78452430D01*
X229223398Y-78464306D01*
X229234895Y-78477699D01*
X229238726Y-78482780D01*
X229257056Y-78510591D01*
X229277589Y-78531124D01*
X229298643Y-78552179D01*
X229301242Y-78554983D01*
X229339541Y-78599596D01*
X229339548Y-78599602D01*
X229365872Y-78619979D01*
X229370655Y-78624191D01*
X229433026Y-78686562D01*
X229433034Y-78686569D01*
X229545680Y-78778419D01*
X229545682Y-78778420D01*
X229603386Y-78808562D01*
X229717601Y-78868223D01*
X229717602Y-78868224D01*
X229830123Y-78900420D01*
X229904080Y-78921582D01*
X230097484Y-78936310D01*
X230289894Y-78911805D01*
X230473431Y-78849070D01*
X230640584Y-78750673D01*
X230784507Y-78620643D01*
X230899310Y-78464302D01*
X230980292Y-78288053D01*
X231024137Y-78099110D01*
X231029050Y-77905209D01*
X230998674Y-77735734D01*
X230994832Y-77714293D01*
X230994831Y-77714292D01*
X230994831Y-77714288D01*
X230975633Y-77666226D01*
X230960878Y-77629288D01*
X230953700Y-77591970D01*
X230953700Y-77054300D01*
X230972913Y-76995169D01*
X231023213Y-76958624D01*
X231054300Y-76953700D01*
X233445700Y-76953700D01*
X233504831Y-76972913D01*
X233541376Y-77023213D01*
X233546300Y-77054300D01*
X233546300Y-77987937D01*
X233544150Y-78072791D01*
X233554522Y-78130664D01*
X233555053Y-78134450D01*
X233561004Y-78192966D01*
X233570973Y-78224743D01*
X233572491Y-78230929D01*
X233578367Y-78263705D01*
X233578368Y-78263710D01*
X233600183Y-78318325D01*
X233601465Y-78321926D01*
X233619070Y-78378035D01*
X233619070Y-78378036D01*
X233635233Y-78407156D01*
X233637963Y-78412904D01*
X233650319Y-78443836D01*
X233650322Y-78443843D01*
X233682680Y-78492940D01*
X233684661Y-78496210D01*
X233699410Y-78522781D01*
X233713201Y-78547628D01*
X233713202Y-78547629D01*
X233734891Y-78572894D01*
X233738728Y-78577983D01*
X233744214Y-78586306D01*
X233757056Y-78605791D01*
X233798656Y-78647392D01*
X233801221Y-78650159D01*
X233839544Y-78694799D01*
X233865878Y-78715183D01*
X233870655Y-78719391D01*
X233959826Y-78808562D01*
X233959834Y-78808569D01*
X234072480Y-78900419D01*
X234072482Y-78900420D01*
X234112991Y-78921580D01*
X234244401Y-78990223D01*
X234244402Y-78990224D01*
X234348815Y-79020100D01*
X234430880Y-79043582D01*
X234624284Y-79058310D01*
X234816694Y-79033805D01*
X235000231Y-78971070D01*
X235167384Y-78872673D01*
X235311307Y-78742643D01*
X235426110Y-78586303D01*
X235507092Y-78410053D01*
X235550937Y-78221110D01*
X235555850Y-78027209D01*
X235521631Y-77836288D01*
X235460877Y-77684193D01*
X235453700Y-77646876D01*
X235453700Y-77054300D01*
X235472913Y-76995169D01*
X235523213Y-76958624D01*
X235554300Y-76953700D01*
X237966238Y-76953700D01*
X238025369Y-76972913D01*
X238037373Y-76983165D01*
X238346665Y-77292458D01*
X238374552Y-77345843D01*
X238376361Y-77355937D01*
X238376892Y-77359724D01*
X238382843Y-77418238D01*
X238392812Y-77450015D01*
X238394330Y-77456201D01*
X238400206Y-77488977D01*
X238400207Y-77488982D01*
X238422022Y-77543597D01*
X238423304Y-77547198D01*
X238440909Y-77603307D01*
X238440909Y-77603308D01*
X238457072Y-77632428D01*
X238459802Y-77638176D01*
X238472158Y-77669108D01*
X238472161Y-77669115D01*
X238504519Y-77718212D01*
X238506500Y-77721482D01*
X238511725Y-77730895D01*
X238535040Y-77772900D01*
X238535041Y-77772902D01*
X238546353Y-77786078D01*
X238556734Y-77798171D01*
X238560565Y-77803252D01*
X238578895Y-77831063D01*
X238613242Y-77865410D01*
X238620480Y-77872648D01*
X238623072Y-77875444D01*
X238661383Y-77920071D01*
X238674026Y-77929857D01*
X238687713Y-77940452D01*
X238692496Y-77944665D01*
X239059787Y-78311956D01*
X239401878Y-78654047D01*
X239460350Y-78715559D01*
X239465856Y-78719391D01*
X239508611Y-78749151D01*
X239511663Y-78751452D01*
X239557242Y-78788616D01*
X239557246Y-78788619D01*
X239583761Y-78802468D01*
X239586771Y-78804041D01*
X239592223Y-78807345D01*
X239619543Y-78826361D01*
X239619544Y-78826361D01*
X239619548Y-78826364D01*
X239673601Y-78849559D01*
X239677034Y-78851190D01*
X239690789Y-78858375D01*
X239729169Y-78878423D01*
X239761189Y-78887584D01*
X239767173Y-78889715D01*
X239797792Y-78902855D01*
X239855407Y-78914694D01*
X239859105Y-78915602D01*
X239898757Y-78926949D01*
X239950320Y-78961687D01*
X239971617Y-79020100D01*
X239964023Y-79062163D01*
X239934727Y-79132890D01*
X239913980Y-79290482D01*
X239913980Y-79290489D01*
X239934727Y-79448083D01*
X239995555Y-79594936D01*
X239995559Y-79594943D01*
X240092322Y-79721047D01*
X240092327Y-79721052D01*
X240218431Y-79817815D01*
X240218438Y-79817819D01*
X240365291Y-79878647D01*
X240522886Y-79899395D01*
X240522889Y-79899395D01*
X240522892Y-79899395D01*
X240641086Y-79883834D01*
X240680486Y-79878647D01*
X240799039Y-79829540D01*
X240861021Y-79824663D01*
X240914034Y-79857148D01*
X240932729Y-79889944D01*
X240936925Y-79902220D01*
X240936927Y-79902225D01*
X240936930Y-79902232D01*
X240981342Y-79977678D01*
X241035326Y-80069385D01*
X241165356Y-80213307D01*
X241165357Y-80213308D01*
X241321697Y-80328110D01*
X241497946Y-80409092D01*
X241686890Y-80452937D01*
X241880791Y-80457850D01*
X242071712Y-80423631D01*
X242251837Y-80351681D01*
X242413791Y-80244944D01*
X242568228Y-80090506D01*
X242629759Y-80032017D01*
X242663353Y-79983749D01*
X242665647Y-79980708D01*
X242675773Y-79968288D01*
X242702819Y-79935121D01*
X242718244Y-79905588D01*
X242721536Y-79900155D01*
X242740564Y-79872819D01*
X242763768Y-79818746D01*
X242765377Y-79815357D01*
X242792624Y-79763198D01*
X242801789Y-79731164D01*
X242803915Y-79725191D01*
X242817055Y-79694575D01*
X242828894Y-79636962D01*
X242829798Y-79633276D01*
X242845983Y-79576719D01*
X242848512Y-79543502D01*
X242849397Y-79537198D01*
X242850164Y-79533466D01*
X242856100Y-79504582D01*
X242856100Y-79445774D01*
X242856245Y-79441954D01*
X242856685Y-79436171D01*
X242860710Y-79383316D01*
X242856502Y-79350279D01*
X242856100Y-79343925D01*
X242856100Y-78072590D01*
X242856099Y-78072590D01*
X242858250Y-77987737D01*
X242847876Y-77929857D01*
X242847346Y-77926085D01*
X242841395Y-77867560D01*
X242831421Y-77835772D01*
X242829907Y-77829603D01*
X242824031Y-77796816D01*
X242802206Y-77742179D01*
X242800934Y-77738604D01*
X242783329Y-77682491D01*
X242767167Y-77653373D01*
X242764433Y-77647616D01*
X242752081Y-77616691D01*
X242752078Y-77616686D01*
X242752077Y-77616684D01*
X242719721Y-77567590D01*
X242717740Y-77564320D01*
X242704106Y-77539758D01*
X242689199Y-77512900D01*
X242667501Y-77487625D01*
X242663666Y-77482538D01*
X242645344Y-77454737D01*
X242603756Y-77413149D01*
X242601165Y-77410354D01*
X242562856Y-77365729D01*
X242536520Y-77345343D01*
X242531740Y-77341133D01*
X242189233Y-76998625D01*
X242187491Y-76996792D01*
X242139536Y-76943714D01*
X242081884Y-76901379D01*
X242079873Y-76899823D01*
X242024413Y-76854601D01*
X242009613Y-76846870D01*
X241996652Y-76838792D01*
X241995797Y-76838164D01*
X241983196Y-76828911D01*
X241918174Y-76799034D01*
X241915919Y-76797928D01*
X241852490Y-76764797D01*
X241852484Y-76764794D01*
X241836447Y-76760206D01*
X241822119Y-76754900D01*
X241806948Y-76747929D01*
X241737241Y-76731753D01*
X241734787Y-76731117D01*
X241702245Y-76721806D01*
X241666009Y-76711437D01*
X241666011Y-76711437D01*
X241649363Y-76710169D01*
X241634270Y-76707857D01*
X241618004Y-76704083D01*
X241618009Y-76704083D01*
X241546480Y-76702269D01*
X241543937Y-76702140D01*
X241472606Y-76696709D01*
X241472601Y-76696710D01*
X241456046Y-76698818D01*
X241440797Y-76699592D01*
X241424101Y-76699169D01*
X241353694Y-76711789D01*
X241351176Y-76712175D01*
X241337884Y-76713868D01*
X241276799Y-76702280D01*
X241234191Y-76657001D01*
X241225434Y-76627204D01*
X241212400Y-76528203D01*
X241151572Y-76381350D01*
X241151571Y-76381348D01*
X241151570Y-76381347D01*
X241151570Y-76381346D01*
X241054803Y-76255236D01*
X241054802Y-76255235D01*
X241054800Y-76255233D01*
X240928696Y-76158470D01*
X240928689Y-76158466D01*
X240781836Y-76097638D01*
X240624242Y-76076891D01*
X240624236Y-76076891D01*
X240466641Y-76097638D01*
X240319789Y-76158466D01*
X240319787Y-76158467D01*
X240193674Y-76255236D01*
X240193673Y-76255237D01*
X240182419Y-76269904D01*
X240131179Y-76305119D01*
X240069026Y-76303490D01*
X240031474Y-76279796D01*
X240023195Y-76271517D01*
X240020606Y-76268724D01*
X239982295Y-76224097D01*
X239955959Y-76203711D01*
X239951179Y-76199501D01*
X239085830Y-75334151D01*
X239027360Y-75272641D01*
X238979096Y-75239047D01*
X238976045Y-75236746D01*
X238930468Y-75199583D01*
X238930464Y-75199581D01*
X238900945Y-75184162D01*
X238895493Y-75180859D01*
X238889673Y-75176808D01*
X238868162Y-75161836D01*
X238814114Y-75138642D01*
X238810672Y-75137007D01*
X238786009Y-75124125D01*
X238758538Y-75109775D01*
X238726526Y-75100616D01*
X238720523Y-75098478D01*
X238689918Y-75085345D01*
X238689917Y-75085345D01*
X238632310Y-75073505D01*
X238628604Y-75072596D01*
X238596294Y-75063351D01*
X238572062Y-75056418D01*
X238572060Y-75056417D01*
X238572058Y-75056417D01*
X238538857Y-75053888D01*
X238532547Y-75053003D01*
X238499927Y-75046300D01*
X238499925Y-75046300D01*
X238441115Y-75046300D01*
X238437295Y-75046155D01*
X238378662Y-75041690D01*
X238378655Y-75041690D01*
X238355506Y-75044638D01*
X238345624Y-75045897D01*
X238339268Y-75046300D01*
X234525446Y-75046300D01*
X234522898Y-75046235D01*
X234451449Y-75042612D01*
X234451442Y-75042612D01*
X234434944Y-75045140D01*
X234419712Y-75046300D01*
X230025446Y-75046300D01*
X230022898Y-75046235D01*
X229951449Y-75042612D01*
X229951442Y-75042612D01*
X229934944Y-75045140D01*
X229919712Y-75046300D01*
X221738172Y-75046300D01*
X221734352Y-75046155D01*
X221675719Y-75041690D01*
X221675712Y-75041690D01*
X221652563Y-75044638D01*
X221642681Y-75045897D01*
X221636325Y-75046300D01*
X212073634Y-75046300D01*
X212078000Y-73300003D01*
X229391091Y-73300003D01*
X229411838Y-73457597D01*
X229472666Y-73604450D01*
X229472670Y-73604457D01*
X229569433Y-73730561D01*
X229569438Y-73730566D01*
X229695542Y-73827329D01*
X229695549Y-73827333D01*
X229842402Y-73888161D01*
X229999997Y-73908909D01*
X230000000Y-73908909D01*
X230000003Y-73908909D01*
X230157597Y-73888161D01*
X230304450Y-73827333D01*
X230304449Y-73827333D01*
X230304455Y-73827331D01*
X230430564Y-73730564D01*
X230527331Y-73604455D01*
X230588161Y-73457597D01*
X230608909Y-73300003D01*
X233491091Y-73300003D01*
X233511838Y-73457597D01*
X233572666Y-73604450D01*
X233572670Y-73604457D01*
X233669433Y-73730561D01*
X233669438Y-73730566D01*
X233795542Y-73827329D01*
X233795549Y-73827333D01*
X233942402Y-73888161D01*
X234099997Y-73908909D01*
X234100000Y-73908909D01*
X234100003Y-73908909D01*
X234257597Y-73888161D01*
X234404450Y-73827333D01*
X234404449Y-73827333D01*
X234404455Y-73827331D01*
X234530564Y-73730564D01*
X234627331Y-73604455D01*
X234688161Y-73457597D01*
X234708909Y-73300000D01*
X234708909Y-73299996D01*
X234688161Y-73142402D01*
X234627333Y-72995550D01*
X234627332Y-72995548D01*
X234627331Y-72995547D01*
X234627331Y-72995546D01*
X234530564Y-72869436D01*
X234530563Y-72869435D01*
X234530561Y-72869433D01*
X234404457Y-72772670D01*
X234404450Y-72772666D01*
X234257597Y-72711838D01*
X234100003Y-72691091D01*
X234099997Y-72691091D01*
X233942402Y-72711838D01*
X233795550Y-72772666D01*
X233795543Y-72772670D01*
X233669439Y-72869433D01*
X233669433Y-72869439D01*
X233572670Y-72995543D01*
X233572666Y-72995550D01*
X233511838Y-73142402D01*
X233491091Y-73299996D01*
X233491091Y-73300003D01*
X230608909Y-73300003D01*
X230608909Y-73300000D01*
X230608909Y-73299996D01*
X230588161Y-73142402D01*
X230527333Y-72995550D01*
X230527332Y-72995548D01*
X230527331Y-72995547D01*
X230527331Y-72995546D01*
X230430564Y-72869436D01*
X230430563Y-72869435D01*
X230430561Y-72869433D01*
X230304457Y-72772670D01*
X230304450Y-72772666D01*
X230157597Y-72711838D01*
X230000003Y-72691091D01*
X229999997Y-72691091D01*
X229842402Y-72711838D01*
X229695550Y-72772666D01*
X229695543Y-72772670D01*
X229569439Y-72869433D01*
X229569433Y-72869439D01*
X229472670Y-72995543D01*
X229472666Y-72995550D01*
X229411838Y-73142402D01*
X229391091Y-73299996D01*
X229391091Y-73300003D01*
X212078000Y-73300003D01*
X212091250Y-68000000D01*
X212491210Y-68000000D01*
X212511553Y-68349293D01*
X212572312Y-68693876D01*
X212672663Y-69029072D01*
X212811243Y-69350334D01*
X212811253Y-69350353D01*
X212986190Y-69653353D01*
X213195134Y-69934014D01*
X213435249Y-70188521D01*
X213703267Y-70413414D01*
X213703271Y-70413416D01*
X213703275Y-70413420D01*
X213995605Y-70605689D01*
X214308279Y-70762719D01*
X214308286Y-70762721D01*
X214308287Y-70762722D01*
X214637060Y-70882386D01*
X214637062Y-70882386D01*
X214637069Y-70882389D01*
X214977529Y-70963080D01*
X215151291Y-70983390D01*
X215325052Y-71003700D01*
X215325054Y-71003700D01*
X215674948Y-71003700D01*
X215813955Y-70987452D01*
X216022471Y-70963080D01*
X216362931Y-70882389D01*
X216691721Y-70762719D01*
X217004395Y-70605689D01*
X217296725Y-70413420D01*
X217564757Y-70188515D01*
X217804867Y-69934013D01*
X218013807Y-69653357D01*
X218188753Y-69350342D01*
X218327338Y-69029067D01*
X218427688Y-68693875D01*
X218488446Y-68349299D01*
X218508790Y-68000000D01*
X218488446Y-67650701D01*
X218427688Y-67306125D01*
X218327338Y-66970933D01*
X218327337Y-66970931D01*
X218327336Y-66970927D01*
X218188756Y-66649665D01*
X218188753Y-66649658D01*
X218013807Y-66346643D01*
X217804867Y-66065987D01*
X217564757Y-65811485D01*
X217564755Y-65811483D01*
X217564750Y-65811478D01*
X217296732Y-65586585D01*
X217296726Y-65586581D01*
X217296725Y-65586580D01*
X217004395Y-65394311D01*
X216691721Y-65237281D01*
X216691717Y-65237279D01*
X216691714Y-65237278D01*
X216691712Y-65237277D01*
X216362939Y-65117613D01*
X216362923Y-65117609D01*
X216022477Y-65036921D01*
X216022468Y-65036919D01*
X215674948Y-64996300D01*
X215674946Y-64996300D01*
X215325054Y-64996300D01*
X215325052Y-64996300D01*
X214977531Y-65036919D01*
X214977522Y-65036921D01*
X214637076Y-65117609D01*
X214637060Y-65117613D01*
X214308287Y-65237277D01*
X214308285Y-65237278D01*
X213995602Y-65394312D01*
X213703276Y-65586579D01*
X213703267Y-65586585D01*
X213435249Y-65811478D01*
X213195134Y-66065985D01*
X212986190Y-66346646D01*
X212811253Y-66649646D01*
X212811243Y-66649665D01*
X212672663Y-66970927D01*
X212572312Y-67306123D01*
X212511553Y-67650706D01*
X212491210Y-68000000D01*
X212091250Y-68000000D01*
X212100000Y-64500000D01*
X227046239Y-64500000D01*
X231866835Y-69320596D01*
G37*
G04 #@! TD.AperFunction*
M02*
