M48
; DRILL file {KiCad 7.0.7-7.0.7~ubuntu22.04.1} date Fri 22 Dec 2023 20:45:26 CET
; FORMAT={-:-/ absolute / metric / decimal}
; #@! TF.CreationDate,2023-12-22T20:45:26+01:00
; #@! TF.GenerationSoftware,Kicad,Pcbnew,7.0.7-7.0.7~ubuntu22.04.1
; #@! TF.FileFunction,Plated,1,4,PTH
FMAT,2
METRIC
; #@! TA.AperFunction,Plated,PTH,ComponentDrill
T1C0.300
; #@! TA.AperFunction,Plated,PTH,ViaDrill
T2C0.400
; #@! TA.AperFunction,Plated,PTH,ComponentDrill
T3C0.500
; #@! TA.AperFunction,Plated,PTH,ComponentDrill
T4C0.650
; #@! TA.AperFunction,Plated,PTH,ComponentDrill
T5C0.700
; #@! TA.AperFunction,Plated,PTH,ComponentDrill
T6C1.020
; #@! TA.AperFunction,Plated,PTH,ComponentDrill
T7C1.600
; #@! TA.AperFunction,Plated,PTH,ComponentDrill
T8C3.200
%
G90
G05
T1
X119.707Y-81.505
X119.707Y-82.505
X119.707Y-83.505
X120.707Y-81.505
X120.707Y-82.505
X120.707Y-83.505
X121.707Y-81.505
X121.707Y-82.505
X121.707Y-83.505
T2
X93.75Y-88.19
X93.875Y-91.09
X94.15Y-94.29
X94.25Y-99.59
X96.85Y-91.19
X97.05Y-79.09
X97.25Y-84.19
X102.9Y-96.7
X105.75Y-107.125
X105.75Y-108.125
X106.75Y-107.125
X106.75Y-108.125
X107.4Y-96.7
X107.75Y-107.125
X107.75Y-108.125
X108.5Y-92.0
X108.5Y-93.0
X108.75Y-107.125
X108.75Y-108.125
X109.5Y-92.0
X109.5Y-93.0
X109.535Y-87.865
X109.75Y-107.125
X109.75Y-108.125
X110.5Y-92.0
X110.5Y-93.0
X110.75Y-107.125
X110.75Y-108.125
X111.5Y-92.0
X111.5Y-93.0
X111.75Y-107.125
X111.75Y-108.125
X112.5Y-92.0
X112.5Y-93.0
X112.75Y-107.125
X112.75Y-108.125
X113.352Y-77.217
X113.5Y-92.0
X113.5Y-93.0
X113.75Y-107.125
X113.75Y-108.125
X113.866Y-82.701
X114.094Y-76.474
X114.5Y-92.0
X114.5Y-93.0
X114.75Y-107.125
X114.75Y-108.125
X114.83Y-79.98
X117.127Y-83.327
X117.175Y-80.35
X117.175Y-81.375
X117.242Y-84.469
X118.47Y-85.405
X119.845Y-73.53
X119.97Y-85.805
X120.982Y-88.923
X121.25Y-99.25
X121.5Y-92.5
X121.5Y-138.8
X121.8Y-140.7
X122.022Y-79.204
X122.17Y-85.903
X122.25Y-105.25
X122.5Y-93.5
X122.55Y-149.85
X122.55Y-152.05
X122.75Y-91.0
X122.75Y-92.0
X122.75Y-108.0
X122.75Y-109.0
X122.97Y-75.405
X123.0Y-136.9
X123.27Y-163.43
X123.278Y-153.828
X123.5Y-140.7
X123.75Y-91.0
X123.75Y-92.0
X123.75Y-108.0
X123.75Y-109.0
X123.87Y-85.005
X124.1Y-137.95
X124.2Y-134.4
X124.225Y-166.9
X124.37Y-83.87
X124.431Y-154.06
X124.462Y-150.211
X124.75Y-91.0
X124.75Y-92.0
X124.75Y-108.0
X124.75Y-109.0
X124.85Y-163.38
X125.178Y-148.324
X125.232Y-140.768
X125.25Y-155.7
X125.5Y-143.0
X125.5Y-146.0
X125.5Y-158.0
X125.5Y-161.0
X125.75Y-91.0
X125.75Y-92.0
X125.75Y-108.0
X125.75Y-109.0
X125.902Y-163.388
X126.075Y-166.05
X126.4Y-130.6
X126.5Y-143.0
X126.5Y-146.0
X126.5Y-158.0
X126.5Y-161.0
X126.595Y-148.362
X126.623Y-151.892
X126.75Y-91.0
X126.75Y-92.0
X126.75Y-108.0
X126.75Y-109.0
X126.75Y-155.5
X126.912Y-83.853
X127.4Y-136.661
X127.5Y-143.0
X127.5Y-144.0
X127.5Y-145.0
X127.5Y-146.0
X127.5Y-158.0
X127.5Y-159.0
X127.5Y-160.0
X127.5Y-161.0
X127.535Y-82.483
X127.598Y-165.018
X127.75Y-91.0
X127.75Y-92.0
X127.75Y-106.75
X127.75Y-108.0
X127.75Y-109.0
X127.821Y-134.496
X128.0Y-94.5
X128.114Y-154.098
X128.18Y-138.531
X128.5Y-143.0
X128.5Y-144.0
X128.5Y-145.0
X128.5Y-146.0
X128.5Y-158.0
X128.5Y-159.0
X128.5Y-160.0
X128.5Y-161.0
X128.921Y-136.815
X129.175Y-167.7
X129.36Y-86.85
X129.7Y-127.7
X129.94Y-140.44
X130.011Y-79.05
X130.011Y-80.1
X130.278Y-149.762
X130.37Y-138.38
X130.5Y-143.0
X130.5Y-144.0
X130.5Y-145.0
X130.5Y-146.0
X130.5Y-158.0
X130.5Y-159.0
X130.5Y-160.0
X130.5Y-161.0
X130.611Y-163.831
X130.694Y-151.282
X130.8Y-127.952
X130.985Y-152.189
X131.5Y-140.6
X131.5Y-143.0
X131.5Y-144.0
X131.5Y-145.0
X131.5Y-146.0
X131.5Y-158.0
X131.5Y-159.0
X131.5Y-160.0
X131.5Y-161.0
X131.798Y-163.875
X131.9Y-128.548
X132.246Y-141.243
X132.493Y-158.021
X132.5Y-143.0
X132.5Y-144.0
X132.5Y-145.0
X132.5Y-146.0
X132.5Y-159.0
X132.5Y-160.0
X132.5Y-161.0
X132.54Y-156.62
X132.74Y-162.702
X132.822Y-154.742
X134.2Y-78.68
X134.5Y-151.7
X134.592Y-152.67
X134.8Y-132.5
X134.8Y-133.5
X134.8Y-134.5
X135.2Y-79.379
X135.5Y-151.7
X135.5Y-152.7
X135.8Y-132.5
X135.8Y-133.5
X135.8Y-134.5
X135.9Y-80.9
X137.5Y-143.0
X137.5Y-144.0
X137.5Y-145.0
X137.5Y-146.0
X137.5Y-158.0
X137.5Y-159.0
X137.5Y-160.0
X137.5Y-161.0
X137.54Y-147.71
X137.9Y-81.1
X138.003Y-156.46
X138.1Y-141.25
X138.16Y-162.755
X138.5Y-143.0
X138.5Y-144.0
X138.5Y-145.0
X138.5Y-146.0
X138.5Y-158.0
X138.5Y-159.0
X138.5Y-160.0
X138.5Y-161.0
X138.5Y-163.8
X138.96Y-153.355
X138.99Y-140.6
X139.149Y-152.337
X139.49Y-151.052
X139.5Y-143.0
X139.5Y-144.0
X139.5Y-145.0
X139.5Y-146.0
X139.5Y-158.0
X139.5Y-159.0
X139.5Y-160.0
X139.5Y-161.0
X139.5Y-163.875
X140.21Y-148.907
X140.31Y-138.88
X140.5Y-97.5
X140.5Y-98.5
X140.5Y-99.5
X140.5Y-100.5
X140.5Y-101.5
X140.5Y-102.5
X140.5Y-107.1
X140.5Y-108.1
X140.5Y-109.1
X140.8Y-167.825
X140.9Y-87.4
X141.0Y-137.0
X141.4Y-158.0
X141.4Y-159.0
X141.4Y-160.0
X141.4Y-161.0
X141.5Y-97.5
X141.5Y-98.5
X141.5Y-99.5
X141.5Y-100.5
X141.5Y-101.5
X141.5Y-102.5
X141.5Y-107.1
X141.5Y-108.1
X141.5Y-109.1
X141.5Y-143.0
X141.5Y-144.0
X141.5Y-145.0
X141.5Y-146.0
X141.6Y-86.4
X141.78Y-149.834
X141.9Y-70.7
X142.118Y-140.394
X142.4Y-158.0
X142.4Y-159.0
X142.4Y-160.0
X142.4Y-161.0
X142.5Y-143.0
X142.5Y-144.0
X142.5Y-145.0
X142.5Y-146.0
X142.732Y-94.441
X142.75Y-104.0
X142.75Y-166.0
X143.291Y-148.647
X143.4Y-158.0
X143.4Y-161.0
X143.5Y-143.0
X143.5Y-146.0
X143.545Y-149.647
X143.65Y-140.7
X143.698Y-155.57
X143.782Y-94.441
X143.795Y-104.0
X143.866Y-163.483
X144.24Y-158.072
X144.24Y-161.065
X144.3Y-86.55
X144.5Y-143.0
X144.5Y-146.0
X144.75Y-148.22
X144.75Y-155.78
X144.919Y-163.5
X145.0Y-140.6
X145.17Y-73.62
X145.3Y-132.5
X145.3Y-133.5
X145.3Y-134.5
X145.4Y-77.941
X145.5Y-110.5
X145.5Y-111.5
X145.5Y-112.5
X145.5Y-113.5
X145.577Y-154.068
X145.748Y-150.148
X145.75Y-166.85
X146.109Y-137.879
X146.28Y-132.5
X146.28Y-133.5
X146.28Y-134.5
X146.3Y-163.5
X146.5Y-110.5
X146.5Y-111.5
X146.5Y-112.5
X146.5Y-113.5
X146.6Y-87.0
X146.7Y-140.6
X146.863Y-150.521
X146.9Y-76.625
X147.35Y-152.1
X147.37Y-154.42
X147.5Y-110.5
X147.5Y-111.5
X147.5Y-112.5
X147.5Y-113.5
X147.8Y-136.4
X148.4Y-129.7
X148.493Y-153.341
X148.5Y-89.1
X148.5Y-110.5
X148.5Y-111.5
X148.5Y-112.5
X148.5Y-113.5
X148.833Y-78.921
X149.3Y-149.4
X149.34Y-77.98
X149.5Y-110.5
X149.5Y-111.5
X149.5Y-112.5
X149.5Y-113.5
X149.5Y-154.0
X150.2Y-78.4
X150.5Y-110.5
X150.5Y-111.5
X150.5Y-112.5
X150.5Y-113.5
X151.3Y-78.1
X151.5Y-110.5
X151.5Y-111.5
X151.5Y-112.5
X151.5Y-113.5
X151.6Y-82.75
X151.804Y-81.171
X152.3Y-83.65
X152.3Y-102.3
X152.945Y-81.099
X153.3Y-102.3
X153.4Y-79.9
X153.681Y-86.069
X155.5Y-94.0
X155.5Y-95.0
X155.5Y-96.0
X155.5Y-97.0
X155.5Y-98.0
X155.5Y-99.0
X155.5Y-100.0
X155.5Y-101.0
X155.5Y-102.0
X155.5Y-103.0
X155.5Y-104.0
X155.5Y-105.0
X155.5Y-106.0
X155.5Y-107.0
X155.5Y-108.0
X155.5Y-109.0
X155.64Y-80.4
X155.9Y-83.548
X156.5Y-94.0
X156.5Y-95.0
X156.5Y-96.0
X156.5Y-97.0
X156.5Y-98.0
X156.5Y-99.0
X156.5Y-100.0
X156.5Y-101.0
X156.5Y-102.0
X156.5Y-103.0
X156.5Y-104.0
X156.5Y-105.0
X156.5Y-106.0
X156.5Y-107.0
X156.5Y-108.0
X156.5Y-109.0
X156.7Y-86.45
X158.245Y-83.261
X159.0Y-73.479
X159.2Y-88.4
X159.4Y-92.1
X159.5Y-80.25
X159.515Y-83.415
X160.0Y-82.5
X160.626Y-94.363
X161.0Y-89.643
X161.648Y-95.585
X162.026Y-90.763
X162.949Y-93.472
X163.941Y-94.915
X164.599Y-91.758
X165.376Y-95.063
X165.42Y-78.32
X165.7Y-91.043
X165.776Y-93.472
X168.03Y-76.5
X168.826Y-95.563
X169.0Y-87.0
X170.126Y-91.163
X170.226Y-97.863
X170.27Y-83.1
X170.326Y-93.263
X171.5Y-86.9
X171.776Y-91.163
X171.776Y-97.563
X172.901Y-90.888
X173.526Y-97.663
X175.126Y-97.543
X175.926Y-90.843
X176.989Y-97.406
X177.176Y-91.043
T3
X92.6Y-73.0
X92.6Y-105.0
X92.6Y-199.0
X93.303Y-71.303
X93.303Y-74.697
X93.303Y-103.303
X93.303Y-106.697
X93.303Y-197.303
X93.303Y-200.697
X95.0Y-70.6
X95.0Y-75.4
X95.0Y-102.6
X95.0Y-107.4
X95.0Y-196.6
X95.0Y-201.4
X96.697Y-71.303
X96.697Y-74.697
X96.697Y-103.303
X96.697Y-106.697
X96.697Y-197.303
X96.697Y-200.697
X97.4Y-73.0
X97.4Y-105.0
X97.4Y-199.0
X173.6Y-73.0
X173.6Y-105.0
X173.6Y-199.0
X174.303Y-71.303
X174.303Y-74.697
X174.303Y-103.303
X174.303Y-106.697
X174.303Y-197.303
X174.303Y-200.697
X176.0Y-70.6
X176.0Y-75.4
X176.0Y-102.6
X176.0Y-107.4
X176.0Y-196.6
X176.0Y-201.4
X177.697Y-71.303
X177.697Y-74.697
X177.697Y-103.303
X177.697Y-106.697
X177.697Y-197.303
X177.697Y-200.697
X178.4Y-73.0
X178.4Y-105.0
X178.4Y-199.0
T4
X163.525Y-101.1
X164.795Y-101.1
X166.065Y-101.1
X167.335Y-101.1
X168.605Y-101.1
X169.875Y-101.1
T6
X161.3Y-73.4
X163.84Y-73.4
X166.38Y-73.4
X168.92Y-73.4
T7
X100.3Y-80.2
X105.0Y-77.2
X105.0Y-83.2
T8
X95.0Y-73.0
X95.0Y-105.0
X95.0Y-199.0
X176.0Y-73.0
X176.0Y-105.0
X176.0Y-199.0
T4
X134.192Y-73.597G85X134.192Y-73.998
G05
X139.032Y-73.597G85X139.032Y-73.998
G05
T5
X133.882Y-70.547G85X133.882Y-71.047
G05
X139.343Y-70.547G85X139.343Y-71.047
G05
T0
M30
