M48
; DRILL file {KiCad 7.0.7-7.0.7~ubuntu22.04.1} date Mo 13 Nov 2023 10:42:32 CET
; FORMAT={-:-/ absolute / metric / decimal}
; #@! TF.CreationDate,2023-11-13T10:42:32+01:00
; #@! TF.GenerationSoftware,Kicad,Pcbnew,7.0.7-7.0.7~ubuntu22.04.1
; #@! TF.FileFunction,Plated,1,4,PTH
FMAT,2
METRIC
; #@! TA.AperFunction,Plated,PTH,ComponentDrill
T1C0.300
; #@! TA.AperFunction,Plated,PTH,ViaDrill
T2C0.400
; #@! TA.AperFunction,Plated,PTH,ViaDrill
T3C0.500
; #@! TA.AperFunction,Plated,PTH,ComponentDrill
T4C1.000
; #@! TA.AperFunction,Plated,PTH,ComponentDrill
T5C1.020
; #@! TA.AperFunction,Plated,PTH,ComponentDrill
T6C1.600
; #@! TA.AperFunction,Plated,PTH,ComponentDrill
T7C3.200
%
G90
G05
T1
X181.842Y-72.605
X181.842Y-73.565
X182.702Y-73.085
X183.562Y-72.605
X183.562Y-73.565
T2
X175.287Y-66.35
X175.828Y-82.595
X176.394Y-80.293
X177.1Y-68.45
X177.382Y-74.328
X178.334Y-71.458
X178.8Y-64.95
X180.841Y-88.5
X180.841Y-89.5
X180.841Y-90.5
X180.841Y-91.6
X180.841Y-92.7
X180.841Y-93.721
X181.04Y-77.486
X181.967Y-75.598
X183.338Y-69.669
X183.389Y-75.598
X183.552Y-70.596
X183.659Y-64.141
X184.3Y-62.1
X184.7Y-71.61
X185.4Y-92.7
X185.4Y-93.721
X185.409Y-88.5
X185.409Y-89.5
X185.409Y-90.5
X185.409Y-91.6
X185.688Y-65.796
X185.971Y-77.701
X187.606Y-86.63
X188.1Y-105.2
X188.2Y-71.7
X188.586Y-66.786
X189.484Y-90.355
X190.382Y-62.101
X190.4Y-79.112
X191.598Y-68.4
X192.5Y-67.4
X193.407Y-69.735
X193.466Y-65.409
X193.476Y-67.752
X193.548Y-103.124
X193.907Y-63.348
X194.35Y-69.6
X195.9Y-65.67
X196.588Y-69.944
X197.022Y-67.739
X197.051Y-65.438
X197.972Y-63.377
X197.972Y-71.9
X199.1Y-70.1
X200.2Y-63.7
X200.2Y-67.6
X201.6Y-67.6
X202.384Y-71.391
X202.455Y-65.692
X202.754Y-69.061
X202.946Y-78.252
X203.3Y-63.7
X203.6Y-67.2
X204.15Y-68.85
X205.5Y-71.391
X206.137Y-65.752
X206.3Y-77.2
X207.3Y-71.7
X209.0Y-66.0
X209.3Y-67.7
X209.9Y-70.7
X211.1Y-70.9
X220.9Y-77.9
X224.028Y-84.201
X224.028Y-86.106
X226.0Y-87.547
X226.9Y-63.5
X227.711Y-84.074
X227.711Y-86.106
X227.9Y-82.2
X227.9Y-89.0
X227.914Y-81.124
X228.194Y-80.061
X228.472Y-77.89
X230.0Y-73.3
X230.073Y-77.978
X230.886Y-80.569
X230.886Y-81.89
X230.886Y-83.363
X230.922Y-73.803
X231.4Y-87.1
X231.4Y-88.0
X231.902Y-80.569
X231.902Y-81.89
X231.902Y-83.363
X232.308Y-78.892
X232.4Y-87.1
X232.4Y-88.0
X232.5Y-72.0
X232.918Y-80.569
X232.918Y-81.89
X232.918Y-83.363
X233.4Y-87.1
X233.4Y-88.0
X233.934Y-80.569
X233.934Y-81.89
X233.934Y-83.363
X234.1Y-73.3
X234.6Y-78.1
X236.205Y-77.902
X236.982Y-80.061
X237.033Y-81.026
X237.195Y-89.03
X237.236Y-85.852
X237.296Y-84.285
X238.316Y-82.814
X238.978Y-87.8
X240.523Y-79.29
X240.624Y-76.686
X240.792Y-84.201
X240.919Y-86.106
X241.808Y-79.502
X244.348Y-82.484
T3
X224.0Y-93.2
X224.0Y-96.0
X227.2Y-93.2
X227.2Y-96.0
X230.4Y-93.2
X230.4Y-96.0
X233.6Y-96.317
X233.629Y-93.2
T4
X181.737Y-58.028
X181.737Y-60.568
X184.277Y-58.028
X184.277Y-60.568
X186.817Y-58.028
X186.817Y-60.568
X189.357Y-58.028
X189.357Y-60.568
X191.897Y-58.028
X191.897Y-60.568
X194.437Y-58.028
X194.437Y-60.568
X195.72Y-74.8
X196.977Y-58.028
X196.977Y-60.568
X198.26Y-74.8
X199.517Y-58.028
X199.517Y-60.568
X200.8Y-74.8
X202.057Y-58.028
X202.057Y-60.568
X203.34Y-74.8
X204.597Y-58.028
X204.597Y-60.568
X205.88Y-74.8
X207.137Y-58.028
X207.137Y-60.568
X209.677Y-58.028
X209.677Y-60.568
X212.217Y-58.028
X212.217Y-60.568
X214.757Y-58.028
X214.757Y-60.568
X217.297Y-58.028
X217.297Y-60.568
X219.837Y-58.028
X219.837Y-60.568
X222.377Y-58.028
X222.377Y-60.568
X224.917Y-58.028
X224.917Y-60.568
X227.457Y-58.028
X227.457Y-60.568
X229.997Y-58.028
X229.997Y-60.568
T5
X200.06Y-84.3
X202.6Y-84.3
X205.14Y-84.3
X207.68Y-84.3
T6
X199.85Y-97.87
X199.85Y-103.87
X204.55Y-100.87
T7
X209.5Y-107.0
X215.5Y-68.0
X215.5Y-101.0
X248.5Y-68.0
X248.5Y-101.0
X254.5Y-62.0
T0
M30
