G04 #@! TF.GenerationSoftware,KiCad,Pcbnew,7.0.7-7.0.7~ubuntu22.04.1*
G04 #@! TF.CreationDate,2023-12-22T20:45:00+01:00*
G04 #@! TF.ProjectId,piaxe,70696178-652e-46b6-9963-61645f706362,rev?*
G04 #@! TF.SameCoordinates,Original*
G04 #@! TF.FileFunction,Copper,L1,Top*
G04 #@! TF.FilePolarity,Positive*
%FSLAX46Y46*%
G04 Gerber Fmt 4.6, Leading zero omitted, Abs format (unit mm)*
G04 Created by KiCad (PCBNEW 7.0.7-7.0.7~ubuntu22.04.1) date 2023-12-22 20:45:00*
%MOMM*%
%LPD*%
G01*
G04 APERTURE LIST*
G04 Aperture macros list*
%AMRoundRect*
0 Rectangle with rounded corners*
0 $1 Rounding radius*
0 $2 $3 $4 $5 $6 $7 $8 $9 X,Y pos of 4 corners*
0 Add a 4 corners polygon primitive as box body*
4,1,4,$2,$3,$4,$5,$6,$7,$8,$9,$2,$3,0*
0 Add four circle primitives for the rounded corners*
1,1,$1+$1,$2,$3*
1,1,$1+$1,$4,$5*
1,1,$1+$1,$6,$7*
1,1,$1+$1,$8,$9*
0 Add four rect primitives between the rounded corners*
20,1,$1+$1,$2,$3,$4,$5,0*
20,1,$1+$1,$4,$5,$6,$7,0*
20,1,$1+$1,$6,$7,$8,$9,0*
20,1,$1+$1,$8,$9,$2,$3,0*%
G04 Aperture macros list end*
G04 #@! TA.AperFunction,SMDPad,CuDef*
%ADD10RoundRect,0.250000X0.250000X0.475000X-0.250000X0.475000X-0.250000X-0.475000X0.250000X-0.475000X0*%
G04 #@! TD*
G04 #@! TA.AperFunction,SMDPad,CuDef*
%ADD11RoundRect,0.250000X0.650000X-0.325000X0.650000X0.325000X-0.650000X0.325000X-0.650000X-0.325000X0*%
G04 #@! TD*
G04 #@! TA.AperFunction,SMDPad,CuDef*
%ADD12R,0.221000X0.792000*%
G04 #@! TD*
G04 #@! TA.AperFunction,SMDPad,CuDef*
%ADD13R,1.810000X3.900000*%
G04 #@! TD*
G04 #@! TA.AperFunction,SMDPad,CuDef*
%ADD14R,4.530000X4.277000*%
G04 #@! TD*
G04 #@! TA.AperFunction,SMDPad,CuDef*
%ADD15RoundRect,0.250000X0.325000X1.100000X-0.325000X1.100000X-0.325000X-1.100000X0.325000X-1.100000X0*%
G04 #@! TD*
G04 #@! TA.AperFunction,SMDPad,CuDef*
%ADD16R,3.300000X2.800000*%
G04 #@! TD*
G04 #@! TA.AperFunction,SMDPad,CuDef*
%ADD17RoundRect,0.250000X-0.262500X-0.450000X0.262500X-0.450000X0.262500X0.450000X-0.262500X0.450000X0*%
G04 #@! TD*
G04 #@! TA.AperFunction,SMDPad,CuDef*
%ADD18RoundRect,0.250000X0.450000X-0.262500X0.450000X0.262500X-0.450000X0.262500X-0.450000X-0.262500X0*%
G04 #@! TD*
G04 #@! TA.AperFunction,ComponentPad*
%ADD19C,0.800000*%
G04 #@! TD*
G04 #@! TA.AperFunction,ComponentPad*
%ADD20C,6.400000*%
G04 #@! TD*
G04 #@! TA.AperFunction,SMDPad,CuDef*
%ADD21RoundRect,0.250000X-1.100000X0.325000X-1.100000X-0.325000X1.100000X-0.325000X1.100000X0.325000X0*%
G04 #@! TD*
G04 #@! TA.AperFunction,SMDPad,CuDef*
%ADD22RoundRect,0.250000X-0.312500X-1.075000X0.312500X-1.075000X0.312500X1.075000X-0.312500X1.075000X0*%
G04 #@! TD*
G04 #@! TA.AperFunction,SMDPad,CuDef*
%ADD23RoundRect,0.250000X-0.475000X0.250000X-0.475000X-0.250000X0.475000X-0.250000X0.475000X0.250000X0*%
G04 #@! TD*
G04 #@! TA.AperFunction,SMDPad,CuDef*
%ADD24RoundRect,0.112500X-0.112500X0.187500X-0.112500X-0.187500X0.112500X-0.187500X0.112500X0.187500X0*%
G04 #@! TD*
G04 #@! TA.AperFunction,SMDPad,CuDef*
%ADD25RoundRect,0.250000X-0.362500X-1.075000X0.362500X-1.075000X0.362500X1.075000X-0.362500X1.075000X0*%
G04 #@! TD*
G04 #@! TA.AperFunction,SMDPad,CuDef*
%ADD26RoundRect,0.250000X0.262500X0.450000X-0.262500X0.450000X-0.262500X-0.450000X0.262500X-0.450000X0*%
G04 #@! TD*
G04 #@! TA.AperFunction,SMDPad,CuDef*
%ADD27R,0.700000X0.700000*%
G04 #@! TD*
G04 #@! TA.AperFunction,SMDPad,CuDef*
%ADD28R,4.510000X4.350000*%
G04 #@! TD*
G04 #@! TA.AperFunction,SMDPad,CuDef*
%ADD29RoundRect,0.250000X-0.625000X0.375000X-0.625000X-0.375000X0.625000X-0.375000X0.625000X0.375000X0*%
G04 #@! TD*
G04 #@! TA.AperFunction,SMDPad,CuDef*
%ADD30RoundRect,0.250000X-0.900000X1.000000X-0.900000X-1.000000X0.900000X-1.000000X0.900000X1.000000X0*%
G04 #@! TD*
G04 #@! TA.AperFunction,SMDPad,CuDef*
%ADD31R,2.000000X2.000000*%
G04 #@! TD*
G04 #@! TA.AperFunction,SMDPad,CuDef*
%ADD32RoundRect,0.250000X-0.250000X-0.475000X0.250000X-0.475000X0.250000X0.475000X-0.250000X0.475000X0*%
G04 #@! TD*
G04 #@! TA.AperFunction,SMDPad,CuDef*
%ADD33C,0.500000*%
G04 #@! TD*
G04 #@! TA.AperFunction,SMDPad,CuDef*
%ADD34RoundRect,0.150000X-0.150000X0.512500X-0.150000X-0.512500X0.150000X-0.512500X0.150000X0.512500X0*%
G04 #@! TD*
G04 #@! TA.AperFunction,SMDPad,CuDef*
%ADD35R,0.400000X1.650000*%
G04 #@! TD*
G04 #@! TA.AperFunction,SMDPad,CuDef*
%ADD36R,1.825000X0.700000*%
G04 #@! TD*
G04 #@! TA.AperFunction,SMDPad,CuDef*
%ADD37R,2.000000X1.500000*%
G04 #@! TD*
G04 #@! TA.AperFunction,SMDPad,CuDef*
%ADD38R,1.350000X2.000000*%
G04 #@! TD*
G04 #@! TA.AperFunction,ComponentPad*
%ADD39O,1.350000X1.700000*%
G04 #@! TD*
G04 #@! TA.AperFunction,ComponentPad*
%ADD40O,1.100000X1.500000*%
G04 #@! TD*
G04 #@! TA.AperFunction,SMDPad,CuDef*
%ADD41R,1.430000X2.500000*%
G04 #@! TD*
G04 #@! TA.AperFunction,ComponentPad*
%ADD42R,1.000000X1.000000*%
G04 #@! TD*
G04 #@! TA.AperFunction,ComponentPad*
%ADD43O,1.000000X1.000000*%
G04 #@! TD*
G04 #@! TA.AperFunction,SMDPad,CuDef*
%ADD44RoundRect,0.250000X0.475000X-0.250000X0.475000X0.250000X-0.475000X0.250000X-0.475000X-0.250000X0*%
G04 #@! TD*
G04 #@! TA.AperFunction,ComponentPad*
%ADD45R,1.730000X2.030000*%
G04 #@! TD*
G04 #@! TA.AperFunction,ComponentPad*
%ADD46O,1.730000X2.030000*%
G04 #@! TD*
G04 #@! TA.AperFunction,SMDPad,CuDef*
%ADD47R,0.400000X0.650000*%
G04 #@! TD*
G04 #@! TA.AperFunction,SMDPad,CuDef*
%ADD48RoundRect,0.250000X-0.325000X-1.100000X0.325000X-1.100000X0.325000X1.100000X-0.325000X1.100000X0*%
G04 #@! TD*
G04 #@! TA.AperFunction,SMDPad,CuDef*
%ADD49R,4.350000X4.510000*%
G04 #@! TD*
G04 #@! TA.AperFunction,SMDPad,CuDef*
%ADD50RoundRect,0.250000X-0.450000X0.262500X-0.450000X-0.262500X0.450000X-0.262500X0.450000X0.262500X0*%
G04 #@! TD*
G04 #@! TA.AperFunction,SMDPad,CuDef*
%ADD51RoundRect,0.250000X1.100000X-0.325000X1.100000X0.325000X-1.100000X0.325000X-1.100000X-0.325000X0*%
G04 #@! TD*
G04 #@! TA.AperFunction,SMDPad,CuDef*
%ADD52RoundRect,0.250000X0.450000X0.800000X-0.450000X0.800000X-0.450000X-0.800000X0.450000X-0.800000X0*%
G04 #@! TD*
G04 #@! TA.AperFunction,SMDPad,CuDef*
%ADD53RoundRect,0.250000X-1.000000X1.500000X-1.000000X-1.500000X1.000000X-1.500000X1.000000X1.500000X0*%
G04 #@! TD*
G04 #@! TA.AperFunction,SMDPad,CuDef*
%ADD54R,4.000000X1.500000*%
G04 #@! TD*
G04 #@! TA.AperFunction,SMDPad,CuDef*
%ADD55RoundRect,0.250000X0.312500X0.625000X-0.312500X0.625000X-0.312500X-0.625000X0.312500X-0.625000X0*%
G04 #@! TD*
G04 #@! TA.AperFunction,SMDPad,CuDef*
%ADD56RoundRect,0.050000X-0.100000X0.285000X-0.100000X-0.285000X0.100000X-0.285000X0.100000X0.285000X0*%
G04 #@! TD*
G04 #@! TA.AperFunction,ComponentPad*
%ADD57R,2.600000X2.600000*%
G04 #@! TD*
G04 #@! TA.AperFunction,ComponentPad*
%ADD58C,2.600000*%
G04 #@! TD*
G04 #@! TA.AperFunction,SMDPad,CuDef*
%ADD59R,0.650000X2.760000*%
G04 #@! TD*
G04 #@! TA.AperFunction,SMDPad,CuDef*
%ADD60R,3.810000X4.245000*%
G04 #@! TD*
G04 #@! TA.AperFunction,SMDPad,CuDef*
%ADD61RoundRect,0.062500X-0.062500X0.375000X-0.062500X-0.375000X0.062500X-0.375000X0.062500X0.375000X0*%
G04 #@! TD*
G04 #@! TA.AperFunction,SMDPad,CuDef*
%ADD62RoundRect,0.062500X-0.375000X0.062500X-0.375000X-0.062500X0.375000X-0.062500X0.375000X0.062500X0*%
G04 #@! TD*
G04 #@! TA.AperFunction,ComponentPad*
%ADD63C,0.500000*%
G04 #@! TD*
G04 #@! TA.AperFunction,SMDPad,CuDef*
%ADD64R,3.450000X3.450000*%
G04 #@! TD*
G04 #@! TA.AperFunction,SMDPad,CuDef*
%ADD65RoundRect,0.150000X0.150000X-0.587500X0.150000X0.587500X-0.150000X0.587500X-0.150000X-0.587500X0*%
G04 #@! TD*
G04 #@! TA.AperFunction,SMDPad,CuDef*
%ADD66RoundRect,0.125000X0.625000X0.125000X-0.625000X0.125000X-0.625000X-0.125000X0.625000X-0.125000X0*%
G04 #@! TD*
G04 #@! TA.AperFunction,SMDPad,CuDef*
%ADD67RoundRect,0.125000X0.125000X0.625000X-0.125000X0.625000X-0.125000X-0.625000X0.125000X-0.625000X0*%
G04 #@! TD*
G04 #@! TA.AperFunction,SMDPad,CuDef*
%ADD68RoundRect,0.250000X0.325000X0.650000X-0.325000X0.650000X-0.325000X-0.650000X0.325000X-0.650000X0*%
G04 #@! TD*
G04 #@! TA.AperFunction,ViaPad*
%ADD69C,0.800000*%
G04 #@! TD*
G04 #@! TA.AperFunction,Conductor*
%ADD70C,0.508000*%
G04 #@! TD*
G04 #@! TA.AperFunction,Conductor*
%ADD71C,0.254000*%
G04 #@! TD*
G04 #@! TA.AperFunction,Conductor*
%ADD72C,0.400000*%
G04 #@! TD*
G04 #@! TA.AperFunction,Conductor*
%ADD73C,0.203200*%
G04 #@! TD*
G04 #@! TA.AperFunction,Conductor*
%ADD74C,1.000000*%
G04 #@! TD*
G04 #@! TA.AperFunction,Conductor*
%ADD75C,0.200000*%
G04 #@! TD*
G04 APERTURE END LIST*
G04 #@! TA.AperFunction,EtchedComponent*
G36*
X142930330Y-104223223D02*
G01*
X142223223Y-104930330D01*
X141869670Y-104576777D01*
X142576777Y-103869670D01*
X142930330Y-104223223D01*
G37*
G04 #@! TD.AperFunction*
G04 #@! TA.AperFunction,EtchedComponent*
G36*
X144530330Y-104576777D02*
G01*
X144176777Y-104930330D01*
X143469670Y-104223223D01*
X143823223Y-103869670D01*
X144530330Y-104576777D01*
G37*
G04 #@! TD.AperFunction*
G04 #@! TA.AperFunction,EtchedComponent*
G36*
X144530330Y-95023224D02*
G01*
X144176777Y-95376777D01*
X143469670Y-94669670D01*
X143823223Y-94316117D01*
X144530330Y-95023224D01*
G37*
G04 #@! TD.AperFunction*
G04 #@! TA.AperFunction,EtchedComponent*
G36*
X142930330Y-94669670D02*
G01*
X142223223Y-95376777D01*
X141869670Y-95023224D01*
X142576777Y-94316117D01*
X142930330Y-94669670D01*
G37*
G04 #@! TD.AperFunction*
D10*
X173626315Y-96563089D03*
X171726315Y-96563089D03*
D11*
X94150000Y-98565000D03*
X94150000Y-95615000D03*
D12*
X131263000Y-141584000D03*
X130761000Y-141584000D03*
X130259000Y-141584000D03*
X129757000Y-141584000D03*
X129255000Y-141584000D03*
X128753000Y-141584000D03*
X128251000Y-141584000D03*
X127749000Y-141584000D03*
X127247000Y-141584000D03*
X126745000Y-141584000D03*
X126243000Y-141584000D03*
X125741000Y-141584000D03*
X125239000Y-141584000D03*
X124737000Y-141584000D03*
X124750000Y-147416000D03*
X125250000Y-147416000D03*
X125750000Y-147416000D03*
X126250000Y-147416000D03*
X126750000Y-147416000D03*
X127247000Y-147416000D03*
X127750000Y-147416000D03*
X128251000Y-147416000D03*
X128753000Y-147416000D03*
X129255000Y-147416000D03*
X129757000Y-147416000D03*
X130250000Y-147416000D03*
X130761000Y-147416000D03*
X131250000Y-147416000D03*
D13*
X130468000Y-144500000D03*
D14*
X126892000Y-144500000D03*
D15*
X145475000Y-108100000D03*
X142525000Y-108100000D03*
D16*
X130180000Y-95440000D03*
X137790000Y-95440000D03*
D17*
X128257500Y-82590000D03*
X130082500Y-82590000D03*
D18*
X94450000Y-87290000D03*
X94450000Y-85465000D03*
D17*
X94937500Y-83377500D03*
X96762500Y-83377500D03*
D19*
X92600000Y-73000000D03*
X93302944Y-71302944D03*
X93302944Y-74697056D03*
X95000000Y-70600000D03*
D20*
X95000000Y-73000000D03*
D19*
X95000000Y-75400000D03*
X96697056Y-71302944D03*
X96697056Y-74697056D03*
X97400000Y-73000000D03*
D21*
X113200000Y-102900000D03*
X113200000Y-105850000D03*
D22*
X92850000Y-79190000D03*
X95775000Y-79190000D03*
D10*
X177126315Y-90143089D03*
X175226315Y-90143089D03*
D23*
X119770000Y-86955000D03*
X119770000Y-88855000D03*
D24*
X123870000Y-86755000D03*
X123870000Y-88855000D03*
D18*
X144300000Y-85662500D03*
X144300000Y-83837500D03*
D25*
X140875000Y-95145000D03*
X145500000Y-95145000D03*
D23*
X125017500Y-78835000D03*
X125017500Y-80735000D03*
D26*
X126692000Y-82570000D03*
X124867000Y-82570000D03*
D27*
X123125000Y-107080000D03*
X124395000Y-107080000D03*
X125665000Y-107080000D03*
X126935000Y-107080000D03*
D28*
X125030000Y-103950000D03*
D27*
X123125000Y-101480000D03*
X124395000Y-101480000D03*
X125665000Y-101480000D03*
X126935000Y-101480000D03*
D29*
X135900000Y-81887500D03*
X135900000Y-84687500D03*
D30*
X109960000Y-86020000D03*
X109960000Y-90320000D03*
D31*
X148500000Y-95200000D03*
D32*
X160926315Y-90763089D03*
X162826315Y-90763089D03*
D33*
X142753553Y-104046447D03*
X142046447Y-104753553D03*
D34*
X177176315Y-92163089D03*
X176226315Y-92163089D03*
X175276315Y-92163089D03*
X175276315Y-94438089D03*
X177176315Y-94438089D03*
D35*
X137912500Y-73677500D03*
X137262500Y-73677500D03*
X136612500Y-73677500D03*
X135962500Y-73677500D03*
X135312500Y-73677500D03*
D36*
X139562500Y-72477500D03*
D37*
X139462500Y-73777500D03*
D38*
X139342500Y-71727500D03*
D39*
X139342500Y-70797500D03*
D40*
X139032500Y-73797500D03*
D41*
X137572500Y-70527500D03*
X135652500Y-70527500D03*
D40*
X134192500Y-73797500D03*
D39*
X133882500Y-70797500D03*
D38*
X133862500Y-71727500D03*
D37*
X133712500Y-73797500D03*
D36*
X133612500Y-72477500D03*
D42*
X169875000Y-101100000D03*
D43*
X168605000Y-101100000D03*
X167335000Y-101100000D03*
X166065000Y-101100000D03*
X164795000Y-101100000D03*
X163525000Y-101100000D03*
D44*
X115670000Y-87140000D03*
X115670000Y-85240000D03*
D45*
X161300000Y-73400000D03*
D46*
X163840000Y-73400000D03*
X166380000Y-73400000D03*
X168920000Y-73400000D03*
D31*
X148500000Y-91750000D03*
D17*
X149387500Y-89000000D03*
X151212500Y-89000000D03*
D47*
X165906315Y-92393089D03*
X165256315Y-92393089D03*
X164606315Y-92393089D03*
X164606315Y-94293089D03*
X165906315Y-94293089D03*
D18*
X137987500Y-77825000D03*
X137987500Y-76000000D03*
D17*
X126870000Y-78605000D03*
X128695000Y-78605000D03*
D26*
X128695000Y-80605000D03*
X126870000Y-80605000D03*
D48*
X151225000Y-104900000D03*
X154175000Y-104900000D03*
D25*
X140887500Y-104825001D03*
X145512500Y-104825001D03*
D48*
X151200000Y-108100000D03*
X154150000Y-108100000D03*
D27*
X121539000Y-97105000D03*
X121539000Y-95835000D03*
X121539000Y-94565000D03*
X121539000Y-93295000D03*
D49*
X118409000Y-95200000D03*
D27*
X115939000Y-97105000D03*
X115939000Y-95835000D03*
X115939000Y-94565000D03*
X115939000Y-93295000D03*
D23*
X100050000Y-85540000D03*
X100050000Y-87440000D03*
D10*
X166326315Y-95963089D03*
X164426315Y-95963089D03*
D50*
X141600000Y-83687500D03*
X141600000Y-85512500D03*
D51*
X113250000Y-96975000D03*
X113250000Y-94025000D03*
D23*
X157000000Y-83750000D03*
X157000000Y-85650000D03*
D19*
X173600000Y-73000000D03*
X174302944Y-71302944D03*
X174302944Y-74697056D03*
X176000000Y-70600000D03*
D20*
X176000000Y-73000000D03*
D19*
X176000000Y-75400000D03*
X177697056Y-71302944D03*
X177697056Y-74697056D03*
X178400000Y-73000000D03*
D27*
X121500000Y-104105000D03*
X121500000Y-102835000D03*
X121500000Y-101565000D03*
X121500000Y-100295000D03*
D49*
X118370000Y-102200000D03*
D27*
X115900000Y-104105000D03*
X115900000Y-102835000D03*
X115900000Y-101565000D03*
X115900000Y-100295000D03*
D50*
X146230000Y-73507500D03*
X146230000Y-75332500D03*
D29*
X139100000Y-81887500D03*
X139100000Y-84687500D03*
D52*
X98250000Y-92590000D03*
X93850000Y-92590000D03*
D50*
X158500000Y-74366100D03*
X158500000Y-76191100D03*
D12*
X131263000Y-156584000D03*
X130761000Y-156584000D03*
X130259000Y-156584000D03*
X129757000Y-156584000D03*
X129255000Y-156584000D03*
X128753000Y-156584000D03*
X128251000Y-156584000D03*
X127749000Y-156584000D03*
X127247000Y-156584000D03*
X126745000Y-156584000D03*
X126243000Y-156584000D03*
X125741000Y-156584000D03*
X125239000Y-156584000D03*
X124737000Y-156584000D03*
X124750000Y-162416000D03*
X125250000Y-162416000D03*
X125750000Y-162416000D03*
X126250000Y-162416000D03*
X126750000Y-162416000D03*
X127247000Y-162416000D03*
X127750000Y-162416000D03*
X128251000Y-162416000D03*
X128753000Y-162416000D03*
X129255000Y-162416000D03*
X129757000Y-162416000D03*
X130250000Y-162416000D03*
X130761000Y-162416000D03*
X131250000Y-162416000D03*
D13*
X130468000Y-159500000D03*
D14*
X126892000Y-159500000D03*
D44*
X122870000Y-78240000D03*
X122870000Y-76340000D03*
D32*
X156750000Y-80300000D03*
X158650000Y-80300000D03*
D10*
X162826315Y-95963089D03*
X160926315Y-95963089D03*
D26*
X158312500Y-88400000D03*
X156487500Y-88400000D03*
D19*
X173600000Y-199000000D03*
X174302944Y-197302944D03*
X174302944Y-200697056D03*
X176000000Y-196600000D03*
D20*
X176000000Y-199000000D03*
D19*
X176000000Y-201400000D03*
X177697056Y-197302944D03*
X177697056Y-200697056D03*
X178400000Y-199000000D03*
D48*
X151225000Y-101700000D03*
X154175000Y-101700000D03*
D33*
X143646447Y-104046447D03*
X144353553Y-104753553D03*
D50*
X113780000Y-79945000D03*
X113780000Y-81770000D03*
D18*
X135987500Y-77825000D03*
X135987500Y-76000000D03*
D53*
X103710000Y-101150000D03*
X103710000Y-107650000D03*
D34*
X98200000Y-85340000D03*
X97250000Y-85340000D03*
X96300000Y-85340000D03*
X96300000Y-87615000D03*
X97250000Y-87615000D03*
X98200000Y-87615000D03*
D12*
X138737000Y-147416000D03*
X139239000Y-147416000D03*
X139741000Y-147416000D03*
X140243000Y-147416000D03*
X140745000Y-147416000D03*
X141247000Y-147416000D03*
X141749000Y-147416000D03*
X142251000Y-147416000D03*
X142753000Y-147416000D03*
X143255000Y-147416000D03*
X143757000Y-147416000D03*
X144259000Y-147416000D03*
X144761000Y-147416000D03*
X145263000Y-147416000D03*
X145250000Y-141584000D03*
X144750000Y-141584000D03*
X144250000Y-141584000D03*
X143750000Y-141584000D03*
X143250000Y-141584000D03*
X142753000Y-141584000D03*
X142250000Y-141584000D03*
X141749000Y-141584000D03*
X141247000Y-141584000D03*
X140745000Y-141584000D03*
X140243000Y-141584000D03*
X139750000Y-141584000D03*
X139239000Y-141584000D03*
X138750000Y-141584000D03*
D13*
X139532000Y-144500000D03*
D14*
X143108000Y-144500000D03*
D10*
X177126315Y-96443089D03*
X175226315Y-96443089D03*
D54*
X98250000Y-95290000D03*
X98250000Y-98890000D03*
D18*
X139100000Y-88200000D03*
X139100000Y-86375000D03*
D26*
X170058815Y-96463089D03*
X168233815Y-96463089D03*
D10*
X166326315Y-90763089D03*
X164426315Y-90763089D03*
D17*
X114147500Y-83520000D03*
X115972500Y-83520000D03*
D44*
X120870000Y-78230000D03*
X120870000Y-76330000D03*
D34*
X173676315Y-92283089D03*
X172726315Y-92283089D03*
X171776315Y-92283089D03*
X171776315Y-94558089D03*
X173676315Y-94558089D03*
D19*
X92600000Y-105000000D03*
X93302944Y-103302944D03*
X93302944Y-106697056D03*
X95000000Y-102600000D03*
D20*
X95000000Y-105000000D03*
D19*
X95000000Y-107400000D03*
X96697056Y-103302944D03*
X96697056Y-106697056D03*
X97400000Y-105000000D03*
D32*
X171726315Y-90163089D03*
X173626315Y-90163089D03*
D12*
X138737000Y-162416000D03*
X139239000Y-162416000D03*
X139741000Y-162416000D03*
X140243000Y-162416000D03*
X140745000Y-162416000D03*
X141247000Y-162416000D03*
X141749000Y-162416000D03*
X142251000Y-162416000D03*
X142753000Y-162416000D03*
X143255000Y-162416000D03*
X143757000Y-162416000D03*
X144259000Y-162416000D03*
X144761000Y-162416000D03*
X145263000Y-162416000D03*
X145250000Y-156584000D03*
X144750000Y-156584000D03*
X144250000Y-156584000D03*
X143750000Y-156584000D03*
X143250000Y-156584000D03*
X142753000Y-156584000D03*
X142250000Y-156584000D03*
X141749000Y-156584000D03*
X141247000Y-156584000D03*
X140745000Y-156584000D03*
X140243000Y-156584000D03*
X139750000Y-156584000D03*
X139239000Y-156584000D03*
X138750000Y-156584000D03*
D13*
X139532000Y-159500000D03*
D14*
X143108000Y-159500000D03*
D19*
X173600000Y-105000000D03*
X174302944Y-103302944D03*
X174302944Y-106697056D03*
X176000000Y-102600000D03*
D20*
X176000000Y-105000000D03*
D19*
X176000000Y-107400000D03*
X177697056Y-103302944D03*
X177697056Y-106697056D03*
X178400000Y-105000000D03*
D18*
X115770000Y-81792500D03*
X115770000Y-79967500D03*
D44*
X144300000Y-77650000D03*
X144300000Y-75750000D03*
D55*
X128672500Y-88580000D03*
X125747500Y-88580000D03*
D44*
X118870000Y-76405000D03*
X118870000Y-74505000D03*
D26*
X115470000Y-78105000D03*
X113645000Y-78105000D03*
D33*
X144353553Y-95200000D03*
X143646447Y-94492894D03*
D56*
X149850000Y-151260000D03*
X149350000Y-151260000D03*
X148850000Y-151260000D03*
X148850000Y-152740000D03*
X149350000Y-152740000D03*
X149850000Y-152740000D03*
D31*
X92650000Y-82890000D03*
D57*
X105000000Y-83200000D03*
D58*
X105000000Y-77200000D03*
X100300000Y-80200000D03*
D48*
X151225000Y-95300000D03*
X154175000Y-95300000D03*
D59*
X171540000Y-81080000D03*
X171540000Y-85120000D03*
X170270000Y-81080000D03*
X170270000Y-85120000D03*
X169000000Y-81080000D03*
X169000000Y-85120000D03*
X167730000Y-81080000D03*
X167730000Y-85120000D03*
X166460000Y-81080000D03*
X166460000Y-85120000D03*
D15*
X145475000Y-101600000D03*
X142525000Y-101600000D03*
D33*
X142046447Y-95200000D03*
X142753553Y-94492894D03*
D60*
X104900000Y-94187500D03*
X104900000Y-87812500D03*
D48*
X151225000Y-98500000D03*
X154175000Y-98500000D03*
D18*
X135900000Y-88200000D03*
X135900000Y-86375000D03*
D26*
X154812500Y-87200000D03*
X152987500Y-87200000D03*
D16*
X130180000Y-104838000D03*
X137790000Y-104838000D03*
D61*
X122457500Y-80067500D03*
X121957500Y-80067500D03*
X121457500Y-80067500D03*
X120957500Y-80067500D03*
X120457500Y-80067500D03*
X119957500Y-80067500D03*
X119457500Y-80067500D03*
X118957500Y-80067500D03*
D62*
X118270000Y-80755000D03*
X118270000Y-81255000D03*
X118270000Y-81755000D03*
X118270000Y-82255000D03*
X118270000Y-82755000D03*
X118270000Y-83255000D03*
X118270000Y-83755000D03*
X118270000Y-84255000D03*
D61*
X118957500Y-84942500D03*
X119457500Y-84942500D03*
X119957500Y-84942500D03*
X120457500Y-84942500D03*
X120957500Y-84942500D03*
X121457500Y-84942500D03*
X121957500Y-84942500D03*
X122457500Y-84942500D03*
D62*
X123145000Y-84255000D03*
X123145000Y-83755000D03*
X123145000Y-83255000D03*
X123145000Y-82755000D03*
X123145000Y-82255000D03*
X123145000Y-81755000D03*
X123145000Y-81255000D03*
X123145000Y-80755000D03*
D63*
X121707500Y-81505000D03*
X120707500Y-81505000D03*
X119707500Y-81505000D03*
X121707500Y-82505000D03*
X120707500Y-82505000D03*
D64*
X120707500Y-82505000D03*
D63*
X119707500Y-82505000D03*
X121707500Y-83505000D03*
X120707500Y-83505000D03*
X119707500Y-83505000D03*
D65*
X168196315Y-94290589D03*
X170096315Y-94290589D03*
X169146315Y-92415589D03*
D27*
X127000000Y-93187500D03*
X125730000Y-93187500D03*
X124460000Y-93187500D03*
X123190000Y-93187500D03*
D28*
X125095000Y-96317500D03*
D27*
X127000000Y-98787500D03*
X125730000Y-98787500D03*
X124460000Y-98787500D03*
X123190000Y-98787500D03*
D15*
X145475000Y-98400000D03*
X142525000Y-98400000D03*
D66*
X154775000Y-83600000D03*
X154775000Y-82800000D03*
X154775000Y-82000000D03*
X154775000Y-81200000D03*
X154775000Y-80400000D03*
X154775000Y-79600000D03*
X154775000Y-78800000D03*
X154775000Y-78000000D03*
D67*
X153400000Y-76625000D03*
X152600000Y-76625000D03*
X151800000Y-76625000D03*
X151000000Y-76625000D03*
X150200000Y-76625000D03*
X149400000Y-76625000D03*
X148600000Y-76625000D03*
X147800000Y-76625000D03*
D66*
X146425000Y-78000000D03*
X146425000Y-78800000D03*
X146425000Y-79600000D03*
X146425000Y-80400000D03*
X146425000Y-81200000D03*
X146425000Y-82000000D03*
X146425000Y-82800000D03*
X146425000Y-83600000D03*
D67*
X147800000Y-84975000D03*
X148600000Y-84975000D03*
X149400000Y-84975000D03*
X150200000Y-84975000D03*
X151000000Y-84975000D03*
X151800000Y-84975000D03*
X152600000Y-84975000D03*
X153400000Y-84975000D03*
D21*
X109900000Y-102875000D03*
X109900000Y-105825000D03*
D51*
X110000000Y-96975000D03*
X110000000Y-94025000D03*
D24*
X117770000Y-86855000D03*
X117770000Y-88955000D03*
D10*
X118970000Y-78155000D03*
X117070000Y-78155000D03*
D26*
X116970000Y-76205000D03*
X115145000Y-76205000D03*
D44*
X121870000Y-88855000D03*
X121870000Y-86955000D03*
D23*
X125970000Y-84755000D03*
X125970000Y-86655000D03*
D17*
X168233815Y-90163089D03*
X170058815Y-90163089D03*
X147487500Y-87000000D03*
X149312500Y-87000000D03*
D68*
X96825000Y-89890000D03*
X93875000Y-89890000D03*
D19*
X92600000Y-199000000D03*
X93302944Y-197302944D03*
X93302944Y-200697056D03*
X95000000Y-196600000D03*
D20*
X95000000Y-199000000D03*
D19*
X95000000Y-201400000D03*
X96697056Y-197302944D03*
X96697056Y-200697056D03*
X97400000Y-199000000D03*
D18*
X120970000Y-74805000D03*
X120970000Y-72980000D03*
D47*
X161150000Y-94293089D03*
X161800000Y-94293089D03*
X162450000Y-94293089D03*
X162450000Y-92393089D03*
X161150000Y-92393089D03*
D69*
X168030000Y-76500000D03*
X165420000Y-78320000D03*
X123000000Y-136900000D03*
X124750000Y-92000000D03*
X127820600Y-134496163D03*
X109500000Y-92000000D03*
X112500000Y-93000000D03*
X159500000Y-80250000D03*
X108500000Y-92000000D03*
X123750000Y-109000000D03*
X143500000Y-146000000D03*
X141500000Y-107100000D03*
X156500000Y-108000000D03*
X128500000Y-160000000D03*
X124225000Y-166900000D03*
X128500000Y-158000000D03*
X144500000Y-146000000D03*
X113500000Y-93000000D03*
X140800000Y-167825000D03*
X125500000Y-158000000D03*
X156500000Y-104000000D03*
X156500000Y-102000000D03*
X145300000Y-132500000D03*
X110500000Y-93000000D03*
X140210000Y-148906900D03*
X141500000Y-144000000D03*
X125750000Y-91000000D03*
X110750000Y-108125000D03*
X156500000Y-95000000D03*
X134500000Y-151700000D03*
X124100000Y-137950000D03*
X153300000Y-102300000D03*
X141400000Y-159000000D03*
X142500000Y-145000000D03*
X141400000Y-161000000D03*
X175926315Y-90843089D03*
X141400000Y-158000000D03*
X155500000Y-109000000D03*
X156500000Y-99000000D03*
X128500000Y-145000000D03*
X155500000Y-101000000D03*
X126750000Y-91000000D03*
X148493168Y-153340990D03*
X107750000Y-108125000D03*
X94150000Y-94290000D03*
X156700000Y-86450000D03*
X126500000Y-161000000D03*
X155500000Y-98000000D03*
X114750000Y-108125000D03*
X126500000Y-158000000D03*
X120982221Y-88922537D03*
X171776315Y-97563089D03*
X155500000Y-94000000D03*
X107750000Y-107125000D03*
X144240171Y-158071787D03*
X155500000Y-99000000D03*
X140500000Y-100500000D03*
X156500000Y-100000000D03*
X122750000Y-91000000D03*
X124750000Y-91000000D03*
X142500000Y-143000000D03*
X109750000Y-108125000D03*
X175126315Y-97543089D03*
X155500000Y-108000000D03*
X119845000Y-73530000D03*
X127750000Y-92000000D03*
X141500000Y-143000000D03*
X141500000Y-98500000D03*
X111750000Y-108125000D03*
X97250000Y-84190000D03*
X122750000Y-109000000D03*
X146280330Y-132500000D03*
X113865841Y-82700841D03*
X124750000Y-109000000D03*
X144300000Y-86550000D03*
X142400000Y-158000000D03*
X147370000Y-154420000D03*
X142400000Y-161000000D03*
X141400000Y-160000000D03*
X155500000Y-106000000D03*
X113750000Y-108125000D03*
X141500000Y-145000000D03*
X125750000Y-92000000D03*
X156500000Y-98000000D03*
X122750000Y-108000000D03*
X127500000Y-144000000D03*
X141500000Y-109100000D03*
X162026315Y-90763089D03*
X106750000Y-107125000D03*
X129940000Y-140440000D03*
X127500000Y-160000000D03*
X141000000Y-137000000D03*
X141500000Y-146000000D03*
X129175000Y-167700000D03*
X112750000Y-107125000D03*
X144240171Y-161065500D03*
X155500000Y-97000000D03*
X142400000Y-160000000D03*
X127750000Y-109000000D03*
X127500000Y-161000000D03*
X114750000Y-107125000D03*
X146863165Y-150520505D03*
X140500000Y-102500000D03*
X172901315Y-90888089D03*
X156500000Y-109000000D03*
X128500000Y-161000000D03*
X124750000Y-108000000D03*
X126750000Y-92000000D03*
X127535500Y-82483000D03*
X140500000Y-98500000D03*
X110500000Y-92000000D03*
X170326315Y-93263089D03*
X112750000Y-108125000D03*
X108750000Y-107125000D03*
X125500000Y-146000000D03*
X108750000Y-108125000D03*
X126500000Y-146000000D03*
X111500000Y-93000000D03*
X155500000Y-96000000D03*
X141500000Y-100500000D03*
X123750000Y-108000000D03*
X108500000Y-93000000D03*
X155500000Y-105000000D03*
X128500000Y-143000000D03*
X164599462Y-91758444D03*
X128500000Y-146000000D03*
X127500000Y-159000000D03*
X153681250Y-86068750D03*
X113750000Y-107125000D03*
X122750000Y-92000000D03*
X140500000Y-101500000D03*
X147350000Y-152100000D03*
X112500000Y-92000000D03*
X128500000Y-144000000D03*
X141500000Y-108100000D03*
X114500000Y-93000000D03*
X114500000Y-92000000D03*
X125500000Y-161000000D03*
X109500000Y-93000000D03*
X123277592Y-153827592D03*
X125750000Y-109000000D03*
X156500000Y-97000000D03*
X146280330Y-133500000D03*
X105750000Y-107125000D03*
X140500000Y-97500000D03*
X134591609Y-152669812D03*
X127750000Y-91000000D03*
X141500000Y-99500000D03*
X156500000Y-96000000D03*
X143500000Y-143000000D03*
X145300000Y-134500000D03*
X128500000Y-159000000D03*
X141500000Y-97500000D03*
X127500000Y-158000000D03*
X156500000Y-101000000D03*
X127750000Y-108000000D03*
X163941143Y-94915092D03*
X155500000Y-100000000D03*
X128920600Y-136815430D03*
X126750000Y-108000000D03*
X110750000Y-107125000D03*
X125750000Y-108000000D03*
X142500000Y-146000000D03*
X111750000Y-107125000D03*
X141500000Y-102500000D03*
X142400000Y-159000000D03*
X140500000Y-107100000D03*
X143400000Y-161000000D03*
X122550000Y-149850000D03*
X141500000Y-101500000D03*
X156500000Y-107000000D03*
X122550000Y-152050000D03*
X155500000Y-103000000D03*
X156500000Y-94000000D03*
X127500000Y-143000000D03*
X146280330Y-134500000D03*
X146109038Y-137879281D03*
X125500000Y-143000000D03*
X135500000Y-151700000D03*
X146900000Y-76625000D03*
X144500000Y-143000000D03*
X140500000Y-99500000D03*
X145300000Y-133500000D03*
X106750000Y-108125000D03*
X156500000Y-103000000D03*
X155500000Y-104000000D03*
X170270000Y-83100000D03*
X143400000Y-158000000D03*
X123750000Y-91000000D03*
X111500000Y-92000000D03*
X122970000Y-75405000D03*
X149300000Y-149399998D03*
X105750000Y-108125000D03*
X155500000Y-107000000D03*
X161648215Y-95584989D03*
X113500000Y-92000000D03*
X123750000Y-92000000D03*
X155500000Y-102000000D03*
X126500000Y-143000000D03*
X145750000Y-166850000D03*
X156500000Y-105000000D03*
X155500000Y-95000000D03*
X109750000Y-107125000D03*
X93875000Y-91090000D03*
X142500000Y-144000000D03*
X126750000Y-109000000D03*
X127500000Y-145000000D03*
X127500000Y-146000000D03*
X156500000Y-106000000D03*
X135500000Y-152700000D03*
X140500000Y-109100000D03*
X140500000Y-108100000D03*
X123500000Y-140700000D03*
X147800000Y-136400000D03*
X126075000Y-166050000D03*
X145747744Y-150147606D03*
X145577063Y-154068184D03*
X124200000Y-134400000D03*
X146300000Y-163500000D03*
X165775680Y-93472454D03*
X123270000Y-163430000D03*
X176989404Y-97406178D03*
X124430792Y-154060158D03*
X146700000Y-140600000D03*
X168826315Y-95563085D03*
X162949074Y-93472445D03*
X124462168Y-150211447D03*
X139500000Y-145000000D03*
X131500000Y-143000000D03*
X145500000Y-113500000D03*
X132500000Y-143000000D03*
X137500000Y-161000000D03*
X135800000Y-132500000D03*
X148500000Y-112500000D03*
X132500000Y-146000000D03*
X146500000Y-112500000D03*
X130500000Y-158000000D03*
X131500000Y-144000000D03*
X148500000Y-111500000D03*
X138500000Y-161000000D03*
X130500000Y-146000000D03*
X151500000Y-110500000D03*
X130500000Y-143000000D03*
X139500000Y-144000000D03*
X131500000Y-146000000D03*
X130500000Y-144000000D03*
X130500000Y-161000000D03*
X134800000Y-132500000D03*
X132822409Y-154742409D03*
X137500000Y-158000000D03*
X151500000Y-112500000D03*
X130500000Y-145000000D03*
X150500000Y-110500000D03*
X139500000Y-146000000D03*
X147500000Y-110500000D03*
X131500000Y-159000000D03*
X132500000Y-161000000D03*
X139500000Y-159000000D03*
X152300000Y-102300000D03*
X137500000Y-143000000D03*
X131500000Y-160000000D03*
X132492614Y-158021114D03*
X150500000Y-111500000D03*
X132500000Y-159000000D03*
X147500000Y-111500000D03*
X135800000Y-133500000D03*
X145500000Y-110500000D03*
X139500000Y-161000000D03*
X150500000Y-112500000D03*
X138500000Y-146000000D03*
X139500000Y-143000000D03*
X130500000Y-159000000D03*
X149500000Y-111500000D03*
X138002966Y-156459688D03*
X145500000Y-111500000D03*
X138500000Y-145000000D03*
X132500000Y-144000000D03*
X137500000Y-160000000D03*
X138500000Y-158000000D03*
X131500000Y-161000000D03*
X138500000Y-159000000D03*
X149500000Y-112500000D03*
X147500000Y-112500000D03*
X138500000Y-144000000D03*
X137500000Y-146000000D03*
X146500000Y-110500000D03*
X131500000Y-158000000D03*
X150500000Y-113500000D03*
X131500000Y-145000000D03*
X134800000Y-134500000D03*
X147500000Y-113500000D03*
X130500000Y-160000000D03*
X139500000Y-160000000D03*
X137500000Y-159000000D03*
X138500000Y-143000000D03*
X148500000Y-113500000D03*
X137500000Y-144000000D03*
X145500000Y-112500000D03*
X135800000Y-134500000D03*
X148500000Y-110500000D03*
X146500000Y-113500000D03*
X137500000Y-145000000D03*
X138500000Y-160000000D03*
X139500000Y-158000000D03*
X146500000Y-111500000D03*
X151500000Y-111500000D03*
X134800000Y-133500000D03*
X149500000Y-113500000D03*
X132500000Y-145000000D03*
X151500000Y-113500000D03*
X149500000Y-110500000D03*
X132500000Y-160000000D03*
X122250000Y-105250000D03*
X117242408Y-84468969D03*
X145000000Y-140600000D03*
X125232223Y-140767777D03*
X148400000Y-129700000D03*
X144750000Y-155780000D03*
X125250000Y-155700000D03*
X126400000Y-130599986D03*
X144750000Y-148220000D03*
X124849875Y-163380125D03*
X144918635Y-163500311D03*
X173526315Y-97663089D03*
X125178448Y-148323878D03*
X160626315Y-94363089D03*
X129700000Y-127700000D03*
X165376485Y-95063255D03*
X130800000Y-127952400D03*
X131900000Y-128547600D03*
X170226315Y-97863089D03*
X127400000Y-136660600D03*
X128180000Y-138531410D03*
X94250000Y-99590000D03*
X93750000Y-88190000D03*
X130369998Y-138380002D03*
X139500000Y-163875000D03*
X131500000Y-140600000D03*
X138500000Y-163800000D03*
X132246326Y-141243141D03*
X138160468Y-162755085D03*
X132540000Y-156620000D03*
X130985412Y-152188552D03*
X137540000Y-147710000D03*
X138960000Y-153354882D03*
X130694079Y-151281802D03*
X97050000Y-79090000D03*
X159200000Y-88400000D03*
X145170000Y-73620000D03*
X140900000Y-87400000D03*
X148500000Y-89100000D03*
X165700000Y-91043089D03*
X146600000Y-87000000D03*
X155900000Y-83547600D03*
X155640000Y-80400000D03*
X145400000Y-77941200D03*
X149500003Y-153999997D03*
X177176315Y-91043089D03*
X171776315Y-91163089D03*
X161000000Y-89643089D03*
X141600000Y-86400000D03*
X170126315Y-91163089D03*
X159400000Y-92100000D03*
X159000000Y-73478600D03*
X141900000Y-70700000D03*
X139148638Y-152336741D03*
X130277581Y-149761718D03*
X139490000Y-151051790D03*
X138100000Y-141250000D03*
X138990229Y-140600000D03*
X140310000Y-138880000D03*
X107399998Y-96700000D03*
X102900000Y-96700000D03*
X96850000Y-91190000D03*
X129360000Y-86850000D03*
X109535000Y-87865000D03*
X124370000Y-83870000D03*
X128000000Y-94500000D03*
X123870000Y-85005000D03*
X121500000Y-92500000D03*
X122170000Y-85903100D03*
X122500000Y-93500000D03*
X117175000Y-81375000D03*
X117175000Y-80350000D03*
X118470000Y-85405000D03*
X121250000Y-99250000D03*
X130011041Y-79050267D03*
X143782500Y-94441447D03*
X119970000Y-85805000D03*
X127750000Y-106750000D03*
X142732500Y-94441447D03*
X130011041Y-80100267D03*
X142750000Y-103999984D03*
X114094292Y-76474361D03*
X122021746Y-79204474D03*
X114830000Y-79980000D03*
X143795000Y-104000000D03*
X113351828Y-77216825D03*
X128114200Y-154097508D03*
X141779550Y-149833698D03*
X142118241Y-140394259D03*
X127598100Y-165018336D03*
X121500000Y-138800000D03*
X121800000Y-140700000D03*
X142750000Y-166000000D03*
X143866379Y-163482759D03*
X126594973Y-148362102D03*
X143698100Y-155570000D03*
X143291198Y-148646847D03*
X143544750Y-149647189D03*
X143650000Y-140700000D03*
X132740000Y-162701900D03*
X131798100Y-163875000D03*
X130610698Y-163830960D03*
X126750000Y-155500000D03*
X126623182Y-151891654D03*
X125901745Y-163388164D03*
X150200000Y-78400000D03*
X135900000Y-80900000D03*
X137900000Y-81100000D03*
X151300000Y-78100000D03*
X171500000Y-86900000D03*
X151600000Y-82750000D03*
X169000000Y-87000000D03*
X152300000Y-83650000D03*
X149340000Y-77980000D03*
X134200000Y-78680000D03*
X148833270Y-78920600D03*
X117126659Y-83326659D03*
X135200000Y-79379400D03*
X126912066Y-83853161D03*
X153400000Y-79900000D03*
X160000000Y-82500000D03*
X159515000Y-83415000D03*
X152945138Y-81099381D03*
X151803986Y-81170600D03*
X158244886Y-83260645D03*
D70*
X157176710Y-78220000D02*
X165320000Y-78220000D01*
X155803110Y-79593600D02*
X157176710Y-78220000D01*
X154781400Y-79593600D02*
X155803110Y-79593600D01*
X154775000Y-79600000D02*
X154781400Y-79593600D01*
X165320000Y-78220000D02*
X165420000Y-78320000D01*
D71*
X125750000Y-160750000D02*
X125750000Y-160642000D01*
X144259000Y-145651000D02*
X143108000Y-144500000D01*
D72*
X164604107Y-91763089D02*
X164599462Y-91758444D01*
D71*
X125500000Y-161000000D02*
X125750000Y-160750000D01*
X125741000Y-141584000D02*
X125741000Y-143349000D01*
D73*
X140868000Y-157260000D02*
X143108000Y-159500000D01*
D71*
X125750000Y-161250000D02*
X125500000Y-161000000D01*
X125741000Y-143349000D02*
X126892000Y-144500000D01*
D74*
X135652500Y-70527500D02*
X134152500Y-70527500D01*
D71*
X129757000Y-142234000D02*
X129720400Y-142270600D01*
D74*
X133612500Y-73697500D02*
X133712500Y-73797500D01*
X93875000Y-92565000D02*
X93850000Y-92590000D01*
D72*
X120914684Y-88855000D02*
X120982221Y-88922537D01*
D71*
X125750000Y-147416000D02*
X125750000Y-145642000D01*
X129121400Y-146729400D02*
X126892000Y-144500000D01*
X125741000Y-157759000D02*
X125500000Y-158000000D01*
D73*
X140243000Y-147416000D02*
X140243000Y-148873900D01*
D70*
X159450000Y-80300000D02*
X159500000Y-80250000D01*
D73*
X142800000Y-144500000D02*
X143108000Y-144500000D01*
D72*
X164606315Y-91763089D02*
X164606315Y-90943089D01*
D70*
X153400000Y-85787500D02*
X154812500Y-87200000D01*
D72*
X176226315Y-92163089D02*
X176226315Y-91143089D01*
D70*
X157000000Y-85650000D02*
X157000000Y-86150000D01*
D71*
X149350000Y-151889158D02*
X148850000Y-152389158D01*
D70*
X127505500Y-82513000D02*
X127535500Y-82483000D01*
D71*
X129757000Y-141584000D02*
X129757000Y-140623000D01*
D72*
X172726315Y-91063089D02*
X172901315Y-90888089D01*
D74*
X94150000Y-92890000D02*
X93850000Y-92590000D01*
D71*
X129720400Y-142270600D02*
X129121400Y-142270600D01*
X148493168Y-153340990D02*
X148850000Y-152984158D01*
D74*
X94150000Y-95615000D02*
X94150000Y-92890000D01*
D72*
X175226315Y-97443089D02*
X175126315Y-97543089D01*
D70*
X118870000Y-74505000D02*
X119845000Y-73530000D01*
D71*
X129757000Y-146766000D02*
X129720400Y-146729400D01*
D70*
X97250000Y-83865000D02*
X96762500Y-83377500D01*
D71*
X161270115Y-95963089D02*
X160926315Y-95963089D01*
X129757000Y-147416000D02*
X129757000Y-146766000D01*
X125750000Y-160642000D02*
X126892000Y-159500000D01*
D73*
X140319800Y-157260000D02*
X140868000Y-157260000D01*
D71*
X149350000Y-149449998D02*
X149300000Y-149399998D01*
X129121400Y-161729400D02*
X126892000Y-159500000D01*
X154175000Y-101700000D02*
X153900000Y-101700000D01*
X149350000Y-151260000D02*
X149350000Y-151889158D01*
X125750000Y-162416000D02*
X125750000Y-161250000D01*
D70*
X158650000Y-80300000D02*
X159450000Y-80300000D01*
D72*
X135312500Y-73677500D02*
X134312500Y-73677500D01*
D73*
X140243000Y-141584000D02*
X140243000Y-142096500D01*
D70*
X153400000Y-84975000D02*
X153400000Y-85787500D01*
D74*
X134152500Y-70527500D02*
X133882500Y-70797500D01*
D71*
X129125650Y-157266350D02*
X126892000Y-159500000D01*
D74*
X139562500Y-72477500D02*
X139562500Y-73677500D01*
X139342500Y-70797500D02*
X137842500Y-70797500D01*
D70*
X120395000Y-72980000D02*
X119845000Y-73530000D01*
D72*
X162826315Y-90763089D02*
X162026315Y-90763089D01*
D71*
X144259000Y-162416000D02*
X144259000Y-161084329D01*
X129720400Y-161729400D02*
X129121400Y-161729400D01*
D72*
X164606315Y-91763089D02*
X164604107Y-91763089D01*
D71*
X129757000Y-156584000D02*
X129757000Y-157234000D01*
X129757000Y-162416000D02*
X129757000Y-161766000D01*
X144250000Y-143358000D02*
X143108000Y-144500000D01*
D72*
X164426315Y-95963089D02*
X164053915Y-95590689D01*
X164053915Y-95590689D02*
X164053915Y-94843089D01*
D71*
X162506315Y-94293089D02*
X162506315Y-94726889D01*
D73*
X140858000Y-146750000D02*
X143108000Y-144500000D01*
D71*
X140243000Y-162416000D02*
X140243000Y-161766000D01*
X125750000Y-145642000D02*
X126892000Y-144500000D01*
D72*
X170096315Y-94290589D02*
X170096315Y-93493089D01*
D71*
X129757000Y-141584000D02*
X129757000Y-142234000D01*
X149350000Y-151260000D02*
X149350000Y-149449998D01*
X125741000Y-156169817D02*
X125741000Y-156584000D01*
X153900000Y-101700000D02*
X153300000Y-102300000D01*
D72*
X171726315Y-97513089D02*
X171776315Y-97563089D01*
D70*
X97250000Y-85340000D02*
X97250000Y-83865000D01*
D72*
X176226315Y-91143089D02*
X175226315Y-90143089D01*
X119770000Y-88855000D02*
X120914684Y-88855000D01*
D71*
X144250000Y-158358000D02*
X143108000Y-159500000D01*
D72*
X164053915Y-94843089D02*
X164013146Y-94843089D01*
D73*
X140534000Y-142234000D02*
X142800000Y-144500000D01*
D70*
X126692000Y-82513000D02*
X127505500Y-82513000D01*
D71*
X125741000Y-156584000D02*
X125741000Y-157759000D01*
D74*
X139562500Y-73677500D02*
X139462500Y-73777500D01*
D70*
X144300000Y-75750000D02*
X145175000Y-76625000D01*
D72*
X164013146Y-94843089D02*
X163941143Y-94915092D01*
X175226315Y-96443089D02*
X175226315Y-97443089D01*
D71*
X128257500Y-82590000D02*
X127642500Y-82590000D01*
D70*
X157000000Y-86150000D02*
X156700000Y-86450000D01*
D72*
X144300000Y-85662500D02*
X144300000Y-86550000D01*
X121870000Y-88855000D02*
X121049758Y-88855000D01*
D74*
X137572500Y-70527500D02*
X135652500Y-70527500D01*
D71*
X144250000Y-156584000D02*
X144250000Y-158358000D01*
D72*
X121049758Y-88855000D02*
X120982221Y-88922537D01*
X164606315Y-92393089D02*
X164606315Y-91763089D01*
X172901315Y-90888089D02*
X173626315Y-90163089D01*
D70*
X120970000Y-72980000D02*
X120395000Y-72980000D01*
D71*
X148850000Y-152984158D02*
X148850000Y-152740000D01*
D73*
X140243000Y-156584000D02*
X140243000Y-157183200D01*
D71*
X144259000Y-161084329D02*
X144240171Y-161065500D01*
D72*
X164606315Y-90943089D02*
X164426315Y-90763089D01*
D73*
X140243000Y-146816800D02*
X140309800Y-146750000D01*
D74*
X133612500Y-72477500D02*
X133612500Y-73697500D01*
D71*
X129757000Y-157234000D02*
X129724650Y-157266350D01*
X129757000Y-140623000D02*
X129940000Y-140440000D01*
D70*
X122870000Y-76305000D02*
X122870000Y-75505000D01*
D71*
X127642500Y-82590000D02*
X127535500Y-82483000D01*
X140268400Y-161740600D02*
X140867400Y-161740600D01*
X144250000Y-141584000D02*
X144250000Y-143358000D01*
D70*
X113770000Y-82605000D02*
X113865841Y-82700841D01*
X122870000Y-75505000D02*
X122970000Y-75405000D01*
X113770000Y-81805000D02*
X113770000Y-82605000D01*
X145175000Y-76625000D02*
X146900000Y-76625000D01*
D72*
X172726315Y-92283089D02*
X172726315Y-91063089D01*
D74*
X137842500Y-70797500D02*
X137572500Y-70527500D01*
D71*
X144259000Y-147416000D02*
X144259000Y-145651000D01*
D72*
X170096315Y-93493089D02*
X170326315Y-93263089D01*
D71*
X148850000Y-152389158D02*
X148850000Y-152740000D01*
X140867400Y-161740600D02*
X143108000Y-159500000D01*
X129757000Y-162416000D02*
X129757000Y-162832183D01*
D73*
X141246201Y-158000000D02*
X141400000Y-158000000D01*
X140243000Y-147416000D02*
X140243000Y-146816800D01*
D71*
X129720400Y-146729400D02*
X129121400Y-146729400D01*
D70*
X147800000Y-76625000D02*
X146900000Y-76625000D01*
D74*
X93875000Y-89890000D02*
X93875000Y-92565000D01*
D72*
X171726315Y-96563089D02*
X171726315Y-97513089D01*
X170270000Y-85120000D02*
X170270000Y-81080000D01*
X134312500Y-73677500D02*
X134192500Y-73797500D01*
D73*
X140309800Y-146750000D02*
X140858000Y-146750000D01*
X140380500Y-142234000D02*
X140534000Y-142234000D01*
D71*
X129724650Y-157266350D02*
X129125650Y-157266350D01*
X140243000Y-161766000D02*
X140268400Y-161740600D01*
D73*
X140243000Y-148873900D02*
X140210000Y-148906900D01*
D71*
X129757000Y-161766000D02*
X129720400Y-161729400D01*
X129121400Y-142270600D02*
X126892000Y-144500000D01*
X162506315Y-94726889D02*
X161270115Y-95963089D01*
X140243000Y-162416000D02*
X140243000Y-162859565D01*
D73*
X140243000Y-157183200D02*
X140319800Y-157260000D01*
X140243000Y-142096500D02*
X140380500Y-142234000D01*
D71*
X145263000Y-162416000D02*
X145263000Y-162463000D01*
X124737000Y-141584000D02*
X124384000Y-141584000D01*
D72*
X162949074Y-93615689D02*
X163058715Y-93725330D01*
D71*
X145250000Y-156240817D02*
X145250000Y-156584000D01*
X145263000Y-147416000D02*
X145263000Y-147763000D01*
D72*
X163058715Y-93725330D02*
X163058715Y-95730689D01*
D71*
X145716000Y-141584000D02*
X146700000Y-140600000D01*
X124750000Y-147650000D02*
X124750000Y-147416000D01*
X145440454Y-147940454D02*
X145440454Y-156050363D01*
D72*
X177126315Y-97269267D02*
X176989404Y-97406178D01*
X166326315Y-94713089D02*
X165906315Y-94293089D01*
X166326315Y-95963089D02*
X166326315Y-94713089D01*
X177176315Y-96393089D02*
X177126315Y-96443089D01*
X168233815Y-96463089D02*
X168826315Y-95870589D01*
X162878915Y-93615689D02*
X161973715Y-93615689D01*
D71*
X124470942Y-156317942D02*
X124470942Y-147929058D01*
D72*
X166326315Y-94713089D02*
X165775680Y-94162454D01*
X163058715Y-93795489D02*
X162878915Y-93615689D01*
D71*
X124284000Y-162416000D02*
X123270000Y-163430000D01*
X145250000Y-141584000D02*
X145716000Y-141584000D01*
D72*
X161856315Y-93733089D02*
X161856315Y-94293089D01*
X163058715Y-95730689D02*
X163058715Y-93795489D01*
D71*
X124470942Y-147929058D02*
X124750000Y-147650000D01*
X124737000Y-156584000D02*
X124470942Y-156317942D01*
D72*
X168826315Y-95870589D02*
X168826315Y-95563085D01*
X177176315Y-94438089D02*
X177176315Y-96393089D01*
X161973715Y-93615689D02*
X161856315Y-93733089D01*
D71*
X124750000Y-162416000D02*
X124284000Y-162416000D01*
X124384000Y-141584000D02*
X123500000Y-140700000D01*
D72*
X165775680Y-94162454D02*
X165775680Y-93472454D01*
X162949074Y-93472445D02*
X162949074Y-93615689D01*
X162826315Y-95963089D02*
X163058715Y-95730689D01*
D71*
X145263000Y-162463000D02*
X146300000Y-163500000D01*
D72*
X177126315Y-96443089D02*
X177126315Y-97269267D01*
D71*
X145263000Y-147763000D02*
X145440454Y-147940454D01*
X145440454Y-156050363D02*
X145250000Y-156240817D01*
X121457500Y-80067500D02*
X121457500Y-79594025D01*
D70*
X119070000Y-76405000D02*
X118870000Y-76405000D01*
X120870000Y-78205000D02*
X119070000Y-76405000D01*
D71*
X120870000Y-79006525D02*
X120870000Y-78205000D01*
X121457500Y-79594025D02*
X120870000Y-79006525D01*
D74*
X125747500Y-88580000D02*
X124874900Y-87707400D01*
X124874900Y-87707400D02*
X123440668Y-87707400D01*
X122688268Y-86955000D02*
X121870000Y-86955000D01*
D71*
X121457500Y-84942500D02*
X121457500Y-86542500D01*
X121457500Y-86542500D02*
X121870000Y-86955000D01*
D74*
X123440668Y-87707400D02*
X122688268Y-86955000D01*
D70*
X120970000Y-74805000D02*
X120970000Y-76205000D01*
X120970000Y-76205000D02*
X120870000Y-76305000D01*
D71*
X123090000Y-79630000D02*
X123090000Y-78425000D01*
X122652500Y-80067500D02*
X123090000Y-79630000D01*
X123090000Y-78425000D02*
X122870000Y-78205000D01*
X122457500Y-80067500D02*
X122652500Y-80067500D01*
D72*
X145337501Y-105000000D02*
X145512500Y-104825001D01*
X144553553Y-104753553D02*
X145441052Y-104753553D01*
D71*
X151700000Y-101700000D02*
X152300000Y-102300000D01*
D72*
X145441052Y-104753553D02*
X145512500Y-104825001D01*
X144453553Y-95200000D02*
X145208553Y-95200000D01*
X145208553Y-94853553D02*
X145500000Y-95145000D01*
D71*
X151225000Y-101700000D02*
X151700000Y-101700000D01*
X123145000Y-80755000D02*
X123145000Y-80707500D01*
X123145000Y-80707500D02*
X125017500Y-78835000D01*
D70*
X125017500Y-78835000D02*
X126640000Y-78835000D01*
X126640000Y-78835000D02*
X126870000Y-78605000D01*
D71*
X123145000Y-81255000D02*
X123566020Y-81255000D01*
D70*
X126740000Y-80735000D02*
X126870000Y-80605000D01*
D71*
X123566020Y-81255000D02*
X124000000Y-80821020D01*
X124000000Y-80800000D02*
X124952500Y-80800000D01*
D70*
X125017500Y-80735000D02*
X126740000Y-80735000D01*
D71*
X124000000Y-80821020D02*
X124000000Y-80800000D01*
X124952500Y-80800000D02*
X125017500Y-80735000D01*
D70*
X125970000Y-86655000D02*
X123970000Y-86655000D01*
D71*
X122457500Y-84942500D02*
X123870000Y-86355000D01*
X123870000Y-86355000D02*
X123870000Y-86755000D01*
D70*
X123970000Y-86655000D02*
X123870000Y-86755000D01*
D74*
X122250000Y-105250000D02*
X123767000Y-105250000D01*
D70*
X116471377Y-85240000D02*
X117242408Y-84468969D01*
D71*
X118270000Y-84255000D02*
X117456377Y-84255000D01*
D74*
X123767000Y-105250000D02*
X125047000Y-103970000D01*
D70*
X115670000Y-85240000D02*
X116471377Y-85240000D01*
D71*
X117456377Y-84255000D02*
X117242408Y-84468969D01*
X144750000Y-140850000D02*
X145000000Y-140600000D01*
D74*
X173626315Y-96563089D02*
X173626315Y-97563089D01*
D71*
X144750000Y-156584000D02*
X144750000Y-147427000D01*
X144761000Y-163842676D02*
X144918635Y-164000311D01*
X144761000Y-162416000D02*
X144761000Y-163342676D01*
X144750000Y-141584000D02*
X144750000Y-140850000D01*
X125250000Y-162416000D02*
X125250000Y-162980000D01*
D74*
X173626315Y-97563089D02*
X173526315Y-97663089D01*
D71*
X125239000Y-140774554D02*
X125232223Y-140767777D01*
X125250000Y-147416000D02*
X125250000Y-156573000D01*
X125250000Y-156573000D02*
X125239000Y-156584000D01*
X144750000Y-147427000D02*
X144761000Y-147416000D01*
D72*
X173676315Y-94558089D02*
X173676315Y-96513089D01*
D71*
X125250000Y-162980000D02*
X124849875Y-163380125D01*
X125239000Y-141584000D02*
X125239000Y-140774554D01*
D72*
X173676315Y-96513089D02*
X173626315Y-96563089D01*
D71*
X129700000Y-129100000D02*
X129700000Y-127700000D01*
D72*
X161206315Y-94293089D02*
X160696315Y-94293089D01*
D71*
X126400000Y-132400000D02*
X129700000Y-129100000D01*
X127247000Y-141584000D02*
X127247000Y-140672264D01*
X126400000Y-139825264D02*
X126400000Y-132400000D01*
D72*
X160696315Y-94293089D02*
X160626315Y-94363089D01*
D71*
X127247000Y-140672264D02*
X126400000Y-139825264D01*
X128079400Y-136338583D02*
X127100000Y-135359183D01*
D72*
X164606315Y-94293089D02*
X165376481Y-95063255D01*
D71*
X128079400Y-137081417D02*
X128079400Y-136338583D01*
X128251000Y-141584000D02*
X128251000Y-140526792D01*
X127406400Y-139682192D02*
X127406400Y-137754417D01*
X127100000Y-132300000D02*
X130800000Y-128600000D01*
X128251000Y-140526792D02*
X127406400Y-139682192D01*
X130800000Y-128600000D02*
X130800000Y-127952400D01*
D72*
X165376481Y-95063255D02*
X165376485Y-95063255D01*
D71*
X127406400Y-137754417D02*
X128079400Y-137081417D01*
X127100000Y-135359183D02*
X127100000Y-132300000D01*
X129255000Y-140934000D02*
X129159400Y-140838400D01*
X129600000Y-130847600D02*
X131900000Y-128547600D01*
X129600000Y-138189181D02*
X129600000Y-130847600D01*
D72*
X169146315Y-92415589D02*
X169146315Y-94788590D01*
X170226315Y-97863089D02*
X170226315Y-96630589D01*
D71*
X129159400Y-138629781D02*
X129600000Y-138189181D01*
X129255000Y-141584000D02*
X129255000Y-140934000D01*
D72*
X169146315Y-94788590D02*
X170058815Y-95701090D01*
X170226315Y-96630589D02*
X170058815Y-96463089D01*
D71*
X129159400Y-140838400D02*
X129159400Y-138629781D01*
D72*
X170058815Y-95701090D02*
X170058815Y-96463089D01*
D71*
X127000000Y-139850528D02*
X127749000Y-140599528D01*
X127749000Y-140599528D02*
X127749000Y-141584000D01*
X127000000Y-137060600D02*
X127000000Y-139850528D01*
X127400000Y-136660600D02*
X127000000Y-137060600D01*
X119457500Y-80067500D02*
X119457500Y-78642500D01*
X118920000Y-78155000D02*
X118970000Y-78155000D01*
X116970000Y-76205000D02*
X118920000Y-78155000D01*
X119457500Y-78642500D02*
X118970000Y-78155000D01*
D70*
X115470000Y-78105000D02*
X117020000Y-78105000D01*
X117020000Y-78105000D02*
X117070000Y-78155000D01*
D71*
X117070000Y-78155000D02*
X115520000Y-78155000D01*
X118957500Y-80042500D02*
X117070000Y-78155000D01*
X118957500Y-80067500D02*
X118957500Y-80042500D01*
X115520000Y-78155000D02*
X115470000Y-78205000D01*
X128753000Y-139104410D02*
X128180000Y-138531410D01*
X128753000Y-141584000D02*
X128753000Y-139104410D01*
D70*
X117770000Y-88955000D02*
X119770000Y-86955000D01*
D71*
X120957500Y-84942500D02*
X120957500Y-85778317D01*
X120957500Y-85778317D02*
X119780817Y-86955000D01*
D70*
X122963600Y-89761400D02*
X123870000Y-88855000D01*
X117770000Y-88955000D02*
X118576400Y-89761400D01*
X118576400Y-89761400D02*
X122963600Y-89761400D01*
D71*
X119780817Y-86955000D02*
X119770000Y-86955000D01*
D70*
X100050000Y-85540000D02*
X98400000Y-85540000D01*
X98400000Y-85540000D02*
X98200000Y-85340000D01*
D74*
X93750000Y-87290000D02*
X92650000Y-86190000D01*
X92650000Y-82890000D02*
X92650000Y-79390000D01*
D70*
X94250000Y-98665000D02*
X94150000Y-98565000D01*
X94450000Y-87490000D02*
X93750000Y-88190000D01*
D74*
X94150000Y-98565000D02*
X97925000Y-98565000D01*
X97925000Y-98565000D02*
X98250000Y-98890000D01*
X94450000Y-87290000D02*
X93750000Y-87290000D01*
X92650000Y-86190000D02*
X92650000Y-82890000D01*
X92650000Y-79390000D02*
X92850000Y-79190000D01*
D70*
X94450000Y-87290000D02*
X94450000Y-87490000D01*
X94250000Y-99590000D02*
X94250000Y-98665000D01*
D71*
X130649400Y-140721417D02*
X130649400Y-138659404D01*
X130649400Y-138659404D02*
X130369998Y-138380002D01*
X130259000Y-141111817D02*
X130649400Y-140721417D01*
X130259000Y-141584000D02*
X130259000Y-141111817D01*
X139500000Y-163374736D02*
X139500000Y-163875000D01*
X139741000Y-162416000D02*
X139741000Y-163133736D01*
X139741000Y-163133736D02*
X139500000Y-163374736D01*
X130761000Y-141184553D02*
X131345553Y-140600000D01*
X131345553Y-140600000D02*
X131500000Y-140600000D01*
X130761000Y-141584000D02*
X130761000Y-141184553D01*
X139239000Y-163061000D02*
X138500000Y-163800000D01*
X139239000Y-162416000D02*
X139239000Y-163061000D01*
X132246326Y-141243141D02*
X131905467Y-141584000D01*
X131905467Y-141584000D02*
X131263000Y-141584000D01*
X138174553Y-162741000D02*
X138160468Y-162755085D01*
X138737000Y-162741000D02*
X138174553Y-162741000D01*
X131250000Y-147701500D02*
X131614500Y-148066000D01*
X131614500Y-148066000D02*
X131614500Y-151559464D01*
X131263000Y-152466140D02*
X130985412Y-152188552D01*
X131250000Y-147416000D02*
X131250000Y-147701500D01*
X131299000Y-156620000D02*
X131263000Y-156584000D01*
X131263000Y-156584000D02*
X131263000Y-152466140D01*
X132540000Y-156620000D02*
X131299000Y-156620000D01*
X131614500Y-151559464D02*
X130985412Y-152188552D01*
X138390000Y-152784882D02*
X138960000Y-153354882D01*
X138390000Y-147940000D02*
X138390000Y-152784882D01*
X138750000Y-153564882D02*
X138960000Y-153354882D01*
X138750000Y-156584000D02*
X138750000Y-153564882D01*
X138700000Y-147453000D02*
X138700000Y-147630000D01*
X138620000Y-147710000D02*
X138700000Y-147630000D01*
X137540000Y-147710000D02*
X138620000Y-147710000D01*
X138737000Y-147416000D02*
X138700000Y-147453000D01*
X138700000Y-147630000D02*
X138390000Y-147940000D01*
X130761000Y-156584000D02*
X130761000Y-152924957D01*
X130993600Y-150067217D02*
X130993600Y-148098608D01*
X130761000Y-152924957D02*
X130306012Y-152469969D01*
X130306012Y-152469969D02*
X130306012Y-150754805D01*
X130306012Y-150754805D02*
X130993600Y-150067217D01*
X130761000Y-147866008D02*
X130761000Y-147416000D01*
X130993600Y-148098608D02*
X130761000Y-147866008D01*
D74*
X150000003Y-153999997D02*
X149500003Y-153999997D01*
D72*
X173084416Y-93297989D02*
X172368214Y-93297989D01*
X161206315Y-91043089D02*
X160926315Y-90763089D01*
X171776315Y-92283089D02*
X171776315Y-90213089D01*
X161206315Y-92393089D02*
X161206315Y-91043089D01*
D70*
X154775000Y-83600000D02*
X156850000Y-83600000D01*
D72*
X165351862Y-92297542D02*
X165351862Y-91737542D01*
X165256315Y-92393089D02*
X165351862Y-92297542D01*
D74*
X159400000Y-144600000D02*
X150000003Y-153999997D01*
D71*
X147487500Y-87000000D02*
X146600000Y-87000000D01*
D72*
X177176315Y-90193089D02*
X177126315Y-90143089D01*
X175276315Y-92586090D02*
X175276315Y-92163089D01*
D74*
X159400000Y-92100000D02*
X159400000Y-144600000D01*
D72*
X173676315Y-92706090D02*
X173084416Y-93297989D01*
X177176315Y-92163089D02*
X177176315Y-90193089D01*
D71*
X149387500Y-89000000D02*
X148600000Y-89000000D01*
D72*
X159000000Y-74366100D02*
X159000000Y-73478600D01*
X165351862Y-91737542D02*
X166326315Y-90763089D01*
X171776315Y-90213089D02*
X171726315Y-90163089D01*
X171776315Y-92706090D02*
X171776315Y-92283089D01*
D70*
X146425000Y-78000000D02*
X145458800Y-78000000D01*
D72*
X172368214Y-93297989D02*
X171776315Y-92706090D01*
D71*
X145282500Y-73507500D02*
X145170000Y-73620000D01*
D70*
X140100000Y-88200000D02*
X140900000Y-87400000D01*
D71*
X149350000Y-152740000D02*
X149350000Y-153849994D01*
D74*
X95775000Y-79190000D02*
X96950000Y-79190000D01*
D70*
X156650000Y-80400000D02*
X156750000Y-80300000D01*
D71*
X149350000Y-153849994D02*
X149500003Y-153999997D01*
D72*
X177176315Y-92586090D02*
X176519316Y-93243089D01*
D71*
X148600000Y-89000000D02*
X148500000Y-89100000D01*
D70*
X154775000Y-80400000D02*
X155640000Y-80400000D01*
D74*
X96950000Y-79190000D02*
X97050000Y-79090000D01*
D70*
X144591200Y-77941200D02*
X145400000Y-77941200D01*
D72*
X176519316Y-93243089D02*
X175933314Y-93243089D01*
D71*
X158312500Y-88400000D02*
X159200000Y-88400000D01*
D72*
X177176315Y-92163089D02*
X177176315Y-92586090D01*
D71*
X146230000Y-73507500D02*
X145282500Y-73507500D01*
D72*
X170058815Y-90163089D02*
X170058815Y-91095589D01*
X175933314Y-93243089D02*
X175276315Y-92586090D01*
D70*
X156850000Y-83600000D02*
X157000000Y-83750000D01*
X155640000Y-80400000D02*
X156650000Y-80400000D01*
X139100000Y-88200000D02*
X140100000Y-88200000D01*
X144300000Y-77650000D02*
X144591200Y-77941200D01*
D72*
X141600000Y-85512500D02*
X141600000Y-86400000D01*
D70*
X139100000Y-88200000D02*
X136500000Y-88200000D01*
D72*
X173676315Y-92283089D02*
X173676315Y-92706090D01*
X170058815Y-91095589D02*
X170126315Y-91163089D01*
D70*
X145458800Y-78000000D02*
X145400000Y-77941200D01*
D71*
X139124200Y-149457272D02*
X138796400Y-149785072D01*
X138796400Y-151984503D02*
X139148638Y-152336741D01*
X139124200Y-148457147D02*
X139124200Y-149457272D01*
X139239000Y-148342347D02*
X139124200Y-148457147D01*
X139239000Y-155652478D02*
X139824400Y-155067078D01*
X138796400Y-149785072D02*
X138796400Y-151984503D01*
X139239000Y-156584000D02*
X139239000Y-155652478D01*
X139824400Y-155067078D02*
X139824400Y-153012503D01*
X139239000Y-147416000D02*
X139239000Y-148342347D01*
X139824400Y-153012503D02*
X139148638Y-152336741D01*
X130250000Y-148066000D02*
X130250000Y-147416000D01*
X130436401Y-148252401D02*
X130250000Y-148066000D01*
X129899612Y-152638305D02*
X129899612Y-149575447D01*
X130259000Y-156584000D02*
X130259000Y-152997693D01*
X130436401Y-149038658D02*
X130436401Y-148252401D01*
X129899612Y-149575447D02*
X130436401Y-149038658D01*
X130259000Y-152997693D02*
X129899612Y-152638305D01*
X140230800Y-151792590D02*
X139490000Y-151051790D01*
X139530600Y-148625483D02*
X139530600Y-149188317D01*
X139741000Y-148415083D02*
X139530600Y-148625483D01*
X139741000Y-147416000D02*
X139741000Y-148415083D01*
X139750000Y-155716213D02*
X140230800Y-155235413D01*
X139530600Y-149188317D02*
X139600579Y-149258296D01*
X140230800Y-155235413D02*
X140230800Y-151792590D01*
X139600579Y-149258296D02*
X139600579Y-150761158D01*
X139600579Y-150761158D02*
X139290000Y-151071737D01*
X139750000Y-156584000D02*
X139750000Y-155716213D01*
X138434000Y-141584000D02*
X138100000Y-141250000D01*
X138750000Y-141584000D02*
X138434000Y-141584000D01*
X139239000Y-141584000D02*
X139239000Y-140848771D01*
X139239000Y-140848771D02*
X138990229Y-140600000D01*
X139750000Y-141584000D02*
X139750000Y-141077452D01*
X139750000Y-141077452D02*
X139669629Y-140997081D01*
X139669629Y-139520371D02*
X140310000Y-138880000D01*
X139669629Y-140997081D02*
X139669629Y-139520371D01*
D70*
X135900000Y-84687500D02*
X135900000Y-86375000D01*
X139100000Y-84687500D02*
X139100000Y-86375000D01*
X115670000Y-87140000D02*
X115955000Y-86855000D01*
D71*
X119361900Y-85038100D02*
X119361900Y-85473917D01*
X119361900Y-85473917D02*
X117980817Y-86855000D01*
D70*
X115955000Y-86855000D02*
X117770000Y-86855000D01*
D71*
X119457500Y-84942500D02*
X119361900Y-85038100D01*
X117980817Y-86855000D02*
X117770000Y-86855000D01*
D74*
X109960000Y-87440000D02*
X109535000Y-87865000D01*
X128672500Y-88580000D02*
X128672500Y-87537500D01*
D70*
X97250000Y-89465000D02*
X96825000Y-89890000D01*
D74*
X109960000Y-86020000D02*
X109960000Y-87440000D01*
D70*
X97250000Y-87615000D02*
X97250000Y-89465000D01*
D74*
X96825000Y-89890000D02*
X96825000Y-91165000D01*
X128672500Y-87537500D02*
X129360000Y-86850000D01*
D72*
X97250000Y-87615000D02*
X96300000Y-87615000D01*
D74*
X96825000Y-91165000D02*
X96850000Y-91190000D01*
X125095000Y-96317500D02*
X126182500Y-96317500D01*
D71*
X123145000Y-83755000D02*
X124970000Y-83755000D01*
D74*
X126182500Y-96317500D02*
X128000000Y-94500000D01*
D70*
X125970000Y-84755000D02*
X124970000Y-83755000D01*
X124970000Y-83755000D02*
X124370000Y-83755000D01*
X121539000Y-92539000D02*
X121500000Y-92500000D01*
D71*
X123870000Y-84980000D02*
X123870000Y-85005000D01*
X123145000Y-84255000D02*
X123870000Y-84980000D01*
D70*
X121539000Y-93295000D02*
X121539000Y-92539000D01*
D71*
X121957500Y-84942500D02*
X121957500Y-85690600D01*
X121957500Y-85690600D02*
X122170000Y-85903100D01*
D74*
X98250000Y-92590000D02*
X98250000Y-95290000D01*
D70*
X98375000Y-87440000D02*
X98200000Y-87615000D01*
X98200000Y-87615000D02*
X98200000Y-92540000D01*
X100050000Y-87440000D02*
X98375000Y-87440000D01*
X98200000Y-92540000D02*
X98250000Y-92590000D01*
D75*
X117479107Y-81230001D02*
X117179108Y-81530000D01*
X118245001Y-81230001D02*
X117479107Y-81230001D01*
X118270000Y-81255000D02*
X118245001Y-81230001D01*
X118245001Y-80779999D02*
X117479107Y-80779999D01*
X117479107Y-80779999D02*
X117179108Y-80480000D01*
X118270000Y-80755000D02*
X118245001Y-80779999D01*
D72*
X140958948Y-104753553D02*
X140887500Y-104825001D01*
X141062499Y-105000000D02*
X140887500Y-104825001D01*
X142046447Y-104753553D02*
X140958948Y-104753553D01*
D71*
X118957500Y-84942500D02*
X118932500Y-84942500D01*
D70*
X121500000Y-100295000D02*
X121500000Y-99500000D01*
D71*
X118932500Y-84942500D02*
X118470000Y-85405000D01*
D70*
X121500000Y-99500000D02*
X121250000Y-99250000D01*
X129565774Y-78605000D02*
X130011041Y-79050267D01*
X128695000Y-78605000D02*
X129565774Y-78605000D01*
X127400000Y-107100000D02*
X127750000Y-106750000D01*
X126952000Y-107100000D02*
X127400000Y-107100000D01*
D71*
X119957500Y-84942500D02*
X119957500Y-85792500D01*
X119957500Y-85792500D02*
X119970000Y-85805000D01*
X124609000Y-82255000D02*
X124867000Y-82513000D01*
X123145000Y-82255000D02*
X124609000Y-82255000D01*
X118270000Y-81755000D02*
X117755817Y-81755000D01*
X116052500Y-82075000D02*
X115770000Y-81792500D01*
X117755817Y-81755000D02*
X117435817Y-82075000D01*
X117435817Y-82075000D02*
X116052500Y-82075000D01*
D70*
X128695000Y-80605000D02*
X129506308Y-80605000D01*
X129506308Y-80605000D02*
X130011041Y-80100267D01*
X114363653Y-76205000D02*
X114094292Y-76474361D01*
X115145000Y-76205000D02*
X114363653Y-76205000D01*
D72*
X142046447Y-95200000D02*
X141166447Y-95200000D01*
X141166447Y-94853553D02*
X140875000Y-95145000D01*
D71*
X121957500Y-79278251D02*
X121957500Y-80067500D01*
D70*
X115757500Y-79980000D02*
X115770000Y-79967500D01*
D71*
X122021746Y-79204474D02*
X122021746Y-79214005D01*
D70*
X113770000Y-79980000D02*
X115757500Y-79980000D01*
D71*
X122021746Y-79214005D02*
X121957500Y-79278251D01*
D70*
X113645000Y-78105000D02*
X113645000Y-77509997D01*
X113645000Y-77509997D02*
X113351828Y-77216825D01*
X94937500Y-84977500D02*
X94450000Y-85465000D01*
X96300000Y-85340000D02*
X94575000Y-85340000D01*
X94937500Y-83377500D02*
X94937500Y-84977500D01*
X94575000Y-85340000D02*
X94450000Y-85465000D01*
D71*
X128215404Y-147451596D02*
X128215404Y-151293200D01*
X128215404Y-151293200D02*
X128265325Y-151343121D01*
X128251000Y-147416000D02*
X128215404Y-147451596D01*
X128265325Y-156569675D02*
X128251000Y-156584000D01*
X128265325Y-151343121D02*
X128265325Y-156569675D01*
X141749000Y-156584000D02*
X141749000Y-149864248D01*
X141749000Y-147416000D02*
X141749000Y-149803148D01*
X141749000Y-149803148D02*
X141779550Y-149833698D01*
X141749000Y-149864248D02*
X141779550Y-149833698D01*
X141749000Y-140763500D02*
X142118241Y-140394259D01*
X141749000Y-141584000D02*
X141749000Y-140763500D01*
X141867200Y-164148659D02*
X141867200Y-164168089D01*
X140968089Y-165067200D02*
X140882272Y-165067200D01*
X128526928Y-165018336D02*
X128620264Y-164925000D01*
X128146570Y-164451306D02*
X128146570Y-162520430D01*
X128138600Y-165018336D02*
X128526928Y-165018336D01*
X140882272Y-165067200D02*
X140582272Y-165367200D01*
X128109200Y-164988936D02*
X128138600Y-165018336D01*
X129062464Y-165367200D02*
X128620264Y-164925000D01*
X141749000Y-162416000D02*
X141749000Y-162763711D01*
X128146570Y-162520430D02*
X128251000Y-162416000D01*
X141867200Y-162881911D02*
X141867200Y-162893913D01*
X141876484Y-164139375D02*
X141867200Y-164148659D01*
X141749000Y-162763711D02*
X141867200Y-162881911D01*
X141876484Y-162903197D02*
X141876484Y-164139375D01*
X128620264Y-164925000D02*
X128146570Y-164451306D01*
X141867200Y-164168089D02*
X140968089Y-165067200D01*
X140582272Y-165367200D02*
X129062464Y-165367200D01*
X141867200Y-162893913D02*
X141876484Y-162903197D01*
X128138600Y-165018336D02*
X127598100Y-165018336D01*
X126745000Y-140745000D02*
X125300000Y-139300000D01*
X122000000Y-139300000D02*
X121500000Y-138800000D01*
X126745000Y-141584000D02*
X126745000Y-140745000D01*
X125300000Y-139300000D02*
X122000000Y-139300000D01*
X126243000Y-141584000D02*
X126243000Y-140817736D01*
X122700000Y-139800000D02*
X121800000Y-140700000D01*
X125225264Y-139800000D02*
X122700000Y-139800000D01*
X126243000Y-140817736D02*
X125225264Y-139800000D01*
X143255000Y-162416000D02*
X143300000Y-162461000D01*
X143300000Y-165450000D02*
X142750000Y-166000000D01*
X143300000Y-164377197D02*
X143300000Y-165450000D01*
X143186979Y-163201342D02*
X143186979Y-164264176D01*
X143300000Y-163088321D02*
X143186979Y-163201342D01*
X143300000Y-162461000D02*
X143300000Y-163088321D01*
X143186979Y-164264176D02*
X143300000Y-164377197D01*
X143757000Y-162416000D02*
X143757000Y-163373380D01*
X126250000Y-148017129D02*
X126594973Y-148362102D01*
X126250000Y-147416000D02*
X126250000Y-148017129D01*
X143750000Y-155621900D02*
X143750000Y-156584000D01*
X143698100Y-155570000D02*
X143750000Y-155621900D01*
X143255000Y-147416000D02*
X143255000Y-148610649D01*
X143255000Y-148610649D02*
X143291198Y-148646847D01*
X143757000Y-148066000D02*
X144039400Y-148348400D01*
X144039400Y-148348400D02*
X144039400Y-149152539D01*
X143757000Y-147416000D02*
X143757000Y-148066000D01*
X144039400Y-149152539D02*
X143544750Y-149647189D01*
X143750000Y-140800000D02*
X143650000Y-140700000D01*
X143750000Y-141584000D02*
X143750000Y-140800000D01*
X132454100Y-162416000D02*
X131250000Y-162416000D01*
X132740000Y-162701900D02*
X132454100Y-162416000D01*
X130761000Y-162837900D02*
X131798100Y-163875000D01*
X130761000Y-162416000D02*
X130761000Y-162837900D01*
X130250000Y-163066000D02*
X130610698Y-163426698D01*
X130250000Y-162416000D02*
X130250000Y-163066000D01*
X130610698Y-163426698D02*
X130610698Y-163830960D01*
X126745000Y-155505000D02*
X126750000Y-155500000D01*
X126745000Y-156584000D02*
X126745000Y-155505000D01*
X126000000Y-152514836D02*
X126623182Y-151891654D01*
X126243000Y-156584000D02*
X126243000Y-155953817D01*
X126243000Y-155953817D02*
X126000000Y-155710817D01*
X126000000Y-155710817D02*
X126000000Y-152514836D01*
X125901745Y-163388164D02*
X126250000Y-163039909D01*
X126250000Y-163039909D02*
X126250000Y-162416000D01*
X127274373Y-147443373D02*
X127274373Y-151501641D01*
X127274373Y-151501641D02*
X127452525Y-151679793D01*
X127429400Y-155781417D02*
X127247000Y-155963817D01*
X127452525Y-151679793D02*
X127452525Y-152147475D01*
X127429400Y-155218583D02*
X127429400Y-155781417D01*
X127247000Y-147416000D02*
X127274373Y-147443373D01*
X127452525Y-152147475D02*
X127028400Y-152571600D01*
X127028400Y-154817583D02*
X127429400Y-155218583D01*
X127028400Y-152571600D02*
X127028400Y-154817583D01*
X127247000Y-155963817D02*
X127247000Y-156584000D01*
X127835800Y-156497200D02*
X127835800Y-155050247D01*
X127858925Y-152316520D02*
X127858925Y-151511457D01*
X127434800Y-152740645D02*
X127858925Y-152316520D01*
X127434800Y-154649247D02*
X127434800Y-152740645D01*
X127835800Y-155050247D02*
X127434800Y-154649247D01*
X127749000Y-156584000D02*
X127835800Y-156497200D01*
X127858925Y-151511457D02*
X127750000Y-151402532D01*
X127750000Y-151402532D02*
X127750000Y-147416000D01*
X128753000Y-156584000D02*
X128671725Y-156502725D01*
X128671725Y-154658249D02*
X128793600Y-154536374D01*
X128621804Y-148110496D02*
X128753000Y-147979300D01*
X128621804Y-149170768D02*
X128621804Y-148110496D01*
X128793600Y-149342564D02*
X128621804Y-149170768D01*
X128753000Y-147979300D02*
X128753000Y-147416000D01*
X128671725Y-156502725D02*
X128671725Y-154658249D01*
X128793600Y-154536374D02*
X128793600Y-149342564D01*
X129200000Y-154704710D02*
X129200000Y-149174228D01*
X129028204Y-149002432D02*
X129028204Y-148292796D01*
X129028204Y-148292796D02*
X129255000Y-148066000D01*
X129255000Y-156142517D02*
X129078125Y-155965642D01*
X129078125Y-154826585D02*
X129200000Y-154704710D01*
X129078125Y-155965642D02*
X129078125Y-154826585D01*
X129255000Y-148066000D02*
X129255000Y-147416000D01*
X129200000Y-149174228D02*
X129028204Y-149002432D01*
X129255000Y-156584000D02*
X129255000Y-156142517D01*
X141063684Y-163227867D02*
X140745000Y-162909183D01*
X140745000Y-162909183D02*
X140745000Y-162416000D01*
X141063684Y-163802703D02*
X141063684Y-163227867D01*
X140611987Y-164254400D02*
X141063684Y-163802703D01*
X129656027Y-164554400D02*
X140231417Y-164554400D01*
X129255000Y-162999279D02*
X128959370Y-163294909D01*
X129255000Y-162416000D02*
X129255000Y-162999279D01*
X140531417Y-164254400D02*
X140611987Y-164254400D01*
X128959370Y-163294909D02*
X128959370Y-163857743D01*
X128959370Y-163857743D02*
X129656027Y-164554400D01*
X140231417Y-164554400D02*
X140531417Y-164254400D01*
X128552970Y-164026079D02*
X129487691Y-164960800D01*
X128753000Y-162814965D02*
X128552970Y-163014995D01*
X141470084Y-163990469D02*
X141470084Y-163059531D01*
X140799753Y-164660800D02*
X141470084Y-163990469D01*
X128753000Y-162416000D02*
X128753000Y-162814965D01*
X129487691Y-164960800D02*
X140399753Y-164960800D01*
X141470084Y-163059531D02*
X141247000Y-162836447D01*
X140399753Y-164960800D02*
X140699753Y-164660800D01*
X128552970Y-163014995D02*
X128552970Y-164026079D01*
X140699753Y-164660800D02*
X140799753Y-164660800D01*
X141247000Y-162836447D02*
X141247000Y-162416000D01*
X126918700Y-164721036D02*
X126918700Y-165299753D01*
X128125000Y-166440000D02*
X140170025Y-166440000D01*
X142273600Y-164316995D02*
X142282884Y-164307711D01*
X142282884Y-164307711D02*
X142282884Y-162447884D01*
X127324283Y-165705336D02*
X127390336Y-165705336D01*
X140170025Y-166440000D02*
X142273600Y-164336425D01*
X127740170Y-163899566D02*
X126918700Y-164721036D01*
X142282884Y-162447884D02*
X142251000Y-162416000D01*
X127740170Y-162425830D02*
X127740170Y-163899566D01*
X127390336Y-165705336D02*
X128125000Y-166440000D01*
X127750000Y-162416000D02*
X127740170Y-162425830D01*
X142273600Y-164336425D02*
X142273600Y-164316995D01*
X126918700Y-165299753D02*
X127324283Y-165705336D01*
X126537300Y-164527700D02*
X126512300Y-164552700D01*
X126512300Y-164552700D02*
X126512300Y-165468089D01*
X127247000Y-163293000D02*
X126537300Y-164002700D01*
X126537300Y-164002700D02*
X126537300Y-164527700D01*
X140942783Y-166846400D02*
X128056664Y-166846400D01*
X127155947Y-166111736D02*
X127222000Y-166111736D01*
X128006664Y-166896400D02*
X127222000Y-166111736D01*
X128056664Y-166846400D02*
X128006664Y-166896400D01*
X126512300Y-165468089D02*
X127155947Y-166111736D01*
X142753000Y-165036183D02*
X140942783Y-166846400D01*
X142753000Y-162416000D02*
X142753000Y-165036183D01*
X127247000Y-162416000D02*
X127247000Y-163293000D01*
X142865350Y-149383945D02*
X142865350Y-150283451D01*
X142611798Y-148365430D02*
X142611798Y-149130393D01*
X142753000Y-148224230D02*
X142611798Y-148365430D01*
X142753000Y-147416000D02*
X142753000Y-148224230D01*
X142865350Y-150283451D02*
X142753000Y-150395801D01*
X142753000Y-150395801D02*
X142753000Y-156584000D01*
X142611798Y-149130393D02*
X142865350Y-149383945D01*
X142458950Y-150115115D02*
X142458950Y-149552281D01*
X142250000Y-156584000D02*
X142250000Y-150324065D01*
X142250000Y-150324065D02*
X142458950Y-150115115D01*
X142205398Y-148197094D02*
X142251000Y-148151491D01*
X142205398Y-149298729D02*
X142205398Y-148197094D01*
X142458950Y-149552281D02*
X142205398Y-149298729D01*
X142251000Y-148151491D02*
X142251000Y-147416000D01*
X141247000Y-156584000D02*
X141270000Y-156561000D01*
X141270000Y-150285017D02*
X141096400Y-150111417D01*
X141096400Y-150111417D02*
X141096400Y-149556053D01*
X141270000Y-156561000D02*
X141270000Y-150285017D01*
X141328801Y-149323652D02*
X141328801Y-147497801D01*
X141096400Y-149556053D02*
X141328801Y-149323652D01*
X141328801Y-147497801D02*
X141247000Y-147416000D01*
X140680000Y-149397717D02*
X140680000Y-151569753D01*
X140745000Y-147416000D02*
X140745000Y-148481083D01*
X140745000Y-151634753D02*
X140745000Y-156584000D01*
X140889400Y-148625483D02*
X140889400Y-149188317D01*
X140745000Y-148481083D02*
X140889400Y-148625483D01*
X140680000Y-151569753D02*
X140745000Y-151634753D01*
X140889400Y-149188317D02*
X140680000Y-149397717D01*
D72*
X137262500Y-73677500D02*
X137262500Y-75275000D01*
X137262500Y-75275000D02*
X137987500Y-76000000D01*
X136612500Y-75375000D02*
X135987500Y-76000000D01*
X136612500Y-73677500D02*
X136612500Y-75375000D01*
D70*
X152600000Y-84975000D02*
X152600000Y-86812500D01*
X152600000Y-86812500D02*
X152987500Y-87200000D01*
D71*
X118270000Y-82255000D02*
X117830553Y-82255000D01*
X117501153Y-82584400D02*
X116908100Y-82584400D01*
X116908100Y-82584400D02*
X115972500Y-83520000D01*
X117830553Y-82255000D02*
X117501153Y-82584400D01*
D72*
X135900000Y-80900000D02*
X135900000Y-81887500D01*
X150200000Y-76625000D02*
X150200000Y-78400000D01*
X137900000Y-81100000D02*
X138312500Y-81100000D01*
X151000000Y-76625000D02*
X151000000Y-77800000D01*
X151000000Y-77800000D02*
X151300000Y-78100000D01*
X138312500Y-81100000D02*
X139100000Y-81887500D01*
X162558545Y-81377400D02*
X164655945Y-79280000D01*
X171540000Y-80025000D02*
X171540000Y-81080000D01*
X154952400Y-81377400D02*
X162558545Y-81377400D01*
X170795000Y-79280000D02*
X171540000Y-80025000D01*
X164655945Y-79280000D02*
X170795000Y-79280000D01*
X154775000Y-81200000D02*
X154952400Y-81377400D01*
X143337500Y-82800000D02*
X142487500Y-82800000D01*
X151550000Y-82800000D02*
X151600000Y-82750000D01*
X146425000Y-82800000D02*
X151550000Y-82800000D01*
X171500000Y-85160000D02*
X171540000Y-85120000D01*
X171500000Y-86900000D02*
X171500000Y-85160000D01*
X146425000Y-82800000D02*
X143337500Y-82800000D01*
X142487500Y-82800000D02*
X141600000Y-83687500D01*
X169000000Y-87000000D02*
X169000000Y-85120000D01*
X146425000Y-83600000D02*
X144537500Y-83600000D01*
X144537500Y-83600000D02*
X144300000Y-83837500D01*
X152250000Y-83600000D02*
X152300000Y-83650000D01*
X146425000Y-83600000D02*
X152250000Y-83600000D01*
D70*
X155662763Y-78800000D02*
X154775000Y-78800000D01*
X163058600Y-76721400D02*
X157741363Y-76721400D01*
X157741363Y-76721400D02*
X155662763Y-78800000D01*
X166380000Y-73400000D02*
X163058600Y-76721400D01*
D72*
X159000000Y-76191100D02*
X159000000Y-76700000D01*
D71*
X130082500Y-81663100D02*
X130010000Y-81590600D01*
X124385215Y-81590600D02*
X124220815Y-81755000D01*
X134200000Y-78680000D02*
X131289400Y-81590600D01*
X149400000Y-77920000D02*
X149340000Y-77980000D01*
X131289400Y-81590600D02*
X130010000Y-81590600D01*
X130010000Y-81590600D02*
X124385215Y-81590600D01*
X124220815Y-81755000D02*
X123145000Y-81755000D01*
X149400000Y-76625000D02*
X149400000Y-77920000D01*
X130082500Y-82590000D02*
X130082500Y-81663100D01*
X130874400Y-83259285D02*
X130874400Y-83245600D01*
X148600000Y-76103092D02*
X147829408Y-75332500D01*
X148600000Y-76625000D02*
X148600000Y-78687330D01*
X148600000Y-78687330D02*
X148833270Y-78920600D01*
X117555000Y-83755000D02*
X117126659Y-83326659D01*
X147829408Y-75332500D02*
X146230000Y-75332500D01*
X130874400Y-83245600D02*
X134740600Y-79379400D01*
X126912066Y-83853161D02*
X130280524Y-83853161D01*
X134740600Y-79379400D02*
X135200000Y-79379400D01*
X148600000Y-76625000D02*
X148600000Y-76103092D01*
X118270000Y-83755000D02*
X117555000Y-83755000D01*
X130280524Y-83853161D02*
X130874400Y-83259285D01*
D75*
X145299999Y-81200000D02*
X146425000Y-81200000D01*
X139359017Y-80560120D02*
X140300000Y-80560120D01*
X137987500Y-77825000D02*
X137987500Y-79188603D01*
X142400000Y-80219450D02*
X142400000Y-80260120D01*
X142700000Y-80560120D02*
X142850195Y-80560120D01*
X137987500Y-79188603D02*
X139359017Y-80560120D01*
X142850195Y-80560120D02*
X144660119Y-80560120D01*
X140600000Y-80260120D02*
X140600000Y-80219447D01*
X141200000Y-80219447D02*
X141200000Y-80260120D01*
X144660119Y-80560120D02*
X145299999Y-81200000D01*
X141800000Y-80260120D02*
X141800000Y-80219450D01*
X141199953Y-80219447D02*
G75*
G03*
X140900000Y-79919447I-299953J47D01*
G01*
X142400050Y-80219450D02*
G75*
G03*
X142100000Y-79919450I-300050J-50D01*
G01*
X141500000Y-80560100D02*
G75*
G03*
X141800000Y-80260120I0J300000D01*
G01*
X142100000Y-79919500D02*
G75*
G03*
X141800000Y-80219450I0J-300000D01*
G01*
X141199980Y-80260120D02*
G75*
G03*
X141500000Y-80560120I300020J20D01*
G01*
X140900000Y-79919400D02*
G75*
G03*
X140600000Y-80219447I0J-300000D01*
G01*
X140300000Y-80560100D02*
G75*
G03*
X140600000Y-80260120I0J300000D01*
G01*
X142399980Y-80260120D02*
G75*
G03*
X142700000Y-80560120I300020J20D01*
G01*
X135987500Y-77825000D02*
X139172600Y-81010100D01*
X145299999Y-82000000D02*
X146425000Y-82000000D01*
X144310099Y-81010100D02*
X145299999Y-82000000D01*
X139172600Y-81010100D02*
X144310099Y-81010100D01*
D71*
X157300000Y-91800000D02*
X157300000Y-140300000D01*
X150200000Y-84975000D02*
X150200000Y-87100000D01*
X150100000Y-87000000D02*
X150200000Y-87100000D01*
X155500000Y-90000000D02*
X157300000Y-91800000D01*
X150200000Y-89448685D02*
X150751315Y-90000000D01*
X148400000Y-150810000D02*
X148850000Y-151260000D01*
X149312500Y-87000000D02*
X150100000Y-87000000D01*
X157300000Y-140300000D02*
X148400000Y-149200000D01*
X150200000Y-87100000D02*
X150200000Y-89448685D01*
X148400000Y-149200000D02*
X148400000Y-150810000D01*
X150751315Y-90000000D02*
X155500000Y-90000000D01*
X151212500Y-89000000D02*
X155400000Y-89000000D01*
X151000000Y-84975000D02*
X151000000Y-88787500D01*
X151000000Y-88787500D02*
X151212500Y-89000000D01*
X155400000Y-89000000D02*
X157900000Y-91500000D01*
X157900000Y-91500000D02*
X157900000Y-143210000D01*
X157900000Y-143210000D02*
X149850000Y-151260000D01*
X158500000Y-91200000D02*
X156487500Y-89187500D01*
X151800000Y-87473685D02*
X152726315Y-88400000D01*
X158500000Y-144090000D02*
X158500000Y-91200000D01*
X151800000Y-84975000D02*
X151800000Y-87473685D01*
X156487500Y-89187500D02*
X156487500Y-88400000D01*
X149850000Y-152740000D02*
X158500000Y-144090000D01*
X152726315Y-88400000D02*
X156487500Y-88400000D01*
D72*
X168233815Y-94253089D02*
X168196315Y-94290589D01*
D71*
X148800000Y-80300000D02*
X153200000Y-80300000D01*
X147300000Y-78800000D02*
X148100000Y-79600000D01*
X160570726Y-82500000D02*
X160000000Y-82500000D01*
X148100000Y-79600000D02*
X148800000Y-80300000D01*
X153200000Y-80100000D02*
X153400000Y-79900000D01*
X168233815Y-90163089D02*
X160570726Y-82500000D01*
X153200000Y-80300000D02*
X153200000Y-80100000D01*
D72*
X168233815Y-90163089D02*
X168233815Y-94253089D01*
D71*
X146425000Y-78800000D02*
X147300000Y-78800000D01*
X166396315Y-92393089D02*
X167105715Y-91683689D01*
X167105715Y-91683689D02*
X167105715Y-89648804D01*
X147750528Y-80400000D02*
X149200528Y-81850000D01*
X167105715Y-89648804D02*
X166056911Y-88600000D01*
X166056911Y-88600000D02*
X164400000Y-88600000D01*
X164400000Y-88600000D02*
X159515000Y-83715000D01*
X152194519Y-81850000D02*
X152945138Y-81099381D01*
X149200528Y-81850000D02*
X152194519Y-81850000D01*
X159515000Y-83715000D02*
X159515000Y-83415000D01*
X165906315Y-92393089D02*
X166396315Y-92393089D01*
X146425000Y-80400000D02*
X147750528Y-80400000D01*
X163626315Y-91727089D02*
X163626315Y-88642074D01*
X146425000Y-79600000D02*
X147525264Y-79600000D01*
X147525264Y-79600000D02*
X149095864Y-81170600D01*
X162960315Y-92393089D02*
X163626315Y-91727089D01*
X162506315Y-92393089D02*
X162960315Y-92393089D01*
X163626315Y-88642074D02*
X158244886Y-83260645D01*
X149095864Y-81170600D02*
X151803986Y-81170600D01*
G04 #@! TA.AperFunction,Conductor*
G36*
X152563039Y-93624685D02*
G01*
X152608794Y-93677489D01*
X152620000Y-93728999D01*
X152620000Y-109455000D01*
X144820000Y-109455000D01*
X144820000Y-93728999D01*
X144839685Y-93661961D01*
X144892489Y-93616206D01*
X144944000Y-93605000D01*
X152496000Y-93605000D01*
X152563039Y-93624685D01*
G37*
G04 #@! TD.AperFunction*
G04 #@! TA.AperFunction,Conductor*
G36*
X150483951Y-90270911D02*
G01*
X150493116Y-90277404D01*
X150497929Y-90281152D01*
X150503682Y-90286234D01*
X150506498Y-90289050D01*
X150506501Y-90289052D01*
X150525609Y-90302695D01*
X150569160Y-90336592D01*
X150569162Y-90336592D01*
X150576132Y-90340365D01*
X150583221Y-90343830D01*
X150583224Y-90343831D01*
X150583226Y-90343832D01*
X150616658Y-90353784D01*
X150636120Y-90359579D01*
X150662221Y-90368539D01*
X150688321Y-90377500D01*
X150688322Y-90377500D01*
X150696114Y-90378800D01*
X150703972Y-90379780D01*
X150703975Y-90379781D01*
X150703977Y-90379780D01*
X150703978Y-90379781D01*
X150745333Y-90378070D01*
X150759119Y-90377500D01*
X155292273Y-90377500D01*
X155359312Y-90397185D01*
X155379954Y-90413819D01*
X156886181Y-91920046D01*
X156919666Y-91981369D01*
X156922500Y-92007727D01*
X156922500Y-109626081D01*
X156902815Y-109693120D01*
X156850011Y-109738875D01*
X156798523Y-109750081D01*
X153129523Y-109750747D01*
X153062479Y-109731075D01*
X153016715Y-109678279D01*
X153005500Y-109626747D01*
X153005500Y-109579000D01*
X152999661Y-109524687D01*
X152988455Y-109473176D01*
X152981219Y-109446802D01*
X152973477Y-109433206D01*
X152931894Y-109360181D01*
X152931884Y-109360167D01*
X152905787Y-109330049D01*
X152876762Y-109266494D01*
X152875500Y-109248847D01*
X152875500Y-102639691D01*
X152883557Y-102595723D01*
X152936237Y-102456818D01*
X152955278Y-102300000D01*
X152936237Y-102143182D01*
X152883558Y-102004278D01*
X152875500Y-101960307D01*
X152875500Y-93729007D01*
X152875499Y-93728998D01*
X152869660Y-93674685D01*
X152858454Y-93623175D01*
X152858453Y-93623170D01*
X152858453Y-93623169D01*
X152851219Y-93596802D01*
X152851219Y-93596801D01*
X152801891Y-93510177D01*
X152801888Y-93510172D01*
X152756136Y-93457371D01*
X152723359Y-93425743D01*
X152635022Y-93379534D01*
X152635022Y-93379533D01*
X152567990Y-93359851D01*
X152567978Y-93359848D01*
X152496001Y-93349500D01*
X152496000Y-93349500D01*
X144944000Y-93349500D01*
X144943997Y-93349500D01*
X144889687Y-93355338D01*
X144838183Y-93366543D01*
X144838182Y-93366543D01*
X144838176Y-93366545D01*
X144827177Y-93369562D01*
X144811806Y-93373779D01*
X144811796Y-93373783D01*
X144725181Y-93423105D01*
X144725172Y-93423111D01*
X144672371Y-93468864D01*
X144640743Y-93501640D01*
X144594535Y-93589975D01*
X144574849Y-93657011D01*
X144564500Y-93728998D01*
X144564500Y-94031322D01*
X144544815Y-94098361D01*
X144492011Y-94144116D01*
X144422853Y-94154060D01*
X144359297Y-94125035D01*
X144338450Y-94101762D01*
X144311571Y-94062822D01*
X144272983Y-94006917D01*
X144154740Y-93902164D01*
X144154738Y-93902163D01*
X144154737Y-93902162D01*
X144014865Y-93828750D01*
X143861486Y-93790947D01*
X143861485Y-93790947D01*
X143703515Y-93790947D01*
X143703514Y-93790947D01*
X143550134Y-93828750D01*
X143410261Y-93902162D01*
X143410259Y-93902164D01*
X143339726Y-93964650D01*
X143276493Y-93994371D01*
X143207229Y-93985187D01*
X143175274Y-93964650D01*
X143104740Y-93902164D01*
X143104738Y-93902162D01*
X142964865Y-93828750D01*
X142811486Y-93790947D01*
X142811485Y-93790947D01*
X142653515Y-93790947D01*
X142653514Y-93790947D01*
X142500134Y-93828750D01*
X142360262Y-93902162D01*
X142242016Y-94006918D01*
X142152281Y-94136922D01*
X142152280Y-94136923D01*
X142096263Y-94284627D01*
X142079620Y-94421693D01*
X142051998Y-94485871D01*
X142044211Y-94494421D01*
X142037187Y-94501446D01*
X141975867Y-94534935D01*
X141906175Y-94529956D01*
X141850238Y-94488088D01*
X141825817Y-94422626D01*
X141825500Y-94413771D01*
X141825500Y-93929000D01*
X141819661Y-93874687D01*
X141810928Y-93834542D01*
X141808457Y-93823183D01*
X141808456Y-93823182D01*
X141808455Y-93823176D01*
X141801219Y-93796802D01*
X141797061Y-93789500D01*
X141751894Y-93710181D01*
X141751888Y-93710172D01*
X141706136Y-93657371D01*
X141673359Y-93625743D01*
X141585022Y-93579534D01*
X141585022Y-93579533D01*
X141517990Y-93559851D01*
X141517978Y-93559848D01*
X141446001Y-93549500D01*
X141446000Y-93549500D01*
X136194000Y-93549500D01*
X136193997Y-93549500D01*
X136139687Y-93555338D01*
X136088183Y-93566543D01*
X136088182Y-93566543D01*
X136088176Y-93566545D01*
X136077177Y-93569562D01*
X136061806Y-93573779D01*
X136061796Y-93573783D01*
X135975181Y-93623105D01*
X135975172Y-93623111D01*
X135922371Y-93668864D01*
X135922368Y-93668867D01*
X135919262Y-93672085D01*
X135890743Y-93701640D01*
X135844534Y-93789977D01*
X135844533Y-93789977D01*
X135824851Y-93857009D01*
X135824848Y-93857021D01*
X135814500Y-93928998D01*
X135814500Y-96781002D01*
X135820338Y-96835312D01*
X135826727Y-96864678D01*
X135831545Y-96886824D01*
X135835212Y-96900191D01*
X135838779Y-96913193D01*
X135838783Y-96913203D01*
X135888105Y-96999818D01*
X135888111Y-96999827D01*
X135888112Y-96999828D01*
X135933867Y-97052632D01*
X135966641Y-97084257D01*
X136054976Y-97130465D01*
X136054977Y-97130465D01*
X136054977Y-97130466D01*
X136105105Y-97145184D01*
X136122015Y-97150150D01*
X136122019Y-97150150D01*
X136122021Y-97150151D01*
X136133652Y-97151823D01*
X136194000Y-97160500D01*
X136194001Y-97160500D01*
X140203350Y-97160500D01*
X140203355Y-97160500D01*
X140264501Y-97153075D01*
X140322128Y-97138871D01*
X140332576Y-97134907D01*
X140339710Y-97132684D01*
X140420741Y-97112712D01*
X140437418Y-97108603D01*
X140467091Y-97105000D01*
X140532907Y-97105000D01*
X140562580Y-97108603D01*
X140586652Y-97114535D01*
X140660291Y-97132685D01*
X140667427Y-97134909D01*
X140677872Y-97138871D01*
X140735499Y-97153075D01*
X140796645Y-97160500D01*
X140796650Y-97160500D01*
X141203350Y-97160500D01*
X141203355Y-97160500D01*
X141264501Y-97153075D01*
X141322128Y-97138871D01*
X141332576Y-97134907D01*
X141339705Y-97132685D01*
X141452649Y-97104848D01*
X141460856Y-97103402D01*
X141500313Y-97099161D01*
X141551817Y-97087957D01*
X141551817Y-97087956D01*
X141551824Y-97087955D01*
X141578198Y-97080719D01*
X141607074Y-97064275D01*
X141664818Y-97031394D01*
X141664821Y-97031391D01*
X141664828Y-97031388D01*
X141717632Y-96985633D01*
X141749257Y-96952859D01*
X141795465Y-96864524D01*
X141815150Y-96797485D01*
X141825500Y-96725500D01*
X141825500Y-95822182D01*
X141845185Y-95755143D01*
X141897989Y-95709388D01*
X141967147Y-95699444D01*
X141967152Y-95699445D01*
X141974485Y-95700499D01*
X141974486Y-95700500D01*
X141974487Y-95700500D01*
X142118409Y-95700500D01*
X142118409Y-95700499D01*
X142256500Y-95659953D01*
X142377575Y-95582143D01*
X142381512Y-95577598D01*
X142399247Y-95561952D01*
X142403819Y-95557379D01*
X142403823Y-95557377D01*
X142411012Y-95546615D01*
X142426428Y-95527830D01*
X142854496Y-95099762D01*
X142912498Y-95067049D01*
X142964865Y-95054143D01*
X143104740Y-94980730D01*
X143175275Y-94918241D01*
X143238506Y-94888522D01*
X143307770Y-94897706D01*
X143339723Y-94918240D01*
X143410260Y-94980730D01*
X143427665Y-94989865D01*
X143457720Y-95011980D01*
X143973560Y-95527820D01*
X143988980Y-95546609D01*
X143996085Y-95557243D01*
X143996176Y-95557378D01*
X143996179Y-95557380D01*
X144000734Y-95561936D01*
X144018489Y-95577601D01*
X144022425Y-95582143D01*
X144143500Y-95659953D01*
X144143503Y-95659954D01*
X144143502Y-95659954D01*
X144281589Y-95700499D01*
X144281591Y-95700500D01*
X144434383Y-95700500D01*
X144434383Y-95702542D01*
X144492002Y-95710821D01*
X144544810Y-95756572D01*
X144564500Y-95823610D01*
X144564500Y-103571766D01*
X144544815Y-103638805D01*
X144492011Y-103684560D01*
X144422853Y-103694504D01*
X144359297Y-103665479D01*
X144338450Y-103642206D01*
X144317494Y-103611846D01*
X144285483Y-103565470D01*
X144167240Y-103460717D01*
X144167238Y-103460716D01*
X144167237Y-103460715D01*
X144027365Y-103387303D01*
X143873986Y-103349500D01*
X143873985Y-103349500D01*
X143716015Y-103349500D01*
X143716014Y-103349500D01*
X143562634Y-103387303D01*
X143422761Y-103460715D01*
X143422759Y-103460717D01*
X143354735Y-103520980D01*
X143291502Y-103550701D01*
X143222238Y-103541517D01*
X143190283Y-103520980D01*
X143122240Y-103460701D01*
X143122238Y-103460699D01*
X142982365Y-103387287D01*
X142828986Y-103349484D01*
X142828985Y-103349484D01*
X142671015Y-103349484D01*
X142671014Y-103349484D01*
X142517634Y-103387287D01*
X142377762Y-103460699D01*
X142259516Y-103565455D01*
X142169781Y-103695459D01*
X142169780Y-103695460D01*
X142113763Y-103843162D01*
X142113762Y-103843168D01*
X142100227Y-103954639D01*
X142072605Y-104018817D01*
X142064814Y-104027372D01*
X142037181Y-104055004D01*
X141975860Y-104088490D01*
X141906169Y-104083507D01*
X141850234Y-104041636D01*
X141825816Y-103976172D01*
X141825500Y-103967324D01*
X141825500Y-103429000D01*
X141819661Y-103374687D01*
X141814178Y-103349484D01*
X141808457Y-103323183D01*
X141808456Y-103323182D01*
X141808455Y-103323176D01*
X141801219Y-103296802D01*
X141797332Y-103289976D01*
X141751894Y-103210181D01*
X141751888Y-103210172D01*
X141706136Y-103157371D01*
X141673359Y-103125743D01*
X141585022Y-103079534D01*
X141585022Y-103079533D01*
X141517990Y-103059851D01*
X141517978Y-103059848D01*
X141446001Y-103049500D01*
X141446000Y-103049500D01*
X136194000Y-103049500D01*
X136193997Y-103049500D01*
X136139687Y-103055338D01*
X136088183Y-103066543D01*
X136088182Y-103066543D01*
X136088176Y-103066545D01*
X136077177Y-103069562D01*
X136061806Y-103073779D01*
X136061796Y-103073783D01*
X135975181Y-103123105D01*
X135975172Y-103123111D01*
X135922371Y-103168864D01*
X135890743Y-103201640D01*
X135844534Y-103289977D01*
X135844533Y-103289977D01*
X135824851Y-103357009D01*
X135824848Y-103357021D01*
X135814500Y-103428998D01*
X135814500Y-106281002D01*
X135820338Y-106335312D01*
X135831543Y-106386817D01*
X135831545Y-106386824D01*
X135835212Y-106400191D01*
X135838779Y-106413193D01*
X135838783Y-106413203D01*
X135888105Y-106499818D01*
X135888111Y-106499827D01*
X135923905Y-106541136D01*
X135933867Y-106552632D01*
X135966641Y-106584257D01*
X136054976Y-106630465D01*
X136054977Y-106630465D01*
X136054977Y-106630466D01*
X136099218Y-106643456D01*
X136122015Y-106650150D01*
X136122019Y-106650150D01*
X136122021Y-106650151D01*
X136133652Y-106651823D01*
X136194000Y-106660500D01*
X136194001Y-106660500D01*
X141446000Y-106660500D01*
X141500313Y-106654661D01*
X141516440Y-106651152D01*
X141551817Y-106643457D01*
X141551817Y-106643456D01*
X141551824Y-106643455D01*
X141578198Y-106636219D01*
X141607074Y-106619775D01*
X141664818Y-106586894D01*
X141664821Y-106586891D01*
X141664828Y-106586888D01*
X141700938Y-106555597D01*
X141717629Y-106541136D01*
X141731852Y-106526396D01*
X141749257Y-106508359D01*
X141795465Y-106420024D01*
X141795884Y-106418600D01*
X141805216Y-106386817D01*
X141815150Y-106352985D01*
X141825500Y-106281000D01*
X141825500Y-105375734D01*
X141845185Y-105308696D01*
X141897989Y-105262941D01*
X141967147Y-105252997D01*
X141967152Y-105252998D01*
X141974485Y-105254052D01*
X141974486Y-105254053D01*
X141974487Y-105254053D01*
X142118409Y-105254053D01*
X142118409Y-105254052D01*
X142256500Y-105213506D01*
X142377575Y-105135696D01*
X142381512Y-105131151D01*
X142399247Y-105115505D01*
X142403819Y-105110932D01*
X142403823Y-105110930D01*
X142411012Y-105100168D01*
X142426428Y-105081383D01*
X142842158Y-104665653D01*
X142900161Y-104632940D01*
X142982365Y-104612680D01*
X143122240Y-104539267D01*
X143190264Y-104479003D01*
X143253496Y-104449282D01*
X143322759Y-104458465D01*
X143354716Y-104479003D01*
X143422760Y-104539283D01*
X143422759Y-104539283D01*
X143424373Y-104540130D01*
X143454436Y-104562249D01*
X143973560Y-105081373D01*
X143988980Y-105100162D01*
X143996085Y-105110796D01*
X143996176Y-105110931D01*
X143996179Y-105110933D01*
X144000734Y-105115489D01*
X144018489Y-105131154D01*
X144022425Y-105135696D01*
X144143500Y-105213506D01*
X144143503Y-105213507D01*
X144143502Y-105213507D01*
X144281589Y-105254052D01*
X144281591Y-105254053D01*
X144434383Y-105254053D01*
X144434383Y-105256095D01*
X144492002Y-105264374D01*
X144544810Y-105310125D01*
X144564500Y-105377163D01*
X144564500Y-109110496D01*
X144544815Y-109177535D01*
X144499755Y-109219422D01*
X144408772Y-109268916D01*
X144408770Y-109268917D01*
X144408771Y-109268917D01*
X144355088Y-109313637D01*
X144355086Y-109313639D01*
X144322834Y-109345787D01*
X144274918Y-109433206D01*
X144274917Y-109433208D01*
X144270635Y-109446806D01*
X144253932Y-109499850D01*
X144242183Y-109571628D01*
X144241033Y-109630795D01*
X144220048Y-109697439D01*
X144166364Y-109742159D01*
X144117079Y-109752384D01*
X102294023Y-109759977D01*
X102226979Y-109740305D01*
X102181215Y-109687509D01*
X102170000Y-109635977D01*
X102170000Y-104528586D01*
X102189685Y-104461547D01*
X102242489Y-104415792D01*
X102311645Y-104405848D01*
X102344000Y-104410500D01*
X115183976Y-104410500D01*
X115251015Y-104430185D01*
X115296770Y-104482989D01*
X115305593Y-104510308D01*
X115314032Y-104552736D01*
X115314033Y-104552739D01*
X115332405Y-104580234D01*
X115369399Y-104635601D01*
X115414379Y-104665655D01*
X115452260Y-104690966D01*
X115452264Y-104690967D01*
X115525321Y-104705499D01*
X115525324Y-104705500D01*
X115525326Y-104705500D01*
X120569676Y-104705500D01*
X120575739Y-104704903D01*
X120575948Y-104707032D01*
X120635899Y-104712397D01*
X120691077Y-104755259D01*
X120714322Y-104821148D01*
X120714500Y-104827787D01*
X120714500Y-106281002D01*
X120720338Y-106335312D01*
X120731543Y-106386817D01*
X120731545Y-106386824D01*
X120735212Y-106400191D01*
X120738779Y-106413193D01*
X120738783Y-106413203D01*
X120788105Y-106499818D01*
X120788111Y-106499827D01*
X120823905Y-106541136D01*
X120833867Y-106552632D01*
X120866641Y-106584257D01*
X120954976Y-106630465D01*
X120954977Y-106630465D01*
X120954977Y-106630466D01*
X120999218Y-106643456D01*
X121022015Y-106650150D01*
X121022019Y-106650150D01*
X121022021Y-106650151D01*
X121033652Y-106651823D01*
X121094000Y-106660500D01*
X126210500Y-106660500D01*
X126277539Y-106680185D01*
X126323294Y-106732989D01*
X126334500Y-106784500D01*
X126334500Y-107454678D01*
X126349032Y-107527735D01*
X126349033Y-107527739D01*
X126349726Y-107528776D01*
X126404399Y-107610601D01*
X126487259Y-107665966D01*
X126487260Y-107665966D01*
X126487264Y-107665967D01*
X126560321Y-107680499D01*
X126560324Y-107680500D01*
X126560326Y-107680500D01*
X127309676Y-107680500D01*
X127309677Y-107680499D01*
X127382740Y-107665966D01*
X127454233Y-107618196D01*
X127500216Y-107602436D01*
X127499671Y-107599927D01*
X127508335Y-107598041D01*
X127508336Y-107598040D01*
X127508342Y-107598040D01*
X127512989Y-107596306D01*
X127538684Y-107589747D01*
X127543596Y-107589042D01*
X127591189Y-107567306D01*
X127595239Y-107565628D01*
X127644267Y-107547343D01*
X127648236Y-107544371D01*
X127671047Y-107530837D01*
X127671297Y-107530722D01*
X127675558Y-107528777D01*
X127715083Y-107494526D01*
X127718533Y-107491747D01*
X127731221Y-107482250D01*
X127742441Y-107471028D01*
X127745645Y-107468044D01*
X127785196Y-107433775D01*
X127785196Y-107433774D01*
X127791900Y-107427966D01*
X127793027Y-107429266D01*
X127842940Y-107397184D01*
X127848197Y-107395764D01*
X127982365Y-107362696D01*
X128122240Y-107289283D01*
X128240483Y-107184530D01*
X128330220Y-107054523D01*
X128386237Y-106906818D01*
X128402903Y-106769553D01*
X128430526Y-106705375D01*
X128488460Y-106666319D01*
X128526000Y-106660500D01*
X128546000Y-106660500D01*
X128600313Y-106654661D01*
X128616440Y-106651152D01*
X128651817Y-106643457D01*
X128651817Y-106643456D01*
X128651824Y-106643455D01*
X128678198Y-106636219D01*
X128707074Y-106619775D01*
X128764818Y-106586894D01*
X128764821Y-106586891D01*
X128764828Y-106586888D01*
X128800938Y-106555597D01*
X128817629Y-106541136D01*
X128817629Y-106541135D01*
X128817632Y-106541133D01*
X128826458Y-106531986D01*
X128831853Y-106526396D01*
X128892569Y-106491823D01*
X128921083Y-106488500D01*
X131854676Y-106488500D01*
X131854677Y-106488499D01*
X131927740Y-106473966D01*
X132010601Y-106418601D01*
X132065966Y-106335740D01*
X132080500Y-106262674D01*
X132080500Y-103413326D01*
X132080500Y-103413323D01*
X132080499Y-103413321D01*
X132065967Y-103340264D01*
X132065966Y-103340260D01*
X132036931Y-103296806D01*
X132010601Y-103257399D01*
X131927740Y-103202034D01*
X131927739Y-103202033D01*
X131927735Y-103202032D01*
X131854677Y-103187500D01*
X131854674Y-103187500D01*
X129049500Y-103187500D01*
X128982461Y-103167815D01*
X128936706Y-103115011D01*
X128925500Y-103063500D01*
X128925500Y-101129000D01*
X128919661Y-101074687D01*
X128908455Y-101023176D01*
X128901219Y-100996802D01*
X128901216Y-100996796D01*
X128851894Y-100910181D01*
X128851888Y-100910172D01*
X128806136Y-100857371D01*
X128773359Y-100825743D01*
X128685022Y-100779534D01*
X128685022Y-100779533D01*
X128617990Y-100759851D01*
X128617978Y-100759848D01*
X128546001Y-100749500D01*
X128546000Y-100749500D01*
X122224500Y-100749500D01*
X122157461Y-100729815D01*
X122111706Y-100677011D01*
X122100500Y-100625500D01*
X122100500Y-99920323D01*
X122100499Y-99920321D01*
X122085967Y-99847264D01*
X122085966Y-99847260D01*
X122030601Y-99764399D01*
X122030599Y-99764398D01*
X122025396Y-99756610D01*
X122004519Y-99689933D01*
X122004500Y-99687793D01*
X122004500Y-99684460D01*
X122024205Y-99617428D01*
X122077024Y-99571690D01*
X122128500Y-99560500D01*
X128546000Y-99560500D01*
X128600313Y-99554661D01*
X128616440Y-99551152D01*
X128651817Y-99543457D01*
X128651817Y-99543456D01*
X128651824Y-99543455D01*
X128678198Y-99536219D01*
X128707074Y-99519775D01*
X128764818Y-99486894D01*
X128764821Y-99486891D01*
X128764828Y-99486888D01*
X128817632Y-99441133D01*
X128849257Y-99408359D01*
X128895465Y-99320024D01*
X128915150Y-99252985D01*
X128925500Y-99181000D01*
X128925500Y-97214499D01*
X128945185Y-97147461D01*
X128997989Y-97101706D01*
X129049500Y-97090500D01*
X131854676Y-97090500D01*
X131854677Y-97090499D01*
X131927740Y-97075966D01*
X132010601Y-97020601D01*
X132065966Y-96937740D01*
X132080500Y-96864674D01*
X132080500Y-94015326D01*
X132080500Y-94015323D01*
X132080499Y-94015321D01*
X132065967Y-93942264D01*
X132065966Y-93942260D01*
X132039175Y-93902164D01*
X132010601Y-93859399D01*
X131927740Y-93804034D01*
X131927739Y-93804033D01*
X131927735Y-93804032D01*
X131854677Y-93789500D01*
X131854674Y-93789500D01*
X128889503Y-93789500D01*
X128822464Y-93769815D01*
X128803399Y-93754730D01*
X128773361Y-93725744D01*
X128685022Y-93679534D01*
X128685022Y-93679533D01*
X128617990Y-93659851D01*
X128617978Y-93659848D01*
X128546001Y-93649500D01*
X128546000Y-93649500D01*
X123914500Y-93649500D01*
X123847461Y-93629815D01*
X123801706Y-93577011D01*
X123790500Y-93525500D01*
X123790500Y-92812823D01*
X123790499Y-92812821D01*
X123775967Y-92739764D01*
X123775966Y-92739760D01*
X123767182Y-92726614D01*
X123720601Y-92656899D01*
X123637740Y-92601534D01*
X123637739Y-92601533D01*
X123637735Y-92601532D01*
X123564677Y-92587000D01*
X123564674Y-92587000D01*
X122815326Y-92587000D01*
X122815323Y-92587000D01*
X122742264Y-92601532D01*
X122742260Y-92601533D01*
X122659399Y-92656899D01*
X122604034Y-92739760D01*
X122602059Y-92749690D01*
X122569674Y-92811602D01*
X122508958Y-92846176D01*
X122480441Y-92849500D01*
X122421015Y-92849500D01*
X122267635Y-92887304D01*
X122267634Y-92887304D01*
X122260353Y-92889099D01*
X122259905Y-92887285D01*
X122199997Y-92891891D01*
X122138496Y-92858734D01*
X122104684Y-92797591D01*
X122109297Y-92727873D01*
X122109727Y-92726717D01*
X122136237Y-92656818D01*
X122155278Y-92500000D01*
X122136237Y-92343182D01*
X122080220Y-92195477D01*
X121990483Y-92065470D01*
X121872240Y-91960717D01*
X121872238Y-91960716D01*
X121872237Y-91960715D01*
X121732365Y-91887303D01*
X121578986Y-91849500D01*
X121578985Y-91849500D01*
X121421015Y-91849500D01*
X121421014Y-91849500D01*
X121267634Y-91887303D01*
X121127762Y-91960715D01*
X121009516Y-92065471D01*
X120919781Y-92195475D01*
X120919780Y-92195476D01*
X120863762Y-92343181D01*
X120844721Y-92499999D01*
X120844722Y-92500001D01*
X120854488Y-92580438D01*
X120843027Y-92649361D01*
X120796123Y-92701147D01*
X120728667Y-92719353D01*
X120683942Y-92709945D01*
X120681741Y-92709033D01*
X120608677Y-92694500D01*
X120608674Y-92694500D01*
X116313674Y-92694500D01*
X115564326Y-92694500D01*
X115564323Y-92694500D01*
X115491264Y-92709032D01*
X115491260Y-92709033D01*
X115408399Y-92764399D01*
X115353033Y-92847260D01*
X115353032Y-92847264D01*
X115338500Y-92920321D01*
X115338500Y-93669678D01*
X115353032Y-93742735D01*
X115353033Y-93742739D01*
X115408399Y-93825601D01*
X115410342Y-93826899D01*
X115413622Y-93830824D01*
X115417035Y-93834237D01*
X115416729Y-93834542D01*
X115455146Y-93880512D01*
X115463852Y-93949838D01*
X115433696Y-94012864D01*
X115410342Y-94033101D01*
X115408399Y-94034398D01*
X115353033Y-94117260D01*
X115353032Y-94117264D01*
X115338500Y-94190321D01*
X115338500Y-94939678D01*
X115353032Y-95012735D01*
X115353033Y-95012739D01*
X115408399Y-95095601D01*
X115410342Y-95096899D01*
X115413622Y-95100824D01*
X115417035Y-95104237D01*
X115416729Y-95104542D01*
X115455146Y-95150512D01*
X115463852Y-95219838D01*
X115433696Y-95282864D01*
X115410342Y-95303101D01*
X115408399Y-95304398D01*
X115395090Y-95324316D01*
X115381677Y-95344391D01*
X115328067Y-95389195D01*
X115278576Y-95399500D01*
X107179500Y-95399500D01*
X107112461Y-95379815D01*
X107066706Y-95327011D01*
X107055500Y-95275500D01*
X107055500Y-92040323D01*
X107055499Y-92040321D01*
X107040967Y-91967264D01*
X107040966Y-91967260D01*
X107009419Y-91920046D01*
X106985601Y-91884399D01*
X106902740Y-91829034D01*
X106902739Y-91829033D01*
X106902735Y-91829032D01*
X106829677Y-91814500D01*
X106829674Y-91814500D01*
X102970326Y-91814500D01*
X102970323Y-91814500D01*
X102897264Y-91829032D01*
X102897260Y-91829033D01*
X102814399Y-91884399D01*
X102759033Y-91967260D01*
X102759032Y-91967264D01*
X102744500Y-92040321D01*
X102744500Y-95275500D01*
X102724815Y-95342539D01*
X102672011Y-95388294D01*
X102620500Y-95399500D01*
X102344000Y-95399500D01*
X102307252Y-95403450D01*
X102238494Y-95391044D01*
X102187357Y-95343433D01*
X102170000Y-95280161D01*
X102170000Y-90383977D01*
X102189685Y-90316938D01*
X102242489Y-90271183D01*
X102293974Y-90259977D01*
X118443700Y-90257045D01*
X118461866Y-90258996D01*
X118468054Y-90259438D01*
X118468058Y-90259440D01*
X118520245Y-90263172D01*
X118524595Y-90263639D01*
X118540317Y-90265900D01*
X118556169Y-90265900D01*
X118560591Y-90266057D01*
X118612760Y-90269789D01*
X118617610Y-90268733D01*
X118643967Y-90265900D01*
X122896033Y-90265900D01*
X122922389Y-90268733D01*
X122927240Y-90269789D01*
X122979408Y-90266057D01*
X122983831Y-90265900D01*
X122999682Y-90265900D01*
X122999683Y-90265900D01*
X123015404Y-90263639D01*
X123019756Y-90263172D01*
X123071942Y-90259440D01*
X123071944Y-90259438D01*
X123073802Y-90259035D01*
X123100137Y-90256200D01*
X150416912Y-90251240D01*
X150483951Y-90270911D01*
G37*
G04 #@! TD.AperFunction*
G04 #@! TA.AperFunction,Conductor*
G36*
X120613039Y-95924685D02*
G01*
X120658794Y-95977489D01*
X120670000Y-96029000D01*
X120670000Y-98500780D01*
X120650315Y-98567819D01*
X120638150Y-98583752D01*
X120517466Y-98717785D01*
X120422821Y-98881715D01*
X120422818Y-98881722D01*
X120364327Y-99061740D01*
X120364326Y-99061744D01*
X120344540Y-99250000D01*
X120364326Y-99438256D01*
X120364327Y-99438259D01*
X120422818Y-99618277D01*
X120422821Y-99618284D01*
X120517467Y-99782216D01*
X120617650Y-99893480D01*
X120647880Y-99956471D01*
X120649500Y-99976452D01*
X120649500Y-100692870D01*
X120649501Y-100692876D01*
X120655908Y-100752483D01*
X120655909Y-100752486D01*
X120662181Y-100769300D01*
X120670000Y-100812635D01*
X120670000Y-101047364D01*
X120662182Y-101090696D01*
X120655909Y-101107514D01*
X120655908Y-101107516D01*
X120649501Y-101167116D01*
X120649500Y-101167135D01*
X120649500Y-101962870D01*
X120649501Y-101962876D01*
X120655908Y-102022483D01*
X120655909Y-102022486D01*
X120662181Y-102039300D01*
X120670000Y-102082635D01*
X120670000Y-102317364D01*
X120662182Y-102360696D01*
X120655909Y-102377514D01*
X120655908Y-102377516D01*
X120649501Y-102437116D01*
X120649500Y-102437135D01*
X120649500Y-103232870D01*
X120649501Y-103232876D01*
X120655908Y-103292483D01*
X120655909Y-103292486D01*
X120662181Y-103309300D01*
X120670000Y-103352635D01*
X120670000Y-103587364D01*
X120662182Y-103630696D01*
X120655909Y-103647514D01*
X120655908Y-103647516D01*
X120649501Y-103707116D01*
X120649500Y-103707135D01*
X120649500Y-103781000D01*
X120629815Y-103848039D01*
X120577011Y-103893794D01*
X120525500Y-103905000D01*
X102344000Y-103905000D01*
X102276961Y-103885315D01*
X102231206Y-103832511D01*
X102220000Y-103781000D01*
X102220000Y-96029000D01*
X102239685Y-95961961D01*
X102292489Y-95916206D01*
X102344000Y-95905000D01*
X120546000Y-95905000D01*
X120613039Y-95924685D01*
G37*
G04 #@! TD.AperFunction*
G04 #@! TA.AperFunction,Conductor*
G36*
X141513039Y-93824685D02*
G01*
X141558794Y-93877489D01*
X141570000Y-93929000D01*
X141570000Y-96725500D01*
X141550315Y-96792539D01*
X141497511Y-96838294D01*
X141446000Y-96849500D01*
X141421014Y-96849500D01*
X141267636Y-96887303D01*
X141260982Y-96890796D01*
X141203355Y-96905000D01*
X140796645Y-96905000D01*
X140739018Y-96890796D01*
X140732363Y-96887303D01*
X140578986Y-96849500D01*
X140578985Y-96849500D01*
X140421015Y-96849500D01*
X140421014Y-96849500D01*
X140267636Y-96887303D01*
X140260982Y-96890796D01*
X140203355Y-96905000D01*
X136194000Y-96905000D01*
X136126961Y-96885315D01*
X136081206Y-96832511D01*
X136070000Y-96781000D01*
X136070000Y-93929000D01*
X136089685Y-93861961D01*
X136142489Y-93816206D01*
X136194000Y-93805000D01*
X141446000Y-93805000D01*
X141513039Y-93824685D01*
G37*
G04 #@! TD.AperFunction*
G04 #@! TA.AperFunction,Conductor*
G36*
X121996197Y-93924685D02*
G01*
X122011378Y-93936178D01*
X122103914Y-94018157D01*
X122127762Y-94039285D01*
X122267634Y-94112696D01*
X122421014Y-94150500D01*
X122421015Y-94150500D01*
X122578985Y-94150500D01*
X122732365Y-94112696D01*
X122872237Y-94039285D01*
X122872238Y-94039283D01*
X122872240Y-94039283D01*
X122988617Y-93936182D01*
X123051848Y-93906463D01*
X123070842Y-93905000D01*
X128546000Y-93905000D01*
X128613039Y-93924685D01*
X128658794Y-93977489D01*
X128670000Y-94029000D01*
X128670000Y-99181000D01*
X128650315Y-99248039D01*
X128597511Y-99293794D01*
X128546000Y-99305000D01*
X122046293Y-99305000D01*
X121979254Y-99285315D01*
X121947023Y-99255306D01*
X121944365Y-99251755D01*
X121930841Y-99228961D01*
X121928777Y-99224443D01*
X121928777Y-99224442D01*
X121922654Y-99217376D01*
X121893629Y-99153821D01*
X121893271Y-99151118D01*
X121886237Y-99093181D01*
X121864992Y-99037163D01*
X121830220Y-98945477D01*
X121740483Y-98815470D01*
X121622240Y-98710717D01*
X121622238Y-98710716D01*
X121622237Y-98710715D01*
X121482365Y-98637303D01*
X121328986Y-98599500D01*
X121328985Y-98599500D01*
X121299500Y-98599500D01*
X121232461Y-98579815D01*
X121186706Y-98527011D01*
X121175500Y-98475500D01*
X121175500Y-96029010D01*
X121175500Y-96029000D01*
X121163947Y-95921544D01*
X121152741Y-95870033D01*
X121152637Y-95869722D01*
X121118616Y-95767502D01*
X121118613Y-95767496D01*
X121040828Y-95646462D01*
X121040825Y-95646457D01*
X121000285Y-95599672D01*
X120971261Y-95536120D01*
X120970000Y-95518484D01*
X120970000Y-94029000D01*
X120989685Y-93961960D01*
X121042489Y-93916206D01*
X121094000Y-93905000D01*
X121929158Y-93905000D01*
X121996197Y-93924685D01*
G37*
G04 #@! TD.AperFunction*
G04 #@! TA.AperFunction,Conductor*
G36*
X107443039Y-81519685D02*
G01*
X107488794Y-81572489D01*
X107500000Y-81624000D01*
X107500000Y-89876000D01*
X107480315Y-89943039D01*
X107427511Y-89988794D01*
X107376000Y-90000000D01*
X102624000Y-90000000D01*
X102556961Y-89980315D01*
X102511206Y-89927511D01*
X102500000Y-89876000D01*
X102500000Y-81624000D01*
X102519685Y-81556961D01*
X102572489Y-81511206D01*
X102624000Y-81500000D01*
X107376000Y-81500000D01*
X107443039Y-81519685D01*
G37*
G04 #@! TD.AperFunction*
G04 #@! TA.AperFunction,Conductor*
G36*
X128613039Y-101024685D02*
G01*
X128658794Y-101077489D01*
X128670000Y-101129000D01*
X128670000Y-106281000D01*
X128650315Y-106348039D01*
X128597511Y-106393794D01*
X128546000Y-106405000D01*
X128367361Y-106405000D01*
X128300322Y-106385315D01*
X128265311Y-106351440D01*
X128262963Y-106348039D01*
X128240483Y-106315470D01*
X128122240Y-106210717D01*
X128122238Y-106210716D01*
X128122237Y-106210715D01*
X127982365Y-106137303D01*
X127828986Y-106099500D01*
X127828985Y-106099500D01*
X127671015Y-106099500D01*
X127671014Y-106099500D01*
X127517634Y-106137303D01*
X127377762Y-106210715D01*
X127259516Y-106315470D01*
X127234689Y-106351440D01*
X127180407Y-106395430D01*
X127132639Y-106405000D01*
X121094000Y-106405000D01*
X121026961Y-106385315D01*
X120981206Y-106332511D01*
X120970000Y-106281000D01*
X120970000Y-106099500D01*
X120970000Y-104265753D01*
X120989684Y-104198718D01*
X121000280Y-104184561D01*
X121055067Y-104121336D01*
X121114838Y-103990459D01*
X121134523Y-103923420D01*
X121134524Y-103923416D01*
X121155000Y-103781000D01*
X121155000Y-103754098D01*
X121159418Y-103721293D01*
X121159650Y-103720450D01*
X121167468Y-103677118D01*
X121167469Y-103677115D01*
X121167468Y-103677116D01*
X121175500Y-103587364D01*
X121175500Y-103352635D01*
X121167467Y-103262878D01*
X121167468Y-103262878D01*
X121159648Y-103219540D01*
X121159421Y-103218711D01*
X121155000Y-103185897D01*
X121155000Y-102484098D01*
X121159418Y-102451293D01*
X121159650Y-102450450D01*
X121167468Y-102407118D01*
X121167469Y-102407115D01*
X121167468Y-102407116D01*
X121175500Y-102317364D01*
X121175500Y-102082635D01*
X121167467Y-101992878D01*
X121167468Y-101992878D01*
X121159648Y-101949540D01*
X121159421Y-101948711D01*
X121155000Y-101915897D01*
X121155000Y-101214098D01*
X121159418Y-101181293D01*
X121159650Y-101180450D01*
X121167468Y-101137118D01*
X121167469Y-101137115D01*
X121167468Y-101137116D01*
X121169183Y-101117947D01*
X121194764Y-101052930D01*
X121251436Y-101012064D01*
X121292690Y-101005000D01*
X128546000Y-101005000D01*
X128613039Y-101024685D01*
G37*
G04 #@! TD.AperFunction*
G04 #@! TA.AperFunction,Conductor*
G36*
X141513039Y-103324685D02*
G01*
X141558794Y-103377489D01*
X141570000Y-103429000D01*
X141570000Y-106281000D01*
X141550315Y-106348039D01*
X141497511Y-106393794D01*
X141446000Y-106405000D01*
X136194000Y-106405000D01*
X136126961Y-106385315D01*
X136081206Y-106332511D01*
X136070000Y-106281000D01*
X136070000Y-103429000D01*
X136089685Y-103361961D01*
X136142489Y-103316206D01*
X136194000Y-103305000D01*
X141446000Y-103305000D01*
X141513039Y-103324685D01*
G37*
G04 #@! TD.AperFunction*
G04 #@! TA.AperFunction,Conductor*
G36*
X152693039Y-109474685D02*
G01*
X152738794Y-109527489D01*
X152750000Y-109579000D01*
X152750000Y-118949401D01*
X152730315Y-119016440D01*
X152714599Y-119036154D01*
X141000000Y-130999998D01*
X140900000Y-135387000D01*
X140906405Y-136255036D01*
X140887215Y-136322219D01*
X140834750Y-136368362D01*
X140812084Y-136376348D01*
X140767632Y-136387304D01*
X140627762Y-136460715D01*
X140509516Y-136565471D01*
X140419781Y-136695475D01*
X140419780Y-136695476D01*
X140363762Y-136843181D01*
X140344722Y-136999999D01*
X140344722Y-137000000D01*
X140363762Y-137156818D01*
X140399087Y-137249960D01*
X140419780Y-137304523D01*
X140509517Y-137434530D01*
X140627760Y-137539283D01*
X140767635Y-137612696D01*
X140823084Y-137626362D01*
X140883464Y-137661517D01*
X140915254Y-137723736D01*
X140917407Y-137745844D01*
X140921321Y-138276095D01*
X140902131Y-138343278D01*
X140849667Y-138389421D01*
X140780583Y-138399875D01*
X140716815Y-138371320D01*
X140715131Y-138369855D01*
X140682240Y-138340717D01*
X140682237Y-138340714D01*
X140542365Y-138267303D01*
X140388986Y-138229500D01*
X140388985Y-138229500D01*
X140231015Y-138229500D01*
X140231014Y-138229500D01*
X140077634Y-138267303D01*
X139937762Y-138340715D01*
X139819516Y-138445471D01*
X139729781Y-138575475D01*
X139729780Y-138575476D01*
X139673762Y-138723181D01*
X139654722Y-138879999D01*
X139660590Y-138928330D01*
X139649129Y-138997254D01*
X139625175Y-139030957D01*
X139439470Y-139216662D01*
X139419617Y-139232785D01*
X139410420Y-139238794D01*
X139388489Y-139266969D01*
X139383412Y-139272720D01*
X139380585Y-139275548D01*
X139380575Y-139275560D01*
X139366932Y-139294666D01*
X139333035Y-139338217D01*
X139329276Y-139345164D01*
X139325796Y-139352282D01*
X139310048Y-139405177D01*
X139292128Y-139457378D01*
X139290827Y-139465176D01*
X139289847Y-139473034D01*
X139292129Y-139528174D01*
X139292129Y-139846168D01*
X139272444Y-139913207D01*
X139219640Y-139958962D01*
X139150482Y-139968906D01*
X139138456Y-139966565D01*
X139069217Y-139949500D01*
X139069214Y-139949500D01*
X138911244Y-139949500D01*
X138911243Y-139949500D01*
X138757863Y-139987303D01*
X138617991Y-140060715D01*
X138499745Y-140165471D01*
X138410010Y-140295475D01*
X138410009Y-140295476D01*
X138353992Y-140443180D01*
X138347348Y-140497894D01*
X138319725Y-140562072D01*
X138261790Y-140601128D01*
X138194578Y-140603343D01*
X138178986Y-140599500D01*
X138178985Y-140599500D01*
X138021015Y-140599500D01*
X138021014Y-140599500D01*
X137867634Y-140637303D01*
X137727762Y-140710715D01*
X137609516Y-140815471D01*
X137519781Y-140945475D01*
X137519780Y-140945476D01*
X137463762Y-141093181D01*
X137444722Y-141249999D01*
X137444722Y-141250000D01*
X137463762Y-141406818D01*
X137517179Y-141547664D01*
X137519780Y-141554523D01*
X137609517Y-141684530D01*
X137727760Y-141789283D01*
X137727762Y-141789284D01*
X137867634Y-141862696D01*
X138021014Y-141900500D01*
X138183462Y-141900500D01*
X138241765Y-141917619D01*
X138242804Y-141915700D01*
X138258817Y-141924365D01*
X138265907Y-141927831D01*
X138308849Y-141940615D01*
X138367485Y-141978609D01*
X138395085Y-142035268D01*
X138403532Y-142077736D01*
X138403533Y-142077739D01*
X138403534Y-142077740D01*
X138458899Y-142160601D01*
X138505500Y-142191738D01*
X138541760Y-142215966D01*
X138541764Y-142215967D01*
X138614821Y-142230499D01*
X138614824Y-142230500D01*
X138614826Y-142230500D01*
X138885176Y-142230500D01*
X138885177Y-142230499D01*
X138912251Y-142225114D01*
X138970219Y-142213584D01*
X138971114Y-142218085D01*
X139015684Y-142212986D01*
X139018722Y-142213878D01*
X139018781Y-142213584D01*
X139103821Y-142230499D01*
X139103824Y-142230500D01*
X139103826Y-142230500D01*
X139374176Y-142230500D01*
X139374177Y-142230499D01*
X139401251Y-142225114D01*
X139459219Y-142213584D01*
X139459443Y-142214714D01*
X139516504Y-142208574D01*
X139541517Y-142215918D01*
X139614821Y-142230499D01*
X139614824Y-142230500D01*
X139839182Y-142230500D01*
X139906221Y-142250185D01*
X139950582Y-142300040D01*
X139952480Y-142303923D01*
X139956784Y-142309951D01*
X139961301Y-142315755D01*
X139999188Y-142350633D01*
X140096611Y-142448056D01*
X140112735Y-142467912D01*
X140117866Y-142475765D01*
X140117867Y-142475767D01*
X140117868Y-142475768D01*
X140117869Y-142475769D01*
X140143956Y-142496073D01*
X140149701Y-142501146D01*
X140152159Y-142503604D01*
X140152160Y-142503605D01*
X140169973Y-142516322D01*
X140210600Y-142547944D01*
X140217070Y-142551445D01*
X140223718Y-142554695D01*
X140223721Y-142554697D01*
X140273056Y-142569385D01*
X140310023Y-142582076D01*
X140321745Y-142586100D01*
X140321748Y-142586100D01*
X140329062Y-142587320D01*
X140336343Y-142588227D01*
X140336345Y-142588228D01*
X140336346Y-142588227D01*
X140346543Y-142589499D01*
X140346330Y-142591201D01*
X140346540Y-142591264D01*
X140346470Y-142591493D01*
X140401581Y-142605224D01*
X140426602Y-142624546D01*
X140556181Y-142754125D01*
X140589666Y-142815448D01*
X140592500Y-142841806D01*
X140592500Y-146273900D01*
X140572815Y-146340939D01*
X140520011Y-146386694D01*
X140468500Y-146397900D01*
X140359179Y-146397900D01*
X140333732Y-146395261D01*
X140331542Y-146394801D01*
X140324549Y-146393335D01*
X140291760Y-146397423D01*
X140284083Y-146397900D01*
X140280621Y-146397900D01*
X140259017Y-146401505D01*
X140207940Y-146407871D01*
X140200878Y-146409973D01*
X140193892Y-146412372D01*
X140148610Y-146436878D01*
X140102370Y-146459482D01*
X140096347Y-146463783D01*
X140090548Y-146468297D01*
X140088805Y-146470191D01*
X140055672Y-146506183D01*
X140034352Y-146527502D01*
X140028942Y-146532912D01*
X140009095Y-146549029D01*
X140001235Y-146554164D01*
X140001228Y-146554171D01*
X139980931Y-146580248D01*
X139975855Y-146585998D01*
X139973408Y-146588446D01*
X139973396Y-146588460D01*
X139960680Y-146606268D01*
X139929053Y-146646904D01*
X139925534Y-146653407D01*
X139922302Y-146660020D01*
X139916090Y-146680885D01*
X139878094Y-146739519D01*
X139814429Y-146768304D01*
X139797246Y-146769500D01*
X139605824Y-146769500D01*
X139520783Y-146786416D01*
X139520289Y-146783936D01*
X139467975Y-146789557D01*
X139453210Y-146785221D01*
X139374176Y-146769500D01*
X139374174Y-146769500D01*
X139103826Y-146769500D01*
X139103824Y-146769500D01*
X139018783Y-146786416D01*
X139018289Y-146783935D01*
X138965982Y-146789559D01*
X138951204Y-146785220D01*
X138872176Y-146769500D01*
X138872174Y-146769500D01*
X138601826Y-146769500D01*
X138601823Y-146769500D01*
X138528764Y-146784032D01*
X138528760Y-146784033D01*
X138445899Y-146839399D01*
X138390533Y-146922260D01*
X138390532Y-146922264D01*
X138376000Y-146995321D01*
X138376000Y-147208500D01*
X138356315Y-147275539D01*
X138303511Y-147321294D01*
X138252000Y-147332500D01*
X138134928Y-147332500D01*
X138067889Y-147312815D01*
X138032878Y-147278939D01*
X138030485Y-147275472D01*
X138007000Y-147254666D01*
X137912240Y-147170717D01*
X137912238Y-147170716D01*
X137912237Y-147170715D01*
X137772365Y-147097303D01*
X137618986Y-147059500D01*
X137618985Y-147059500D01*
X137461015Y-147059500D01*
X137461014Y-147059500D01*
X137307634Y-147097303D01*
X137167762Y-147170715D01*
X137049516Y-147275471D01*
X136959781Y-147405475D01*
X136959780Y-147405476D01*
X136903762Y-147553181D01*
X136884722Y-147709999D01*
X136884722Y-147710000D01*
X136903762Y-147866818D01*
X136937886Y-147956793D01*
X136959780Y-148014523D01*
X137049517Y-148144530D01*
X137167760Y-148249283D01*
X137167762Y-148249284D01*
X137307634Y-148322696D01*
X137461014Y-148360500D01*
X137461015Y-148360500D01*
X137618985Y-148360500D01*
X137772365Y-148322696D01*
X137830873Y-148291987D01*
X137899382Y-148278262D01*
X137964435Y-148303754D01*
X138005380Y-148360370D01*
X138012500Y-148401784D01*
X138012500Y-152732869D01*
X138009861Y-152758317D01*
X138007606Y-152769066D01*
X138012023Y-152804498D01*
X138012500Y-152812174D01*
X138012500Y-152816164D01*
X138016362Y-152839310D01*
X138023189Y-152894084D01*
X138025446Y-152901663D01*
X138028017Y-152909152D01*
X138054285Y-152957690D01*
X138078524Y-153007273D01*
X138083110Y-153013696D01*
X138087983Y-153019957D01*
X138128590Y-153057338D01*
X138275175Y-153203923D01*
X138308660Y-153265246D01*
X138310590Y-153306549D01*
X138304722Y-153354881D01*
X138304722Y-153354882D01*
X138323762Y-153511699D01*
X138330286Y-153528901D01*
X138364442Y-153618963D01*
X138372500Y-153662932D01*
X138372500Y-156615281D01*
X138382554Y-156675533D01*
X138387309Y-156704024D01*
X138389000Y-156724434D01*
X138389000Y-157004678D01*
X138403532Y-157077735D01*
X138403533Y-157077739D01*
X138403534Y-157077740D01*
X138458899Y-157160601D01*
X138505500Y-157191738D01*
X138541760Y-157215966D01*
X138541764Y-157215967D01*
X138614821Y-157230499D01*
X138614824Y-157230500D01*
X138614826Y-157230500D01*
X138885176Y-157230500D01*
X138885177Y-157230499D01*
X138902219Y-157227109D01*
X138970219Y-157213584D01*
X138971114Y-157218085D01*
X139015684Y-157212986D01*
X139018722Y-157213878D01*
X139018781Y-157213584D01*
X139103821Y-157230499D01*
X139103824Y-157230500D01*
X139103826Y-157230500D01*
X139374176Y-157230500D01*
X139374177Y-157230499D01*
X139391219Y-157227109D01*
X139459219Y-157213584D01*
X139459443Y-157214714D01*
X139516504Y-157208574D01*
X139541517Y-157215918D01*
X139614821Y-157230499D01*
X139614824Y-157230500D01*
X139794356Y-157230500D01*
X139861395Y-157250185D01*
X139903410Y-157295482D01*
X139929876Y-157344386D01*
X139952482Y-157390626D01*
X139956791Y-157396660D01*
X139961299Y-157402453D01*
X139961300Y-157402454D01*
X139961301Y-157402455D01*
X139999186Y-157437331D01*
X140021560Y-157459705D01*
X140035908Y-157474053D01*
X140052033Y-157493909D01*
X140057166Y-157501765D01*
X140057167Y-157501767D01*
X140057168Y-157501768D01*
X140057169Y-157501769D01*
X140083256Y-157522073D01*
X140089001Y-157527146D01*
X140091460Y-157529605D01*
X140091463Y-157529607D01*
X140109279Y-157542327D01*
X140148979Y-157573227D01*
X140149902Y-157573945D01*
X140149906Y-157573946D01*
X140156387Y-157577454D01*
X140163018Y-157580696D01*
X140163021Y-157580698D01*
X140212366Y-157595388D01*
X140261045Y-157612100D01*
X140261051Y-157612100D01*
X140268370Y-157613321D01*
X140275645Y-157614227D01*
X140275646Y-157614228D01*
X140275646Y-157614227D01*
X140275647Y-157614228D01*
X140301371Y-157613164D01*
X140327097Y-157612100D01*
X140468500Y-157612100D01*
X140535539Y-157631785D01*
X140581294Y-157684589D01*
X140592500Y-157736100D01*
X140592500Y-161239100D01*
X140572815Y-161306139D01*
X140520011Y-161351894D01*
X140468500Y-161363100D01*
X140320411Y-161363100D01*
X140294966Y-161360461D01*
X140284216Y-161358207D01*
X140284213Y-161358207D01*
X140248783Y-161362623D01*
X140241107Y-161363100D01*
X140237119Y-161363100D01*
X140221686Y-161365674D01*
X140213970Y-161366962D01*
X140159192Y-161373790D01*
X140151646Y-161376037D01*
X140144131Y-161378617D01*
X140095591Y-161404885D01*
X140046011Y-161429123D01*
X140039573Y-161433719D01*
X140033327Y-161438581D01*
X140012662Y-161461029D01*
X139989264Y-161480847D01*
X139983792Y-161484422D01*
X139961855Y-161512605D01*
X139956774Y-161518358D01*
X139955819Y-161519313D01*
X139953952Y-161521181D01*
X139953946Y-161521189D01*
X139940303Y-161540295D01*
X139906406Y-161583846D01*
X139902647Y-161590793D01*
X139899167Y-161597911D01*
X139883419Y-161650806D01*
X139871420Y-161685761D01*
X139831035Y-161742777D01*
X139766236Y-161768908D01*
X139754138Y-161769500D01*
X139605824Y-161769500D01*
X139520783Y-161786416D01*
X139520289Y-161783936D01*
X139467975Y-161789557D01*
X139453210Y-161785221D01*
X139374176Y-161769500D01*
X139374174Y-161769500D01*
X139103826Y-161769500D01*
X139103824Y-161769500D01*
X139018783Y-161786416D01*
X139018289Y-161783935D01*
X138965982Y-161789559D01*
X138951204Y-161785220D01*
X138872176Y-161769500D01*
X138872174Y-161769500D01*
X138601826Y-161769500D01*
X138601823Y-161769500D01*
X138528764Y-161784032D01*
X138528760Y-161784033D01*
X138445899Y-161839399D01*
X138390533Y-161922260D01*
X138390532Y-161922264D01*
X138374811Y-162001300D01*
X138373147Y-162000969D01*
X138350024Y-162058234D01*
X138292989Y-162098592D01*
X138246953Y-162103432D01*
X138246953Y-162104585D01*
X138081482Y-162104585D01*
X137928102Y-162142388D01*
X137788230Y-162215800D01*
X137788227Y-162215802D01*
X137788228Y-162215802D01*
X137687608Y-162304943D01*
X137669984Y-162320556D01*
X137592066Y-162433440D01*
X137537783Y-162477430D01*
X137490016Y-162487000D01*
X133439800Y-162487000D01*
X133372761Y-162467315D01*
X133327006Y-162414511D01*
X133323858Y-162406970D01*
X133320220Y-162397378D01*
X133320220Y-162397377D01*
X133230483Y-162267370D01*
X133112240Y-162162617D01*
X133112238Y-162162616D01*
X133112237Y-162162615D01*
X132972365Y-162089203D01*
X132818986Y-162051400D01*
X132818985Y-162051400D01*
X132661015Y-162051400D01*
X132661009Y-162051400D01*
X132634537Y-162057925D01*
X132564735Y-162054855D01*
X132564602Y-162054809D01*
X132517095Y-162038499D01*
X132509299Y-162037198D01*
X132501436Y-162036218D01*
X132448186Y-162038421D01*
X132446296Y-162038500D01*
X131721352Y-162038500D01*
X131654313Y-162018815D01*
X131608558Y-161966011D01*
X131599735Y-161938691D01*
X131596467Y-161922263D01*
X131596466Y-161922260D01*
X131596465Y-161922259D01*
X131541101Y-161839399D01*
X131461624Y-161786295D01*
X131458239Y-161784033D01*
X131458235Y-161784032D01*
X131385177Y-161769500D01*
X131385174Y-161769500D01*
X131114826Y-161769500D01*
X131114824Y-161769500D01*
X131029783Y-161786416D01*
X131028915Y-161782054D01*
X130982688Y-161786720D01*
X130981241Y-161786295D01*
X130981217Y-161786416D01*
X130896176Y-161769500D01*
X130896174Y-161769500D01*
X130625826Y-161769500D01*
X130625824Y-161769500D01*
X130540783Y-161786416D01*
X130540558Y-161785287D01*
X130483474Y-161791420D01*
X130458478Y-161784080D01*
X130385176Y-161769500D01*
X130385174Y-161769500D01*
X130247361Y-161769500D01*
X130180322Y-161749815D01*
X130134567Y-161697011D01*
X130124313Y-161660839D01*
X130124272Y-161660518D01*
X130123809Y-161656796D01*
X130123807Y-161656793D01*
X130121552Y-161649218D01*
X130118983Y-161641731D01*
X130092712Y-161593187D01*
X130091542Y-161590793D01*
X130068476Y-161543611D01*
X130068475Y-161543610D01*
X130068474Y-161543607D01*
X130063895Y-161537194D01*
X130059023Y-161530935D01*
X130059020Y-161530929D01*
X130026827Y-161501292D01*
X130007001Y-161477883D01*
X130003418Y-161472399D01*
X130001976Y-161470191D01*
X130001974Y-161470189D01*
X129987015Y-161458546D01*
X129973795Y-161448256D01*
X129968034Y-161443168D01*
X129965213Y-161440347D01*
X129965211Y-161440346D01*
X129962739Y-161438581D01*
X129946105Y-161426704D01*
X129918072Y-161404885D01*
X129902557Y-161392809D01*
X129895594Y-161389042D01*
X129888491Y-161385569D01*
X129888489Y-161385568D01*
X129876353Y-161381954D01*
X129835593Y-161369819D01*
X129783395Y-161351899D01*
X129775599Y-161350598D01*
X129767736Y-161349618D01*
X129714486Y-161351821D01*
X129712596Y-161351900D01*
X129531500Y-161351900D01*
X129464461Y-161332215D01*
X129418706Y-161279411D01*
X129407500Y-161227900D01*
X129407500Y-157767850D01*
X129427185Y-157700811D01*
X129479989Y-157655056D01*
X129531500Y-157643850D01*
X129672639Y-157643850D01*
X129698084Y-157646489D01*
X129708834Y-157648743D01*
X129728514Y-157646289D01*
X129744267Y-157644327D01*
X129751943Y-157643850D01*
X129755928Y-157643850D01*
X129755931Y-157643850D01*
X129779078Y-157639987D01*
X129833853Y-157633160D01*
X129833859Y-157633156D01*
X129841430Y-157630903D01*
X129848915Y-157628333D01*
X129848919Y-157628333D01*
X129878918Y-157612098D01*
X129897457Y-157602065D01*
X129911114Y-157595388D01*
X129947039Y-157577826D01*
X129947041Y-157577823D01*
X129953479Y-157573227D01*
X129959717Y-157568373D01*
X129959718Y-157568371D01*
X129959721Y-157568370D01*
X129985952Y-157539873D01*
X130009359Y-157520050D01*
X130016209Y-157515576D01*
X130038147Y-157487388D01*
X130043226Y-157481638D01*
X130046052Y-157478814D01*
X130059695Y-157459705D01*
X130093592Y-157416155D01*
X130093593Y-157416149D01*
X130097344Y-157409219D01*
X130100829Y-157402093D01*
X130100832Y-157402089D01*
X130104245Y-157390626D01*
X130116579Y-157349195D01*
X130122208Y-157332794D01*
X130128580Y-157314235D01*
X130168965Y-157257222D01*
X130233764Y-157231091D01*
X130245861Y-157230500D01*
X130394176Y-157230500D01*
X130394177Y-157230499D01*
X130411219Y-157227109D01*
X130479219Y-157213584D01*
X130479712Y-157216066D01*
X130532004Y-157210439D01*
X130546788Y-157214778D01*
X130625821Y-157230499D01*
X130625824Y-157230500D01*
X130625826Y-157230500D01*
X130896176Y-157230500D01*
X130896177Y-157230499D01*
X130913219Y-157227109D01*
X130981219Y-157213584D01*
X130981712Y-157216066D01*
X131034004Y-157210439D01*
X131048788Y-157214778D01*
X131127821Y-157230499D01*
X131127824Y-157230500D01*
X131127826Y-157230500D01*
X131398176Y-157230500D01*
X131398177Y-157230499D01*
X131471240Y-157215966D01*
X131554101Y-157160601D01*
X131609466Y-157077740D01*
X131609466Y-157077738D01*
X131610996Y-157074046D01*
X131654838Y-157019643D01*
X131721132Y-156997579D01*
X131725557Y-156997500D01*
X131945072Y-156997500D01*
X132012111Y-157017185D01*
X132047122Y-157051061D01*
X132049514Y-157054527D01*
X132049516Y-157054529D01*
X132049517Y-157054530D01*
X132167760Y-157159283D01*
X132167762Y-157159284D01*
X132307634Y-157232696D01*
X132461014Y-157270500D01*
X132461015Y-157270500D01*
X132618985Y-157270500D01*
X132772365Y-157232696D01*
X132776551Y-157230499D01*
X132912240Y-157159283D01*
X133030483Y-157054530D01*
X133120220Y-156924523D01*
X133176237Y-156776818D01*
X133195278Y-156620000D01*
X133176237Y-156463182D01*
X133120220Y-156315477D01*
X133030483Y-156185470D01*
X132912240Y-156080717D01*
X132912238Y-156080716D01*
X132912237Y-156080715D01*
X132772365Y-156007303D01*
X132618986Y-155969500D01*
X132618985Y-155969500D01*
X132461015Y-155969500D01*
X132461014Y-155969500D01*
X132307634Y-156007303D01*
X132167762Y-156080715D01*
X132049514Y-156185472D01*
X132047122Y-156188939D01*
X132044715Y-156190889D01*
X132044543Y-156191084D01*
X132044510Y-156191055D01*
X131992840Y-156232930D01*
X131945072Y-156242500D01*
X131764500Y-156242500D01*
X131697461Y-156222815D01*
X131651706Y-156170011D01*
X131640500Y-156118500D01*
X131640500Y-152518151D01*
X131643139Y-152492706D01*
X131643177Y-152492522D01*
X131645393Y-152481956D01*
X131643365Y-152465687D01*
X131640977Y-152446521D01*
X131640500Y-152438845D01*
X131640500Y-152434863D01*
X131640499Y-152434855D01*
X131636637Y-152411710D01*
X131628539Y-152346739D01*
X131629345Y-152346638D01*
X131626124Y-152308505D01*
X131629667Y-152279330D01*
X131640690Y-152188552D01*
X131634821Y-152140218D01*
X131646281Y-152071297D01*
X131670233Y-152037595D01*
X131844657Y-151863171D01*
X131864516Y-151847046D01*
X131873706Y-151841042D01*
X131873706Y-151841041D01*
X131873709Y-151841040D01*
X131895659Y-151812837D01*
X131900719Y-151807109D01*
X131903552Y-151804278D01*
X131917195Y-151785169D01*
X131951092Y-151741619D01*
X131951093Y-151741613D01*
X131954844Y-151734683D01*
X131958329Y-151727557D01*
X131958332Y-151727553D01*
X131958334Y-151727547D01*
X131966535Y-151700000D01*
X133844721Y-151700000D01*
X133863762Y-151856818D01*
X133896516Y-151943182D01*
X133919780Y-152004523D01*
X134006087Y-152129560D01*
X134009518Y-152134531D01*
X134027290Y-152150276D01*
X134064417Y-152209465D01*
X134063649Y-152279330D01*
X134047115Y-152313529D01*
X134011389Y-152365289D01*
X133955371Y-152512993D01*
X133936331Y-152669811D01*
X133936331Y-152669812D01*
X133955371Y-152826630D01*
X133980954Y-152894085D01*
X134011389Y-152974335D01*
X134101126Y-153104342D01*
X134219369Y-153209095D01*
X134219371Y-153209096D01*
X134359243Y-153282508D01*
X134512623Y-153320312D01*
X134512624Y-153320312D01*
X134670594Y-153320312D01*
X134823974Y-153282508D01*
X134969595Y-153206080D01*
X135038103Y-153192354D01*
X135103157Y-153217846D01*
X135109447Y-153223060D01*
X135127759Y-153239282D01*
X135127761Y-153239284D01*
X135267634Y-153312696D01*
X135421014Y-153350500D01*
X135421015Y-153350500D01*
X135578985Y-153350500D01*
X135732365Y-153312696D01*
X135744077Y-153306549D01*
X135872240Y-153239283D01*
X135990483Y-153134530D01*
X136080220Y-153004523D01*
X136136237Y-152856818D01*
X136155278Y-152700000D01*
X136151613Y-152669811D01*
X136136237Y-152543181D01*
X136095157Y-152434863D01*
X136080220Y-152395477D01*
X135993912Y-152270438D01*
X135972030Y-152204086D01*
X135989495Y-152136434D01*
X135993905Y-152129571D01*
X136080220Y-152004523D01*
X136136237Y-151856818D01*
X136155278Y-151700000D01*
X136137267Y-151551660D01*
X136136237Y-151543181D01*
X136100708Y-151449500D01*
X136080220Y-151395477D01*
X135990483Y-151265470D01*
X135872240Y-151160717D01*
X135872238Y-151160716D01*
X135872237Y-151160715D01*
X135732365Y-151087303D01*
X135578986Y-151049500D01*
X135578985Y-151049500D01*
X135421015Y-151049500D01*
X135421014Y-151049500D01*
X135267634Y-151087303D01*
X135127761Y-151160715D01*
X135127759Y-151160717D01*
X135082226Y-151201055D01*
X135018992Y-151230776D01*
X134949729Y-151221592D01*
X134917774Y-151201055D01*
X134872240Y-151160717D01*
X134872238Y-151160715D01*
X134732365Y-151087303D01*
X134578986Y-151049500D01*
X134578985Y-151049500D01*
X134421015Y-151049500D01*
X134421014Y-151049500D01*
X134267634Y-151087303D01*
X134127762Y-151160715D01*
X134009516Y-151265471D01*
X133919781Y-151395475D01*
X133919780Y-151395476D01*
X133863762Y-151543181D01*
X133844721Y-151699999D01*
X133844721Y-151700000D01*
X131966535Y-151700000D01*
X131974079Y-151674658D01*
X131992000Y-151622457D01*
X131993303Y-151614647D01*
X131994281Y-151606805D01*
X131991999Y-151551660D01*
X131991999Y-149834528D01*
X131991999Y-148118001D01*
X131994637Y-148092570D01*
X131996893Y-148081816D01*
X131994559Y-148063091D01*
X131992477Y-148046381D01*
X131992000Y-148038705D01*
X131992000Y-148034723D01*
X131991999Y-148034715D01*
X131988137Y-148011570D01*
X131984153Y-147979606D01*
X131981310Y-147956797D01*
X131981309Y-147956795D01*
X131981309Y-147956793D01*
X131979062Y-147949246D01*
X131976482Y-147941728D01*
X131950215Y-147893192D01*
X131925974Y-147843607D01*
X131921390Y-147837187D01*
X131916518Y-147830927D01*
X131875909Y-147793544D01*
X131663818Y-147581452D01*
X131630333Y-147520129D01*
X131627500Y-147493779D01*
X131627500Y-147384719D01*
X131612690Y-147295970D01*
X131611000Y-147275567D01*
X131611000Y-146995323D01*
X131610999Y-146995321D01*
X131596467Y-146922264D01*
X131596466Y-146922260D01*
X131596465Y-146922259D01*
X131541101Y-146839399D01*
X131461624Y-146786295D01*
X131458239Y-146784033D01*
X131458235Y-146784032D01*
X131385177Y-146769500D01*
X131385174Y-146769500D01*
X131114826Y-146769500D01*
X131114824Y-146769500D01*
X131029783Y-146786416D01*
X131028915Y-146782054D01*
X130982688Y-146786720D01*
X130981241Y-146786295D01*
X130981217Y-146786416D01*
X130896176Y-146769500D01*
X130896174Y-146769500D01*
X130625826Y-146769500D01*
X130625824Y-146769500D01*
X130540783Y-146786416D01*
X130540558Y-146785287D01*
X130483474Y-146791420D01*
X130458478Y-146784080D01*
X130385176Y-146769500D01*
X130385174Y-146769500D01*
X130247361Y-146769500D01*
X130180322Y-146749815D01*
X130134567Y-146697011D01*
X130124313Y-146660839D01*
X130124211Y-146660020D01*
X130123809Y-146656796D01*
X130123807Y-146656793D01*
X130121552Y-146649218D01*
X130118983Y-146641731D01*
X130092712Y-146593187D01*
X130068474Y-146543607D01*
X130063895Y-146537194D01*
X130059023Y-146530935D01*
X130059020Y-146530929D01*
X130026827Y-146501292D01*
X130007001Y-146477883D01*
X130001976Y-146470191D01*
X130001974Y-146470189D01*
X129987015Y-146458546D01*
X129973795Y-146448256D01*
X129968034Y-146443168D01*
X129965213Y-146440347D01*
X129965211Y-146440346D01*
X129960354Y-146436878D01*
X129946105Y-146426704D01*
X129913729Y-146401505D01*
X129902557Y-146392809D01*
X129895594Y-146389042D01*
X129888491Y-146385569D01*
X129888489Y-146385568D01*
X129876353Y-146381954D01*
X129835593Y-146369819D01*
X129783395Y-146351899D01*
X129775599Y-146350598D01*
X129767736Y-146349618D01*
X129714486Y-146351821D01*
X129712596Y-146351900D01*
X129531500Y-146351900D01*
X129464461Y-146332215D01*
X129418706Y-146279411D01*
X129407500Y-146227900D01*
X129407500Y-142772100D01*
X129427185Y-142705061D01*
X129479989Y-142659306D01*
X129531500Y-142648100D01*
X129668389Y-142648100D01*
X129693834Y-142650739D01*
X129704584Y-142652993D01*
X129724264Y-142650539D01*
X129740017Y-142648577D01*
X129747693Y-142648100D01*
X129751678Y-142648100D01*
X129751681Y-142648100D01*
X129774828Y-142644237D01*
X129829603Y-142637410D01*
X129829609Y-142637406D01*
X129837180Y-142635153D01*
X129844665Y-142632583D01*
X129844669Y-142632583D01*
X129868938Y-142619448D01*
X129893207Y-142606315D01*
X129905603Y-142600254D01*
X129942789Y-142582076D01*
X129942791Y-142582073D01*
X129949226Y-142577479D01*
X129955472Y-142572619D01*
X129985103Y-142540431D01*
X130008514Y-142520602D01*
X130016209Y-142515576D01*
X130038147Y-142487388D01*
X130043226Y-142481638D01*
X130046052Y-142478814D01*
X130059695Y-142459705D01*
X130093592Y-142416155D01*
X130093593Y-142416149D01*
X130097344Y-142409219D01*
X130100829Y-142402093D01*
X130100832Y-142402089D01*
X130100834Y-142402083D01*
X130116579Y-142349195D01*
X130122208Y-142332794D01*
X130128580Y-142314235D01*
X130168965Y-142257222D01*
X130233764Y-142231091D01*
X130245861Y-142230500D01*
X130394176Y-142230500D01*
X130394177Y-142230499D01*
X130421251Y-142225114D01*
X130479219Y-142213584D01*
X130479712Y-142216066D01*
X130532004Y-142210439D01*
X130546788Y-142214778D01*
X130625821Y-142230499D01*
X130625824Y-142230500D01*
X130625826Y-142230500D01*
X130896176Y-142230500D01*
X130896177Y-142230499D01*
X130923251Y-142225114D01*
X130981219Y-142213584D01*
X130981712Y-142216066D01*
X131034004Y-142210439D01*
X131048788Y-142214778D01*
X131127821Y-142230499D01*
X131127824Y-142230500D01*
X131127826Y-142230500D01*
X131398176Y-142230500D01*
X131398177Y-142230499D01*
X131471240Y-142215966D01*
X131554101Y-142160601D01*
X131609466Y-142077740D01*
X131609467Y-142077736D01*
X131612735Y-142061309D01*
X131645119Y-141999398D01*
X131705835Y-141964824D01*
X131734352Y-141961500D01*
X131853456Y-141961500D01*
X131878901Y-141964139D01*
X131889651Y-141966393D01*
X131909331Y-141963939D01*
X131925084Y-141961977D01*
X131932760Y-141961500D01*
X131936745Y-141961500D01*
X131936748Y-141961500D01*
X131959895Y-141957637D01*
X132014670Y-141950810D01*
X132014676Y-141950806D01*
X132022247Y-141948553D01*
X132029732Y-141945983D01*
X132029736Y-141945983D01*
X132078275Y-141919714D01*
X132086486Y-141915700D01*
X132105838Y-141906240D01*
X132160297Y-141893641D01*
X132325311Y-141893641D01*
X132478691Y-141855837D01*
X132478690Y-141855837D01*
X132618566Y-141782424D01*
X132736809Y-141677671D01*
X132826546Y-141547664D01*
X132882563Y-141399959D01*
X132901604Y-141243141D01*
X132888994Y-141139283D01*
X132882563Y-141086322D01*
X132852631Y-141007399D01*
X132826546Y-140938618D01*
X132736809Y-140808611D01*
X132618566Y-140703858D01*
X132618564Y-140703857D01*
X132618563Y-140703856D01*
X132478691Y-140630444D01*
X132325312Y-140592641D01*
X132325311Y-140592641D01*
X132264239Y-140592641D01*
X132197200Y-140572956D01*
X132151445Y-140520152D01*
X132141143Y-140483587D01*
X132139261Y-140468089D01*
X132136237Y-140443182D01*
X132080220Y-140295477D01*
X131990483Y-140165470D01*
X131872240Y-140060717D01*
X131872238Y-140060716D01*
X131872237Y-140060715D01*
X131732365Y-139987303D01*
X131578986Y-139949500D01*
X131578985Y-139949500D01*
X131421015Y-139949500D01*
X131421014Y-139949500D01*
X131267635Y-139987303D01*
X131208525Y-140018327D01*
X131140017Y-140032051D01*
X131074964Y-140006559D01*
X131034020Y-139949943D01*
X131026900Y-139908530D01*
X131026900Y-138711415D01*
X131029539Y-138685970D01*
X131029842Y-138684525D01*
X131031793Y-138675220D01*
X131029728Y-138658657D01*
X131027377Y-138639787D01*
X131026900Y-138632111D01*
X131026900Y-138628126D01*
X131026898Y-138628113D01*
X131023035Y-138604964D01*
X131023034Y-138604963D01*
X131016209Y-138550200D01*
X131016206Y-138550195D01*
X131015331Y-138547253D01*
X131011079Y-138496919D01*
X131017326Y-138445471D01*
X131025276Y-138380002D01*
X131006235Y-138223184D01*
X130950218Y-138075479D01*
X130860481Y-137945472D01*
X130742238Y-137840719D01*
X130742236Y-137840718D01*
X130742235Y-137840717D01*
X130602363Y-137767305D01*
X130448984Y-137729502D01*
X130448983Y-137729502D01*
X130291013Y-137729502D01*
X130291012Y-137729502D01*
X130131174Y-137768897D01*
X130061372Y-137765827D01*
X130004310Y-137725507D01*
X129978105Y-137660738D01*
X129977500Y-137648500D01*
X129977500Y-131055327D01*
X129997185Y-130988288D01*
X130013819Y-130967646D01*
X131747046Y-129234419D01*
X131808369Y-129200934D01*
X131834727Y-129198100D01*
X131978985Y-129198100D01*
X132132365Y-129160296D01*
X132132364Y-129160296D01*
X132272240Y-129086883D01*
X132390483Y-128982130D01*
X132480220Y-128852123D01*
X132536237Y-128704418D01*
X132555278Y-128547600D01*
X132536237Y-128390782D01*
X132480220Y-128243077D01*
X132390483Y-128113070D01*
X132272240Y-128008317D01*
X132272238Y-128008316D01*
X132272237Y-128008315D01*
X132132365Y-127934903D01*
X131978986Y-127897100D01*
X131978985Y-127897100D01*
X131821015Y-127897100D01*
X131821014Y-127897100D01*
X131667634Y-127934903D01*
X131629217Y-127955067D01*
X131560709Y-127968793D01*
X131495655Y-127943301D01*
X131454711Y-127886685D01*
X131450875Y-127816921D01*
X131483099Y-127758408D01*
X144400000Y-114600000D01*
X144497636Y-109576590D01*
X144518621Y-109509946D01*
X144572304Y-109465226D01*
X144621614Y-109455000D01*
X144820000Y-109455000D01*
X152620000Y-109455000D01*
X152626000Y-109455000D01*
X152693039Y-109474685D01*
G37*
G04 #@! TD.AperFunction*
M02*
