G04 #@! TF.GenerationSoftware,KiCad,Pcbnew,7.0.7-7.0.7~ubuntu22.04.1*
G04 #@! TF.CreationDate,2023-11-13T10:42:29+01:00*
G04 #@! TF.ProjectId,piaxe,70696178-652e-46b6-9963-61645f706362,rev?*
G04 #@! TF.SameCoordinates,Original*
G04 #@! TF.FileFunction,Copper,L1,Top*
G04 #@! TF.FilePolarity,Positive*
%FSLAX46Y46*%
G04 Gerber Fmt 4.6, Leading zero omitted, Abs format (unit mm)*
G04 Created by KiCad (PCBNEW 7.0.7-7.0.7~ubuntu22.04.1) date 2023-11-13 10:42:29*
%MOMM*%
%LPD*%
G01*
G04 APERTURE LIST*
G04 Aperture macros list*
%AMRoundRect*
0 Rectangle with rounded corners*
0 $1 Rounding radius*
0 $2 $3 $4 $5 $6 $7 $8 $9 X,Y pos of 4 corners*
0 Add a 4 corners polygon primitive as box body*
4,1,4,$2,$3,$4,$5,$6,$7,$8,$9,$2,$3,0*
0 Add four circle primitives for the rounded corners*
1,1,$1+$1,$2,$3*
1,1,$1+$1,$4,$5*
1,1,$1+$1,$6,$7*
1,1,$1+$1,$8,$9*
0 Add four rect primitives between the rounded corners*
20,1,$1+$1,$2,$3,$4,$5,0*
20,1,$1+$1,$4,$5,$6,$7,0*
20,1,$1+$1,$6,$7,$8,$9,0*
20,1,$1+$1,$8,$9,$2,$3,0*%
%AMFreePoly0*
4,1,5,0.500000,-2.250000,-0.500000,-2.250000,-0.500000,2.250000,0.500000,2.250000,0.500000,-2.250000,0.500000,-2.250000,$1*%
%AMFreePoly1*
4,1,19,0.550000,-0.750000,0.000000,-0.750000,0.000000,-0.744911,-0.071157,-0.744911,-0.207708,-0.704816,-0.327430,-0.627875,-0.420627,-0.520320,-0.479746,-0.390866,-0.500000,-0.250000,-0.500000,0.250000,-0.479746,0.390866,-0.420627,0.520320,-0.327430,0.627875,-0.207708,0.704816,-0.071157,0.744911,0.000000,0.744911,0.000000,0.750000,0.550000,0.750000,0.550000,-0.750000,0.550000,-0.750000,
$1*%
%AMFreePoly2*
4,1,19,0.000000,0.744911,0.071157,0.744911,0.207708,0.704816,0.327430,0.627875,0.420627,0.520320,0.479746,0.390866,0.500000,0.250000,0.500000,-0.250000,0.479746,-0.390866,0.420627,-0.520320,0.327430,-0.627875,0.207708,-0.704816,0.071157,-0.744911,0.000000,-0.744911,0.000000,-0.750000,-0.550000,-0.750000,-0.550000,0.750000,0.000000,0.750000,0.000000,0.744911,0.000000,0.744911,
$1*%
G04 Aperture macros list end*
G04 #@! TA.AperFunction,SMDPad,CuDef*
%ADD10RoundRect,0.150000X0.150000X-0.587500X0.150000X0.587500X-0.150000X0.587500X-0.150000X-0.587500X0*%
G04 #@! TD*
G04 #@! TA.AperFunction,ComponentPad*
%ADD11R,1.700000X1.700000*%
G04 #@! TD*
G04 #@! TA.AperFunction,ComponentPad*
%ADD12O,1.700000X1.700000*%
G04 #@! TD*
G04 #@! TA.AperFunction,SMDPad,CuDef*
%ADD13RoundRect,0.150000X-0.150000X0.512500X-0.150000X-0.512500X0.150000X-0.512500X0.150000X0.512500X0*%
G04 #@! TD*
G04 #@! TA.AperFunction,SMDPad,CuDef*
%ADD14RoundRect,0.250000X0.262500X0.450000X-0.262500X0.450000X-0.262500X-0.450000X0.262500X-0.450000X0*%
G04 #@! TD*
G04 #@! TA.AperFunction,SMDPad,CuDef*
%ADD15RoundRect,0.250000X-0.475000X0.250000X-0.475000X-0.250000X0.475000X-0.250000X0.475000X0.250000X0*%
G04 #@! TD*
G04 #@! TA.AperFunction,SMDPad,CuDef*
%ADD16RoundRect,0.250000X-0.262500X-0.450000X0.262500X-0.450000X0.262500X0.450000X-0.262500X0.450000X0*%
G04 #@! TD*
G04 #@! TA.AperFunction,SMDPad,CuDef*
%ADD17RoundRect,0.250000X0.450000X-0.262500X0.450000X0.262500X-0.450000X0.262500X-0.450000X-0.262500X0*%
G04 #@! TD*
G04 #@! TA.AperFunction,SMDPad,CuDef*
%ADD18RoundRect,0.250000X0.250000X0.475000X-0.250000X0.475000X-0.250000X-0.475000X0.250000X-0.475000X0*%
G04 #@! TD*
G04 #@! TA.AperFunction,SMDPad,CuDef*
%ADD19RoundRect,0.250000X1.250000X0.550000X-1.250000X0.550000X-1.250000X-0.550000X1.250000X-0.550000X0*%
G04 #@! TD*
G04 #@! TA.AperFunction,ComponentPad*
%ADD20C,5.600000*%
G04 #@! TD*
G04 #@! TA.AperFunction,SMDPad,CuDef*
%ADD21FreePoly0,0.000000*%
G04 #@! TD*
G04 #@! TA.AperFunction,SMDPad,CuDef*
%ADD22RoundRect,0.250000X-0.450000X0.262500X-0.450000X-0.262500X0.450000X-0.262500X0.450000X0.262500X0*%
G04 #@! TD*
G04 #@! TA.AperFunction,SMDPad,CuDef*
%ADD23R,2.800000X3.300000*%
G04 #@! TD*
G04 #@! TA.AperFunction,SMDPad,CuDef*
%ADD24RoundRect,0.250000X-0.625000X0.375000X-0.625000X-0.375000X0.625000X-0.375000X0.625000X0.375000X0*%
G04 #@! TD*
G04 #@! TA.AperFunction,SMDPad,CuDef*
%ADD25RoundRect,0.250000X-0.325000X-1.100000X0.325000X-1.100000X0.325000X1.100000X-0.325000X1.100000X0*%
G04 #@! TD*
G04 #@! TA.AperFunction,SMDPad,CuDef*
%ADD26RoundRect,0.250000X-1.000000X-0.900000X1.000000X-0.900000X1.000000X0.900000X-1.000000X0.900000X0*%
G04 #@! TD*
G04 #@! TA.AperFunction,SMDPad,CuDef*
%ADD27RoundRect,0.250000X-0.625000X0.312500X-0.625000X-0.312500X0.625000X-0.312500X0.625000X0.312500X0*%
G04 #@! TD*
G04 #@! TA.AperFunction,SMDPad,CuDef*
%ADD28RoundRect,0.250000X-0.250000X-0.475000X0.250000X-0.475000X0.250000X0.475000X-0.250000X0.475000X0*%
G04 #@! TD*
G04 #@! TA.AperFunction,SMDPad,CuDef*
%ADD29RoundRect,0.250000X0.325000X1.100000X-0.325000X1.100000X-0.325000X-1.100000X0.325000X-1.100000X0*%
G04 #@! TD*
G04 #@! TA.AperFunction,ComponentPad*
%ADD30R,1.730000X2.030000*%
G04 #@! TD*
G04 #@! TA.AperFunction,ComponentPad*
%ADD31O,1.730000X2.030000*%
G04 #@! TD*
G04 #@! TA.AperFunction,SMDPad,CuDef*
%ADD32R,0.400000X0.650000*%
G04 #@! TD*
G04 #@! TA.AperFunction,SMDPad,CuDef*
%ADD33R,0.700000X0.700000*%
G04 #@! TD*
G04 #@! TA.AperFunction,SMDPad,CuDef*
%ADD34R,4.510000X4.350000*%
G04 #@! TD*
G04 #@! TA.AperFunction,SMDPad,CuDef*
%ADD35C,2.000000*%
G04 #@! TD*
G04 #@! TA.AperFunction,SMDPad,CuDef*
%ADD36R,0.792000X0.221000*%
G04 #@! TD*
G04 #@! TA.AperFunction,SMDPad,CuDef*
%ADD37R,4.277000X1.810000*%
G04 #@! TD*
G04 #@! TA.AperFunction,SMDPad,CuDef*
%ADD38R,4.277000X4.530000*%
G04 #@! TD*
G04 #@! TA.AperFunction,SMDPad,CuDef*
%ADD39RoundRect,0.250000X-1.500000X-1.000000X1.500000X-1.000000X1.500000X1.000000X-1.500000X1.000000X0*%
G04 #@! TD*
G04 #@! TA.AperFunction,SMDPad,CuDef*
%ADD40RoundRect,0.250000X0.475000X-0.250000X0.475000X0.250000X-0.475000X0.250000X-0.475000X-0.250000X0*%
G04 #@! TD*
G04 #@! TA.AperFunction,SMDPad,CuDef*
%ADD41FreePoly1,180.000000*%
G04 #@! TD*
G04 #@! TA.AperFunction,SMDPad,CuDef*
%ADD42R,1.000000X1.500000*%
G04 #@! TD*
G04 #@! TA.AperFunction,SMDPad,CuDef*
%ADD43FreePoly2,180.000000*%
G04 #@! TD*
G04 #@! TA.AperFunction,SMDPad,CuDef*
%ADD44RoundRect,0.050000X-0.285000X-0.100000X0.285000X-0.100000X0.285000X0.100000X-0.285000X0.100000X0*%
G04 #@! TD*
G04 #@! TA.AperFunction,ComponentPad*
%ADD45R,2.600000X2.600000*%
G04 #@! TD*
G04 #@! TA.AperFunction,ComponentPad*
%ADD46C,2.600000*%
G04 #@! TD*
G04 #@! TA.AperFunction,SMDPad,CuDef*
%ADD47R,4.245000X3.810000*%
G04 #@! TD*
G04 #@! TA.AperFunction,SMDPad,CuDef*
%ADD48R,0.280000X0.850000*%
G04 #@! TD*
G04 #@! TA.AperFunction,ComponentPad*
%ADD49C,0.600000*%
G04 #@! TD*
G04 #@! TA.AperFunction,SMDPad,CuDef*
%ADD50R,0.700000X0.280000*%
G04 #@! TD*
G04 #@! TA.AperFunction,SMDPad,CuDef*
%ADD51R,2.400000X1.650000*%
G04 #@! TD*
G04 #@! TA.AperFunction,ViaPad*
%ADD52C,0.800000*%
G04 #@! TD*
G04 #@! TA.AperFunction,ViaPad*
%ADD53C,1.000000*%
G04 #@! TD*
G04 #@! TA.AperFunction,Conductor*
%ADD54C,0.254000*%
G04 #@! TD*
G04 #@! TA.AperFunction,Conductor*
%ADD55C,0.400000*%
G04 #@! TD*
G04 #@! TA.AperFunction,Conductor*
%ADD56C,0.508000*%
G04 #@! TD*
G04 #@! TA.AperFunction,Conductor*
%ADD57C,1.000000*%
G04 #@! TD*
G04 #@! TA.AperFunction,Conductor*
%ADD58C,0.800000*%
G04 #@! TD*
G04 APERTURE END LIST*
D10*
X175237500Y-67525000D03*
X177137500Y-67525000D03*
X176187500Y-65650000D03*
D11*
X195720000Y-74800000D03*
D12*
X198260000Y-74800000D03*
X200800000Y-74800000D03*
X203340000Y-74800000D03*
X205880000Y-74800000D03*
D13*
X194350000Y-66425000D03*
X193400000Y-66425000D03*
X192450000Y-66425000D03*
X192450000Y-68700000D03*
X194350000Y-68700000D03*
D14*
X183592200Y-77000000D03*
X181767200Y-77000000D03*
D15*
X185949314Y-74986937D03*
X185949314Y-76886937D03*
D14*
X177100000Y-69550000D03*
X175275000Y-69550000D03*
D16*
X185675000Y-63400000D03*
X187500000Y-63400000D03*
D17*
X189250000Y-65812500D03*
X189250000Y-63987500D03*
D18*
X186360800Y-69551337D03*
X184460800Y-69551337D03*
D19*
X191222200Y-97572300D03*
X186822200Y-97572300D03*
D20*
X215500000Y-68000000D03*
D21*
X198924000Y-91440000D03*
X200224000Y-91440000D03*
D22*
X184648800Y-65895637D03*
X184648800Y-67720637D03*
D23*
X192786000Y-83100000D03*
X192786000Y-90710000D03*
D22*
X186630000Y-65895637D03*
X186630000Y-67720637D03*
D24*
X189200000Y-72800000D03*
X189200000Y-75600000D03*
D25*
X179110000Y-89350000D03*
X182060000Y-89350000D03*
D26*
X187334000Y-103124000D03*
X191634000Y-103124000D03*
D27*
X179294514Y-75454837D03*
X179294514Y-78379837D03*
D22*
X178839200Y-65895637D03*
X178839200Y-67720637D03*
X175600000Y-75387500D03*
X175600000Y-77212500D03*
D28*
X199950000Y-64800000D03*
X201850000Y-64800000D03*
D29*
X187198900Y-92550000D03*
X184248900Y-92550000D03*
D22*
X180769600Y-65895637D03*
X180769600Y-67720637D03*
D20*
X254500000Y-62000000D03*
D18*
X197972000Y-70800000D03*
X196072000Y-70800000D03*
D30*
X207680000Y-84300000D03*
D31*
X205140000Y-84300000D03*
X202600000Y-84300000D03*
X200060000Y-84300000D03*
D11*
X181737000Y-60568000D03*
D12*
X181737000Y-58028000D03*
X184277000Y-60568000D03*
X184277000Y-58028000D03*
X186817000Y-60568000D03*
X186817000Y-58028000D03*
X189357000Y-60568000D03*
X189357000Y-58028000D03*
X191897000Y-60568000D03*
X191897000Y-58028000D03*
X194437000Y-60568000D03*
X194437000Y-58028000D03*
X196977000Y-60568000D03*
X196977000Y-58028000D03*
X199517000Y-60568000D03*
X199517000Y-58028000D03*
X202057000Y-60568000D03*
X202057000Y-58028000D03*
X204597000Y-60568000D03*
X204597000Y-58028000D03*
X207137000Y-60568000D03*
X207137000Y-58028000D03*
X209677000Y-60568000D03*
X209677000Y-58028000D03*
X212217000Y-60568000D03*
X212217000Y-58028000D03*
X214757000Y-60568000D03*
X214757000Y-58028000D03*
X217297000Y-60568000D03*
X217297000Y-58028000D03*
X219837000Y-60568000D03*
X219837000Y-58028000D03*
X222377000Y-60568000D03*
X222377000Y-58028000D03*
X224917000Y-60568000D03*
X224917000Y-58028000D03*
X227457000Y-60568000D03*
X227457000Y-58028000D03*
X229997000Y-60568000D03*
X229997000Y-58028000D03*
D32*
X204930000Y-66430000D03*
X204280000Y-66430000D03*
X203630000Y-66430000D03*
X203630000Y-68330000D03*
X204930000Y-68330000D03*
D33*
X181203900Y-81099800D03*
X179933900Y-81099800D03*
X178663900Y-81099800D03*
X177393900Y-81099800D03*
D34*
X179298900Y-84229800D03*
D33*
X181203900Y-86699800D03*
X179933900Y-86699800D03*
X178663900Y-86699800D03*
X177393900Y-86699800D03*
X183186100Y-86712600D03*
X184456100Y-86712600D03*
X185726100Y-86712600D03*
X186996100Y-86712600D03*
D34*
X185091100Y-83582600D03*
D33*
X183186100Y-81112600D03*
X184456100Y-81112600D03*
X185726100Y-81112600D03*
X186996100Y-81112600D03*
D18*
X205350000Y-70000000D03*
X203450000Y-70000000D03*
D28*
X181729700Y-79000000D03*
X183629700Y-79000000D03*
D20*
X248500000Y-101000000D03*
D15*
X179452000Y-71473200D03*
X179452000Y-73373200D03*
D24*
X191800000Y-72800000D03*
X191800000Y-75600000D03*
D16*
X228187500Y-63400000D03*
X230012500Y-63400000D03*
D18*
X194350000Y-64260500D03*
X192450000Y-64260500D03*
X201850000Y-70000000D03*
X199950000Y-70000000D03*
X197972000Y-64393000D03*
X196072000Y-64393000D03*
D35*
X193200000Y-94400000D03*
D36*
X235263000Y-86997000D03*
X235263000Y-86495000D03*
X235263000Y-85993000D03*
X235263000Y-85491000D03*
X235263000Y-84989000D03*
X235263000Y-84487000D03*
X235263000Y-83985000D03*
X235263000Y-83483000D03*
X235263000Y-82981000D03*
X235263000Y-82479000D03*
X235263000Y-81977000D03*
X235263000Y-81475000D03*
X235263000Y-80973000D03*
X235263000Y-80471000D03*
X229431000Y-80484000D03*
X229431000Y-80984000D03*
X229431000Y-81484000D03*
X229431000Y-81984000D03*
X229431000Y-82484000D03*
X229431000Y-82981000D03*
X229431000Y-83484000D03*
X229431000Y-83985000D03*
X229431000Y-84487000D03*
X229431000Y-84989000D03*
X229431000Y-85491000D03*
X229431000Y-85984000D03*
X229431000Y-86495000D03*
X229431000Y-86984000D03*
D37*
X232347000Y-86202000D03*
D38*
X232347000Y-82626000D03*
D10*
X175250000Y-73437500D03*
X177150000Y-73437500D03*
X176200000Y-71562500D03*
D17*
X191800000Y-79112500D03*
X191800000Y-77287500D03*
D14*
X209062500Y-70600000D03*
X207237500Y-70600000D03*
D39*
X176374200Y-98552000D03*
X182874200Y-98552000D03*
D28*
X203450000Y-64800000D03*
X205350000Y-64800000D03*
D18*
X194350000Y-70864500D03*
X192450000Y-70864500D03*
D40*
X182700000Y-67758137D03*
X182700000Y-65858137D03*
D41*
X206400000Y-78842500D03*
D42*
X205100000Y-78842500D03*
D43*
X203800000Y-78842500D03*
D25*
X179110000Y-92550000D03*
X182060000Y-92550000D03*
D29*
X187208900Y-89350000D03*
X184258900Y-89350000D03*
D20*
X209500000Y-107000000D03*
X215500000Y-101000000D03*
D44*
X231660000Y-73300000D03*
X231660000Y-73800000D03*
X231660000Y-74300000D03*
X233140000Y-74300000D03*
X233140000Y-73800000D03*
X233140000Y-73300000D03*
D45*
X199850000Y-97870000D03*
D46*
X199850000Y-103870000D03*
X204550000Y-100870000D03*
D47*
X186157000Y-108204000D03*
X192532000Y-108204000D03*
D17*
X189200000Y-79112500D03*
X189200000Y-77287500D03*
D20*
X248500000Y-68000000D03*
D13*
X197972000Y-66557500D03*
X197022000Y-66557500D03*
X196072000Y-66557500D03*
X196072000Y-68832500D03*
X197972000Y-68832500D03*
D48*
X183701714Y-71609537D03*
X183201714Y-71609537D03*
X182701714Y-71609537D03*
X182201714Y-71609537D03*
X181701714Y-71609537D03*
X181701714Y-74559537D03*
X182201714Y-74559537D03*
X182701714Y-74559537D03*
X183201714Y-74559537D03*
X183701714Y-74559537D03*
D49*
X183561714Y-72604537D03*
X181841714Y-72604537D03*
D50*
X184251714Y-72834537D03*
X181151714Y-72834537D03*
D49*
X182701714Y-73084537D03*
D51*
X182701714Y-73084537D03*
D50*
X184251714Y-73334537D03*
X181151714Y-73334537D03*
D49*
X183561714Y-73564537D03*
X181841714Y-73564537D03*
D10*
X207200000Y-68637500D03*
X209100000Y-68637500D03*
X208150000Y-66762500D03*
D14*
X184012500Y-63400000D03*
X182187500Y-63400000D03*
D18*
X182190114Y-69551337D03*
X180290114Y-69551337D03*
D15*
X185949314Y-71496937D03*
X185949314Y-73396937D03*
D16*
X207237500Y-64800000D03*
X209062500Y-64800000D03*
D32*
X200230000Y-68330000D03*
X200880000Y-68330000D03*
X201530000Y-68330000D03*
X201530000Y-66430000D03*
X200230000Y-66430000D03*
D52*
X205500000Y-71391322D03*
X185408900Y-89500000D03*
X227711000Y-86106000D03*
X236205209Y-77901612D03*
X185400000Y-92700000D03*
X233934000Y-83362800D03*
X231902000Y-83362800D03*
X180841100Y-89500000D03*
X237236000Y-85852000D03*
X230886000Y-83362800D03*
X185400000Y-93720600D03*
X240792000Y-84201000D03*
X231902000Y-80568800D03*
X181039970Y-77485647D03*
X206137174Y-65752400D03*
X185408900Y-88500000D03*
X232918000Y-80568800D03*
X231902000Y-81889600D03*
X232918000Y-83362800D03*
X180841100Y-90500000D03*
X232308400Y-78892400D03*
X180841100Y-88500000D03*
X178800000Y-64950000D03*
X230922397Y-73803220D03*
D53*
X224000000Y-96000000D03*
D52*
X230886000Y-81889600D03*
X244348000Y-82484000D03*
X230886000Y-80568800D03*
X177100000Y-68450000D03*
X203600000Y-67200000D03*
X199100000Y-70100000D03*
D53*
X227200000Y-96000000D03*
D52*
X185408900Y-90500000D03*
X197022000Y-67738546D03*
X185408900Y-91600000D03*
X233934000Y-80568800D03*
X177381771Y-74327806D03*
D53*
X233600000Y-96316800D03*
D52*
X237032800Y-81026000D03*
X233934000Y-81889600D03*
X201600000Y-67600000D03*
X202454906Y-65692148D03*
X209300000Y-67700000D03*
X193548000Y-103124000D03*
X232918000Y-81889600D03*
X227914061Y-81123655D03*
X193407277Y-69735436D03*
X228472036Y-77890343D03*
X193466000Y-65409000D03*
X180841100Y-91600000D03*
X180841100Y-93720600D03*
X193475670Y-67752400D03*
D53*
X230400000Y-96000000D03*
D52*
X196587953Y-69943951D03*
X180841100Y-92700000D03*
X185970921Y-77701268D03*
X202754371Y-69061487D03*
X197051211Y-65438211D03*
X202383856Y-71391322D03*
X207299998Y-71700000D03*
X197972000Y-71900020D03*
X224028000Y-84201000D03*
X241808000Y-79502000D03*
X230073200Y-77978000D03*
X234600000Y-78100000D03*
X227900000Y-82200000D03*
X240919000Y-86106000D03*
X238978100Y-87800000D03*
X237195056Y-89030010D03*
D53*
X233629200Y-93200000D03*
X227200000Y-93200000D03*
D52*
X233400000Y-87100000D03*
D53*
X224000000Y-93200000D03*
X230400000Y-93200000D03*
D52*
X233400000Y-88000000D03*
X231400000Y-87100000D03*
X232400000Y-88000000D03*
X231400000Y-88000000D03*
X232400000Y-87100000D03*
X227900000Y-89000000D03*
X226000000Y-87547420D03*
X224028000Y-86106000D03*
X206300000Y-77200000D03*
X197972000Y-63377000D03*
X184300000Y-62100000D03*
X192500000Y-67400000D03*
X195900000Y-65669900D03*
X193906599Y-63348330D03*
X228193600Y-80060844D03*
X236982000Y-80060800D03*
X194350000Y-69600000D03*
X220900000Y-77900000D03*
X200200000Y-67600000D03*
X204150000Y-68850000D03*
X209900000Y-70700000D03*
X238316028Y-82813879D03*
X237295975Y-84285000D03*
X240522889Y-79290486D03*
X240624239Y-76685800D03*
X183659500Y-64140500D03*
X209000000Y-66000000D03*
X200200000Y-63700000D03*
X188586140Y-66786134D03*
X203300000Y-63700000D03*
X190400000Y-79112500D03*
X226900000Y-63500000D03*
X232500000Y-72000000D03*
X227711000Y-84074000D03*
X234100000Y-73300000D03*
X191598100Y-68400000D03*
X183337536Y-69668611D03*
X188200000Y-71700000D03*
X175287500Y-66350000D03*
X230000000Y-73300000D03*
X183389000Y-75598200D03*
X187605700Y-86630400D03*
X181966600Y-75598200D03*
X176393600Y-80292859D03*
X175827700Y-82595000D03*
X202946499Y-78252400D03*
X184700000Y-71609537D03*
X188100000Y-105200000D03*
X185688339Y-65796037D03*
X189484000Y-90354600D03*
X211099998Y-70900000D03*
X190381605Y-62101426D03*
X183551503Y-70596155D03*
X178334400Y-71458000D03*
D54*
X241073992Y-75600000D02*
X240174486Y-75600000D01*
X238495844Y-83493279D02*
X238597445Y-83493279D01*
X240390724Y-81700000D02*
X241225264Y-81700000D01*
X236821873Y-83605600D02*
X237326880Y-83605600D01*
X242993600Y-77519608D02*
X241073992Y-75600000D01*
X237326880Y-83605600D02*
X237425480Y-83507000D01*
X205218583Y-72070722D02*
X204400000Y-71252139D01*
X209717095Y-76006400D02*
X205781417Y-72070722D01*
X242993600Y-79931664D02*
X242993600Y-77519608D01*
X240174486Y-75600000D02*
X239768086Y-76006400D01*
X238597445Y-83493279D02*
X240390724Y-81700000D01*
X239768086Y-76006400D02*
X209717095Y-76006400D01*
X205781417Y-72070722D02*
X205218583Y-72070722D01*
X241225264Y-81700000D02*
X242993600Y-79931664D01*
X204400000Y-71252139D02*
X204400000Y-69100000D01*
X238482123Y-83507000D02*
X238495844Y-83493279D01*
X204400000Y-69100000D02*
X203630000Y-68330000D01*
X237425480Y-83507000D02*
X238482123Y-83507000D01*
X236442472Y-83985000D02*
X236821873Y-83605600D01*
X235263000Y-83985000D02*
X236442472Y-83985000D01*
D55*
X205350000Y-70000000D02*
X205350000Y-71241322D01*
X205350000Y-71241322D02*
X205500000Y-71391322D01*
D56*
X196587953Y-69943951D02*
X197022000Y-69509904D01*
D54*
X203450000Y-69757116D02*
X202754371Y-69061487D01*
X231660000Y-73800000D02*
X231309158Y-73800000D01*
D56*
X193407277Y-69735436D02*
X193400000Y-69728159D01*
X193466000Y-65409000D02*
X193400000Y-65343000D01*
X193400000Y-66425000D02*
X193400000Y-65475000D01*
D54*
X232200000Y-73800000D02*
X231660000Y-73800000D01*
X201850000Y-65087242D02*
X202454906Y-65692148D01*
D56*
X193400000Y-67828070D02*
X193475670Y-67752400D01*
D54*
X203630000Y-66430000D02*
X203630000Y-67170000D01*
X201530000Y-67670000D02*
X201600000Y-67600000D01*
D56*
X197051211Y-65372211D02*
X197051211Y-65438211D01*
X193400000Y-69728159D02*
X193400000Y-67828070D01*
X179452000Y-73373200D02*
X181113051Y-73373200D01*
D54*
X236875000Y-85491000D02*
X237236000Y-85852000D01*
D56*
X193400000Y-69742713D02*
X193407277Y-69735436D01*
D54*
X177150000Y-73437500D02*
X177150000Y-74096035D01*
D56*
X199950000Y-70000000D02*
X199200000Y-70000000D01*
X193400000Y-66425000D02*
X193400000Y-67676730D01*
X178800000Y-65856437D02*
X178800000Y-64950000D01*
X197022000Y-66557500D02*
X197022000Y-67738546D01*
X197022000Y-65467422D02*
X197051211Y-65438211D01*
X181301817Y-77223800D02*
X181039970Y-77485647D01*
X193400000Y-65210500D02*
X192450000Y-64260500D01*
X193400000Y-65475000D02*
X193466000Y-65409000D01*
X185949314Y-77679661D02*
X185970921Y-77701268D01*
X205350000Y-64800000D02*
X206137174Y-65587174D01*
D54*
X229431000Y-81484000D02*
X228274406Y-81484000D01*
D56*
X192450000Y-70864500D02*
X193400000Y-69914500D01*
X193400000Y-69914500D02*
X193400000Y-69742713D01*
X197022000Y-66557500D02*
X197022000Y-65467422D01*
D54*
X203450000Y-70000000D02*
X203450000Y-69757116D01*
X201530000Y-68330000D02*
X201530000Y-67670000D01*
D56*
X199200000Y-70000000D02*
X199100000Y-70100000D01*
X209100000Y-68637500D02*
X209100000Y-67900000D01*
X183729314Y-73396937D02*
X183561714Y-73564537D01*
X181767200Y-77223800D02*
X181301817Y-77223800D01*
X206137174Y-65587174D02*
X206137174Y-65752400D01*
X193400000Y-65343000D02*
X193400000Y-65210500D01*
D54*
X230925617Y-73800000D02*
X230922397Y-73803220D01*
X233140000Y-74300000D02*
X232700000Y-74300000D01*
X177100000Y-67562500D02*
X177137500Y-67525000D01*
X229431000Y-85491000D02*
X228326000Y-85491000D01*
X235263000Y-85491000D02*
X236875000Y-85491000D01*
X228274406Y-81484000D02*
X227914061Y-81123655D01*
X228326000Y-85491000D02*
X227711000Y-86106000D01*
X232700000Y-74300000D02*
X232200000Y-73800000D01*
X231309158Y-73800000D02*
X230925617Y-73800000D01*
D56*
X185949314Y-73396937D02*
X183729314Y-73396937D01*
D54*
X177100000Y-69550000D02*
X177100000Y-67562500D01*
X177150000Y-74096035D02*
X177381771Y-74327806D01*
D56*
X181113051Y-73373200D02*
X181151714Y-73334537D01*
D54*
X201850000Y-64800000D02*
X201850000Y-65087242D01*
D56*
X196587953Y-69943951D02*
X196587953Y-70481047D01*
X197022000Y-69509904D02*
X197022000Y-67738546D01*
X196587953Y-70481047D02*
X196072000Y-70997000D01*
D54*
X236583800Y-81475000D02*
X237032800Y-81026000D01*
D56*
X193400000Y-67676730D02*
X193475670Y-67752400D01*
X178839200Y-65895637D02*
X178800000Y-65856437D01*
X185949314Y-76886937D02*
X185949314Y-77679661D01*
D54*
X235263000Y-81475000D02*
X236583800Y-81475000D01*
X203630000Y-67170000D02*
X203600000Y-67200000D01*
D56*
X196072000Y-64393000D02*
X197051211Y-65372211D01*
X209100000Y-67900000D02*
X209300000Y-67700000D01*
D55*
X205300000Y-69950000D02*
X205350000Y-70000000D01*
X204930000Y-68330000D02*
X205300000Y-68700000D01*
D56*
X197972000Y-70997000D02*
X197972000Y-72201000D01*
D55*
X200880000Y-68778341D02*
X201850000Y-69748341D01*
D56*
X197972000Y-72201000D02*
X195720000Y-74453000D01*
X201850000Y-70000000D02*
X201850000Y-70857466D01*
D55*
X201850000Y-69748341D02*
X201850000Y-70000000D01*
X200880000Y-68330000D02*
X200880000Y-68778341D01*
D56*
X195720000Y-74453000D02*
X195720000Y-74800000D01*
X197972000Y-68832500D02*
X197972000Y-70997000D01*
X207237500Y-71637502D02*
X207299998Y-71700000D01*
D54*
X229431000Y-80484000D02*
X229431000Y-78620200D01*
D56*
X207237500Y-70600000D02*
X207237500Y-71637502D01*
X201850000Y-70857466D02*
X202383856Y-71391322D01*
D54*
X229431000Y-78620200D02*
X230073200Y-77978000D01*
X235263000Y-80471000D02*
X235263000Y-78763000D01*
D56*
X197972000Y-72201000D02*
X197972002Y-72201002D01*
D55*
X205300000Y-68700000D02*
X205300000Y-69950000D01*
D54*
X235263000Y-78763000D02*
X234600000Y-78100000D01*
X228116000Y-81984000D02*
X227900000Y-82200000D01*
X229431000Y-81984000D02*
X228116000Y-81984000D01*
X240493600Y-86531400D02*
X240919000Y-86106000D01*
X236954583Y-86531400D02*
X240493600Y-86531400D01*
X235263000Y-85993000D02*
X236416183Y-85993000D01*
X236416183Y-85993000D02*
X236954583Y-86531400D01*
X237218000Y-87800000D02*
X235913000Y-86495000D01*
X238978100Y-87800000D02*
X237218000Y-87800000D01*
X235913000Y-86495000D02*
X235263000Y-86495000D01*
X237195056Y-89030010D02*
X235263000Y-87097954D01*
X235263000Y-87097954D02*
X235263000Y-86997000D01*
X229431000Y-86984000D02*
X229431000Y-87469000D01*
X229431000Y-87469000D02*
X227900000Y-89000000D01*
X228973000Y-86495000D02*
X227920580Y-87547420D01*
X229431000Y-86495000D02*
X228973000Y-86495000D01*
X227920580Y-87547420D02*
X226000000Y-87547420D01*
X224790000Y-86868000D02*
X224028000Y-86106000D01*
X229431000Y-85984000D02*
X228909264Y-85984000D01*
X228909264Y-85984000D02*
X228025264Y-86868000D01*
X228025264Y-86868000D02*
X224790000Y-86868000D01*
D56*
X206400000Y-78842500D02*
X206400000Y-77300000D01*
X194350000Y-64260500D02*
X194350000Y-63791731D01*
X192450000Y-67350000D02*
X192500000Y-67400000D01*
X194350000Y-64260500D02*
X194350000Y-66425000D01*
X206400000Y-77300000D02*
X206300000Y-77200000D01*
X195900000Y-65669900D02*
X196072000Y-65841900D01*
X196072000Y-65841900D02*
X196072000Y-66557500D01*
X192450000Y-66425000D02*
X192450000Y-67350000D01*
X197972000Y-64393000D02*
X197972000Y-66557500D01*
X194350000Y-63791731D02*
X193906599Y-63348330D01*
X227584000Y-77416000D02*
X228000000Y-77000000D01*
X236867600Y-77000000D02*
X237337600Y-77470000D01*
D54*
X229431000Y-80984000D02*
X228781000Y-80984000D01*
X236069800Y-80973000D02*
X236982000Y-80060800D01*
D56*
X194350000Y-70864500D02*
X194350000Y-71533500D01*
D54*
X228193600Y-80396600D02*
X228193600Y-80060844D01*
D56*
X194350000Y-69600000D02*
X194350000Y-70864500D01*
X228154444Y-80100000D02*
X228193600Y-80060844D01*
X220900000Y-77900000D02*
X223100000Y-80100000D01*
X228193600Y-80060844D02*
X227584000Y-79451244D01*
X237337600Y-77470000D02*
X237337600Y-79705200D01*
X237337600Y-79705200D02*
X236982000Y-80060800D01*
X228000000Y-77000000D02*
X236867600Y-77000000D01*
X227584000Y-79451244D02*
X227584000Y-77416000D01*
X194350000Y-68700000D02*
X194350000Y-69600000D01*
D54*
X228781000Y-80984000D02*
X228193600Y-80396600D01*
X235263000Y-80973000D02*
X236069800Y-80973000D01*
D56*
X223100000Y-80100000D02*
X228154444Y-80100000D01*
D54*
X240905656Y-76006400D02*
X240342822Y-76006400D01*
X200230000Y-68806315D02*
X200230000Y-68330000D01*
X241150528Y-81200000D02*
X242587200Y-79763328D01*
X235263000Y-82981000D02*
X236296999Y-82981000D01*
X200900000Y-72000000D02*
X200900000Y-69476315D01*
X239936422Y-76412800D02*
X209512800Y-76412800D01*
X200200000Y-68300000D02*
X200230000Y-68330000D01*
X236485201Y-82792800D02*
X236990208Y-82792800D01*
X209512800Y-76412800D02*
X206300000Y-73200000D01*
X236990208Y-82792800D02*
X237264808Y-82518200D01*
X200200000Y-67600000D02*
X200200000Y-68300000D01*
X202100000Y-73200000D02*
X200900000Y-72000000D01*
X240342822Y-76006400D02*
X239936422Y-76412800D01*
X237650889Y-82518200D02*
X238969089Y-81200000D01*
X242587200Y-79763328D02*
X242587200Y-77687944D01*
X238969089Y-81200000D02*
X241150528Y-81200000D01*
X237264808Y-82518200D02*
X237650889Y-82518200D01*
X242587200Y-77687944D02*
X240905656Y-76006400D01*
X206300000Y-73200000D02*
X202100000Y-73200000D01*
X200900000Y-69476315D02*
X200230000Y-68806315D01*
X236296999Y-82981000D02*
X236485201Y-82792800D01*
X239599750Y-75600000D02*
X214062500Y-75600000D01*
D56*
X208150000Y-69687500D02*
X209062500Y-70600000D01*
D54*
X240006150Y-75193600D02*
X239599750Y-75600000D01*
X240394876Y-82279860D02*
X241220140Y-82279860D01*
D56*
X208150000Y-66762500D02*
X208150000Y-69687500D01*
D54*
X243400000Y-77300000D02*
X241293600Y-75193600D01*
X241293600Y-75193600D02*
X240006150Y-75193600D01*
X241220140Y-82279860D02*
X243400000Y-80100000D01*
X235263000Y-84989000D02*
X237685736Y-84989000D01*
X243400000Y-80100000D02*
X243400000Y-77300000D01*
X214062500Y-75600000D02*
X209062500Y-70600000D01*
X237685736Y-84989000D02*
X240394876Y-82279860D01*
X236653537Y-83199200D02*
X237158544Y-83199200D01*
X237819225Y-82924600D02*
X237929946Y-82813879D01*
X237433144Y-82924600D02*
X237819225Y-82924600D01*
X237929946Y-82813879D02*
X238316028Y-82813879D01*
X235263000Y-83483000D02*
X236369736Y-83483000D01*
X237158544Y-83199200D02*
X237433144Y-82924600D01*
X236369736Y-83483000D02*
X236653537Y-83199200D01*
X237093975Y-84487000D02*
X237295975Y-84285000D01*
X235263000Y-84487000D02*
X237093975Y-84487000D01*
D57*
X189200000Y-77287500D02*
X189200000Y-75600000D01*
D54*
X237096472Y-82111800D02*
X237482553Y-82111800D01*
X236224266Y-82479000D02*
X236316866Y-82386400D01*
X235263000Y-82479000D02*
X236224266Y-82479000D01*
X236821872Y-82386400D02*
X237096472Y-82111800D01*
X238118600Y-81475753D02*
X238118600Y-81069353D01*
X238118600Y-81069353D02*
X239897467Y-79290486D01*
X236316866Y-82386400D02*
X236821872Y-82386400D01*
X239897467Y-79290486D02*
X240522889Y-79290486D01*
X237482553Y-82111800D02*
X238118600Y-81475753D01*
X236656536Y-81977000D02*
X236928136Y-81705400D01*
X236928136Y-81705400D02*
X237314217Y-81705400D01*
X237712200Y-80850217D02*
X239850000Y-78712417D01*
X237712200Y-81307417D02*
X237712200Y-80850217D01*
X239850000Y-78450000D02*
X240624239Y-77675761D01*
X235263000Y-81977000D02*
X236656536Y-81977000D01*
X239850000Y-78712417D02*
X239850000Y-78450000D01*
X235263000Y-81977000D02*
X235777000Y-81977000D01*
X237314217Y-81705400D02*
X237712200Y-81307417D01*
X240624239Y-77675761D02*
X240624239Y-76685800D01*
D55*
X200230000Y-66130000D02*
X199950000Y-65850000D01*
X204200000Y-65801659D02*
X203450000Y-65051659D01*
D58*
X228087500Y-63500000D02*
X228187500Y-63400000D01*
D54*
X232789158Y-73800000D02*
X232500000Y-73510842D01*
D58*
X199950000Y-63950000D02*
X200200000Y-63700000D01*
D54*
X184012500Y-63400000D02*
X184012500Y-63787500D01*
X232500000Y-73510842D02*
X232500000Y-72000000D01*
D58*
X199950000Y-64800000D02*
X199950000Y-63950000D01*
D55*
X203450000Y-65051659D02*
X203450000Y-64800000D01*
X199950000Y-65850000D02*
X199950000Y-64800000D01*
X204280000Y-66430000D02*
X204200000Y-66350000D01*
D58*
X203450000Y-64800000D02*
X203450000Y-63850000D01*
X226900000Y-63500000D02*
X228087500Y-63500000D01*
X209000000Y-66000000D02*
X209000000Y-64862500D01*
D54*
X184012500Y-63400000D02*
X185675000Y-63400000D01*
D58*
X203450000Y-63850000D02*
X203300000Y-63700000D01*
D54*
X233140000Y-73800000D02*
X232789158Y-73800000D01*
D56*
X189250000Y-65812500D02*
X188586140Y-66476360D01*
X188586140Y-66476360D02*
X188586140Y-66786134D01*
X190400000Y-79112500D02*
X189200000Y-79112500D01*
D58*
X209000000Y-64862500D02*
X209062500Y-64800000D01*
D56*
X191800000Y-79112500D02*
X190400000Y-79112500D01*
D55*
X204200000Y-66350000D02*
X204200000Y-65801659D01*
D54*
X184012500Y-63787500D02*
X183659500Y-64140500D01*
D55*
X200230000Y-66430000D02*
X200230000Y-66130000D01*
D56*
X191812500Y-79100000D02*
X191800000Y-79112500D01*
D54*
X229431000Y-83985000D02*
X227800000Y-83985000D01*
X227800000Y-83985000D02*
X227711000Y-84074000D01*
X184277000Y-60568000D02*
X182187500Y-62657500D01*
X182187500Y-62657500D02*
X182187500Y-63400000D01*
X233140000Y-73300000D02*
X234100000Y-73300000D01*
D56*
X191598100Y-68400000D02*
X191500000Y-68498100D01*
X191500000Y-72500000D02*
X191800000Y-72800000D01*
X191500000Y-68498100D02*
X191500000Y-72500000D01*
D54*
X205051700Y-62614200D02*
X207237500Y-64800000D01*
D56*
X207237500Y-68600000D02*
X207200000Y-68637500D01*
D54*
X201563200Y-62614200D02*
X205051700Y-62614200D01*
X199517000Y-60568000D02*
X201563200Y-62614200D01*
D56*
X207237500Y-64800000D02*
X207237500Y-68600000D01*
D54*
X182969514Y-70245622D02*
X182701714Y-70513422D01*
X182969514Y-70036633D02*
X182969514Y-70245622D01*
X183337536Y-69668611D02*
X182969514Y-70036633D01*
D56*
X189200000Y-72800000D02*
X189200000Y-72700000D01*
X189200000Y-72700000D02*
X188200000Y-71700000D01*
D54*
X182701714Y-70513422D02*
X182701714Y-71609537D01*
X175287500Y-66350000D02*
X175287500Y-67475000D01*
X175237500Y-67525000D02*
X175237500Y-69512500D01*
X175237500Y-69512500D02*
X175275000Y-69550000D01*
X175287500Y-67475000D02*
X175237500Y-67525000D01*
X201056153Y-63020600D02*
X203581417Y-63020600D01*
X193169000Y-59300000D02*
X197587413Y-59300000D01*
X199814200Y-62614200D02*
X200649753Y-62614200D01*
X204400000Y-63839183D02*
X204400000Y-65323685D01*
X203581417Y-63020600D02*
X204400000Y-63839183D01*
X204930000Y-65853685D02*
X204930000Y-66430000D01*
X191897000Y-58028000D02*
X193169000Y-59300000D01*
X198300000Y-61100000D02*
X199814200Y-62614200D01*
X204400000Y-65323685D02*
X204930000Y-65853685D01*
X198300000Y-60012587D02*
X198300000Y-61100000D01*
X197587413Y-59300000D02*
X198300000Y-60012587D01*
X200649753Y-62614200D02*
X201056153Y-63020600D01*
X191200000Y-61900000D02*
X198525264Y-61900000D01*
X199645864Y-63020600D02*
X200481417Y-63020600D01*
X200879400Y-63418583D02*
X200879400Y-65654400D01*
X190600000Y-59271000D02*
X190600000Y-61300000D01*
X200481417Y-63020600D02*
X200879400Y-63418583D01*
X190600000Y-61300000D02*
X191200000Y-61900000D01*
X201530000Y-66305000D02*
X201530000Y-66430000D01*
X189357000Y-58028000D02*
X190600000Y-59271000D01*
X198525264Y-61900000D02*
X199645864Y-63020600D01*
X200879400Y-65654400D02*
X201530000Y-66305000D01*
X231660000Y-73300000D02*
X231483820Y-73123820D01*
X231483820Y-73123820D02*
X230176180Y-73123820D01*
X186817000Y-60568000D02*
X186817000Y-62717000D01*
X186817000Y-62717000D02*
X187500000Y-63400000D01*
X230176180Y-73123820D02*
X230000000Y-73300000D01*
X231660000Y-74300000D02*
X231660000Y-74760000D01*
X229997000Y-58028000D02*
X228867600Y-59157400D01*
X231800000Y-74900000D02*
X233460817Y-74900000D01*
X234777000Y-68264500D02*
X230012500Y-63500000D01*
X234779400Y-73581417D02*
X234779400Y-73018583D01*
X234777000Y-73016183D02*
X234777000Y-68264500D01*
X234779400Y-73018583D02*
X234777000Y-73016183D01*
X233460817Y-74900000D02*
X234779400Y-73581417D01*
X231660000Y-74760000D02*
X231800000Y-74900000D01*
X228867600Y-59157400D02*
X228867600Y-62255100D01*
X230012500Y-63500000D02*
X230012500Y-63400000D01*
X228867600Y-62255100D02*
X230012500Y-63400000D01*
D56*
X182679700Y-79128800D02*
X182679700Y-77952090D01*
X178663900Y-81099800D02*
X178746100Y-81182000D01*
X182806700Y-79255800D02*
X182679700Y-79128800D01*
X182679700Y-80606200D02*
X183186100Y-81112600D01*
X182679700Y-79128800D02*
X182679700Y-80606200D01*
X178746100Y-81182000D02*
X180956087Y-81182000D01*
X183629700Y-79255800D02*
X182806700Y-79255800D01*
D54*
X182701714Y-74559537D02*
X182701714Y-77930076D01*
X182701714Y-77930076D02*
X182679700Y-77952090D01*
D56*
X183465200Y-77096800D02*
X183465200Y-75674400D01*
D54*
X183201714Y-74559537D02*
X183201714Y-75547400D01*
D56*
X183592200Y-77223800D02*
X183465200Y-77096800D01*
X183465200Y-75674400D02*
X183389000Y-75598200D01*
D54*
X186889600Y-86630400D02*
X186820200Y-86699800D01*
X183338200Y-75547400D02*
X183389000Y-75598200D01*
X187605700Y-86630400D02*
X186889600Y-86630400D01*
X183201714Y-75547400D02*
X183338200Y-75547400D01*
X182201714Y-74559537D02*
X182201714Y-75363086D01*
X176393600Y-80479513D02*
X176393600Y-80292859D01*
X177096087Y-81182000D02*
X176393600Y-80479513D01*
X182201714Y-75363086D02*
X181966600Y-75598200D01*
X182201714Y-69562937D02*
X182190114Y-69551337D01*
X182201714Y-71609537D02*
X182201714Y-69562937D01*
D56*
X182190114Y-68268023D02*
X182700000Y-67758137D01*
X182190114Y-69551337D02*
X182190114Y-68268023D01*
X178839200Y-67720637D02*
X180769600Y-67720637D01*
X184460800Y-69551337D02*
X184460800Y-67908637D01*
X180005714Y-67720637D02*
X180290114Y-68005037D01*
X180290114Y-68005037D02*
X180290114Y-69551337D01*
X183779901Y-66851737D02*
X184648800Y-67720637D01*
X184460800Y-67908637D02*
X184648800Y-67720637D01*
X181638500Y-66851737D02*
X183779901Y-66851737D01*
X178839200Y-67720637D02*
X180005714Y-67720637D01*
X180769600Y-67720637D02*
X181638500Y-66851737D01*
D54*
X181701714Y-70962937D02*
X180290114Y-69551337D01*
X181701714Y-71609537D02*
X181701714Y-70962937D01*
D56*
X181898614Y-65895637D02*
X181936114Y-65858137D01*
X180005714Y-65895637D02*
X181898614Y-65895637D01*
X186360800Y-69551337D02*
X186360800Y-67989837D01*
X186360800Y-67989837D02*
X186630000Y-67720637D01*
X179294514Y-78379837D02*
X179276100Y-78398251D01*
X180170477Y-79255800D02*
X179294514Y-78379837D01*
X181729700Y-79255800D02*
X180170477Y-79255800D01*
D54*
X183701714Y-71609537D02*
X184700000Y-71609537D01*
D56*
X179044900Y-84229800D02*
X177462500Y-84229800D01*
D54*
X175600000Y-82367300D02*
X175827700Y-82595000D01*
D56*
X177462500Y-84229800D02*
X175827700Y-82595000D01*
X203209900Y-78252400D02*
X202946499Y-78252400D01*
D54*
X175600000Y-77212500D02*
X175600000Y-82367300D01*
D56*
X203800000Y-78842500D02*
X203209900Y-78252400D01*
D54*
X184700000Y-71609537D02*
X185836714Y-71609537D01*
D56*
X179120400Y-88662400D02*
X179120400Y-92700000D01*
D54*
X185836714Y-71609537D02*
X185949314Y-71496937D01*
D56*
X185588739Y-65895637D02*
X185688339Y-65796037D01*
X186942200Y-88704600D02*
X186900000Y-88662400D01*
X191910900Y-90354600D02*
X186942200Y-90354600D01*
X185787939Y-65895637D02*
X185688339Y-65796037D01*
X184648800Y-65895637D02*
X185588739Y-65895637D01*
X186630000Y-65895637D02*
X185787939Y-65895637D01*
X192331700Y-90775400D02*
X191910900Y-90354600D01*
X186900000Y-88662400D02*
X186900000Y-92700000D01*
D55*
X205300000Y-56700000D02*
X205900000Y-57300000D01*
X209226922Y-63400000D02*
X211099998Y-65273076D01*
X211099998Y-65273076D02*
X211099998Y-70900000D01*
X208000000Y-63400000D02*
X209226922Y-63400000D01*
X205900000Y-61300000D02*
X208000000Y-63400000D01*
X194437000Y-58028000D02*
X195765000Y-56700000D01*
X205900000Y-57300000D02*
X205900000Y-61300000D01*
X195765000Y-56700000D02*
X205300000Y-56700000D01*
X190212500Y-63987500D02*
X190500000Y-63700000D01*
X196567890Y-78439600D02*
X191959690Y-73831400D01*
X190500000Y-73428290D02*
X190500000Y-63700000D01*
X200952100Y-78439600D02*
X196567890Y-78439600D01*
X190500000Y-62219821D02*
X190381605Y-62101426D01*
X202600000Y-84300000D02*
X202600000Y-80087500D01*
X189250000Y-63987500D02*
X190212500Y-63987500D01*
X190500000Y-63700000D02*
X190500000Y-62219821D01*
X202600000Y-80087500D02*
X200952100Y-78439600D01*
X191959690Y-73831400D02*
X190903110Y-73831400D01*
X190903110Y-73831400D02*
X190500000Y-73428290D01*
X190550000Y-62269821D02*
X190381605Y-62101426D01*
D56*
X205100000Y-84260000D02*
X205140000Y-84300000D01*
X205100000Y-78842500D02*
X205100000Y-84260000D01*
D57*
X191800000Y-77287500D02*
X191800000Y-75600000D01*
D54*
X183201714Y-70930537D02*
X183536096Y-70596155D01*
X183536096Y-70596155D02*
X183551503Y-70596155D01*
X178334400Y-71458000D02*
X179436800Y-71458000D01*
D56*
X178306700Y-71485700D02*
X178334400Y-71458000D01*
D54*
X176304500Y-71458000D02*
X176200000Y-71562500D01*
X179436800Y-71458000D02*
X179452000Y-71473200D01*
X178334400Y-71458000D02*
X176304500Y-71458000D01*
X183201714Y-71609537D02*
X183201714Y-70930537D01*
X176187500Y-65650000D02*
X176187500Y-70098685D01*
X176187500Y-65650000D02*
X176287500Y-65750000D01*
X175600000Y-70686185D02*
X175600000Y-75387500D01*
X176187500Y-70098685D02*
X175600000Y-70686185D01*
G04 #@! TA.AperFunction,Conductor*
G36*
X178654247Y-72288067D02*
G01*
X178716602Y-72324944D01*
X178742097Y-72332351D01*
X178874426Y-72370797D01*
X178874429Y-72370797D01*
X178874431Y-72370798D01*
X178886722Y-72371765D01*
X178911304Y-72373700D01*
X178911306Y-72373700D01*
X179992696Y-72373700D01*
X180011131Y-72372249D01*
X180029569Y-72370798D01*
X180029571Y-72370797D01*
X180029573Y-72370797D01*
X180071191Y-72358705D01*
X180187398Y-72324944D01*
X180249752Y-72288067D01*
X180312873Y-72270800D01*
X181180223Y-72270800D01*
X181247262Y-72290485D01*
X181267899Y-72307114D01*
X181323372Y-72362587D01*
X181391769Y-72397437D01*
X181436412Y-72420184D01*
X181530189Y-72435036D01*
X181530195Y-72435037D01*
X181873232Y-72435036D01*
X181873234Y-72435036D01*
X181890379Y-72432320D01*
X181932317Y-72425678D01*
X181971108Y-72425678D01*
X182030195Y-72435037D01*
X182373232Y-72435036D01*
X182373234Y-72435036D01*
X182390379Y-72432320D01*
X182432317Y-72425678D01*
X182471108Y-72425678D01*
X182530195Y-72435037D01*
X182873232Y-72435036D01*
X182873234Y-72435036D01*
X182890379Y-72432320D01*
X182932317Y-72425678D01*
X182971108Y-72425678D01*
X183030195Y-72435037D01*
X183373232Y-72435036D01*
X183373234Y-72435036D01*
X183390379Y-72432320D01*
X183432317Y-72425678D01*
X183471108Y-72425678D01*
X183530195Y-72435037D01*
X183873232Y-72435036D01*
X183967018Y-72420183D01*
X184080056Y-72362587D01*
X184131222Y-72311420D01*
X184192546Y-72277934D01*
X184262238Y-72282918D01*
X184284877Y-72294107D01*
X184350473Y-72335324D01*
X184350477Y-72335325D01*
X184350478Y-72335326D01*
X184451851Y-72370798D01*
X184520745Y-72394905D01*
X184520750Y-72394906D01*
X184699996Y-72415102D01*
X184700000Y-72415102D01*
X184700004Y-72415102D01*
X184879249Y-72394906D01*
X184879252Y-72394905D01*
X184879255Y-72394905D01*
X185049522Y-72335326D01*
X185054258Y-72332349D01*
X185121489Y-72313345D01*
X185183355Y-72330607D01*
X185213916Y-72348681D01*
X185239225Y-72356034D01*
X185371740Y-72394534D01*
X185371743Y-72394534D01*
X185371745Y-72394535D01*
X185384036Y-72395502D01*
X185408618Y-72397437D01*
X185408620Y-72397437D01*
X186490010Y-72397437D01*
X186508445Y-72395986D01*
X186526883Y-72394535D01*
X186526885Y-72394534D01*
X186526887Y-72394534D01*
X186659405Y-72356034D01*
X186729274Y-72356233D01*
X186787944Y-72394175D01*
X186816788Y-72457813D01*
X186818000Y-72475110D01*
X186818000Y-73726630D01*
X186798315Y-73793669D01*
X186745511Y-73839424D01*
X186693650Y-73850630D01*
X186660561Y-73850536D01*
X186660560Y-73850536D01*
X186634521Y-73854204D01*
X186546271Y-73866635D01*
X186546269Y-73866636D01*
X186476132Y-73887013D01*
X186441537Y-73891937D01*
X185457092Y-73891937D01*
X185422497Y-73887013D01*
X185391285Y-73877945D01*
X185362760Y-73865601D01*
X185292598Y-73824107D01*
X185283341Y-73818633D01*
X185283339Y-73818632D01*
X185183933Y-73776540D01*
X185183929Y-73776539D01*
X185183927Y-73776538D01*
X185183926Y-73776538D01*
X185120806Y-73759271D01*
X185120803Y-73759270D01*
X185120801Y-73759270D01*
X185013815Y-73744900D01*
X185013809Y-73744900D01*
X184267745Y-73744900D01*
X184246055Y-73746063D01*
X184246050Y-73746063D01*
X184208898Y-73750058D01*
X184177400Y-73754700D01*
X184177389Y-73754703D01*
X184110713Y-73778494D01*
X184040957Y-73782484D01*
X184012749Y-73772192D01*
X183967014Y-73748889D01*
X183873238Y-73734037D01*
X183530195Y-73734037D01*
X183471108Y-73743395D01*
X183432315Y-73743394D01*
X183373238Y-73734037D01*
X183030195Y-73734037D01*
X182971108Y-73743395D01*
X182932315Y-73743394D01*
X182873238Y-73734037D01*
X182530195Y-73734037D01*
X182471108Y-73743395D01*
X182432315Y-73743394D01*
X182373238Y-73734037D01*
X182030195Y-73734037D01*
X181971108Y-73743395D01*
X181932315Y-73743394D01*
X181873238Y-73734037D01*
X181530196Y-73734037D01*
X181436407Y-73748891D01*
X181392706Y-73771159D01*
X181324036Y-73784055D01*
X181301481Y-73779652D01*
X181239069Y-73761326D01*
X181239066Y-73761325D01*
X181239062Y-73761324D01*
X181124823Y-73744900D01*
X180347368Y-73744900D01*
X180347363Y-73744900D01*
X180240365Y-73759272D01*
X180177261Y-73776535D01*
X180177252Y-73776538D01*
X180177247Y-73776539D01*
X180177247Y-73776540D01*
X180169900Y-73779651D01*
X180077830Y-73818637D01*
X180077827Y-73818639D01*
X180038554Y-73841864D01*
X180010034Y-73854205D01*
X179978818Y-73863275D01*
X179944220Y-73868200D01*
X178959780Y-73868200D01*
X178925181Y-73863275D01*
X178893962Y-73854204D01*
X178865442Y-73841862D01*
X178826176Y-73818641D01*
X178826175Y-73818640D01*
X178826166Y-73818636D01*
X178726754Y-73776540D01*
X178709485Y-73771815D01*
X178663632Y-73759271D01*
X178573492Y-73747164D01*
X178509670Y-73718730D01*
X178471352Y-73660305D01*
X178466000Y-73624268D01*
X178466000Y-72394800D01*
X178485685Y-72327761D01*
X178538489Y-72282006D01*
X178590000Y-72270800D01*
X178591127Y-72270800D01*
X178654247Y-72288067D01*
G37*
G04 #@! TD.AperFunction*
G04 #@! TA.AperFunction,Conductor*
G36*
X179972800Y-99326569D02*
G01*
X179991166Y-99360204D01*
X179994000Y-99386562D01*
X179994000Y-101092000D01*
X188852000Y-101092000D01*
X188919039Y-101111685D01*
X188964794Y-101164489D01*
X188976000Y-101216000D01*
X188976000Y-110620000D01*
X188956315Y-110687039D01*
X188903511Y-110732794D01*
X188852000Y-110744000D01*
X181226000Y-110744000D01*
X181158961Y-110724315D01*
X181113206Y-110671511D01*
X181102000Y-110620000D01*
X181102000Y-104140000D01*
X174876000Y-104140000D01*
X174808961Y-104120315D01*
X174763206Y-104067511D01*
X174752000Y-104016000D01*
X174752000Y-99391761D01*
X174771685Y-99324722D01*
X174778400Y-99316388D01*
X174778400Y-99314000D01*
X179972800Y-99314000D01*
X179972800Y-99326569D01*
G37*
G04 #@! TD.AperFunction*
G04 #@! TA.AperFunction,Conductor*
G36*
X181946239Y-81944885D02*
G01*
X181991994Y-81997689D01*
X182003200Y-82049200D01*
X182003200Y-87132000D01*
X181983515Y-87199039D01*
X181930711Y-87244794D01*
X181879200Y-87256000D01*
X179972800Y-87256000D01*
X179972800Y-99314000D01*
X174778400Y-99314000D01*
X174778400Y-82049200D01*
X174798085Y-81982161D01*
X174850889Y-81936406D01*
X174902400Y-81925200D01*
X181879200Y-81925200D01*
X181946239Y-81944885D01*
G37*
G04 #@! TD.AperFunction*
G04 #@! TA.AperFunction,Conductor*
G36*
X234409539Y-85311184D02*
G01*
X234455294Y-85363988D01*
X234466500Y-85415498D01*
X234466500Y-85633017D01*
X234470525Y-85658427D01*
X234480171Y-85719336D01*
X234480689Y-85722602D01*
X234480688Y-85761397D01*
X234466500Y-85850975D01*
X234466500Y-86135017D01*
X234480689Y-86224602D01*
X234480688Y-86263397D01*
X234466500Y-86352975D01*
X234466500Y-86637017D01*
X234480689Y-86726602D01*
X234480688Y-86765397D01*
X234466500Y-86854975D01*
X234466500Y-87139017D01*
X234481354Y-87232806D01*
X234481356Y-87232810D01*
X234484757Y-87239485D01*
X234498271Y-87295882D01*
X234492905Y-93652119D01*
X234473164Y-93719142D01*
X234420321Y-93764852D01*
X234368122Y-93776012D01*
X230251000Y-93750000D01*
X199982000Y-93750000D01*
X199914961Y-93730315D01*
X199869206Y-93677511D01*
X199858000Y-93626000D01*
X199858000Y-89278000D01*
X199877685Y-89210961D01*
X199930489Y-89165206D01*
X199982000Y-89154000D01*
X227017812Y-89154000D01*
X227084851Y-89173685D01*
X227130606Y-89226489D01*
X227134854Y-89237046D01*
X227174210Y-89349521D01*
X227174211Y-89349522D01*
X227270184Y-89502262D01*
X227397738Y-89629816D01*
X227550478Y-89725789D01*
X227720745Y-89785368D01*
X227720750Y-89785369D01*
X227899996Y-89805565D01*
X227900000Y-89805565D01*
X227900004Y-89805565D01*
X228079249Y-89785369D01*
X228079252Y-89785368D01*
X228079255Y-89785368D01*
X228249522Y-89725789D01*
X228402262Y-89629816D01*
X228529816Y-89502262D01*
X228625789Y-89349522D01*
X228665146Y-89237045D01*
X228705868Y-89180270D01*
X228770820Y-89154522D01*
X228782188Y-89154000D01*
X230250000Y-89154000D01*
X230250000Y-85415499D01*
X230269685Y-85348460D01*
X230322489Y-85302705D01*
X230374000Y-85291499D01*
X234342500Y-85291499D01*
X234409539Y-85311184D01*
G37*
G04 #@! TD.AperFunction*
G04 #@! TA.AperFunction,Conductor*
G36*
X201365039Y-96115685D02*
G01*
X201410794Y-96168489D01*
X201422000Y-96220000D01*
X201422000Y-100174000D01*
X201402315Y-100241039D01*
X201349511Y-100286794D01*
X201298000Y-100298000D01*
X198120000Y-100298000D01*
X198120000Y-110620000D01*
X198100315Y-110687039D01*
X198047511Y-110732794D01*
X197996000Y-110744000D01*
X190116000Y-110744000D01*
X190048961Y-110724315D01*
X190003206Y-110671511D01*
X189992000Y-110620000D01*
X189992000Y-106042000D01*
X190011685Y-105974961D01*
X190064489Y-105929206D01*
X190116000Y-105918000D01*
X195072000Y-105918000D01*
X195072000Y-96220000D01*
X195091685Y-96152961D01*
X195144489Y-96107206D01*
X195196000Y-96096000D01*
X201298000Y-96096000D01*
X201365039Y-96115685D01*
G37*
G04 #@! TD.AperFunction*
G04 #@! TA.AperFunction,Conductor*
G36*
X185076929Y-74167667D02*
G01*
X185213916Y-74248681D01*
X185239225Y-74256034D01*
X185371740Y-74294534D01*
X185371743Y-74294534D01*
X185371745Y-74294535D01*
X185379979Y-74295183D01*
X185408618Y-74297437D01*
X185408620Y-74297437D01*
X186490010Y-74297437D01*
X186508445Y-74295986D01*
X186526883Y-74294535D01*
X186526885Y-74294534D01*
X186526887Y-74294534D01*
X186659405Y-74256034D01*
X186729274Y-74256233D01*
X186787944Y-74294175D01*
X186816788Y-74357813D01*
X186818000Y-74375110D01*
X186818000Y-75652000D01*
X186798315Y-75719039D01*
X186745511Y-75764794D01*
X186694000Y-75776000D01*
X184313288Y-75776000D01*
X184246249Y-75756315D01*
X184200494Y-75703511D01*
X184190068Y-75638117D01*
X184194565Y-75598203D01*
X184194565Y-75598196D01*
X184174369Y-75418950D01*
X184174368Y-75418945D01*
X184114788Y-75248676D01*
X184075582Y-75186280D01*
X184018816Y-75095938D01*
X183891262Y-74968384D01*
X183891260Y-74968382D01*
X183800240Y-74911190D01*
X183753950Y-74858855D01*
X183742213Y-74806197D01*
X183742213Y-74434036D01*
X183761898Y-74366997D01*
X183814702Y-74321242D01*
X183866213Y-74310036D01*
X183933231Y-74310036D01*
X183933232Y-74310036D01*
X184027018Y-74295183D01*
X184140056Y-74237587D01*
X184190923Y-74186720D01*
X184252246Y-74153234D01*
X184278605Y-74150400D01*
X185013809Y-74150400D01*
X185076929Y-74167667D01*
G37*
G04 #@! TD.AperFunction*
G04 #@! TA.AperFunction,Conductor*
G36*
X195643039Y-80319685D02*
G01*
X195688794Y-80372489D01*
X195700000Y-80424000D01*
X195700000Y-85576000D01*
X195680315Y-85643039D01*
X195627511Y-85688794D01*
X195576000Y-85700000D01*
X182532700Y-85700000D01*
X182465661Y-85680315D01*
X182419906Y-85627511D01*
X182408700Y-85576000D01*
X182408700Y-82049208D01*
X182408699Y-82049191D01*
X182399432Y-81963002D01*
X182393330Y-81934954D01*
X182388226Y-81911490D01*
X182369398Y-81852103D01*
X182363600Y-81814629D01*
X182363600Y-81616000D01*
X182215350Y-81616000D01*
X182162231Y-81604046D01*
X182060489Y-81555812D01*
X181993447Y-81536126D01*
X181993439Y-81536124D01*
X181879200Y-81519700D01*
X178296600Y-81519700D01*
X178229561Y-81500015D01*
X178183806Y-81447211D01*
X178172600Y-81395700D01*
X178172600Y-80424000D01*
X178192285Y-80356961D01*
X178245089Y-80311206D01*
X178296600Y-80300000D01*
X195576000Y-80300000D01*
X195643039Y-80319685D01*
G37*
G04 #@! TD.AperFunction*
G04 #@! TA.AperFunction,Conductor*
G36*
X194507039Y-101111685D02*
G01*
X194552794Y-101164489D01*
X194564000Y-101216000D01*
X194564000Y-105286000D01*
X194544315Y-105353039D01*
X194491511Y-105398794D01*
X194440000Y-105410000D01*
X189862000Y-105410000D01*
X189794961Y-105390315D01*
X189749206Y-105337511D01*
X189738000Y-105286000D01*
X189738000Y-101216000D01*
X189757685Y-101148961D01*
X189810489Y-101103206D01*
X189862000Y-101092000D01*
X194440000Y-101092000D01*
X194507039Y-101111685D01*
G37*
G04 #@! TD.AperFunction*
G04 #@! TA.AperFunction,Conductor*
G36*
X186761039Y-71172885D02*
G01*
X186806794Y-71225689D01*
X186818000Y-71277200D01*
X186818000Y-71826630D01*
X186798315Y-71893669D01*
X186745511Y-71939424D01*
X186693650Y-71950630D01*
X186660561Y-71950536D01*
X186660560Y-71950536D01*
X186646043Y-71952581D01*
X186546271Y-71966635D01*
X186546269Y-71966636D01*
X186476132Y-71987013D01*
X186441537Y-71991937D01*
X185457094Y-71991937D01*
X185422498Y-71987013D01*
X185399725Y-71980396D01*
X185363405Y-71969844D01*
X185356379Y-71967335D01*
X185297291Y-71942139D01*
X185292336Y-71940026D01*
X185292334Y-71940025D01*
X185292333Y-71940025D01*
X185230471Y-71922764D01*
X185230458Y-71922762D01*
X185137170Y-71908147D01*
X185011185Y-71923135D01*
X184957628Y-71938274D01*
X184956512Y-71938262D01*
X184953437Y-71939339D01*
X184949831Y-71940478D01*
X184943969Y-71942135D01*
X184943955Y-71942140D01*
X184940806Y-71943540D01*
X184936099Y-71945406D01*
X184801634Y-71992456D01*
X184774564Y-71998634D01*
X184713887Y-72005471D01*
X184686123Y-72005471D01*
X184625426Y-71998633D01*
X184598360Y-71992455D01*
X184540716Y-71972284D01*
X184515701Y-71960238D01*
X184499145Y-71949836D01*
X184491868Y-71945263D01*
X184473816Y-71935165D01*
X184473812Y-71935163D01*
X184441905Y-71919393D01*
X184414735Y-71907185D01*
X184414734Y-71907184D01*
X184291161Y-71878450D01*
X184291153Y-71878449D01*
X184221474Y-71873467D01*
X184221472Y-71873467D01*
X184221471Y-71873467D01*
X184126143Y-71878919D01*
X184117698Y-71879402D01*
X184109005Y-71881164D01*
X184108550Y-71878919D01*
X184051284Y-71882181D01*
X184036358Y-71876734D01*
X184036302Y-71876907D01*
X184027016Y-71873890D01*
X183933238Y-71859037D01*
X183933233Y-71859037D01*
X183866213Y-71859037D01*
X183799174Y-71839352D01*
X183753419Y-71786548D01*
X183742213Y-71735037D01*
X183742213Y-71465497D01*
X183761898Y-71398458D01*
X183814702Y-71352703D01*
X183825252Y-71348457D01*
X183901025Y-71321944D01*
X184053765Y-71225971D01*
X184090216Y-71189519D01*
X184151540Y-71156034D01*
X184177898Y-71153200D01*
X186694000Y-71153200D01*
X186761039Y-71172885D01*
G37*
G04 #@! TD.AperFunction*
G04 #@! TA.AperFunction,Conductor*
G36*
X194409677Y-89129685D02*
G01*
X194430319Y-89146319D01*
X194438000Y-89154000D01*
X194056000Y-89154000D01*
X194056000Y-93726000D01*
X194438000Y-93726000D01*
X194438000Y-100103200D01*
X194418315Y-100170239D01*
X194365511Y-100215994D01*
X194314000Y-100227200D01*
X189536430Y-100227200D01*
X189469391Y-100207515D01*
X189423636Y-100154711D01*
X189413692Y-100085554D01*
X189418518Y-100051980D01*
X189427700Y-99988122D01*
X189427700Y-96624000D01*
X189418432Y-96537801D01*
X189407226Y-96486290D01*
X189384510Y-96414640D01*
X189317450Y-96306943D01*
X189317449Y-96306942D01*
X189317448Y-96306940D01*
X189271701Y-96254145D01*
X189271697Y-96254141D01*
X189271695Y-96254139D01*
X189194123Y-96184958D01*
X189194121Y-96184957D01*
X189194120Y-96184956D01*
X189079487Y-96130611D01*
X189012447Y-96110926D01*
X189012439Y-96110924D01*
X188898200Y-96094500D01*
X186729500Y-96094500D01*
X186662461Y-96074815D01*
X186616706Y-96022011D01*
X186605500Y-95970500D01*
X186605500Y-89234000D01*
X186625185Y-89166961D01*
X186677989Y-89121206D01*
X186729500Y-89110000D01*
X194342638Y-89110000D01*
X194409677Y-89129685D01*
G37*
G04 #@! TD.AperFunction*
G04 #@! TA.AperFunction,Conductor*
G36*
X199236039Y-89173685D02*
G01*
X199281794Y-89226489D01*
X199293000Y-89278000D01*
X199293000Y-93602000D01*
X199273315Y-93669039D01*
X199220511Y-93714794D01*
X199169000Y-93726000D01*
X194056000Y-93726000D01*
X194056000Y-89154000D01*
X194438000Y-89154000D01*
X199169000Y-89154000D01*
X199236039Y-89173685D01*
G37*
G04 #@! TD.AperFunction*
G04 #@! TA.AperFunction,Conductor*
G36*
X178619753Y-74167668D02*
G01*
X178716602Y-74224944D01*
X178758224Y-74237036D01*
X178874426Y-74270797D01*
X178874429Y-74270797D01*
X178874431Y-74270798D01*
X178886722Y-74271765D01*
X178911304Y-74273700D01*
X178911306Y-74273700D01*
X179992696Y-74273700D01*
X180011131Y-74272249D01*
X180029569Y-74270798D01*
X180029571Y-74270797D01*
X180029573Y-74270797D01*
X180071191Y-74258705D01*
X180187398Y-74224944D01*
X180284246Y-74167668D01*
X180347368Y-74150400D01*
X181124823Y-74150400D01*
X181191862Y-74170085D01*
X181212505Y-74186720D01*
X181263372Y-74237587D01*
X181376410Y-74295183D01*
X181376412Y-74295184D01*
X181470189Y-74310036D01*
X181470195Y-74310037D01*
X181537214Y-74310036D01*
X181604252Y-74329720D01*
X181650008Y-74382523D01*
X181661214Y-74434036D01*
X181661214Y-74776146D01*
X181641529Y-74843185D01*
X181603186Y-74881140D01*
X181464337Y-74968384D01*
X181336784Y-75095937D01*
X181240811Y-75248676D01*
X181181231Y-75418945D01*
X181181230Y-75418950D01*
X181161035Y-75598196D01*
X181161035Y-75598203D01*
X181181230Y-75777449D01*
X181181233Y-75777462D01*
X181207991Y-75853930D01*
X181211553Y-75923709D01*
X181176825Y-75984336D01*
X181154072Y-76001616D01*
X181102840Y-76031914D01*
X181102829Y-76031923D01*
X181090272Y-76044481D01*
X181028949Y-76077966D01*
X181002591Y-76080800D01*
X178509200Y-76080800D01*
X178442161Y-76061115D01*
X178396406Y-76008311D01*
X178385200Y-75956800D01*
X178385200Y-74274400D01*
X178404885Y-74207361D01*
X178457689Y-74161606D01*
X178509200Y-74150400D01*
X178556632Y-74150400D01*
X178619753Y-74167668D01*
G37*
G04 #@! TD.AperFunction*
G04 #@! TA.AperFunction,Conductor*
G36*
X186143039Y-86219685D02*
G01*
X186188794Y-86272489D01*
X186200000Y-86323999D01*
X186200000Y-96500000D01*
X188898200Y-96500000D01*
X188965239Y-96519685D01*
X189010994Y-96572489D01*
X189022200Y-96624000D01*
X189022200Y-99988122D01*
X189002515Y-100055161D01*
X188949711Y-100100916D01*
X188898023Y-100112122D01*
X180523823Y-100100176D01*
X180456812Y-100080396D01*
X180411132Y-100027527D01*
X180400000Y-99976176D01*
X180400000Y-87824000D01*
X180419685Y-87756961D01*
X180472489Y-87711206D01*
X180524000Y-87700000D01*
X182800000Y-87700000D01*
X182800000Y-86324000D01*
X182819685Y-86256961D01*
X182872489Y-86211206D01*
X182924000Y-86200000D01*
X186076000Y-86200000D01*
X186143039Y-86219685D01*
G37*
G04 #@! TD.AperFunction*
M02*
