G04 #@! TF.GenerationSoftware,KiCad,Pcbnew,7.0.7-7.0.7~ubuntu22.04.1*
G04 #@! TF.CreationDate,2023-11-13T10:42:29+01:00*
G04 #@! TF.ProjectId,piaxe,70696178-652e-46b6-9963-61645f706362,rev?*
G04 #@! TF.SameCoordinates,Original*
G04 #@! TF.FileFunction,Legend,Bot*
G04 #@! TF.FilePolarity,Positive*
%FSLAX46Y46*%
G04 Gerber Fmt 4.6, Leading zero omitted, Abs format (unit mm)*
G04 Created by KiCad (PCBNEW 7.0.7-7.0.7~ubuntu22.04.1) date 2023-11-13 10:42:29*
%MOMM*%
%LPD*%
G01*
G04 APERTURE LIST*
G04 Aperture macros list*
%AMRoundRect*
0 Rectangle with rounded corners*
0 $1 Rounding radius*
0 $2 $3 $4 $5 $6 $7 $8 $9 X,Y pos of 4 corners*
0 Add a 4 corners polygon primitive as box body*
4,1,4,$2,$3,$4,$5,$6,$7,$8,$9,$2,$3,0*
0 Add four circle primitives for the rounded corners*
1,1,$1+$1,$2,$3*
1,1,$1+$1,$4,$5*
1,1,$1+$1,$6,$7*
1,1,$1+$1,$8,$9*
0 Add four rect primitives between the rounded corners*
20,1,$1+$1,$2,$3,$4,$5,0*
20,1,$1+$1,$4,$5,$6,$7,0*
20,1,$1+$1,$6,$7,$8,$9,0*
20,1,$1+$1,$8,$9,$2,$3,0*%
G04 Aperture macros list end*
%ADD10C,0.150000*%
%ADD11C,0.120000*%
%ADD12R,1.700000X1.700000*%
%ADD13O,1.700000X1.700000*%
%ADD14C,5.600000*%
%ADD15C,3.200000*%
%ADD16C,1.100000*%
%ADD17R,1.730000X2.030000*%
%ADD18O,1.730000X2.030000*%
%ADD19R,2.600000X2.600000*%
%ADD20C,2.600000*%
%ADD21RoundRect,0.250000X0.475000X-0.250000X0.475000X0.250000X-0.475000X0.250000X-0.475000X-0.250000X0*%
%ADD22RoundRect,0.250000X0.250000X0.475000X-0.250000X0.475000X-0.250000X-0.475000X0.250000X-0.475000X0*%
%ADD23C,1.500000*%
%ADD24RoundRect,0.250000X-0.250000X-0.475000X0.250000X-0.475000X0.250000X0.475000X-0.250000X0.475000X0*%
%ADD25RoundRect,0.250000X-1.100000X0.325000X-1.100000X-0.325000X1.100000X-0.325000X1.100000X0.325000X0*%
%ADD26RoundRect,0.250000X-0.475000X0.250000X-0.475000X-0.250000X0.475000X-0.250000X0.475000X0.250000X0*%
%ADD27R,0.900000X1.000000*%
%ADD28RoundRect,0.250000X0.262500X0.450000X-0.262500X0.450000X-0.262500X-0.450000X0.262500X-0.450000X0*%
G04 APERTURE END LIST*
D10*
X227870104Y-75624667D02*
X227908200Y-75586571D01*
X227908200Y-75586571D02*
X227946295Y-75472286D01*
X227946295Y-75472286D02*
X227946295Y-75396095D01*
X227946295Y-75396095D02*
X227908200Y-75281809D01*
X227908200Y-75281809D02*
X227832009Y-75205619D01*
X227832009Y-75205619D02*
X227755819Y-75167524D01*
X227755819Y-75167524D02*
X227603438Y-75129428D01*
X227603438Y-75129428D02*
X227489152Y-75129428D01*
X227489152Y-75129428D02*
X227336771Y-75167524D01*
X227336771Y-75167524D02*
X227260580Y-75205619D01*
X227260580Y-75205619D02*
X227184390Y-75281809D01*
X227184390Y-75281809D02*
X227146295Y-75396095D01*
X227146295Y-75396095D02*
X227146295Y-75472286D01*
X227146295Y-75472286D02*
X227184390Y-75586571D01*
X227184390Y-75586571D02*
X227222485Y-75624667D01*
X227146295Y-76348476D02*
X227146295Y-75967524D01*
X227146295Y-75967524D02*
X227527247Y-75929428D01*
X227527247Y-75929428D02*
X227489152Y-75967524D01*
X227489152Y-75967524D02*
X227451057Y-76043714D01*
X227451057Y-76043714D02*
X227451057Y-76234190D01*
X227451057Y-76234190D02*
X227489152Y-76310381D01*
X227489152Y-76310381D02*
X227527247Y-76348476D01*
X227527247Y-76348476D02*
X227603438Y-76386571D01*
X227603438Y-76386571D02*
X227793914Y-76386571D01*
X227793914Y-76386571D02*
X227870104Y-76348476D01*
X227870104Y-76348476D02*
X227908200Y-76310381D01*
X227908200Y-76310381D02*
X227946295Y-76234190D01*
X227946295Y-76234190D02*
X227946295Y-76043714D01*
X227946295Y-76043714D02*
X227908200Y-75967524D01*
X227908200Y-75967524D02*
X227870104Y-75929428D01*
X226414285Y-82886104D02*
X226452381Y-82924200D01*
X226452381Y-82924200D02*
X226566666Y-82962295D01*
X226566666Y-82962295D02*
X226642857Y-82962295D01*
X226642857Y-82962295D02*
X226757143Y-82924200D01*
X226757143Y-82924200D02*
X226833333Y-82848009D01*
X226833333Y-82848009D02*
X226871428Y-82771819D01*
X226871428Y-82771819D02*
X226909524Y-82619438D01*
X226909524Y-82619438D02*
X226909524Y-82505152D01*
X226909524Y-82505152D02*
X226871428Y-82352771D01*
X226871428Y-82352771D02*
X226833333Y-82276580D01*
X226833333Y-82276580D02*
X226757143Y-82200390D01*
X226757143Y-82200390D02*
X226642857Y-82162295D01*
X226642857Y-82162295D02*
X226566666Y-82162295D01*
X226566666Y-82162295D02*
X226452381Y-82200390D01*
X226452381Y-82200390D02*
X226414285Y-82238485D01*
X226147619Y-82162295D02*
X225652381Y-82162295D01*
X225652381Y-82162295D02*
X225919047Y-82467057D01*
X225919047Y-82467057D02*
X225804762Y-82467057D01*
X225804762Y-82467057D02*
X225728571Y-82505152D01*
X225728571Y-82505152D02*
X225690476Y-82543247D01*
X225690476Y-82543247D02*
X225652381Y-82619438D01*
X225652381Y-82619438D02*
X225652381Y-82809914D01*
X225652381Y-82809914D02*
X225690476Y-82886104D01*
X225690476Y-82886104D02*
X225728571Y-82924200D01*
X225728571Y-82924200D02*
X225804762Y-82962295D01*
X225804762Y-82962295D02*
X226033333Y-82962295D01*
X226033333Y-82962295D02*
X226109524Y-82924200D01*
X226109524Y-82924200D02*
X226147619Y-82886104D01*
X224966666Y-82428961D02*
X224966666Y-82962295D01*
X225157142Y-82124200D02*
X225347619Y-82695628D01*
X225347619Y-82695628D02*
X224852380Y-82695628D01*
X239486104Y-74885714D02*
X239524200Y-74847618D01*
X239524200Y-74847618D02*
X239562295Y-74733333D01*
X239562295Y-74733333D02*
X239562295Y-74657142D01*
X239562295Y-74657142D02*
X239524200Y-74542856D01*
X239524200Y-74542856D02*
X239448009Y-74466666D01*
X239448009Y-74466666D02*
X239371819Y-74428571D01*
X239371819Y-74428571D02*
X239219438Y-74390475D01*
X239219438Y-74390475D02*
X239105152Y-74390475D01*
X239105152Y-74390475D02*
X238952771Y-74428571D01*
X238952771Y-74428571D02*
X238876580Y-74466666D01*
X238876580Y-74466666D02*
X238800390Y-74542856D01*
X238800390Y-74542856D02*
X238762295Y-74657142D01*
X238762295Y-74657142D02*
X238762295Y-74733333D01*
X238762295Y-74733333D02*
X238800390Y-74847618D01*
X238800390Y-74847618D02*
X238838485Y-74885714D01*
X239028961Y-75571428D02*
X239562295Y-75571428D01*
X238724200Y-75380952D02*
X239295628Y-75190475D01*
X239295628Y-75190475D02*
X239295628Y-75685714D01*
X238762295Y-75914285D02*
X238762295Y-76409523D01*
X238762295Y-76409523D02*
X239067057Y-76142857D01*
X239067057Y-76142857D02*
X239067057Y-76257142D01*
X239067057Y-76257142D02*
X239105152Y-76333333D01*
X239105152Y-76333333D02*
X239143247Y-76371428D01*
X239143247Y-76371428D02*
X239219438Y-76409523D01*
X239219438Y-76409523D02*
X239409914Y-76409523D01*
X239409914Y-76409523D02*
X239486104Y-76371428D01*
X239486104Y-76371428D02*
X239524200Y-76333333D01*
X239524200Y-76333333D02*
X239562295Y-76257142D01*
X239562295Y-76257142D02*
X239562295Y-76028571D01*
X239562295Y-76028571D02*
X239524200Y-75952380D01*
X239524200Y-75952380D02*
X239486104Y-75914285D01*
X244809523Y-74962295D02*
X244352380Y-74962295D01*
X244580952Y-75762295D02*
X244580952Y-74962295D01*
X244085713Y-75762295D02*
X244085713Y-74962295D01*
X244085713Y-74962295D02*
X243780951Y-74962295D01*
X243780951Y-74962295D02*
X243704761Y-75000390D01*
X243704761Y-75000390D02*
X243666666Y-75038485D01*
X243666666Y-75038485D02*
X243628570Y-75114676D01*
X243628570Y-75114676D02*
X243628570Y-75228961D01*
X243628570Y-75228961D02*
X243666666Y-75305152D01*
X243666666Y-75305152D02*
X243704761Y-75343247D01*
X243704761Y-75343247D02*
X243780951Y-75381342D01*
X243780951Y-75381342D02*
X244085713Y-75381342D01*
X242942856Y-75228961D02*
X242942856Y-75762295D01*
X243133332Y-74924200D02*
X243323809Y-75495628D01*
X243323809Y-75495628D02*
X242828570Y-75495628D01*
X223526285Y-86392104D02*
X223564381Y-86430200D01*
X223564381Y-86430200D02*
X223678666Y-86468295D01*
X223678666Y-86468295D02*
X223754857Y-86468295D01*
X223754857Y-86468295D02*
X223869143Y-86430200D01*
X223869143Y-86430200D02*
X223945333Y-86354009D01*
X223945333Y-86354009D02*
X223983428Y-86277819D01*
X223983428Y-86277819D02*
X224021524Y-86125438D01*
X224021524Y-86125438D02*
X224021524Y-86011152D01*
X224021524Y-86011152D02*
X223983428Y-85858771D01*
X223983428Y-85858771D02*
X223945333Y-85782580D01*
X223945333Y-85782580D02*
X223869143Y-85706390D01*
X223869143Y-85706390D02*
X223754857Y-85668295D01*
X223754857Y-85668295D02*
X223678666Y-85668295D01*
X223678666Y-85668295D02*
X223564381Y-85706390D01*
X223564381Y-85706390D02*
X223526285Y-85744485D01*
X222764381Y-86468295D02*
X223221524Y-86468295D01*
X222992952Y-86468295D02*
X222992952Y-85668295D01*
X222992952Y-85668295D02*
X223069143Y-85782580D01*
X223069143Y-85782580D02*
X223145333Y-85858771D01*
X223145333Y-85858771D02*
X223221524Y-85896866D01*
X222307238Y-86011152D02*
X222383428Y-85973057D01*
X222383428Y-85973057D02*
X222421523Y-85934961D01*
X222421523Y-85934961D02*
X222459619Y-85858771D01*
X222459619Y-85858771D02*
X222459619Y-85820676D01*
X222459619Y-85820676D02*
X222421523Y-85744485D01*
X222421523Y-85744485D02*
X222383428Y-85706390D01*
X222383428Y-85706390D02*
X222307238Y-85668295D01*
X222307238Y-85668295D02*
X222154857Y-85668295D01*
X222154857Y-85668295D02*
X222078666Y-85706390D01*
X222078666Y-85706390D02*
X222040571Y-85744485D01*
X222040571Y-85744485D02*
X222002476Y-85820676D01*
X222002476Y-85820676D02*
X222002476Y-85858771D01*
X222002476Y-85858771D02*
X222040571Y-85934961D01*
X222040571Y-85934961D02*
X222078666Y-85973057D01*
X222078666Y-85973057D02*
X222154857Y-86011152D01*
X222154857Y-86011152D02*
X222307238Y-86011152D01*
X222307238Y-86011152D02*
X222383428Y-86049247D01*
X222383428Y-86049247D02*
X222421523Y-86087342D01*
X222421523Y-86087342D02*
X222459619Y-86163533D01*
X222459619Y-86163533D02*
X222459619Y-86315914D01*
X222459619Y-86315914D02*
X222421523Y-86392104D01*
X222421523Y-86392104D02*
X222383428Y-86430200D01*
X222383428Y-86430200D02*
X222307238Y-86468295D01*
X222307238Y-86468295D02*
X222154857Y-86468295D01*
X222154857Y-86468295D02*
X222078666Y-86430200D01*
X222078666Y-86430200D02*
X222040571Y-86392104D01*
X222040571Y-86392104D02*
X222002476Y-86315914D01*
X222002476Y-86315914D02*
X222002476Y-86163533D01*
X222002476Y-86163533D02*
X222040571Y-86087342D01*
X222040571Y-86087342D02*
X222078666Y-86049247D01*
X222078666Y-86049247D02*
X222154857Y-86011152D01*
X230914285Y-75686104D02*
X230952381Y-75724200D01*
X230952381Y-75724200D02*
X231066666Y-75762295D01*
X231066666Y-75762295D02*
X231142857Y-75762295D01*
X231142857Y-75762295D02*
X231257143Y-75724200D01*
X231257143Y-75724200D02*
X231333333Y-75648009D01*
X231333333Y-75648009D02*
X231371428Y-75571819D01*
X231371428Y-75571819D02*
X231409524Y-75419438D01*
X231409524Y-75419438D02*
X231409524Y-75305152D01*
X231409524Y-75305152D02*
X231371428Y-75152771D01*
X231371428Y-75152771D02*
X231333333Y-75076580D01*
X231333333Y-75076580D02*
X231257143Y-75000390D01*
X231257143Y-75000390D02*
X231142857Y-74962295D01*
X231142857Y-74962295D02*
X231066666Y-74962295D01*
X231066666Y-74962295D02*
X230952381Y-75000390D01*
X230952381Y-75000390D02*
X230914285Y-75038485D01*
X230228571Y-75228961D02*
X230228571Y-75762295D01*
X230419047Y-74924200D02*
X230609524Y-75495628D01*
X230609524Y-75495628D02*
X230114285Y-75495628D01*
X229428571Y-74962295D02*
X229809523Y-74962295D01*
X229809523Y-74962295D02*
X229847619Y-75343247D01*
X229847619Y-75343247D02*
X229809523Y-75305152D01*
X229809523Y-75305152D02*
X229733333Y-75267057D01*
X229733333Y-75267057D02*
X229542857Y-75267057D01*
X229542857Y-75267057D02*
X229466666Y-75305152D01*
X229466666Y-75305152D02*
X229428571Y-75343247D01*
X229428571Y-75343247D02*
X229390476Y-75419438D01*
X229390476Y-75419438D02*
X229390476Y-75609914D01*
X229390476Y-75609914D02*
X229428571Y-75686104D01*
X229428571Y-75686104D02*
X229466666Y-75724200D01*
X229466666Y-75724200D02*
X229542857Y-75762295D01*
X229542857Y-75762295D02*
X229733333Y-75762295D01*
X229733333Y-75762295D02*
X229809523Y-75724200D01*
X229809523Y-75724200D02*
X229847619Y-75686104D01*
X233712104Y-82482667D02*
X233750200Y-82444571D01*
X233750200Y-82444571D02*
X233788295Y-82330286D01*
X233788295Y-82330286D02*
X233788295Y-82254095D01*
X233788295Y-82254095D02*
X233750200Y-82139809D01*
X233750200Y-82139809D02*
X233674009Y-82063619D01*
X233674009Y-82063619D02*
X233597819Y-82025524D01*
X233597819Y-82025524D02*
X233445438Y-81987428D01*
X233445438Y-81987428D02*
X233331152Y-81987428D01*
X233331152Y-81987428D02*
X233178771Y-82025524D01*
X233178771Y-82025524D02*
X233102580Y-82063619D01*
X233102580Y-82063619D02*
X233026390Y-82139809D01*
X233026390Y-82139809D02*
X232988295Y-82254095D01*
X232988295Y-82254095D02*
X232988295Y-82330286D01*
X232988295Y-82330286D02*
X233026390Y-82444571D01*
X233026390Y-82444571D02*
X233064485Y-82482667D01*
X233788295Y-82863619D02*
X233788295Y-83016000D01*
X233788295Y-83016000D02*
X233750200Y-83092190D01*
X233750200Y-83092190D02*
X233712104Y-83130286D01*
X233712104Y-83130286D02*
X233597819Y-83206476D01*
X233597819Y-83206476D02*
X233445438Y-83244571D01*
X233445438Y-83244571D02*
X233140676Y-83244571D01*
X233140676Y-83244571D02*
X233064485Y-83206476D01*
X233064485Y-83206476D02*
X233026390Y-83168381D01*
X233026390Y-83168381D02*
X232988295Y-83092190D01*
X232988295Y-83092190D02*
X232988295Y-82939809D01*
X232988295Y-82939809D02*
X233026390Y-82863619D01*
X233026390Y-82863619D02*
X233064485Y-82825524D01*
X233064485Y-82825524D02*
X233140676Y-82787428D01*
X233140676Y-82787428D02*
X233331152Y-82787428D01*
X233331152Y-82787428D02*
X233407342Y-82825524D01*
X233407342Y-82825524D02*
X233445438Y-82863619D01*
X233445438Y-82863619D02*
X233483533Y-82939809D01*
X233483533Y-82939809D02*
X233483533Y-83092190D01*
X233483533Y-83092190D02*
X233445438Y-83168381D01*
X233445438Y-83168381D02*
X233407342Y-83206476D01*
X233407342Y-83206476D02*
X233331152Y-83244571D01*
X229648104Y-81847714D02*
X229686200Y-81809618D01*
X229686200Y-81809618D02*
X229724295Y-81695333D01*
X229724295Y-81695333D02*
X229724295Y-81619142D01*
X229724295Y-81619142D02*
X229686200Y-81504856D01*
X229686200Y-81504856D02*
X229610009Y-81428666D01*
X229610009Y-81428666D02*
X229533819Y-81390571D01*
X229533819Y-81390571D02*
X229381438Y-81352475D01*
X229381438Y-81352475D02*
X229267152Y-81352475D01*
X229267152Y-81352475D02*
X229114771Y-81390571D01*
X229114771Y-81390571D02*
X229038580Y-81428666D01*
X229038580Y-81428666D02*
X228962390Y-81504856D01*
X228962390Y-81504856D02*
X228924295Y-81619142D01*
X228924295Y-81619142D02*
X228924295Y-81695333D01*
X228924295Y-81695333D02*
X228962390Y-81809618D01*
X228962390Y-81809618D02*
X229000485Y-81847714D01*
X229724295Y-82609618D02*
X229724295Y-82152475D01*
X229724295Y-82381047D02*
X228924295Y-82381047D01*
X228924295Y-82381047D02*
X229038580Y-82304856D01*
X229038580Y-82304856D02*
X229114771Y-82228666D01*
X229114771Y-82228666D02*
X229152866Y-82152475D01*
X229724295Y-83371523D02*
X229724295Y-82914380D01*
X229724295Y-83142952D02*
X228924295Y-83142952D01*
X228924295Y-83142952D02*
X229038580Y-83066761D01*
X229038580Y-83066761D02*
X229114771Y-82990571D01*
X229114771Y-82990571D02*
X229152866Y-82914380D01*
X239414285Y-82986104D02*
X239452381Y-83024200D01*
X239452381Y-83024200D02*
X239566666Y-83062295D01*
X239566666Y-83062295D02*
X239642857Y-83062295D01*
X239642857Y-83062295D02*
X239757143Y-83024200D01*
X239757143Y-83024200D02*
X239833333Y-82948009D01*
X239833333Y-82948009D02*
X239871428Y-82871819D01*
X239871428Y-82871819D02*
X239909524Y-82719438D01*
X239909524Y-82719438D02*
X239909524Y-82605152D01*
X239909524Y-82605152D02*
X239871428Y-82452771D01*
X239871428Y-82452771D02*
X239833333Y-82376580D01*
X239833333Y-82376580D02*
X239757143Y-82300390D01*
X239757143Y-82300390D02*
X239642857Y-82262295D01*
X239642857Y-82262295D02*
X239566666Y-82262295D01*
X239566666Y-82262295D02*
X239452381Y-82300390D01*
X239452381Y-82300390D02*
X239414285Y-82338485D01*
X239147619Y-82262295D02*
X238652381Y-82262295D01*
X238652381Y-82262295D02*
X238919047Y-82567057D01*
X238919047Y-82567057D02*
X238804762Y-82567057D01*
X238804762Y-82567057D02*
X238728571Y-82605152D01*
X238728571Y-82605152D02*
X238690476Y-82643247D01*
X238690476Y-82643247D02*
X238652381Y-82719438D01*
X238652381Y-82719438D02*
X238652381Y-82909914D01*
X238652381Y-82909914D02*
X238690476Y-82986104D01*
X238690476Y-82986104D02*
X238728571Y-83024200D01*
X238728571Y-83024200D02*
X238804762Y-83062295D01*
X238804762Y-83062295D02*
X239033333Y-83062295D01*
X239033333Y-83062295D02*
X239109524Y-83024200D01*
X239109524Y-83024200D02*
X239147619Y-82986104D01*
X237890476Y-83062295D02*
X238347619Y-83062295D01*
X238119047Y-83062295D02*
X238119047Y-82262295D01*
X238119047Y-82262295D02*
X238195238Y-82376580D01*
X238195238Y-82376580D02*
X238271428Y-82452771D01*
X238271428Y-82452771D02*
X238347619Y-82490866D01*
X224286104Y-96585714D02*
X224324200Y-96547618D01*
X224324200Y-96547618D02*
X224362295Y-96433333D01*
X224362295Y-96433333D02*
X224362295Y-96357142D01*
X224362295Y-96357142D02*
X224324200Y-96242856D01*
X224324200Y-96242856D02*
X224248009Y-96166666D01*
X224248009Y-96166666D02*
X224171819Y-96128571D01*
X224171819Y-96128571D02*
X224019438Y-96090475D01*
X224019438Y-96090475D02*
X223905152Y-96090475D01*
X223905152Y-96090475D02*
X223752771Y-96128571D01*
X223752771Y-96128571D02*
X223676580Y-96166666D01*
X223676580Y-96166666D02*
X223600390Y-96242856D01*
X223600390Y-96242856D02*
X223562295Y-96357142D01*
X223562295Y-96357142D02*
X223562295Y-96433333D01*
X223562295Y-96433333D02*
X223600390Y-96547618D01*
X223600390Y-96547618D02*
X223638485Y-96585714D01*
X223828961Y-97271428D02*
X224362295Y-97271428D01*
X223524200Y-97080952D02*
X224095628Y-96890475D01*
X224095628Y-96890475D02*
X224095628Y-97385714D01*
X223562295Y-97842857D02*
X223562295Y-97919047D01*
X223562295Y-97919047D02*
X223600390Y-97995238D01*
X223600390Y-97995238D02*
X223638485Y-98033333D01*
X223638485Y-98033333D02*
X223714676Y-98071428D01*
X223714676Y-98071428D02*
X223867057Y-98109523D01*
X223867057Y-98109523D02*
X224057533Y-98109523D01*
X224057533Y-98109523D02*
X224209914Y-98071428D01*
X224209914Y-98071428D02*
X224286104Y-98033333D01*
X224286104Y-98033333D02*
X224324200Y-97995238D01*
X224324200Y-97995238D02*
X224362295Y-97919047D01*
X224362295Y-97919047D02*
X224362295Y-97842857D01*
X224362295Y-97842857D02*
X224324200Y-97766666D01*
X224324200Y-97766666D02*
X224286104Y-97728571D01*
X224286104Y-97728571D02*
X224209914Y-97690476D01*
X224209914Y-97690476D02*
X224057533Y-97652380D01*
X224057533Y-97652380D02*
X223867057Y-97652380D01*
X223867057Y-97652380D02*
X223714676Y-97690476D01*
X223714676Y-97690476D02*
X223638485Y-97728571D01*
X223638485Y-97728571D02*
X223600390Y-97766666D01*
X223600390Y-97766666D02*
X223562295Y-97842857D01*
X232864285Y-70206104D02*
X232902381Y-70244200D01*
X232902381Y-70244200D02*
X233016666Y-70282295D01*
X233016666Y-70282295D02*
X233092857Y-70282295D01*
X233092857Y-70282295D02*
X233207143Y-70244200D01*
X233207143Y-70244200D02*
X233283333Y-70168009D01*
X233283333Y-70168009D02*
X233321428Y-70091819D01*
X233321428Y-70091819D02*
X233359524Y-69939438D01*
X233359524Y-69939438D02*
X233359524Y-69825152D01*
X233359524Y-69825152D02*
X233321428Y-69672771D01*
X233321428Y-69672771D02*
X233283333Y-69596580D01*
X233283333Y-69596580D02*
X233207143Y-69520390D01*
X233207143Y-69520390D02*
X233092857Y-69482295D01*
X233092857Y-69482295D02*
X233016666Y-69482295D01*
X233016666Y-69482295D02*
X232902381Y-69520390D01*
X232902381Y-69520390D02*
X232864285Y-69558485D01*
X232559524Y-69558485D02*
X232521428Y-69520390D01*
X232521428Y-69520390D02*
X232445238Y-69482295D01*
X232445238Y-69482295D02*
X232254762Y-69482295D01*
X232254762Y-69482295D02*
X232178571Y-69520390D01*
X232178571Y-69520390D02*
X232140476Y-69558485D01*
X232140476Y-69558485D02*
X232102381Y-69634676D01*
X232102381Y-69634676D02*
X232102381Y-69710866D01*
X232102381Y-69710866D02*
X232140476Y-69825152D01*
X232140476Y-69825152D02*
X232597619Y-70282295D01*
X232597619Y-70282295D02*
X232102381Y-70282295D01*
X231416666Y-69482295D02*
X231569047Y-69482295D01*
X231569047Y-69482295D02*
X231645238Y-69520390D01*
X231645238Y-69520390D02*
X231683333Y-69558485D01*
X231683333Y-69558485D02*
X231759523Y-69672771D01*
X231759523Y-69672771D02*
X231797619Y-69825152D01*
X231797619Y-69825152D02*
X231797619Y-70129914D01*
X231797619Y-70129914D02*
X231759523Y-70206104D01*
X231759523Y-70206104D02*
X231721428Y-70244200D01*
X231721428Y-70244200D02*
X231645238Y-70282295D01*
X231645238Y-70282295D02*
X231492857Y-70282295D01*
X231492857Y-70282295D02*
X231416666Y-70244200D01*
X231416666Y-70244200D02*
X231378571Y-70206104D01*
X231378571Y-70206104D02*
X231340476Y-70129914D01*
X231340476Y-70129914D02*
X231340476Y-69939438D01*
X231340476Y-69939438D02*
X231378571Y-69863247D01*
X231378571Y-69863247D02*
X231416666Y-69825152D01*
X231416666Y-69825152D02*
X231492857Y-69787057D01*
X231492857Y-69787057D02*
X231645238Y-69787057D01*
X231645238Y-69787057D02*
X231721428Y-69825152D01*
X231721428Y-69825152D02*
X231759523Y-69863247D01*
X231759523Y-69863247D02*
X231797619Y-69939438D01*
X223526285Y-88424104D02*
X223564381Y-88462200D01*
X223564381Y-88462200D02*
X223678666Y-88500295D01*
X223678666Y-88500295D02*
X223754857Y-88500295D01*
X223754857Y-88500295D02*
X223869143Y-88462200D01*
X223869143Y-88462200D02*
X223945333Y-88386009D01*
X223945333Y-88386009D02*
X223983428Y-88309819D01*
X223983428Y-88309819D02*
X224021524Y-88157438D01*
X224021524Y-88157438D02*
X224021524Y-88043152D01*
X224021524Y-88043152D02*
X223983428Y-87890771D01*
X223983428Y-87890771D02*
X223945333Y-87814580D01*
X223945333Y-87814580D02*
X223869143Y-87738390D01*
X223869143Y-87738390D02*
X223754857Y-87700295D01*
X223754857Y-87700295D02*
X223678666Y-87700295D01*
X223678666Y-87700295D02*
X223564381Y-87738390D01*
X223564381Y-87738390D02*
X223526285Y-87776485D01*
X222764381Y-88500295D02*
X223221524Y-88500295D01*
X222992952Y-88500295D02*
X222992952Y-87700295D01*
X222992952Y-87700295D02*
X223069143Y-87814580D01*
X223069143Y-87814580D02*
X223145333Y-87890771D01*
X223145333Y-87890771D02*
X223221524Y-87928866D01*
X222497714Y-87700295D02*
X221964380Y-87700295D01*
X221964380Y-87700295D02*
X222307238Y-88500295D01*
X231044685Y-88932104D02*
X231082781Y-88970200D01*
X231082781Y-88970200D02*
X231197066Y-89008295D01*
X231197066Y-89008295D02*
X231273257Y-89008295D01*
X231273257Y-89008295D02*
X231387543Y-88970200D01*
X231387543Y-88970200D02*
X231463733Y-88894009D01*
X231463733Y-88894009D02*
X231501828Y-88817819D01*
X231501828Y-88817819D02*
X231539924Y-88665438D01*
X231539924Y-88665438D02*
X231539924Y-88551152D01*
X231539924Y-88551152D02*
X231501828Y-88398771D01*
X231501828Y-88398771D02*
X231463733Y-88322580D01*
X231463733Y-88322580D02*
X231387543Y-88246390D01*
X231387543Y-88246390D02*
X231273257Y-88208295D01*
X231273257Y-88208295D02*
X231197066Y-88208295D01*
X231197066Y-88208295D02*
X231082781Y-88246390D01*
X231082781Y-88246390D02*
X231044685Y-88284485D01*
X230282781Y-89008295D02*
X230739924Y-89008295D01*
X230511352Y-89008295D02*
X230511352Y-88208295D01*
X230511352Y-88208295D02*
X230587543Y-88322580D01*
X230587543Y-88322580D02*
X230663733Y-88398771D01*
X230663733Y-88398771D02*
X230739924Y-88436866D01*
X229978019Y-88284485D02*
X229939923Y-88246390D01*
X229939923Y-88246390D02*
X229863733Y-88208295D01*
X229863733Y-88208295D02*
X229673257Y-88208295D01*
X229673257Y-88208295D02*
X229597066Y-88246390D01*
X229597066Y-88246390D02*
X229558971Y-88284485D01*
X229558971Y-88284485D02*
X229520876Y-88360676D01*
X229520876Y-88360676D02*
X229520876Y-88436866D01*
X229520876Y-88436866D02*
X229558971Y-88551152D01*
X229558971Y-88551152D02*
X230016114Y-89008295D01*
X230016114Y-89008295D02*
X229520876Y-89008295D01*
X241687332Y-90456104D02*
X241725428Y-90494200D01*
X241725428Y-90494200D02*
X241839713Y-90532295D01*
X241839713Y-90532295D02*
X241915904Y-90532295D01*
X241915904Y-90532295D02*
X242030190Y-90494200D01*
X242030190Y-90494200D02*
X242106380Y-90418009D01*
X242106380Y-90418009D02*
X242144475Y-90341819D01*
X242144475Y-90341819D02*
X242182571Y-90189438D01*
X242182571Y-90189438D02*
X242182571Y-90075152D01*
X242182571Y-90075152D02*
X242144475Y-89922771D01*
X242144475Y-89922771D02*
X242106380Y-89846580D01*
X242106380Y-89846580D02*
X242030190Y-89770390D01*
X242030190Y-89770390D02*
X241915904Y-89732295D01*
X241915904Y-89732295D02*
X241839713Y-89732295D01*
X241839713Y-89732295D02*
X241725428Y-89770390D01*
X241725428Y-89770390D02*
X241687332Y-89808485D01*
X241001618Y-89732295D02*
X241153999Y-89732295D01*
X241153999Y-89732295D02*
X241230190Y-89770390D01*
X241230190Y-89770390D02*
X241268285Y-89808485D01*
X241268285Y-89808485D02*
X241344475Y-89922771D01*
X241344475Y-89922771D02*
X241382571Y-90075152D01*
X241382571Y-90075152D02*
X241382571Y-90379914D01*
X241382571Y-90379914D02*
X241344475Y-90456104D01*
X241344475Y-90456104D02*
X241306380Y-90494200D01*
X241306380Y-90494200D02*
X241230190Y-90532295D01*
X241230190Y-90532295D02*
X241077809Y-90532295D01*
X241077809Y-90532295D02*
X241001618Y-90494200D01*
X241001618Y-90494200D02*
X240963523Y-90456104D01*
X240963523Y-90456104D02*
X240925428Y-90379914D01*
X240925428Y-90379914D02*
X240925428Y-90189438D01*
X240925428Y-90189438D02*
X240963523Y-90113247D01*
X240963523Y-90113247D02*
X241001618Y-90075152D01*
X241001618Y-90075152D02*
X241077809Y-90037057D01*
X241077809Y-90037057D02*
X241230190Y-90037057D01*
X241230190Y-90037057D02*
X241306380Y-90075152D01*
X241306380Y-90075152D02*
X241344475Y-90113247D01*
X241344475Y-90113247D02*
X241382571Y-90189438D01*
X237522104Y-75457067D02*
X237560200Y-75418971D01*
X237560200Y-75418971D02*
X237598295Y-75304686D01*
X237598295Y-75304686D02*
X237598295Y-75228495D01*
X237598295Y-75228495D02*
X237560200Y-75114209D01*
X237560200Y-75114209D02*
X237484009Y-75038019D01*
X237484009Y-75038019D02*
X237407819Y-74999924D01*
X237407819Y-74999924D02*
X237255438Y-74961828D01*
X237255438Y-74961828D02*
X237141152Y-74961828D01*
X237141152Y-74961828D02*
X236988771Y-74999924D01*
X236988771Y-74999924D02*
X236912580Y-75038019D01*
X236912580Y-75038019D02*
X236836390Y-75114209D01*
X236836390Y-75114209D02*
X236798295Y-75228495D01*
X236798295Y-75228495D02*
X236798295Y-75304686D01*
X236798295Y-75304686D02*
X236836390Y-75418971D01*
X236836390Y-75418971D02*
X236874485Y-75457067D01*
X237064961Y-76142781D02*
X237598295Y-76142781D01*
X236760200Y-75952305D02*
X237331628Y-75761828D01*
X237331628Y-75761828D02*
X237331628Y-76257067D01*
X247174104Y-81654667D02*
X247212200Y-81616571D01*
X247212200Y-81616571D02*
X247250295Y-81502286D01*
X247250295Y-81502286D02*
X247250295Y-81426095D01*
X247250295Y-81426095D02*
X247212200Y-81311809D01*
X247212200Y-81311809D02*
X247136009Y-81235619D01*
X247136009Y-81235619D02*
X247059819Y-81197524D01*
X247059819Y-81197524D02*
X246907438Y-81159428D01*
X246907438Y-81159428D02*
X246793152Y-81159428D01*
X246793152Y-81159428D02*
X246640771Y-81197524D01*
X246640771Y-81197524D02*
X246564580Y-81235619D01*
X246564580Y-81235619D02*
X246488390Y-81311809D01*
X246488390Y-81311809D02*
X246450295Y-81426095D01*
X246450295Y-81426095D02*
X246450295Y-81502286D01*
X246450295Y-81502286D02*
X246488390Y-81616571D01*
X246488390Y-81616571D02*
X246526485Y-81654667D01*
X247250295Y-82416571D02*
X247250295Y-81959428D01*
X247250295Y-82188000D02*
X246450295Y-82188000D01*
X246450295Y-82188000D02*
X246564580Y-82111809D01*
X246564580Y-82111809D02*
X246640771Y-82035619D01*
X246640771Y-82035619D02*
X246678866Y-81959428D01*
X225986104Y-74785714D02*
X226024200Y-74747618D01*
X226024200Y-74747618D02*
X226062295Y-74633333D01*
X226062295Y-74633333D02*
X226062295Y-74557142D01*
X226062295Y-74557142D02*
X226024200Y-74442856D01*
X226024200Y-74442856D02*
X225948009Y-74366666D01*
X225948009Y-74366666D02*
X225871819Y-74328571D01*
X225871819Y-74328571D02*
X225719438Y-74290475D01*
X225719438Y-74290475D02*
X225605152Y-74290475D01*
X225605152Y-74290475D02*
X225452771Y-74328571D01*
X225452771Y-74328571D02*
X225376580Y-74366666D01*
X225376580Y-74366666D02*
X225300390Y-74442856D01*
X225300390Y-74442856D02*
X225262295Y-74557142D01*
X225262295Y-74557142D02*
X225262295Y-74633333D01*
X225262295Y-74633333D02*
X225300390Y-74747618D01*
X225300390Y-74747618D02*
X225338485Y-74785714D01*
X226062295Y-75547618D02*
X226062295Y-75090475D01*
X226062295Y-75319047D02*
X225262295Y-75319047D01*
X225262295Y-75319047D02*
X225376580Y-75242856D01*
X225376580Y-75242856D02*
X225452771Y-75166666D01*
X225452771Y-75166666D02*
X225490866Y-75090475D01*
X225262295Y-75814285D02*
X225262295Y-76309523D01*
X225262295Y-76309523D02*
X225567057Y-76042857D01*
X225567057Y-76042857D02*
X225567057Y-76157142D01*
X225567057Y-76157142D02*
X225605152Y-76233333D01*
X225605152Y-76233333D02*
X225643247Y-76271428D01*
X225643247Y-76271428D02*
X225719438Y-76309523D01*
X225719438Y-76309523D02*
X225909914Y-76309523D01*
X225909914Y-76309523D02*
X225986104Y-76271428D01*
X225986104Y-76271428D02*
X226024200Y-76233333D01*
X226024200Y-76233333D02*
X226062295Y-76157142D01*
X226062295Y-76157142D02*
X226062295Y-75928571D01*
X226062295Y-75928571D02*
X226024200Y-75852380D01*
X226024200Y-75852380D02*
X225986104Y-75814285D01*
X234914285Y-75506104D02*
X234952381Y-75544200D01*
X234952381Y-75544200D02*
X235066666Y-75582295D01*
X235066666Y-75582295D02*
X235142857Y-75582295D01*
X235142857Y-75582295D02*
X235257143Y-75544200D01*
X235257143Y-75544200D02*
X235333333Y-75468009D01*
X235333333Y-75468009D02*
X235371428Y-75391819D01*
X235371428Y-75391819D02*
X235409524Y-75239438D01*
X235409524Y-75239438D02*
X235409524Y-75125152D01*
X235409524Y-75125152D02*
X235371428Y-74972771D01*
X235371428Y-74972771D02*
X235333333Y-74896580D01*
X235333333Y-74896580D02*
X235257143Y-74820390D01*
X235257143Y-74820390D02*
X235142857Y-74782295D01*
X235142857Y-74782295D02*
X235066666Y-74782295D01*
X235066666Y-74782295D02*
X234952381Y-74820390D01*
X234952381Y-74820390D02*
X234914285Y-74858485D01*
X234228571Y-75048961D02*
X234228571Y-75582295D01*
X234419047Y-74744200D02*
X234609524Y-75315628D01*
X234609524Y-75315628D02*
X234114285Y-75315628D01*
X233466666Y-75048961D02*
X233466666Y-75582295D01*
X233657142Y-74744200D02*
X233847619Y-75315628D01*
X233847619Y-75315628D02*
X233352380Y-75315628D01*
X241687332Y-88424104D02*
X241725428Y-88462200D01*
X241725428Y-88462200D02*
X241839713Y-88500295D01*
X241839713Y-88500295D02*
X241915904Y-88500295D01*
X241915904Y-88500295D02*
X242030190Y-88462200D01*
X242030190Y-88462200D02*
X242106380Y-88386009D01*
X242106380Y-88386009D02*
X242144475Y-88309819D01*
X242144475Y-88309819D02*
X242182571Y-88157438D01*
X242182571Y-88157438D02*
X242182571Y-88043152D01*
X242182571Y-88043152D02*
X242144475Y-87890771D01*
X242144475Y-87890771D02*
X242106380Y-87814580D01*
X242106380Y-87814580D02*
X242030190Y-87738390D01*
X242030190Y-87738390D02*
X241915904Y-87700295D01*
X241915904Y-87700295D02*
X241839713Y-87700295D01*
X241839713Y-87700295D02*
X241725428Y-87738390D01*
X241725428Y-87738390D02*
X241687332Y-87776485D01*
X241420666Y-87700295D02*
X240925428Y-87700295D01*
X240925428Y-87700295D02*
X241192094Y-88005057D01*
X241192094Y-88005057D02*
X241077809Y-88005057D01*
X241077809Y-88005057D02*
X241001618Y-88043152D01*
X241001618Y-88043152D02*
X240963523Y-88081247D01*
X240963523Y-88081247D02*
X240925428Y-88157438D01*
X240925428Y-88157438D02*
X240925428Y-88347914D01*
X240925428Y-88347914D02*
X240963523Y-88424104D01*
X240963523Y-88424104D02*
X241001618Y-88462200D01*
X241001618Y-88462200D02*
X241077809Y-88500295D01*
X241077809Y-88500295D02*
X241306380Y-88500295D01*
X241306380Y-88500295D02*
X241382571Y-88462200D01*
X241382571Y-88462200D02*
X241420666Y-88424104D01*
X233786104Y-96485714D02*
X233824200Y-96447618D01*
X233824200Y-96447618D02*
X233862295Y-96333333D01*
X233862295Y-96333333D02*
X233862295Y-96257142D01*
X233862295Y-96257142D02*
X233824200Y-96142856D01*
X233824200Y-96142856D02*
X233748009Y-96066666D01*
X233748009Y-96066666D02*
X233671819Y-96028571D01*
X233671819Y-96028571D02*
X233519438Y-95990475D01*
X233519438Y-95990475D02*
X233405152Y-95990475D01*
X233405152Y-95990475D02*
X233252771Y-96028571D01*
X233252771Y-96028571D02*
X233176580Y-96066666D01*
X233176580Y-96066666D02*
X233100390Y-96142856D01*
X233100390Y-96142856D02*
X233062295Y-96257142D01*
X233062295Y-96257142D02*
X233062295Y-96333333D01*
X233062295Y-96333333D02*
X233100390Y-96447618D01*
X233100390Y-96447618D02*
X233138485Y-96485714D01*
X233062295Y-96752380D02*
X233062295Y-97247618D01*
X233062295Y-97247618D02*
X233367057Y-96980952D01*
X233367057Y-96980952D02*
X233367057Y-97095237D01*
X233367057Y-97095237D02*
X233405152Y-97171428D01*
X233405152Y-97171428D02*
X233443247Y-97209523D01*
X233443247Y-97209523D02*
X233519438Y-97247618D01*
X233519438Y-97247618D02*
X233709914Y-97247618D01*
X233709914Y-97247618D02*
X233786104Y-97209523D01*
X233786104Y-97209523D02*
X233824200Y-97171428D01*
X233824200Y-97171428D02*
X233862295Y-97095237D01*
X233862295Y-97095237D02*
X233862295Y-96866666D01*
X233862295Y-96866666D02*
X233824200Y-96790475D01*
X233824200Y-96790475D02*
X233786104Y-96752380D01*
X233405152Y-97704761D02*
X233367057Y-97628571D01*
X233367057Y-97628571D02*
X233328961Y-97590476D01*
X233328961Y-97590476D02*
X233252771Y-97552380D01*
X233252771Y-97552380D02*
X233214676Y-97552380D01*
X233214676Y-97552380D02*
X233138485Y-97590476D01*
X233138485Y-97590476D02*
X233100390Y-97628571D01*
X233100390Y-97628571D02*
X233062295Y-97704761D01*
X233062295Y-97704761D02*
X233062295Y-97857142D01*
X233062295Y-97857142D02*
X233100390Y-97933333D01*
X233100390Y-97933333D02*
X233138485Y-97971428D01*
X233138485Y-97971428D02*
X233214676Y-98009523D01*
X233214676Y-98009523D02*
X233252771Y-98009523D01*
X233252771Y-98009523D02*
X233328961Y-97971428D01*
X233328961Y-97971428D02*
X233367057Y-97933333D01*
X233367057Y-97933333D02*
X233405152Y-97857142D01*
X233405152Y-97857142D02*
X233405152Y-97704761D01*
X233405152Y-97704761D02*
X233443247Y-97628571D01*
X233443247Y-97628571D02*
X233481342Y-97590476D01*
X233481342Y-97590476D02*
X233557533Y-97552380D01*
X233557533Y-97552380D02*
X233709914Y-97552380D01*
X233709914Y-97552380D02*
X233786104Y-97590476D01*
X233786104Y-97590476D02*
X233824200Y-97628571D01*
X233824200Y-97628571D02*
X233862295Y-97704761D01*
X233862295Y-97704761D02*
X233862295Y-97857142D01*
X233862295Y-97857142D02*
X233824200Y-97933333D01*
X233824200Y-97933333D02*
X233786104Y-97971428D01*
X233786104Y-97971428D02*
X233709914Y-98009523D01*
X233709914Y-98009523D02*
X233557533Y-98009523D01*
X233557533Y-98009523D02*
X233481342Y-97971428D01*
X233481342Y-97971428D02*
X233443247Y-97933333D01*
X233443247Y-97933333D02*
X233405152Y-97857142D01*
X235744104Y-81593714D02*
X235782200Y-81555618D01*
X235782200Y-81555618D02*
X235820295Y-81441333D01*
X235820295Y-81441333D02*
X235820295Y-81365142D01*
X235820295Y-81365142D02*
X235782200Y-81250856D01*
X235782200Y-81250856D02*
X235706009Y-81174666D01*
X235706009Y-81174666D02*
X235629819Y-81136571D01*
X235629819Y-81136571D02*
X235477438Y-81098475D01*
X235477438Y-81098475D02*
X235363152Y-81098475D01*
X235363152Y-81098475D02*
X235210771Y-81136571D01*
X235210771Y-81136571D02*
X235134580Y-81174666D01*
X235134580Y-81174666D02*
X235058390Y-81250856D01*
X235058390Y-81250856D02*
X235020295Y-81365142D01*
X235020295Y-81365142D02*
X235020295Y-81441333D01*
X235020295Y-81441333D02*
X235058390Y-81555618D01*
X235058390Y-81555618D02*
X235096485Y-81593714D01*
X235820295Y-82355618D02*
X235820295Y-81898475D01*
X235820295Y-82127047D02*
X235020295Y-82127047D01*
X235020295Y-82127047D02*
X235134580Y-82050856D01*
X235134580Y-82050856D02*
X235210771Y-81974666D01*
X235210771Y-81974666D02*
X235248866Y-81898475D01*
X235020295Y-82850857D02*
X235020295Y-82927047D01*
X235020295Y-82927047D02*
X235058390Y-83003238D01*
X235058390Y-83003238D02*
X235096485Y-83041333D01*
X235096485Y-83041333D02*
X235172676Y-83079428D01*
X235172676Y-83079428D02*
X235325057Y-83117523D01*
X235325057Y-83117523D02*
X235515533Y-83117523D01*
X235515533Y-83117523D02*
X235667914Y-83079428D01*
X235667914Y-83079428D02*
X235744104Y-83041333D01*
X235744104Y-83041333D02*
X235782200Y-83003238D01*
X235782200Y-83003238D02*
X235820295Y-82927047D01*
X235820295Y-82927047D02*
X235820295Y-82850857D01*
X235820295Y-82850857D02*
X235782200Y-82774666D01*
X235782200Y-82774666D02*
X235744104Y-82736571D01*
X235744104Y-82736571D02*
X235667914Y-82698476D01*
X235667914Y-82698476D02*
X235515533Y-82660380D01*
X235515533Y-82660380D02*
X235325057Y-82660380D01*
X235325057Y-82660380D02*
X235172676Y-82698476D01*
X235172676Y-82698476D02*
X235096485Y-82736571D01*
X235096485Y-82736571D02*
X235058390Y-82774666D01*
X235058390Y-82774666D02*
X235020295Y-82850857D01*
X244209523Y-83662295D02*
X244209523Y-84309914D01*
X244209523Y-84309914D02*
X244171428Y-84386104D01*
X244171428Y-84386104D02*
X244133333Y-84424200D01*
X244133333Y-84424200D02*
X244057142Y-84462295D01*
X244057142Y-84462295D02*
X243904761Y-84462295D01*
X243904761Y-84462295D02*
X243828571Y-84424200D01*
X243828571Y-84424200D02*
X243790476Y-84386104D01*
X243790476Y-84386104D02*
X243752380Y-84309914D01*
X243752380Y-84309914D02*
X243752380Y-83662295D01*
X243447619Y-83662295D02*
X242914285Y-83662295D01*
X242914285Y-83662295D02*
X243257143Y-84462295D01*
X227386104Y-96685714D02*
X227424200Y-96647618D01*
X227424200Y-96647618D02*
X227462295Y-96533333D01*
X227462295Y-96533333D02*
X227462295Y-96457142D01*
X227462295Y-96457142D02*
X227424200Y-96342856D01*
X227424200Y-96342856D02*
X227348009Y-96266666D01*
X227348009Y-96266666D02*
X227271819Y-96228571D01*
X227271819Y-96228571D02*
X227119438Y-96190475D01*
X227119438Y-96190475D02*
X227005152Y-96190475D01*
X227005152Y-96190475D02*
X226852771Y-96228571D01*
X226852771Y-96228571D02*
X226776580Y-96266666D01*
X226776580Y-96266666D02*
X226700390Y-96342856D01*
X226700390Y-96342856D02*
X226662295Y-96457142D01*
X226662295Y-96457142D02*
X226662295Y-96533333D01*
X226662295Y-96533333D02*
X226700390Y-96647618D01*
X226700390Y-96647618D02*
X226738485Y-96685714D01*
X226928961Y-97371428D02*
X227462295Y-97371428D01*
X226624200Y-97180952D02*
X227195628Y-96990475D01*
X227195628Y-96990475D02*
X227195628Y-97485714D01*
X227462295Y-98209523D02*
X227462295Y-97752380D01*
X227462295Y-97980952D02*
X226662295Y-97980952D01*
X226662295Y-97980952D02*
X226776580Y-97904761D01*
X226776580Y-97904761D02*
X226852771Y-97828571D01*
X226852771Y-97828571D02*
X226890866Y-97752380D01*
X231680104Y-82482667D02*
X231718200Y-82444571D01*
X231718200Y-82444571D02*
X231756295Y-82330286D01*
X231756295Y-82330286D02*
X231756295Y-82254095D01*
X231756295Y-82254095D02*
X231718200Y-82139809D01*
X231718200Y-82139809D02*
X231642009Y-82063619D01*
X231642009Y-82063619D02*
X231565819Y-82025524D01*
X231565819Y-82025524D02*
X231413438Y-81987428D01*
X231413438Y-81987428D02*
X231299152Y-81987428D01*
X231299152Y-81987428D02*
X231146771Y-82025524D01*
X231146771Y-82025524D02*
X231070580Y-82063619D01*
X231070580Y-82063619D02*
X230994390Y-82139809D01*
X230994390Y-82139809D02*
X230956295Y-82254095D01*
X230956295Y-82254095D02*
X230956295Y-82330286D01*
X230956295Y-82330286D02*
X230994390Y-82444571D01*
X230994390Y-82444571D02*
X231032485Y-82482667D01*
X230956295Y-82749333D02*
X230956295Y-83282667D01*
X230956295Y-83282667D02*
X231756295Y-82939809D01*
X234814285Y-80586104D02*
X234852381Y-80624200D01*
X234852381Y-80624200D02*
X234966666Y-80662295D01*
X234966666Y-80662295D02*
X235042857Y-80662295D01*
X235042857Y-80662295D02*
X235157143Y-80624200D01*
X235157143Y-80624200D02*
X235233333Y-80548009D01*
X235233333Y-80548009D02*
X235271428Y-80471819D01*
X235271428Y-80471819D02*
X235309524Y-80319438D01*
X235309524Y-80319438D02*
X235309524Y-80205152D01*
X235309524Y-80205152D02*
X235271428Y-80052771D01*
X235271428Y-80052771D02*
X235233333Y-79976580D01*
X235233333Y-79976580D02*
X235157143Y-79900390D01*
X235157143Y-79900390D02*
X235042857Y-79862295D01*
X235042857Y-79862295D02*
X234966666Y-79862295D01*
X234966666Y-79862295D02*
X234852381Y-79900390D01*
X234852381Y-79900390D02*
X234814285Y-79938485D01*
X234052381Y-80662295D02*
X234509524Y-80662295D01*
X234280952Y-80662295D02*
X234280952Y-79862295D01*
X234280952Y-79862295D02*
X234357143Y-79976580D01*
X234357143Y-79976580D02*
X234433333Y-80052771D01*
X234433333Y-80052771D02*
X234509524Y-80090866D01*
X233366666Y-79862295D02*
X233519047Y-79862295D01*
X233519047Y-79862295D02*
X233595238Y-79900390D01*
X233595238Y-79900390D02*
X233633333Y-79938485D01*
X233633333Y-79938485D02*
X233709523Y-80052771D01*
X233709523Y-80052771D02*
X233747619Y-80205152D01*
X233747619Y-80205152D02*
X233747619Y-80509914D01*
X233747619Y-80509914D02*
X233709523Y-80586104D01*
X233709523Y-80586104D02*
X233671428Y-80624200D01*
X233671428Y-80624200D02*
X233595238Y-80662295D01*
X233595238Y-80662295D02*
X233442857Y-80662295D01*
X233442857Y-80662295D02*
X233366666Y-80624200D01*
X233366666Y-80624200D02*
X233328571Y-80586104D01*
X233328571Y-80586104D02*
X233290476Y-80509914D01*
X233290476Y-80509914D02*
X233290476Y-80319438D01*
X233290476Y-80319438D02*
X233328571Y-80243247D01*
X233328571Y-80243247D02*
X233366666Y-80205152D01*
X233366666Y-80205152D02*
X233442857Y-80167057D01*
X233442857Y-80167057D02*
X233595238Y-80167057D01*
X233595238Y-80167057D02*
X233671428Y-80205152D01*
X233671428Y-80205152D02*
X233709523Y-80243247D01*
X233709523Y-80243247D02*
X233747619Y-80319438D01*
X230686104Y-96685714D02*
X230724200Y-96647618D01*
X230724200Y-96647618D02*
X230762295Y-96533333D01*
X230762295Y-96533333D02*
X230762295Y-96457142D01*
X230762295Y-96457142D02*
X230724200Y-96342856D01*
X230724200Y-96342856D02*
X230648009Y-96266666D01*
X230648009Y-96266666D02*
X230571819Y-96228571D01*
X230571819Y-96228571D02*
X230419438Y-96190475D01*
X230419438Y-96190475D02*
X230305152Y-96190475D01*
X230305152Y-96190475D02*
X230152771Y-96228571D01*
X230152771Y-96228571D02*
X230076580Y-96266666D01*
X230076580Y-96266666D02*
X230000390Y-96342856D01*
X230000390Y-96342856D02*
X229962295Y-96457142D01*
X229962295Y-96457142D02*
X229962295Y-96533333D01*
X229962295Y-96533333D02*
X230000390Y-96647618D01*
X230000390Y-96647618D02*
X230038485Y-96685714D01*
X229962295Y-96952380D02*
X229962295Y-97447618D01*
X229962295Y-97447618D02*
X230267057Y-97180952D01*
X230267057Y-97180952D02*
X230267057Y-97295237D01*
X230267057Y-97295237D02*
X230305152Y-97371428D01*
X230305152Y-97371428D02*
X230343247Y-97409523D01*
X230343247Y-97409523D02*
X230419438Y-97447618D01*
X230419438Y-97447618D02*
X230609914Y-97447618D01*
X230609914Y-97447618D02*
X230686104Y-97409523D01*
X230686104Y-97409523D02*
X230724200Y-97371428D01*
X230724200Y-97371428D02*
X230762295Y-97295237D01*
X230762295Y-97295237D02*
X230762295Y-97066666D01*
X230762295Y-97066666D02*
X230724200Y-96990475D01*
X230724200Y-96990475D02*
X230686104Y-96952380D01*
X230762295Y-97828571D02*
X230762295Y-97980952D01*
X230762295Y-97980952D02*
X230724200Y-98057142D01*
X230724200Y-98057142D02*
X230686104Y-98095238D01*
X230686104Y-98095238D02*
X230571819Y-98171428D01*
X230571819Y-98171428D02*
X230419438Y-98209523D01*
X230419438Y-98209523D02*
X230114676Y-98209523D01*
X230114676Y-98209523D02*
X230038485Y-98171428D01*
X230038485Y-98171428D02*
X230000390Y-98133333D01*
X230000390Y-98133333D02*
X229962295Y-98057142D01*
X229962295Y-98057142D02*
X229962295Y-97904761D01*
X229962295Y-97904761D02*
X230000390Y-97828571D01*
X230000390Y-97828571D02*
X230038485Y-97790476D01*
X230038485Y-97790476D02*
X230114676Y-97752380D01*
X230114676Y-97752380D02*
X230305152Y-97752380D01*
X230305152Y-97752380D02*
X230381342Y-97790476D01*
X230381342Y-97790476D02*
X230419438Y-97828571D01*
X230419438Y-97828571D02*
X230457533Y-97904761D01*
X230457533Y-97904761D02*
X230457533Y-98057142D01*
X230457533Y-98057142D02*
X230419438Y-98133333D01*
X230419438Y-98133333D02*
X230381342Y-98171428D01*
X230381342Y-98171428D02*
X230305152Y-98209523D01*
X223170685Y-90405304D02*
X223208781Y-90443400D01*
X223208781Y-90443400D02*
X223323066Y-90481495D01*
X223323066Y-90481495D02*
X223399257Y-90481495D01*
X223399257Y-90481495D02*
X223513543Y-90443400D01*
X223513543Y-90443400D02*
X223589733Y-90367209D01*
X223589733Y-90367209D02*
X223627828Y-90291019D01*
X223627828Y-90291019D02*
X223665924Y-90138638D01*
X223665924Y-90138638D02*
X223665924Y-90024352D01*
X223665924Y-90024352D02*
X223627828Y-89871971D01*
X223627828Y-89871971D02*
X223589733Y-89795780D01*
X223589733Y-89795780D02*
X223513543Y-89719590D01*
X223513543Y-89719590D02*
X223399257Y-89681495D01*
X223399257Y-89681495D02*
X223323066Y-89681495D01*
X223323066Y-89681495D02*
X223208781Y-89719590D01*
X223208781Y-89719590D02*
X223170685Y-89757685D01*
X222408781Y-90481495D02*
X222865924Y-90481495D01*
X222637352Y-90481495D02*
X222637352Y-89681495D01*
X222637352Y-89681495D02*
X222713543Y-89795780D01*
X222713543Y-89795780D02*
X222789733Y-89871971D01*
X222789733Y-89871971D02*
X222865924Y-89910066D01*
X221684971Y-89681495D02*
X222065923Y-89681495D01*
X222065923Y-89681495D02*
X222104019Y-90062447D01*
X222104019Y-90062447D02*
X222065923Y-90024352D01*
X222065923Y-90024352D02*
X221989733Y-89986257D01*
X221989733Y-89986257D02*
X221799257Y-89986257D01*
X221799257Y-89986257D02*
X221723066Y-90024352D01*
X221723066Y-90024352D02*
X221684971Y-90062447D01*
X221684971Y-90062447D02*
X221646876Y-90138638D01*
X221646876Y-90138638D02*
X221646876Y-90329114D01*
X221646876Y-90329114D02*
X221684971Y-90405304D01*
X221684971Y-90405304D02*
X221723066Y-90443400D01*
X221723066Y-90443400D02*
X221799257Y-90481495D01*
X221799257Y-90481495D02*
X221989733Y-90481495D01*
X221989733Y-90481495D02*
X222065923Y-90443400D01*
X222065923Y-90443400D02*
X222104019Y-90405304D01*
X230714285Y-80686104D02*
X230752381Y-80724200D01*
X230752381Y-80724200D02*
X230866666Y-80762295D01*
X230866666Y-80762295D02*
X230942857Y-80762295D01*
X230942857Y-80762295D02*
X231057143Y-80724200D01*
X231057143Y-80724200D02*
X231133333Y-80648009D01*
X231133333Y-80648009D02*
X231171428Y-80571819D01*
X231171428Y-80571819D02*
X231209524Y-80419438D01*
X231209524Y-80419438D02*
X231209524Y-80305152D01*
X231209524Y-80305152D02*
X231171428Y-80152771D01*
X231171428Y-80152771D02*
X231133333Y-80076580D01*
X231133333Y-80076580D02*
X231057143Y-80000390D01*
X231057143Y-80000390D02*
X230942857Y-79962295D01*
X230942857Y-79962295D02*
X230866666Y-79962295D01*
X230866666Y-79962295D02*
X230752381Y-80000390D01*
X230752381Y-80000390D02*
X230714285Y-80038485D01*
X229952381Y-80762295D02*
X230409524Y-80762295D01*
X230180952Y-80762295D02*
X230180952Y-79962295D01*
X230180952Y-79962295D02*
X230257143Y-80076580D01*
X230257143Y-80076580D02*
X230333333Y-80152771D01*
X230333333Y-80152771D02*
X230409524Y-80190866D01*
X229266666Y-80228961D02*
X229266666Y-80762295D01*
X229457142Y-79924200D02*
X229647619Y-80495628D01*
X229647619Y-80495628D02*
X229152380Y-80495628D01*
X241687332Y-84436295D02*
X241953999Y-84055342D01*
X242144475Y-84436295D02*
X242144475Y-83636295D01*
X242144475Y-83636295D02*
X241839713Y-83636295D01*
X241839713Y-83636295D02*
X241763523Y-83674390D01*
X241763523Y-83674390D02*
X241725428Y-83712485D01*
X241725428Y-83712485D02*
X241687332Y-83788676D01*
X241687332Y-83788676D02*
X241687332Y-83902961D01*
X241687332Y-83902961D02*
X241725428Y-83979152D01*
X241725428Y-83979152D02*
X241763523Y-84017247D01*
X241763523Y-84017247D02*
X241839713Y-84055342D01*
X241839713Y-84055342D02*
X242144475Y-84055342D01*
X241001618Y-83636295D02*
X241153999Y-83636295D01*
X241153999Y-83636295D02*
X241230190Y-83674390D01*
X241230190Y-83674390D02*
X241268285Y-83712485D01*
X241268285Y-83712485D02*
X241344475Y-83826771D01*
X241344475Y-83826771D02*
X241382571Y-83979152D01*
X241382571Y-83979152D02*
X241382571Y-84283914D01*
X241382571Y-84283914D02*
X241344475Y-84360104D01*
X241344475Y-84360104D02*
X241306380Y-84398200D01*
X241306380Y-84398200D02*
X241230190Y-84436295D01*
X241230190Y-84436295D02*
X241077809Y-84436295D01*
X241077809Y-84436295D02*
X241001618Y-84398200D01*
X241001618Y-84398200D02*
X240963523Y-84360104D01*
X240963523Y-84360104D02*
X240925428Y-84283914D01*
X240925428Y-84283914D02*
X240925428Y-84093438D01*
X240925428Y-84093438D02*
X240963523Y-84017247D01*
X240963523Y-84017247D02*
X241001618Y-83979152D01*
X241001618Y-83979152D02*
X241077809Y-83941057D01*
X241077809Y-83941057D02*
X241230190Y-83941057D01*
X241230190Y-83941057D02*
X241306380Y-83979152D01*
X241306380Y-83979152D02*
X241344475Y-84017247D01*
X241344475Y-84017247D02*
X241382571Y-84093438D01*
X241687332Y-86646104D02*
X241725428Y-86684200D01*
X241725428Y-86684200D02*
X241839713Y-86722295D01*
X241839713Y-86722295D02*
X241915904Y-86722295D01*
X241915904Y-86722295D02*
X242030190Y-86684200D01*
X242030190Y-86684200D02*
X242106380Y-86608009D01*
X242106380Y-86608009D02*
X242144475Y-86531819D01*
X242144475Y-86531819D02*
X242182571Y-86379438D01*
X242182571Y-86379438D02*
X242182571Y-86265152D01*
X242182571Y-86265152D02*
X242144475Y-86112771D01*
X242144475Y-86112771D02*
X242106380Y-86036580D01*
X242106380Y-86036580D02*
X242030190Y-85960390D01*
X242030190Y-85960390D02*
X241915904Y-85922295D01*
X241915904Y-85922295D02*
X241839713Y-85922295D01*
X241839713Y-85922295D02*
X241725428Y-85960390D01*
X241725428Y-85960390D02*
X241687332Y-85998485D01*
X241382571Y-85998485D02*
X241344475Y-85960390D01*
X241344475Y-85960390D02*
X241268285Y-85922295D01*
X241268285Y-85922295D02*
X241077809Y-85922295D01*
X241077809Y-85922295D02*
X241001618Y-85960390D01*
X241001618Y-85960390D02*
X240963523Y-85998485D01*
X240963523Y-85998485D02*
X240925428Y-86074676D01*
X240925428Y-86074676D02*
X240925428Y-86150866D01*
X240925428Y-86150866D02*
X240963523Y-86265152D01*
X240963523Y-86265152D02*
X241420666Y-86722295D01*
X241420666Y-86722295D02*
X240925428Y-86722295D01*
X221379923Y-82364695D02*
X220922780Y-82364695D01*
X221151352Y-83164695D02*
X221151352Y-82364695D01*
X220656113Y-83164695D02*
X220656113Y-82364695D01*
X220656113Y-82364695D02*
X220351351Y-82364695D01*
X220351351Y-82364695D02*
X220275161Y-82402790D01*
X220275161Y-82402790D02*
X220237066Y-82440885D01*
X220237066Y-82440885D02*
X220198970Y-82517076D01*
X220198970Y-82517076D02*
X220198970Y-82631361D01*
X220198970Y-82631361D02*
X220237066Y-82707552D01*
X220237066Y-82707552D02*
X220275161Y-82745647D01*
X220275161Y-82745647D02*
X220351351Y-82783742D01*
X220351351Y-82783742D02*
X220656113Y-82783742D01*
X219894209Y-82440885D02*
X219856113Y-82402790D01*
X219856113Y-82402790D02*
X219779923Y-82364695D01*
X219779923Y-82364695D02*
X219589447Y-82364695D01*
X219589447Y-82364695D02*
X219513256Y-82402790D01*
X219513256Y-82402790D02*
X219475161Y-82440885D01*
X219475161Y-82440885D02*
X219437066Y-82517076D01*
X219437066Y-82517076D02*
X219437066Y-82593266D01*
X219437066Y-82593266D02*
X219475161Y-82707552D01*
X219475161Y-82707552D02*
X219932304Y-83164695D01*
X219932304Y-83164695D02*
X219437066Y-83164695D01*
X223533332Y-85062295D02*
X223799999Y-84681342D01*
X223990475Y-85062295D02*
X223990475Y-84262295D01*
X223990475Y-84262295D02*
X223685713Y-84262295D01*
X223685713Y-84262295D02*
X223609523Y-84300390D01*
X223609523Y-84300390D02*
X223571428Y-84338485D01*
X223571428Y-84338485D02*
X223533332Y-84414676D01*
X223533332Y-84414676D02*
X223533332Y-84528961D01*
X223533332Y-84528961D02*
X223571428Y-84605152D01*
X223571428Y-84605152D02*
X223609523Y-84643247D01*
X223609523Y-84643247D02*
X223685713Y-84681342D01*
X223685713Y-84681342D02*
X223990475Y-84681342D01*
X222771428Y-85062295D02*
X223228571Y-85062295D01*
X222999999Y-85062295D02*
X222999999Y-84262295D01*
X222999999Y-84262295D02*
X223076190Y-84376580D01*
X223076190Y-84376580D02*
X223152380Y-84452771D01*
X223152380Y-84452771D02*
X223228571Y-84490866D01*
X244809523Y-77562295D02*
X244352380Y-77562295D01*
X244580952Y-78362295D02*
X244580952Y-77562295D01*
X244085713Y-78362295D02*
X244085713Y-77562295D01*
X244085713Y-77562295D02*
X243780951Y-77562295D01*
X243780951Y-77562295D02*
X243704761Y-77600390D01*
X243704761Y-77600390D02*
X243666666Y-77638485D01*
X243666666Y-77638485D02*
X243628570Y-77714676D01*
X243628570Y-77714676D02*
X243628570Y-77828961D01*
X243628570Y-77828961D02*
X243666666Y-77905152D01*
X243666666Y-77905152D02*
X243704761Y-77943247D01*
X243704761Y-77943247D02*
X243780951Y-77981342D01*
X243780951Y-77981342D02*
X244085713Y-77981342D01*
X243361904Y-77562295D02*
X242866666Y-77562295D01*
X242866666Y-77562295D02*
X243133332Y-77867057D01*
X243133332Y-77867057D02*
X243019047Y-77867057D01*
X243019047Y-77867057D02*
X242942856Y-77905152D01*
X242942856Y-77905152D02*
X242904761Y-77943247D01*
X242904761Y-77943247D02*
X242866666Y-78019438D01*
X242866666Y-78019438D02*
X242866666Y-78209914D01*
X242866666Y-78209914D02*
X242904761Y-78286104D01*
X242904761Y-78286104D02*
X242942856Y-78324200D01*
X242942856Y-78324200D02*
X243019047Y-78362295D01*
X243019047Y-78362295D02*
X243247618Y-78362295D01*
X243247618Y-78362295D02*
X243323809Y-78324200D01*
X243323809Y-78324200D02*
X243361904Y-78286104D01*
X233305332Y-90456104D02*
X233343428Y-90494200D01*
X233343428Y-90494200D02*
X233457713Y-90532295D01*
X233457713Y-90532295D02*
X233533904Y-90532295D01*
X233533904Y-90532295D02*
X233648190Y-90494200D01*
X233648190Y-90494200D02*
X233724380Y-90418009D01*
X233724380Y-90418009D02*
X233762475Y-90341819D01*
X233762475Y-90341819D02*
X233800571Y-90189438D01*
X233800571Y-90189438D02*
X233800571Y-90075152D01*
X233800571Y-90075152D02*
X233762475Y-89922771D01*
X233762475Y-89922771D02*
X233724380Y-89846580D01*
X233724380Y-89846580D02*
X233648190Y-89770390D01*
X233648190Y-89770390D02*
X233533904Y-89732295D01*
X233533904Y-89732295D02*
X233457713Y-89732295D01*
X233457713Y-89732295D02*
X233343428Y-89770390D01*
X233343428Y-89770390D02*
X233305332Y-89808485D01*
X232848190Y-90075152D02*
X232924380Y-90037057D01*
X232924380Y-90037057D02*
X232962475Y-89998961D01*
X232962475Y-89998961D02*
X233000571Y-89922771D01*
X233000571Y-89922771D02*
X233000571Y-89884676D01*
X233000571Y-89884676D02*
X232962475Y-89808485D01*
X232962475Y-89808485D02*
X232924380Y-89770390D01*
X232924380Y-89770390D02*
X232848190Y-89732295D01*
X232848190Y-89732295D02*
X232695809Y-89732295D01*
X232695809Y-89732295D02*
X232619618Y-89770390D01*
X232619618Y-89770390D02*
X232581523Y-89808485D01*
X232581523Y-89808485D02*
X232543428Y-89884676D01*
X232543428Y-89884676D02*
X232543428Y-89922771D01*
X232543428Y-89922771D02*
X232581523Y-89998961D01*
X232581523Y-89998961D02*
X232619618Y-90037057D01*
X232619618Y-90037057D02*
X232695809Y-90075152D01*
X232695809Y-90075152D02*
X232848190Y-90075152D01*
X232848190Y-90075152D02*
X232924380Y-90113247D01*
X232924380Y-90113247D02*
X232962475Y-90151342D01*
X232962475Y-90151342D02*
X233000571Y-90227533D01*
X233000571Y-90227533D02*
X233000571Y-90379914D01*
X233000571Y-90379914D02*
X232962475Y-90456104D01*
X232962475Y-90456104D02*
X232924380Y-90494200D01*
X232924380Y-90494200D02*
X232848190Y-90532295D01*
X232848190Y-90532295D02*
X232695809Y-90532295D01*
X232695809Y-90532295D02*
X232619618Y-90494200D01*
X232619618Y-90494200D02*
X232581523Y-90456104D01*
X232581523Y-90456104D02*
X232543428Y-90379914D01*
X232543428Y-90379914D02*
X232543428Y-90227533D01*
X232543428Y-90227533D02*
X232581523Y-90151342D01*
X232581523Y-90151342D02*
X232619618Y-90113247D01*
X232619618Y-90113247D02*
X232695809Y-90075152D01*
D11*
X226849000Y-78559252D02*
X226849000Y-78036748D01*
X228319000Y-78559252D02*
X228319000Y-78036748D01*
X226270452Y-81761000D02*
X225747948Y-81761000D01*
X226270452Y-80291000D02*
X225747948Y-80291000D01*
X238365000Y-78561252D02*
X238365000Y-78038748D01*
X239835000Y-78561252D02*
X239835000Y-78038748D01*
X242350000Y-75300000D02*
G75*
G03*
X242350000Y-75300000I-950000J0D01*
G01*
X225610748Y-85371000D02*
X226133252Y-85371000D01*
X225610748Y-86841000D02*
X226133252Y-86841000D01*
X230038748Y-76165000D02*
X230561252Y-76165000D01*
X230038748Y-77635000D02*
X230561252Y-77635000D01*
X232691000Y-85351252D02*
X232691000Y-84828748D01*
X234161000Y-85351252D02*
X234161000Y-84828748D01*
X228627000Y-85351252D02*
X228627000Y-84828748D01*
X230097000Y-85351252D02*
X230097000Y-84828748D01*
X239310852Y-81964200D02*
X238788348Y-81964200D01*
X239310852Y-80494200D02*
X238788348Y-80494200D01*
X225260000Y-92860548D02*
X225260000Y-94283052D01*
X222540000Y-92860548D02*
X222540000Y-94283052D01*
X232611252Y-72335000D02*
X232088748Y-72335000D01*
X232611252Y-70865000D02*
X232088748Y-70865000D01*
X226133252Y-88873000D02*
X225610748Y-88873000D01*
X226133252Y-87403000D02*
X225610748Y-87403000D01*
X229689252Y-90905000D02*
X229166748Y-90905000D01*
X229689252Y-89435000D02*
X229166748Y-89435000D01*
X239341252Y-90905000D02*
X238818748Y-90905000D01*
X239341252Y-89435000D02*
X238818748Y-89435000D01*
X236399400Y-78594852D02*
X236399400Y-78072348D01*
X237869400Y-78594852D02*
X237869400Y-78072348D01*
X246099000Y-81272748D02*
X246099000Y-81795252D01*
X244629000Y-81272748D02*
X244629000Y-81795252D01*
X224865000Y-78561252D02*
X224865000Y-78038748D01*
X226335000Y-78561252D02*
X226335000Y-78038748D01*
X234661252Y-77635000D02*
X234138748Y-77635000D01*
X234661252Y-76165000D02*
X234138748Y-76165000D01*
X239341252Y-88873000D02*
X238818748Y-88873000D01*
X239341252Y-87403000D02*
X238818748Y-87403000D01*
X234989200Y-92860548D02*
X234989200Y-94283052D01*
X232269200Y-92860548D02*
X232269200Y-94283052D01*
X234723000Y-85351252D02*
X234723000Y-84828748D01*
X236193000Y-85351252D02*
X236193000Y-84828748D01*
X244055000Y-79899000D02*
X244055000Y-79699000D01*
X244055000Y-79699000D02*
X241270000Y-79699000D01*
X241270000Y-83369000D02*
X243870000Y-83369000D01*
X228464800Y-92860548D02*
X228464800Y-94283052D01*
X225744800Y-92860548D02*
X225744800Y-94283052D01*
X230659000Y-85351252D02*
X230659000Y-84828748D01*
X232129000Y-85351252D02*
X232129000Y-84828748D01*
X234652452Y-79627400D02*
X234129948Y-79627400D01*
X234652452Y-78157400D02*
X234129948Y-78157400D01*
X231752400Y-92860548D02*
X231752400Y-94283052D01*
X229032400Y-92860548D02*
X229032400Y-94283052D01*
X226133252Y-90905000D02*
X225610748Y-90905000D01*
X226133252Y-89435000D02*
X225610748Y-89435000D01*
X230015148Y-78157400D02*
X230537652Y-78157400D01*
X230015148Y-79627400D02*
X230537652Y-79627400D01*
X239241064Y-84809000D02*
X238786936Y-84809000D01*
X239241064Y-83339000D02*
X238786936Y-83339000D01*
X238818748Y-85371000D02*
X239341252Y-85371000D01*
X238818748Y-86841000D02*
X239341252Y-86841000D01*
X223962000Y-82650000D02*
G75*
G03*
X223962000Y-82650000I-950000J0D01*
G01*
X226109564Y-84875000D02*
X225655436Y-84875000D01*
X226109564Y-83405000D02*
X225655436Y-83405000D01*
X242350000Y-77900000D02*
G75*
G03*
X242350000Y-77900000I-950000J0D01*
G01*
X235851252Y-90905000D02*
X235328748Y-90905000D01*
X235851252Y-89435000D02*
X235328748Y-89435000D01*
%LPC*%
D12*
X195720000Y-74800000D03*
D13*
X198260000Y-74800000D03*
X200800000Y-74800000D03*
X203340000Y-74800000D03*
X205880000Y-74800000D03*
D14*
X215500000Y-68000000D03*
D15*
X176850000Y-108300000D03*
D14*
X254500000Y-62000000D03*
D16*
X202600000Y-86460000D03*
D17*
X207680000Y-84300000D03*
D18*
X205140000Y-84300000D03*
X202600000Y-84300000D03*
X200060000Y-84300000D03*
D12*
X181737000Y-60568000D03*
D13*
X181737000Y-58028000D03*
X184277000Y-60568000D03*
X184277000Y-58028000D03*
X186817000Y-60568000D03*
X186817000Y-58028000D03*
X189357000Y-60568000D03*
X189357000Y-58028000D03*
X191897000Y-60568000D03*
X191897000Y-58028000D03*
X194437000Y-60568000D03*
X194437000Y-58028000D03*
X196977000Y-60568000D03*
X196977000Y-58028000D03*
X199517000Y-60568000D03*
X199517000Y-58028000D03*
X202057000Y-60568000D03*
X202057000Y-58028000D03*
X204597000Y-60568000D03*
X204597000Y-58028000D03*
X207137000Y-60568000D03*
X207137000Y-58028000D03*
X209677000Y-60568000D03*
X209677000Y-58028000D03*
X212217000Y-60568000D03*
X212217000Y-58028000D03*
X214757000Y-60568000D03*
X214757000Y-58028000D03*
X217297000Y-60568000D03*
X217297000Y-58028000D03*
X219837000Y-60568000D03*
X219837000Y-58028000D03*
X222377000Y-60568000D03*
X222377000Y-58028000D03*
X224917000Y-60568000D03*
X224917000Y-58028000D03*
X227457000Y-60568000D03*
X227457000Y-58028000D03*
X229997000Y-60568000D03*
X229997000Y-58028000D03*
D15*
X234850000Y-108300000D03*
D14*
X248500000Y-101000000D03*
X209500000Y-107000000D03*
D15*
X176850000Y-59300000D03*
D14*
X215500000Y-101000000D03*
D19*
X199850000Y-97870000D03*
D20*
X199850000Y-103870000D03*
X204550000Y-100870000D03*
D15*
X234850000Y-59300000D03*
D14*
X248500000Y-68000000D03*
D21*
X227584000Y-79248000D03*
X227584000Y-77348000D03*
D22*
X226959200Y-81026000D03*
X225059200Y-81026000D03*
D21*
X239100000Y-79250000D03*
X239100000Y-77350000D03*
D23*
X241400000Y-75300000D03*
D24*
X224922000Y-86106000D03*
X226822000Y-86106000D03*
X229350000Y-76900000D03*
X231250000Y-76900000D03*
D21*
X233426000Y-86040000D03*
X233426000Y-84140000D03*
X229362000Y-86040000D03*
X229362000Y-84140000D03*
D22*
X239999600Y-81229200D03*
X238099600Y-81229200D03*
D25*
X223900000Y-92096800D03*
X223900000Y-95046800D03*
D22*
X233300000Y-71600000D03*
X231400000Y-71600000D03*
X226822000Y-88138000D03*
X224922000Y-88138000D03*
X230378000Y-90170000D03*
X228478000Y-90170000D03*
X240030000Y-90170000D03*
X238130000Y-90170000D03*
D21*
X237134400Y-79283600D03*
X237134400Y-77383600D03*
D26*
X245364000Y-80584000D03*
X245364000Y-82484000D03*
D21*
X225600000Y-79250000D03*
X225600000Y-77350000D03*
D22*
X235350000Y-76900000D03*
X233450000Y-76900000D03*
X240030000Y-88138000D03*
X238130000Y-88138000D03*
D25*
X233629200Y-92096800D03*
X233629200Y-95046800D03*
D21*
X235458000Y-86040000D03*
X235458000Y-84140000D03*
D27*
X243345000Y-80459000D03*
X243345000Y-82609000D03*
X241795000Y-82609000D03*
X241795000Y-80459000D03*
D25*
X227104800Y-92096800D03*
X227104800Y-95046800D03*
D21*
X231394000Y-86040000D03*
X231394000Y-84140000D03*
D22*
X235341200Y-78892400D03*
X233441200Y-78892400D03*
D25*
X230392400Y-92096800D03*
X230392400Y-95046800D03*
D22*
X226822000Y-90170000D03*
X224922000Y-90170000D03*
D24*
X229326400Y-78892400D03*
X231226400Y-78892400D03*
D28*
X239926500Y-84074000D03*
X238101500Y-84074000D03*
D24*
X238130000Y-86106000D03*
X240030000Y-86106000D03*
D23*
X223012000Y-82650000D03*
D28*
X226795000Y-84140000D03*
X224970000Y-84140000D03*
D23*
X241400000Y-77900000D03*
D22*
X236540000Y-90170000D03*
X234640000Y-90170000D03*
%LPD*%
M02*
