G04 #@! TF.GenerationSoftware,KiCad,Pcbnew,7.0.7-7.0.7~ubuntu22.04.1*
G04 #@! TF.CreationDate,2023-12-22T20:45:00+01:00*
G04 #@! TF.ProjectId,piaxe,70696178-652e-46b6-9963-61645f706362,rev?*
G04 #@! TF.SameCoordinates,Original*
G04 #@! TF.FileFunction,Paste,Top*
G04 #@! TF.FilePolarity,Positive*
%FSLAX46Y46*%
G04 Gerber Fmt 4.6, Leading zero omitted, Abs format (unit mm)*
G04 Created by KiCad (PCBNEW 7.0.7-7.0.7~ubuntu22.04.1) date 2023-12-22 20:45:00*
%MOMM*%
%LPD*%
G01*
G04 APERTURE LIST*
G04 Aperture macros list*
%AMRoundRect*
0 Rectangle with rounded corners*
0 $1 Rounding radius*
0 $2 $3 $4 $5 $6 $7 $8 $9 X,Y pos of 4 corners*
0 Add a 4 corners polygon primitive as box body*
4,1,4,$2,$3,$4,$5,$6,$7,$8,$9,$2,$3,0*
0 Add four circle primitives for the rounded corners*
1,1,$1+$1,$2,$3*
1,1,$1+$1,$4,$5*
1,1,$1+$1,$6,$7*
1,1,$1+$1,$8,$9*
0 Add four rect primitives between the rounded corners*
20,1,$1+$1,$2,$3,$4,$5,0*
20,1,$1+$1,$4,$5,$6,$7,0*
20,1,$1+$1,$6,$7,$8,$9,0*
20,1,$1+$1,$8,$9,$2,$3,0*%
%AMFreePoly0*
4,1,48,0.206759,0.287330,0.222702,0.287330,0.235600,0.277958,0.250763,0.273032,0.260133,0.260133,0.273032,0.250763,0.277958,0.235600,0.287330,0.222702,0.287330,0.206759,0.292257,0.191596,0.292257,-0.108205,0.289747,-0.115928,0.291018,-0.123951,0.280315,-0.144955,0.273032,-0.167372,0.266461,-0.172145,0.262774,-0.179383,0.179383,-0.262774,0.172145,-0.266461,0.167372,-0.273032,
0.144953,-0.280316,0.123952,-0.291017,0.115930,-0.289746,0.108205,-0.292257,-0.191596,-0.292257,-0.206759,-0.287330,-0.222702,-0.287330,-0.235600,-0.277958,-0.250763,-0.273032,-0.260133,-0.260133,-0.273032,-0.250763,-0.277958,-0.235600,-0.287330,-0.222702,-0.287330,-0.206759,-0.292257,-0.191596,-0.292257,0.191596,-0.287330,0.206759,-0.287330,0.222702,-0.277958,0.235600,-0.273032,0.250763,
-0.260133,0.260133,-0.250763,0.273032,-0.235600,0.277958,-0.222702,0.287330,-0.206759,0.287330,-0.191596,0.292257,0.191596,0.292257,0.206759,0.287330,0.206759,0.287330,$1*%
%AMFreePoly1*
4,1,51,0.147653,0.402231,0.149784,0.402802,0.153047,0.401280,0.170637,0.398179,0.184320,0.386697,0.200509,0.379148,0.268292,0.311365,0.271204,0.307206,0.273115,0.306103,0.274347,0.302717,0.284591,0.288088,0.286147,0.270294,0.292257,0.253509,0.292257,-0.253509,0.291375,-0.258507,0.291947,-0.260640,0.290423,-0.263906,0.287323,-0.281493,0.275841,-0.295175,0.268292,-0.311365,
0.200509,-0.379148,0.196350,-0.382060,0.195247,-0.383971,0.191862,-0.385202,0.177233,-0.395447,0.159438,-0.397003,0.142653,-0.403113,-0.210436,-0.403113,-0.221065,-0.401238,-0.224644,-0.401870,-0.227791,-0.400053,-0.238420,-0.398179,-0.254702,-0.384516,-0.273115,-0.373886,-0.275640,-0.366946,-0.281295,-0.362202,-0.284986,-0.341269,-0.292257,-0.321292,-0.292257,0.321292,-0.290382,0.331921,
-0.291014,0.335500,-0.289197,0.338647,-0.287323,0.349276,-0.273660,0.365558,-0.263030,0.383971,-0.256090,0.386496,-0.251346,0.392151,-0.230413,0.395842,-0.210436,0.403113,0.142653,0.403113,0.147653,0.402231,0.147653,0.402231,$1*%
%AMFreePoly2*
4,1,48,0.115930,0.289746,0.123952,0.291017,0.144953,0.280316,0.167372,0.273032,0.172145,0.266461,0.179383,0.262774,0.262774,0.179383,0.266461,0.172145,0.273032,0.167372,0.280315,0.144955,0.291018,0.123951,0.289747,0.115928,0.292257,0.108205,0.292257,-0.191596,0.287330,-0.206759,0.287330,-0.222702,0.277958,-0.235600,0.273032,-0.250763,0.260133,-0.260133,0.250763,-0.273032,
0.235600,-0.277958,0.222702,-0.287330,0.206759,-0.287330,0.191596,-0.292257,-0.191596,-0.292257,-0.206759,-0.287330,-0.222702,-0.287330,-0.235600,-0.277958,-0.250763,-0.273032,-0.260133,-0.260133,-0.273032,-0.250763,-0.277958,-0.235600,-0.287330,-0.222702,-0.287330,-0.206759,-0.292257,-0.191596,-0.292257,0.191596,-0.287330,0.206759,-0.287330,0.222702,-0.277958,0.235600,-0.273032,0.250763,
-0.260133,0.260133,-0.250763,0.273032,-0.235600,0.277958,-0.222702,0.287330,-0.206759,0.287330,-0.191596,0.292257,0.108205,0.292257,0.115930,0.289746,0.115930,0.289746,$1*%
%AMFreePoly3*
4,1,51,0.331921,0.290382,0.335500,0.291014,0.338647,0.289197,0.349276,0.287323,0.365558,0.273660,0.383971,0.263030,0.386496,0.256090,0.392151,0.251346,0.395842,0.230413,0.403113,0.210436,0.403113,-0.142653,0.402231,-0.147651,0.402803,-0.149784,0.401279,-0.153050,0.398179,-0.170637,0.386697,-0.184319,0.379148,-0.200509,0.311365,-0.268292,0.307206,-0.271204,0.306103,-0.273115,
0.302718,-0.274346,0.288089,-0.284591,0.270294,-0.286147,0.253509,-0.292257,-0.253509,-0.292257,-0.258507,-0.291375,-0.260640,-0.291947,-0.263906,-0.290423,-0.281493,-0.287323,-0.295175,-0.275841,-0.311365,-0.268292,-0.379148,-0.200509,-0.382060,-0.196350,-0.383971,-0.195247,-0.385202,-0.191862,-0.395447,-0.177233,-0.397003,-0.159438,-0.403113,-0.142653,-0.403113,0.210436,-0.401238,0.221065,
-0.401870,0.224644,-0.400053,0.227791,-0.398179,0.238420,-0.384516,0.254702,-0.373886,0.273115,-0.366946,0.275640,-0.362202,0.281295,-0.341269,0.284986,-0.321292,0.292257,0.321292,0.292257,0.331921,0.290382,0.331921,0.290382,$1*%
%AMFreePoly4*
4,1,51,0.258509,0.291375,0.260640,0.291946,0.263903,0.290424,0.281493,0.287323,0.295176,0.275841,0.311365,0.268292,0.379148,0.200509,0.382060,0.196350,0.383971,0.195247,0.385203,0.191861,0.395447,0.177232,0.397003,0.159438,0.403113,0.142653,0.403113,-0.210436,0.401238,-0.221065,0.401870,-0.224644,0.400053,-0.227791,0.398179,-0.238420,0.384516,-0.254702,0.373886,-0.273115,
0.366946,-0.275640,0.362202,-0.281295,0.341269,-0.284986,0.321292,-0.292257,-0.321292,-0.292257,-0.331921,-0.290382,-0.335500,-0.291014,-0.338647,-0.289197,-0.349276,-0.287323,-0.365558,-0.273660,-0.383971,-0.263030,-0.386496,-0.256090,-0.392151,-0.251346,-0.395842,-0.230413,-0.403113,-0.210436,-0.403113,0.142653,-0.402231,0.147653,-0.402802,0.149784,-0.401280,0.153047,-0.398179,0.170637,
-0.386697,0.184320,-0.379148,0.200509,-0.311365,0.268292,-0.307206,0.271204,-0.306103,0.273115,-0.302717,0.274347,-0.288088,0.284591,-0.270294,0.286147,-0.253509,0.292257,0.253509,0.292257,0.258509,0.291375,0.258509,0.291375,$1*%
%AMFreePoly5*
4,1,48,0.206759,0.287330,0.222702,0.287330,0.235600,0.277958,0.250763,0.273032,0.260133,0.260133,0.273032,0.250763,0.277958,0.235600,0.287330,0.222702,0.287330,0.206759,0.292257,0.191596,0.292257,-0.191596,0.287330,-0.206759,0.287330,-0.222702,0.277958,-0.235600,0.273032,-0.250763,0.260133,-0.260133,0.250763,-0.273032,0.235600,-0.277958,0.222702,-0.287330,0.206759,-0.287330,
0.191596,-0.292257,-0.108205,-0.292257,-0.115928,-0.289747,-0.123951,-0.291018,-0.144955,-0.280315,-0.167372,-0.273032,-0.172145,-0.266461,-0.179383,-0.262774,-0.262774,-0.179383,-0.266461,-0.172145,-0.273032,-0.167372,-0.280316,-0.144953,-0.291017,-0.123952,-0.289746,-0.115930,-0.292257,-0.108205,-0.292257,0.191596,-0.287330,0.206759,-0.287330,0.222702,-0.277958,0.235600,-0.273032,0.250763,
-0.260133,0.260133,-0.250763,0.273032,-0.235600,0.277958,-0.222702,0.287330,-0.206759,0.287330,-0.191596,0.292257,0.191596,0.292257,0.206759,0.287330,0.206759,0.287330,$1*%
%AMFreePoly6*
4,1,51,0.221065,0.401238,0.224644,0.401870,0.227791,0.400053,0.238420,0.398179,0.254702,0.384516,0.273115,0.373886,0.275640,0.366946,0.281295,0.362202,0.284986,0.341269,0.292257,0.321292,0.292257,-0.321292,0.290382,-0.331921,0.291014,-0.335500,0.289197,-0.338647,0.287323,-0.349276,0.273660,-0.365558,0.263030,-0.383971,0.256090,-0.386496,0.251346,-0.392151,0.230413,-0.395842,
0.210436,-0.403113,-0.142653,-0.403113,-0.147651,-0.402231,-0.149784,-0.402803,-0.153050,-0.401279,-0.170637,-0.398179,-0.184319,-0.386697,-0.200509,-0.379148,-0.268292,-0.311365,-0.271204,-0.307206,-0.273115,-0.306103,-0.274346,-0.302718,-0.284591,-0.288089,-0.286147,-0.270294,-0.292257,-0.253509,-0.292257,0.253509,-0.291375,0.258509,-0.291946,0.260640,-0.290424,0.263903,-0.287323,0.281493,
-0.275841,0.295176,-0.268292,0.311365,-0.200509,0.379148,-0.196350,0.382060,-0.195247,0.383971,-0.191861,0.385203,-0.177232,0.395447,-0.159438,0.397003,-0.142653,0.403113,0.210436,0.403113,0.221065,0.401238,0.221065,0.401238,$1*%
%AMFreePoly7*
4,1,48,0.206759,0.287330,0.222702,0.287330,0.235600,0.277958,0.250763,0.273032,0.260133,0.260133,0.273032,0.250763,0.277958,0.235600,0.287330,0.222702,0.287330,0.206759,0.292257,0.191596,0.292257,-0.191596,0.287330,-0.206759,0.287330,-0.222702,0.277958,-0.235600,0.273032,-0.250763,0.260133,-0.260133,0.250763,-0.273032,0.235600,-0.277958,0.222702,-0.287330,0.206759,-0.287330,
0.191596,-0.292257,-0.191596,-0.292257,-0.206759,-0.287330,-0.222702,-0.287330,-0.235600,-0.277958,-0.250763,-0.273032,-0.260133,-0.260133,-0.273032,-0.250763,-0.277958,-0.235600,-0.287330,-0.222702,-0.287330,-0.206759,-0.292257,-0.191596,-0.292257,0.108205,-0.289746,0.115930,-0.291017,0.123952,-0.280316,0.144953,-0.273032,0.167372,-0.266461,0.172145,-0.262774,0.179383,-0.179383,0.262774,
-0.172145,0.266461,-0.167372,0.273032,-0.144955,0.280315,-0.123951,0.291018,-0.115928,0.289747,-0.108205,0.292257,0.191596,0.292257,0.206759,0.287330,0.206759,0.287330,$1*%
G04 Aperture macros list end*
%ADD10C,0.001000*%
%ADD11RoundRect,0.150000X0.250000X0.430000X-0.250000X0.430000X-0.250000X-0.430000X0.250000X-0.430000X0*%
%ADD12RoundRect,0.135000X0.585000X-0.325000X0.585000X0.325000X-0.585000X0.325000X-0.585000X-0.325000X0*%
%ADD13R,0.176800X0.633600*%
%ADD14RoundRect,0.135000X0.325000X0.945000X-0.325000X0.945000X-0.325000X-0.945000X0.325000X-0.945000X0*%
%ADD15R,2.640000X2.240000*%
%ADD16RoundRect,0.147500X-0.262500X-0.412500X0.262500X-0.412500X0.262500X0.412500X-0.262500X0.412500X0*%
%ADD17RoundRect,0.147500X0.412500X-0.262500X0.412500X0.262500X-0.412500X0.262500X-0.412500X-0.262500X0*%
%ADD18RoundRect,0.135000X-0.945000X0.325000X-0.945000X-0.325000X0.945000X-0.325000X0.945000X0.325000X0*%
%ADD19RoundRect,0.137500X-0.312500X-0.922500X0.312500X-0.922500X0.312500X0.922500X-0.312500X0.922500X0*%
%ADD20RoundRect,0.150000X-0.430000X0.250000X-0.430000X-0.250000X0.430000X-0.250000X0.430000X0.250000X0*%
%ADD21RoundRect,0.052500X-0.127500X0.187500X-0.127500X-0.187500X0.127500X-0.187500X0.127500X0.187500X0*%
%ADD22RoundRect,0.127500X-0.362500X-0.932500X0.362500X-0.932500X0.362500X0.932500X-0.362500X0.932500X0*%
%ADD23RoundRect,0.147500X0.262500X0.412500X-0.262500X0.412500X-0.262500X-0.412500X0.262500X-0.412500X0*%
%ADD24R,1.570000X1.235000*%
%ADD25R,1.570000X1.585000*%
%ADD26R,0.490000X0.490000*%
%ADD27RoundRect,0.125000X-0.575000X0.375000X-0.575000X-0.375000X0.575000X-0.375000X0.575000X0.375000X0*%
%ADD28RoundRect,0.000000X-0.920000X1.000000X-0.920000X-1.000000X0.920000X-1.000000X0.920000X1.000000X0*%
%ADD29RoundRect,0.150000X-0.250000X-0.430000X0.250000X-0.430000X0.250000X0.430000X-0.250000X0.430000X0*%
%ADD30RoundRect,0.017500X-0.222500X0.512500X-0.222500X-0.512500X0.222500X-0.512500X0.222500X0.512500X0*%
%ADD31R,0.320000X1.320000*%
%ADD32R,1.460000X0.560000*%
%ADD33R,1.600000X1.200000*%
%ADD34R,1.080000X1.600000*%
%ADD35R,1.144000X2.000000*%
%ADD36RoundRect,0.150000X0.430000X-0.250000X0.430000X0.250000X-0.430000X0.250000X-0.430000X-0.250000X0*%
%ADD37R,0.320000X0.520000*%
%ADD38RoundRect,0.135000X-0.325000X-0.945000X0.325000X-0.945000X0.325000X0.945000X-0.325000X0.945000X0*%
%ADD39R,1.235000X1.570000*%
%ADD40R,1.585000X1.570000*%
%ADD41RoundRect,0.147500X-0.412500X0.262500X-0.412500X-0.262500X0.412500X-0.262500X0.412500X0.262500X0*%
%ADD42RoundRect,0.135000X0.945000X-0.325000X0.945000X0.325000X-0.945000X0.325000X-0.945000X-0.325000X0*%
%ADD43RoundRect,0.110000X0.450000X0.730000X-0.450000X0.730000X-0.450000X-0.730000X0.450000X-0.730000X0*%
%ADD44RoundRect,0.000000X-1.000000X1.400000X-1.000000X-1.400000X1.000000X-1.400000X1.000000X1.400000X0*%
%ADD45R,3.200000X1.200000*%
%ADD46RoundRect,0.137500X0.312500X0.562500X-0.312500X0.562500X-0.312500X-0.562500X0.312500X-0.562500X0*%
%ADD47RoundRect,0.000000X-0.120000X0.268000X-0.120000X-0.268000X0.120000X-0.268000X0.120000X0.268000X0*%
%ADD48R,0.520000X2.208000*%
%ADD49R,3.048000X3.396000*%
%ADD50FreePoly0,270.000000*%
%ADD51FreePoly1,270.000000*%
%ADD52FreePoly2,270.000000*%
%ADD53FreePoly3,270.000000*%
%ADD54RoundRect,0.201557X-0.201556X0.201556X-0.201556X-0.201556X0.201556X-0.201556X0.201556X0.201556X0*%
%ADD55FreePoly4,270.000000*%
%ADD56FreePoly5,270.000000*%
%ADD57FreePoly6,270.000000*%
%ADD58FreePoly7,270.000000*%
%ADD59RoundRect,0.000000X-0.100000X0.350000X-0.100000X-0.350000X0.100000X-0.350000X0.100000X0.350000X0*%
%ADD60RoundRect,0.037500X-0.312500X0.062500X-0.312500X-0.062500X0.312500X-0.062500X0.312500X0.062500X0*%
%ADD61RoundRect,0.002500X0.237500X-0.587500X0.237500X0.587500X-0.237500X0.587500X-0.237500X-0.587500X0*%
%ADD62RoundRect,0.000000X0.600000X0.200000X-0.600000X0.200000X-0.600000X-0.200000X0.600000X-0.200000X0*%
%ADD63RoundRect,0.075000X0.125000X0.525000X-0.125000X0.525000X-0.125000X-0.525000X0.125000X-0.525000X0*%
%ADD64RoundRect,0.135000X0.325000X0.585000X-0.325000X0.585000X-0.325000X-0.585000X0.325000X-0.585000X0*%
G04 APERTURE END LIST*
D10*
X128825000Y-142870000D02*
X128035000Y-142870000D01*
X128035000Y-142870000D02*
X128035000Y-144070000D01*
X128035000Y-144070000D02*
X128825000Y-144070000D01*
X128825000Y-144070000D02*
X128825000Y-142870000D01*
G36*
X128825000Y-142870000D02*
G01*
X128035000Y-142870000D01*
X128035000Y-144070000D01*
X128825000Y-144070000D01*
X128825000Y-142870000D01*
G37*
X125795000Y-142870000D02*
X125005000Y-142870000D01*
X125005000Y-142870000D02*
X125005000Y-144070000D01*
X125005000Y-144070000D02*
X125795000Y-144070000D01*
X125795000Y-144070000D02*
X125795000Y-142870000D01*
G36*
X125795000Y-142870000D02*
G01*
X125005000Y-142870000D01*
X125005000Y-144070000D01*
X125795000Y-144070000D01*
X125795000Y-142870000D01*
G37*
X127235000Y-142890000D02*
X126445000Y-142890000D01*
X126445000Y-142890000D02*
X126445000Y-144090000D01*
X126445000Y-144090000D02*
X127235000Y-144090000D01*
X127235000Y-144090000D02*
X127235000Y-142890000D01*
G36*
X127235000Y-142890000D02*
G01*
X126445000Y-142890000D01*
X126445000Y-144090000D01*
X127235000Y-144090000D01*
X127235000Y-142890000D01*
G37*
X130905000Y-142920000D02*
X130115000Y-142920000D01*
X130115000Y-142920000D02*
X130115000Y-144120000D01*
X130115000Y-144120000D02*
X130905000Y-144120000D01*
X130905000Y-144120000D02*
X130905000Y-142920000D01*
G36*
X130905000Y-142920000D02*
G01*
X130115000Y-142920000D01*
X130115000Y-144120000D01*
X130905000Y-144120000D01*
X130905000Y-142920000D01*
G37*
X128830000Y-145000000D02*
X128040000Y-145000000D01*
X128040000Y-145000000D02*
X128040000Y-146200000D01*
X128040000Y-146200000D02*
X128830000Y-146200000D01*
X128830000Y-146200000D02*
X128830000Y-145000000D01*
G36*
X128830000Y-145000000D02*
G01*
X128040000Y-145000000D01*
X128040000Y-146200000D01*
X128830000Y-146200000D01*
X128830000Y-145000000D01*
G37*
X125800000Y-145000000D02*
X125010000Y-145000000D01*
X125010000Y-145000000D02*
X125010000Y-146200000D01*
X125010000Y-146200000D02*
X125800000Y-146200000D01*
X125800000Y-146200000D02*
X125800000Y-145000000D01*
G36*
X125800000Y-145000000D02*
G01*
X125010000Y-145000000D01*
X125010000Y-146200000D01*
X125800000Y-146200000D01*
X125800000Y-145000000D01*
G37*
X127240000Y-145020000D02*
X126450000Y-145020000D01*
X126450000Y-145020000D02*
X126450000Y-146220000D01*
X126450000Y-146220000D02*
X127240000Y-146220000D01*
X127240000Y-146220000D02*
X127240000Y-145020000D01*
G36*
X127240000Y-145020000D02*
G01*
X126450000Y-145020000D01*
X126450000Y-146220000D01*
X127240000Y-146220000D01*
X127240000Y-145020000D01*
G37*
X130910000Y-145050000D02*
X130120000Y-145050000D01*
X130120000Y-145050000D02*
X130120000Y-146250000D01*
X130120000Y-146250000D02*
X130910000Y-146250000D01*
X130910000Y-146250000D02*
X130910000Y-145050000D01*
G36*
X130910000Y-145050000D02*
G01*
X130120000Y-145050000D01*
X130120000Y-146250000D01*
X130910000Y-146250000D01*
X130910000Y-145050000D01*
G37*
X128825000Y-157870000D02*
X128035000Y-157870000D01*
X128035000Y-157870000D02*
X128035000Y-159070000D01*
X128035000Y-159070000D02*
X128825000Y-159070000D01*
X128825000Y-159070000D02*
X128825000Y-157870000D01*
G36*
X128825000Y-157870000D02*
G01*
X128035000Y-157870000D01*
X128035000Y-159070000D01*
X128825000Y-159070000D01*
X128825000Y-157870000D01*
G37*
X125795000Y-157870000D02*
X125005000Y-157870000D01*
X125005000Y-157870000D02*
X125005000Y-159070000D01*
X125005000Y-159070000D02*
X125795000Y-159070000D01*
X125795000Y-159070000D02*
X125795000Y-157870000D01*
G36*
X125795000Y-157870000D02*
G01*
X125005000Y-157870000D01*
X125005000Y-159070000D01*
X125795000Y-159070000D01*
X125795000Y-157870000D01*
G37*
X127235000Y-157890000D02*
X126445000Y-157890000D01*
X126445000Y-157890000D02*
X126445000Y-159090000D01*
X126445000Y-159090000D02*
X127235000Y-159090000D01*
X127235000Y-159090000D02*
X127235000Y-157890000D01*
G36*
X127235000Y-157890000D02*
G01*
X126445000Y-157890000D01*
X126445000Y-159090000D01*
X127235000Y-159090000D01*
X127235000Y-157890000D01*
G37*
X130905000Y-157920000D02*
X130115000Y-157920000D01*
X130115000Y-157920000D02*
X130115000Y-159120000D01*
X130115000Y-159120000D02*
X130905000Y-159120000D01*
X130905000Y-159120000D02*
X130905000Y-157920000D01*
G36*
X130905000Y-157920000D02*
G01*
X130115000Y-157920000D01*
X130115000Y-159120000D01*
X130905000Y-159120000D01*
X130905000Y-157920000D01*
G37*
X128830000Y-160000000D02*
X128040000Y-160000000D01*
X128040000Y-160000000D02*
X128040000Y-161200000D01*
X128040000Y-161200000D02*
X128830000Y-161200000D01*
X128830000Y-161200000D02*
X128830000Y-160000000D01*
G36*
X128830000Y-160000000D02*
G01*
X128040000Y-160000000D01*
X128040000Y-161200000D01*
X128830000Y-161200000D01*
X128830000Y-160000000D01*
G37*
X125800000Y-160000000D02*
X125010000Y-160000000D01*
X125010000Y-160000000D02*
X125010000Y-161200000D01*
X125010000Y-161200000D02*
X125800000Y-161200000D01*
X125800000Y-161200000D02*
X125800000Y-160000000D01*
G36*
X125800000Y-160000000D02*
G01*
X125010000Y-160000000D01*
X125010000Y-161200000D01*
X125800000Y-161200000D01*
X125800000Y-160000000D01*
G37*
X127240000Y-160020000D02*
X126450000Y-160020000D01*
X126450000Y-160020000D02*
X126450000Y-161220000D01*
X126450000Y-161220000D02*
X127240000Y-161220000D01*
X127240000Y-161220000D02*
X127240000Y-160020000D01*
G36*
X127240000Y-160020000D02*
G01*
X126450000Y-160020000D01*
X126450000Y-161220000D01*
X127240000Y-161220000D01*
X127240000Y-160020000D01*
G37*
X130910000Y-160050000D02*
X130120000Y-160050000D01*
X130120000Y-160050000D02*
X130120000Y-161250000D01*
X130120000Y-161250000D02*
X130910000Y-161250000D01*
X130910000Y-161250000D02*
X130910000Y-160050000D01*
G36*
X130910000Y-160050000D02*
G01*
X130120000Y-160050000D01*
X130120000Y-161250000D01*
X130910000Y-161250000D01*
X130910000Y-160050000D01*
G37*
X141175000Y-146130000D02*
X141965000Y-146130000D01*
X141965000Y-146130000D02*
X141965000Y-144930000D01*
X141965000Y-144930000D02*
X141175000Y-144930000D01*
X141175000Y-144930000D02*
X141175000Y-146130000D01*
G36*
X141175000Y-146130000D02*
G01*
X141965000Y-146130000D01*
X141965000Y-144930000D01*
X141175000Y-144930000D01*
X141175000Y-146130000D01*
G37*
X144205000Y-146130000D02*
X144995000Y-146130000D01*
X144995000Y-146130000D02*
X144995000Y-144930000D01*
X144995000Y-144930000D02*
X144205000Y-144930000D01*
X144205000Y-144930000D02*
X144205000Y-146130000D01*
G36*
X144205000Y-146130000D02*
G01*
X144995000Y-146130000D01*
X144995000Y-144930000D01*
X144205000Y-144930000D01*
X144205000Y-146130000D01*
G37*
X142765000Y-146110000D02*
X143555000Y-146110000D01*
X143555000Y-146110000D02*
X143555000Y-144910000D01*
X143555000Y-144910000D02*
X142765000Y-144910000D01*
X142765000Y-144910000D02*
X142765000Y-146110000D01*
G36*
X142765000Y-146110000D02*
G01*
X143555000Y-146110000D01*
X143555000Y-144910000D01*
X142765000Y-144910000D01*
X142765000Y-146110000D01*
G37*
X139095000Y-146080000D02*
X139885000Y-146080000D01*
X139885000Y-146080000D02*
X139885000Y-144880000D01*
X139885000Y-144880000D02*
X139095000Y-144880000D01*
X139095000Y-144880000D02*
X139095000Y-146080000D01*
G36*
X139095000Y-146080000D02*
G01*
X139885000Y-146080000D01*
X139885000Y-144880000D01*
X139095000Y-144880000D01*
X139095000Y-146080000D01*
G37*
X141170000Y-144000000D02*
X141960000Y-144000000D01*
X141960000Y-144000000D02*
X141960000Y-142800000D01*
X141960000Y-142800000D02*
X141170000Y-142800000D01*
X141170000Y-142800000D02*
X141170000Y-144000000D01*
G36*
X141170000Y-144000000D02*
G01*
X141960000Y-144000000D01*
X141960000Y-142800000D01*
X141170000Y-142800000D01*
X141170000Y-144000000D01*
G37*
X144200000Y-144000000D02*
X144990000Y-144000000D01*
X144990000Y-144000000D02*
X144990000Y-142800000D01*
X144990000Y-142800000D02*
X144200000Y-142800000D01*
X144200000Y-142800000D02*
X144200000Y-144000000D01*
G36*
X144200000Y-144000000D02*
G01*
X144990000Y-144000000D01*
X144990000Y-142800000D01*
X144200000Y-142800000D01*
X144200000Y-144000000D01*
G37*
X142760000Y-143980000D02*
X143550000Y-143980000D01*
X143550000Y-143980000D02*
X143550000Y-142780000D01*
X143550000Y-142780000D02*
X142760000Y-142780000D01*
X142760000Y-142780000D02*
X142760000Y-143980000D01*
G36*
X142760000Y-143980000D02*
G01*
X143550000Y-143980000D01*
X143550000Y-142780000D01*
X142760000Y-142780000D01*
X142760000Y-143980000D01*
G37*
X139090000Y-143950000D02*
X139880000Y-143950000D01*
X139880000Y-143950000D02*
X139880000Y-142750000D01*
X139880000Y-142750000D02*
X139090000Y-142750000D01*
X139090000Y-142750000D02*
X139090000Y-143950000D01*
G36*
X139090000Y-143950000D02*
G01*
X139880000Y-143950000D01*
X139880000Y-142750000D01*
X139090000Y-142750000D01*
X139090000Y-143950000D01*
G37*
X141175000Y-161130000D02*
X141965000Y-161130000D01*
X141965000Y-161130000D02*
X141965000Y-159930000D01*
X141965000Y-159930000D02*
X141175000Y-159930000D01*
X141175000Y-159930000D02*
X141175000Y-161130000D01*
G36*
X141175000Y-161130000D02*
G01*
X141965000Y-161130000D01*
X141965000Y-159930000D01*
X141175000Y-159930000D01*
X141175000Y-161130000D01*
G37*
X144205000Y-161130000D02*
X144995000Y-161130000D01*
X144995000Y-161130000D02*
X144995000Y-159930000D01*
X144995000Y-159930000D02*
X144205000Y-159930000D01*
X144205000Y-159930000D02*
X144205000Y-161130000D01*
G36*
X144205000Y-161130000D02*
G01*
X144995000Y-161130000D01*
X144995000Y-159930000D01*
X144205000Y-159930000D01*
X144205000Y-161130000D01*
G37*
X142765000Y-161110000D02*
X143555000Y-161110000D01*
X143555000Y-161110000D02*
X143555000Y-159910000D01*
X143555000Y-159910000D02*
X142765000Y-159910000D01*
X142765000Y-159910000D02*
X142765000Y-161110000D01*
G36*
X142765000Y-161110000D02*
G01*
X143555000Y-161110000D01*
X143555000Y-159910000D01*
X142765000Y-159910000D01*
X142765000Y-161110000D01*
G37*
X139095000Y-161080000D02*
X139885000Y-161080000D01*
X139885000Y-161080000D02*
X139885000Y-159880000D01*
X139885000Y-159880000D02*
X139095000Y-159880000D01*
X139095000Y-159880000D02*
X139095000Y-161080000D01*
G36*
X139095000Y-161080000D02*
G01*
X139885000Y-161080000D01*
X139885000Y-159880000D01*
X139095000Y-159880000D01*
X139095000Y-161080000D01*
G37*
X141170000Y-159000000D02*
X141960000Y-159000000D01*
X141960000Y-159000000D02*
X141960000Y-157800000D01*
X141960000Y-157800000D02*
X141170000Y-157800000D01*
X141170000Y-157800000D02*
X141170000Y-159000000D01*
G36*
X141170000Y-159000000D02*
G01*
X141960000Y-159000000D01*
X141960000Y-157800000D01*
X141170000Y-157800000D01*
X141170000Y-159000000D01*
G37*
X144200000Y-159000000D02*
X144990000Y-159000000D01*
X144990000Y-159000000D02*
X144990000Y-157800000D01*
X144990000Y-157800000D02*
X144200000Y-157800000D01*
X144200000Y-157800000D02*
X144200000Y-159000000D01*
G36*
X144200000Y-159000000D02*
G01*
X144990000Y-159000000D01*
X144990000Y-157800000D01*
X144200000Y-157800000D01*
X144200000Y-159000000D01*
G37*
X142760000Y-158980000D02*
X143550000Y-158980000D01*
X143550000Y-158980000D02*
X143550000Y-157780000D01*
X143550000Y-157780000D02*
X142760000Y-157780000D01*
X142760000Y-157780000D02*
X142760000Y-158980000D01*
G36*
X142760000Y-158980000D02*
G01*
X143550000Y-158980000D01*
X143550000Y-157780000D01*
X142760000Y-157780000D01*
X142760000Y-158980000D01*
G37*
X139090000Y-158950000D02*
X139880000Y-158950000D01*
X139880000Y-158950000D02*
X139880000Y-157750000D01*
X139880000Y-157750000D02*
X139090000Y-157750000D01*
X139090000Y-157750000D02*
X139090000Y-158950000D01*
G36*
X139090000Y-158950000D02*
G01*
X139880000Y-158950000D01*
X139880000Y-157750000D01*
X139090000Y-157750000D01*
X139090000Y-158950000D01*
G37*
D11*
X173626315Y-96563089D03*
X171726315Y-96563089D03*
D12*
X94150000Y-98565000D03*
X94150000Y-95615000D03*
D13*
X131263000Y-141584000D03*
X130761000Y-141584000D03*
X130259000Y-141584000D03*
X129757000Y-141584000D03*
X129255000Y-141584000D03*
X128753000Y-141584000D03*
X128251000Y-141584000D03*
X127749000Y-141584000D03*
X127247000Y-141584000D03*
X126745000Y-141584000D03*
X126243000Y-141584000D03*
X125741000Y-141584000D03*
X125239000Y-141584000D03*
X124737000Y-141584000D03*
X124750000Y-147416000D03*
X125250000Y-147416000D03*
X125750000Y-147416000D03*
X126250000Y-147416000D03*
X126750000Y-147416000D03*
X127247000Y-147416000D03*
X127750000Y-147416000D03*
X128251000Y-147416000D03*
X128753000Y-147416000D03*
X129255000Y-147416000D03*
X129757000Y-147416000D03*
X130250000Y-147416000D03*
X130761000Y-147416000D03*
X131250000Y-147416000D03*
D14*
X145475000Y-108100000D03*
X142525000Y-108100000D03*
D15*
X130180000Y-95440000D03*
X137790000Y-95440000D03*
D16*
X128257500Y-82590000D03*
X130082500Y-82590000D03*
D17*
X94450000Y-87290000D03*
X94450000Y-85465000D03*
D16*
X94937500Y-83377500D03*
X96762500Y-83377500D03*
D18*
X113200000Y-102900000D03*
X113200000Y-105850000D03*
D19*
X92850000Y-79190000D03*
X95775000Y-79190000D03*
D11*
X177126315Y-90143089D03*
X175226315Y-90143089D03*
D20*
X119770000Y-86955000D03*
X119770000Y-88855000D03*
D21*
X123870000Y-86755000D03*
X123870000Y-88855000D03*
D17*
X144300000Y-85662500D03*
X144300000Y-83837500D03*
D22*
X140875000Y-95145000D03*
X145500000Y-95145000D03*
D20*
X125017500Y-78835000D03*
X125017500Y-80735000D03*
D23*
X126692000Y-82570000D03*
X124867000Y-82570000D03*
D24*
X123935000Y-105077500D03*
X126125000Y-105077500D03*
D25*
X123935000Y-103167500D03*
X126125000Y-103167500D03*
D26*
X123125000Y-107080000D03*
X124395000Y-107080000D03*
X125665000Y-107080000D03*
X126935000Y-107080000D03*
X123125000Y-101480000D03*
X124395000Y-101480000D03*
X125665000Y-101480000D03*
X126935000Y-101480000D03*
D27*
X135900000Y-81887500D03*
X135900000Y-84687500D03*
D28*
X109960000Y-86020000D03*
X109960000Y-90320000D03*
D29*
X160926315Y-90763089D03*
X162826315Y-90763089D03*
D30*
X177176315Y-92163089D03*
X176226315Y-92163089D03*
X175276315Y-92163089D03*
X175276315Y-94438089D03*
X177176315Y-94438089D03*
D31*
X137912500Y-73677500D03*
X137262500Y-73677500D03*
X136612500Y-73677500D03*
X135962500Y-73677500D03*
X135312500Y-73677500D03*
D32*
X139562500Y-72477500D03*
D33*
X139462500Y-73777500D03*
D34*
X139342500Y-71727500D03*
D35*
X137572500Y-70527500D03*
X135652500Y-70527500D03*
D34*
X133862500Y-71727500D03*
D33*
X133712500Y-73797500D03*
D32*
X133612500Y-72477500D03*
D36*
X115670000Y-87140000D03*
X115670000Y-85240000D03*
D16*
X149387500Y-89000000D03*
X151212500Y-89000000D03*
D37*
X165906315Y-92393089D03*
X165256315Y-92393089D03*
X164606315Y-92393089D03*
X164606315Y-94293089D03*
X165906315Y-94293089D03*
D17*
X137987500Y-77825000D03*
X137987500Y-76000000D03*
D16*
X126870000Y-78605000D03*
X128695000Y-78605000D03*
D23*
X128695000Y-80605000D03*
X126870000Y-80605000D03*
D38*
X151225000Y-104900000D03*
X154175000Y-104900000D03*
D22*
X140887500Y-104825001D03*
X145512500Y-104825001D03*
D38*
X151200000Y-108100000D03*
X154150000Y-108100000D03*
D39*
X119536500Y-96295000D03*
X119536500Y-94105000D03*
D40*
X117626500Y-96295000D03*
X117626500Y-94105000D03*
D26*
X121539000Y-97105000D03*
X121539000Y-95835000D03*
X121539000Y-94565000D03*
X121539000Y-93295000D03*
X115939000Y-97105000D03*
X115939000Y-95835000D03*
X115939000Y-94565000D03*
X115939000Y-93295000D03*
D20*
X100050000Y-85540000D03*
X100050000Y-87440000D03*
D11*
X166326315Y-95963089D03*
X164426315Y-95963089D03*
D41*
X141600000Y-83687500D03*
X141600000Y-85512500D03*
D42*
X113250000Y-96975000D03*
X113250000Y-94025000D03*
D20*
X157000000Y-83750000D03*
X157000000Y-85650000D03*
D39*
X119497500Y-103295000D03*
X119497500Y-101105000D03*
D40*
X117587500Y-103295000D03*
X117587500Y-101105000D03*
D26*
X121500000Y-104105000D03*
X121500000Y-102835000D03*
X121500000Y-101565000D03*
X121500000Y-100295000D03*
X115900000Y-104105000D03*
X115900000Y-102835000D03*
X115900000Y-101565000D03*
X115900000Y-100295000D03*
D41*
X146230000Y-73507500D03*
X146230000Y-75332500D03*
D27*
X139100000Y-81887500D03*
X139100000Y-84687500D03*
D43*
X98250000Y-92590000D03*
X93850000Y-92590000D03*
D41*
X158500000Y-74366100D03*
X158500000Y-76191100D03*
D13*
X131263000Y-156584000D03*
X130761000Y-156584000D03*
X130259000Y-156584000D03*
X129757000Y-156584000D03*
X129255000Y-156584000D03*
X128753000Y-156584000D03*
X128251000Y-156584000D03*
X127749000Y-156584000D03*
X127247000Y-156584000D03*
X126745000Y-156584000D03*
X126243000Y-156584000D03*
X125741000Y-156584000D03*
X125239000Y-156584000D03*
X124737000Y-156584000D03*
X124750000Y-162416000D03*
X125250000Y-162416000D03*
X125750000Y-162416000D03*
X126250000Y-162416000D03*
X126750000Y-162416000D03*
X127247000Y-162416000D03*
X127750000Y-162416000D03*
X128251000Y-162416000D03*
X128753000Y-162416000D03*
X129255000Y-162416000D03*
X129757000Y-162416000D03*
X130250000Y-162416000D03*
X130761000Y-162416000D03*
X131250000Y-162416000D03*
D36*
X122870000Y-78240000D03*
X122870000Y-76340000D03*
D29*
X156750000Y-80300000D03*
X158650000Y-80300000D03*
D11*
X162826315Y-95963089D03*
X160926315Y-95963089D03*
D23*
X158312500Y-88400000D03*
X156487500Y-88400000D03*
D38*
X151225000Y-101700000D03*
X154175000Y-101700000D03*
D41*
X113780000Y-79945000D03*
X113780000Y-81770000D03*
D17*
X135987500Y-77825000D03*
X135987500Y-76000000D03*
D44*
X103710000Y-101150000D03*
X103710000Y-107650000D03*
D30*
X98200000Y-85340000D03*
X97250000Y-85340000D03*
X96300000Y-85340000D03*
X96300000Y-87615000D03*
X97250000Y-87615000D03*
X98200000Y-87615000D03*
D13*
X138737000Y-147416000D03*
X139239000Y-147416000D03*
X139741000Y-147416000D03*
X140243000Y-147416000D03*
X140745000Y-147416000D03*
X141247000Y-147416000D03*
X141749000Y-147416000D03*
X142251000Y-147416000D03*
X142753000Y-147416000D03*
X143255000Y-147416000D03*
X143757000Y-147416000D03*
X144259000Y-147416000D03*
X144761000Y-147416000D03*
X145263000Y-147416000D03*
X145250000Y-141584000D03*
X144750000Y-141584000D03*
X144250000Y-141584000D03*
X143750000Y-141584000D03*
X143250000Y-141584000D03*
X142753000Y-141584000D03*
X142250000Y-141584000D03*
X141749000Y-141584000D03*
X141247000Y-141584000D03*
X140745000Y-141584000D03*
X140243000Y-141584000D03*
X139750000Y-141584000D03*
X139239000Y-141584000D03*
X138750000Y-141584000D03*
D11*
X177126315Y-96443089D03*
X175226315Y-96443089D03*
D45*
X98250000Y-95290000D03*
X98250000Y-98890000D03*
D17*
X139100000Y-88200000D03*
X139100000Y-86375000D03*
D23*
X170058815Y-96463089D03*
X168233815Y-96463089D03*
D11*
X166326315Y-90763089D03*
X164426315Y-90763089D03*
D16*
X114147500Y-83520000D03*
X115972500Y-83520000D03*
D36*
X120870000Y-78230000D03*
X120870000Y-76330000D03*
D30*
X173676315Y-92283089D03*
X172726315Y-92283089D03*
X171776315Y-92283089D03*
X171776315Y-94558089D03*
X173676315Y-94558089D03*
D29*
X171726315Y-90163089D03*
X173626315Y-90163089D03*
D13*
X138737000Y-162416000D03*
X139239000Y-162416000D03*
X139741000Y-162416000D03*
X140243000Y-162416000D03*
X140745000Y-162416000D03*
X141247000Y-162416000D03*
X141749000Y-162416000D03*
X142251000Y-162416000D03*
X142753000Y-162416000D03*
X143255000Y-162416000D03*
X143757000Y-162416000D03*
X144259000Y-162416000D03*
X144761000Y-162416000D03*
X145263000Y-162416000D03*
X145250000Y-156584000D03*
X144750000Y-156584000D03*
X144250000Y-156584000D03*
X143750000Y-156584000D03*
X143250000Y-156584000D03*
X142753000Y-156584000D03*
X142250000Y-156584000D03*
X141749000Y-156584000D03*
X141247000Y-156584000D03*
X140745000Y-156584000D03*
X140243000Y-156584000D03*
X139750000Y-156584000D03*
X139239000Y-156584000D03*
X138750000Y-156584000D03*
D17*
X115770000Y-81792500D03*
X115770000Y-79967500D03*
D36*
X144300000Y-77650000D03*
X144300000Y-75750000D03*
D46*
X128672500Y-88580000D03*
X125747500Y-88580000D03*
D36*
X118870000Y-76405000D03*
X118870000Y-74505000D03*
D23*
X115470000Y-78105000D03*
X113645000Y-78105000D03*
D47*
X149850000Y-151260000D03*
X149350000Y-151260000D03*
X148850000Y-151260000D03*
X148850000Y-152740000D03*
X149350000Y-152740000D03*
X149850000Y-152740000D03*
D38*
X151225000Y-95300000D03*
X154175000Y-95300000D03*
D48*
X171540000Y-81080000D03*
X171540000Y-85120000D03*
X170270000Y-81080000D03*
X170270000Y-85120000D03*
X169000000Y-81080000D03*
X169000000Y-85120000D03*
X167730000Y-81080000D03*
X167730000Y-85120000D03*
X166460000Y-81080000D03*
X166460000Y-85120000D03*
D14*
X145475000Y-101600000D03*
X142525000Y-101600000D03*
D49*
X104900000Y-94187500D03*
X104900000Y-87812500D03*
D38*
X151225000Y-98500000D03*
X154175000Y-98500000D03*
D17*
X135900000Y-88200000D03*
X135900000Y-86375000D03*
D23*
X154812500Y-87200000D03*
X152987500Y-87200000D03*
D15*
X130180000Y-104838000D03*
X137790000Y-104838000D03*
D50*
X122070000Y-81142500D03*
D51*
X121207500Y-81142500D03*
X120207500Y-81142500D03*
D52*
X119345000Y-81142500D03*
D53*
X122070000Y-82005000D03*
D54*
X121207500Y-82005000D03*
X120207500Y-82005000D03*
D55*
X119345000Y-82005000D03*
D53*
X122070000Y-83005000D03*
D54*
X121207500Y-83005000D03*
X120207500Y-83005000D03*
D55*
X119345000Y-83005000D03*
D56*
X122070000Y-83867500D03*
D57*
X121207500Y-83867500D03*
X120207500Y-83867500D03*
D58*
X119345000Y-83867500D03*
D59*
X122457500Y-80067500D03*
X121957500Y-80067500D03*
X121457500Y-80067500D03*
X120957500Y-80067500D03*
X120457500Y-80067500D03*
X119957500Y-80067500D03*
X119457500Y-80067500D03*
X118957500Y-80067500D03*
D60*
X118270000Y-80755000D03*
X118270000Y-81255000D03*
X118270000Y-81755000D03*
X118270000Y-82255000D03*
X118270000Y-82755000D03*
X118270000Y-83255000D03*
X118270000Y-83755000D03*
X118270000Y-84255000D03*
D59*
X118957500Y-84942500D03*
X119457500Y-84942500D03*
X119957500Y-84942500D03*
X120457500Y-84942500D03*
X120957500Y-84942500D03*
X121457500Y-84942500D03*
X121957500Y-84942500D03*
X122457500Y-84942500D03*
D60*
X123145000Y-84255000D03*
X123145000Y-83755000D03*
X123145000Y-83255000D03*
X123145000Y-82755000D03*
X123145000Y-82255000D03*
X123145000Y-81755000D03*
X123145000Y-81255000D03*
X123145000Y-80755000D03*
D61*
X168196315Y-94290589D03*
X170096315Y-94290589D03*
X169146315Y-92415589D03*
D24*
X126190000Y-95190000D03*
X124000000Y-95190000D03*
D25*
X126190000Y-97100000D03*
X124000000Y-97100000D03*
D26*
X127000000Y-93187500D03*
X125730000Y-93187500D03*
X124460000Y-93187500D03*
X123190000Y-93187500D03*
X127000000Y-98787500D03*
X125730000Y-98787500D03*
X124460000Y-98787500D03*
X123190000Y-98787500D03*
D14*
X145475000Y-98400000D03*
X142525000Y-98400000D03*
D62*
X154775000Y-83600000D03*
X154775000Y-82800000D03*
X154775000Y-82000000D03*
X154775000Y-81200000D03*
X154775000Y-80400000D03*
X154775000Y-79600000D03*
X154775000Y-78800000D03*
X154775000Y-78000000D03*
D63*
X153400000Y-76625000D03*
X152600000Y-76625000D03*
X151800000Y-76625000D03*
X151000000Y-76625000D03*
X150200000Y-76625000D03*
X149400000Y-76625000D03*
X148600000Y-76625000D03*
X147800000Y-76625000D03*
D62*
X146425000Y-78000000D03*
X146425000Y-78800000D03*
X146425000Y-79600000D03*
X146425000Y-80400000D03*
X146425000Y-81200000D03*
X146425000Y-82000000D03*
X146425000Y-82800000D03*
X146425000Y-83600000D03*
D63*
X147800000Y-84975000D03*
X148600000Y-84975000D03*
X149400000Y-84975000D03*
X150200000Y-84975000D03*
X151000000Y-84975000D03*
X151800000Y-84975000D03*
X152600000Y-84975000D03*
X153400000Y-84975000D03*
D18*
X109900000Y-102875000D03*
X109900000Y-105825000D03*
D42*
X110000000Y-96975000D03*
X110000000Y-94025000D03*
D21*
X117770000Y-86855000D03*
X117770000Y-88955000D03*
D11*
X118970000Y-78155000D03*
X117070000Y-78155000D03*
D23*
X116970000Y-76205000D03*
X115145000Y-76205000D03*
D36*
X121870000Y-88855000D03*
X121870000Y-86955000D03*
D20*
X125970000Y-84755000D03*
X125970000Y-86655000D03*
D16*
X168233815Y-90163089D03*
X170058815Y-90163089D03*
X147487500Y-87000000D03*
X149312500Y-87000000D03*
D64*
X96825000Y-89890000D03*
X93875000Y-89890000D03*
D17*
X120970000Y-74805000D03*
X120970000Y-72980000D03*
D37*
X161150000Y-94293089D03*
X161800000Y-94293089D03*
X162450000Y-94293089D03*
X162450000Y-92393089D03*
X161150000Y-92393089D03*
M02*
